  0
SECTION
  2
HEADER
  9
$ACADVER
  1
AC1027
  9
$ACADMAINTVER
 70
105
  9
$DWGCODEPAGE
  3
ANSI_1252
  9
$LASTSAVEDBY
  1
ezdxf
  9
$REQUIREDVERSIONS
160
0
  9
$INSBASE
 10
0.0
 20
0.0
 30
0.0
  9
$EXTMIN
 10
1e+20
 20
1e+20
 30
1e+20
  9
$EXTMAX
 10
-1e+20
 20
-1e+20
 30
-1e+20
  9
$LIMMIN
 10
0.0
 20
0.0
  9
$LIMMAX
 10
420.0
 20
297.0
  9
$ORTHOMODE
 70
0
  9
$REGENMODE
 70
1
  9
$FILLMODE
 70
1
  9
$QTEXTMODE
 70
0
  9
$MIRRTEXT
 70
1
  9
$LTSCALE
 40
1.0
  9
$ATTMODE
 70
1
  9
$TEXTSIZE
 40
2.5
  9
$TRACEWID
 40
1.0
  9
$TEXTSTYLE
  7
Standard
  9
$CLAYER
  8
0
  9
$CELTYPE
  6
ByLayer
  9
$CECOLOR
 62
256
  9
$CELTSCALE
 40
1.0
  9
$DISPSILH
 70
0
  9
$DIMSCALE
 40
1.0
  9
$DIMASZ
 40
2.5
  9
$DIMEXO
 40
0.625
  9
$DIMDLI
 40
3.75
  9
$DIMRND
 40
0.0
  9
$DIMDLE
 40
0.0
  9
$DIMEXE
 40
1.25
  9
$DIMTP
 40
0.0
  9
$DIMTM
 40
0.0
  9
$DIMTXT
 40
2.5
  9
$DIMCEN
 40
2.5
  9
$DIMTSZ
 40
0.0
  9
$DIMTOL
 70
0
  9
$DIMLIM
 70
0
  9
$DIMTIH
 70
0
  9
$DIMTOH
 70
0
  9
$DIMSE1
 70
0
  9
$DIMSE2
 70
0
  9
$DIMTAD
 70
1
  9
$DIMZIN
 70
8
  9
$DIMBLK
  1

  9
$DIMASO
 70
1
  9
$DIMSHO
 70
1
  9
$DIMPOST
  1

  9
$DIMAPOST
  1

  9
$DIMALT
 70
0
  9
$DIMALTD
 70
3
  9
$DIMALTF
 40
0.03937007874
  9
$DIMLFAC
 40
1.0
  9
$DIMTOFL
 70
1
  9
$DIMTVP
 40
0.0
  9
$DIMTIX
 70
0
  9
$DIMSOXD
 70
0
  9
$DIMSAH
 70
0
  9
$DIMBLK1
  1

  9
$DIMBLK2
  1

  9
$DIMSTYLE
  2
ISO-25
  9
$DIMCLRD
 70
0
  9
$DIMCLRE
 70
0
  9
$DIMCLRT
 70
0
  9
$DIMTFAC
 40
1.0
  9
$DIMGAP
 40
0.625
  9
$DIMJUST
 70
0
  9
$DIMSD1
 70
0
  9
$DIMSD2
 70
0
  9
$DIMTOLJ
 70
0
  9
$DIMTZIN
 70
8
  9
$DIMALTZ
 70
0
  9
$DIMALTTZ
 70
0
  9
$DIMUPT
 70
0
  9
$DIMDEC
 70
2
  9
$DIMTDEC
 70
2
  9
$DIMALTU
 70
2
  9
$DIMALTTD
 70
3
  9
$DIMTXSTY
  7
Standard
  9
$DIMAUNIT
 70
0
  9
$DIMADEC
 70
0
  9
$DIMALTRND
 40
0.0
  9
$DIMAZIN
 70
0
  9
$DIMDSEP
 70
44
  9
$DIMATFIT
 70
3
  9
$DIMFRAC
 70
0
  9
$DIMLDRBLK
  1

  9
$DIMLUNIT
 70
2
  9
$DIMLWD
 70
-2
  9
$DIMLWE
 70
-2
  9
$DIMTMOVE
 70
0
  9
$DIMFXL
 40
1.0
  9
$DIMFXLON
 70
0
  9
$DIMJOGANG
 40
0.785398163397
  9
$DIMTFILL
 70
0
  9
$DIMTFILLCLR
 70
0
  9
$DIMARCSYM
 70
0
  9
$DIMLTYPE
  6

  9
$DIMLTEX1
  6

  9
$DIMLTEX2
  6

  9
$DIMTXTDIRECTION
 70
0
  9
$LUNITS
 70
2
  9
$LUPREC
 70
4
  9
$SKETCHINC
 40
1.0
  9
$FILLETRAD
 40
10.0
  9
$AUNITS
 70
0
  9
$AUPREC
 70
2
  9
$MENU
  1
.
  9
$ELEVATION
 40
0.0
  9
$PELEVATION
 40
0.0
  9
$THICKNESS
 40
0.0
  9
$LIMCHECK
 70
0
  9
$CHAMFERA
 40
0.0
  9
$CHAMFERB
 40
0.0
  9
$CHAMFERC
 40
0.0
  9
$CHAMFERD
 40
0.0
  9
$SKPOLY
 70
0
  9
$TDCREATE
 40
2460284.396412037
  9
$TDUCREATE
 40
2458532.153996898
  9
$TDUPDATE
 40
2460284.396412037
  9
$TDUUPDATE
 40
2458532.1544311
  9
$TDINDWG
 40
0.0
  9
$TDUSRTIMER
 40
0.0
  9
$USRTIMER
 70
1
  9
$ANGBASE
 50
0.0
  9
$ANGDIR
 70
0
  9
$PDMODE
 70
0
  9
$PDSIZE
 40
0.0
  9
$PLINEWID
 40
0.0
  9
$SPLFRAME
 70
0
  9
$SPLINETYPE
 70
6
  9
$SPLINESEGS
 70
8
  9
$HANDSEED
  5
BE
  9
$SURFTAB1
 70
6
  9
$SURFTAB2
 70
6
  9
$SURFTYPE
 70
6
  9
$SURFU
 70
6
  9
$SURFV
 70
6
  9
$UCSBASE
  2

  9
$UCSNAME
  2

  9
$UCSORG
 10
0.0
 20
0.0
 30
0.0
  9
$UCSXDIR
 10
1.0
 20
0.0
 30
0.0
  9
$UCSYDIR
 10
0.0
 20
1.0
 30
0.0
  9
$UCSORTHOREF
  2

  9
$UCSORTHOVIEW
 70
0
  9
$UCSORGTOP
 10
0.0
 20
0.0
 30
0.0
  9
$UCSORGBOTTOM
 10
0.0
 20
0.0
 30
0.0
  9
$UCSORGLEFT
 10
0.0
 20
0.0
 30
0.0
  9
$UCSORGRIGHT
 10
0.0
 20
0.0
 30
0.0
  9
$UCSORGFRONT
 10
0.0
 20
0.0
 30
0.0
  9
$UCSORGBACK
 10
0.0
 20
0.0
 30
0.0
  9
$PUCSBASE
  2

  9
$PUCSNAME
  2

  9
$PUCSORG
 10
0.0
 20
0.0
 30
0.0
  9
$PUCSXDIR
 10
1.0
 20
0.0
 30
0.0
  9
$PUCSYDIR
 10
0.0
 20
1.0
 30
0.0
  9
$PUCSORTHOREF
  2

  9
$PUCSORTHOVIEW
 70
0
  9
$PUCSORGTOP
 10
0.0
 20
0.0
 30
0.0
  9
$PUCSORGBOTTOM
 10
0.0
 20
0.0
 30
0.0
  9
$PUCSORGLEFT
 10
0.0
 20
0.0
 30
0.0
  9
$PUCSORGRIGHT
 10
0.0
 20
0.0
 30
0.0
  9
$PUCSORGFRONT
 10
0.0
 20
0.0
 30
0.0
  9
$PUCSORGBACK
 10
0.0
 20
0.0
 30
0.0
  9
$USERI1
 70
0
  9
$USERI2
 70
0
  9
$USERI3
 70
0
  9
$USERI4
 70
0
  9
$USERI5
 70
0
  9
$USERR1
 40
0.0
  9
$USERR2
 40
0.0
  9
$USERR3
 40
0.0
  9
$USERR4
 40
0.0
  9
$USERR5
 40
0.0
  9
$WORLDVIEW
 70
1
  9
$SHADEDGE
 70
3
  9
$SHADEDIF
 70
70
  9
$TILEMODE
 70
1
  9
$MAXACTVP
 70
64
  9
$PINSBASE
 10
0.0
 20
0.0
 30
0.0
  9
$PLIMCHECK
 70
0
  9
$PEXTMIN
 10
1e+20
 20
1e+20
 30
1e+20
  9
$PEXTMAX
 10
-1e+20
 20
-1e+20
 30
-1e+20
  9
$PLIMMIN
 10
0.0
 20
0.0
  9
$PLIMMAX
 10
420.0
 20
297.0
  9
$UNITMODE
 70
0
  9
$VISRETAIN
 70
1
  9
$PLINEGEN
 70
0
  9
$PSLTSCALE
 70
1
  9
$TREEDEPTH
 70
3020
  9
$CMLSTYLE
  2
Standard
  9
$CMLJUST
 70
0
  9
$CMLSCALE
 40
20.0
  9
$PROXYGRAPHICS
 70
1
  9
$MEASUREMENT
 70
1
  9
$CELWEIGHT
370
-1
  9
$ENDCAPS
280
0
  9
$JOINSTYLE
280
0
  9
$LWDISPLAY
290
0
  9
$INSUNITS
 70
6
  9
$HYPERLINKBASE
  1

  9
$STYLESHEET
  1

  9
$XEDIT
290
1
  9
$CEPSNTYPE
380
0
  9
$PSTYLEMODE
290
1
  9
$FINGERPRINTGUID
  2
{D7B4C471-D5E9-4CCA-BF7D-CD46682223B9}
  9
$VERSIONGUID
  2
{08590484-F088-4FEB-9EE6-56D383C10EE3}
  9
$EXTNAMES
290
1
  9
$PSVPSCALE
 40
0.0
  9
$OLESTARTUP
290
0
  9
$SORTENTS
280
127
  9
$INDEXCTL
280
0
  9
$HIDETEXT
280
1
  9
$XCLIPFRAME
280
0
  9
$HALOGAP
280
0
  9
$OBSCOLOR
 70
257
  9
$OBSLTYPE
280
0
  9
$INTERSECTIONDISPLAY
280
0
  9
$INTERSECTIONCOLOR
 70
257
  9
$DIMASSOC
280
2
  9
$PROJECTNAME
  1

  9
$CAMERADISPLAY
290
0
  9
$LENSLENGTH
 40
50.0
  9
$CAMERAHEIGHT
 40
0.0
  9
$STEPSPERSEC
 40
24.0
  9
$STEPSIZE
 40
100.0
  9
$3DDWFPREC
 40
2.0
  9
$PSOLWIDTH
 40
0.005
  9
$PSOLHEIGHT
 40
0.08
  9
$LOFTANG1
 40
1.570796326795
  9
$LOFTANG2
 40
1.570796326795
  9
$LOFTMAG1
 40
0.0
  9
$LOFTMAG2
 40
0.0
  9
$LOFTPARAM
 70
7
  9
$LOFTNORMALS
280
1
  9
$LATITUDE
 40
37.795
  9
$LONGITUDE
 40
-122.394
  9
$NORTHDIRECTION
 40
0.0
  9
$TIMEZONE
 70
-8000
  9
$LIGHTGLYPHDISPLAY
280
1
  9
$TILEMODELIGHTSYNCH
280
1
  9
$CMATERIAL
347
20
  9
$SOLIDHIST
280
0
  9
$SHOWHIST
280
1
  9
$DWFFRAME
280
2
  9
$DGNFRAME
280
2
  9
$REALWORLDSCALE
290
1
  9
$INTERFERECOLOR
 62
256
  9
$CSHADOW
280
0
  9
$SHADOWPLANELOCATION
 40
0.0
  0
ENDSEC
  0
SECTION
  2
CLASSES
  0
CLASS
  1
ACDBDICTIONARYWDFLT
  2
AcDbDictionaryWithDefault
  3
ObjectDBX Classes
 90
0
 91
0
280
0
281
0
  0
CLASS
  1
SUN
  2
AcDbSun
  3
SCENEOE
 90
1153
 91
0
280
0
281
0
  0
CLASS
  1
VISUALSTYLE
  2
AcDbVisualStyle
  3
ObjectDBX Classes
 90
4095
 91
0
280
0
281
0
  0
CLASS
  1
MATERIAL
  2
AcDbMaterial
  3
ObjectDBX Classes
 90
1153
 91
0
280
0
281
0
  0
CLASS
  1
SCALE
  2
AcDbScale
  3
ObjectDBX Classes
 90
1153
 91
0
280
0
281
0
  0
CLASS
  1
TABLESTYLE
  2
AcDbTableStyle
  3
ObjectDBX Classes
 90
4095
 91
0
280
0
281
0
  0
CLASS
  1
MLEADERSTYLE
  2
AcDbMLeaderStyle
  3
ACDB_MLEADERSTYLE_CLASS
 90
4095
 91
0
280
0
281
0
  0
CLASS
  1
DICTIONARYVAR
  2
AcDbDictionaryVar
  3
ObjectDBX Classes
 90
0
 91
0
280
0
281
0
  0
CLASS
  1
CELLSTYLEMAP
  2
AcDbCellStyleMap
  3
ObjectDBX Classes
 90
1152
 91
0
280
0
281
0
  0
CLASS
  1
MENTALRAYRENDERSETTINGS
  2
AcDbMentalRayRenderSettings
  3
SCENEOE
 90
1024
 91
0
280
0
281
0
  0
CLASS
  1
ACDBDETAILVIEWSTYLE
  2
AcDbDetailViewStyle
  3
ObjectDBX Classes
 90
1025
 91
0
280
0
281
0
  0
CLASS
  1
ACDBSECTIONVIEWSTYLE
  2
AcDbSectionViewStyle
  3
ObjectDBX Classes
 90
1025
 91
0
280
0
281
0
  0
CLASS
  1
RASTERVARIABLES
  2
AcDbRasterVariables
  3
ISM
 90
0
 91
0
280
0
281
0
  0
CLASS
  1
LAYOUT
  2
AcDbLayout
  3
ObjectDBX Classes
 90
0
 91
0
280
0
281
0
  0
CLASS
  1
ACDBPLACEHOLDER
  2
AcDbPlaceHolder
  3
ObjectDBX Classes
 90
0
 91
0
280
0
281
0
  0
ENDSEC
  0
SECTION
  2
TABLES
  0
TABLE
  2
VPORT
  5
8
330
0
100
AcDbSymbolTable
 70
1
  0
VPORT
  5
23
330
8
100
AcDbSymbolTableRecord
100
AcDbViewportTableRecord
  2
*Active
 70
0
 10
0.0
 20
0.0
 11
1.0
 21
1.0
 12
0.0
 22
0.0
 13
0.0
 23
0.0
 14
0.5
 24
0.5
 15
0.5
 25
0.5
 16
0.0
 26
0.0
 36
1.0
 17
0.0
 27
0.0
 37
0.0
 40
1000.0
 41
1.34
 42
50.0
 43
0.0
 44
0.0
 50
0.0
 51
0.0
 71
0
 72
1000
 73
1
 74
3
 75
0
 76
0
 77
0
 78
0
281
0
 65
0
146
0.0
  0
ENDTAB
  0
TABLE
  2
LTYPE
  5
2
330
0
100
AcDbSymbolTable
 70
3
  0
LTYPE
  5
24
330
2
100
AcDbSymbolTableRecord
100
AcDbLinetypeTableRecord
  2
ByBlock
 70
0
  3

 72
65
 73
0
 40
0.0
  0
LTYPE
  5
25
330
2
100
AcDbSymbolTableRecord
100
AcDbLinetypeTableRecord
  2
ByLayer
 70
0
  3

 72
65
 73
0
 40
0.0
  0
LTYPE
  5
26
330
2
100
AcDbSymbolTableRecord
100
AcDbLinetypeTableRecord
  2
Continuous
 70
0
  3

 72
65
 73
0
 40
0.0
  0
ENDTAB
  0
TABLE
  2
LAYER
  5
1
330
0
100
AcDbSymbolTable
 70
8
  0
LAYER
  5
27
330
1
100
AcDbSymbolTableRecord
100
AcDbLayerTableRecord
  2
0
 70
0
 62
7
  6
Continuous
370
-3
390
13
347
21
  0
LAYER
  5
28
330
1
100
AcDbSymbolTableRecord
100
AcDbLayerTableRecord
  2
Defpoints
 70
0
 62
7
  6
Continuous
290
0
370
-3
390
13
347
21
  0
LAYER
  5
2F
330
1
100
AcDbSymbolTableRecord
100
AcDbLayerTableRecord
  2
B1
 70
0
 62
1
  6
Continuous
370
-3
390
13
347
21
  0
LAYER
  5
53
330
1
100
AcDbSymbolTableRecord
100
AcDbLayerTableRecord
  2
B2
 70
0
 62
2
  6
Continuous
370
-3
390
13
347
21
  0
LAYER
  5
70
330
1
100
AcDbSymbolTableRecord
100
AcDbLayerTableRecord
  2
B3
 70
0
 62
3
  6
Continuous
370
-3
390
13
347
21
  0
LAYER
  5
7F
330
1
100
AcDbSymbolTableRecord
100
AcDbLayerTableRecord
  2
B4
 70
0
 62
4
  6
Continuous
370
-3
390
13
347
21
  0
LAYER
  5
92
330
1
100
AcDbSymbolTableRecord
100
AcDbLayerTableRecord
  2
B5
 70
0
 62
5
  6
Continuous
370
-3
390
13
347
21
  0
LAYER
  5
A8
330
1
100
AcDbSymbolTableRecord
100
AcDbLayerTableRecord
  2
B6
 70
0
 62
6
  6
Continuous
370
-3
390
13
347
21
  0
ENDTAB
  0
TABLE
  2
STYLE
  5
5
330
0
100
AcDbSymbolTable
 70
1
  0
STYLE
  5
29
330
5
100
AcDbSymbolTableRecord
100
AcDbTextStyleTableRecord
  2
Standard
 70
0
 40
0.0
 41
1.0
 50
0.0
 71
0
 42
2.5
  3
txt
  4

  0
ENDTAB
  0
TABLE
  2
VIEW
  5
7
330
0
100
AcDbSymbolTable
 70
0
  0
ENDTAB
  0
TABLE
  2
UCS
  5
6
330
0
100
AcDbSymbolTable
 70
0
  0
ENDTAB
  0
TABLE
  2
APPID
  5
3
330
0
100
AcDbSymbolTable
 70
3
  0
APPID
  5
2A
330
3
100
AcDbSymbolTableRecord
100
AcDbRegAppTableRecord
  2
ACAD
 70
0
  0
APPID
  5
BB
330
3
100
AcDbSymbolTableRecord
100
AcDbRegAppTableRecord
  2
HATCHBACKGROUNDCOLOR
 70
0
  0
APPID
  5
BC
330
3
100
AcDbSymbolTableRecord
100
AcDbRegAppTableRecord
  2
EZDXF
 70
0
  0
ENDTAB
  0
TABLE
  2
DIMSTYLE
  5
4
330
0
100
AcDbSymbolTable
 70
1
100
AcDbDimStyleTable
  0
DIMSTYLE
105
2B
330
4
100
AcDbSymbolTableRecord
100
AcDbDimStyleTableRecord
  2
Standard
 70
0
 40
1.0
 41
2.5
 42
0.625
 43
3.75
 44
1.25
 45
0.0
 46
0.0
 47
0.0
 48
0.0
 49
2.5
140
2.5
141
2.5
142
0.0
143
0.03937007874
144
1.0
145
0.0
146
1.0
147
0.625
148
0.0
 69
0
 70
0
 71
0
 72
0
 73
0
 74
0
 75
0
 76
0
 77
1
 78
8
 79
3
170
0
171
3
172
1
173
0
174
0
175
0
176
0
177
0
178
0
179
2
271
2
272
2
273
2
274
3
275
0
276
0
277
2
278
44
279
0
280
0
281
0
282
0
283
0
284
8
285
0
286
0
288
0
289
3
290
0
371
-2
372
-2
  0
ENDTAB
  0
TABLE
  2
BLOCK_RECORD
  5
9
330
0
100
AcDbSymbolTable
 70
2
  0
BLOCK_RECORD
  5
17
330
9
100
AcDbSymbolTableRecord
100
AcDbBlockTableRecord
  2
*Model_Space
340
1A
 70
0
280
1
281
0
  0
BLOCK_RECORD
  5
1B
330
9
100
AcDbSymbolTableRecord
100
AcDbBlockTableRecord
  2
*Paper_Space
340
1E
 70
0
280
1
281
0
  0
ENDTAB
  0
ENDSEC
  0
SECTION
  2
BLOCKS
  0
BLOCK
  5
18
330
17
100
AcDbEntity
  8
0
100
AcDbBlockBegin
  2
*Model_Space
 70
0
 10
0.0
 20
0.0
 30
0.0
  3
*Model_Space
  1

  0
ENDBLK
  5
19
330
17
100
AcDbEntity
  8
0
100
AcDbBlockEnd
  0
BLOCK
  5
1C
330
1B
100
AcDbEntity
  8
0
100
AcDbBlockBegin
  2
*Paper_Space
 70
0
 10
0.0
 20
0.0
 30
0.0
  3
*Paper_Space
  1

  0
ENDBLK
  5
1D
330
1B
100
AcDbEntity
  8
0
100
AcDbBlockEnd
  0
ENDSEC
  0
SECTION
  2
ENTITIES
  0
LINE
  5
30
330
17
100
AcDbEntity
  8
B1
100
AcDbLine
 10
571397.5359473653
 20
785605.1156206394
 30
22.104896249918234
 11
571359.2398674283
 21
785615.8912291137
 31
20.932855115648138
  0
TEXT
  5
31
330
17
100
AcDbEntity
  8
0
100
AcDbText
 10
571397.0548464761
 20
785605.2509910174
 30
22.090172287755166
 40
0.5
  1
19.145
 72
2
 11
571397.0548464761
 21
785605.2509910174
 31
22.090172287755166
100
AcDbText
 73
2
  0
LINE
  5
32
330
17
100
AcDbEntity
  8
B1
100
AcDbLine
 10
571358.7582569519
 20
785616.0267428776
 30
20.921884884698326
 11
571320.5425822561
 21
785626.7797272248
 31
20.35581185310791
  0
TEXT
  5
33
330
17
100
AcDbEntity
  8
0
100
AcDbText
 10
571358.9990621902
 20
785615.9589859956
 30
20.927370000173234
 40
0.5
  1
17.982
 11
571358.9990621902
 21
785615.9589859956
 31
20.927370000173234
100
AcDbText
 73
2
  0
LINE
  5
34
330
17
100
AcDbEntity
  8
B1
100
AcDbLine
 10
571320.0606368015
 20
785626.9153352435
 30
20.352512053027883
 11
571281.791879127
 21
785637.6832558814
 31
20.39575074879161
  0
TEXT
  5
35
330
17
100
AcDbEntity
  8
0
100
AcDbText
 10
571320.3016095288
 20
785626.8475312341
 30
20.354161953067894
 40
0.5
  1
17.409
 11
571320.3016095288
 21
785626.8475312341
 31
20.354161953067894
100
AcDbText
 73
2
  0
TEXT
  5
36
330
17
100
AcDbEntity
  8
0
100
AcDbText
 10
571282.273188468
 20
785637.54782685
 30
20.39520693212686
 40
0.5
  1
17.450
 11
571282.273188468
 21
785637.54782685
 31
20.39520693212686
100
AcDbText
 73
2
  0
LINE
  5
37
330
17
100
AcDbEntity
  8
B1
100
AcDbLine
 10
571397.0742319556
 20
785603.4611962104
 30
22.139249368109205
 11
571358.7317517844
 21
785613.8052806854
 31
20.977338596962426
  0
TEXT
  5
38
330
17
100
AcDbEntity
  8
0
100
AcDbText
 10
571396.5916973375
 20
785603.591375031
 30
22.12462688756647
 40
0.5
  1
19.180
 72
2
 11
571396.5916973375
 21
785603.591375031
 31
22.12462688756647
100
AcDbText
 73
2
  0
LINE
  5
39
330
17
100
AcDbEntity
  8
B1
100
AcDbLine
 10
571358.2488649187
 20
785613.935554536
 30
20.966466297271136
 11
571319.9718616032
 21
785624.261974579
 31
20.408229123719366
  0
TEXT
  5
3A
330
17
100
AcDbEntity
  8
0
100
AcDbText
 10
571358.4903083516
 20
785613.8704176107
 30
20.971902447116783
 40
0.5
  1
18.027
 11
571358.4903083516
 21
785613.8704176107
 31
20.971902447116783
100
AcDbText
 73
2
  0
LINE
  5
3B
330
17
100
AcDbEntity
  8
B1
100
AcDbLine
 10
571319.4887224359
 20
785624.3923164957
 30
20.405014701514208
 11
571281.1717590946
 21
785634.7295170071
 31
20.454278624265616
  0
TEXT
  5
3C
330
17
100
AcDbEntity
  8
0
100
AcDbText
 10
571319.7302920196
 20
785624.3271455374
 30
20.406621912616785
 40
0.5
  1
17.462
 11
571319.7302920196
 21
785624.3271455374
 31
20.406621912616785
100
AcDbText
 73
2
  0
TEXT
  5
3D
330
17
100
AcDbEntity
  8
0
100
AcDbText
 10
571281.6544998214
 20
785634.5992825822
 30
20.453657966995276
 40
0.5
  1
17.509
 11
571281.6544998214
 21
785634.5992825822
 31
20.453657966995276
100
AcDbText
 73
2
  0
LINE
  5
3E
330
17
100
AcDbEntity
  8
B1
100
AcDbLine
 10
571396.6125165191
 20
785601.8067717887
 30
22.17360225043961
 11
571358.2236679983
 21
785611.7194630424
 31
21.02182124374028
  0
TEXT
  5
3F
330
17
100
AcDbEntity
  8
0
100
AcDbText
 10
571396.1285999874
 20
785601.9317277423
 30
22.159083297890458
 40
0.5
  1
19.214
 72
2
 11
571396.1285999874
 21
785601.9317277423
 31
22.159083297890458
100
AcDbText
 73
2
  0
LINE
  5
40
330
17
100
AcDbEntity
  8
B1
100
AcDbLine
 10
571357.739501472
 20
785611.8444835491
 30
21.01104728270642
 11
571319.4011229537
 21
785621.7441425401
 31
20.460654130317657
  0
TEXT
  5
41
330
17
100
AcDbEntity
  8
0
100
AcDbText
 10
571357.9815847352
 20
785611.7819732958
 30
21.016434263223353
 40
0.5
  1
18.071
 11
571357.9815847352
 21
785611.7819732958
 31
21.016434263223353
100
AcDbText
 73
2
  0
LINE
  5
42
330
17
100
AcDbEntity
  8
B1
100
AcDbLine
 10
571318.9167874285
 20
785621.8692066853
 30
20.4575254130376
 11
571280.5516390612
 21
785631.775778133
 31
20.512821315924207
  0
TEXT
  5
43
330
17
100
AcDbEntity
  8
0
100
AcDbText
 10
571319.1589551911
 20
785621.8066746127
 30
20.45908977167763
 40
0.5
  1
17.514
 11
571319.1589551911
 21
785621.8066746127
 31
20.45908977167763
100
AcDbText
 73
2
  0
TEXT
  5
44
330
17
100
AcDbEntity
  8
0
100
AcDbText
 10
571281.0357592698
 20
785631.6507695864
 30
20.51212355076021
 40
0.5
  1
17.567
 11
571281.0357592698
 21
785631.6507695864
 31
20.51212355076021
100
AcDbText
 73
2
  0
LINE
  5
45
330
17
100
AcDbEntity
  8
B1
100
AcDbLine
 10
571396.1508010826
 20
785600.1523473671
 30
22.199718176280207
 11
571357.7156161933
 21
785609.6337766885
 31
21.03756001008576
  0
TEXT
  5
46
330
17
100
AcDbEntity
  8
0
100
AcDbText
 10
571395.6655627316
 20
785600.2720489672
 30
22.185046106565153
 40
0.5
  1
19.240
 72
2
 11
571395.6655627316
 21
785600.2720489672
 31
22.185046106565153
100
AcDbText
 73
2
  0
LINE
  5
47
330
17
100
AcDbEntity
  8
B1
100
AcDbLine
 10
571357.230166722
 20
785609.7535303689
 30
21.02655418726242
 11
571318.8303662476
 21
785619.2262308439
 31
20.452228341871024
  0
TEXT
  5
48
330
17
100
AcDbEntity
  8
0
100
AcDbText
 10
571357.4728914576
 20
785609.6936535287
 30
21.032057098674088
 40
0.5
  1
18.087
 11
571357.4728914576
 21
785609.6936535287
 31
21.032057098674088
100
AcDbText
 73
2
  0
LINE
  5
49
330
17
100
AcDbEntity
  8
B1
100
AcDbLine
 10
571318.3448317104
 20
785619.3460055088
 30
20.44871149593539
 11
571279.9315190278
 21
785628.8220392588
 31
20.466608845814623
  0
TEXT
  5
4A
330
17
100
AcDbEntity
  8
0
100
AcDbText
 10
571318.587598979
 20
785619.2861181763
 30
20.45046991890321
 40
0.5
  1
17.505
 11
571318.587598979
 21
785619.2861181763
 31
20.45046991890321
100
AcDbText
 73
2
  0
TEXT
  5
4B
330
17
100
AcDbEntity
  8
0
100
AcDbText
 10
571280.4169663783
 20
785628.7022861014
 30
20.466382668469482
 40
0.5
  1
17.521
 11
571280.4169663783
 21
785628.7022861014
 31
20.466382668469482
100
AcDbText
 73
2
  0
LINE
  5
4C
330
17
100
AcDbEntity
  8
B1
100
AcDbLine
 10
571395.6890856461
 20
785598.4979229454
 30
22.233025322320373
 11
571357.2075964917
 21
785607.5482221299
 31
21.080496565667836
  0
TEXT
  5
4D
330
17
100
AcDbEntity
  8
0
100
AcDbText
 10
571395.2025720329
 20
785598.6123440308
 30
22.21845413648636
 40
0.5
  1
19.273
 72
2
 11
571395.2025720329
 21
785598.6123440308
 31
22.21845413648636
100
AcDbText
 73
2
  0
LINE
  5
4E
330
17
100
AcDbEntity
  8
B1
100
AcDbLine
 10
571356.7208607788
 20
785607.66269545
 30
21.06959014480118
 11
571318.2595914246
 21
785616.7082392246
 31
20.50386839534763
  0
TEXT
  5
4F
330
17
100
AcDbEntity
  8
0
100
AcDbText
 10
571356.9642286352
 20
785607.60545879
 30
21.075043355234506
 40
0.5
  1
18.130
 11
571356.9642286352
 21
785607.60545879
 31
21.075043355234506
100
AcDbText
 73
2
  0
LINE
  5
50
330
17
100
AcDbEntity
  8
B1
100
AcDbLine
 10
571317.7728552127
 20
785616.8227126622
 30
20.500456736919205
 11
571279.3113989945
 21
785625.8683003847
 31
20.526929986237658
  0
TEXT
  5
51
330
17
100
AcDbEntity
  8
0
100
AcDbText
 10
571318.0162233186
 20
785616.7654759435
 30
20.502162566133418
 40
0.5
  1
17.557
 11
571318.0162233186
 21
785616.7654759435
 31
20.502162566133418
100
AcDbText
 73
2
  0
TEXT
  5
52
330
17
100
AcDbEntity
  8
0
100
AcDbText
 10
571279.7981192227
 20
785625.7538307065
 30
20.52659497380662
 40
0.5
  1
17.582
 11
571279.7981192227
 21
785625.7538307065
 31
20.52659497380662
100
AcDbText
 73
2
  0
LINE
  5
54
330
17
100
AcDbEntity
  8
B2
100
AcDbLine
 10
571395.106164853
 20
785596.4284567625
 30
22.281050505989228
 11
571356.6617570652
 21
785605.3074076474
 31
21.007320202594048
  0
TEXT
  5
55
330
17
100
AcDbEntity
  8
0
100
AcDbText
 10
571394.6192428056
 20
785596.5409141312
 30
22.264917929035583
 40
0.5
  1
19.320
 72
2
 11
571394.6192428056
 21
785596.5409141312
 31
22.264917929035583
100
AcDbText
 73
2
  0
LINE
  5
56
330
17
100
AcDbEntity
  8
B2
100
AcDbLine
 10
571356.1745465179
 20
785605.4199316469
 30
20.991753969009725
 11
571317.7142724571
 21
785614.3025469362
 31
19.808609169820787
  0
TEXT
  5
57
330
17
100
AcDbEntity
  8
0
100
AcDbText
 10
571356.4181517916
 20
785605.3636696471
 30
20.999537085801887
 40
0.5
  1
18.055
 11
571356.4181517916
 21
785605.3636696471
 31
20.999537085801887
100
AcDbText
 73
2
  0
LINE
  5
58
330
17
100
AcDbEntity
  8
B2
100
AcDbLine
 10
571317.2270927355
 20
785614.4150638162
 30
19.794202263180992
 11
571278.7714859331
 21
785623.2966011759
 31
18.690556556252044
  0
TEXT
  5
59
330
17
100
AcDbEntity
  8
0
100
AcDbText
 10
571317.4706825963
 20
785614.3588053762
 30
19.80140571650089
 40
0.5
  1
16.856
 11
571317.4706825963
 21
785614.3588053762
 31
19.80140571650089
100
AcDbText
 73
2
  0
TEXT
  5
5A
330
17
100
AcDbEntity
  8
0
100
AcDbText
 10
571279.2584712727
 20
785623.1841291895
 30
18.704532652953578
 40
0.5
  1
15.760
 11
571279.2584712727
 21
785623.1841291895
 31
18.704532652953578
100
AcDbText
 73
2
  0
LINE
  5
5B
330
17
100
AcDbEntity
  8
B2
100
AcDbLine
 10
571394.5062569686
 20
785594.2595966375
 30
22.234938077660196
 11
571356.1419026923
 21
785603.1732686476
 31
20.963397754676325
  0
TEXT
  5
5C
330
17
100
AcDbEntity
  8
0
100
AcDbText
 10
571394.0194834035
 20
785594.3726948502
 30
22.218804554032122
 40
0.5
  1
19.274
 72
2
 11
571394.0194834035
 21
785594.3726948502
 31
22.218804554032122
100
AcDbText
 73
2
  0
LINE
  5
5D
330
17
100
AcDbEntity
  8
B2
100
AcDbLine
 10
571355.6548479322
 20
785603.286432194
 30
20.947831035509626
 11
571317.2403353663
 21
785612.211758109
 31
19.765741572079357
  0
TEXT
  5
5E
330
17
100
AcDbEntity
  8
0
100
AcDbText
 10
571355.8983753122
 20
785603.2298504208
 30
20.955614395092976
 40
0.5
  1
18.011
 11
571355.8983753122
 21
785603.2298504208
 31
20.955614395092976
100
AcDbText
 73
2
  0
LINE
  5
5F
330
17
100
AcDbEntity
  8
B2
100
AcDbLine
 10
571316.7533011483
 20
785612.3249168828
 30
19.75133558480466
 11
571278.341721988
 21
785621.2495612431
 31
18.648730724321418
  0
TEXT
  5
60
330
17
100
AcDbEntity
  8
0
100
AcDbText
 10
571316.9968182573
 20
785612.2683374959
 30
19.758538578442007
 40
0.5
  1
16.814
 11
571316.9968182573
 21
785612.2683374959
 31
19.758538578442007
100
AcDbText
 73
2
  0
TEXT
  5
61
330
17
100
AcDbEntity
  8
0
100
AcDbText
 10
571278.828558895
 20
785621.1364483134
 30
18.66270538382892
 40
0.5
  1
15.718
 11
571278.828558895
 21
785621.1364483134
 31
18.66270538382892
100
AcDbText
 73
2
  0
LINE
  5
62
330
17
100
AcDbEntity
  8
B2
100
AcDbLine
 10
571393.9012987576
 20
785592.0919029134
 30
22.188651164462968
 11
571355.6220308758
 21
785601.0390580369
 31
20.91947381849192
  0
TEXT
  5
63
330
17
100
AcDbEntity
  8
0
100
AcDbText
 10
571393.4146748754
 20
785592.2056433165
 30
22.17251679091256
 40
0.5
  1
19.228
 72
2
 11
571393.4146748754
 21
785592.2056433165
 31
22.17251679091256
100
AcDbText
 73
2
  0
LINE
  5
64
330
17
100
AcDbEntity
  8
B2
100
AcDbLine
 10
571355.1351322733
 20
785601.1528626516
 30
20.903906142477023
 11
571316.7663896086
 21
785610.1209310477
 31
19.722873613509087
  0
TEXT
  5
65
330
17
100
AcDbEntity
  8
0
100
AcDbText
 10
571355.3785815745
 20
785601.0959603442
 30
20.91168998048447
 40
0.5
  1
17.967
 11
571355.3785815745
 21
785601.0959603442
 31
20.91168998048447
100
AcDbText
 73
2
  0
LINE
  5
66
330
17
100
AcDbEntity
  8
B2
100
AcDbLine
 10
571316.2795012463
 20
785610.2347332686
 30
19.70846814077918
 11
571277.9119580432
 21
785619.2025213101
 31
18.606904657965796
  0
TEXT
  5
67
330
17
100
AcDbEntity
  8
0
100
AcDbText
 10
571316.5229454275
 20
785610.1778321582
 30
19.715670877144134
 40
0.5
  1
16.771
 11
571316.5229454275
 21
785610.1778321582
 31
19.715670877144134
100
AcDbText
 73
2
  0
TEXT
  5
68
330
17
100
AcDbEntity
  8
0
100
AcDbText
 10
571278.3986453145
 20
785619.0887660908
 30
18.620877846783415
 40
0.5
  1
15.676
 11
571278.3986453145
 21
785619.0887660908
 31
18.620877846783415
100
AcDbText
 73
2
  0
LINE
  5
69
330
17
100
AcDbEntity
  8
B2
100
AcDbLine
 10
571393.2963405466
 20
785589.9242091895
 30
22.142361314049236
 11
571355.1021415531
 21
785598.9047755596
 31
20.875548410138673
  0
TEXT
  5
6A
330
17
100
AcDbEntity
  8
0
100
AcDbText
 10
571392.8098675563
 20
785590.0385931297
 30
22.126226134424456
 40
0.5
  1
19.181
 72
2
 11
571392.8098675563
 21
785590.0385931297
 31
22.126226134424456
100
AcDbText
 73
2
  0
LINE
  5
6B
330
17
100
AcDbEntity
  8
B2
100
AcDbLine
 10
571354.6153994801
 20
785599.019222769
 30
20.859980060105777
 11
571316.2924351523
 21
785608.030065612
 31
19.680004544717328
  0
TEXT
  5
6C
330
17
100
AcDbEntity
  8
0
100
AcDbText
 10
571354.8587705166
 20
785598.9619991642
 30
20.867764235122227
 40
0.5
  1
17.923
 11
571354.8587705166
 21
785598.9619991642
 31
20.867764235122227
100
AcDbText
 73
2
  0
LINE
  5
6D
330
17
100
AcDbEntity
  8
B2
100
AcDbLine
 10
571315.8056929993
 20
785608.1445128405
 30
19.665599515505665
 11
571277.4821940982
 21
785617.1554813773
 31
18.56507848745074
  0
TEXT
  5
6E
330
17
100
AcDbEntity
  8
0
100
AcDbText
 10
571316.0490640758
 20
785608.0872892262
 30
19.672802030111498
 40
0.5
  1
16.728
 11
571316.0490640758
 21
785608.0872892262
 31
19.672802030111498
100
AcDbText
 73
2
  0
TEXT
  5
6F
330
17
100
AcDbEntity
  8
0
100
AcDbText
 10
571277.9687305243
 20
785617.0410825213
 30
18.579050164966517
 40
0.5
  1
15.634
 11
571277.9687305243
 21
785617.0410825213
 31
18.579050164966517
100
AcDbText
 73
2
  0
LINE
  5
71
330
17
100
AcDbEntity
  8
B3
100
AcDbLine
 10
571281.2482455102
 20
785637.6246817617
 30
20.404276243282794
 11
571238.4012857449
 21
785649.5823766344
 31
20.84441223091441
  0
TEXT
  5
72
330
17
100
AcDbEntity
  8
0
100
AcDbText
 10
571280.7666721058
 20
785637.7590788779
 30
20.409223100355074
 40
0.5
  1
17.464
 72
2
 11
571280.7666721058
 21
785637.7590788779
 31
20.409223100355074
100
AcDbText
 73
2
  0
LINE
  5
73
330
17
100
AcDbEntity
  8
B3
100
AcDbLine
 10
571237.9196887694
 20
785649.7167803287
 30
20.846049640694833
 11
571195.0575579385
 21
785661.6787091297
 31
20.613353840446244
  0
TEXT
  5
74
330
17
100
AcDbEntity
  8
0
100
AcDbText
 10
571238.1604872572
 20
785649.6495784814
 30
20.845230935804622
 40
0.5
  1
17.900
 11
571238.1604872572
 21
785649.6495784814
 31
20.845230935804622
100
AcDbText
 73
2
  0
LINE
  5
75
330
17
100
AcDbEntity
  8
B3
100
AcDbLine
 10
571194.575960963
 20
785661.8131128247
 30
20.60648730643007
 11
571151.7246119353
 21
785673.7720326486
 31
19.619476558524696
  0
TEXT
  5
76
330
17
100
AcDbEntity
  8
0
100
AcDbText
 10
571194.8167594508
 20
785661.7459109772
 30
20.609920573438156
 40
0.5
  1
17.665
 11
571194.8167594508
 21
785661.7459109772
 31
20.609920573438156
100
AcDbText
 73
2
  0
TEXT
  5
77
330
17
100
AcDbEntity
  8
0
100
AcDbText
 10
571152.2060904335
 20
785673.6376620188
 30
19.630566628344223
 40
0.5
  1
16.686
 11
571152.2060904335
 21
785673.6376620188
 31
19.630566628344223
100
AcDbText
 73
2
  0
LINE
  5
78
330
17
100
AcDbEntity
  8
B3
100
AcDbLine
 10
571280.6099476316
 20
785634.5843586685
 30
20.464480782275785
 11
571237.5679828397
 21
785646.5964753855
 31
20.906412237167622
  0
TEXT
  5
79
330
17
100
AcDbEntity
  8
0
100
AcDbText
 10
571280.1283742051
 20
785634.7187557908
 30
20.46942531596597
 40
0.5
  1
17.524
 72
2
 11
571280.1283742051
 21
785634.7187557908
 31
20.46942531596597
100
AcDbText
 73
2
  0
LINE
  5
7A
330
17
100
AcDbEntity
  8
B3
100
AcDbLine
 10
571237.0863858642
 20
785646.7308790797
 30
20.908049622210157
 11
571194.2242550332
 21
785658.6928078808
 31
20.675353827872524
  0
TEXT
  5
7B
330
17
100
AcDbEntity
  8
0
100
AcDbText
 10
571237.3271843519
 20
785646.6636772326
 30
20.90723092968889
 40
0.5
  1
17.962
 11
571237.3271843519
 21
785646.6636772326
 31
20.90723092968889
100
AcDbText
 73
2
  0
LINE
  5
7C
330
17
100
AcDbEntity
  8
B3
100
AcDbLine
 10
571193.7426580577
 20
785658.8272115752
 30
20.66848732554381
 11
571150.8179503044
 21
785670.8066042933
 31
19.694933588972198
  0
TEXT
  5
7D
330
17
100
AcDbEntity
  8
0
100
AcDbText
 10
571193.9834565455
 20
785658.760009728
 30
20.671920576708168
 40
0.5
  1
17.727
 11
571193.9834565455
 21
785658.760009728
 31
20.671920576708168
100
AcDbText
 73
2
  0
TEXT
  5
7E
330
17
100
AcDbEntity
  8
0
100
AcDbText
 10
571151.2994324035
 20
785670.6722326585
 30
19.70585384262754
 40
0.5
  1
16.761
 11
571151.2994324035
 21
785670.6722326585
 31
19.70585384262754
100
AcDbText
 73
2
  0
LINE
  5
80
330
17
100
AcDbEntity
  8
B4
100
AcDbLine
 10
571279.4601542909
 20
785629.1076943029
 30
20.467463703710404
 11
571235.9343853194
 21
785638.31892948
 31
21.071058148160162
  0
TEXT
  5
81
330
17
100
AcDbEntity
  8
0
100
AcDbText
 10
571278.9710332399
 20
785629.2112056053
 30
20.474246599362203
 40
0.5
  1
17.529
 72
2
 11
571278.9710332399
 21
785629.2112056053
 31
20.474246599362203
100
AcDbText
 73
2
  0
LINE
  5
82
330
17
100
AcDbEntity
  8
B4
100
AcDbLine
 10
571235.4452192554
 20
785638.4224503085
 30
21.078343598799684
 11
571191.9094395586
 21
785647.6358040271
 31
21.726747863444487
  0
TEXT
  5
83
330
17
100
AcDbEntity
  8
0
100
AcDbText
 10
571235.6898022874
 20
785638.3706898943
 30
21.074700873479923
 40
0.5
  1
18.130
 11
571235.6898022874
 21
785638.3706898943
 31
21.074700873479923
100
AcDbText
 73
2
  0
LINE
  5
84
330
17
100
AcDbEntity
  8
B4
100
AcDbLine
 10
571191.4202734948
 20
785647.7393248553
 30
21.734033291737987
 11
571147.8844938095
 21
785656.9526785716
 31
22.38243753397321
  0
TEXT
  5
85
330
17
100
AcDbEntity
  8
0
100
AcDbText
 10
571191.6648565268
 20
785647.6875644412
 30
21.730390577591237
 40
0.5
  1
18.785
 11
571191.6648565268
 21
785647.6875644412
 31
21.730390577591237
100
AcDbText
 73
2
  0
LINE
  5
86
330
17
100
AcDbEntity
  8
B4
100
AcDbLine
 10
571147.3953277458
 20
785657.0561993999
 30
22.38972299660758
 11
571118.5443132904
 21
785663.161857853
 31
22.819418307331432
  0
TEXT
  5
87
330
17
100
AcDbEntity
  8
0
100
AcDbText
 10
571147.6399107777
 20
785657.0044389857
 30
22.386080265290396
 40
0.5
  1
19.441
 11
571147.6399107777
 21
785657.0044389857
 31
22.386080265290396
100
AcDbText
 73
2
  0
TEXT
  5
88
330
17
100
AcDbEntity
  8
0
100
AcDbText
 10
571119.033427435
 20
785663.0583480122
 30
22.81213363958833
 40
0.5
  1
19.867
 11
571119.033427435
 21
785663.0583480122
 31
22.81213363958833
100
AcDbText
 73
2
  0
LINE
  5
89
330
17
100
AcDbEntity
  8
B4
100
AcDbLine
 10
571278.8232124844
 20
785626.073830415
 30
20.52942012440782
 11
571235.292524715
 21
785635.2861065431
 31
21.13305855649807
  0
TEXT
  5
8A
330
17
100
AcDbEntity
  8
0
100
AcDbText
 10
571278.3340914297
 20
785626.1773417181
 30
20.536202747924452
 40
0.5
  1
17.591
 72
2
 11
571278.3340914297
 21
785626.1773417181
 31
20.536202747924452
100
AcDbText
 73
2
  0
LINE
  5
8B
330
17
100
AcDbEntity
  8
B4
100
AcDbLine
 10
571234.803358651
 20
785635.3896273716
 30
21.140344157501865
 11
571191.2675789542
 21
785644.6029810904
 31
21.78874835516379
  0
TEXT
  5
8C
330
17
100
AcDbEntity
  8
0
100
AcDbText
 10
571235.047941683
 20
785635.3378669573
 30
21.136701356999968
 40
0.5
  1
18.192
 11
571235.047941683
 21
785635.3378669573
 31
21.136701356999968
100
AcDbText
 73
2
  0
LINE
  5
8D
330
17
100
AcDbEntity
  8
B4
100
AcDbLine
 10
571190.7784128903
 20
785644.7065019185
 30
21.796033862358794
 11
571147.2426332054
 21
785653.9198556347
 31
22.44443811029624
  0
TEXT
  5
8E
330
17
100
AcDbEntity
  8
0
100
AcDbText
 10
571191.0229959222
 20
785644.6547415045
 30
21.792391108761294
 40
0.5
  1
18.847
 11
571191.0229959222
 21
785644.6547415045
 31
21.792391108761294
100
AcDbText
 73
2
  0
LINE
  5
8F
330
17
100
AcDbEntity
  8
B4
100
AcDbLine
 10
571146.7534671413
 20
785654.023376463
 30
22.451723500883848
 11
571117.902452686
 21
785660.129034916
 31
22.881418821405507
  0
TEXT
  5
90
330
17
100
AcDbEntity
  8
0
100
AcDbText
 10
571146.9980501733
 20
785653.9716160488
 30
22.448080805590045
 40
0.5
  1
19.503
 11
571146.9980501733
 21
785653.9716160488
 31
22.448080805590045
100
AcDbText
 73
2
  0
TEXT
  5
91
330
17
100
AcDbEntity
  8
0
100
AcDbText
 10
571118.3915668306
 20
785660.0255250753
 30
22.87413415349631
 40
0.5
  1
19.929
 11
571118.3915668306
 21
785660.0255250753
 31
22.87413415349631
100
AcDbText
 73
2
  0
LINE
  5
93
330
17
100
AcDbEntity
  8
B5
100
AcDbLine
 10
571278.2927446045
 20
785623.547120238
 30
18.678925122400152
 11
571234.5800459107
 21
785631.7044981145
 31
17.421236765728526
  0
TEXT
  5
94
330
17
100
AcDbEntity
  8
0
100
AcDbText
 10
571277.8014262397
 20
785623.6388068572
 30
18.664789061133217
 40
0.5
  1
15.720
 72
2
 11
571277.8014262397
 21
785623.6388068572
 31
18.664789061133217
100
AcDbText
 73
2
  0
LINE
  5
95
330
17
100
AcDbEntity
  8
B5
100
AcDbLine
 10
571234.0885261633
 20
785631.7962223146
 30
17.40718276745212
 11
571190.368732353
 21
785639.9549242354
 31
16.16503592957982
  0
TEXT
  5
96
330
17
100
AcDbEntity
  8
0
100
AcDbText
 10
571234.3342860369
 20
785631.7503602146
 30
17.414209766590325
 40
0.5
  1
14.469
 11
571234.3342860369
 21
785631.7503602146
 31
17.414209766590325
100
AcDbText
 73
2
  0
LINE
  5
97
330
17
100
AcDbEntity
  8
B5
100
AcDbLine
 10
571189.8771894663
 20
785640.0466527531
 30
16.15114321636566
 11
571146.1397773589
 21
785648.2086424851
 31
14.922116797354555
  0
TEXT
  5
98
330
17
100
AcDbEntity
  8
0
100
AcDbText
 10
571190.1229609096
 20
785640.0007884942
 30
16.15808957297274
 40
0.5
  1
13.213
 11
571190.1229609096
 21
785640.0007884942
 31
16.15808957297274
100
AcDbText
 73
2
  0
TEXT
  5
99
330
17
100
AcDbEntity
  8
0
100
AcDbText
 10
571146.6311047836
 20
785648.1169541752
 30
14.935923155716587
 40
0.5
  1
11.991
 11
571146.6311047836
 21
785648.1169541752
 31
14.935923155716587
100
AcDbText
 73
2
  0
LINE
  5
9A
330
17
100
AcDbEntity
  8
B5
100
AcDbLine
 10
571277.6761947811
 20
785620.6103868899
 30
18.61890297037362
 11
571234.0165295353
 21
785628.7578680112
 31
17.36124451353555
  0
TEXT
  5
9B
330
17
100
AcDbEntity
  8
0
100
AcDbText
 10
571277.1848768842
 20
785620.7020734218
 30
18.604750087970046
 40
0.5
  1
15.660
 72
2
 11
571277.1848768842
 21
785620.7020734218
 31
18.604750087970046
100
AcDbText
 73
2
  0
LINE
  5
9C
330
17
100
AcDbEntity
  8
B5
100
AcDbLine
 10
571233.5250097879
 20
785628.8495922115
 30
17.347173261604954
 11
571189.849897147
 21
785636.9999560242
 31
16.1050277134779
  0
TEXT
  5
9D
330
17
100
AcDbEntity
  8
0
100
AcDbText
 10
571233.7707696615
 20
785628.8037301113
 30
17.354208887570252
 40
0.5
  1
14.409
 11
571233.7707696615
 21
785628.8037301113
 31
17.354208887570252
100
AcDbText
 73
2
  0
LINE
  5
9E
330
17
100
AcDbEntity
  8
B5
100
AcDbLine
 10
571189.3583542601
 20
785637.091684542
 30
16.0911350002629
 11
571145.6211112456
 21
785645.253642719
 31
14.864978359847294
  0
TEXT
  5
9F
330
17
100
AcDbEntity
  8
0
100
AcDbText
 10
571189.6041257036
 20
785637.0458202831
 30
16.0980813568704
 40
0.5
  1
13.153
 11
571189.6041257036
 21
785637.0458202831
 31
16.0980813568704
100
AcDbText
 73
2
  0
TEXT
  5
A0
330
17
100
AcDbEntity
  8
0
100
AcDbText
 10
571146.1124395425
 20
785645.1619542463
 30
14.878752558047236
 40
0.5
  1
11.934
 11
571146.1124395425
 21
785645.1619542463
 31
14.878752558047236
100
AcDbText
 73
2
  0
LINE
  5
A1
330
17
100
AcDbEntity
  8
B5
100
AcDbLine
 10
571277.0596449578
 20
785617.6736535421
 30
18.558881365158804
 11
571233.4530131599
 21
785625.811237908
 31
17.301252679721895
  0
TEXT
  5
A2
330
17
100
AcDbEntity
  8
0
100
AcDbText
 10
571276.5683275306
 20
785617.7653399863
 30
18.54471161930598
 40
0.5
  1
15.600
 72
2
 11
571276.5683275306
 21
785617.7653399863
 31
18.54471161930598
100
AcDbText
 73
2
  0
LINE
  5
A3
330
17
100
AcDbEntity
  8
B5
100
AcDbLine
 10
571232.9614934125
 20
785625.902962108
 30
17.287164119616396
 11
571189.3310619406
 21
785634.0449878131
 31
16.04501969926199
  0
TEXT
  5
A4
330
17
100
AcDbEntity
  8
0
100
AcDbText
 10
571233.2072532861
 20
785625.857100008
 30
17.294208399669145
 40
0.5
  1
14.349
 11
571233.2072532861
 21
785625.857100008
 31
17.294208399669145
100
AcDbText
 73
2
  0
LINE
  5
A5
330
17
100
AcDbEntity
  8
B5
100
AcDbLine
 10
571188.8395190539
 20
785634.1367163314
 30
16.031125950666173
 11
571145.1024451321
 21
785642.2986429532
 31
14.804974899435917
  0
TEXT
  5
A6
330
17
100
AcDbEntity
  8
0
100
AcDbText
 10
571189.0852904973
 20
785634.0908520722
 30
16.038072824964082
 40
0.5
  1
13.093
 11
571189.0852904973
 21
785634.0908520722
 31
16.038072824964082
100
AcDbText
 73
2
  0
TEXT
  5
A7
330
17
100
AcDbEntity
  8
0
100
AcDbText
 10
571145.5937734294
 20
785642.2069544804
 30
14.818749088108657
 40
0.5
  1
11.874
 11
571145.5937734294
 21
785642.2069544804
 31
14.818749088108657
100
AcDbText
 73
2
  0
LINE
  5
A9
330
17
100
AcDbEntity
  8
B6
100
AcDbLine
 10
571145.7699866502
 20
785649.1097202695
 30
14.923300815792757
 11
571109.4740809137
 21
785661.321596625
 31
13.713784235097627
  0
TEXT
  5
AA
330
17
100
AcDbEntity
  8
0
100
AcDbText
 10
571145.2963266172
 20
785649.2690847388
 30
14.90751667562985
 40
0.5
  1
11.963
 72
2
 11
571145.2963266172
 21
785649.2690847388
 31
14.90751667562985
100
AcDbText
 73
2
  0
TEXT
  5
AB
330
17
100
AcDbEntity
  8
0
100
AcDbText
 10
571109.9477409467
 20
785661.1622321557
 30
13.729568375260534
 40
0.5
  1
10.785
 11
571109.9477409467
 21
785661.1622321557
 31
13.729568375260534
100
AcDbText
 73
2
  0
LINE
  5
AC
330
17
100
AcDbEntity
  8
B6
100
AcDbLine
 10
571145.48599485
 20
785647.4917319698
 30
14.89127969765338
 11
571108.1353281724
 21
785658.7477735534
 31
13.722188429894521
  0
TEXT
  5
AD
330
17
100
AcDbEntity
  8
0
100
AcDbText
 10
571145.0074762757
 20
785647.6359388997
 30
14.876301868968806
 40
0.5
  1
11.931
 72
2
 11
571145.0074762757
 21
785647.6359388997
 31
14.876301868968806
100
AcDbText
 73
2
  0
TEXT
  5
AE
330
17
100
AcDbEntity
  8
0
100
AcDbText
 10
571108.6138467467
 20
785658.6035666234
 30
13.737166258579094
 40
0.5
  1
10.792
 11
571108.6138467467
 21
785658.6035666234
 31
13.737166258579094
100
AcDbText
 73
2
  0
LINE
  5
AF
330
17
100
AcDbEntity
  8
B6
100
AcDbLine
 10
571145.202047267
 20
785645.8739955886
 30
14.85925585330542
 11
571106.7965068754
 21
785656.1738186795
 31
13.730671842555482
  0
TEXT
  5
B0
330
17
100
AcDbEntity
  8
0
100
AcDbText
 10
571144.7193073471
 20
785646.0034596119
 30
14.845070073090868
 40
0.5
  1
11.900
 72
2
 11
571144.7193073471
 21
785646.0034596119
 31
14.845070073090868
100
AcDbText
 73
2
  0
TEXT
  5
B1
330
17
100
AcDbEntity
  8
0
100
AcDbText
 10
571107.2792467953
 20
785656.0443546562
 30
13.744857622770034
 40
0.5
  1
10.800
 11
571107.2792467953
 21
785656.0443546562
 31
13.744857622770034
100
AcDbText
 73
2
  0
LINE
  5
B2
330
17
100
AcDbEntity
  8
B6
100
AcDbLine
 10
571144.9181218995
 20
785644.2563857763
 30
14.828343238775329
 11
571105.7135525346
 21
785653.5136251538
 31
13.760586680206565
  0
TEXT
  5
B3
330
17
100
AcDbEntity
  8
0
100
AcDbText
 10
571144.4316746367
 20
785644.3712488861
 30
14.815094598024922
 40
0.5
  1
11.870
 72
2
 11
571144.4316746367
 21
785644.3712488861
 31
14.815094598024922
100
AcDbText
 73
2
  0
TEXT
  5
B4
330
17
100
AcDbEntity
  8
0
100
AcDbText
 10
571106.1999997974
 20
785653.398762044
 30
13.773835320956971
 40
0.5
  1
10.829
 11
571106.1999997974
 21
785653.398762044
 31
13.773835320956971
100
AcDbText
 73
2
  0
LINE
  5
B5
330
17
100
AcDbEntity
  8
B6
100
AcDbLine
 10
571144.6341658914
 20
785642.638601395
 30
14.795492927853967
 11
571105.2318752203
 21
785650.6524416555
 31
13.696714227135734
  0
TEXT
  5
B6
330
17
100
AcDbEntity
  8
0
100
AcDbText
 10
571144.1443799505
 20
785642.7382165754
 30
14.781834677261362
 40
0.5
  1
11.837
 72
2
 11
571144.1443799505
 21
785642.7382165754
 31
14.781834677261362
100
AcDbText
 73
2
  0
TEXT
  5
B7
330
17
100
AcDbEntity
  8
0
100
AcDbText
 10
571105.7216611613
 20
785650.5528264751
 30
13.71037247772834
 40
0.5
  1
10.765
 11
571105.7216611613
 21
785650.5528264751
 31
13.71037247772834
100
AcDbText
 73
2
  0
LINE
  5
B8
330
17
100
AcDbEntity
  8
B6
100
AcDbLine
 10
571144.3502089103
 20
785641.0208114699
 30
14.762642342137873
 11
571104.7501984324
 21
785647.7912612843
 31
13.63284313537792
  0
TEXT
  5
B9
330
17
100
AcDbEntity
  8
0
100
AcDbText
 10
571143.8575550398
 20
785641.1050409502
 30
14.748586791510677
 40
0.5
  1
11.804
 72
2
 11
571143.8575550398
 21
785641.1050409502
 31
14.748586791510677
100
AcDbText
 73
2
  0
TEXT
  5
BA
330
17
100
AcDbEntity
  8
0
100
AcDbText
 10
571105.2428523029
 20
785647.7070318039
 30
13.646898686005116
 40
0.5
  1
10.702
 11
571105.2428523029
 21
785647.7070318039
 31
13.646898686005116
100
AcDbText
 73
2
  0
ENDSEC
  0
SECTION
  2
OBJECTS
  0
DICTIONARY
  5
A
330
0
100
AcDbDictionary
280
0
281
1
  3
ACAD_COLOR
350
B
  3
ACAD_GROUP
350
C
  3
ACAD_LAYOUT
350
D
  3
ACAD_MATERIAL
350
E
  3
ACAD_MLEADERSTYLE
350
F
  3
ACAD_MLINESTYLE
350
10
  3
ACAD_PLOTSETTINGS
350
11
  3
ACAD_PLOTSTYLENAME
350
12
  3
ACAD_SCALELIST
350
14
  3
ACAD_TABLESTYLE
350
15
  3
ACAD_VISUALSTYLE
350
16
  3
EZDXF_META
350
2D
  0
DICTIONARY
  5
B
330
A
100
AcDbDictionary
280
0
281
1
  0
DICTIONARY
  5
C
330
A
100
AcDbDictionary
280
0
281
1
  0
DICTIONARY
  5
D
330
A
100
AcDbDictionary
280
0
281
1
  3
Model
350
1A
  3
Layout1
350
1E
  0
DICTIONARY
  5
E
330
A
100
AcDbDictionary
280
0
281
1
  3
ByBlock
350
1F
  3
ByLayer
350
20
  3
Global
350
21
  0
DICTIONARY
  5
F
330
A
100
AcDbDictionary
280
0
281
1
  3
Standard
350
2C
  0
DICTIONARY
  5
10
330
A
100
AcDbDictionary
280
0
281
1
  3
Standard
350
22
  0
DICTIONARY
  5
11
330
A
100
AcDbDictionary
280
0
281
1
  0
ACDBDICTIONARYWDFLT
  5
12
330
A
100
AcDbDictionary
280
0
281
1
  3
Normal
350
13
100
AcDbDictionaryWithDefault
340
13
  0
ACDBPLACEHOLDER
  5
13
330
12
  0
DICTIONARY
  5
14
330
A
100
AcDbDictionary
280
0
281
1
  0
DICTIONARY
  5
15
330
A
100
AcDbDictionary
280
0
281
1
  0
DICTIONARY
  5
16
330
A
100
AcDbDictionary
280
0
281
1
  0
LAYOUT
  5
1A
330
D
100
AcDbPlotSettings
  1

  2
Adobe PDF
  4
A3
  6

 40
7.5
 41
20.0
 42
7.5
 43
20.0
 44
420.0
 45
297.0
 46
0.0
 47
0.0
 48
0.0
 49
0.0
140
0.0
141
0.0
142
1.0
143
1.0
 70
1024
 72
1
 73
0
 74
5
  7

 75
16
 76
0
 77
2
 78
300
147
1.0
148
0.0
149
0.0
100
AcDbLayout
  1
Model
 70
1
 71
0
 10
0.0
 20
0.0
 11
420.0
 21
297.0
 12
0.0
 22
0.0
 32
0.0
 14
1e+20
 24
1e+20
 34
1e+20
 15
-1e+20
 25
-1e+20
 35
-1e+20
146
0.0
 13
0.0
 23
0.0
 33
0.0
 16
1.0
 26
0.0
 36
0.0
 17
0.0
 27
1.0
 37
0.0
 76
1
330
17
  0
LAYOUT
  5
1E
330
D
100
AcDbPlotSettings
  1

  2
Adobe PDF
  4
A3
  6

 40
7.5
 41
20.0
 42
7.5
 43
20.0
 44
420.0
 45
297.0
 46
0.0
 47
0.0
 48
0.0
 49
0.0
140
0.0
141
0.0
142
1.0
143
1.0
 70
0
 72
1
 73
0
 74
5
  7

 75
16
 76
0
 77
2
 78
300
147
1.0
148
0.0
149
0.0
100
AcDbLayout
  1
Layout1
 70
1
 71
1
 10
0.0
 20
0.0
 11
420.0
 21
297.0
 12
0.0
 22
0.0
 32
0.0
 14
1e+20
 24
1e+20
 34
1e+20
 15
-1e+20
 25
-1e+20
 35
-1e+20
146
0.0
 13
0.0
 23
0.0
 33
0.0
 16
1.0
 26
0.0
 36
0.0
 17
0.0
 27
1.0
 37
0.0
 76
1
330
1B
  0
MATERIAL
  5
1F
102
{ACAD_REACTORS
330
E
102
}
330
E
100
AcDbMaterial
  1
ByBlock
  2

 70
0
 40
1.0
 71
1
 41
1.0
 91
-1023410177
 42
1.0
 72
1
  3

 73
1
 74
1
 75
1
 44
0.5
 73
0
 45
1.0
 46
1.0
 77
1
  4

 78
1
 79
1
170
1
 48
1.0
171
1
  6

172
1
173
1
174
1
140
1.0
141
1.0
175
1
  7

176
1
177
1
178
1
143
1.0
179
1
  8

270
1
271
1
272
1
145
1.0
146
1.0
273
1
  9

274
1
275
1
276
1
 42
1.0
 72
1
  3

 73
1
 74
1
 75
1
 94
63
  0
MATERIAL
  5
20
102
{ACAD_REACTORS
330
E
102
}
330
E
100
AcDbMaterial
  1
ByLayer
  2

 70
0
 40
1.0
 71
1
 41
1.0
 91
-1023410177
 42
1.0
 72
1
  3

 73
1
 74
1
 75
1
 44
0.5
 73
0
 45
1.0
 46
1.0
 77
1
  4

 78
1
 79
1
170
1
 48
1.0
171
1
  6

172
1
173
1
174
1
140
1.0
141
1.0
175
1
  7

176
1
177
1
178
1
143
1.0
179
1
  8

270
1
271
1
272
1
145
1.0
146
1.0
273
1
  9

274
1
275
1
276
1
 42
1.0
 72
1
  3

 73
1
 74
1
 75
1
 94
63
  0
MATERIAL
  5
21
102
{ACAD_REACTORS
330
E
102
}
330
E
100
AcDbMaterial
  1
Global
  2

 70
0
 40
1.0
 71
1
 41
1.0
 91
-1023410177
 42
1.0
 72
1
  3

 73
1
 74
1
 75
1
 44
0.5
 73
0
 45
1.0
 46
1.0
 77
1
  4

 78
1
 79
1
170
1
 48
1.0
171
1
  6

172
1
173
1
174
1
140
1.0
141
1.0
175
1
  7

176
1
177
1
178
1
143
1.0
179
1
  8

270
1
271
1
272
1
145
1.0
146
1.0
273
1
  9

274
1
275
1
276
1
 42
1.0
 72
1
  3

 73
1
 74
1
 75
1
 94
63
  0
MLINESTYLE
  5
22
102
{ACAD_REACTORS
330
10
102
}
330
10
100
AcDbMlineStyle
  2
Standard
 70
0
  3

 62
256
 51
90.0
 52
90.0
 71
2
 49
0.5
 62
256
  6
BYLAYER
 49
-0.5
 62
256
  6
BYLAYER
  0
MLEADERSTYLE
  5
2C
102
{ACAD_REACTORS
330
F
102
}
330
F
100
AcDbMLeaderStyle
179
2
170
2
171
1
172
0
 90
2
 40
0.0
 41
0.0
173
1
 91
-1056964608
 92
-2
290
1
 42
2.0
291
1
 43
8.0
  3
Standard
 44
4.0
300

342
29
174
1
175
1
176
0
178
1
 93
-1056964608
 45
4.0
292
0
297
0
 46
4.0
 94
-1056964608
 47
1.0
 49
1.0
140
1.0
294
1
141
0.0
177
0
142
1.0
295
0
296
0
143
3.75
271
0
272
9
273
9
  0
DICTIONARY
  5
2D
330
A
100
AcDbDictionary
281
1
  3
CREATED_BY_EZDXF
350
2E
  3
WRITTEN_BY_EZDXF
350
BD
  0
DICTIONARYVAR
  5
2E
330
2D
100
DictionaryVariables
280
0
  1
1.1.0 @ 2023-12-05T01:30:50.534073+00:00
  0
DICTIONARYVAR
  5
BD
330
2D
100
DictionaryVariables
280
0
  1
1.1.0 @ 2023-12-05T01:30:50.541073+00:00
  0
ENDSEC
  0
EOF
