  0
SECTION
  2
HEADER
  9
$ACADVER
  1
AC1027
  9
$ACADMAINTVER
 70
105
  9
$DWGCODEPAGE
  3
ANSI_1252
  9
$LASTSAVEDBY
  1
ezdxf
  9
$REQUIREDVERSIONS
160
0
  9
$INSBASE
 10
0.0
 20
0.0
 30
0.0
  9
$EXTMIN
 10
1e+20
 20
1e+20
 30
1e+20
  9
$EXTMAX
 10
-1e+20
 20
-1e+20
 30
-1e+20
  9
$LIMMIN
 10
0.0
 20
0.0
  9
$LIMMAX
 10
420.0
 20
297.0
  9
$ORTHOMODE
 70
0
  9
$REGENMODE
 70
1
  9
$FILLMODE
 70
1
  9
$QTEXTMODE
 70
0
  9
$MIRRTEXT
 70
1
  9
$LTSCALE
 40
1.0
  9
$ATTMODE
 70
1
  9
$TEXTSIZE
 40
2.5
  9
$TRACEWID
 40
1.0
  9
$TEXTSTYLE
  7
Standard
  9
$CLAYER
  8
0
  9
$CELTYPE
  6
ByLayer
  9
$CECOLOR
 62
256
  9
$CELTSCALE
 40
1.0
  9
$DISPSILH
 70
0
  9
$DIMSCALE
 40
1.0
  9
$DIMASZ
 40
2.5
  9
$DIMEXO
 40
0.625
  9
$DIMDLI
 40
3.75
  9
$DIMRND
 40
0.0
  9
$DIMDLE
 40
0.0
  9
$DIMEXE
 40
1.25
  9
$DIMTP
 40
0.0
  9
$DIMTM
 40
0.0
  9
$DIMTXT
 40
2.5
  9
$DIMCEN
 40
2.5
  9
$DIMTSZ
 40
0.0
  9
$DIMTOL
 70
0
  9
$DIMLIM
 70
0
  9
$DIMTIH
 70
0
  9
$DIMTOH
 70
0
  9
$DIMSE1
 70
0
  9
$DIMSE2
 70
0
  9
$DIMTAD
 70
1
  9
$DIMZIN
 70
8
  9
$DIMBLK
  1

  9
$DIMASO
 70
1
  9
$DIMSHO
 70
1
  9
$DIMPOST
  1

  9
$DIMAPOST
  1

  9
$DIMALT
 70
0
  9
$DIMALTD
 70
3
  9
$DIMALTF
 40
0.03937007874
  9
$DIMLFAC
 40
1.0
  9
$DIMTOFL
 70
1
  9
$DIMTVP
 40
0.0
  9
$DIMTIX
 70
0
  9
$DIMSOXD
 70
0
  9
$DIMSAH
 70
0
  9
$DIMBLK1
  1

  9
$DIMBLK2
  1

  9
$DIMSTYLE
  2
ISO-25
  9
$DIMCLRD
 70
0
  9
$DIMCLRE
 70
0
  9
$DIMCLRT
 70
0
  9
$DIMTFAC
 40
1.0
  9
$DIMGAP
 40
0.625
  9
$DIMJUST
 70
0
  9
$DIMSD1
 70
0
  9
$DIMSD2
 70
0
  9
$DIMTOLJ
 70
0
  9
$DIMTZIN
 70
8
  9
$DIMALTZ
 70
0
  9
$DIMALTTZ
 70
0
  9
$DIMUPT
 70
0
  9
$DIMDEC
 70
2
  9
$DIMTDEC
 70
2
  9
$DIMALTU
 70
2
  9
$DIMALTTD
 70
3
  9
$DIMTXSTY
  7
Standard
  9
$DIMAUNIT
 70
0
  9
$DIMADEC
 70
0
  9
$DIMALTRND
 40
0.0
  9
$DIMAZIN
 70
0
  9
$DIMDSEP
 70
44
  9
$DIMATFIT
 70
3
  9
$DIMFRAC
 70
0
  9
$DIMLDRBLK
  1

  9
$DIMLUNIT
 70
2
  9
$DIMLWD
 70
-2
  9
$DIMLWE
 70
-2
  9
$DIMTMOVE
 70
0
  9
$DIMFXL
 40
1.0
  9
$DIMFXLON
 70
0
  9
$DIMJOGANG
 40
0.785398163397
  9
$DIMTFILL
 70
0
  9
$DIMTFILLCLR
 70
0
  9
$DIMARCSYM
 70
0
  9
$DIMLTYPE
  6

  9
$DIMLTEX1
  6

  9
$DIMLTEX2
  6

  9
$DIMTXTDIRECTION
 70
0
  9
$LUNITS
 70
2
  9
$LUPREC
 70
4
  9
$SKETCHINC
 40
1.0
  9
$FILLETRAD
 40
10.0
  9
$AUNITS
 70
0
  9
$AUPREC
 70
2
  9
$MENU
  1
.
  9
$ELEVATION
 40
0.0
  9
$PELEVATION
 40
0.0
  9
$THICKNESS
 40
0.0
  9
$LIMCHECK
 70
0
  9
$CHAMFERA
 40
0.0
  9
$CHAMFERB
 40
0.0
  9
$CHAMFERC
 40
0.0
  9
$CHAMFERD
 40
0.0
  9
$SKPOLY
 70
0
  9
$TDCREATE
 40
2460328.667141204
  9
$TDUCREATE
 40
2458532.153996898
  9
$TDUPDATE
 40
2460328.667141204
  9
$TDUUPDATE
 40
2458532.1544311
  9
$TDINDWG
 40
0.0
  9
$TDUSRTIMER
 40
0.0
  9
$USRTIMER
 70
1
  9
$ANGBASE
 50
0.0
  9
$ANGDIR
 70
0
  9
$PDMODE
 70
0
  9
$PDSIZE
 40
0.0
  9
$PLINEWID
 40
0.0
  9
$SPLFRAME
 70
0
  9
$SPLINETYPE
 70
6
  9
$SPLINESEGS
 70
8
  9
$HANDSEED
  5
1BB
  9
$SURFTAB1
 70
6
  9
$SURFTAB2
 70
6
  9
$SURFTYPE
 70
6
  9
$SURFU
 70
6
  9
$SURFV
 70
6
  9
$UCSBASE
  2

  9
$UCSNAME
  2

  9
$UCSORG
 10
0.0
 20
0.0
 30
0.0
  9
$UCSXDIR
 10
1.0
 20
0.0
 30
0.0
  9
$UCSYDIR
 10
0.0
 20
1.0
 30
0.0
  9
$UCSORTHOREF
  2

  9
$UCSORTHOVIEW
 70
0
  9
$UCSORGTOP
 10
0.0
 20
0.0
 30
0.0
  9
$UCSORGBOTTOM
 10
0.0
 20
0.0
 30
0.0
  9
$UCSORGLEFT
 10
0.0
 20
0.0
 30
0.0
  9
$UCSORGRIGHT
 10
0.0
 20
0.0
 30
0.0
  9
$UCSORGFRONT
 10
0.0
 20
0.0
 30
0.0
  9
$UCSORGBACK
 10
0.0
 20
0.0
 30
0.0
  9
$PUCSBASE
  2

  9
$PUCSNAME
  2

  9
$PUCSORG
 10
0.0
 20
0.0
 30
0.0
  9
$PUCSXDIR
 10
1.0
 20
0.0
 30
0.0
  9
$PUCSYDIR
 10
0.0
 20
1.0
 30
0.0
  9
$PUCSORTHOREF
  2

  9
$PUCSORTHOVIEW
 70
0
  9
$PUCSORGTOP
 10
0.0
 20
0.0
 30
0.0
  9
$PUCSORGBOTTOM
 10
0.0
 20
0.0
 30
0.0
  9
$PUCSORGLEFT
 10
0.0
 20
0.0
 30
0.0
  9
$PUCSORGRIGHT
 10
0.0
 20
0.0
 30
0.0
  9
$PUCSORGFRONT
 10
0.0
 20
0.0
 30
0.0
  9
$PUCSORGBACK
 10
0.0
 20
0.0
 30
0.0
  9
$USERI1
 70
0
  9
$USERI2
 70
0
  9
$USERI3
 70
0
  9
$USERI4
 70
0
  9
$USERI5
 70
0
  9
$USERR1
 40
0.0
  9
$USERR2
 40
0.0
  9
$USERR3
 40
0.0
  9
$USERR4
 40
0.0
  9
$USERR5
 40
0.0
  9
$WORLDVIEW
 70
1
  9
$SHADEDGE
 70
3
  9
$SHADEDIF
 70
70
  9
$TILEMODE
 70
1
  9
$MAXACTVP
 70
64
  9
$PINSBASE
 10
0.0
 20
0.0
 30
0.0
  9
$PLIMCHECK
 70
0
  9
$PEXTMIN
 10
1e+20
 20
1e+20
 30
1e+20
  9
$PEXTMAX
 10
-1e+20
 20
-1e+20
 30
-1e+20
  9
$PLIMMIN
 10
0.0
 20
0.0
  9
$PLIMMAX
 10
420.0
 20
297.0
  9
$UNITMODE
 70
0
  9
$VISRETAIN
 70
1
  9
$PLINEGEN
 70
0
  9
$PSLTSCALE
 70
1
  9
$TREEDEPTH
 70
3020
  9
$CMLSTYLE
  2
Standard
  9
$CMLJUST
 70
0
  9
$CMLSCALE
 40
20.0
  9
$PROXYGRAPHICS
 70
1
  9
$MEASUREMENT
 70
1
  9
$CELWEIGHT
370
-1
  9
$ENDCAPS
280
0
  9
$JOINSTYLE
280
0
  9
$LWDISPLAY
290
0
  9
$INSUNITS
 70
6
  9
$HYPERLINKBASE
  1

  9
$STYLESHEET
  1

  9
$XEDIT
290
1
  9
$CEPSNTYPE
380
0
  9
$PSTYLEMODE
290
1
  9
$FINGERPRINTGUID
  2
{BF002A38-22F7-478C-A26B-7B72E3743AD2}
  9
$VERSIONGUID
  2
{86365199-2668-4381-A775-EFA823B796FF}
  9
$EXTNAMES
290
1
  9
$PSVPSCALE
 40
0.0
  9
$OLESTARTUP
290
0
  9
$SORTENTS
280
127
  9
$INDEXCTL
280
0
  9
$HIDETEXT
280
1
  9
$XCLIPFRAME
280
0
  9
$HALOGAP
280
0
  9
$OBSCOLOR
 70
257
  9
$OBSLTYPE
280
0
  9
$INTERSECTIONDISPLAY
280
0
  9
$INTERSECTIONCOLOR
 70
257
  9
$DIMASSOC
280
2
  9
$PROJECTNAME
  1

  9
$CAMERADISPLAY
290
0
  9
$LENSLENGTH
 40
50.0
  9
$CAMERAHEIGHT
 40
0.0
  9
$STEPSPERSEC
 40
24.0
  9
$STEPSIZE
 40
100.0
  9
$3DDWFPREC
 40
2.0
  9
$PSOLWIDTH
 40
0.005
  9
$PSOLHEIGHT
 40
0.08
  9
$LOFTANG1
 40
1.570796326795
  9
$LOFTANG2
 40
1.570796326795
  9
$LOFTMAG1
 40
0.0
  9
$LOFTMAG2
 40
0.0
  9
$LOFTPARAM
 70
7
  9
$LOFTNORMALS
280
1
  9
$LATITUDE
 40
37.795
  9
$LONGITUDE
 40
-122.394
  9
$NORTHDIRECTION
 40
0.0
  9
$TIMEZONE
 70
-8000
  9
$LIGHTGLYPHDISPLAY
280
1
  9
$TILEMODELIGHTSYNCH
280
1
  9
$CMATERIAL
347
20
  9
$SOLIDHIST
280
0
  9
$SHOWHIST
280
1
  9
$DWFFRAME
280
2
  9
$DGNFRAME
280
2
  9
$REALWORLDSCALE
290
1
  9
$INTERFERECOLOR
 62
256
  9
$CSHADOW
280
0
  9
$SHADOWPLANELOCATION
 40
0.0
  0
ENDSEC
  0
SECTION
  2
CLASSES
  0
CLASS
  1
ACDBDICTIONARYWDFLT
  2
AcDbDictionaryWithDefault
  3
ObjectDBX Classes
 90
0
 91
0
280
0
281
0
  0
CLASS
  1
SUN
  2
AcDbSun
  3
SCENEOE
 90
1153
 91
0
280
0
281
0
  0
CLASS
  1
VISUALSTYLE
  2
AcDbVisualStyle
  3
ObjectDBX Classes
 90
4095
 91
0
280
0
281
0
  0
CLASS
  1
MATERIAL
  2
AcDbMaterial
  3
ObjectDBX Classes
 90
1153
 91
0
280
0
281
0
  0
CLASS
  1
SCALE
  2
AcDbScale
  3
ObjectDBX Classes
 90
1153
 91
0
280
0
281
0
  0
CLASS
  1
TABLESTYLE
  2
AcDbTableStyle
  3
ObjectDBX Classes
 90
4095
 91
0
280
0
281
0
  0
CLASS
  1
MLEADERSTYLE
  2
AcDbMLeaderStyle
  3
ACDB_MLEADERSTYLE_CLASS
 90
4095
 91
0
280
0
281
0
  0
CLASS
  1
DICTIONARYVAR
  2
AcDbDictionaryVar
  3
ObjectDBX Classes
 90
0
 91
0
280
0
281
0
  0
CLASS
  1
CELLSTYLEMAP
  2
AcDbCellStyleMap
  3
ObjectDBX Classes
 90
1152
 91
0
280
0
281
0
  0
CLASS
  1
MENTALRAYRENDERSETTINGS
  2
AcDbMentalRayRenderSettings
  3
SCENEOE
 90
1024
 91
0
280
0
281
0
  0
CLASS
  1
ACDBDETAILVIEWSTYLE
  2
AcDbDetailViewStyle
  3
ObjectDBX Classes
 90
1025
 91
0
280
0
281
0
  0
CLASS
  1
ACDBSECTIONVIEWSTYLE
  2
AcDbSectionViewStyle
  3
ObjectDBX Classes
 90
1025
 91
0
280
0
281
0
  0
CLASS
  1
RASTERVARIABLES
  2
AcDbRasterVariables
  3
ISM
 90
0
 91
0
280
0
281
0
  0
CLASS
  1
LAYOUT
  2
AcDbLayout
  3
ObjectDBX Classes
 90
0
 91
0
280
0
281
0
  0
CLASS
  1
ACDBPLACEHOLDER
  2
AcDbPlaceHolder
  3
ObjectDBX Classes
 90
0
 91
0
280
0
281
0
  0
ENDSEC
  0
SECTION
  2
TABLES
  0
TABLE
  2
VPORT
  5
8
330
0
100
AcDbSymbolTable
 70
1
  0
VPORT
  5
23
330
8
100
AcDbSymbolTableRecord
100
AcDbViewportTableRecord
  2
*Active
 70
0
 10
0.0
 20
0.0
 11
1.0
 21
1.0
 12
0.0
 22
0.0
 13
0.0
 23
0.0
 14
0.5
 24
0.5
 15
0.5
 25
0.5
 16
0.0
 26
0.0
 36
1.0
 17
0.0
 27
0.0
 37
0.0
 40
1000.0
 41
1.34
 42
50.0
 43
0.0
 44
0.0
 50
0.0
 51
0.0
 71
0
 72
1000
 73
1
 74
3
 75
0
 76
0
 77
0
 78
0
281
0
 65
0
146
0.0
  0
ENDTAB
  0
TABLE
  2
LTYPE
  5
2
330
0
100
AcDbSymbolTable
 70
3
  0
LTYPE
  5
24
330
2
100
AcDbSymbolTableRecord
100
AcDbLinetypeTableRecord
  2
ByBlock
 70
0
  3

 72
65
 73
0
 40
0.0
  0
LTYPE
  5
25
330
2
100
AcDbSymbolTableRecord
100
AcDbLinetypeTableRecord
  2
ByLayer
 70
0
  3

 72
65
 73
0
 40
0.0
  0
LTYPE
  5
26
330
2
100
AcDbSymbolTableRecord
100
AcDbLinetypeTableRecord
  2
Continuous
 70
0
  3

 72
65
 73
0
 40
0.0
  0
ENDTAB
  0
TABLE
  2
LAYER
  5
1
330
0
100
AcDbSymbolTable
 70
15
  0
LAYER
  5
27
330
1
100
AcDbSymbolTableRecord
100
AcDbLayerTableRecord
  2
0
 70
0
 62
7
  6
Continuous
370
-3
390
13
347
21
  0
LAYER
  5
28
330
1
100
AcDbSymbolTableRecord
100
AcDbLayerTableRecord
  2
Defpoints
 70
0
 62
7
  6
Continuous
290
0
370
-3
390
13
347
21
  0
LAYER
  5
2F
330
1
100
AcDbSymbolTableRecord
100
AcDbLayerTableRecord
  2
B11
 70
0
 62
1
  6
Continuous
370
-3
390
13
347
21
  0
LAYER
  5
3C
330
1
100
AcDbSymbolTableRecord
100
AcDbLayerTableRecord
  2
B13
 70
0
 62
2
  6
Continuous
370
-3
390
13
347
21
  0
LAYER
  5
61
330
1
100
AcDbSymbolTableRecord
100
AcDbLayerTableRecord
  2
B14
 70
0
 62
3
  6
Continuous
370
-3
390
13
347
21
  0
LAYER
  5
8C
330
1
100
AcDbSymbolTableRecord
100
AcDbLayerTableRecord
  2
B21
 70
0
 62
4
  6
Continuous
370
-3
390
13
347
21
  0
LAYER
  5
99
330
1
100
AcDbSymbolTableRecord
100
AcDbLayerTableRecord
  2
B23
 70
0
 62
5
  6
Continuous
370
-3
390
13
347
21
  0
LAYER
  5
BE
330
1
100
AcDbSymbolTableRecord
100
AcDbLayerTableRecord
  2
B31
 70
0
 62
6
  6
Continuous
370
-3
390
13
347
21
  0
LAYER
  5
CB
330
1
100
AcDbSymbolTableRecord
100
AcDbLayerTableRecord
  2
B42
 70
0
 62
7
  6
Continuous
370
-3
390
13
347
21
  0
LAYER
  5
E8
330
1
100
AcDbSymbolTableRecord
100
AcDbLayerTableRecord
  2
B51
 70
0
 62
8
  6
Continuous
370
-3
390
13
347
21
  0
LAYER
  5
121
330
1
100
AcDbSymbolTableRecord
100
AcDbLayerTableRecord
  2
B52
 70
0
 62
9
  6
Continuous
370
-3
390
13
347
21
  0
LAYER
  5
168
330
1
100
AcDbSymbolTableRecord
100
AcDbLayerTableRecord
  2
S12
 70
0
 62
10
  6
Continuous
370
-3
390
13
347
21
  0
LAYER
  5
17B
330
1
100
AcDbSymbolTableRecord
100
AcDbLayerTableRecord
  2
S22
 70
0
 62
11
  6
Continuous
370
-3
390
13
347
21
  0
LAYER
  5
192
330
1
100
AcDbSymbolTableRecord
100
AcDbLayerTableRecord
  2
S32
 70
0
 62
12
  6
Continuous
370
-3
390
13
347
21
  0
LAYER
  5
1A5
330
1
100
AcDbSymbolTableRecord
100
AcDbLayerTableRecord
  2
S41
 70
0
 62
13
  6
Continuous
370
-3
390
13
347
21
  0
ENDTAB
  0
TABLE
  2
STYLE
  5
5
330
0
100
AcDbSymbolTable
 70
1
  0
STYLE
  5
29
330
5
100
AcDbSymbolTableRecord
100
AcDbTextStyleTableRecord
  2
Standard
 70
0
 40
0.0
 41
1.0
 50
0.0
 71
0
 42
2.5
  3
txt
  4

  0
ENDTAB
  0
TABLE
  2
VIEW
  5
7
330
0
100
AcDbSymbolTable
 70
0
  0
ENDTAB
  0
TABLE
  2
UCS
  5
6
330
0
100
AcDbSymbolTable
 70
0
  0
ENDTAB
  0
TABLE
  2
APPID
  5
3
330
0
100
AcDbSymbolTable
 70
3
  0
APPID
  5
2A
330
3
100
AcDbSymbolTableRecord
100
AcDbRegAppTableRecord
  2
ACAD
 70
0
  0
APPID
  5
1B8
330
3
100
AcDbSymbolTableRecord
100
AcDbRegAppTableRecord
  2
HATCHBACKGROUNDCOLOR
 70
0
  0
APPID
  5
1B9
330
3
100
AcDbSymbolTableRecord
100
AcDbRegAppTableRecord
  2
EZDXF
 70
0
  0
ENDTAB
  0
TABLE
  2
DIMSTYLE
  5
4
330
0
100
AcDbSymbolTable
 70
1
100
AcDbDimStyleTable
  0
DIMSTYLE
105
2B
330
4
100
AcDbSymbolTableRecord
100
AcDbDimStyleTableRecord
  2
Standard
 70
0
 40
1.0
 41
2.5
 42
0.625
 43
3.75
 44
1.25
 45
0.0
 46
0.0
 47
0.0
 48
0.0
 49
2.5
140
2.5
141
2.5
142
0.0
143
0.03937007874
144
1.0
145
0.0
146
1.0
147
0.625
148
0.0
 69
0
 70
0
 71
0
 72
0
 73
0
 74
0
 75
0
 76
0
 77
1
 78
8
 79
3
170
0
171
3
172
1
173
0
174
0
175
0
176
0
177
0
178
0
179
2
271
2
272
2
273
2
274
3
275
0
276
0
277
2
278
44
279
0
280
0
281
0
282
0
283
0
284
8
285
0
286
0
288
0
289
3
290
0
371
-2
372
-2
  0
ENDTAB
  0
TABLE
  2
BLOCK_RECORD
  5
9
330
0
100
AcDbSymbolTable
 70
2
  0
BLOCK_RECORD
  5
17
330
9
100
AcDbSymbolTableRecord
100
AcDbBlockTableRecord
  2
*Model_Space
340
1A
 70
0
280
1
281
0
  0
BLOCK_RECORD
  5
1B
330
9
100
AcDbSymbolTableRecord
100
AcDbBlockTableRecord
  2
*Paper_Space
340
1E
 70
0
280
1
281
0
  0
ENDTAB
  0
ENDSEC
  0
SECTION
  2
BLOCKS
  0
BLOCK
  5
18
330
17
100
AcDbEntity
  8
0
100
AcDbBlockBegin
  2
*Model_Space
 70
0
 10
0.0
 20
0.0
 30
0.0
  3
*Model_Space
  1

  0
ENDBLK
  5
19
330
17
100
AcDbEntity
  8
0
100
AcDbBlockEnd
  0
BLOCK
  5
1C
330
1B
100
AcDbEntity
  8
0
100
AcDbBlockBegin
  2
*Paper_Space
 70
0
 10
0.0
 20
0.0
 30
0.0
  3
*Paper_Space
  1

  0
ENDBLK
  5
1D
330
1B
100
AcDbEntity
  8
0
100
AcDbBlockEnd
  0
ENDSEC
  0
SECTION
  2
ENTITIES
  0
LINE
  5
30
330
17
100
AcDbEntity
  8
B11
100
AcDbLine
 10
570917.901794873
 20
785548.7297167062
 30
12.134991845666553
 11
570938.6355325772
 21
785574.1968199594
 31
13.002319073211188
  0
TEXT
  5
31
330
17
100
AcDbEntity
  8
B11
100
AcDbText
 10
570928.2686637251
 20
785561.4632683329
 30
12.56865545943887
 40
0.5
  1
B11-101
 72
1
 11
570928.2686637251
 21
785561.4632683329
 31
12.56865545943887
100
AcDbText
 73
2
  0
TEXT
  5
32
330
17
100
AcDbEntity
  8
0
100
AcDbText
 10
570918.2173635747
 20
785549.1173275086
 30
12.148192616845725
 40
0.5
  1
9.203
 11
570918.2173635747
 21
785549.1173275086
 31
12.148192616845725
100
AcDbText
 73
1
  0
CIRCLE
  5
33
330
17
100
AcDbEntity
  8
B11
100
AcDbCircle
 10
570918.2173635747
 20
785549.1173275086
 30
12.148192616845725
 40
0.25
  0
TEXT
  5
34
330
17
100
AcDbEntity
  8
0
100
AcDbText
 10
570938.3199638755
 20
785573.809209157
 30
12.989118302032017
 40
0.5
  1
10.044
 72
2
 11
570938.3199638755
 21
785573.809209157
 31
12.989118302032017
100
AcDbText
 73
2
  0
CIRCLE
  5
35
330
17
100
AcDbEntity
  8
B11
100
AcDbCircle
 10
570938.3199638755
 20
785573.809209157
 30
12.989118302032017
 40
0.25
  0
LINE
  5
36
330
17
100
AcDbEntity
  8
B11
100
AcDbLine
 10
570920.3058198466
 20
785546.7725085095
 30
12.07299187671772
 11
570941.0395575508
 21
785572.2396117625
 31
12.94031890488426
  0
TEXT
  5
37
330
17
100
AcDbEntity
  8
B11
100
AcDbText
 10
570930.6726886986
 20
785559.506060136
 30
12.50665539080099
 40
0.5
  1
B11-102
 72
1
 11
570930.6726886986
 21
785559.506060136
 31
12.50665539080099
100
AcDbText
 73
2
  0
TEXT
  5
38
330
17
100
AcDbEntity
  8
0
100
AcDbText
 10
570920.6213885483
 20
785547.160119312
 30
12.086192644864534
 40
0.5
  1
9.141
 11
570920.6213885483
 21
785547.160119312
 31
12.086192644864534
100
AcDbText
 73
1
  0
CIRCLE
  5
39
330
17
100
AcDbEntity
  8
B11
100
AcDbCircle
 10
570920.6213885483
 20
785547.160119312
 30
12.086192644864534
 40
0.25
  0
TEXT
  5
3A
330
17
100
AcDbEntity
  8
0
100
AcDbText
 10
570940.7239888491
 20
785571.8520009599
 30
12.927118136737446
 40
0.5
  1
9.982
 72
2
 11
570940.7239888491
 21
785571.8520009599
 31
12.927118136737446
100
AcDbText
 73
2
  0
CIRCLE
  5
3B
330
17
100
AcDbEntity
  8
B11
100
AcDbCircle
 10
570940.7239888491
 20
785571.8520009599
 30
12.927118136737446
 40
0.25
  0
LINE
  5
3D
330
17
100
AcDbEntity
  8
B13
100
AcDbLine
 10
571109.4740809137
 20
785661.321596625
 30
13.713784235097627
 11
571145.7699866502
 21
785649.1097202696
 31
14.923300815795043
  0
TEXT
  5
3E
330
17
100
AcDbEntity
  8
B13
100
AcDbText
 10
571127.622033782
 20
785655.2156584472
 30
14.318542525446336
 40
0.5
  1
B13-309
 72
1
 11
571127.622033782
 21
785655.2156584472
 31
14.318542525446336
100
AcDbText
 73
2
  0
TEXT
  5
3F
330
17
100
AcDbEntity
  8
0
100
AcDbText
 10
571109.9477409467
 20
785661.1622321557
 30
13.72956837526058
 40
0.5
  1
10.785
 11
571109.9477409467
 21
785661.1622321557
 31
13.72956837526058
100
AcDbText
 73
1
  0
CIRCLE
  5
40
330
17
100
AcDbEntity
  8
B13
100
AcDbCircle
 10
571109.9477409467
 20
785661.1622321557
 30
13.72956837526058
 40
0.25
  0
TEXT
  5
41
330
17
100
AcDbEntity
  8
0
100
AcDbText
 10
571145.2963266172
 20
785649.2690847389
 30
14.90751667563209
 40
0.5
  1
11.963
 72
2
 11
571145.2963266172
 21
785649.2690847389
 31
14.90751667563209
100
AcDbText
 73
2
  0
CIRCLE
  5
42
330
17
100
AcDbEntity
  8
B13
100
AcDbCircle
 10
571145.2963266172
 20
785649.2690847389
 30
14.90751667563209
 40
0.25
  0
LINE
  5
43
330
17
100
AcDbEntity
  8
B13
100
AcDbLine
 10
571108.1353281724
 20
785658.7477735534
 30
13.722188429894521
 11
571145.48599485
 21
785647.4917319698
 31
14.89127969765338
  0
TEXT
  5
44
330
17
100
AcDbEntity
  8
B13
100
AcDbText
 10
571126.8106615113
 20
785653.1197527616
 30
14.30673406377395
 40
0.5
  1
B13-308
 72
1
 11
571126.8106615113
 21
785653.1197527616
 31
14.30673406377395
100
AcDbText
 73
2
  0
TEXT
  5
45
330
17
100
AcDbEntity
  8
0
100
AcDbText
 10
571108.6138467467
 20
785658.6035666234
 30
13.737166258579094
 40
0.5
  1
10.792
 11
571108.6138467467
 21
785658.6035666234
 31
13.737166258579094
100
AcDbText
 73
1
  0
CIRCLE
  5
46
330
17
100
AcDbEntity
  8
B13
100
AcDbCircle
 10
571108.6138467467
 20
785658.6035666234
 30
13.737166258579094
 40
0.25
  0
TEXT
  5
47
330
17
100
AcDbEntity
  8
0
100
AcDbText
 10
571145.0074762757
 20
785647.6359388997
 30
14.876301868968806
 40
0.5
  1
11.931
 72
2
 11
571145.0074762757
 21
785647.6359388997
 31
14.876301868968806
100
AcDbText
 73
2
  0
CIRCLE
  5
48
330
17
100
AcDbEntity
  8
B13
100
AcDbCircle
 10
571145.0074762757
 20
785647.6359388997
 30
14.876301868968806
 40
0.25
  0
LINE
  5
49
330
17
100
AcDbEntity
  8
B13
100
AcDbLine
 10
571106.7965068754
 20
785656.1738186795
 30
13.730671842555482
 11
571145.202047267
 21
785645.8739955886
 31
14.85925585330542
  0
TEXT
  5
4A
330
17
100
AcDbEntity
  8
B13
100
AcDbText
 10
571125.9992770712
 20
785651.0239071341
 30
14.29496384793045
 40
0.5
  1
B13-307
 72
1
 11
571125.9992770712
 21
785651.0239071341
 31
14.29496384793045
100
AcDbText
 73
2
  0
TEXT
  5
4B
330
17
100
AcDbEntity
  8
0
100
AcDbText
 10
571107.2792467953
 20
785656.0443546562
 30
13.744857622770034
 40
0.5
  1
10.800
 11
571107.2792467953
 21
785656.0443546562
 31
13.744857622770034
100
AcDbText
 73
1
  0
CIRCLE
  5
4C
330
17
100
AcDbEntity
  8
B13
100
AcDbCircle
 10
571107.2792467953
 20
785656.0443546562
 30
13.744857622770034
 40
0.25
  0
TEXT
  5
4D
330
17
100
AcDbEntity
  8
0
100
AcDbText
 10
571144.7193073471
 20
785646.0034596119
 30
14.845070073090868
 40
0.5
  1
11.900
 72
2
 11
571144.7193073471
 21
785646.0034596119
 31
14.845070073090868
100
AcDbText
 73
2
  0
CIRCLE
  5
4E
330
17
100
AcDbEntity
  8
B13
100
AcDbCircle
 10
571144.7193073471
 20
785646.0034596119
 30
14.845070073090868
 40
0.25
  0
LINE
  5
4F
330
17
100
AcDbEntity
  8
B13
100
AcDbLine
 10
571105.7135525346
 20
785653.5136251538
 30
13.760586680206565
 11
571144.9181218995
 21
785644.2563857763
 31
14.828343238775329
  0
TEXT
  5
50
330
17
100
AcDbEntity
  8
B13
100
AcDbText
 10
571125.315837217
 20
785648.885005465
 30
14.294464959490947
 40
0.5
  1
B13-109
 72
1
 11
571125.315837217
 21
785648.885005465
 31
14.294464959490947
100
AcDbText
 73
2
  0
TEXT
  5
51
330
17
100
AcDbEntity
  8
0
100
AcDbText
 10
571106.1999997974
 20
785653.398762044
 30
13.773835320956971
 40
0.5
  1
10.829
 11
571106.1999997974
 21
785653.398762044
 31
13.773835320956971
100
AcDbText
 73
1
  0
CIRCLE
  5
52
330
17
100
AcDbEntity
  8
B13
100
AcDbCircle
 10
571106.1999997974
 20
785653.398762044
 30
13.773835320956971
 40
0.25
  0
TEXT
  5
53
330
17
100
AcDbEntity
  8
0
100
AcDbText
 10
571144.4316746367
 20
785644.3712488861
 30
14.815094598024922
 40
0.5
  1
11.870
 72
2
 11
571144.4316746367
 21
785644.3712488861
 31
14.815094598024922
100
AcDbText
 73
2
  0
CIRCLE
  5
54
330
17
100
AcDbEntity
  8
B13
100
AcDbCircle
 10
571144.4316746367
 20
785644.3712488861
 30
14.815094598024922
 40
0.25
  0
LINE
  5
55
330
17
100
AcDbEntity
  8
B13
100
AcDbLine
 10
571105.2318752203
 20
785650.6524416555
 30
13.696714227135734
 11
571144.6341658914
 21
785642.638601395
 31
14.795492927853967
  0
TEXT
  5
56
330
17
100
AcDbEntity
  8
B13
100
AcDbText
 10
571124.9330205559
 20
785646.6455215253
 30
14.24610357749485
 40
0.5
  1
B13-108
 72
1
 11
571124.9330205559
 21
785646.6455215253
 31
14.24610357749485
100
AcDbText
 73
2
  0
TEXT
  5
57
330
17
100
AcDbEntity
  8
0
100
AcDbText
 10
571105.7216611613
 20
785650.5528264751
 30
13.71037247772834
 40
0.5
  1
10.765
 11
571105.7216611613
 21
785650.5528264751
 31
13.71037247772834
100
AcDbText
 73
1
  0
CIRCLE
  5
58
330
17
100
AcDbEntity
  8
B13
100
AcDbCircle
 10
571105.7216611613
 20
785650.5528264751
 30
13.71037247772834
 40
0.25
  0
TEXT
  5
59
330
17
100
AcDbEntity
  8
0
100
AcDbText
 10
571144.1443799505
 20
785642.7382165754
 30
14.781834677261362
 40
0.5
  1
11.837
 72
2
 11
571144.1443799505
 21
785642.7382165754
 31
14.781834677261362
100
AcDbText
 73
2
  0
CIRCLE
  5
5A
330
17
100
AcDbEntity
  8
B13
100
AcDbCircle
 10
571144.1443799505
 20
785642.7382165754
 30
14.781834677261362
 40
0.25
  0
LINE
  5
5B
330
17
100
AcDbEntity
  8
B13
100
AcDbLine
 10
571104.7501984324
 20
785647.7912612844
 30
13.632843135380448
 11
571144.3502089103
 21
785641.0208114699
 31
14.762642342137873
  0
TEXT
  5
5C
330
17
100
AcDbEntity
  8
B13
100
AcDbText
 10
571124.5502036713
 20
785644.4060363771
 30
14.19774273875916
 40
0.5
  1
B13-107
 72
1
 11
571124.5502036713
 21
785644.4060363771
 31
14.19774273875916
100
AcDbText
 73
2
  0
TEXT
  5
5D
330
17
100
AcDbEntity
  8
0
100
AcDbText
 10
571105.2428523029
 20
785647.707031804
 30
13.646898686007605
 40
0.5
  1
10.702
 11
571105.2428523029
 21
785647.707031804
 31
13.646898686007605
100
AcDbText
 73
1
  0
CIRCLE
  5
5E
330
17
100
AcDbEntity
  8
B13
100
AcDbCircle
 10
571105.2428523029
 20
785647.707031804
 30
13.646898686007605
 40
0.25
  0
TEXT
  5
5F
330
17
100
AcDbEntity
  8
0
100
AcDbText
 10
571143.8575550398
 20
785641.1050409502
 30
14.748586791510716
 40
0.5
  1
11.804
 72
2
 11
571143.8575550398
 21
785641.1050409502
 31
14.748586791510716
100
AcDbText
 73
2
  0
CIRCLE
  5
60
330
17
100
AcDbEntity
  8
B13
100
AcDbCircle
 10
571143.8575550398
 20
785641.1050409502
 30
14.748586791510716
 40
0.25
  0
LINE
  5
62
330
17
100
AcDbEntity
  8
B14
100
AcDbLine
 10
571146.1397773589
 20
785648.2086424851
 30
14.922116797354555
 11
571189.8771894664
 21
785640.0466527531
 31
16.151143216366066
  0
TEXT
  5
63
330
17
100
AcDbEntity
  8
B14
100
AcDbText
 10
571168.0084834127
 20
785644.1276476191
 30
15.53663000686031
 40
0.5
  1
B14-310
 72
1
 11
571168.0084834127
 21
785644.1276476191
 31
15.53663000686031
100
AcDbText
 73
2
  0
TEXT
  5
64
330
17
100
AcDbEntity
  8
0
100
AcDbText
 10
571146.6311047836
 20
785648.1169541752
 30
14.935923155716555
 40
0.5
  1
11.991
 11
571146.6311047836
 21
785648.1169541752
 31
14.935923155716555
100
AcDbText
 73
1
  0
CIRCLE
  5
65
330
17
100
AcDbEntity
  8
B14
100
AcDbCircle
 10
571146.6311047836
 20
785648.1169541752
 30
14.935923155716555
 40
0.25
  0
LINE
  5
66
330
17
100
AcDbEntity
  8
B14
100
AcDbLine
 10
571145.6211112456
 20
785645.253642719
 30
14.864978359847294
 11
571189.3583542601
 21
785637.091684542
 31
16.0911350002629
  0
TEXT
  5
67
330
17
100
AcDbEntity
  8
B14
100
AcDbText
 10
571167.4897327528
 20
785641.1726636305
 30
15.478056680055097
 40
0.5
  1
B14-111
 72
1
 11
571167.4897327528
 21
785641.1726636305
 31
15.478056680055097
100
AcDbText
 73
2
  0
TEXT
  5
68
330
17
100
AcDbEntity
  8
0
100
AcDbText
 10
571146.1124395425
 20
785645.1619542463
 30
14.878752558047236
 40
0.5
  1
11.934
 11
571146.1124395425
 21
785645.1619542463
 31
14.878752558047236
100
AcDbText
 73
1
  0
CIRCLE
  5
69
330
17
100
AcDbEntity
  8
B14
100
AcDbCircle
 10
571146.1124395425
 20
785645.1619542463
 30
14.878752558047236
 40
0.25
  0
LINE
  5
6A
330
17
100
AcDbEntity
  8
B14
100
AcDbLine
 10
571145.1024451321
 20
785642.2986429532
 30
14.804974899435917
 11
571188.8395190539
 21
785634.1367163314
 31
16.031125950666173
  0
TEXT
  5
6B
330
17
100
AcDbEntity
  8
B14
100
AcDbText
 10
571166.970982093
 20
785638.2176796423
 30
15.418050425051044
 40
0.5
  1
B14-110
 72
1
 11
571166.970982093
 21
785638.2176796423
 31
15.418050425051044
100
AcDbText
 73
2
  0
TEXT
  5
6C
330
17
100
AcDbEntity
  8
0
100
AcDbText
 10
571145.5937734294
 20
785642.2069544804
 30
14.818749088108657
 40
0.5
  1
11.874
 11
571145.5937734294
 21
785642.2069544804
 31
14.818749088108657
100
AcDbText
 73
1
  0
CIRCLE
  5
6D
330
17
100
AcDbEntity
  8
B14
100
AcDbCircle
 10
571145.5937734294
 20
785642.2069544804
 30
14.818749088108657
 40
0.25
  0
LINE
  5
6E
330
17
100
AcDbEntity
  8
B14
100
AcDbLine
 10
571190.368732353
 20
785639.9549242354
 30
16.16503592957982
 11
571234.0885261633
 21
785631.7962223146
 31
17.40718276745212
  0
TEXT
  5
6F
330
17
100
AcDbEntity
  8
B14
100
AcDbText
 10
571212.2286292581
 20
785635.8755732749
 30
16.78610934851597
 40
0.5
  1
B14-503
 72
1
 11
571212.2286292581
 21
785635.8755732749
 31
16.78610934851597
100
AcDbText
 73
2
  0
TEXT
  5
70
330
17
100
AcDbEntity
  8
0
100
AcDbText
 10
571190.123070728
 20
785640.0007680007
 30
16.158056303555234
 40
0.5
  1
13.213
 72
1
 11
571190.123070728
 21
785640.0007680007
 31
16.158056303555234
100
AcDbText
 73
1
  0
CIRCLE
  5
71
330
17
100
AcDbEntity
  8
B14
100
AcDbCircle
 10
571190.123070728
 20
785640.0007680007
 30
16.158056303555234
 40
0.25
  0
LINE
  5
72
330
17
100
AcDbEntity
  8
B14
100
AcDbLine
 10
571189.849897147
 20
785636.9999560242
 30
16.1050277134779
 11
571233.5250097879
 21
785628.8495922115
 31
17.347173261604954
  0
TEXT
  5
73
330
17
100
AcDbEntity
  8
B14
100
AcDbText
 10
571211.6874534674
 20
785632.9247741179
 30
16.726100487541427
 40
0.5
  1
B14-502
 72
1
 11
571211.6874534674
 21
785632.9247741179
 31
16.726100487541427
100
AcDbText
 73
2
  0
TEXT
  5
74
330
17
100
AcDbEntity
  8
0
100
AcDbText
 10
571189.6042357178
 20
785637.0457997532
 30
16.098040959874393
 40
0.5
  1
13.153
 72
1
 11
571189.6042357178
 21
785637.0457997532
 31
16.098040959874393
100
AcDbText
 73
1
  0
CIRCLE
  5
75
330
17
100
AcDbEntity
  8
B14
100
AcDbCircle
 10
571189.6042357178
 20
785637.0457997532
 30
16.098040959874393
 40
0.25
  0
LINE
  5
76
330
17
100
AcDbEntity
  8
B14
100
AcDbLine
 10
571189.3310619406
 20
785634.0449878131
 30
16.04501969926199
 11
571232.9614934125
 21
785625.902962108
 31
17.287164119616396
  0
TEXT
  5
77
330
17
100
AcDbEntity
  8
B14
100
AcDbText
 10
571211.1462776766
 20
785629.9739749606
 30
16.666091909439192
 40
0.5
  1
B14-501
 72
1
 11
571211.1462776766
 21
785629.9739749606
 31
16.666091909439192
100
AcDbText
 73
2
  0
TEXT
  5
78
330
17
100
AcDbEntity
  8
0
100
AcDbText
 10
571189.0854007079
 20
785634.0908315054
 30
16.038025802587015
 40
0.5
  1
13.093
 72
1
 11
571189.0854007079
 21
785634.0908315054
 31
16.038025802587015
100
AcDbText
 73
1
  0
CIRCLE
  5
79
330
17
100
AcDbEntity
  8
B14
100
AcDbCircle
 10
571189.0854007079
 20
785634.0908315054
 30
16.038025802587015
 40
0.25
  0
LINE
  5
7A
330
17
100
AcDbEntity
  8
B14
100
AcDbLine
 10
571234.5800459107
 20
785631.7044981145
 30
17.421236765728526
 11
571278.2927446045
 21
785623.547120238
 31
18.678925122400152
  0
TEXT
  5
7B
330
17
100
AcDbEntity
  8
B14
100
AcDbText
 10
571256.4363952576
 20
785627.6258091762
 30
18.05008094406434
 40
0.5
  1
B14-506
 72
1
 11
571256.4363952576
 21
785627.6258091762
 31
18.05008094406434
100
AcDbText
 73
2
  0
TEXT
  5
7C
330
17
100
AcDbEntity
  8
0
100
AcDbText
 10
571234.3343867282
 20
785631.7503414241
 30
17.414168735095057
 40
0.5
  1
14.469
 72
1
 11
571234.3343867282
 21
785631.7503414241
 31
17.414168735095057
100
AcDbText
 73
1
  0
CIRCLE
  5
7D
330
17
100
AcDbEntity
  8
B14
100
AcDbCircle
 10
571234.3343867282
 20
785631.7503414241
 30
17.414168735095057
 40
0.25
  0
TEXT
  5
7E
330
17
100
AcDbEntity
  8
0
100
AcDbText
 10
571277.8014262397
 20
785623.6388068572
 30
18.664789061133217
 40
0.5
  1
15.720
 72
2
 11
571277.8014262397
 21
785623.6388068572
 31
18.664789061133217
100
AcDbText
 73
1
  0
CIRCLE
  5
7F
330
17
100
AcDbEntity
  8
B14
100
AcDbCircle
 10
571277.8014262397
 20
785623.6388068572
 30
18.664789061133217
 40
0.25
  0
LINE
  5
80
330
17
100
AcDbEntity
  8
B14
100
AcDbLine
 10
571234.0165295353
 20
785628.7578680112
 30
17.36124451353555
 11
571277.6761947811
 21
785620.6103868899
 31
18.61890297037362
  0
TEXT
  5
81
330
17
100
AcDbEntity
  8
B14
100
AcDbText
 10
571255.8463621582
 20
785624.6841274506
 30
17.990073741954586
 40
0.5
  1
B14-505
 72
1
 11
571255.8463621582
 21
785624.6841274506
 31
17.990073741954586
100
AcDbText
 73
2
  0
TEXT
  5
82
330
17
100
AcDbEntity
  8
0
100
AcDbText
 10
571233.7708705869
 20
785628.8037112772
 30
17.35416807233376
 40
0.5
  1
14.409
 72
1
 11
571233.7708705869
 21
785628.8037112772
 31
17.35416807233376
100
AcDbText
 73
1
  0
CIRCLE
  5
83
330
17
100
AcDbEntity
  8
B14
100
AcDbCircle
 10
571233.7708705869
 20
785628.8037112772
 30
17.35416807233376
 40
0.25
  0
TEXT
  5
84
330
17
100
AcDbEntity
  8
0
100
AcDbText
 10
571277.1848768842
 20
785620.7020734218
 30
18.604750087970046
 40
0.5
  1
15.660
 72
2
 11
571277.1848768842
 21
785620.7020734218
 31
18.604750087970046
100
AcDbText
 73
1
  0
CIRCLE
  5
85
330
17
100
AcDbEntity
  8
B14
100
AcDbCircle
 10
571277.1848768842
 20
785620.7020734218
 30
18.604750087970046
 40
0.25
  0
LINE
  5
86
330
17
100
AcDbEntity
  8
B14
100
AcDbLine
 10
571233.4530131599
 20
785625.811237908
 30
17.301252679721895
 11
571277.0596449578
 21
785617.6736535421
 31
18.558881365158804
  0
TEXT
  5
87
330
17
100
AcDbEntity
  8
B14
100
AcDbText
 10
571255.2563290589
 20
785621.742445725
 30
17.930067022440348
 40
0.5
  1
B14-504
 72
1
 11
571255.2563290589
 21
785621.742445725
 31
17.930067022440348
100
AcDbText
 73
2
  0
TEXT
  5
88
330
17
100
AcDbEntity
  8
0
100
AcDbText
 10
571233.2073544463
 20
785625.85708113
 30
17.294167806795482
 40
0.5
  1
14.349
 72
1
 11
571233.2073544463
 21
785625.85708113
 31
17.294167806795482
100
AcDbText
 73
1
  0
CIRCLE
  5
89
330
17
100
AcDbEntity
  8
B14
100
AcDbCircle
 10
571233.2073544463
 20
785625.85708113
 30
17.294167806795482
 40
0.25
  0
TEXT
  5
8A
330
17
100
AcDbEntity
  8
0
100
AcDbText
 10
571276.5683275306
 20
785617.7653399863
 30
18.54471161930598
 40
0.5
  1
15.600
 72
2
 11
571276.5683275306
 21
785617.7653399863
 31
18.54471161930598
100
AcDbText
 73
1
  0
CIRCLE
  5
8B
330
17
100
AcDbEntity
  8
B14
100
AcDbCircle
 10
571276.5683275306
 20
785617.7653399863
 30
18.54471161930598
 40
0.25
  0
LINE
  5
8D
330
17
100
AcDbEntity
  8
B21
100
AcDbLine
 10
570913.0161342021
 20
785552.7071919041
 30
12.405137038323815
 11
570933.7499126061
 21
785578.17434788
 31
14.375537092554252
  0
TEXT
  5
8E
330
17
100
AcDbEntity
  8
B21
100
AcDbText
 10
570923.383023404
 20
785565.440769892
 30
13.390337065439034
 40
0.5
  1
B21-201
 72
1
 11
570923.383023404
 21
785565.440769892
 31
13.390337065439034
100
AcDbText
 73
2
  0
TEXT
  5
8F
330
17
100
AcDbEntity
  8
0
100
AcDbText
 10
570913.3312462311
 20
785553.0942418202
 30
12.43508318450344
 40
0.5
  1
9.490
 11
570913.3312462311
 21
785553.0942418202
 31
12.43508318450344
100
AcDbText
 73
1
  0
CIRCLE
  5
90
330
17
100
AcDbEntity
  8
B21
100
AcDbCircle
 10
570913.3312462311
 20
785553.0942418202
 30
12.43508318450344
 40
0.25
  0
TEXT
  5
91
330
17
100
AcDbEntity
  8
0
100
AcDbText
 10
570933.4348005771
 20
785577.7872979639
 30
14.345590946374626
 40
0.5
  1
11.401
 72
2
 11
570933.4348005771
 21
785577.7872979639
 31
14.345590946374626
100
AcDbText
 73
2
  0
CIRCLE
  5
92
330
17
100
AcDbEntity
  8
B21
100
AcDbCircle
 10
570933.4348005771
 20
785577.7872979639
 30
14.345590946374626
 40
0.25
  0
LINE
  5
93
330
17
100
AcDbEntity
  8
B21
100
AcDbLine
 10
570915.4201592786
 20
785550.7499838335
 30
12.467137447544728
 11
570936.1539376823
 21
785576.2171398095
 31
14.437536818377447
  0
TEXT
  5
94
330
17
100
AcDbEntity
  8
B21
100
AcDbText
 10
570925.7870484805
 20
785563.4835618215
 30
13.452337132961087
 40
0.5
  1
B21-202
 72
1
 11
570925.7870484805
 21
785563.4835618215
 31
13.452337132961087
100
AcDbText
 73
2
  0
TEXT
  5
95
330
17
100
AcDbEntity
  8
0
100
AcDbText
 10
570915.7352713079
 20
785551.1370337501
 30
12.497083583375382
 40
0.5
  1
9.552
 11
570915.7352713079
 21
785551.1370337501
 31
12.497083583375382
100
AcDbText
 73
1
  0
CIRCLE
  5
96
330
17
100
AcDbEntity
  8
B21
100
AcDbCircle
 10
570915.7352713079
 20
785551.1370337501
 30
12.497083583375382
 40
0.25
  0
TEXT
  5
97
330
17
100
AcDbEntity
  8
0
100
AcDbText
 10
570935.838825653
 20
785575.830089893
 30
14.407590682546793
 40
0.5
  1
11.463
 72
2
 11
570935.838825653
 21
785575.830089893
 31
14.407590682546793
100
AcDbText
 73
2
  0
CIRCLE
  5
98
330
17
100
AcDbEntity
  8
B21
100
AcDbCircle
 10
570935.838825653
 20
785575.830089893
 30
14.407590682546793
 40
0.25
  0
LINE
  5
9A
330
17
100
AcDbEntity
  8
B23
100
AcDbLine
 10
571118.5443132904
 20
785663.161857853
 30
22.819418307331432
 11
571147.3953277458
 21
785657.0561993999
 31
22.38972299660758
  0
TEXT
  5
9B
330
17
100
AcDbEntity
  8
B23
100
AcDbText
 10
571132.9698205182
 20
785660.1090286263
 30
22.604570651969507
 40
0.5
  1
B23-209
 72
1
 11
571132.9698205182
 21
785660.1090286263
 31
22.604570651969507
100
AcDbText
 73
2
  0
TEXT
  5
9C
330
17
100
AcDbEntity
  8
0
100
AcDbText
 10
571119.033427435
 20
785663.0583480122
 30
22.81213363958833
 40
0.5
  1
19.867
 11
571119.033427435
 21
785663.0583480122
 31
22.81213363958833
100
AcDbText
 73
1
  0
CIRCLE
  5
9D
330
17
100
AcDbEntity
  8
B23
100
AcDbCircle
 10
571119.033427435
 20
785663.0583480122
 30
22.81213363958833
 40
0.25
  0
LINE
  5
9E
330
17
100
AcDbEntity
  8
B23
100
AcDbLine
 10
571117.902452686
 20
785660.129034916
 30
22.881418821405507
 11
571146.7534671413
 21
785654.023376463
 31
22.451723500883848
  0
TEXT
  5
9F
330
17
100
AcDbEntity
  8
B23
100
AcDbText
 10
571132.3279599136
 20
785657.0762056895
 30
22.666571161144677
 40
0.5
  1
B23-208
 72
1
 11
571132.3279599136
 21
785657.0762056895
 31
22.666571161144677
100
AcDbText
 73
2
  0
TEXT
  5
A0
330
17
100
AcDbEntity
  8
0
100
AcDbText
 10
571118.3915668306
 20
785660.0255250753
 30
22.87413415349631
 40
0.5
  1
19.929
 11
571118.3915668306
 21
785660.0255250753
 31
22.87413415349631
100
AcDbText
 73
1
  0
CIRCLE
  5
A1
330
17
100
AcDbEntity
  8
B23
100
AcDbCircle
 10
571118.3915668306
 20
785660.0255250753
 30
22.87413415349631
 40
0.25
  0
LINE
  5
A2
330
17
100
AcDbEntity
  8
B23
100
AcDbLine
 10
571147.8844938095
 20
785656.9526785716
 30
22.38243753397321
 11
571191.4202734948
 21
785647.7393248553
 31
21.734033291737987
  0
TEXT
  5
A3
330
17
100
AcDbEntity
  8
B23
100
AcDbText
 10
571169.6523836522
 20
785652.3460017134
 30
22.0582354128556
 40
0.5
  1
B23-211
 72
1
 11
571169.6523836522
 21
785652.3460017134
 31
22.0582354128556
100
AcDbText
 73
2
  0
TEXT
  5
A4
330
17
100
AcDbEntity
  8
0
100
AcDbText
 10
571147.6399367373
 20
785657.004433492
 30
22.386079867803147
 40
0.5
  1
19.441
 72
1
 11
571147.6399367373
 21
785657.004433492
 31
22.386079867803147
100
AcDbText
 73
1
  0
CIRCLE
  5
A5
330
17
100
AcDbEntity
  8
B23
100
AcDbCircle
 10
571147.6399367373
 20
785657.004433492
 30
22.386079867803147
 40
0.25
  0
LINE
  5
A6
330
17
100
AcDbEntity
  8
B23
100
AcDbLine
 10
571147.2426332054
 20
785653.9198556347
 30
22.44443811029624
 11
571190.7784128903
 21
785644.7065019185
 31
21.796033862358794
  0
TEXT
  5
A7
330
17
100
AcDbEntity
  8
B23
100
AcDbText
 10
571169.0105230478
 20
785649.3131787765
 30
22.120235986327515
 40
0.5
  1
B23-210
 72
1
 11
571169.0105230478
 21
785649.3131787765
 31
22.120235986327515
100
AcDbText
 73
2
  0
TEXT
  5
A8
330
17
100
AcDbEntity
  8
0
100
AcDbText
 10
571146.9980761331
 20
785653.9716105551
 30
22.44808044415823
 40
0.5
  1
19.503
 72
1
 11
571146.9980761331
 21
785653.9716105551
 31
22.44808044415823
100
AcDbText
 73
1
  0
CIRCLE
  5
A9
330
17
100
AcDbEntity
  8
B23
100
AcDbCircle
 10
571146.9980761331
 20
785653.9716105551
 30
22.44808044415823
 40
0.25
  0
LINE
  5
AA
330
17
100
AcDbEntity
  8
B23
100
AcDbLine
 10
571191.9094395586
 20
785647.6358040271
 30
21.726747863444487
 11
571235.4452192554
 21
785638.4224503085
 31
21.078343598799684
  0
TEXT
  5
AB
330
17
100
AcDbEntity
  8
B23
100
AcDbText
 10
571213.6773294071
 20
785643.0291271678
 30
21.402545731122085
 40
0.5
  1
B23-213
 72
1
 11
571213.6773294071
 21
785643.0291271678
 31
21.402545731122085
100
AcDbText
 73
2
  0
TEXT
  5
AC
330
17
100
AcDbEntity
  8
0
100
AcDbText
 10
571191.6648824863
 20
785647.6875589475
 30
21.730390197399316
 40
0.5
  1
18.785
 72
1
 11
571191.6648824863
 21
785647.6875589475
 31
21.730390197399316
100
AcDbText
 73
1
  0
CIRCLE
  5
AD
330
17
100
AcDbEntity
  8
B23
100
AcDbCircle
 10
571191.6648824863
 20
785647.6875589475
 30
21.730390197399316
 40
0.25
  0
LINE
  5
AE
330
17
100
AcDbEntity
  8
B23
100
AcDbLine
 10
571191.2675789542
 20
785644.6029810904
 30
21.78874835516379
 11
571234.803358651
 21
785635.3896273716
 31
21.140344157501865
  0
TEXT
  5
AF
330
17
100
AcDbEntity
  8
B23
100
AcDbText
 10
571213.0354688026
 20
785639.996304231
 30
21.464546256332827
 40
0.5
  1
B23-212
 72
1
 11
571213.0354688026
 21
785639.996304231
 31
21.464546256332827
100
AcDbText
 73
2
  0
TEXT
  5
B0
330
17
100
AcDbEntity
  8
0
100
AcDbText
 10
571191.0230218819
 20
785644.6547360108
 30
21.792390688742426
 40
0.5
  1
18.847
 72
1
 11
571191.0230218819
 21
785644.6547360108
 31
21.792390688742426
100
AcDbText
 73
1
  0
CIRCLE
  5
B1
330
17
100
AcDbEntity
  8
B23
100
AcDbCircle
 10
571191.0230218819
 20
785644.6547360108
 30
21.792390688742426
 40
0.25
  0
LINE
  5
B2
330
17
100
AcDbEntity
  8
B23
100
AcDbLine
 10
571235.9343853194
 20
785638.31892948
 30
21.071058148160162
 11
571279.4601542909
 21
785629.1076943029
 31
20.467463703710404
  0
TEXT
  5
B3
330
17
100
AcDbEntity
  8
B23
100
AcDbText
 10
571257.6972698051
 20
785633.7133118915
 30
20.769260925935285
 40
0.5
  1
B23-215
 72
1
 11
571257.6972698051
 21
785633.7133118915
 31
20.769260925935285
100
AcDbText
 73
2
  0
TEXT
  5
B4
330
17
100
AcDbEntity
  8
0
100
AcDbText
 10
571235.6898247938
 20
785638.3706851312
 30
21.07444959598606
 40
0.5
  1
18.129
 72
1
 11
571235.6898247938
 21
785638.3706851312
 31
21.07444959598606
100
AcDbText
 73
1
  0
CIRCLE
  5
B5
330
17
100
AcDbEntity
  8
B23
100
AcDbCircle
 10
571235.6898247938
 20
785638.3706851312
 30
21.07444959598606
 40
0.25
  0
TEXT
  5
B6
330
17
100
AcDbEntity
  8
0
100
AcDbText
 10
571278.9710332399
 20
785629.2112056053
 30
20.474246599362203
 40
0.5
  1
17.529
 72
2
 11
571278.9710332399
 21
785629.2112056053
 31
20.474246599362203
100
AcDbText
 73
1
  0
CIRCLE
  5
B7
330
17
100
AcDbEntity
  8
B23
100
AcDbCircle
 10
571278.9710332399
 20
785629.2112056053
 30
20.474246599362203
 40
0.25
  0
LINE
  5
B8
330
17
100
AcDbEntity
  8
B23
100
AcDbLine
 10
571235.292524715
 20
785635.2861065431
 30
21.13305855649807
 11
571278.8232124844
 21
785626.073830415
 31
20.52942012440782
  0
TEXT
  5
B9
330
17
100
AcDbEntity
  8
B23
100
AcDbText
 10
571257.0578685997
 20
785630.6799684791
 30
20.831239340452946
 40
0.5
  1
B23-214
 72
1
 11
571257.0578685997
 21
785630.6799684791
 31
20.831239340452946
100
AcDbText
 73
2
  0
TEXT
  5
BA
330
17
100
AcDbEntity
  8
0
100
AcDbText
 10
571235.0479641876
 20
785635.3378621947
 30
21.136449868256385
 40
0.5
  1
18.191
 72
1
 11
571235.0479641876
 21
785635.3378621947
 31
21.136449868256385
100
AcDbText
 73
1
  0
CIRCLE
  5
BB
330
17
100
AcDbEntity
  8
B23
100
AcDbCircle
 10
571235.0479641876
 20
785635.3378621947
 30
21.136449868256385
 40
0.25
  0
TEXT
  5
BC
330
17
100
AcDbEntity
  8
0
100
AcDbText
 10
571278.3340914297
 20
785626.1773417181
 30
20.536202747924452
 40
0.5
  1
17.591
 72
2
 11
571278.3340914297
 21
785626.1773417181
 31
20.536202747924452
100
AcDbText
 73
1
  0
CIRCLE
  5
BD
330
17
100
AcDbEntity
  8
B23
100
AcDbCircle
 10
571278.3340914297
 20
785626.1773417181
 30
20.536202747924452
 40
0.25
  0
LINE
  5
BF
330
17
100
AcDbEntity
  8
B31
100
AcDbLine
 10
571098.7476759658
 20
785780.9954851102
 30
11.725708481942638
 11
571123.835221375
 21
785812.0507535528
 31
10.205990300398373
  0
TEXT
  5
C0
330
17
100
AcDbEntity
  8
B31
100
AcDbText
 10
571111.2914486704
 20
785796.5231193316
 30
10.965849391170504
 40
0.5
  1
B31-306
 72
1
 11
571111.2914486704
 21
785796.5231193316
 31
10.965849391170504
100
AcDbText
 73
2
  0
TEXT
  5
C1
330
17
100
AcDbEntity
  8
0
100
AcDbText
 10
571099.0616507987
 20
785781.3841469965
 30
11.706688954349245
 40
0.5
  1
8.762
 11
571099.0616507987
 21
785781.3841469965
 31
11.706688954349245
100
AcDbText
 73
1
  0
CIRCLE
  5
C2
330
17
100
AcDbEntity
  8
B31
100
AcDbCircle
 10
571099.0616507987
 20
785781.3841469965
 30
11.706688954349245
 40
0.25
  0
TEXT
  5
C3
330
17
100
AcDbEntity
  8
0
100
AcDbText
 10
571123.5212465421
 20
785811.6620916665
 30
10.225009827991766
 40
0.5
  1
7.280
 72
2
 11
571123.5212465421
 21
785811.6620916665
 31
10.225009827991766
100
AcDbText
 73
2
  0
CIRCLE
  5
C4
330
17
100
AcDbEntity
  8
B31
100
AcDbCircle
 10
571123.5212465421
 20
785811.6620916665
 30
10.225009827991766
 40
0.25
  0
LINE
  5
C5
330
17
100
AcDbEntity
  8
B31
100
AcDbLine
 10
571096.3228159661
 20
785782.9268198772
 30
11.689794814082509
 11
571121.4311270164
 21
785814.0078808812
 31
10.143995446926084
  0
TEXT
  5
C6
330
17
100
AcDbEntity
  8
B31
100
AcDbText
 10
571108.8769714913
 20
785798.4673503792
 30
10.916895130504297
 40
0.5
  1
B31-305
 72
1
 11
571108.8769714913
 21
785798.4673503792
 31
10.916895130504297
100
AcDbText
 73
2
  0
TEXT
  5
C7
330
17
100
AcDbEntity
  8
0
100
AcDbText
 10
571096.6367827915
 20
785783.3154729424
 30
11.670465368983795
 40
0.5
  1
8.725
 11
571096.6367827915
 21
785783.3154729424
 31
11.670465368983795
100
AcDbText
 73
1
  0
CIRCLE
  5
C8
330
17
100
AcDbEntity
  8
B31
100
AcDbCircle
 10
571096.6367827915
 20
785783.3154729424
 30
11.670465368983795
 40
0.25
  0
TEXT
  5
C9
330
17
100
AcDbEntity
  8
0
100
AcDbText
 10
571121.1171601911
 20
785813.619227816
 30
10.163324892024798
 40
0.5
  1
7.218
 72
2
 11
571121.1171601911
 21
785813.619227816
 31
10.163324892024798
100
AcDbText
 73
2
  0
CIRCLE
  5
CA
330
17
100
AcDbEntity
  8
B31
100
AcDbCircle
 10
571121.1171601911
 20
785813.619227816
 30
10.163324892024798
 40
0.25
  0
LINE
  5
CC
330
17
100
AcDbEntity
  8
B42
100
AcDbLine
 10
571151.7246119353
 20
785673.7720326486
 30
19.619476558524696
 11
571194.575960963
 21
785661.8131128247
 31
20.60648730643007
  0
TEXT
  5
CD
330
17
100
AcDbEntity
  8
B42
100
AcDbText
 10
571173.1502864491
 20
785667.7925727366
 30
20.112981932477382
 40
0.5
  1
B42-406
 72
1
 11
571173.1502864491
 21
785667.7925727366
 31
20.112981932477382
100
AcDbText
 73
2
  0
TEXT
  5
CE
330
17
100
AcDbEntity
  8
0
100
AcDbText
 10
571152.2060904335
 20
785673.6376620188
 30
19.630566628344223
 40
0.5
  1
16.686
 11
571152.2060904335
 21
785673.6376620188
 31
19.630566628344223
100
AcDbText
 73
1
  0
CIRCLE
  5
CF
330
17
100
AcDbEntity
  8
B42
100
AcDbCircle
 10
571152.2060904335
 20
785673.6376620188
 30
19.630566628344223
 40
0.25
  0
LINE
  5
D0
330
17
100
AcDbEntity
  8
B42
100
AcDbLine
 10
571150.8179503044
 20
785670.8066042933
 30
19.694933588972198
 11
571193.7426580577
 21
785658.8272115752
 31
20.66848732554381
  0
TEXT
  5
D1
330
17
100
AcDbEntity
  8
B42
100
AcDbText
 10
571172.280304181
 20
785664.8169079343
 30
20.181710457258006
 40
0.5
  1
B42-405
 72
1
 11
571172.280304181
 21
785664.8169079343
 31
20.181710457258006
100
AcDbText
 73
2
  0
TEXT
  5
D2
330
17
100
AcDbEntity
  8
0
100
AcDbText
 10
571151.2994324035
 20
785670.6722326585
 30
19.70585384262754
 40
0.5
  1
16.761
 11
571151.2994324035
 21
785670.6722326585
 31
19.70585384262754
100
AcDbText
 73
1
  0
CIRCLE
  5
D3
330
17
100
AcDbEntity
  8
B42
100
AcDbCircle
 10
571151.2994324035
 20
785670.6722326585
 30
19.70585384262754
 40
0.25
  0
LINE
  5
D4
330
17
100
AcDbEntity
  8
B42
100
AcDbLine
 10
571195.0575579385
 20
785661.6787091297
 30
20.613353840446244
 11
571237.9196887694
 21
785649.7167803287
 31
20.846049640694833
  0
TEXT
  5
D5
330
17
100
AcDbEntity
  8
B42
100
AcDbText
 10
571216.4886233539
 20
785655.6977447292
 30
20.72970174057054
 40
0.5
  1
B42-408
 72
1
 11
571216.4886233539
 21
785655.6977447292
 31
20.72970174057054
100
AcDbText
 73
2
  0
TEXT
  5
D6
330
17
100
AcDbEntity
  8
0
100
AcDbText
 10
571194.8167627428
 20
785661.7459100581
 30
20.612046578542127
 40
0.5
  1
17.667
 72
1
 11
571194.8167627428
 21
785661.7459100581
 31
20.612046578542127
100
AcDbText
 73
1
  0
CIRCLE
  5
D7
330
17
100
AcDbEntity
  8
B42
100
AcDbCircle
 10
571194.8167627428
 20
785661.7459100581
 30
20.612046578542127
 40
0.25
  0
LINE
  5
D8
330
17
100
AcDbEntity
  8
B42
100
AcDbLine
 10
571194.2242550332
 20
785658.6928078808
 30
20.675353827872524
 11
571237.0863858642
 21
785646.7308790797
 31
20.908049622210157
  0
TEXT
  5
D9
330
17
100
AcDbEntity
  8
B42
100
AcDbText
 10
571215.6553204487
 20
785652.7118434802
 30
20.791701725041342
 40
0.5
  1
B42-407
 72
1
 11
571215.6553204487
 21
785652.7118434802
 31
20.791701725041342
100
AcDbText
 73
2
  0
TEXT
  5
DA
330
17
100
AcDbEntity
  8
0
100
AcDbText
 10
571193.9834598375
 20
785658.7600088093
 30
20.674046566001614
 40
0.5
  1
17.729
 72
1
 11
571193.9834598375
 21
785658.7600088093
 31
20.674046566001614
100
AcDbText
 73
1
  0
CIRCLE
  5
DB
330
17
100
AcDbEntity
  8
B42
100
AcDbCircle
 10
571193.9834598375
 20
785658.7600088093
 30
20.674046566001614
 40
0.25
  0
LINE
  5
DC
330
17
100
AcDbEntity
  8
B42
100
AcDbLine
 10
571238.4012857449
 20
785649.5823766344
 30
20.84441223091441
 11
571281.2482455102
 21
785637.6246817617
 31
20.404276243282794
  0
TEXT
  5
DD
330
17
100
AcDbEntity
  8
B42
100
AcDbText
 10
571259.8247656275
 20
785643.6035291981
 30
20.624344237098605
 40
0.5
  1
B42-410
 72
1
 11
571259.8247656275
 21
785643.6035291981
 31
20.624344237098605
100
AcDbText
 73
2
  0
TEXT
  5
DE
330
17
100
AcDbEntity
  8
0
100
AcDbText
 10
571238.1604990427
 20
785649.6495751925
 30
20.846885659450553
 40
0.5
  1
17.902
 72
1
 11
571238.1604990427
 21
785649.6495751925
 31
20.846885659450553
100
AcDbText
 73
1
  0
CIRCLE
  5
DF
330
17
100
AcDbEntity
  8
B42
100
AcDbCircle
 10
571238.1604990427
 20
785649.6495751925
 30
20.846885659450553
 40
0.25
  0
TEXT
  5
E0
330
17
100
AcDbEntity
  8
0
100
AcDbText
 10
571280.7666721058
 20
785637.7590788779
 30
20.409223100355074
 40
0.5
  1
17.464
 72
2
 11
571280.7666721058
 21
785637.7590788779
 31
20.409223100355074
100
AcDbText
 73
1
  0
CIRCLE
  5
E1
330
17
100
AcDbEntity
  8
B42
100
AcDbCircle
 10
571280.7666721058
 20
785637.7590788779
 30
20.409223100355074
 40
0.25
  0
LINE
  5
E2
330
17
100
AcDbEntity
  8
B42
100
AcDbLine
 10
571237.5679828397
 20
785646.5964753855
 30
20.906412237167622
 11
571280.6099476316
 21
785634.5843586685
 31
20.464480782275785
  0
TEXT
  5
E3
330
17
100
AcDbEntity
  8
B42
100
AcDbText
 10
571259.0889652356
 20
785640.590417027
 30
20.685446509721704
 40
0.5
  1
B42-409
 72
1
 11
571259.0889652356
 21
785640.590417027
 31
20.685446509721704
100
AcDbText
 73
2
  0
TEXT
  5
E4
330
17
100
AcDbEntity
  8
0
100
AcDbText
 10
571237.3271961265
 20
785646.6636739466
 30
20.908884504012715
 40
0.5
  1
17.964
 72
1
 11
571237.3271961265
 21
785646.6636739466
 31
20.908884504012715
100
AcDbText
 73
1
  0
CIRCLE
  5
E5
330
17
100
AcDbEntity
  8
B42
100
AcDbCircle
 10
571237.3271961265
 20
785646.6636739466
 30
20.908884504012715
 40
0.25
  0
TEXT
  5
E6
330
17
100
AcDbEntity
  8
0
100
AcDbText
 10
571280.1283742051
 20
785634.7187557908
 30
20.46942531596597
 40
0.5
  1
17.524
 72
2
 11
571280.1283742051
 21
785634.7187557908
 31
20.46942531596597
100
AcDbText
 73
1
  0
CIRCLE
  5
E7
330
17
100
AcDbEntity
  8
B42
100
AcDbCircle
 10
571280.1283742051
 20
785634.7187557908
 30
20.46942531596597
 40
0.25
  0
LINE
  5
E9
330
17
100
AcDbEntity
  8
B51
100
AcDbLine
 10
571278.7714859331
 20
785623.2966011759
 30
18.690556556252044
 11
571317.2270927355
 21
785614.4150638162
 31
19.794202263180992
  0
TEXT
  5
EA
330
17
100
AcDbEntity
  8
B51
100
AcDbText
 10
571297.9992893343
 20
785618.8558324961
 30
19.24237940971652
 40
0.5
  1
B51-510
 72
1
 11
571297.9992893343
 21
785618.8558324961
 31
19.24237940971652
100
AcDbText
 73
2
  0
TEXT
  5
EB
330
17
100
AcDbEntity
  8
0
100
AcDbText
 10
571279.2584712727
 20
785623.1841291895
 30
18.704532652953578
 40
0.5
  1
15.760
 11
571279.2584712727
 21
785623.1841291895
 31
18.704532652953578
100
AcDbText
 73
1
  0
CIRCLE
  5
EC
330
17
100
AcDbEntity
  8
B51
100
AcDbCircle
 10
571279.2584712727
 20
785623.1841291895
 30
18.704532652953578
 40
0.25
  0
LINE
  5
ED
330
17
100
AcDbEntity
  8
B51
100
AcDbLine
 10
571278.341721988
 20
785621.2495612431
 30
18.648730724321418
 11
571316.7533011483
 21
785612.3249168828
 31
19.75133558480466
  0
TEXT
  5
EE
330
17
100
AcDbEntity
  8
B51
100
AcDbText
 10
571297.5475115682
 20
785616.787239063
 30
19.200033154563037
 40
0.5
  1
B51-509
 72
1
 11
571297.5475115682
 21
785616.787239063
 31
19.200033154563037
100
AcDbText
 73
2
  0
TEXT
  5
EF
330
17
100
AcDbEntity
  8
0
100
AcDbText
 10
571278.828558895
 20
785621.1364483134
 30
18.66270538382892
 40
0.5
  1
15.718
 11
571278.828558895
 21
785621.1364483134
 31
18.66270538382892
100
AcDbText
 73
1
  0
CIRCLE
  5
F0
330
17
100
AcDbEntity
  8
B51
100
AcDbCircle
 10
571278.828558895
 20
785621.1364483134
 30
18.66270538382892
 40
0.25
  0
LINE
  5
F1
330
17
100
AcDbEntity
  8
B51
100
AcDbLine
 10
571277.9119580432
 20
785619.2025213101
 30
18.606904657965796
 11
571316.2795012463
 21
785610.2347332686
 31
19.70846814077918
  0
TEXT
  5
F2
330
17
100
AcDbEntity
  8
B51
100
AcDbText
 10
571297.0957296448
 20
785614.7186272894
 30
19.157686399372487
 40
0.5
  1
B51-508
 72
1
 11
571297.0957296448
 21
785614.7186272894
 31
19.157686399372487
100
AcDbText
 73
2
  0
TEXT
  5
F3
330
17
100
AcDbEntity
  8
0
100
AcDbText
 10
571278.3986453145
 20
785619.0887660908
 30
18.620877846783415
 40
0.5
  1
15.676
 11
571278.3986453145
 21
785619.0887660908
 31
18.620877846783415
100
AcDbText
 73
1
  0
CIRCLE
  5
F4
330
17
100
AcDbEntity
  8
B51
100
AcDbCircle
 10
571278.3986453145
 20
785619.0887660908
 30
18.620877846783415
 40
0.25
  0
LINE
  5
F5
330
17
100
AcDbEntity
  8
B51
100
AcDbLine
 10
571277.4821940982
 20
785617.1554813774
 30
18.56507848745302
 11
571315.8056929993
 21
785608.1445128407
 31
19.665599515507935
  0
TEXT
  5
F6
330
17
100
AcDbEntity
  8
B51
100
AcDbText
 10
571296.6439435487
 20
785612.6499971091
 30
19.11533900148048
 40
0.5
  1
B51-507
 72
1
 11
571296.6439435487
 21
785612.6499971091
 31
19.11533900148048
100
AcDbText
 73
2
  0
TEXT
  5
F7
330
17
100
AcDbEntity
  8
0
100
AcDbText
 10
571277.9687305243
 20
785617.0410825214
 30
18.579050164968795
 40
0.5
  1
15.634
 11
571277.9687305243
 21
785617.0410825214
 31
18.579050164968795
100
AcDbText
 73
1
  0
CIRCLE
  5
F8
330
17
100
AcDbEntity
  8
B51
100
AcDbCircle
 10
571277.9687305243
 20
785617.0410825214
 30
18.579050164968795
 40
0.25
  0
LINE
  5
F9
330
17
100
AcDbEntity
  8
B51
100
AcDbLine
 10
571317.7142724571
 20
785614.3025469362
 30
19.808609169820787
 11
571356.1745465179
 21
785605.4199316469
 31
20.991753969009725
  0
TEXT
  5
FA
330
17
100
AcDbEntity
  8
B51
100
AcDbText
 10
571336.9444094875
 20
785609.8612392915
 30
20.400181569415256
 40
0.5
  1
B51-514
 72
1
 11
571336.9444094875
 21
785609.8612392915
 31
20.400181569415256
100
AcDbText
 73
2
  0
TEXT
  5
FB
330
17
100
AcDbEntity
  8
0
100
AcDbText
 10
571317.4707939571
 20
785614.3587796568
 30
19.801119095246168
 40
0.5
  1
16.856
 72
1
 11
571317.4707939571
 21
785614.3587796568
 31
19.801119095246168
100
AcDbText
 73
1
  0
CIRCLE
  5
FC
330
17
100
AcDbEntity
  8
B51
100
AcDbCircle
 10
571317.4707939571
 20
785614.3587796568
 30
19.801119095246168
 40
0.25
  0
LINE
  5
FD
330
17
100
AcDbEntity
  8
B51
100
AcDbLine
 10
571317.2403353663
 20
785612.211758109
 30
19.765741572079357
 11
571355.6548479322
 21
785603.286432194
 31
20.947831035509626
  0
TEXT
  5
FE
330
17
100
AcDbEntity
  8
B51
100
AcDbText
 10
571336.4475916493
 20
785607.7490951516
 30
20.356786303794493
 40
0.5
  1
B51-513
 72
1
 11
571336.4475916493
 21
785607.7490951516
 31
20.356786303794493
100
AcDbText
 73
2
  0
TEXT
  5
FF
330
17
100
AcDbEntity
  8
0
100
AcDbText
 10
571316.9969310965
 20
785612.2683112784
 30
19.758251548036498
 40
0.5
  1
16.813
 72
1
 11
571316.9969310965
 21
785612.2683112784
 31
19.758251548036498
100
AcDbText
 73
1
  0
CIRCLE
  5
100
330
17
100
AcDbEntity
  8
B51
100
AcDbCircle
 10
571316.9969310965
 20
785612.2683112784
 30
19.758251548036498
 40
0.25
  0
LINE
  5
101
330
17
100
AcDbEntity
  8
B51
100
AcDbLine
 10
571316.7663896086
 20
785610.1209310478
 30
19.722873613511357
 11
571355.1351322733
 21
785601.1528626516
 31
20.903906142477023
  0
TEXT
  5
102
330
17
100
AcDbEntity
  8
B51
100
AcDbText
 10
571335.950760941
 20
785605.6368968497
 30
20.31338987799419
 40
0.5
  1
B51-512
 72
1
 11
571335.950760941
 21
785605.6368968497
 31
20.31338987799419
100
AcDbText
 73
2
  0
TEXT
  5
103
330
17
100
AcDbEntity
  8
0
100
AcDbText
 10
571316.5230601701
 20
785610.1778053391
 30
19.715383663042775
 40
0.5
  1
16.770
 72
1
 11
571316.5230601701
 21
785610.1778053391
 31
19.715383663042775
100
AcDbText
 73
1
  0
CIRCLE
  5
104
330
17
100
AcDbEntity
  8
B51
100
AcDbCircle
 10
571316.5230601701
 20
785610.1778053391
 30
19.715383663042775
 40
0.25
  0
LINE
  5
105
330
17
100
AcDbEntity
  8
B51
100
AcDbLine
 10
571316.2924351522
 20
785608.030065612
 30
19.680004544716812
 11
571354.6153994801
 21
785599.019222769
 31
20.859980060105777
  0
TEXT
  5
106
330
17
100
AcDbEntity
  8
B51
100
AcDbText
 10
571335.4539173162
 20
785603.5246441904
 30
20.269992302411296
 40
0.5
  1
B51-511
 72
1
 11
571335.4539173162
 21
785603.5246441904
 31
20.269992302411296
100
AcDbText
 73
2
  0
TEXT
  5
107
330
17
100
AcDbEntity
  8
0
100
AcDbText
 10
571316.0491811499
 20
785608.0872616987
 30
19.672514681347693
 40
0.5
  1
16.728
 72
1
 11
571316.0491811499
 21
785608.0872616987
 31
19.672514681347693
100
AcDbText
 73
1
  0
CIRCLE
  5
108
330
17
100
AcDbEntity
  8
B51
100
AcDbCircle
 10
571316.0491811499
 20
785608.0872616987
 30
19.672514681347693
 40
0.25
  0
LINE
  5
109
330
17
100
AcDbEntity
  8
B51
100
AcDbLine
 10
571356.6617570652
 20
785605.3074076474
 30
21.007320202594048
 11
571395.106164853
 21
785596.4284567625
 31
22.281050505989228
  0
TEXT
  5
10A
330
17
100
AcDbEntity
  8
B51
100
AcDbText
 10
571375.883960959
 20
785600.8679322049
 30
21.644185354291636
 40
0.5
  1
B51-518
 72
1
 11
571375.883960959
 21
785600.8679322049
 31
21.644185354291636
100
AcDbText
 73
2
  0
TEXT
  5
10B
330
17
100
AcDbEntity
  8
0
100
AcDbText
 10
571356.4182960415
 20
785605.3636363317
 30
20.999253914117226
 40
0.5
  1
18.054
 72
1
 11
571356.4182960415
 21
785605.3636363317
 31
20.999253914117226
100
AcDbText
 73
1
  0
CIRCLE
  5
10C
330
17
100
AcDbEntity
  8
B51
100
AcDbCircle
 10
571356.4182960415
 20
785605.3636363317
 30
20.999253914117226
 40
0.25
  0
TEXT
  5
10D
330
17
100
AcDbEntity
  8
0
100
AcDbText
 10
571394.6192428056
 20
785596.5409141312
 30
22.264917929035583
 40
0.5
  1
19.320
 72
2
 11
571394.6192428056
 21
785596.5409141312
 31
22.264917929035583
100
AcDbText
 73
1
  0
CIRCLE
  5
10E
330
17
100
AcDbEntity
  8
B51
100
AcDbCircle
 10
571394.6192428056
 20
785596.5409141312
 30
22.264917929035583
 40
0.25
  0
LINE
  5
10F
330
17
100
AcDbEntity
  8
B51
100
AcDbLine
 10
571356.1419026923
 20
785603.1732686476
 30
20.963397754676325
 11
571394.5062569686
 21
785594.2595966375
 31
22.234938077660196
  0
TEXT
  5
110
330
17
100
AcDbEntity
  8
B51
100
AcDbText
 10
571375.3240798304
 20
785598.7164326425
 30
21.599167916168263
 40
0.5
  1
B51-517
 72
1
 11
571375.3240798304
 21
785598.7164326425
 31
21.599167916168263
100
AcDbText
 73
2
  0
TEXT
  5
111
330
17
100
AcDbEntity
  8
0
100
AcDbText
 10
571355.8985159097
 20
785603.229817754
 30
20.95533099286229
 40
0.5
  1
18.010
 72
1
 11
571355.8985159097
 21
785603.229817754
 31
20.95533099286229
100
AcDbText
 73
1
  0
CIRCLE
  5
112
330
17
100
AcDbEntity
  8
B51
100
AcDbCircle
 10
571355.8985159097
 20
785603.229817754
 30
20.95533099286229
 40
0.25
  0
TEXT
  5
113
330
17
100
AcDbEntity
  8
0
100
AcDbText
 10
571394.0194834035
 20
785594.3726948502
 30
22.218804554032122
 40
0.5
  1
19.274
 72
2
 11
571394.0194834035
 21
785594.3726948502
 31
22.218804554032122
100
AcDbText
 73
1
  0
CIRCLE
  5
114
330
17
100
AcDbEntity
  8
B51
100
AcDbCircle
 10
571394.0194834035
 20
785594.3726948502
 30
22.218804554032122
 40
0.25
  0
LINE
  5
115
330
17
100
AcDbEntity
  8
B51
100
AcDbLine
 10
571355.6220308758
 20
785601.0390580369
 30
20.91947381849192
 11
571393.9012987576
 21
785592.0919029134
 31
22.188651164462968
  0
TEXT
  5
116
330
17
100
AcDbEntity
  8
B51
100
AcDbText
 10
571374.7616648166
 20
785596.5654804751
 30
21.554062491477445
 40
0.5
  1
B51-516
 72
1
 11
571374.7616648166
 21
785596.5654804751
 31
21.554062491477445
100
AcDbText
 73
2
  0
TEXT
  5
117
330
17
100
AcDbEntity
  8
0
100
AcDbText
 10
571355.3787189347
 20
785601.0959282385
 30
20.911406631716716
 40
0.5
  1
17.966
 72
1
 11
571355.3787189347
 21
785601.0959282385
 31
20.911406631716716
100
AcDbText
 73
1
  0
CIRCLE
  5
118
330
17
100
AcDbEntity
  8
B51
100
AcDbCircle
 10
571355.3787189347
 20
785601.0959282385
 30
20.911406631716716
 40
0.25
  0
TEXT
  5
119
330
17
100
AcDbEntity
  8
0
100
AcDbText
 10
571393.4146748754
 20
785592.2056433165
 30
22.17251679091256
 40
0.5
  1
19.228
 72
2
 11
571393.4146748754
 21
785592.2056433165
 31
22.17251679091256
100
AcDbText
 73
1
  0
CIRCLE
  5
11A
330
17
100
AcDbEntity
  8
B51
100
AcDbCircle
 10
571393.4146748754
 20
785592.2056433165
 30
22.17251679091256
 40
0.25
  0
LINE
  5
11B
330
17
100
AcDbEntity
  8
B51
100
AcDbLine
 10
571355.1021415531
 20
785598.9047755596
 30
20.875548410138673
 11
571393.2963405466
 21
785589.9242091895
 31
22.142361314049236
  0
TEXT
  5
11C
330
17
100
AcDbEntity
  8
B51
100
AcDbText
 10
571374.1992410498
 20
785594.4144923745
 30
21.508954862093955
 40
0.5
  1
B51-515
 72
1
 11
571374.1992410498
 21
785594.4144923745
 31
21.508954862093955
100
AcDbText
 73
2
  0
TEXT
  5
11D
330
17
100
AcDbEntity
  8
0
100
AcDbText
 10
571354.858905058
 20
785598.9619675297
 30
20.867480820326286
 40
0.5
  1
17.922
 72
1
 11
571354.858905058
 21
785598.9619675297
 31
20.867480820326286
100
AcDbText
 73
1
  0
CIRCLE
  5
11E
330
17
100
AcDbEntity
  8
B51
100
AcDbCircle
 10
571354.858905058
 20
785598.9619675297
 30
20.867480820326286
 40
0.25
  0
TEXT
  5
11F
330
17
100
AcDbEntity
  8
0
100
AcDbText
 10
571392.8098675563
 20
785590.0385931297
 30
22.126226134424456
 40
0.5
  1
19.181
 72
2
 11
571392.8098675563
 21
785590.0385931297
 31
22.126226134424456
100
AcDbText
 73
1
  0
CIRCLE
  5
120
330
17
100
AcDbEntity
  8
B51
100
AcDbCircle
 10
571392.8098675563
 20
785590.0385931297
 30
22.126226134424456
 40
0.25
  0
LINE
  5
122
330
17
100
AcDbEntity
  8
B52
100
AcDbLine
 10
571281.791879127
 20
785637.6832558814
 30
20.39575074879161
 11
571320.0606368015
 21
785626.9153352435
 31
20.352512053027883
  0
TEXT
  5
123
330
17
100
AcDbEntity
  8
B52
100
AcDbText
 10
571300.9262579642
 20
785632.2992955624
 30
20.374131400909747
 40
0.5
  1
B52-413
 72
1
 11
571300.9262579642
 21
785632.2992955624
 31
20.374131400909747
100
AcDbText
 73
2
  0
TEXT
  5
124
330
17
100
AcDbEntity
  8
0
100
AcDbText
 10
571282.273188468
 20
785637.54782685
 30
20.39520693212686
 40
0.5
  1
17.450
 11
571282.273188468
 21
785637.54782685
 31
20.39520693212686
100
AcDbText
 73
1
  0
CIRCLE
  5
125
330
17
100
AcDbEntity
  8
B52
100
AcDbCircle
 10
571282.273188468
 20
785637.54782685
 30
20.39520693212686
 40
0.25
  0
LINE
  5
126
330
17
100
AcDbEntity
  8
B52
100
AcDbLine
 10
571281.1717590946
 20
785634.7295170071
 30
20.454278624265616
 11
571319.4887224359
 21
785624.3923164957
 31
20.405014701514208
  0
TEXT
  5
127
330
17
100
AcDbEntity
  8
B52
100
AcDbText
 10
571300.3302407652
 20
785629.5609167514
 30
20.429646662889912
 40
0.5
  1
B52-412
 72
1
 11
571300.3302407652
 21
785629.5609167514
 31
20.429646662889912
100
AcDbText
 73
2
  0
TEXT
  5
128
330
17
100
AcDbEntity
  8
0
100
AcDbText
 10
571281.6544998214
 20
785634.5992825822
 30
20.453657966995276
 40
0.5
  1
17.509
 11
571281.6544998214
 21
785634.5992825822
 31
20.453657966995276
100
AcDbText
 73
1
  0
CIRCLE
  5
129
330
17
100
AcDbEntity
  8
B52
100
AcDbCircle
 10
571281.6544998214
 20
785634.5992825822
 30
20.453657966995276
 40
0.25
  0
LINE
  5
12A
330
17
100
AcDbEntity
  8
B52
100
AcDbLine
 10
571280.5516390612
 20
785631.775778133
 30
20.512821315924207
 11
571318.9167874285
 21
785621.8692066853
 31
20.4575254130376
  0
TEXT
  5
12B
330
17
100
AcDbEntity
  8
B52
100
AcDbText
 10
571299.7342132449
 20
785626.8224924091
 30
20.485173364480904
 40
0.5
  1
B52-411
 72
1
 11
571299.7342132449
 21
785626.8224924091
 31
20.485173364480904
100
AcDbText
 73
2
  0
TEXT
  5
12C
330
17
100
AcDbEntity
  8
0
100
AcDbText
 10
571281.0357592698
 20
785631.6507695864
 30
20.51212355076021
 40
0.5
  1
17.567
 11
571281.0357592698
 21
785631.6507695864
 31
20.51212355076021
100
AcDbText
 73
1
  0
CIRCLE
  5
12D
330
17
100
AcDbEntity
  8
B52
100
AcDbCircle
 10
571281.0357592698
 20
785631.6507695864
 30
20.51212355076021
 40
0.25
  0
LINE
  5
12E
330
17
100
AcDbEntity
  8
B52
100
AcDbLine
 10
571279.9315190278
 20
785628.8220392588
 30
20.466608845814623
 11
571318.3448317104
 21
785619.3460055088
 31
20.44871149593539
  0
TEXT
  5
12F
330
17
100
AcDbEntity
  8
B52
100
AcDbText
 10
571299.1381753691
 20
785624.0840223838
 30
20.45766017087501
 40
0.5
  1
B52-217
 72
1
 11
571299.1381753691
 21
785624.0840223838
 31
20.45766017087501
100
AcDbText
 73
2
  0
TEXT
  5
130
330
17
100
AcDbEntity
  8
0
100
AcDbText
 10
571280.4169663783
 20
785628.7022861014
 30
20.466382668469482
 40
0.5
  1
17.521
 11
571280.4169663783
 21
785628.7022861014
 31
20.466382668469482
100
AcDbText
 73
1
  0
CIRCLE
  5
131
330
17
100
AcDbEntity
  8
B52
100
AcDbCircle
 10
571280.4169663783
 20
785628.7022861014
 30
20.466382668469482
 40
0.25
  0
LINE
  5
132
330
17
100
AcDbEntity
  8
B52
100
AcDbLine
 10
571279.3113989945
 20
785625.8683003847
 30
20.526929986237658
 11
571317.7728552127
 21
785616.8227126622
 31
20.500456736919205
  0
TEXT
  5
133
330
17
100
AcDbEntity
  8
B52
100
AcDbText
 10
571298.5421271035
 20
785621.3455065235
 30
20.51369336157843
 40
0.5
  1
B52-216
 72
1
 11
571298.5421271035
 21
785621.3455065235
 31
20.51369336157843
100
AcDbText
 73
2
  0
TEXT
  5
134
330
17
100
AcDbEntity
  8
0
100
AcDbText
 10
571279.7981192227
 20
785625.7538307065
 30
20.52659497380662
 40
0.5
  1
17.582
 11
571279.7981192227
 21
785625.7538307065
 31
20.52659497380662
100
AcDbText
 73
1
  0
CIRCLE
  5
135
330
17
100
AcDbEntity
  8
B52
100
AcDbCircle
 10
571279.7981192227
 20
785625.7538307065
 30
20.52659497380662
 40
0.25
  0
LINE
  5
136
330
17
100
AcDbEntity
  8
B52
100
AcDbLine
 10
571320.5425822561
 20
785626.7797272248
 30
20.35581185310791
 11
571358.758256952
 21
785616.0267428776
 31
20.921884884697697
  0
TEXT
  5
137
330
17
100
AcDbEntity
  8
B52
100
AcDbText
 10
571339.650419604
 20
785621.4032350512
 30
20.638848368902803
 40
0.5
  1
B52-416
 72
1
 11
571339.650419604
 21
785621.4032350512
 31
20.638848368902803
100
AcDbText
 73
2
  0
TEXT
  5
138
330
17
100
AcDbEntity
  8
0
100
AcDbText
 10
571320.3019519041
 20
785626.8474348979
 30
20.35224749492263
 40
0.5
  1
17.407
 72
1
 11
571320.3019519041
 21
785626.8474348979
 31
20.35224749492263
100
AcDbText
 73
1
  0
CIRCLE
  5
139
330
17
100
AcDbEntity
  8
B52
100
AcDbCircle
 10
571320.3019519041
 20
785626.8474348979
 30
20.35224749492263
 40
0.25
  0
LINE
  5
13A
330
17
100
AcDbEntity
  8
B52
100
AcDbLine
 10
571319.9718616032
 20
785624.261974579
 30
20.408229123719366
 11
571358.2488649187
 21
785613.935554536
 31
20.966466297271136
  0
TEXT
  5
13B
330
17
100
AcDbEntity
  8
B52
100
AcDbText
 10
571339.110363261
 20
785619.0987645575
 30
20.687347710495253
 40
0.5
  1
B52-415
 72
1
 11
571339.110363261
 21
785619.0987645575
 31
20.687347710495253
100
AcDbText
 73
2
  0
TEXT
  5
13C
330
17
100
AcDbEntity
  8
0
100
AcDbText
 10
571319.7305149782
 20
785624.3270853873
 30
20.404709290761314
 40
0.5
  1
17.460
 72
1
 11
571319.7305149782
 21
785624.3270853873
 31
20.404709290761314
100
AcDbText
 73
1
  0
CIRCLE
  5
13D
330
17
100
AcDbEntity
  8
B52
100
AcDbCircle
 10
571319.7305149782
 20
785624.3270853873
 30
20.404709290761314
 40
0.25
  0
LINE
  5
13E
330
17
100
AcDbEntity
  8
B52
100
AcDbLine
 10
571319.4011229536
 20
785621.7441425401
 30
20.460654130318286
 11
571357.739501472
 21
785611.8444835491
 31
21.01104728270642
  0
TEXT
  5
13F
330
17
100
AcDbEntity
  8
B52
100
AcDbText
 10
571338.5703122128
 20
785616.7943130446
 30
20.735850706512352
 40
0.5
  1
B52-414
 72
1
 11
571338.5703122128
 21
785616.7943130446
 31
20.735850706512352
100
AcDbText
 73
2
  0
TEXT
  5
140
330
17
100
AcDbEntity
  8
0
100
AcDbText
 10
571319.1590859953
 20
785621.8066408368
 30
20.457179401088155
 40
0.5
  1
17.512
 72
1
 11
571319.1590859953
 21
785621.8066408368
 31
20.457179401088155
100
AcDbText
 73
1
  0
CIRCLE
  5
141
330
17
100
AcDbEntity
  8
B52
100
AcDbCircle
 10
571319.1590859953
 20
785621.8066408368
 30
20.457179401088155
 40
0.25
  0
LINE
  5
142
330
17
100
AcDbEntity
  8
B52
100
AcDbLine
 10
571318.8303662476
 20
785619.2262308439
 30
20.452228341871024
 11
571357.2301667221
 21
785609.7535303689
 31
21.02655418726187
  0
TEXT
  5
143
330
17
100
AcDbEntity
  8
B52
100
AcDbText
 10
571338.0302664848
 20
785614.4898806064
 30
20.739391264566446
 40
0.5
  1
B52-219
 72
1
 11
571338.0302664848
 21
785614.4898806064
 31
20.739391264566446
100
AcDbText
 73
2
  0
TEXT
  5
144
330
17
100
AcDbEntity
  8
0
100
AcDbText
 10
571318.5876681342
 20
785619.2861011168
 30
20.448598432409156
 40
0.5
  1
17.504
 72
1
 11
571318.5876681342
 21
785619.2861011168
 31
20.448598432409156
100
AcDbText
 73
1
  0
CIRCLE
  5
145
330
17
100
AcDbEntity
  8
B52
100
AcDbCircle
 10
571318.5876681342
 20
785619.2861011168
 30
20.448598432409156
 40
0.25
  0
LINE
  5
146
330
17
100
AcDbEntity
  8
B52
100
AcDbLine
 10
571318.2595914246
 20
785616.7082392246
 30
20.50386839534763
 11
571356.7208607788
 21
785607.66269545
 31
21.06959014480118
  0
TEXT
  5
147
330
17
100
AcDbEntity
  8
B52
100
AcDbText
 10
571337.4902261017
 20
785612.1854673373
 30
20.786729270074403
 40
0.5
  1
B52-218
 72
1
 11
571337.4902261017
 21
785612.1854673373
 31
20.786729270074403
100
AcDbText
 73
2
  0
TEXT
  5
148
330
17
100
AcDbEntity
  8
0
100
AcDbText
 10
571318.0162561978
 20
785616.7654682107
 30
20.50028920951976
 40
0.5
  1
17.555
 72
1
 11
571318.0162561978
 21
785616.7654682107
 31
20.50028920951976
100
AcDbText
 73
1
  0
CIRCLE
  5
149
330
17
100
AcDbEntity
  8
B52
100
AcDbCircle
 10
571318.0162561978
 20
785616.7654682107
 30
20.50028920951976
 40
0.25
  0
LINE
  5
14A
330
17
100
AcDbEntity
  8
B52
100
AcDbLine
 10
571359.2398674283
 20
785615.891229114
 30
20.93285511564141
 11
571397.5359473653
 21
785605.1156206395
 31
22.104896249915992
  0
TEXT
  5
14B
330
17
100
AcDbEntity
  8
B52
100
AcDbText
 10
571378.3879073968
 20
785610.5034248768
 30
21.5188756827787
 40
0.5
  1
B52-419
 72
1
 11
571378.3879073968
 21
785610.5034248768
 31
21.5188756827787
100
AcDbText
 73
2
  0
TEXT
  5
14C
330
17
100
AcDbEntity
  8
0
100
AcDbText
 10
571358.9993169836
 20
785615.9589143031
 30
20.925493134559858
 40
0.5
  1
17.980
 72
1
 11
571358.9993169836
 21
785615.9589143031
 31
20.925493134559858
100
AcDbText
 73
1
  0
CIRCLE
  5
14D
330
17
100
AcDbEntity
  8
B52
100
AcDbCircle
 10
571358.9993169836
 20
785615.9589143031
 30
20.925493134559858
 40
0.25
  0
TEXT
  5
14E
330
17
100
AcDbEntity
  8
0
100
AcDbText
 10
571397.0548464761
 20
785605.2509910176
 30
22.09017228775289
 40
0.5
  1
19.145
 72
2
 11
571397.0548464761
 21
785605.2509910176
 31
22.09017228775289
100
AcDbText
 73
1
  0
CIRCLE
  5
14F
330
17
100
AcDbEntity
  8
B52
100
AcDbCircle
 10
571397.0548464761
 20
785605.2509910176
 30
22.09017228775289
 40
0.25
  0
LINE
  5
150
330
17
100
AcDbEntity
  8
B52
100
AcDbLine
 10
571358.7317517844
 20
785613.8052806854
 30
20.977338596962426
 11
571397.0742319556
 21
785603.4611962105
 31
22.139249368106963
  0
TEXT
  5
151
330
17
100
AcDbEntity
  8
B52
100
AcDbText
 10
571377.90299187
 20
785608.633238448
 30
21.558293982534693
 40
0.5
  1
B52-418
 72
1
 11
571377.90299187
 21
785608.633238448
 31
21.558293982534693
100
AcDbText
 73
2
  0
TEXT
  5
152
330
17
100
AcDbEntity
  8
0
100
AcDbText
 10
571358.4904844754
 20
785613.8703700958
 30
20.970027356691066
 40
0.5
  1
18.025
 72
1
 11
571358.4904844754
 21
785613.8703700958
 31
20.970027356691066
100
AcDbText
 73
1
  0
CIRCLE
  5
153
330
17
100
AcDbEntity
  8
B52
100
AcDbCircle
 10
571358.4904844754
 20
785613.8703700958
 30
20.970027356691066
 40
0.25
  0
TEXT
  5
154
330
17
100
AcDbEntity
  8
0
100
AcDbText
 10
571396.5916973375
 20
785603.5913750312
 30
22.124626887564244
 40
0.5
  1
19.180
 72
2
 11
571396.5916973375
 21
785603.5913750312
 31
22.124626887564244
100
AcDbText
 73
1
  0
CIRCLE
  5
155
330
17
100
AcDbEntity
  8
B52
100
AcDbCircle
 10
571396.5916973375
 20
785603.5913750312
 30
22.124626887564244
 40
0.25
  0
LINE
  5
156
330
17
100
AcDbEntity
  8
B52
100
AcDbLine
 10
571358.2236679983
 20
785611.7194630424
 30
21.02182124374028
 11
571396.6125165191
 21
785601.8067717887
 31
22.17360225043961
  0
TEXT
  5
157
330
17
100
AcDbEntity
  8
B52
100
AcDbText
 10
571377.4180922587
 20
785606.7631174156
 30
21.597711747089946
 40
0.5
  1
B52-417
 72
1
 11
571377.4180922587
 21
785606.7631174156
 31
21.597711747089946
100
AcDbText
 73
2
  0
TEXT
  5
158
330
17
100
AcDbEntity
  8
0
100
AcDbText
 10
571357.9817097324
 20
785611.7819410192
 30
21.014561767465704
 40
0.5
  1
18.070
 72
1
 11
571357.9817097324
 21
785611.7819410192
 31
21.014561767465704
100
AcDbText
 73
1
  0
CIRCLE
  5
159
330
17
100
AcDbEntity
  8
B52
100
AcDbCircle
 10
571357.9817097324
 20
785611.7819410192
 30
21.014561767465704
 40
0.25
  0
TEXT
  5
15A
330
17
100
AcDbEntity
  8
0
100
AcDbText
 10
571396.1285999874
 20
785601.9317277423
 30
22.159083297890458
 40
0.5
  1
19.214
 72
2
 11
571396.1285999874
 21
785601.9317277423
 31
22.159083297890458
100
AcDbText
 73
1
  0
CIRCLE
  5
15B
330
17
100
AcDbEntity
  8
B52
100
AcDbCircle
 10
571396.1285999874
 20
785601.9317277423
 30
22.159083297890458
 40
0.25
  0
LINE
  5
15C
330
17
100
AcDbEntity
  8
B52
100
AcDbLine
 10
571357.7156161933
 20
785609.6337766885
 30
21.03756001008576
 11
571396.1508010826
 21
785600.1523473671
 31
22.199718176280207
  0
TEXT
  5
15D
330
17
100
AcDbEntity
  8
B52
100
AcDbText
 10
571376.9332086379
 20
785604.8930620279
 30
21.618639093182985
 40
0.5
  1
B52-221
 72
1
 11
571376.9332086379
 21
785604.8930620279
 31
21.618639093182985
100
AcDbText
 73
2
  0
TEXT
  5
15E
330
17
100
AcDbEntity
  8
0
100
AcDbText
 10
571357.4729970178
 20
785609.6936274885
 30
21.030223975228232
 40
0.5
  1
18.085
 72
1
 11
571357.4729970178
 21
785609.6936274885
 31
21.030223975228232
100
AcDbText
 73
1
  0
CIRCLE
  5
15F
330
17
100
AcDbEntity
  8
B52
100
AcDbCircle
 10
571357.4729970178
 20
785609.6936274885
 30
21.030223975228232
 40
0.25
  0
TEXT
  5
160
330
17
100
AcDbEntity
  8
0
100
AcDbText
 10
571395.6655627316
 20
785600.2720489672
 30
22.185046106565153
 40
0.5
  1
19.240
 72
2
 11
571395.6655627316
 21
785600.2720489672
 31
22.185046106565153
100
AcDbText
 73
1
  0
CIRCLE
  5
161
330
17
100
AcDbEntity
  8
B52
100
AcDbCircle
 10
571395.6655627316
 20
785600.2720489672
 30
22.185046106565153
 40
0.25
  0
LINE
  5
162
330
17
100
AcDbEntity
  8
B52
100
AcDbLine
 10
571357.2075964917
 20
785607.5482221299
 30
21.080496565667836
 11
571395.6890856461
 21
785598.4979229454
 31
22.233025322320373
  0
TEXT
  5
163
330
17
100
AcDbEntity
  8
B52
100
AcDbText
 10
571376.4483410688
 20
785603.0230725377
 30
21.656760943994104
 40
0.5
  1
B52-220
 72
1
 11
571376.4483410688
 21
785603.0230725377
 31
21.656760943994104
100
AcDbText
 73
2
  0
TEXT
  5
164
330
17
100
AcDbEntity
  8
0
100
AcDbText
 10
571356.9643396852
 20
785607.6054326727
 30
21.073210972750832
 40
0.5
  1
18.128
 72
1
 11
571356.9643396852
 21
785607.6054326727
 31
21.073210972750832
100
AcDbText
 73
1
  0
CIRCLE
  5
165
330
17
100
AcDbEntity
  8
B52
100
AcDbCircle
 10
571356.9643396852
 20
785607.6054326727
 30
21.073210972750832
 40
0.25
  0
TEXT
  5
166
330
17
100
AcDbEntity
  8
0
100
AcDbText
 10
571395.2025720329
 20
785598.6123440308
 30
22.21845413648636
 40
0.5
  1
19.273
 72
2
 11
571395.2025720329
 21
785598.6123440308
 31
22.21845413648636
100
AcDbText
 73
1
  0
CIRCLE
  5
167
330
17
100
AcDbEntity
  8
B52
100
AcDbCircle
 10
571395.2025720329
 20
785598.6123440308
 30
22.21845413648636
 40
0.25
  0
LINE
  5
169
330
17
100
AcDbEntity
  8
S12
100
AcDbLine
 10
570940.3300143183
 20
785573.8231123599
 30
12.982521996094915
 11
570964.2950629187
 21
785602.4470342497
 31
13.007641716214557
  0
TEXT
  5
16A
330
17
100
AcDbEntity
  8
S12
100
AcDbText
 10
570952.3125386186
 20
785588.1350733048
 30
12.995081856154737
 40
0.5
  1
S12-103
 72
1
 11
570952.3125386186
 21
785588.1350733048
 31
12.995081856154737
100
AcDbText
 73
2
  0
TEXT
  5
16B
330
17
100
AcDbEntity
  8
0
100
AcDbText
 10
570940.3300143183
 20
785573.8231123599
 30
12.982521996094915
 40
0.5
  1
10.038
 11
570940.3300143183
 21
785573.8231123599
 31
12.982521996094915
100
AcDbText
 73
1
  0
CIRCLE
  5
16C
330
17
100
AcDbEntity
  8
S12
100
AcDbCircle
 10
570940.3300143183
 20
785573.8231123599
 30
12.982521996094915
 40
0.25
  0
TEXT
  5
16D
330
17
100
AcDbEntity
  8
0
100
AcDbText
 10
570964.2950629187
 20
785602.4470342497
 30
13.007641716214557
 40
0.5
  1
10.063
 11
570964.2950629187
 21
785602.4470342497
 31
13.007641716214557
100
AcDbText
 73
1
  0
CIRCLE
  5
16E
330
17
100
AcDbEntity
  8
S12
100
AcDbCircle
 10
570964.2950629187
 20
785602.4470342497
 30
13.007641716214557
 40
0.25
  0
LINE
  5
16F
330
17
100
AcDbEntity
  8
S12
100
AcDbLine
 10
570964.2950629187
 20
785602.4470342497
 30
13.007641716214557
 11
571020.1596707215
 21
785645.8657801439
 31
12.25945041410113
  0
TEXT
  5
170
330
17
100
AcDbEntity
  8
S12
100
AcDbText
 10
570992.2273668201
 20
785624.1564071968
 30
12.633546065157844
 40
0.5
  1
S12-104
 72
1
 11
570992.2273668201
 21
785624.1564071968
 31
12.633546065157844
100
AcDbText
 73
2
  0
TEXT
  5
171
330
17
100
AcDbEntity
  8
0
100
AcDbText
 10
571020.1596707215
 20
785645.8657801439
 30
12.25945041410113
 40
0.5
  1
9.314
 72
2
 11
571020.1596707215
 21
785645.8657801439
 31
12.25945041410113
100
AcDbText
 73
1
  0
CIRCLE
  5
172
330
17
100
AcDbEntity
  8
S12
100
AcDbCircle
 10
571020.1596707215
 20
785645.8657801439
 30
12.25945041410113
 40
0.25
  0
LINE
  5
173
330
17
100
AcDbEntity
  8
S12
100
AcDbLine
 10
571020.1596707215
 20
785645.8657801439
 30
12.25945041410113
 11
571064.5373164072
 21
785653.9523075214
 31
12.624009999850855
  0
TEXT
  5
174
330
17
100
AcDbEntity
  8
S12
100
AcDbText
 10
571042.3484935644
 20
785649.9090438327
 30
12.441730206975993
 40
0.5
  1
S12-105
 72
1
 11
571042.3484935644
 21
785649.9090438327
 31
12.441730206975993
100
AcDbText
 73
2
  0
TEXT
  5
175
330
17
100
AcDbEntity
  8
0
100
AcDbText
 10
571064.5373164072
 20
785653.9523075214
 30
12.624009999850855
 40
0.5
  1
9.679
 72
2
 11
571064.5373164072
 21
785653.9523075214
 31
12.624009999850855
100
AcDbText
 73
1
  0
CIRCLE
  5
176
330
17
100
AcDbEntity
  8
S12
100
AcDbCircle
 10
571064.5373164072
 20
785653.9523075214
 30
12.624009999850855
 40
0.25
  0
LINE
  5
177
330
17
100
AcDbEntity
  8
S12
100
AcDbLine
 10
571064.5373164072
 20
785653.9523075214
 30
12.624009999850855
 11
571104.16859802
 21
785650.1372124241
 31
13.655006861264225
  0
TEXT
  5
178
330
17
100
AcDbEntity
  8
S12
100
AcDbText
 10
571084.3529572136
 20
785652.0447599727
 30
13.139508430557541
 40
0.5
  1
S12-106
 72
1
 11
571084.3529572136
 21
785652.0447599727
 31
13.139508430557541
100
AcDbText
 73
2
  0
TEXT
  5
179
330
17
100
AcDbEntity
  8
0
100
AcDbText
 10
571104.16859802
 20
785650.1372124241
 30
13.655006861264225
 40
0.5
  1
10.710
 72
2
 11
571104.16859802
 21
785650.1372124241
 31
13.655006861264225
100
AcDbText
 73
1
  0
CIRCLE
  5
17A
330
17
100
AcDbEntity
  8
S12
100
AcDbCircle
 10
571104.16859802
 20
785650.1372124241
 30
13.655006861264225
 40
0.25
  0
LINE
  5
17C
330
17
100
AcDbEntity
  8
S22
100
AcDbLine
 10
570935.4444145585
 20
785577.8006637405
 30
14.453339714969646
 11
570958.9940809689
 21
785606.7265522901
 31
16.69134350684838
  0
TEXT
  5
17D
330
17
100
AcDbEntity
  8
S22
100
AcDbText
 10
570947.2192477636
 20
785592.2636080153
 30
15.572341610909014
 40
0.5
  1
S22-203
 72
1
 11
570947.2192477636
 21
785592.2636080153
 31
15.572341610909014
100
AcDbText
 73
2
  0
TEXT
  5
17E
330
17
100
AcDbEntity
  8
0
100
AcDbText
 10
570935.4444145585
 20
785577.8006637405
 30
14.453339714969646
 40
0.5
  1
11.508
 11
570935.4444145585
 21
785577.8006637405
 31
14.453339714969646
100
AcDbText
 73
1
  0
CIRCLE
  5
17F
330
17
100
AcDbEntity
  8
S22
100
AcDbCircle
 10
570935.4444145585
 20
785577.8006637405
 30
14.453339714969646
 40
0.25
  0
TEXT
  5
180
330
17
100
AcDbEntity
  8
0
100
AcDbText
 10
570958.9940809689
 20
785606.7265522901
 30
16.69134350684838
 40
0.5
  1
13.746
 11
570958.9940809689
 21
785606.7265522901
 31
16.69134350684838
100
AcDbText
 73
1
  0
CIRCLE
  5
181
330
17
100
AcDbEntity
  8
S22
100
AcDbCircle
 10
570958.9940809689
 20
785606.7265522901
 30
16.69134350684838
 40
0.25
  0
LINE
  5
182
330
17
100
AcDbEntity
  8
S22
100
AcDbLine
 10
570958.9940809689
 20
785606.7265522901
 30
16.69134350684838
 11
570992.6878449508
 21
785643.1841813195
 31
19.629102144162125
  0
TEXT
  5
183
330
17
100
AcDbEntity
  8
S22
100
AcDbText
 10
570975.8409629599
 20
785624.9553668048
 30
18.16022282550525
 40
0.5
  1
S22-204
 72
1
 11
570975.8409629599
 21
785624.9553668048
 31
18.16022282550525
100
AcDbText
 73
2
  0
TEXT
  5
184
330
17
100
AcDbEntity
  8
0
100
AcDbText
 10
570992.6878449508
 20
785643.1841813195
 30
19.629102144162125
 40
0.5
  1
16.684
 72
2
 11
570992.6878449508
 21
785643.1841813195
 31
19.629102144162125
100
AcDbText
 73
1
  0
CIRCLE
  5
185
330
17
100
AcDbEntity
  8
S22
100
AcDbCircle
 10
570992.6878449508
 20
785643.1841813195
 30
19.629102144162125
 40
0.25
  0
LINE
  5
186
330
17
100
AcDbEntity
  8
S22
100
AcDbLine
 10
570992.6878449508
 20
785643.1841813195
 30
19.629102144162125
 11
571036.6760437861
 21
785666.4470227521
 31
22.016062832120962
  0
TEXT
  5
187
330
17
100
AcDbEntity
  8
S22
100
AcDbText
 10
571014.6819443684
 20
785654.8156020358
 30
20.822582488141542
 40
0.5
  1
S22-205
 72
1
 11
571014.6819443684
 21
785654.8156020358
 31
20.822582488141542
100
AcDbText
 73
2
  0
TEXT
  5
188
330
17
100
AcDbEntity
  8
0
100
AcDbText
 10
571036.6760437861
 20
785666.4470227521
 30
22.016062832120962
 40
0.5
  1
19.071
 72
2
 11
571036.6760437861
 21
785666.4470227521
 31
22.016062832120962
100
AcDbText
 73
1
  0
CIRCLE
  5
189
330
17
100
AcDbEntity
  8
S22
100
AcDbCircle
 10
571036.6760437861
 20
785666.4470227521
 30
22.016062832120962
 40
0.25
  0
LINE
  5
18A
330
17
100
AcDbEntity
  8
S22
100
AcDbLine
 10
571036.6760437861
 20
785666.4470227521
 30
22.016062832120962
 11
571078.7336721321
 21
785668.5192518455
 31
22.946863675262634
  0
TEXT
  5
18B
330
17
100
AcDbEntity
  8
S22
100
AcDbText
 10
571057.7048579592
 20
785667.4831372988
 30
22.481463253691796
 40
0.5
  1
S22-206
 72
1
 11
571057.7048579592
 21
785667.4831372988
 31
22.481463253691796
100
AcDbText
 73
2
  0
TEXT
  5
18C
330
17
100
AcDbEntity
  8
0
100
AcDbText
 10
571078.7336721321
 20
785668.5192518455
 30
22.946863675262634
 40
0.5
  1
20.002
 72
2
 11
571078.7336721321
 21
785668.5192518455
 31
22.946863675262634
100
AcDbText
 73
1
  0
CIRCLE
  5
18D
330
17
100
AcDbEntity
  8
S22
100
AcDbCircle
 10
571078.7336721321
 20
785668.5192518455
 30
22.946863675262634
 40
0.25
  0
LINE
  5
18E
330
17
100
AcDbEntity
  8
S22
100
AcDbLine
 10
571078.7336721321
 20
785668.5192518455
 30
22.946863675262634
 11
571117.284199557
 21
785661.8442031133
 31
22.864400906177043
  0
TEXT
  5
18F
330
17
100
AcDbEntity
  8
S22
100
AcDbText
 10
571098.0089358445
 20
785665.1817274794
 30
22.905632290719836
 40
0.5
  1
S22-207
 72
1
 11
571098.0089358445
 21
785665.1817274794
 31
22.905632290719836
100
AcDbText
 73
2
  0
TEXT
  5
190
330
17
100
AcDbEntity
  8
0
100
AcDbText
 10
571117.284199557
 20
785661.8442031133
 30
22.864400906177043
 40
0.5
  1
19.919
 72
2
 11
571117.284199557
 21
785661.8442031133
 31
22.864400906177043
100
AcDbText
 73
1
  0
CIRCLE
  5
191
330
17
100
AcDbEntity
  8
S22
100
AcDbCircle
 10
571117.284199557
 20
785661.8442031133
 30
22.864400906177043
 40
0.25
  0
LINE
  5
193
330
17
100
AcDbEntity
  8
S32
100
AcDbLine
 10
571071.991603959
 20
785705.8032946852
 30
12.54689317053625
 11
571078.6084126163
 21
785752.9631529247
 31
12.292334200491313
  0
TEXT
  5
194
330
17
100
AcDbEntity
  8
S32
100
AcDbText
 10
571075.3000082877
 20
785729.3832238049
 30
12.41961368551378
 40
0.5
  1
S32-301
 72
1
 11
571075.3000082877
 21
785729.3832238049
 31
12.41961368551378
100
AcDbText
 73
2
  0
TEXT
  5
195
330
17
100
AcDbEntity
  8
0
100
AcDbText
 10
571071.991603959
 20
785705.8032946852
 30
12.54689317053625
 40
0.5
  1
9.602
 11
571071.991603959
 21
785705.8032946852
 31
12.54689317053625
100
AcDbText
 73
1
  0
CIRCLE
  5
196
330
17
100
AcDbEntity
  8
S32
100
AcDbCircle
 10
571071.991603959
 20
785705.8032946852
 30
12.54689317053625
 40
0.25
  0
TEXT
  5
197
330
17
100
AcDbEntity
  8
0
100
AcDbText
 10
571078.6084126163
 20
785752.9631529247
 30
12.292334200491313
 40
0.5
  1
9.347
 11
571078.6084126163
 21
785752.9631529247
 31
12.292334200491313
100
AcDbText
 73
1
  0
CIRCLE
  5
198
330
17
100
AcDbEntity
  8
S32
100
AcDbCircle
 10
571078.6084126163
 20
785752.9631529247
 30
12.292334200491313
 40
0.25
  0
LINE
  5
199
330
17
100
AcDbEntity
  8
S32
100
AcDbLine
 10
571071.991603959
 20
785705.8032946852
 30
12.54689317053625
 11
571085.5651557941
 21
785677.2179786401
 31
12.936142736528813
  0
TEXT
  5
19A
330
17
100
AcDbEntity
  8
S32
100
AcDbText
 10
571078.7783798766
 20
785691.5106366626
 30
12.741517953532531
 40
0.5
  1
S32-302
 72
1
 11
571078.7783798766
 21
785691.5106366626
 31
12.741517953532531
100
AcDbText
 73
2
  0
TEXT
  5
19B
330
17
100
AcDbEntity
  8
0
100
AcDbText
 10
571085.5651557941
 20
785677.2179786401
 30
12.936142736528813
 40
0.5
  1
9.991
 72
2
 11
571085.5651557941
 21
785677.2179786401
 31
12.936142736528813
100
AcDbText
 73
1
  0
CIRCLE
  5
19C
330
17
100
AcDbEntity
  8
S32
100
AcDbCircle
 10
571085.5651557941
 20
785677.2179786401
 30
12.936142736528813
 40
0.25
  0
LINE
  5
19D
330
17
100
AcDbEntity
  8
S32
100
AcDbLine
 10
571078.6084126163
 20
785752.9631529247
 30
12.292334200491313
 11
571097.0805154293
 21
785781.378087077
 31
11.72726785900448
  0
TEXT
  5
19E
330
17
100
AcDbEntity
  8
S32
100
AcDbText
 10
571087.8444640228
 20
785767.1706200009
 30
12.009801029747896
 40
0.5
  1
S32-303
 72
1
 11
571087.8444640228
 21
785767.1706200009
 31
12.009801029747896
100
AcDbText
 73
2
  0
TEXT
  5
19F
330
17
100
AcDbEntity
  8
0
100
AcDbText
 10
571097.0805154293
 20
785781.378087077
 30
11.72726785900448
 40
0.5
  1
8.782
 72
2
 11
571097.0805154293
 21
785781.378087077
 31
11.72726785900448
100
AcDbText
 73
1
  0
CIRCLE
  5
1A0
330
17
100
AcDbEntity
  8
S32
100
AcDbCircle
 10
571097.0805154293
 20
785781.378087077
 30
11.72726785900448
 40
0.25
  0
LINE
  5
1A1
330
17
100
AcDbEntity
  8
S32
100
AcDbLine
 10
571085.5651557941
 20
785677.2179786401
 30
12.936142736528813
 11
571107.3519339125
 21
785659.2752278221
 31
13.692635334509808
  0
TEXT
  5
1A2
330
17
100
AcDbEntity
  8
S32
100
AcDbText
 10
571096.4585448533
 20
785668.2466032312
 30
13.31438903551931
 40
0.5
  1
S32-304
 72
1
 11
571096.4585448533
 21
785668.2466032312
 31
13.31438903551931
100
AcDbText
 73
2
  0
TEXT
  5
1A3
330
17
100
AcDbEntity
  8
0
100
AcDbText
 10
571107.3519339125
 20
785659.2752278221
 30
13.692635334509808
 40
0.5
  1
10.748
 72
2
 11
571107.3519339125
 21
785659.2752278221
 31
13.692635334509808
100
AcDbText
 73
1
  0
CIRCLE
  5
1A4
330
17
100
AcDbEntity
  8
S32
100
AcDbCircle
 10
571107.3519339125
 20
785659.2752278221
 30
13.692635334509808
 40
0.25
  0
LINE
  5
1A6
330
17
100
AcDbEntity
  8
S41
100
AcDbLine
 10
571107.4403958296
 20
785782.8554026871
 30
12.254417235970456
 11
571127.1275514864
 21
785808.5712322232
 31
10.31480966353631
  0
TEXT
  5
1A7
330
17
100
AcDbEntity
  8
S41
100
AcDbText
 10
571117.283973658
 20
785795.7133174551
 30
11.284613449753383
 40
0.5
  1
S41-403
 72
1
 11
571117.283973658
 21
785795.7133174551
 31
11.284613449753383
100
AcDbText
 73
2
  0
TEXT
  5
1A8
330
17
100
AcDbEntity
  8
0
100
AcDbText
 10
571107.4403958296
 20
785782.8554026871
 30
12.254417235970456
 40
0.5
  1
9.309
 11
571107.4403958296
 21
785782.8554026871
 31
12.254417235970456
100
AcDbText
 73
1
  0
CIRCLE
  5
1A9
330
17
100
AcDbEntity
  8
S41
100
AcDbCircle
 10
571107.4403958296
 20
785782.8554026871
 30
12.254417235970456
 40
0.25
  0
TEXT
  5
1AA
330
17
100
AcDbEntity
  8
0
100
AcDbText
 10
571127.1275514864
 20
785808.5712322232
 30
10.31480966353631
 40
0.5
  1
7.370
 11
571127.1275514864
 21
785808.5712322232
 31
10.31480966353631
100
AcDbText
 73
1
  0
CIRCLE
  5
1AB
330
17
100
AcDbEntity
  8
S41
100
AcDbCircle
 10
571127.1275514864
 20
785808.5712322232
 30
10.31480966353631
 40
0.25
  0
LINE
  5
1AC
330
17
100
AcDbEntity
  8
S41
100
AcDbLine
 10
571092.6305128
 20
785728.7265712989
 30
15.666313269594632
 11
571107.4403958296
 21
785782.8554026871
 31
12.254417235970456
  0
TEXT
  5
1AD
330
17
100
AcDbEntity
  8
S41
100
AcDbText
 10
571100.0354543148
 20
785755.790986993
 30
13.960365252782545
 40
0.5
  1
S41-401
 72
1
 11
571100.0354543148
 21
785755.790986993
 31
13.960365252782545
100
AcDbText
 73
2
  0
TEXT
  5
1AE
330
17
100
AcDbEntity
  8
0
100
AcDbText
 10
571107.4403958296
 20
785782.8554026871
 30
12.254417235970456
 40
0.5
  1
9.309
 72
2
 11
571107.4403958296
 21
785782.8554026871
 31
12.254417235970456
100
AcDbText
 73
1
  0
CIRCLE
  5
1AF
330
17
100
AcDbEntity
  8
S41
100
AcDbCircle
 10
571107.4403958296
 20
785782.8554026871
 30
12.254417235970456
 40
0.25
  0
LINE
  5
1B0
330
17
100
AcDbEntity
  8
S41
100
AcDbLine
 10
571092.6305128
 20
785728.7265712989
 30
15.666313269594632
 11
571115.1729914247
 21
785690.4631699761
 31
18.104124496826167
  0
TEXT
  5
1B1
330
17
100
AcDbEntity
  8
S41
100
AcDbText
 10
571103.9017521123
 20
785709.5948706375
 30
16.8852188832104
 40
0.5
  1
S41-402
 72
1
 11
571103.9017521123
 21
785709.5948706375
 31
16.8852188832104
100
AcDbText
 73
2
  0
TEXT
  5
1B2
330
17
100
AcDbEntity
  8
0
100
AcDbText
 10
571115.1729914247
 20
785690.4631699761
 30
18.104124496826167
 40
0.5
  1
15.159
 72
2
 11
571115.1729914247
 21
785690.4631699761
 31
18.104124496826167
100
AcDbText
 73
1
  0
CIRCLE
  5
1B3
330
17
100
AcDbEntity
  8
S41
100
AcDbCircle
 10
571115.1729914247
 20
785690.4631699761
 30
18.104124496826167
 40
0.25
  0
LINE
  5
1B4
330
17
100
AcDbEntity
  8
S41
100
AcDbLine
 10
571115.1729914247
 20
785690.4631699761
 30
18.104124496826167
 11
571150.4419389258
 21
785672.8755053947
 31
19.620301554038647
  0
TEXT
  5
1B5
330
17
100
AcDbEntity
  8
S41
100
AcDbText
 10
571132.8074651752
 20
785681.6693376855
 30
18.862213025432407
 40
0.5
  1
S41-404
 72
1
 11
571132.8074651752
 21
785681.6693376855
 31
18.862213025432407
100
AcDbText
 73
2
  0
TEXT
  5
1B6
330
17
100
AcDbEntity
  8
0
100
AcDbText
 10
571150.4419389258
 20
785672.8755053947
 30
19.620301554038647
 40
0.5
  1
16.675
 72
2
 11
571150.4419389258
 21
785672.8755053947
 31
19.620301554038647
100
AcDbText
 73
1
  0
CIRCLE
  5
1B7
330
17
100
AcDbEntity
  8
S41
100
AcDbCircle
 10
571150.4419389258
 20
785672.8755053947
 30
19.620301554038647
 40
0.25
  0
ENDSEC
  0
SECTION
  2
OBJECTS
  0
DICTIONARY
  5
A
330
0
100
AcDbDictionary
280
0
281
1
  3
ACAD_COLOR
350
B
  3
ACAD_GROUP
350
C
  3
ACAD_LAYOUT
350
D
  3
ACAD_MATERIAL
350
E
  3
ACAD_MLEADERSTYLE
350
F
  3
ACAD_MLINESTYLE
350
10
  3
ACAD_PLOTSETTINGS
350
11
  3
ACAD_PLOTSTYLENAME
350
12
  3
ACAD_SCALELIST
350
14
  3
ACAD_TABLESTYLE
350
15
  3
ACAD_VISUALSTYLE
350
16
  3
EZDXF_META
350
2D
  0
DICTIONARY
  5
B
330
A
100
AcDbDictionary
280
0
281
1
  0
DICTIONARY
  5
C
330
A
100
AcDbDictionary
280
0
281
1
  0
DICTIONARY
  5
D
330
A
100
AcDbDictionary
280
0
281
1
  3
Model
350
1A
  3
Layout1
350
1E
  0
DICTIONARY
  5
E
330
A
100
AcDbDictionary
280
0
281
1
  3
ByBlock
350
1F
  3
ByLayer
350
20
  3
Global
350
21
  0
DICTIONARY
  5
F
330
A
100
AcDbDictionary
280
0
281
1
  3
Standard
350
2C
  0
DICTIONARY
  5
10
330
A
100
AcDbDictionary
280
0
281
1
  3
Standard
350
22
  0
DICTIONARY
  5
11
330
A
100
AcDbDictionary
280
0
281
1
  0
ACDBDICTIONARYWDFLT
  5
12
330
A
100
AcDbDictionary
280
0
281
1
  3
Normal
350
13
100
AcDbDictionaryWithDefault
340
13
  0
ACDBPLACEHOLDER
  5
13
330
12
  0
DICTIONARY
  5
14
330
A
100
AcDbDictionary
280
0
281
1
  0
DICTIONARY
  5
15
330
A
100
AcDbDictionary
280
0
281
1
  0
DICTIONARY
  5
16
330
A
100
AcDbDictionary
280
0
281
1
  0
LAYOUT
  5
1A
330
D
100
AcDbPlotSettings
  1

  2
Adobe PDF
  4
A3
  6

 40
7.5
 41
20.0
 42
7.5
 43
20.0
 44
420.0
 45
297.0
 46
0.0
 47
0.0
 48
0.0
 49
0.0
140
0.0
141
0.0
142
1.0
143
1.0
 70
1024
 72
1
 73
0
 74
5
  7

 75
16
 76
0
 77
2
 78
300
147
1.0
148
0.0
149
0.0
100
AcDbLayout
  1
Model
 70
1
 71
0
 10
0.0
 20
0.0
 11
420.0
 21
297.0
 12
0.0
 22
0.0
 32
0.0
 14
1e+20
 24
1e+20
 34
1e+20
 15
-1e+20
 25
-1e+20
 35
-1e+20
146
0.0
 13
0.0
 23
0.0
 33
0.0
 16
1.0
 26
0.0
 36
0.0
 17
0.0
 27
1.0
 37
0.0
 76
1
330
17
  0
LAYOUT
  5
1E
330
D
100
AcDbPlotSettings
  1

  2
Adobe PDF
  4
A3
  6

 40
7.5
 41
20.0
 42
7.5
 43
20.0
 44
420.0
 45
297.0
 46
0.0
 47
0.0
 48
0.0
 49
0.0
140
0.0
141
0.0
142
1.0
143
1.0
 70
0
 72
1
 73
0
 74
5
  7

 75
16
 76
0
 77
2
 78
300
147
1.0
148
0.0
149
0.0
100
AcDbLayout
  1
Layout1
 70
1
 71
1
 10
0.0
 20
0.0
 11
420.0
 21
297.0
 12
0.0
 22
0.0
 32
0.0
 14
1e+20
 24
1e+20
 34
1e+20
 15
-1e+20
 25
-1e+20
 35
-1e+20
146
0.0
 13
0.0
 23
0.0
 33
0.0
 16
1.0
 26
0.0
 36
0.0
 17
0.0
 27
1.0
 37
0.0
 76
1
330
1B
  0
MATERIAL
  5
1F
102
{ACAD_REACTORS
330
E
102
}
330
E
100
AcDbMaterial
  1
ByBlock
  2

 70
0
 40
1.0
 71
1
 41
1.0
 91
-1023410177
 42
1.0
 72
1
  3

 73
1
 74
1
 75
1
 44
0.5
 73
0
 45
1.0
 46
1.0
 77
1
  4

 78
1
 79
1
170
1
 48
1.0
171
1
  6

172
1
173
1
174
1
140
1.0
141
1.0
175
1
  7

176
1
177
1
178
1
143
1.0
179
1
  8

270
1
271
1
272
1
145
1.0
146
1.0
273
1
  9

274
1
275
1
276
1
 42
1.0
 72
1
  3

 73
1
 74
1
 75
1
 94
63
  0
MATERIAL
  5
20
102
{ACAD_REACTORS
330
E
102
}
330
E
100
AcDbMaterial
  1
ByLayer
  2

 70
0
 40
1.0
 71
1
 41
1.0
 91
-1023410177
 42
1.0
 72
1
  3

 73
1
 74
1
 75
1
 44
0.5
 73
0
 45
1.0
 46
1.0
 77
1
  4

 78
1
 79
1
170
1
 48
1.0
171
1
  6

172
1
173
1
174
1
140
1.0
141
1.0
175
1
  7

176
1
177
1
178
1
143
1.0
179
1
  8

270
1
271
1
272
1
145
1.0
146
1.0
273
1
  9

274
1
275
1
276
1
 42
1.0
 72
1
  3

 73
1
 74
1
 75
1
 94
63
  0
MATERIAL
  5
21
102
{ACAD_REACTORS
330
E
102
}
330
E
100
AcDbMaterial
  1
Global
  2

 70
0
 40
1.0
 71
1
 41
1.0
 91
-1023410177
 42
1.0
 72
1
  3

 73
1
 74
1
 75
1
 44
0.5
 73
0
 45
1.0
 46
1.0
 77
1
  4

 78
1
 79
1
170
1
 48
1.0
171
1
  6

172
1
173
1
174
1
140
1.0
141
1.0
175
1
  7

176
1
177
1
178
1
143
1.0
179
1
  8

270
1
271
1
272
1
145
1.0
146
1.0
273
1
  9

274
1
275
1
276
1
 42
1.0
 72
1
  3

 73
1
 74
1
 75
1
 94
63
  0
MLINESTYLE
  5
22
102
{ACAD_REACTORS
330
10
102
}
330
10
100
AcDbMlineStyle
  2
Standard
 70
0
  3

 62
256
 51
90.0
 52
90.0
 71
2
 49
0.5
 62
256
  6
BYLAYER
 49
-0.5
 62
256
  6
BYLAYER
  0
MLEADERSTYLE
  5
2C
102
{ACAD_REACTORS
330
F
102
}
330
F
100
AcDbMLeaderStyle
179
2
170
2
171
1
172
0
 90
2
 40
0.0
 41
0.0
173
1
 91
-1056964608
 92
-2
290
1
 42
2.0
291
1
 43
8.0
  3
Standard
 44
4.0
300

342
29
174
1
175
1
176
0
178
1
 93
-1056964608
 45
4.0
292
0
297
0
 46
4.0
 94
-1056964608
 47
1.0
 49
1.0
140
1.0
294
1
141
0.0
177
0
142
1.0
295
0
296
0
143
3.75
271
0
272
9
273
9
  0
DICTIONARY
  5
2D
330
A
100
AcDbDictionary
281
1
  3
CREATED_BY_EZDXF
350
2E
  3
WRITTEN_BY_EZDXF
350
1BA
  0
DICTIONARYVAR
  5
2E
330
2D
100
DictionaryVariables
280
0
  1
1.1.0 @ 2024-01-18T08:00:41.605996+00:00
  0
DICTIONARYVAR
  5
1BA
330
2D
100
DictionaryVariables
280
0
  1
1.1.0 @ 2024-01-18T08:00:41.611996+00:00
  0
ENDSEC
  0
EOF
