  0
SECTION
  2
HEADER
  9
$ACADVER
  1
AC1027
  9
$ACADMAINTVER
 70
105
  9
$DWGCODEPAGE
  3
ANSI_1252
  9
$LASTSAVEDBY
  1
ezdxf
  9
$REQUIREDVERSIONS
160
0
  9
$INSBASE
 10
0.0
 20
0.0
 30
0.0
  9
$EXTMIN
 10
1e+20
 20
1e+20
 30
1e+20
  9
$EXTMAX
 10
-1e+20
 20
-1e+20
 30
-1e+20
  9
$LIMMIN
 10
0.0
 20
0.0
  9
$LIMMAX
 10
420.0
 20
297.0
  9
$ORTHOMODE
 70
0
  9
$REGENMODE
 70
1
  9
$FILLMODE
 70
1
  9
$QTEXTMODE
 70
0
  9
$MIRRTEXT
 70
1
  9
$LTSCALE
 40
1.0
  9
$ATTMODE
 70
1
  9
$TEXTSIZE
 40
2.5
  9
$TRACEWID
 40
1.0
  9
$TEXTSTYLE
  7
Standard
  9
$CLAYER
  8
0
  9
$CELTYPE
  6
ByLayer
  9
$CECOLOR
 62
256
  9
$CELTSCALE
 40
1.0
  9
$DISPSILH
 70
0
  9
$DIMSCALE
 40
1.0
  9
$DIMASZ
 40
2.5
  9
$DIMEXO
 40
0.625
  9
$DIMDLI
 40
3.75
  9
$DIMRND
 40
0.0
  9
$DIMDLE
 40
0.0
  9
$DIMEXE
 40
1.25
  9
$DIMTP
 40
0.0
  9
$DIMTM
 40
0.0
  9
$DIMTXT
 40
2.5
  9
$DIMCEN
 40
2.5
  9
$DIMTSZ
 40
0.0
  9
$DIMTOL
 70
0
  9
$DIMLIM
 70
0
  9
$DIMTIH
 70
0
  9
$DIMTOH
 70
0
  9
$DIMSE1
 70
0
  9
$DIMSE2
 70
0
  9
$DIMTAD
 70
1
  9
$DIMZIN
 70
8
  9
$DIMBLK
  1

  9
$DIMASO
 70
1
  9
$DIMSHO
 70
1
  9
$DIMPOST
  1

  9
$DIMAPOST
  1

  9
$DIMALT
 70
0
  9
$DIMALTD
 70
3
  9
$DIMALTF
 40
0.03937007874
  9
$DIMLFAC
 40
1.0
  9
$DIMTOFL
 70
1
  9
$DIMTVP
 40
0.0
  9
$DIMTIX
 70
0
  9
$DIMSOXD
 70
0
  9
$DIMSAH
 70
0
  9
$DIMBLK1
  1

  9
$DIMBLK2
  1

  9
$DIMSTYLE
  2
ISO-25
  9
$DIMCLRD
 70
0
  9
$DIMCLRE
 70
0
  9
$DIMCLRT
 70
0
  9
$DIMTFAC
 40
1.0
  9
$DIMGAP
 40
0.625
  9
$DIMJUST
 70
0
  9
$DIMSD1
 70
0
  9
$DIMSD2
 70
0
  9
$DIMTOLJ
 70
0
  9
$DIMTZIN
 70
8
  9
$DIMALTZ
 70
0
  9
$DIMALTTZ
 70
0
  9
$DIMUPT
 70
0
  9
$DIMDEC
 70
2
  9
$DIMTDEC
 70
2
  9
$DIMALTU
 70
2
  9
$DIMALTTD
 70
3
  9
$DIMTXSTY
  7
Standard
  9
$DIMAUNIT
 70
0
  9
$DIMADEC
 70
0
  9
$DIMALTRND
 40
0.0
  9
$DIMAZIN
 70
0
  9
$DIMDSEP
 70
44
  9
$DIMATFIT
 70
3
  9
$DIMFRAC
 70
0
  9
$DIMLDRBLK
  1

  9
$DIMLUNIT
 70
2
  9
$DIMLWD
 70
-2
  9
$DIMLWE
 70
-2
  9
$DIMTMOVE
 70
0
  9
$DIMFXL
 40
1.0
  9
$DIMFXLON
 70
0
  9
$DIMJOGANG
 40
0.785398163397
  9
$DIMTFILL
 70
0
  9
$DIMTFILLCLR
 70
0
  9
$DIMARCSYM
 70
0
  9
$DIMLTYPE
  6

  9
$DIMLTEX1
  6

  9
$DIMLTEX2
  6

  9
$DIMTXTDIRECTION
 70
0
  9
$LUNITS
 70
2
  9
$LUPREC
 70
4
  9
$SKETCHINC
 40
1.0
  9
$FILLETRAD
 40
10.0
  9
$AUNITS
 70
0
  9
$AUPREC
 70
2
  9
$MENU
  1
.
  9
$ELEVATION
 40
0.0
  9
$PELEVATION
 40
0.0
  9
$THICKNESS
 40
0.0
  9
$LIMCHECK
 70
0
  9
$CHAMFERA
 40
0.0
  9
$CHAMFERB
 40
0.0
  9
$CHAMFERC
 40
0.0
  9
$CHAMFERD
 40
0.0
  9
$SKPOLY
 70
0
  9
$TDCREATE
 40
2460304.6677662036
  9
$TDUCREATE
 40
2458532.153996898
  9
$TDUPDATE
 40
2460304.6677662036
  9
$TDUUPDATE
 40
2458532.1544311
  9
$TDINDWG
 40
0.0
  9
$TDUSRTIMER
 40
0.0
  9
$USRTIMER
 70
1
  9
$ANGBASE
 50
0.0
  9
$ANGDIR
 70
0
  9
$PDMODE
 70
0
  9
$PDSIZE
 40
0.0
  9
$PLINEWID
 40
0.0
  9
$SPLFRAME
 70
0
  9
$SPLINETYPE
 70
6
  9
$SPLINESEGS
 70
8
  9
$HANDSEED
  5
212
  9
$SURFTAB1
 70
6
  9
$SURFTAB2
 70
6
  9
$SURFTYPE
 70
6
  9
$SURFU
 70
6
  9
$SURFV
 70
6
  9
$UCSBASE
  2

  9
$UCSNAME
  2

  9
$UCSORG
 10
0.0
 20
0.0
 30
0.0
  9
$UCSXDIR
 10
1.0
 20
0.0
 30
0.0
  9
$UCSYDIR
 10
0.0
 20
1.0
 30
0.0
  9
$UCSORTHOREF
  2

  9
$UCSORTHOVIEW
 70
0
  9
$UCSORGTOP
 10
0.0
 20
0.0
 30
0.0
  9
$UCSORGBOTTOM
 10
0.0
 20
0.0
 30
0.0
  9
$UCSORGLEFT
 10
0.0
 20
0.0
 30
0.0
  9
$UCSORGRIGHT
 10
0.0
 20
0.0
 30
0.0
  9
$UCSORGFRONT
 10
0.0
 20
0.0
 30
0.0
  9
$UCSORGBACK
 10
0.0
 20
0.0
 30
0.0
  9
$PUCSBASE
  2

  9
$PUCSNAME
  2

  9
$PUCSORG
 10
0.0
 20
0.0
 30
0.0
  9
$PUCSXDIR
 10
1.0
 20
0.0
 30
0.0
  9
$PUCSYDIR
 10
0.0
 20
1.0
 30
0.0
  9
$PUCSORTHOREF
  2

  9
$PUCSORTHOVIEW
 70
0
  9
$PUCSORGTOP
 10
0.0
 20
0.0
 30
0.0
  9
$PUCSORGBOTTOM
 10
0.0
 20
0.0
 30
0.0
  9
$PUCSORGLEFT
 10
0.0
 20
0.0
 30
0.0
  9
$PUCSORGRIGHT
 10
0.0
 20
0.0
 30
0.0
  9
$PUCSORGFRONT
 10
0.0
 20
0.0
 30
0.0
  9
$PUCSORGBACK
 10
0.0
 20
0.0
 30
0.0
  9
$USERI1
 70
0
  9
$USERI2
 70
0
  9
$USERI3
 70
0
  9
$USERI4
 70
0
  9
$USERI5
 70
0
  9
$USERR1
 40
0.0
  9
$USERR2
 40
0.0
  9
$USERR3
 40
0.0
  9
$USERR4
 40
0.0
  9
$USERR5
 40
0.0
  9
$WORLDVIEW
 70
1
  9
$SHADEDGE
 70
3
  9
$SHADEDIF
 70
70
  9
$TILEMODE
 70
1
  9
$MAXACTVP
 70
64
  9
$PINSBASE
 10
0.0
 20
0.0
 30
0.0
  9
$PLIMCHECK
 70
0
  9
$PEXTMIN
 10
1e+20
 20
1e+20
 30
1e+20
  9
$PEXTMAX
 10
-1e+20
 20
-1e+20
 30
-1e+20
  9
$PLIMMIN
 10
0.0
 20
0.0
  9
$PLIMMAX
 10
420.0
 20
297.0
  9
$UNITMODE
 70
0
  9
$VISRETAIN
 70
1
  9
$PLINEGEN
 70
0
  9
$PSLTSCALE
 70
1
  9
$TREEDEPTH
 70
3020
  9
$CMLSTYLE
  2
Standard
  9
$CMLJUST
 70
0
  9
$CMLSCALE
 40
20.0
  9
$PROXYGRAPHICS
 70
1
  9
$MEASUREMENT
 70
1
  9
$CELWEIGHT
370
-1
  9
$ENDCAPS
280
0
  9
$JOINSTYLE
280
0
  9
$LWDISPLAY
290
0
  9
$INSUNITS
 70
6
  9
$HYPERLINKBASE
  1

  9
$STYLESHEET
  1

  9
$XEDIT
290
1
  9
$CEPSNTYPE
380
0
  9
$PSTYLEMODE
290
1
  9
$FINGERPRINTGUID
  2
{62E4DF35-1F12-474B-B0F0-433BC6AB55AA}
  9
$VERSIONGUID
  2
{AD655C27-2B8B-4917-AEBC-5CD5289738DD}
  9
$EXTNAMES
290
1
  9
$PSVPSCALE
 40
0.0
  9
$OLESTARTUP
290
0
  9
$SORTENTS
280
127
  9
$INDEXCTL
280
0
  9
$HIDETEXT
280
1
  9
$XCLIPFRAME
280
0
  9
$HALOGAP
280
0
  9
$OBSCOLOR
 70
257
  9
$OBSLTYPE
280
0
  9
$INTERSECTIONDISPLAY
280
0
  9
$INTERSECTIONCOLOR
 70
257
  9
$DIMASSOC
280
2
  9
$PROJECTNAME
  1

  9
$CAMERADISPLAY
290
0
  9
$LENSLENGTH
 40
50.0
  9
$CAMERAHEIGHT
 40
0.0
  9
$STEPSPERSEC
 40
24.0
  9
$STEPSIZE
 40
100.0
  9
$3DDWFPREC
 40
2.0
  9
$PSOLWIDTH
 40
0.005
  9
$PSOLHEIGHT
 40
0.08
  9
$LOFTANG1
 40
1.570796326795
  9
$LOFTANG2
 40
1.570796326795
  9
$LOFTMAG1
 40
0.0
  9
$LOFTMAG2
 40
0.0
  9
$LOFTPARAM
 70
7
  9
$LOFTNORMALS
280
1
  9
$LATITUDE
 40
37.795
  9
$LONGITUDE
 40
-122.394
  9
$NORTHDIRECTION
 40
0.0
  9
$TIMEZONE
 70
-8000
  9
$LIGHTGLYPHDISPLAY
280
1
  9
$TILEMODELIGHTSYNCH
280
1
  9
$CMATERIAL
347
20
  9
$SOLIDHIST
280
0
  9
$SHOWHIST
280
1
  9
$DWFFRAME
280
2
  9
$DGNFRAME
280
2
  9
$REALWORLDSCALE
290
1
  9
$INTERFERECOLOR
 62
256
  9
$CSHADOW
280
0
  9
$SHADOWPLANELOCATION
 40
0.0
  0
ENDSEC
  0
SECTION
  2
CLASSES
  0
CLASS
  1
ACDBDICTIONARYWDFLT
  2
AcDbDictionaryWithDefault
  3
ObjectDBX Classes
 90
0
 91
0
280
0
281
0
  0
CLASS
  1
SUN
  2
AcDbSun
  3
SCENEOE
 90
1153
 91
0
280
0
281
0
  0
CLASS
  1
VISUALSTYLE
  2
AcDbVisualStyle
  3
ObjectDBX Classes
 90
4095
 91
0
280
0
281
0
  0
CLASS
  1
MATERIAL
  2
AcDbMaterial
  3
ObjectDBX Classes
 90
1153
 91
0
280
0
281
0
  0
CLASS
  1
SCALE
  2
AcDbScale
  3
ObjectDBX Classes
 90
1153
 91
0
280
0
281
0
  0
CLASS
  1
TABLESTYLE
  2
AcDbTableStyle
  3
ObjectDBX Classes
 90
4095
 91
0
280
0
281
0
  0
CLASS
  1
MLEADERSTYLE
  2
AcDbMLeaderStyle
  3
ACDB_MLEADERSTYLE_CLASS
 90
4095
 91
0
280
0
281
0
  0
CLASS
  1
DICTIONARYVAR
  2
AcDbDictionaryVar
  3
ObjectDBX Classes
 90
0
 91
0
280
0
281
0
  0
CLASS
  1
CELLSTYLEMAP
  2
AcDbCellStyleMap
  3
ObjectDBX Classes
 90
1152
 91
0
280
0
281
0
  0
CLASS
  1
MENTALRAYRENDERSETTINGS
  2
AcDbMentalRayRenderSettings
  3
SCENEOE
 90
1024
 91
0
280
0
281
0
  0
CLASS
  1
ACDBDETAILVIEWSTYLE
  2
AcDbDetailViewStyle
  3
ObjectDBX Classes
 90
1025
 91
0
280
0
281
0
  0
CLASS
  1
ACDBSECTIONVIEWSTYLE
  2
AcDbSectionViewStyle
  3
ObjectDBX Classes
 90
1025
 91
0
280
0
281
0
  0
CLASS
  1
RASTERVARIABLES
  2
AcDbRasterVariables
  3
ISM
 90
0
 91
0
280
0
281
0
  0
CLASS
  1
LAYOUT
  2
AcDbLayout
  3
ObjectDBX Classes
 90
0
 91
0
280
0
281
0
  0
CLASS
  1
ACDBPLACEHOLDER
  2
AcDbPlaceHolder
  3
ObjectDBX Classes
 90
0
 91
0
280
0
281
0
  0
ENDSEC
  0
SECTION
  2
TABLES
  0
TABLE
  2
VPORT
  5
8
330
0
100
AcDbSymbolTable
 70
1
  0
VPORT
  5
23
330
8
100
AcDbSymbolTableRecord
100
AcDbViewportTableRecord
  2
*Active
 70
0
 10
0.0
 20
0.0
 11
1.0
 21
1.0
 12
0.0
 22
0.0
 13
0.0
 23
0.0
 14
0.5
 24
0.5
 15
0.5
 25
0.5
 16
0.0
 26
0.0
 36
1.0
 17
0.0
 27
0.0
 37
0.0
 40
1000.0
 41
1.34
 42
50.0
 43
0.0
 44
0.0
 50
0.0
 51
0.0
 71
0
 72
1000
 73
1
 74
3
 75
0
 76
0
 77
0
 78
0
281
0
 65
0
146
0.0
  0
ENDTAB
  0
TABLE
  2
LTYPE
  5
2
330
0
100
AcDbSymbolTable
 70
3
  0
LTYPE
  5
24
330
2
100
AcDbSymbolTableRecord
100
AcDbLinetypeTableRecord
  2
ByBlock
 70
0
  3

 72
65
 73
0
 40
0.0
  0
LTYPE
  5
25
330
2
100
AcDbSymbolTableRecord
100
AcDbLinetypeTableRecord
  2
ByLayer
 70
0
  3

 72
65
 73
0
 40
0.0
  0
LTYPE
  5
26
330
2
100
AcDbSymbolTableRecord
100
AcDbLinetypeTableRecord
  2
Continuous
 70
0
  3

 72
65
 73
0
 40
0.0
  0
ENDTAB
  0
TABLE
  2
LAYER
  5
1
330
0
100
AcDbSymbolTable
 70
4
  0
LAYER
  5
27
330
1
100
AcDbSymbolTableRecord
100
AcDbLayerTableRecord
  2
0
 70
0
 62
7
  6
Continuous
370
-3
390
13
347
21
  0
LAYER
  5
28
330
1
100
AcDbSymbolTableRecord
100
AcDbLayerTableRecord
  2
Defpoints
 70
0
 62
7
  6
Continuous
290
0
370
-3
390
13
347
21
  0
LAYER
  5
2F
330
1
100
AcDbSymbolTableRecord
100
AcDbLayerTableRecord
  2
桩基
 70
0
 62
50
  6
Continuous
370
-3
390
13
347
21
  0
LAYER
  5
30
330
1
100
AcDbSymbolTableRecord
100
AcDbLayerTableRecord
  2
承台
 70
0
 62
130
  6
Continuous
370
-3
390
13
347
21
  0
ENDTAB
  0
TABLE
  2
STYLE
  5
5
330
0
100
AcDbSymbolTable
 70
1
  0
STYLE
  5
29
330
5
100
AcDbSymbolTableRecord
100
AcDbTextStyleTableRecord
  2
Standard
 70
0
 40
0.0
 41
1.0
 50
0.0
 71
0
 42
2.5
  3
txt
  4

  0
ENDTAB
  0
TABLE
  2
VIEW
  5
7
330
0
100
AcDbSymbolTable
 70
0
  0
ENDTAB
  0
TABLE
  2
UCS
  5
6
330
0
100
AcDbSymbolTable
 70
0
  0
ENDTAB
  0
TABLE
  2
APPID
  5
3
330
0
100
AcDbSymbolTable
 70
3
  0
APPID
  5
2A
330
3
100
AcDbSymbolTableRecord
100
AcDbRegAppTableRecord
  2
ACAD
 70
0
  0
APPID
  5
20F
330
3
100
AcDbSymbolTableRecord
100
AcDbRegAppTableRecord
  2
HATCHBACKGROUNDCOLOR
 70
0
  0
APPID
  5
210
330
3
100
AcDbSymbolTableRecord
100
AcDbRegAppTableRecord
  2
EZDXF
 70
0
  0
ENDTAB
  0
TABLE
  2
DIMSTYLE
  5
4
330
0
100
AcDbSymbolTable
 70
1
100
AcDbDimStyleTable
  0
DIMSTYLE
105
2B
330
4
100
AcDbSymbolTableRecord
100
AcDbDimStyleTableRecord
  2
Standard
 70
0
 40
1.0
 41
2.5
 42
0.625
 43
3.75
 44
1.25
 45
0.0
 46
0.0
 47
0.0
 48
0.0
 49
2.5
140
2.5
141
2.5
142
0.0
143
0.03937007874
144
1.0
145
0.0
146
1.0
147
0.625
148
0.0
 69
0
 70
0
 71
0
 72
0
 73
0
 74
0
 75
0
 76
0
 77
1
 78
8
 79
3
170
0
171
3
172
1
173
0
174
0
175
0
176
0
177
0
178
0
179
2
271
2
272
2
273
2
274
3
275
0
276
0
277
2
278
44
279
0
280
0
281
0
282
0
283
0
284
8
285
0
286
0
288
0
289
3
290
0
371
-2
372
-2
  0
ENDTAB
  0
TABLE
  2
BLOCK_RECORD
  5
9
330
0
100
AcDbSymbolTable
 70
2
  0
BLOCK_RECORD
  5
17
330
9
100
AcDbSymbolTableRecord
100
AcDbBlockTableRecord
  2
*Model_Space
340
1A
 70
0
280
1
281
0
  0
BLOCK_RECORD
  5
1B
330
9
100
AcDbSymbolTableRecord
100
AcDbBlockTableRecord
  2
*Paper_Space
340
1E
 70
0
280
1
281
0
  0
ENDTAB
  0
ENDSEC
  0
SECTION
  2
BLOCKS
  0
BLOCK
  5
18
330
17
100
AcDbEntity
  8
0
100
AcDbBlockBegin
  2
*Model_Space
 70
0
 10
0.0
 20
0.0
 30
0.0
  3
*Model_Space
  1

  0
ENDBLK
  5
19
330
17
100
AcDbEntity
  8
0
100
AcDbBlockEnd
  0
BLOCK
  5
1C
330
1B
100
AcDbEntity
  8
0
100
AcDbBlockBegin
  2
*Paper_Space
 70
0
 10
0.0
 20
0.0
 30
0.0
  3
*Paper_Space
  1

  0
ENDBLK
  5
1D
330
1B
100
AcDbEntity
  8
0
100
AcDbBlockEnd
  0
ENDSEC
  0
SECTION
  2
ENTITIES
  0
CIRCLE
  5
31
330
17
100
AcDbEntity
  8
桩基
100
AcDbCircle
 10
571187.0178010324
 20
785635.3263494022
 30
0.0
 40
0.75
  0
TEXT
  5
32
330
17
100
AcDbEntity
  8
桩基
100
AcDbText
 10
571187.0178010324
 20
785635.3263494022
 30
0.0
 40
0.1
  1
(R1-7, pk= 7.474, E=571187.018,N785635.326)
 72
1
 11
571187.0178010324
 21
785635.3263494022
 31
0.0
100
AcDbText
 73
2
  0
CIRCLE
  5
33
330
17
100
AcDbEntity
  8
桩基
100
AcDbCircle
 10
571191.4500004495
 20
785634.5481409944
 30
0.0
 40
0.75
  0
TEXT
  5
34
330
17
100
AcDbEntity
  8
桩基
100
AcDbText
 10
571191.4500004495
 20
785634.5481409944
 30
0.0
 40
0.1
  1
(R1-7, pk= 7.474, E=571191.450,N785634.548)
 72
1
 11
571191.4500004495
 21
785634.5481409944
 31
0.0
100
AcDbText
 73
2
  0
CIRCLE
  5
35
330
17
100
AcDbEntity
  8
桩基
100
AcDbCircle
 10
571187.7960094402
 20
785639.7585488193
 30
0.0
 40
0.75
  0
TEXT
  5
36
330
17
100
AcDbEntity
  8
桩基
100
AcDbText
 10
571187.7960094402
 20
785639.7585488193
 30
0.0
 40
0.1
  1
(R1-7, pk= 7.474, E=571187.796,N785639.759)
 72
1
 11
571187.7960094402
 21
785639.7585488193
 31
0.0
100
AcDbText
 73
2
  0
CIRCLE
  5
37
330
17
100
AcDbEntity
  8
桩基
100
AcDbCircle
 10
571192.2282088574
 20
785638.9803404115
 30
0.0
 40
0.75
  0
TEXT
  5
38
330
17
100
AcDbEntity
  8
桩基
100
AcDbText
 10
571192.2282088574
 20
785638.9803404115
 30
0.0
 40
0.1
  1
(R1-7, pk= 7.474, E=571192.228,N785638.980)
 72
1
 11
571192.2282088574
 21
785638.9803404115
 31
0.0
100
AcDbText
 73
2
  0
POLYLINE
  5
39
330
17
100
AcDbEntity
  8
承台
100
AcDb2dPolyline
 66
1
 10
0.0
 20
0.0
 30
0.0
 70
1
  0
VERTEX
  5
3B
330
17
100
AcDbEntity
  8
承台
100
AcDbVertex
100
AcDb2dVertex
 10
571185.5704655255
 20
785634.3113518996
 30
0.0
 70
0
  0
VERTEX
  5
3C
330
17
100
AcDbEntity
  8
承台
100
AcDbVertex
100
AcDb2dVertex
 10
571192.4649979521
 20
785633.1008054875
 30
0.0
 70
0
  0
VERTEX
  5
3D
330
17
100
AcDbEntity
  8
承台
100
AcDbVertex
100
AcDb2dVertex
 10
571193.6755443643
 20
785639.9953379141
 30
0.0
 70
0
  0
VERTEX
  5
3E
330
17
100
AcDbEntity
  8
承台
100
AcDbVertex
100
AcDb2dVertex
 10
571186.7810119377
 20
785641.2058843262
 30
0.0
 70
0
  0
SEQEND
  5
3A
330
39
100
AcDbEntity
  8
承台
  0
CIRCLE
  5
3F
330
17
100
AcDbEntity
  8
桩基
100
AcDbCircle
 10
571231.2913772129
 20
785627.8174499039
 30
0.0
 40
0.75
  0
TEXT
  5
40
330
17
100
AcDbEntity
  8
桩基
100
AcDbText
 10
571231.2913772129
 20
785627.8174499039
 30
0.0
 40
0.1
  1
(R1-8, pk= 52.474, E=571231.291,N785627.817)
 72
1
 11
571231.2913772129
 21
785627.8174499039
 31
0.0
100
AcDbText
 73
2
  0
CIRCLE
  5
41
330
17
100
AcDbEntity
  8
桩基
100
AcDbCircle
 10
571235.7112782493
 20
785626.972183776
 30
0.0
 40
0.75
  0
TEXT
  5
42
330
17
100
AcDbEntity
  8
桩基
100
AcDbText
 10
571235.7112782493
 20
785626.972183776
 30
0.0
 40
0.1
  1
(R1-8, pk= 52.474, E=571235.711,N785626.972)
 72
1
 11
571235.7112782493
 21
785626.972183776
 31
0.0
100
AcDbText
 73
2
  0
CIRCLE
  5
43
330
17
100
AcDbEntity
  8
桩基
100
AcDbCircle
 10
571232.3601692725
 20
785633.4061692145
 30
0.0
 40
0.75
  0
TEXT
  5
44
330
17
100
AcDbEntity
  8
桩基
100
AcDbText
 10
571232.3601692725
 20
785633.4061692145
 30
0.0
 40
0.1
  1
(R1-8, pk= 52.474, E=571232.360,N785633.406)
 72
1
 11
571232.3601692725
 21
785633.4061692145
 31
0.0
100
AcDbText
 73
2
  0
CIRCLE
  5
45
330
17
100
AcDbEntity
  8
桩基
100
AcDbCircle
 10
571236.780070309
 20
785632.5609030866
 30
0.0
 40
0.75
  0
TEXT
  5
46
330
17
100
AcDbEntity
  8
桩基
100
AcDbText
 10
571236.780070309
 20
785632.5609030866
 30
0.0
 40
0.1
  1
(R1-8, pk= 52.474, E=571236.780,N785632.561)
 72
1
 11
571236.780070309
 21
785632.5609030866
 31
0.0
100
AcDbText
 73
2
  0
CIRCLE
  5
47
330
17
100
AcDbEntity
  8
桩基
100
AcDbCircle
 10
571233.4289613322
 20
785638.9948885251
 30
0.0
 40
0.75
  0
TEXT
  5
48
330
17
100
AcDbEntity
  8
桩基
100
AcDbText
 10
571233.4289613322
 20
785638.9948885251
 30
0.0
 40
0.1
  1
(R1-8, pk= 52.474, E=571233.429,N785638.995)
 72
1
 11
571233.4289613322
 21
785638.9948885251
 31
0.0
100
AcDbText
 73
2
  0
CIRCLE
  5
49
330
17
100
AcDbEntity
  8
桩基
100
AcDbCircle
 10
571237.8488623686
 20
785638.1496223971
 30
0.0
 40
0.75
  0
TEXT
  5
4A
330
17
100
AcDbEntity
  8
桩基
100
AcDbText
 10
571237.8488623686
 20
785638.1496223971
 30
0.0
 40
0.1
  1
(R1-8, pk= 52.474, E=571237.849,N785638.150)
 72
1
 11
571237.8488623686
 21
785638.1496223971
 31
0.0
100
AcDbText
 73
2
  0
POLYLINE
  5
4B
330
17
100
AcDbEntity
  8
承台
100
AcDb2dPolyline
 66
1
 10
0.0
 20
0.0
 30
0.0
 70
1
  0
VERTEX
  5
4D
330
17
100
AcDbEntity
  8
承台
100
AcDbVertex
100
AcDb2dVertex
 10
571229.8288307782
 20
785626.8244957627
 30
0.0
 70
0
  0
VERTEX
  5
4E
330
17
100
AcDbEntity
  8
承台
100
AcDbVertex
100
AcDb2dVertex
 10
571236.7042323905
 20
785625.5096373414
 30
0.0
 70
0
  0
VERTEX
  5
4F
330
17
100
AcDbEntity
  8
承台
100
AcDbVertex
100
AcDb2dVertex
 10
571239.3114088032
 20
785639.1425765384
 30
0.0
 70
0
  0
VERTEX
  5
50
330
17
100
AcDbEntity
  8
承台
100
AcDbVertex
100
AcDb2dVertex
 10
571232.436007191
 20
785640.4574349597
 30
0.0
 70
0
  0
SEQEND
  5
4C
330
4B
100
AcDbEntity
  8
承台
  0
CIRCLE
  5
51
330
17
100
AcDbEntity
  8
桩基
100
AcDbCircle
 10
571276.8674752044
 20
785626.4436715988
 30
0.0
 40
0.75
  0
TEXT
  5
52
330
17
100
AcDbEntity
  8
桩基
100
AcDbText
 10
571276.8674752044
 20
785626.4436715988
 30
0.0
 40
0.1
  1
(W17, pk= 97.474, E=571276.867,N785626.444)
 72
1
 11
571276.8674752044
 21
785626.4436715988
 31
0.0
100
AcDbText
 73
2
  0
CIRCLE
  5
53
330
17
100
AcDbEntity
  8
桩基
100
AcDbCircle
 10
571281.2714654529
 20
785625.5190798552
 30
0.0
 40
0.75
  0
TEXT
  5
54
330
17
100
AcDbEntity
  8
桩基
100
AcDbText
 10
571281.2714654529
 20
785625.5190798552
 30
0.0
 40
0.1
  1
(W17, pk= 97.474, E=571281.271,N785625.519)
 72
1
 11
571281.2714654529
 21
785625.5190798552
 31
0.0
100
AcDbText
 73
2
  0
CIRCLE
  5
55
330
17
100
AcDbEntity
  8
桩基
100
AcDbCircle
 10
571278.036570098
 20
785632.0122726017
 30
0.0
 40
0.75
  0
TEXT
  5
56
330
17
100
AcDbEntity
  8
桩基
100
AcDbText
 10
571278.036570098
 20
785632.0122726017
 30
0.0
 40
0.1
  1
(W17, pk= 97.474, E=571278.037,N785632.012)
 72
1
 11
571278.036570098
 21
785632.0122726017
 31
0.0
100
AcDbText
 73
2
  0
CIRCLE
  5
57
330
17
100
AcDbEntity
  8
桩基
100
AcDbCircle
 10
571282.4405603465
 20
785631.0876808581
 30
0.0
 40
0.75
  0
TEXT
  5
58
330
17
100
AcDbEntity
  8
桩基
100
AcDbText
 10
571282.4405603465
 20
785631.0876808581
 30
0.0
 40
0.1
  1
(W17, pk= 97.474, E=571282.441,N785631.088)
 72
1
 11
571282.4405603465
 21
785631.0876808581
 31
0.0
100
AcDbText
 73
2
  0
CIRCLE
  5
59
330
17
100
AcDbEntity
  8
桩基
100
AcDbCircle
 10
571279.2056649916
 20
785637.5808736046
 30
0.0
 40
0.75
  0
TEXT
  5
5A
330
17
100
AcDbEntity
  8
桩基
100
AcDbText
 10
571279.2056649916
 20
785637.5808736046
 30
0.0
 40
0.1
  1
(W17, pk= 97.474, E=571279.206,N785637.581)
 72
1
 11
571279.2056649916
 21
785637.5808736046
 31
0.0
100
AcDbText
 73
2
  0
CIRCLE
  5
5B
330
17
100
AcDbEntity
  8
桩基
100
AcDbCircle
 10
571283.6096552401
 20
785636.656281861
 30
0.0
 40
0.75
  0
TEXT
  5
5C
330
17
100
AcDbEntity
  8
桩基
100
AcDbText
 10
571283.6096552401
 20
785636.656281861
 30
0.0
 40
0.1
  1
(W17, pk= 97.474, E=571283.610,N785636.656)
 72
1
 11
571283.6096552401
 21
785636.656281861
 31
0.0
100
AcDbText
 73
2
  0
POLYLINE
  5
5D
330
17
100
AcDbEntity
  8
承台
100
AcDb2dPolyline
 66
1
 10
0.0
 20
0.0
 30
0.0
 70
1
  0
VERTEX
  5
5F
330
17
100
AcDbEntity
  8
承台
100
AcDbVertex
100
AcDb2dVertex
 10
571275.38731354
 20
785625.4771720142
 30
0.0
 70
0
  0
VERTEX
  5
60
330
17
100
AcDbEntity
  8
承台
100
AcDbVertex
100
AcDb2dVertex
 10
571282.2379650375
 20
785624.0389181908
 30
0.0
 70
0
  0
VERTEX
  5
61
330
17
100
AcDbEntity
  8
承台
100
AcDbVertex
100
AcDb2dVertex
 10
571285.0898169045
 20
785637.6227814456
 30
0.0
 70
0
  0
VERTEX
  5
62
330
17
100
AcDbEntity
  8
承台
100
AcDbVertex
100
AcDb2dVertex
 10
571278.239165407
 20
785639.061035269
 30
0.0
 70
0
  0
SEQEND
  5
5E
330
5D
100
AcDbEntity
  8
承台
  0
CIRCLE
  5
63
330
17
100
AcDbEntity
  8
桩基
100
AcDbCircle
 10
571275.1491728153
 20
785618.2591003883
 30
0.0
 40
0.75
  0
TEXT
  5
64
330
17
100
AcDbEntity
  8
桩基
100
AcDbText
 10
571275.1491728153
 20
785618.2591003883
 30
0.0
 40
0.1
  1
(W17, pk= 97.474, E=571275.149,N785618.259)
 72
1
 11
571275.1491728153
 21
785618.2591003883
 31
0.0
100
AcDbText
 73
2
  0
CIRCLE
  5
65
330
17
100
AcDbEntity
  8
桩基
100
AcDbCircle
 10
571279.5531630637
 20
785617.3345086446
 30
0.0
 40
0.75
  0
TEXT
  5
66
330
17
100
AcDbEntity
  8
桩基
100
AcDbText
 10
571279.5531630637
 20
785617.3345086446
 30
0.0
 40
0.1
  1
(W17, pk= 97.474, E=571279.553,N785617.335)
 72
1
 11
571279.5531630637
 21
785617.3345086446
 31
0.0
100
AcDbText
 73
2
  0
CIRCLE
  5
67
330
17
100
AcDbEntity
  8
桩基
100
AcDbCircle
 10
571276.0737645589
 20
785622.6630906367
 30
0.0
 40
0.75
  0
TEXT
  5
68
330
17
100
AcDbEntity
  8
桩基
100
AcDbText
 10
571276.0737645589
 20
785622.6630906367
 30
0.0
 40
0.1
  1
(W17, pk= 97.474, E=571276.074,N785622.663)
 72
1
 11
571276.0737645589
 21
785622.6630906367
 31
0.0
100
AcDbText
 73
2
  0
CIRCLE
  5
69
330
17
100
AcDbEntity
  8
桩基
100
AcDbCircle
 10
571280.4777548073
 20
785621.7384988931
 30
0.0
 40
0.75
  0
TEXT
  5
6A
330
17
100
AcDbEntity
  8
桩基
100
AcDbText
 10
571280.4777548073
 20
785621.7384988931
 30
0.0
 40
0.1
  1
(W17, pk= 97.474, E=571280.478,N785621.738)
 72
1
 11
571280.4777548073
 21
785621.7384988931
 31
0.0
100
AcDbText
 73
2
  0
POLYLINE
  5
6B
330
17
100
AcDbEntity
  8
承台
100
AcDb2dPolyline
 66
1
 10
0.0
 20
0.0
 30
0.0
 70
1
  0
VERTEX
  5
6D
330
17
100
AcDbEntity
  8
承台
100
AcDbVertex
100
AcDb2dVertex
 10
571273.6690111508
 20
785617.2926008037
 30
0.0
 70
0
  0
VERTEX
  5
6E
330
17
100
AcDbEntity
  8
承台
100
AcDbVertex
100
AcDb2dVertex
 10
571280.5196626483
 20
785615.8543469802
 30
0.0
 70
0
  0
VERTEX
  5
6F
330
17
100
AcDbEntity
  8
承台
100
AcDbVertex
100
AcDb2dVertex
 10
571281.9579164718
 20
785622.7049984777
 30
0.0
 70
0
  0
VERTEX
  5
70
330
17
100
AcDbEntity
  8
承台
100
AcDbVertex
100
AcDb2dVertex
 10
571275.1072649743
 20
785624.1432523011
 30
0.0
 70
0
  0
SEQEND
  5
6C
330
6B
100
AcDbEntity
  8
承台
  0
CIRCLE
  5
71
330
17
100
AcDbEntity
  8
桩基
100
AcDbCircle
 10
571316.5354291275
 20
785620.410671411
 30
0.0
 40
0.75
  0
TEXT
  5
72
330
17
100
AcDbEntity
  8
桩基
100
AcDbText
 10
571316.5354291275
 20
785620.410671411
 30
0.0
 40
0.1
  1
(W16, pk= 137.474, E=571316.535,N785620.411)
 72
1
 11
571316.5354291275
 21
785620.410671411
 31
0.0
100
AcDbText
 73
2
  0
CIRCLE
  5
73
330
17
100
AcDbEntity
  8
桩基
100
AcDbCircle
 10
571320.9240897652
 20
785619.4158559468
 30
0.0
 40
0.75
  0
TEXT
  5
74
330
17
100
AcDbEntity
  8
桩基
100
AcDbText
 10
571320.9240897652
 20
785619.4158559468
 30
0.0
 40
0.1
  1
(W16, pk= 137.474, E=571320.924,N785619.416)
 72
1
 11
571320.9240897652
 21
785619.4158559468
 31
0.0
100
AcDbText
 73
2
  0
CIRCLE
  5
75
330
17
100
AcDbEntity
  8
桩基
100
AcDbCircle
 10
571317.5302445916
 20
785624.7993320486
 30
0.0
 40
0.75
  0
TEXT
  5
76
330
17
100
AcDbEntity
  8
桩基
100
AcDbText
 10
571317.5302445916
 20
785624.7993320486
 30
0.0
 40
0.1
  1
(W16, pk= 137.474, E=571317.530,N785624.799)
 72
1
 11
571317.5302445916
 21
785624.7993320486
 31
0.0
100
AcDbText
 73
2
  0
CIRCLE
  5
77
330
17
100
AcDbEntity
  8
桩基
100
AcDbCircle
 10
571321.9189052293
 20
785623.8045165845
 30
0.0
 40
0.75
  0
TEXT
  5
78
330
17
100
AcDbEntity
  8
桩基
100
AcDbText
 10
571321.9189052293
 20
785623.8045165845
 30
0.0
 40
0.1
  1
(W16, pk= 137.474, E=571321.919,N785623.805)
 72
1
 11
571321.9189052293
 21
785623.8045165845
 31
0.0
100
AcDbText
 73
2
  0
POLYLINE
  5
79
330
17
100
AcDbEntity
  8
承台
100
AcDb2dPolyline
 66
1
 10
0.0
 20
0.0
 30
0.0
 70
1
  0
VERTEX
  5
7B
330
17
100
AcDbEntity
  8
承台
100
AcDbVertex
100
AcDb2dVertex
 10
571315.0400190993
 20
785619.4679366405
 30
0.0
 70
0
  0
VERTEX
  5
7C
330
17
100
AcDbEntity
  8
承台
100
AcDbVertex
100
AcDb2dVertex
 10
571321.8668245357
 20
785617.9204459186
 30
0.0
 70
0
  0
VERTEX
  5
7D
330
17
100
AcDbEntity
  8
承台
100
AcDbVertex
100
AcDb2dVertex
 10
571323.4143152576
 20
785624.747251355
 30
0.0
 70
0
  0
VERTEX
  5
7E
330
17
100
AcDbEntity
  8
承台
100
AcDbVertex
100
AcDb2dVertex
 10
571316.5875098212
 20
785626.2947420769
 30
0.0
 70
0
  0
SEQEND
  5
7A
330
79
100
AcDbEntity
  8
承台
  0
CIRCLE
  5
7F
330
17
100
AcDbEntity
  8
桩基
100
AcDbCircle
 10
571314.1877131792
 20
785610.0536464729
 30
0.0
 40
0.75
  0
TEXT
  5
80
330
17
100
AcDbEntity
  8
桩基
100
AcDbText
 10
571314.1877131792
 20
785610.0536464729
 30
0.0
 40
0.1
  1
(W16, pk= 137.474, E=571314.188,N785610.054)
 72
1
 11
571314.1877131792
 21
785610.0536464729
 31
0.0
100
AcDbText
 73
2
  0
CIRCLE
  5
81
330
17
100
AcDbEntity
  8
桩基
100
AcDbCircle
 10
571318.5763738168
 20
785609.0588310087
 30
0.0
 40
0.75
  0
TEXT
  5
82
330
17
100
AcDbEntity
  8
桩基
100
AcDbText
 10
571318.5763738168
 20
785609.0588310087
 30
0.0
 40
0.1
  1
(W16, pk= 137.474, E=571318.576,N785609.059)
 72
1
 11
571318.5763738168
 21
785609.0588310087
 31
0.0
100
AcDbText
 73
2
  0
CIRCLE
  5
83
330
17
100
AcDbEntity
  8
桩基
100
AcDbCircle
 10
571315.1825286433
 20
785614.4423071105
 30
0.0
 40
0.75
  0
TEXT
  5
84
330
17
100
AcDbEntity
  8
桩基
100
AcDbText
 10
571315.1825286433
 20
785614.4423071105
 30
0.0
 40
0.1
  1
(W16, pk= 137.474, E=571315.183,N785614.442)
 72
1
 11
571315.1825286433
 21
785614.4423071105
 31
0.0
100
AcDbText
 73
2
  0
CIRCLE
  5
85
330
17
100
AcDbEntity
  8
桩基
100
AcDbCircle
 10
571319.571189281
 20
785613.4474916464
 30
0.0
 40
0.75
  0
TEXT
  5
86
330
17
100
AcDbEntity
  8
桩基
100
AcDbText
 10
571319.571189281
 20
785613.4474916464
 30
0.0
 40
0.1
  1
(W16, pk= 137.474, E=571319.571,N785613.447)
 72
1
 11
571319.571189281
 21
785613.4474916464
 31
0.0
100
AcDbText
 73
2
  0
POLYLINE
  5
87
330
17
100
AcDbEntity
  8
承台
100
AcDb2dPolyline
 66
1
 10
0.0
 20
0.0
 30
0.0
 70
1
  0
VERTEX
  5
89
330
17
100
AcDbEntity
  8
承台
100
AcDbVertex
100
AcDb2dVertex
 10
571312.6923031509
 20
785609.1109117024
 30
0.0
 70
0
  0
VERTEX
  5
8A
330
17
100
AcDbEntity
  8
承台
100
AcDbVertex
100
AcDb2dVertex
 10
571319.5191085873
 20
785607.5634209805
 30
0.0
 70
0
  0
VERTEX
  5
8B
330
17
100
AcDbEntity
  8
承台
100
AcDbVertex
100
AcDb2dVertex
 10
571321.0665993092
 20
785614.3902264169
 30
0.0
 70
0
  0
VERTEX
  5
8C
330
17
100
AcDbEntity
  8
承台
100
AcDbVertex
100
AcDb2dVertex
 10
571314.2397938728
 20
785615.9377171388
 30
0.0
 70
0
  0
SEQEND
  5
88
330
87
100
AcDbEntity
  8
承台
  0
CIRCLE
  5
8D
330
17
100
AcDbEntity
  8
桩基
100
AcDbCircle
 10
571355.7831055027
 20
785612.2635692856
 30
0.0
 40
0.75
  0
TEXT
  5
8E
330
17
100
AcDbEntity
  8
桩基
100
AcDbText
 10
571355.7831055027
 20
785612.2635692856
 30
0.0
 40
0.1
  1
(W15, pk= 177.474, E=571355.783,N785612.264)
 72
1
 11
571355.7831055027
 21
785612.2635692856
 31
0.0
100
AcDbText
 73
2
  0
CIRCLE
  5
8F
330
17
100
AcDbEntity
  8
桩基
100
AcDbCircle
 10
571360.155261566
 20
785611.1985569112
 30
0.0
 40
0.75
  0
TEXT
  5
90
330
17
100
AcDbEntity
  8
桩基
100
AcDbText
 10
571360.155261566
 20
785611.1985569112
 30
0.0
 40
0.1
  1
(W15, pk= 177.474, E=571360.155,N785611.199)
 72
1
 11
571360.155261566
 21
785611.1985569112
 31
0.0
100
AcDbText
 73
2
  0
CIRCLE
  5
91
330
17
100
AcDbEntity
  8
桩基
100
AcDbCircle
 10
571356.8481178771
 20
785616.635725349
 30
0.0
 40
0.75
  0
TEXT
  5
92
330
17
100
AcDbEntity
  8
桩基
100
AcDbText
 10
571356.8481178771
 20
785616.635725349
 30
0.0
 40
0.1
  1
(W15, pk= 177.474, E=571356.848,N785616.636)
 72
1
 11
571356.8481178771
 21
785616.635725349
 31
0.0
100
AcDbText
 73
2
  0
CIRCLE
  5
93
330
17
100
AcDbEntity
  8
桩基
100
AcDbCircle
 10
571361.2202739405
 20
785615.5707129745
 30
0.0
 40
0.75
  0
TEXT
  5
94
330
17
100
AcDbEntity
  8
桩基
100
AcDbText
 10
571361.2202739405
 20
785615.5707129745
 30
0.0
 40
0.1
  1
(W15, pk= 177.474, E=571361.220,N785615.571)
 72
1
 11
571361.2202739405
 21
785615.5707129745
 31
0.0
100
AcDbText
 73
2
  0
POLYLINE
  5
95
330
17
100
AcDbEntity
  8
承台
100
AcDb2dPolyline
 66
1
 10
0.0
 20
0.0
 30
0.0
 70
1
  0
VERTEX
  5
97
330
17
100
AcDbEntity
  8
承台
100
AcDbVertex
100
AcDb2dVertex
 10
571354.2727809367
 20
785611.3449182609
 30
0.0
 70
0
  0
VERTEX
  5
98
330
17
100
AcDbEntity
  8
承台
100
AcDbVertex
100
AcDb2dVertex
 10
571361.0739125907
 20
785609.6882323452
 30
0.0
 70
0
  0
VERTEX
  5
99
330
17
100
AcDbEntity
  8
承台
100
AcDbVertex
100
AcDb2dVertex
 10
571362.7305985065
 20
785616.4893639992
 30
0.0
 70
0
  0
VERTEX
  5
9A
330
17
100
AcDbEntity
  8
承台
100
AcDbVertex
100
AcDb2dVertex
 10
571355.9294668525
 20
785618.146049915
 30
0.0
 70
0
  0
SEQEND
  5
96
330
95
100
AcDbEntity
  8
承台
  0
CIRCLE
  5
9B
330
17
100
AcDbEntity
  8
桩基
100
AcDbCircle
 10
571352.9586926857
 20
785600.6686114055
 30
0.0
 40
0.75
  0
TEXT
  5
9C
330
17
100
AcDbEntity
  8
桩基
100
AcDbText
 10
571352.9586926857
 20
785600.6686114055
 30
0.0
 40
0.1
  1
(W15, pk= 177.474, E=571352.959,N785600.669)
 72
1
 11
571352.9586926857
 21
785600.6686114055
 31
0.0
100
AcDbText
 73
2
  0
CIRCLE
  5
9D
330
17
100
AcDbEntity
  8
桩基
100
AcDbCircle
 10
571357.330848749
 20
785599.6035990311
 30
0.0
 40
0.75
  0
TEXT
  5
9E
330
17
100
AcDbEntity
  8
桩基
100
AcDbText
 10
571357.330848749
 20
785599.6035990311
 30
0.0
 40
0.1
  1
(W15, pk= 177.474, E=571357.331,N785599.604)
 72
1
 11
571357.330848749
 21
785599.6035990311
 31
0.0
100
AcDbText
 73
2
  0
CIRCLE
  5
9F
330
17
100
AcDbEntity
  8
桩基
100
AcDbCircle
 10
571354.0237050601
 20
785605.0407674689
 30
0.0
 40
0.75
  0
TEXT
  5
A0
330
17
100
AcDbEntity
  8
桩基
100
AcDbText
 10
571354.0237050601
 20
785605.0407674689
 30
0.0
 40
0.1
  1
(W15, pk= 177.474, E=571354.024,N785605.041)
 72
1
 11
571354.0237050601
 21
785605.0407674689
 31
0.0
100
AcDbText
 73
2
  0
CIRCLE
  5
A1
330
17
100
AcDbEntity
  8
桩基
100
AcDbCircle
 10
571358.3958611235
 20
785603.9757550944
 30
0.0
 40
0.75
  0
TEXT
  5
A2
330
17
100
AcDbEntity
  8
桩基
100
AcDbText
 10
571358.3958611235
 20
785603.9757550944
 30
0.0
 40
0.1
  1
(W15, pk= 177.474, E=571358.396,N785603.976)
 72
1
 11
571358.3958611235
 21
785603.9757550944
 31
0.0
100
AcDbText
 73
2
  0
POLYLINE
  5
A3
330
17
100
AcDbEntity
  8
承台
100
AcDb2dPolyline
 66
1
 10
0.0
 20
0.0
 30
0.0
 70
1
  0
VERTEX
  5
A5
330
17
100
AcDbEntity
  8
承台
100
AcDbVertex
100
AcDb2dVertex
 10
571351.4483681197
 20
785599.7499603808
 30
0.0
 70
0
  0
VERTEX
  5
A6
330
17
100
AcDbEntity
  8
承台
100
AcDbVertex
100
AcDb2dVertex
 10
571358.2494997737
 20
785598.0932744651
 30
0.0
 70
0
  0
VERTEX
  5
A7
330
17
100
AcDbEntity
  8
承台
100
AcDbVertex
100
AcDb2dVertex
 10
571359.9061856895
 20
785604.8944061191
 30
0.0
 70
0
  0
VERTEX
  5
A8
330
17
100
AcDbEntity
  8
承台
100
AcDbVertex
100
AcDb2dVertex
 10
571353.1050540354
 20
785606.5510920349
 30
0.0
 70
0
  0
SEQEND
  5
A4
330
A3
100
AcDbEntity
  8
承台
  0
CIRCLE
  5
A9
330
17
100
AcDbEntity
  8
桩基
100
AcDbCircle
 10
571394.057550775
 20
785600.2099904435
 30
0.0
 40
0.75
  0
TEXT
  5
AA
330
17
100
AcDbEntity
  8
桩基
100
AcDbText
 10
571394.057550775
 20
785600.2099904435
 30
0.0
 40
0.1
  1
(W14, pk= 217.474, E=571394.058,N785600.210)
 72
1
 11
571394.057550775
 21
785600.2099904435
 31
0.0
100
AcDbText
 73
2
  0
CIRCLE
  5
AB
330
17
100
AcDbEntity
  8
桩基
100
AcDbCircle
 10
571398.412064849
 20
785599.0749982946
 30
0.0
 40
0.75
  0
TEXT
  5
AC
330
17
100
AcDbEntity
  8
桩基
100
AcDbText
 10
571398.412064849
 20
785599.0749982946
 30
0.0
 40
0.1
  1
(W14, pk= 217.474, E=571398.412,N785599.075)
 72
1
 11
571398.412064849
 21
785599.0749982946
 31
0.0
100
AcDbText
 73
2
  0
CIRCLE
  5
AD
330
17
100
AcDbEntity
  8
桩基
100
AcDbCircle
 10
571395.192542924
 20
785604.5645045176
 30
0.0
 40
0.75
  0
TEXT
  5
AE
330
17
100
AcDbEntity
  8
桩基
100
AcDbText
 10
571395.192542924
 20
785604.5645045176
 30
0.0
 40
0.1
  1
(W14, pk= 217.474, E=571395.193,N785604.565)
 72
1
 11
571395.192542924
 21
785604.5645045176
 31
0.0
100
AcDbText
 73
2
  0
CIRCLE
  5
AF
330
17
100
AcDbEntity
  8
桩基
100
AcDbCircle
 10
571399.547056998
 20
785603.4295123686
 30
0.0
 40
0.75
  0
TEXT
  5
B0
330
17
100
AcDbEntity
  8
桩基
100
AcDbText
 10
571399.547056998
 20
785603.4295123686
 30
0.0
 40
0.1
  1
(W14, pk= 217.474, E=571399.547,N785603.430)
 72
1
 11
571399.547056998
 21
785603.4295123686
 31
0.0
100
AcDbText
 73
2
  0
POLYLINE
  5
B1
330
17
100
AcDbEntity
  8
承台
100
AcDb2dPolyline
 66
1
 10
0.0
 20
0.0
 30
0.0
 70
1
  0
VERTEX
  5
B3
330
17
100
AcDbEntity
  8
承台
100
AcDbVertex
100
AcDb2dVertex
 10
571392.5326879353
 20
785599.3156787977
 30
0.0
 70
0
  0
VERTEX
  5
B4
330
17
100
AcDbEntity
  8
承台
100
AcDbVertex
100
AcDb2dVertex
 10
571399.3063764949
 20
785597.5501354549
 30
0.0
 70
0
  0
VERTEX
  5
B5
330
17
100
AcDbEntity
  8
承台
100
AcDbVertex
100
AcDb2dVertex
 10
571401.0719198377
 20
785604.3238240145
 30
0.0
 70
0
  0
VERTEX
  5
B6
330
17
100
AcDbEntity
  8
承台
100
AcDbVertex
100
AcDb2dVertex
 10
571394.2982312781
 20
785606.0893673573
 30
0.0
 70
0
  0
SEQEND
  5
B2
330
B1
100
AcDbEntity
  8
承台
  0
CIRCLE
  5
B7
330
17
100
AcDbEntity
  8
桩基
100
AcDbCircle
 10
571391.4788990568
 20
785590.3167280011
 30
0.0
 40
0.75
  0
TEXT
  5
B8
330
17
100
AcDbEntity
  8
桩基
100
AcDbText
 10
571391.4788990568
 20
785590.3167280011
 30
0.0
 40
0.1
  1
(W14, pk= 217.474, E=571391.479,N785590.317)
 72
1
 11
571391.4788990568
 21
785590.3167280011
 31
0.0
100
AcDbText
 73
2
  0
CIRCLE
  5
B9
330
17
100
AcDbEntity
  8
桩基
100
AcDbCircle
 10
571395.8334131308
 20
785589.1817358522
 30
0.0
 40
0.75
  0
TEXT
  5
BA
330
17
100
AcDbEntity
  8
桩基
100
AcDbText
 10
571395.8334131308
 20
785589.1817358522
 30
0.0
 40
0.1
  1
(W14, pk= 217.474, E=571395.833,N785589.182)
 72
1
 11
571395.8334131308
 21
785589.1817358522
 31
0.0
100
AcDbText
 73
2
  0
CIRCLE
  5
BB
330
17
100
AcDbEntity
  8
桩基
100
AcDbCircle
 10
571392.6138912058
 20
785594.6712420752
 30
0.0
 40
0.75
  0
TEXT
  5
BC
330
17
100
AcDbEntity
  8
桩基
100
AcDbText
 10
571392.6138912058
 20
785594.6712420752
 30
0.0
 40
0.1
  1
(W14, pk= 217.474, E=571392.614,N785594.671)
 72
1
 11
571392.6138912058
 21
785594.6712420752
 31
0.0
100
AcDbText
 73
2
  0
CIRCLE
  5
BD
330
17
100
AcDbEntity
  8
桩基
100
AcDbCircle
 10
571396.9684052798
 20
785593.5362499262
 30
0.0
 40
0.75
  0
TEXT
  5
BE
330
17
100
AcDbEntity
  8
桩基
100
AcDbText
 10
571396.9684052798
 20
785593.5362499262
 30
0.0
 40
0.1
  1
(W14, pk= 217.474, E=571396.968,N785593.536)
 72
1
 11
571396.9684052798
 21
785593.5362499262
 31
0.0
100
AcDbText
 73
2
  0
POLYLINE
  5
BF
330
17
100
AcDbEntity
  8
承台
100
AcDb2dPolyline
 66
1
 10
0.0
 20
0.0
 30
0.0
 70
1
  0
VERTEX
  5
C1
330
17
100
AcDbEntity
  8
承台
100
AcDbVertex
100
AcDb2dVertex
 10
571389.9540362171
 20
785589.4224163552
 30
0.0
 70
0
  0
VERTEX
  5
C2
330
17
100
AcDbEntity
  8
承台
100
AcDbVertex
100
AcDb2dVertex
 10
571396.7277247767
 20
785587.6568730124
 30
0.0
 70
0
  0
VERTEX
  5
C3
330
17
100
AcDbEntity
  8
承台
100
AcDbVertex
100
AcDb2dVertex
 10
571398.4932681195
 20
785594.4305615721
 30
0.0
 70
0
  0
VERTEX
  5
C4
330
17
100
AcDbEntity
  8
承台
100
AcDbVertex
100
AcDb2dVertex
 10
571391.7195795599
 20
785596.1961049149
 30
0.0
 70
0
  0
SEQEND
  5
C0
330
BF
100
AcDbEntity
  8
承台
  0
CIRCLE
  5
C5
330
17
100
AcDbEntity
  8
桩基
100
AcDbCircle
 10
570939.5144807699
 20
785570.6830260401
 30
0.0
 40
0.75
  0
TEXT
  5
C6
330
17
100
AcDbEntity
  8
桩基
100
AcDbText
 10
570939.5144807699
 20
785570.6830260401
 30
0.0
 40
0.1
  1
(R1-1, pk= 213.364, E=570939.514,N785570.683)
 72
1
 11
570939.5144807699
 21
785570.6830260401
 31
0.0
100
AcDbText
 73
2
  0
CIRCLE
  5
C7
330
17
100
AcDbEntity
  8
桩基
100
AcDbCircle
 10
570942.3554695318
 20
785574.1728373322
 30
0.0
 40
0.75
  0
TEXT
  5
C8
330
17
100
AcDbEntity
  8
桩基
100
AcDbText
 10
570942.3554695318
 20
785574.1728373322
 30
0.0
 40
0.1
  1
(R1-1, pk= 213.364, E=570942.355,N785574.173)
 72
1
 11
570942.3554695318
 21
785574.1728373322
 31
0.0
100
AcDbText
 73
2
  0
CIRCLE
  5
C9
330
17
100
AcDbEntity
  8
桩基
100
AcDbCircle
 10
570936.0246694777
 20
785573.524014802
 30
0.0
 40
0.75
  0
TEXT
  5
CA
330
17
100
AcDbEntity
  8
桩基
100
AcDbText
 10
570936.0246694777
 20
785573.524014802
 30
0.0
 40
0.1
  1
(R1-1, pk= 213.364, E=570936.025,N785573.524)
 72
1
 11
570936.0246694777
 21
785573.524014802
 31
0.0
100
AcDbText
 73
2
  0
CIRCLE
  5
CB
330
17
100
AcDbEntity
  8
桩基
100
AcDbCircle
 10
570938.8656582397
 20
785577.0138260941
 30
0.0
 40
0.75
  0
TEXT
  5
CC
330
17
100
AcDbEntity
  8
桩基
100
AcDbText
 10
570938.8656582397
 20
785577.0138260941
 30
0.0
 40
0.1
  1
(R1-1, pk= 213.364, E=570938.866,N785577.014)
 72
1
 11
570938.8656582397
 21
785577.0138260941
 31
0.0
100
AcDbText
 73
2
  0
CIRCLE
  5
CD
330
17
100
AcDbEntity
  8
桩基
100
AcDbCircle
 10
570932.5348581856
 20
785576.3650035638
 30
0.0
 40
0.75
  0
TEXT
  5
CE
330
17
100
AcDbEntity
  8
桩基
100
AcDbText
 10
570932.5348581856
 20
785576.3650035638
 30
0.0
 40
0.1
  1
(R1-1, pk= 213.364, E=570932.535,N785576.365)
 72
1
 11
570932.5348581856
 21
785576.3650035638
 31
0.0
100
AcDbText
 73
2
  0
CIRCLE
  5
CF
330
17
100
AcDbEntity
  8
桩基
100
AcDbCircle
 10
570935.3758469475
 20
785579.854814856
 30
0.0
 40
0.75
  0
TEXT
  5
D0
330
17
100
AcDbEntity
  8
桩基
100
AcDbText
 10
570935.3758469475
 20
785579.854814856
 30
0.0
 40
0.1
  1
(R1-1, pk= 213.364, E=570935.376,N785579.855)
 72
1
 11
570935.3758469475
 21
785579.854814856
 31
0.0
100
AcDbText
 73
2
  0
POLYLINE
  5
D1
330
17
100
AcDbEntity
  8
承台
100
AcDb2dPolyline
 66
1
 10
0.0
 20
0.0
 30
0.0
 70
1
  0
VERTEX
  5
D3
330
17
100
AcDbEntity
  8
承台
100
AcDbVertex
100
AcDb2dVertex
 10
570939.6947092505
 20
785568.9244704696
 30
0.0
 70
0
  0
VERTEX
  5
D4
330
17
100
AcDbEntity
  8
承台
100
AcDbVertex
100
AcDb2dVertex
 10
570944.1140251025
 20
785574.3530658128
 30
0.0
 70
0
  0
VERTEX
  5
D5
330
17
100
AcDbEntity
  8
承台
100
AcDbVertex
100
AcDb2dVertex
 10
570935.1956184669
 20
785581.6133704265
 30
0.0
 70
0
  0
VERTEX
  5
D6
330
17
100
AcDbEntity
  8
承台
100
AcDbVertex
100
AcDb2dVertex
 10
570930.776302615
 20
785576.1847750832
 30
0.0
 70
0
  0
SEQEND
  5
D2
330
D1
100
AcDbEntity
  8
承台
  0
CIRCLE
  5
D7
330
17
100
AcDbEntity
  8
桩基
100
AcDbCircle
 10
570965.4987459509
 20
785598.448927587
 30
0.0
 40
0.75
  0
TEXT
  5
D8
330
17
100
AcDbEntity
  8
桩基
100
AcDbText
 10
570965.4987459509
 20
785598.448927587
 30
0.0
 40
0.1
  1
(R1-2, pk= 251.364, E=570965.499,N785598.449)
 72
1
 11
570965.4987459509
 21
785598.448927587
 31
0.0
100
AcDbText
 73
2
  0
CIRCLE
  5
D9
330
17
100
AcDbEntity
  8
桩基
100
AcDbCircle
 10
570968.4294851806
 20
785601.8637141933
 30
0.0
 40
0.75
  0
TEXT
  5
DA
330
17
100
AcDbEntity
  8
桩基
100
AcDbText
 10
570968.4294851806
 20
785601.8637141933
 30
0.0
 40
0.1
  1
(R1-2, pk= 251.364, E=570968.429,N785601.864)
 72
1
 11
570968.4294851806
 21
785601.8637141933
 31
0.0
100
AcDbText
 73
2
  0
CIRCLE
  5
DB
330
17
100
AcDbEntity
  8
桩基
100
AcDbCircle
 10
570961.1809379975
 20
785602.1546845242
 30
0.0
 40
0.75
  0
TEXT
  5
DC
330
17
100
AcDbEntity
  8
桩基
100
AcDbText
 10
570961.1809379975
 20
785602.1546845242
 30
0.0
 40
0.1
  1
(R1-2, pk= 251.364, E=570961.181,N785602.155)
 72
1
 11
570961.1809379975
 21
785602.1546845242
 31
0.0
100
AcDbText
 73
2
  0
CIRCLE
  5
DD
330
17
100
AcDbEntity
  8
桩基
100
AcDbCircle
 10
570964.1116772273
 20
785605.5694711305
 30
0.0
 40
0.75
  0
TEXT
  5
DE
330
17
100
AcDbEntity
  8
桩基
100
AcDbText
 10
570964.1116772273
 20
785605.5694711305
 30
0.0
 40
0.1
  1
(R1-2, pk= 251.364, E=570964.112,N785605.569)
 72
1
 11
570964.1116772273
 21
785605.5694711305
 31
0.0
100
AcDbText
 73
2
  0
CIRCLE
  5
DF
330
17
100
AcDbEntity
  8
桩基
100
AcDbCircle
 10
570956.8631300442
 20
785605.8604414613
 30
0.0
 40
0.75
  0
TEXT
  5
E0
330
17
100
AcDbEntity
  8
桩基
100
AcDbText
 10
570956.8631300442
 20
785605.8604414613
 30
0.0
 40
0.1
  1
(R1-2, pk= 251.364, E=570956.863,N785605.860)
 72
1
 11
570956.8631300442
 21
785605.8604414613
 31
0.0
100
AcDbText
 73
2
  0
CIRCLE
  5
E1
330
17
100
AcDbEntity
  8
桩基
100
AcDbCircle
 10
570959.793869274
 20
785609.2752280677
 30
0.0
 40
0.75
  0
TEXT
  5
E2
330
17
100
AcDbEntity
  8
桩基
100
AcDbText
 10
570959.793869274
 20
785609.2752280677
 30
0.0
 40
0.1
  1
(R1-2, pk= 251.364, E=570959.794,N785609.275)
 72
1
 11
570959.793869274
 21
785609.2752280677
 31
0.0
100
AcDbText
 73
2
  0
POLYLINE
  5
E3
330
17
100
AcDbEntity
  8
承台
100
AcDb2dPolyline
 66
1
 10
0.0
 20
0.0
 30
0.0
 70
1
  0
VERTEX
  5
E5
330
17
100
AcDbEntity
  8
承台
100
AcDbVertex
100
AcDb2dVertex
 10
570965.6332035555
 20
785596.6862815215
 30
0.0
 70
0
  0
VERTEX
  5
E6
330
17
100
AcDbEntity
  8
承台
100
AcDbVertex
100
AcDb2dVertex
 10
570970.1921312462
 20
785601.998171798
 30
0.0
 70
0
  0
VERTEX
  5
E7
330
17
100
AcDbEntity
  8
承台
100
AcDbVertex
100
AcDb2dVertex
 10
570959.6594116694
 20
785611.0378741332
 30
0.0
 70
0
  0
VERTEX
  5
E8
330
17
100
AcDbEntity
  8
承台
100
AcDbVertex
100
AcDb2dVertex
 10
570955.1004839786
 20
785605.7259838567
 30
0.0
 70
0
  0
SEQEND
  5
E4
330
E3
100
AcDbEntity
  8
承台
  0
CIRCLE
  5
E9
330
17
100
AcDbEntity
  8
桩基
100
AcDbCircle
 10
571019.0847821317
 20
785642.4790982059
 30
0.0
 40
0.75
  0
TEXT
  5
EA
330
17
100
AcDbEntity
  8
桩基
100
AcDbText
 10
571019.0847821317
 20
785642.4790982059
 30
0.0
 40
0.1
  1
(R1-3, pk= 322.364, E=571019.085,N785642.479)
 72
1
 11
571019.0847821317
 21
785642.4790982059
 31
0.0
100
AcDbText
 73
2
  0
CIRCLE
  5
EB
330
17
100
AcDbEntity
  8
桩基
100
AcDbCircle
 10
571023.2664404218
 20
785644.1415463842
 30
0.0
 40
0.75
  0
TEXT
  5
EC
330
17
100
AcDbEntity
  8
桩基
100
AcDbText
 10
571023.2664404218
 20
785644.1415463842
 30
0.0
 40
0.1
  1
(R1-3, pk= 322.364, E=571023.266,N785644.142)
 72
1
 11
571023.2664404218
 21
785644.1415463842
 31
0.0
100
AcDbText
 73
2
  0
CIRCLE
  5
ED
330
17
100
AcDbEntity
  8
桩基
100
AcDbCircle
 10
571017.4223339534
 20
785646.660756496
 30
0.0
 40
0.75
  0
TEXT
  5
EE
330
17
100
AcDbEntity
  8
桩基
100
AcDbText
 10
571017.4223339534
 20
785646.660756496
 30
0.0
 40
0.1
  1
(R1-3, pk= 322.364, E=571017.422,N785646.661)
 72
1
 11
571017.4223339534
 21
785646.660756496
 31
0.0
100
AcDbText
 73
2
  0
CIRCLE
  5
EF
330
17
100
AcDbEntity
  8
桩基
100
AcDbCircle
 10
571021.6039922435
 20
785648.3232046743
 30
0.0
 40
0.75
  0
TEXT
  5
F0
330
17
100
AcDbEntity
  8
桩基
100
AcDbText
 10
571021.6039922435
 20
785648.3232046743
 30
0.0
 40
0.1
  1
(R1-3, pk= 322.364, E=571021.604,N785648.323)
 72
1
 11
571021.6039922435
 21
785648.3232046743
 31
0.0
100
AcDbText
 73
2
  0
POLYLINE
  5
F1
330
17
100
AcDbEntity
  8
承台
100
AcDb2dPolyline
 66
1
 10
0.0
 20
0.0
 30
0.0
 70
1
  0
VERTEX
  5
F3
330
17
100
AcDbEntity
  8
承台
100
AcDbVertex
100
AcDb2dVertex
 10
571018.3850015451
 20
785640.855735298
 30
0.0
 70
0
  0
VERTEX
  5
F4
330
17
100
AcDbEntity
  8
承台
100
AcDbVertex
100
AcDb2dVertex
 10
571024.8898033297
 20
785643.4417657976
 30
0.0
 70
0
  0
VERTEX
  5
F5
330
17
100
AcDbEntity
  8
承台
100
AcDbVertex
100
AcDb2dVertex
 10
571022.3037728302
 20
785649.9465675822
 30
0.0
 70
0
  0
VERTEX
  5
F6
330
17
100
AcDbEntity
  8
承台
100
AcDbVertex
100
AcDb2dVertex
 10
571015.7989710455
 20
785647.3605370827
 30
0.0
 70
0
  0
SEQEND
  5
F2
330
F1
100
AcDbEntity
  8
承台
  0
CIRCLE
  5
F7
330
17
100
AcDbEntity
  8
桩基
100
AcDbCircle
 10
571062.2691181466
 20
785651.2174227788
 30
0.0
 40
0.75
  0
TEXT
  5
F8
330
17
100
AcDbEntity
  8
桩基
100
AcDbText
 10
571062.2691181466
 20
785651.2174227788
 30
0.0
 40
0.1
  1
(R1-4, pk= 367.364, E=571062.269,N785651.217)
 72
1
 11
571062.2691181466
 21
785651.2174227788
 31
0.0
100
AcDbText
 73
2
  0
CIRCLE
  5
F9
330
17
100
AcDbEntity
  8
桩基
100
AcDbCircle
 10
571066.7690190674
 20
785651.1875613955
 30
0.0
 40
0.75
  0
TEXT
  5
FA
330
17
100
AcDbEntity
  8
桩基
100
AcDbText
 10
571066.7690190674
 20
785651.1875613955
 30
0.0
 40
0.1
  1
(R1-4, pk= 367.364, E=571066.769,N785651.188)
 72
1
 11
571066.7690190674
 21
785651.1875613955
 31
0.0
100
AcDbText
 73
2
  0
CIRCLE
  5
FB
330
17
100
AcDbEntity
  8
桩基
100
AcDbCircle
 10
571062.29897953
 20
785655.7173236996
 30
0.0
 40
0.75
  0
TEXT
  5
FC
330
17
100
AcDbEntity
  8
桩基
100
AcDbText
 10
571062.29897953
 20
785655.7173236996
 30
0.0
 40
0.1
  1
(R1-4, pk= 367.364, E=571062.299,N785655.717)
 72
1
 11
571062.29897953
 21
785655.7173236996
 31
0.0
100
AcDbText
 73
2
  0
CIRCLE
  5
FD
330
17
100
AcDbEntity
  8
桩基
100
AcDbCircle
 10
571066.7988804508
 20
785655.6874623162
 30
0.0
 40
0.75
  0
TEXT
  5
FE
330
17
100
AcDbEntity
  8
桩基
100
AcDbText
 10
571066.7988804508
 20
785655.6874623162
 30
0.0
 40
0.1
  1
(R1-4, pk= 367.364, E=571066.799,N785655.687)
 72
1
 11
571066.7988804508
 21
785655.6874623162
 31
0.0
100
AcDbText
 73
2
  0
POLYLINE
  5
FF
330
17
100
AcDbEntity
  8
承台
100
AcDb2dPolyline
 66
1
 10
0.0
 20
0.0
 30
0.0
 70
1
  0
VERTEX
  5
101
330
17
100
AcDbEntity
  8
承台
100
AcDbVertex
100
AcDb2dVertex
 10
571061.0108508399
 20
785649.9757451295
 30
0.0
 70
0
  0
VERTEX
  5
102
330
17
100
AcDbEntity
  8
承台
100
AcDbVertex
100
AcDb2dVertex
 10
571068.0106967167
 20
785649.9292940887
 30
0.0
 70
0
  0
VERTEX
  5
103
330
17
100
AcDbEntity
  8
承台
100
AcDbVertex
100
AcDb2dVertex
 10
571068.0571477575
 20
785656.9291399656
 30
0.0
 70
0
  0
VERTEX
  5
104
330
17
100
AcDbEntity
  8
承台
100
AcDbVertex
100
AcDb2dVertex
 10
571061.0573018807
 20
785656.9755910063
 30
0.0
 70
0
  0
SEQEND
  5
100
330
FF
100
AcDbEntity
  8
承台
  0
CIRCLE
  5
105
330
17
100
AcDbEntity
  8
桩基
100
AcDbCircle
 10
571102.2708865582
 20
785648.1830578882
 30
0.0
 40
0.75
  0
TEXT
  5
106
330
17
100
AcDbEntity
  8
桩基
100
AcDbText
 10
571102.2708865582
 20
785648.1830578882
 30
0.0
 40
0.1
  1
(R1-5, pk= 407.728, E=571102.271,N785648.183)
 72
1
 11
571102.2708865582
 21
785648.1830578882
 31
0.0
100
AcDbText
 73
2
  0
CIRCLE
  5
107
330
17
100
AcDbEntity
  8
桩基
100
AcDbCircle
 10
571106.708485552
 20
785647.4362545866
 30
0.0
 40
0.75
  0
TEXT
  5
108
330
17
100
AcDbEntity
  8
桩基
100
AcDbText
 10
571106.708485552
 20
785647.4362545866
 30
0.0
 40
0.1
  1
(R1-5, pk= 407.728, E=571106.708,N785647.436)
 72
1
 11
571106.708485552
 21
785647.4362545866
 31
0.0
100
AcDbText
 73
2
  0
CIRCLE
  5
109
330
17
100
AcDbEntity
  8
桩基
100
AcDbCircle
 10
571103.0176898598
 20
785652.620656882
 30
0.0
 40
0.75
  0
TEXT
  5
10A
330
17
100
AcDbEntity
  8
桩基
100
AcDbText
 10
571103.0176898598
 20
785652.620656882
 30
0.0
 40
0.1
  1
(R1-5, pk= 407.728, E=571103.018,N785652.621)
 72
1
 11
571103.0176898598
 21
785652.620656882
 31
0.0
100
AcDbText
 73
2
  0
CIRCLE
  5
10B
330
17
100
AcDbEntity
  8
桩基
100
AcDbCircle
 10
571107.4552888536
 20
785651.8738535803
 30
0.0
 40
0.75
  0
TEXT
  5
10C
330
17
100
AcDbEntity
  8
桩基
100
AcDbText
 10
571107.4552888536
 20
785651.8738535803
 30
0.0
 40
0.1
  1
(R1-5, pk= 407.728, E=571107.455,N785651.874)
 72
1
 11
571107.4552888536
 21
785651.8738535803
 31
0.0
100
AcDbText
 73
2
  0
POLYLINE
  5
10D
330
17
100
AcDbEntity
  8
承台
100
AcDb2dPolyline
 66
1
 10
0.0
 20
0.0
 30
0.0
 70
1
  0
VERTEX
  5
10F
330
17
100
AcDbEntity
  8
承台
100
AcDbVertex
100
AcDb2dVertex
 10
571100.8307748096
 20
785647.1578368626
 30
0.0
 70
0
  0
VERTEX
  5
110
330
17
100
AcDbEntity
  8
承台
100
AcDbVertex
100
AcDb2dVertex
 10
571107.7337065776
 20
785645.9961428379
 30
0.0
 70
0
  0
VERTEX
  5
111
330
17
100
AcDbEntity
  8
承台
100
AcDbVertex
100
AcDb2dVertex
 10
571108.8954006023
 20
785652.8990746059
 30
0.0
 70
0
  0
VERTEX
  5
112
330
17
100
AcDbEntity
  8
承台
100
AcDbVertex
100
AcDb2dVertex
 10
571101.9924688343
 20
785654.0607686306
 30
0.0
 70
0
  0
SEQEND
  5
10E
330
10D
100
AcDbEntity
  8
承台
  0
CIRCLE
  5
113
330
17
100
AcDbEntity
  8
桩基
100
AcDbCircle
 10
571142.7085257499
 20
785643.1785976363
 30
0.0
 40
0.75
  0
TEXT
  5
114
330
17
100
AcDbEntity
  8
桩基
100
AcDbText
 10
571142.7085257499
 20
785643.1785976363
 30
0.0
 40
0.1
  1
(R1-6, pk= 448.428, E=571142.709,N785643.179)
 72
1
 11
571142.7085257499
 21
785643.1785976363
 31
0.0
100
AcDbText
 73
2
  0
CIRCLE
  5
115
330
17
100
AcDbEntity
  8
桩基
100
AcDbCircle
 10
571147.1407697755
 20
785642.4006433336
 30
0.0
 40
0.75
  0
TEXT
  5
116
330
17
100
AcDbEntity
  8
桩基
100
AcDbText
 10
571147.1407697755
 20
785642.4006433336
 30
0.0
 40
0.1
  1
(R1-6, pk= 448.428, E=571147.141,N785642.401)
 72
1
 11
571147.1407697755
 21
785642.4006433336
 31
0.0
100
AcDbText
 73
2
  0
CIRCLE
  5
117
330
17
100
AcDbEntity
  8
桩基
100
AcDbCircle
 10
571143.4864800526
 20
785647.6108416619
 30
0.0
 40
0.75
  0
TEXT
  5
118
330
17
100
AcDbEntity
  8
桩基
100
AcDbText
 10
571143.4864800526
 20
785647.6108416619
 30
0.0
 40
0.1
  1
(R1-6, pk= 448.428, E=571143.486,N785647.611)
 72
1
 11
571143.4864800526
 21
785647.6108416619
 31
0.0
100
AcDbText
 73
2
  0
CIRCLE
  5
119
330
17
100
AcDbEntity
  8
桩基
100
AcDbCircle
 10
571147.9187240782
 20
785646.8328873592
 30
0.0
 40
0.75
  0
TEXT
  5
11A
330
17
100
AcDbEntity
  8
桩基
100
AcDbText
 10
571147.9187240782
 20
785646.8328873592
 30
0.0
 40
0.1
  1
(R1-6, pk= 448.428, E=571147.919,N785646.833)
 72
1
 11
571147.9187240782
 21
785646.8328873592
 31
0.0
100
AcDbText
 73
2
  0
POLYLINE
  5
11B
330
17
100
AcDbEntity
  8
承台
100
AcDb2dPolyline
 66
1
 10
0.0
 20
0.0
 30
0.0
 70
1
  0
VERTEX
  5
11D
330
17
100
AcDbEntity
  8
承台
100
AcDbVertex
100
AcDb2dVertex
 10
571141.2612484364
 20
785642.1635171577
 30
0.0
 70
0
  0
VERTEX
  5
11E
330
17
100
AcDbEntity
  8
承台
100
AcDbVertex
100
AcDb2dVertex
 10
571148.1558502541
 20
785640.9533660201
 30
0.0
 70
0
  0
VERTEX
  5
11F
330
17
100
AcDbEntity
  8
承台
100
AcDbVertex
100
AcDb2dVertex
 10
571149.3660013917
 20
785647.8479678378
 30
0.0
 70
0
  0
VERTEX
  5
120
330
17
100
AcDbEntity
  8
承台
100
AcDbVertex
100
AcDb2dVertex
 10
571142.471399574
 20
785649.0581189754
 30
0.0
 70
0
  0
SEQEND
  5
11C
330
11B
100
AcDbEntity
  8
承台
  0
CIRCLE
  5
121
330
17
100
AcDbEntity
  8
桩基
100
AcDbCircle
 10
570992.4669468837
 20
785640.0158916914
 30
0.0
 40
0.75
  0
TEXT
  5
122
330
17
100
AcDbEntity
  8
桩基
100
AcDbText
 10
570992.4669468837
 20
785640.0158916914
 30
0.0
 40
0.1
  1
(R2-3, pk= 301.364, E=570992.467,N785640.016)
 72
1
 11
570992.4669468837
 21
785640.0158916914
 31
0.0
100
AcDbText
 73
2
  0
CIRCLE
  5
123
330
17
100
AcDbEntity
  8
桩基
100
AcDbCircle
 10
570995.8569472817
 20
785642.9752661695
 30
0.0
 40
0.75
  0
TEXT
  5
124
330
17
100
AcDbEntity
  8
桩基
100
AcDbText
 10
570995.8569472817
 20
785642.9752661695
 30
0.0
 40
0.1
  1
(R2-3, pk= 301.364, E=570995.857,N785642.975)
 72
1
 11
570995.8569472817
 21
785642.9752661695
 31
0.0
100
AcDbText
 73
2
  0
CIRCLE
  5
125
330
17
100
AcDbEntity
  8
桩基
100
AcDbCircle
 10
570989.5075724056
 20
785643.4058920895
 30
0.0
 40
0.75
  0
TEXT
  5
126
330
17
100
AcDbEntity
  8
桩基
100
AcDbText
 10
570989.5075724056
 20
785643.4058920895
 30
0.0
 40
0.1
  1
(R2-3, pk= 301.364, E=570989.508,N785643.406)
 72
1
 11
570989.5075724056
 21
785643.4058920895
 31
0.0
100
AcDbText
 73
2
  0
CIRCLE
  5
127
330
17
100
AcDbEntity
  8
桩基
100
AcDbCircle
 10
570992.8975728037
 20
785646.3652665676
 30
0.0
 40
0.75
  0
TEXT
  5
128
330
17
100
AcDbEntity
  8
桩基
100
AcDbText
 10
570992.8975728037
 20
785646.3652665676
 30
0.0
 40
0.1
  1
(R2-3, pk= 301.364, E=570992.898,N785646.365)
 72
1
 11
570992.8975728037
 21
785646.3652665676
 31
0.0
100
AcDbText
 73
2
  0
POLYLINE
  5
129
330
17
100
AcDbEntity
  8
承台
100
AcDb2dPolyline
 66
1
 10
0.0
 20
0.0
 30
0.0
 70
1
  0
VERTEX
  5
12B
330
17
100
AcDbEntity
  8
承台
100
AcDbVertex
100
AcDb2dVertex
 10
570992.3473285727
 20
785638.2521764481
 30
0.0
 70
0
  0
VERTEX
  5
12C
330
17
100
AcDbEntity
  8
承台
100
AcDbVertex
100
AcDb2dVertex
 10
570997.6206625251
 20
785642.8556478585
 30
0.0
 70
0
  0
VERTEX
  5
12D
330
17
100
AcDbEntity
  8
承台
100
AcDbVertex
100
AcDb2dVertex
 10
570993.0171911147
 20
785648.1289818109
 30
0.0
 70
0
  0
VERTEX
  5
12E
330
17
100
AcDbEntity
  8
承台
100
AcDbVertex
100
AcDb2dVertex
 10
570987.7438571623
 20
785643.5255104005
 30
0.0
 70
0
  0
SEQEND
  5
12A
330
129
100
AcDbEntity
  8
承台
  0
CIRCLE
  5
12F
330
17
100
AcDbEntity
  8
桩基
100
AcDbCircle
 10
571035.137294662
 20
785663.2452591159
 30
0.0
 40
0.75
  0
TEXT
  5
130
330
17
100
AcDbEntity
  8
桩基
100
AcDbText
 10
571035.137294662
 20
785663.2452591159
 30
0.0
 40
0.1
  1
(R2-4, pk= 352.562, E=571035.137,N785663.245)
 72
1
 11
571035.137294662
 21
785663.2452591159
 31
0.0
100
AcDbText
 73
2
  0
CIRCLE
  5
131
330
17
100
AcDbEntity
  8
桩基
100
AcDbCircle
 10
571039.5105310695
 20
785664.3058265701
 30
0.0
 40
0.75
  0
TEXT
  5
132
330
17
100
AcDbEntity
  8
桩基
100
AcDbText
 10
571039.5105310695
 20
785664.3058265701
 30
0.0
 40
0.1
  1
(R2-4, pk= 352.562, E=571039.511,N785664.306)
 72
1
 11
571039.5105310695
 21
785664.3058265701
 31
0.0
100
AcDbText
 73
2
  0
CIRCLE
  5
133
330
17
100
AcDbEntity
  8
桩基
100
AcDbCircle
 10
571034.0767272078
 20
785667.6184955235
 30
0.0
 40
0.75
  0
TEXT
  5
134
330
17
100
AcDbEntity
  8
桩基
100
AcDbText
 10
571034.0767272078
 20
785667.6184955235
 30
0.0
 40
0.1
  1
(R2-4, pk= 352.562, E=571034.077,N785667.618)
 72
1
 11
571034.0767272078
 21
785667.6184955235
 31
0.0
100
AcDbText
 73
2
  0
CIRCLE
  5
135
330
17
100
AcDbEntity
  8
桩基
100
AcDbCircle
 10
571038.4499636153
 20
785668.6790629777
 30
0.0
 40
0.75
  0
TEXT
  5
136
330
17
100
AcDbEntity
  8
桩基
100
AcDbText
 10
571038.4499636153
 20
785668.6790629777
 30
0.0
 40
0.1
  1
(R2-4, pk= 352.562, E=571038.450,N785668.679)
 72
1
 11
571038.4499636153
 21
785668.6790629777
 31
0.0
100
AcDbText
 73
2
  0
POLYLINE
  5
137
330
17
100
AcDbEntity
  8
承台
100
AcDb2dPolyline
 66
1
 10
0.0
 20
0.0
 30
0.0
 70
1
  0
VERTEX
  5
139
330
17
100
AcDbEntity
  8
承台
100
AcDbVertex
100
AcDb2dVertex
 10
571034.2171088416
 20
785661.7358691543
 30
0.0
 70
0
  0
VERTEX
  5
13A
330
17
100
AcDbEntity
  8
承台
100
AcDbVertex
100
AcDb2dVertex
 10
571041.0199210311
 20
785663.3856407498
 30
0.0
 70
0
  0
VERTEX
  5
13B
330
17
100
AcDbEntity
  8
承台
100
AcDbVertex
100
AcDb2dVertex
 10
571039.3701494356
 20
785670.1884529393
 30
0.0
 70
0
  0
VERTEX
  5
13C
330
17
100
AcDbEntity
  8
承台
100
AcDbVertex
100
AcDb2dVertex
 10
571032.5673372461
 20
785668.5386813438
 30
0.0
 70
0
  0
SEQEND
  5
138
330
137
100
AcDbEntity
  8
承台
  0
CIRCLE
  5
13D
330
17
100
AcDbEntity
  8
桩基
100
AcDbCircle
 10
571076.2449420897
 20
785666.5356103925
 30
0.0
 40
0.75
  0
TEXT
  5
13E
330
17
100
AcDbEntity
  8
桩基
100
AcDbText
 10
571076.2449420897
 20
785666.5356103925
 30
0.0
 40
0.1
  1
(R2-5, pk= 395.562, E=571076.245,N785666.536)
 72
1
 11
571076.2449420897
 21
785666.5356103925
 31
0.0
100
AcDbText
 73
2
  0
CIRCLE
  5
13F
330
17
100
AcDbEntity
  8
桩基
100
AcDbCircle
 10
571080.7164262788
 20
785666.0298148345
 30
0.0
 40
0.75
  0
TEXT
  5
140
330
17
100
AcDbEntity
  8
桩基
100
AcDbText
 10
571080.7164262788
 20
785666.0298148345
 30
0.0
 40
0.1
  1
(R2-5, pk= 395.562, E=571080.716,N785666.030)
 72
1
 11
571080.7164262788
 21
785666.0298148345
 31
0.0
100
AcDbText
 73
2
  0
CIRCLE
  5
141
330
17
100
AcDbEntity
  8
桩基
100
AcDbCircle
 10
571076.7507376476
 20
785671.0070945816
 30
0.0
 40
0.75
  0
TEXT
  5
142
330
17
100
AcDbEntity
  8
桩基
100
AcDbText
 10
571076.7507376476
 20
785671.0070945816
 30
0.0
 40
0.1
  1
(R2-5, pk= 395.562, E=571076.751,N785671.007)
 72
1
 11
571076.7507376476
 21
785671.0070945816
 31
0.0
100
AcDbText
 73
2
  0
CIRCLE
  5
143
330
17
100
AcDbEntity
  8
桩基
100
AcDbCircle
 10
571081.2222218368
 20
785670.5012990236
 30
0.0
 40
0.75
  0
TEXT
  5
144
330
17
100
AcDbEntity
  8
桩基
100
AcDbText
 10
571081.2222218368
 20
785670.5012990236
 30
0.0
 40
0.1
  1
(R2-5, pk= 395.562, E=571081.222,N785670.501)
 72
1
 11
571081.2222218368
 21
785670.5012990236
 31
0.0
100
AcDbText
 73
2
  0
POLYLINE
  5
145
330
17
100
AcDbEntity
  8
承台
100
AcDb2dPolyline
 66
1
 10
0.0
 20
0.0
 30
0.0
 70
1
  0
VERTEX
  5
147
330
17
100
AcDbEntity
  8
承台
100
AcDbVertex
100
AcDb2dVertex
 10
571074.8623643821
 20
785665.4340302171
 30
0.0
 70
0
  0
VERTEX
  5
148
330
17
100
AcDbEntity
  8
承台
100
AcDbVertex
100
AcDb2dVertex
 10
571081.8180064542
 20
785664.647237127
 30
0.0
 70
0
  0
VERTEX
  5
149
330
17
100
AcDbEntity
  8
承台
100
AcDbVertex
100
AcDb2dVertex
 10
571082.6047995443
 20
785671.602879199
 30
0.0
 70
0
  0
VERTEX
  5
14A
330
17
100
AcDbEntity
  8
承台
100
AcDbVertex
100
AcDb2dVertex
 10
571075.6491574723
 20
785672.3896722891
 30
0.0
 70
0
  0
SEQEND
  5
146
330
145
100
AcDbEntity
  8
承台
  0
CIRCLE
  5
14B
330
17
100
AcDbEntity
  8
桩基
100
AcDbCircle
 10
571115.3019076033
 20
785659.9639012741
 30
0.0
 40
0.75
  0
TEXT
  5
14C
330
17
100
AcDbEntity
  8
桩基
100
AcDbText
 10
571115.3019076033
 20
785659.9639012741
 30
0.0
 40
0.1
  1
(R2-6, pk= 435.562, E=571115.302,N785659.964)
 72
1
 11
571115.3019076033
 21
785659.9639012741
 31
0.0
100
AcDbText
 73
2
  0
CIRCLE
  5
14D
330
17
100
AcDbEntity
  8
桩基
100
AcDbCircle
 10
571119.704392511
 20
785659.0321681381
 30
0.0
 40
0.75
  0
TEXT
  5
14E
330
17
100
AcDbEntity
  8
桩基
100
AcDbText
 10
571119.704392511
 20
785659.0321681381
 30
0.0
 40
0.1
  1
(R2-6, pk= 435.562, E=571119.704,N785659.032)
 72
1
 11
571119.704392511
 21
785659.0321681381
 31
0.0
100
AcDbText
 73
2
  0
CIRCLE
  5
14F
330
17
100
AcDbEntity
  8
桩基
100
AcDbCircle
 10
571116.2336407393
 20
785664.3663861819
 30
0.0
 40
0.75
  0
TEXT
  5
150
330
17
100
AcDbEntity
  8
桩基
100
AcDbText
 10
571116.2336407393
 20
785664.3663861819
 30
0.0
 40
0.1
  1
(R2-6, pk= 435.562, E=571116.234,N785664.366)
 72
1
 11
571116.2336407393
 21
785664.3663861819
 31
0.0
100
AcDbText
 73
2
  0
CIRCLE
  5
151
330
17
100
AcDbEntity
  8
桩基
100
AcDbCircle
 10
571120.6361256471
 20
785663.4346530458
 30
0.0
 40
0.75
  0
TEXT
  5
152
330
17
100
AcDbEntity
  8
桩基
100
AcDbText
 10
571120.6361256471
 20
785663.4346530458
 30
0.0
 40
0.1
  1
(R2-6, pk= 435.562, E=571120.636,N785663.435)
 72
1
 11
571120.6361256471
 21
785663.4346530458
 31
0.0
100
AcDbText
 73
2
  0
POLYLINE
  5
153
330
17
100
AcDbEntity
  8
承台
100
AcDb2dPolyline
 66
1
 10
0.0
 20
0.0
 30
0.0
 70
1
  0
VERTEX
  5
155
330
17
100
AcDbEntity
  8
承台
100
AcDbVertex
100
AcDb2dVertex
 10
571113.8201803688
 20
785658.9998035597
 30
0.0
 70
0
  0
VERTEX
  5
156
330
17
100
AcDbEntity
  8
承台
100
AcDbVertex
100
AcDb2dVertex
 10
571120.6684902254
 20
785657.5504409036
 30
0.0
 70
0
  0
VERTEX
  5
157
330
17
100
AcDbEntity
  8
承台
100
AcDbVertex
100
AcDb2dVertex
 10
571122.1178528816
 20
785664.3987507602
 30
0.0
 70
0
  0
VERTEX
  5
158
330
17
100
AcDbEntity
  8
承台
100
AcDbVertex
100
AcDb2dVertex
 10
571115.269543025
 20
785665.8481134163
 30
0.0
 70
0
  0
SEQEND
  5
154
330
153
100
AcDbEntity
  8
承台
  0
CIRCLE
  5
159
330
17
100
AcDbEntity
  8
桩基
100
AcDbCircle
 10
571144.6519097453
 20
785653.7526157534
 30
0.0
 40
0.75
  0
TEXT
  5
15A
330
17
100
AcDbEntity
  8
桩基
100
AcDbText
 10
571144.6519097453
 20
785653.7526157534
 30
0.0
 40
0.1
  1
(R2-7, pk= 465.562, E=571144.652,N785653.753)
 72
1
 11
571144.6519097453
 21
785653.7526157534
 31
0.0
100
AcDbText
 73
2
  0
CIRCLE
  5
15B
330
17
100
AcDbEntity
  8
桩基
100
AcDbCircle
 10
571149.0544058818
 20
785652.8209356751
 30
0.0
 40
0.75
  0
TEXT
  5
15C
330
17
100
AcDbEntity
  8
桩基
100
AcDbText
 10
571149.0544058818
 20
785652.8209356751
 30
0.0
 40
0.1
  1
(R2-7, pk= 465.562, E=571149.054,N785652.821)
 72
1
 11
571149.0544058818
 21
785652.8209356751
 31
0.0
100
AcDbText
 73
2
  0
CIRCLE
  5
15D
330
17
100
AcDbEntity
  8
桩基
100
AcDbCircle
 10
571145.5835898237
 20
785658.1551118899
 30
0.0
 40
0.75
  0
TEXT
  5
15E
330
17
100
AcDbEntity
  8
桩基
100
AcDbText
 10
571145.5835898237
 20
785658.1551118899
 30
0.0
 40
0.1
  1
(R2-7, pk= 465.562, E=571145.584,N785658.155)
 72
1
 11
571145.5835898237
 21
785658.1551118899
 31
0.0
100
AcDbText
 73
2
  0
CIRCLE
  5
15F
330
17
100
AcDbEntity
  8
桩基
100
AcDbCircle
 10
571149.9860859602
 20
785657.2234318116
 30
0.0
 40
0.75
  0
TEXT
  5
160
330
17
100
AcDbEntity
  8
桩基
100
AcDbText
 10
571149.9860859602
 20
785657.2234318116
 30
0.0
 40
0.1
  1
(R2-7, pk= 465.562, E=571149.986,N785657.223)
 72
1
 11
571149.9860859602
 21
785657.2234318116
 31
0.0
100
AcDbText
 73
2
  0
POLYLINE
  5
161
330
17
100
AcDbEntity
  8
承台
100
AcDb2dPolyline
 66
1
 10
0.0
 20
0.0
 30
0.0
 70
1
  0
VERTEX
  5
163
330
17
100
AcDbEntity
  8
承台
100
AcDbVertex
100
AcDb2dVertex
 10
571143.17019413
 20
785652.7885001817
 30
0.0
 70
0
  0
VERTEX
  5
164
330
17
100
AcDbEntity
  8
承台
100
AcDbVertex
100
AcDb2dVertex
 10
571150.0185214535
 20
785651.3392200598
 30
0.0
 70
0
  0
VERTEX
  5
165
330
17
100
AcDbEntity
  8
承台
100
AcDbVertex
100
AcDb2dVertex
 10
571151.4678015754
 20
785658.1875473832
 30
0.0
 70
0
  0
VERTEX
  5
166
330
17
100
AcDbEntity
  8
承台
100
AcDbVertex
100
AcDb2dVertex
 10
571144.619474252
 20
785659.6368275052
 30
0.0
 70
0
  0
SEQEND
  5
162
330
161
100
AcDbEntity
  8
承台
  0
CIRCLE
  5
167
330
17
100
AcDbEntity
  8
桩基
100
AcDbCircle
 10
571188.6768555
 20
785644.4357412077
 30
0.0
 40
0.75
  0
TEXT
  5
168
330
17
100
AcDbEntity
  8
桩基
100
AcDbText
 10
571188.6768555
 20
785644.4357412077
 30
0.0
 40
0.1
  1
(R2-8, pk= 510.562, E=571188.677,N785644.436)
 72
1
 11
571188.6768555
 21
785644.4357412077
 31
0.0
100
AcDbText
 73
2
  0
CIRCLE
  5
169
330
17
100
AcDbEntity
  8
桩基
100
AcDbCircle
 10
571193.0793516365
 20
785643.5040611293
 30
0.0
 40
0.75
  0
TEXT
  5
16A
330
17
100
AcDbEntity
  8
桩基
100
AcDbText
 10
571193.0793516365
 20
785643.5040611293
 30
0.0
 40
0.1
  1
(R2-8, pk= 510.562, E=571193.079,N785643.504)
 72
1
 11
571193.0793516365
 21
785643.5040611293
 31
0.0
100
AcDbText
 73
2
  0
CIRCLE
  5
16B
330
17
100
AcDbEntity
  8
桩基
100
AcDbCircle
 10
571189.6085355784
 20
785648.8382373442
 30
0.0
 40
0.75
  0
TEXT
  5
16C
330
17
100
AcDbEntity
  8
桩基
100
AcDbText
 10
571189.6085355784
 20
785648.8382373442
 30
0.0
 40
0.1
  1
(R2-8, pk= 510.562, E=571189.609,N785648.838)
 72
1
 11
571189.6085355784
 21
785648.8382373442
 31
0.0
100
AcDbText
 73
2
  0
CIRCLE
  5
16D
330
17
100
AcDbEntity
  8
桩基
100
AcDbCircle
 10
571194.0110317149
 20
785647.9065572658
 30
0.0
 40
0.75
  0
TEXT
  5
16E
330
17
100
AcDbEntity
  8
桩基
100
AcDbText
 10
571194.0110317149
 20
785647.9065572658
 30
0.0
 40
0.1
  1
(R2-8, pk= 510.562, E=571194.011,N785647.907)
 72
1
 11
571194.0110317149
 21
785647.9065572658
 31
0.0
100
AcDbText
 73
2
  0
POLYLINE
  5
16F
330
17
100
AcDbEntity
  8
承台
100
AcDb2dPolyline
 66
1
 10
0.0
 20
0.0
 30
0.0
 70
1
  0
VERTEX
  5
171
330
17
100
AcDbEntity
  8
承台
100
AcDbVertex
100
AcDb2dVertex
 10
571187.1951398847
 20
785643.471625636
 30
0.0
 70
0
  0
VERTEX
  5
172
330
17
100
AcDbEntity
  8
承台
100
AcDbVertex
100
AcDb2dVertex
 10
571194.0434672082
 20
785642.022345514
 30
0.0
 70
0
  0
VERTEX
  5
173
330
17
100
AcDbEntity
  8
承台
100
AcDbVertex
100
AcDb2dVertex
 10
571195.4927473301
 20
785648.8706728375
 30
0.0
 70
0
  0
VERTEX
  5
174
330
17
100
AcDbEntity
  8
承台
100
AcDbVertex
100
AcDb2dVertex
 10
571188.6444200067
 20
785650.3199529594
 30
0.0
 70
0
  0
SEQEND
  5
170
330
16F
100
AcDbEntity
  8
承台
  0
CIRCLE
  5
175
330
17
100
AcDbEntity
  8
桩基
100
AcDbCircle
 10
571097.1269674777
 20
785785.0602985283
 30
0.0
 40
0.75
  0
TEXT
  5
176
330
17
100
AcDbEntity
  8
桩基
100
AcDbText
 10
571097.1269674777
 20
785785.0602985283
 30
0.0
 40
0.1
  1
(R3-1, pk= 184.505, E=571097.127,N785785.060)
 72
1
 11
571097.1269674777
 21
785785.0602985283
 31
0.0
100
AcDbText
 73
2
  0
CIRCLE
  5
177
330
17
100
AcDbEntity
  8
桩基
100
AcDbCircle
 10
571094.3232567495
 20
785781.540468113
 30
0.0
 40
0.75
  0
TEXT
  5
178
330
17
100
AcDbEntity
  8
桩基
100
AcDbText
 10
571094.3232567495
 20
785781.540468113
 30
0.0
 40
0.1
  1
(R3-1, pk= 184.505, E=571094.323,N785781.540)
 72
1
 11
571094.3232567495
 21
785781.540468113
 31
0.0
100
AcDbText
 73
2
  0
CIRCLE
  5
179
330
17
100
AcDbEntity
  8
桩基
100
AcDbCircle
 10
571100.646797893
 20
785782.2565878001
 30
0.0
 40
0.75
  0
TEXT
  5
17A
330
17
100
AcDbEntity
  8
桩基
100
AcDbText
 10
571100.646797893
 20
785782.2565878001
 30
0.0
 40
0.1
  1
(R3-1, pk= 184.505, E=571100.647,N785782.257)
 72
1
 11
571100.646797893
 21
785782.2565878001
 31
0.0
100
AcDbText
 73
2
  0
CIRCLE
  5
17B
330
17
100
AcDbEntity
  8
桩基
100
AcDbCircle
 10
571097.8430871648
 20
785778.7367573848
 30
0.0
 40
0.75
  0
TEXT
  5
17C
330
17
100
AcDbEntity
  8
桩基
100
AcDbText
 10
571097.8430871648
 20
785778.7367573848
 30
0.0
 40
0.1
  1
(R3-1, pk= 184.505, E=571097.843,N785778.737)
 72
1
 11
571097.8430871648
 21
785778.7367573848
 31
0.0
100
AcDbText
 73
2
  0
POLYLINE
  5
17D
330
17
100
AcDbEntity
  8
承台
100
AcDb2dPolyline
 66
1
 10
0.0
 20
0.0
 30
0.0
 70
1
  0
VERTEX
  5
17F
330
17
100
AcDbEntity
  8
承台
100
AcDbVertex
100
AcDb2dVertex
 10
571096.9280453424
 20
785786.8168377348
 30
0.0
 70
0
  0
VERTEX
  5
180
330
17
100
AcDbEntity
  8
承台
100
AcDbVertex
100
AcDb2dVertex
 10
571092.566717543
 20
785781.3415459777
 30
0.0
 70
0
  0
VERTEX
  5
181
330
17
100
AcDbEntity
  8
承台
100
AcDbVertex
100
AcDb2dVertex
 10
571098.0420093001
 20
785776.9802181784
 30
0.0
 70
0
  0
VERTEX
  5
182
330
17
100
AcDbEntity
  8
承台
100
AcDbVertex
100
AcDb2dVertex
 10
571102.4033370995
 20
785782.4555099354
 30
0.0
 70
0
  0
SEQEND
  5
17E
330
17D
100
AcDbEntity
  8
承台
  0
CIRCLE
  5
183
330
17
100
AcDbEntity
  8
桩基
100
AcDbCircle
 10
571077.5973372016
 20
785755.9803347338
 30
0.0
 40
0.75
  0
TEXT
  5
184
330
17
100
AcDbEntity
  8
桩基
100
AcDbText
 10
571077.5973372016
 20
785755.9803347338
 30
0.0
 40
0.1
  1
(R3-2, pk= 219.505, E=571077.597,N785755.980)
 72
1
 11
571077.5973372016
 21
785755.9803347338
 31
0.0
100
AcDbText
 73
2
  0
CIRCLE
  5
185
330
17
100
AcDbEntity
  8
桩基
100
AcDbCircle
 10
571075.5911649544
 20
785751.9522740447
 30
0.0
 40
0.75
  0
TEXT
  5
186
330
17
100
AcDbEntity
  8
桩基
100
AcDbText
 10
571075.5911649544
 20
785751.9522740447
 30
0.0
 40
0.1
  1
(R3-2, pk= 219.505, E=571075.591,N785751.952)
 72
1
 11
571075.5911649544
 21
785751.9522740447
 31
0.0
100
AcDbText
 73
2
  0
CIRCLE
  5
187
330
17
100
AcDbEntity
  8
桩基
100
AcDbCircle
 10
571081.6253978907
 20
785753.9741624866
 30
0.0
 40
0.75
  0
TEXT
  5
188
330
17
100
AcDbEntity
  8
桩基
100
AcDbText
 10
571081.6253978907
 20
785753.9741624866
 30
0.0
 40
0.1
  1
(R3-2, pk= 219.505, E=571081.625,N785753.974)
 72
1
 11
571081.6253978907
 21
785753.9741624866
 31
0.0
100
AcDbText
 73
2
  0
CIRCLE
  5
189
330
17
100
AcDbEntity
  8
桩基
100
AcDbCircle
 10
571079.6192256435
 20
785749.9461017975
 30
0.0
 40
0.75
  0
TEXT
  5
18A
330
17
100
AcDbEntity
  8
桩基
100
AcDbText
 10
571079.6192256435
 20
785749.9461017975
 30
0.0
 40
0.1
  1
(R3-2, pk= 219.505, E=571079.619,N785749.946)
 72
1
 11
571079.6192256435
 21
785749.9461017975
 31
0.0
100
AcDbText
 73
2
  0
POLYLINE
  5
18B
330
17
100
AcDbEntity
  8
承台
100
AcDb2dPolyline
 66
1
 10
0.0
 20
0.0
 30
0.0
 70
1
  0
VERTEX
  5
18D
330
17
100
AcDbEntity
  8
承台
100
AcDbVertex
100
AcDb2dVertex
 10
571077.0357015233
 20
785757.6565105495
 30
0.0
 70
0
  0
VERTEX
  5
18E
330
17
100
AcDbEntity
  8
承台
100
AcDbVertex
100
AcDb2dVertex
 10
571073.9149891387
 20
785751.3906383665
 30
0.0
 70
0
  0
VERTEX
  5
18F
330
17
100
AcDbEntity
  8
承台
100
AcDbVertex
100
AcDb2dVertex
 10
571080.1808613217
 20
785748.2699259819
 30
0.0
 70
0
  0
VERTEX
  5
190
330
17
100
AcDbEntity
  8
承台
100
AcDbVertex
100
AcDb2dVertex
 10
571083.3015737063
 20
785754.5357981649
 30
0.0
 70
0
  0
SEQEND
  5
18C
330
18B
100
AcDbEntity
  8
承台
  0
CIRCLE
  5
191
330
17
100
AcDbEntity
  8
桩基
100
AcDbCircle
 10
571069.8137724916
 20
785707.6439369415
 30
0.0
 40
0.75
  0
TEXT
  5
192
330
17
100
AcDbEntity
  8
桩基
100
AcDbText
 10
571069.8137724916
 20
785707.6439369415
 30
0.0
 40
0.1
  1
(R3-3, pk= 269.505, E=571069.814,N785707.644)
 72
1
 11
571069.8137724916
 21
785707.6439369415
 31
0.0
100
AcDbText
 73
2
  0
CIRCLE
  5
193
330
17
100
AcDbEntity
  8
桩基
100
AcDbCircle
 10
571070.7412816838
 20
785703.2405602034
 30
0.0
 40
0.75
  0
TEXT
  5
194
330
17
100
AcDbEntity
  8
桩基
100
AcDbText
 10
571070.7412816838
 20
785703.2405602034
 30
0.0
 40
0.1
  1
(R3-3, pk= 269.505, E=571070.741,N785703.241)
 72
1
 11
571070.7412816838
 21
785703.2405602034
 31
0.0
100
AcDbText
 73
2
  0
CIRCLE
  5
195
330
17
100
AcDbEntity
  8
桩基
100
AcDbCircle
 10
571074.2171492297
 20
785708.5714461337
 30
0.0
 40
0.75
  0
TEXT
  5
196
330
17
100
AcDbEntity
  8
桩基
100
AcDbText
 10
571074.2171492297
 20
785708.5714461337
 30
0.0
 40
0.1
  1
(R3-3, pk= 269.505, E=571074.217,N785708.571)
 72
1
 11
571074.2171492297
 21
785708.5714461337
 31
0.0
100
AcDbText
 73
2
  0
CIRCLE
  5
197
330
17
100
AcDbEntity
  8
桩基
100
AcDbCircle
 10
571075.1446584219
 20
785704.1680693956
 30
0.0
 40
0.75
  0
TEXT
  5
198
330
17
100
AcDbEntity
  8
桩基
100
AcDbText
 10
571075.1446584219
 20
785704.1680693956
 30
0.0
 40
0.1
  1
(R3-3, pk= 269.505, E=571075.145,N785704.168)
 72
1
 11
571075.1446584219
 21
785704.1680693956
 31
0.0
100
AcDbText
 73
2
  0
POLYLINE
  5
199
330
17
100
AcDbEntity
  8
承台
100
AcDb2dPolyline
 66
1
 10
0.0
 20
0.0
 30
0.0
 70
1
  0
VERTEX
  5
19B
330
17
100
AcDbEntity
  8
承台
100
AcDbVertex
100
AcDb2dVertex
 10
571068.3329708443
 20
785708.6094557043
 30
0.0
 70
0
  0
VERTEX
  5
19C
330
17
100
AcDbEntity
  8
承台
100
AcDbVertex
100
AcDb2dVertex
 10
571069.775762921
 20
785701.7597585561
 30
0.0
 70
0
  0
VERTEX
  5
19D
330
17
100
AcDbEntity
  8
承台
100
AcDbVertex
100
AcDb2dVertex
 10
571076.6254600692
 20
785703.2025506328
 30
0.0
 70
0
  0
VERTEX
  5
19E
330
17
100
AcDbEntity
  8
承台
100
AcDbVertex
100
AcDb2dVertex
 10
571075.1826679925
 20
785710.052247781
 30
0.0
 70
0
  0
SEQEND
  5
19A
330
199
100
AcDbEntity
  8
承台
  0
CIRCLE
  5
19F
330
17
100
AcDbEntity
  8
桩基
100
AcDbCircle
 10
571082.7889231263
 20
785677.8687057984
 30
0.0
 40
0.75
  0
TEXT
  5
1A0
330
17
100
AcDbEntity
  8
桩基
100
AcDbText
 10
571082.7889231263
 20
785677.8687057984
 30
0.0
 40
0.1
  1
(R3-4, pk= 302.505, E=571082.789,N785677.869)
 72
1
 11
571082.7889231263
 21
785677.8687057984
 31
0.0
100
AcDbText
 73
2
  0
CIRCLE
  5
1A1
330
17
100
AcDbEntity
  8
桩基
100
AcDbCircle
 10
571085.6151656715
 20
785674.3669415179
 30
0.0
 40
0.75
  0
TEXT
  5
1A2
330
17
100
AcDbEntity
  8
桩基
100
AcDbText
 10
571085.6151656715
 20
785674.3669415179
 30
0.0
 40
0.1
  1
(R3-4, pk= 302.505, E=571085.615,N785674.367)
 72
1
 11
571085.6151656715
 21
785674.3669415179
 31
0.0
100
AcDbText
 73
2
  0
CIRCLE
  5
1A3
330
17
100
AcDbEntity
  8
桩基
100
AcDbCircle
 10
571086.2906874068
 20
785680.6949483436
 30
0.0
 40
0.75
  0
TEXT
  5
1A4
330
17
100
AcDbEntity
  8
桩基
100
AcDbText
 10
571086.2906874068
 20
785680.6949483436
 30
0.0
 40
0.1
  1
(R3-4, pk= 302.505, E=571086.291,N785680.695)
 72
1
 11
571086.2906874068
 21
785680.6949483436
 31
0.0
100
AcDbText
 73
2
  0
CIRCLE
  5
1A5
330
17
100
AcDbEntity
  8
桩基
100
AcDbCircle
 10
571089.1169299519
 20
785677.1931840631
 30
0.0
 40
0.75
  0
TEXT
  5
1A6
330
17
100
AcDbEntity
  8
桩基
100
AcDbText
 10
571089.1169299519
 20
785677.1931840631
 30
0.0
 40
0.1
  1
(R3-4, pk= 302.505, E=571089.117,N785677.193)
 72
1
 11
571089.1169299519
 21
785677.1931840631
 31
0.0
100
AcDbText
 73
2
  0
POLYLINE
  5
1A7
330
17
100
AcDbEntity
  8
承台
100
AcDb2dPolyline
 66
1
 10
0.0
 20
0.0
 30
0.0
 70
1
  0
VERTEX
  5
1A9
330
17
100
AcDbEntity
  8
承台
100
AcDbVertex
100
AcDb2dVertex
 10
571081.0311434525
 20
785678.0563507249
 30
0.0
 70
0
  0
VERTEX
  5
1AA
330
17
100
AcDbEntity
  8
承台
100
AcDbVertex
100
AcDb2dVertex
 10
571085.427520745
 20
785672.6091618441
 30
0.0
 70
0
  0
VERTEX
  5
1AB
330
17
100
AcDbEntity
  8
承台
100
AcDbVertex
100
AcDb2dVertex
 10
571090.8747096257
 20
785677.0055391366
 30
0.0
 70
0
  0
VERTEX
  5
1AC
330
17
100
AcDbEntity
  8
承台
100
AcDbVertex
100
AcDb2dVertex
 10
571086.4783323333
 20
785682.4527280173
 30
0.0
 70
0
  0
SEQEND
  5
1A8
330
1A7
100
AcDbEntity
  8
承台
  0
CIRCLE
  5
1AD
330
17
100
AcDbEntity
  8
桩基
100
AcDbCircle
 10
571104.913454689
 20
785657.9924735584
 30
0.0
 40
0.75
  0
TEXT
  5
1AE
330
17
100
AcDbEntity
  8
桩基
100
AcDbText
 10
571104.913454689
 20
785657.9924735584
 30
0.0
 40
0.1
  1
(R3-5, pk= 332.505, E=571104.913,N785657.992)
 72
1
 11
571104.913454689
 21
785657.9924735584
 31
0.0
100
AcDbText
 73
2
  0
CIRCLE
  5
1AF
330
17
100
AcDbEntity
  8
桩基
100
AcDbCircle
 10
571108.9056986946
 20
785655.9159409198
 30
0.0
 40
0.75
  0
TEXT
  5
1B0
330
17
100
AcDbEntity
  8
桩基
100
AcDbText
 10
571108.9056986946
 20
785655.9159409198
 30
0.0
 40
0.1
  1
(R3-5, pk= 332.505, E=571108.906,N785655.916)
 72
1
 11
571108.9056986946
 21
785655.9159409198
 31
0.0
100
AcDbText
 73
2
  0
CIRCLE
  5
1B1
330
17
100
AcDbEntity
  8
桩基
100
AcDbCircle
 10
571106.9899873276
 20
785661.9847175641
 30
0.0
 40
0.75
  0
TEXT
  5
1B2
330
17
100
AcDbEntity
  8
桩基
100
AcDbText
 10
571106.9899873276
 20
785661.9847175641
 30
0.0
 40
0.1
  1
(R3-5, pk= 332.505, E=571106.990,N785661.985)
 72
1
 11
571106.9899873276
 21
785661.9847175641
 31
0.0
100
AcDbText
 73
2
  0
CIRCLE
  5
1B3
330
17
100
AcDbEntity
  8
桩基
100
AcDbCircle
 10
571110.9822313333
 20
785659.9081849254
 30
0.0
 40
0.75
  0
TEXT
  5
1B4
330
17
100
AcDbEntity
  8
桩基
100
AcDbText
 10
571110.9822313333
 20
785659.9081849254
 30
0.0
 40
0.1
  1
(R3-5, pk= 332.505, E=571110.982,N785659.908)
 72
1
 11
571110.9822313333
 21
785659.9081849254
 31
0.0
100
AcDbText
 73
2
  0
POLYLINE
  5
1B5
330
17
100
AcDbEntity
  8
承台
100
AcDb2dPolyline
 66
1
 10
0.0
 20
0.0
 30
0.0
 70
1
  0
VERTEX
  5
1B7
330
17
100
AcDbEntity
  8
承台
100
AcDbVertex
100
AcDb2dVertex
 10
571103.2276833989
 20
785657.460331512
 30
0.0
 70
0
  0
VERTEX
  5
1B8
330
17
100
AcDbEntity
  8
承台
100
AcDbVertex
100
AcDb2dVertex
 10
571109.437840741
 20
785654.2301696297
 30
0.0
 70
0
  0
VERTEX
  5
1B9
330
17
100
AcDbEntity
  8
承台
100
AcDbVertex
100
AcDb2dVertex
 10
571112.6680026234
 20
785660.4403269718
 30
0.0
 70
0
  0
VERTEX
  5
1BA
330
17
100
AcDbEntity
  8
承台
100
AcDbVertex
100
AcDb2dVertex
 10
571106.4578452812
 20
785663.6704888542
 30
0.0
 70
0
  0
SEQEND
  5
1B6
330
1B5
100
AcDbEntity
  8
承台
  0
CIRCLE
  5
1BB
330
17
100
AcDbEntity
  8
桩基
100
AcDbCircle
 10
571106.0186366754
 20
785785.4487406462
 30
0.0
 40
0.75
  0
TEXT
  5
1BC
330
17
100
AcDbEntity
  8
桩基
100
AcDbText
 10
571106.0186366754
 20
785785.4487406462
 30
0.0
 40
0.1
  1
(R4-1, pk= 177.388, E=571106.019,N785785.449)
 72
1
 11
571106.0186366754
 21
785785.4487406462
 31
0.0
100
AcDbText
 73
2
  0
CIRCLE
  5
1BD
330
17
100
AcDbEntity
  8
桩基
100
AcDbCircle
 10
571104.4999141543
 20
785781.2127659174
 30
0.0
 40
0.75
  0
TEXT
  5
1BE
330
17
100
AcDbEntity
  8
桩基
100
AcDbText
 10
571104.4999141543
 20
785781.2127659174
 30
0.0
 40
0.1
  1
(R4-1, pk= 177.388, E=571104.500,N785781.213)
 72
1
 11
571104.4999141543
 21
785781.2127659174
 31
0.0
100
AcDbText
 73
2
  0
CIRCLE
  5
1BF
330
17
100
AcDbEntity
  8
桩基
100
AcDbCircle
 10
571110.2546114043
 20
785783.9300181251
 30
0.0
 40
0.75
  0
TEXT
  5
1C0
330
17
100
AcDbEntity
  8
桩基
100
AcDbText
 10
571110.2546114043
 20
785783.9300181251
 30
0.0
 40
0.1
  1
(R4-1, pk= 177.388, E=571110.255,N785783.930)
 72
1
 11
571110.2546114043
 21
785783.9300181251
 31
0.0
100
AcDbText
 73
2
  0
CIRCLE
  5
1C1
330
17
100
AcDbEntity
  8
桩基
100
AcDbCircle
 10
571108.7358888831
 20
785779.6940433963
 30
0.0
 40
0.75
  0
TEXT
  5
1C2
330
17
100
AcDbEntity
  8
桩基
100
AcDbText
 10
571108.7358888831
 20
785779.6940433963
 30
0.0
 40
0.1
  1
(R4-1, pk= 177.388, E=571108.736,N785779.694)
 72
1
 11
571108.7358888831
 21
785779.6940433963
 31
0.0
100
AcDbText
 73
2
  0
POLYLINE
  5
1C3
330
17
100
AcDbEntity
  8
承台
100
AcDb2dPolyline
 66
1
 10
0.0
 20
0.0
 30
0.0
 70
1
  0
VERTEX
  5
1C5
330
17
100
AcDbEntity
  8
承台
100
AcDbVertex
100
AcDb2dVertex
 10
571105.2638443955
 20
785787.0472676601
 30
0.0
 70
0
  0
VERTEX
  5
1C6
330
17
100
AcDbEntity
  8
承台
100
AcDbVertex
100
AcDb2dVertex
 10
571102.9013871404
 20
785780.4579736375
 30
0.0
 70
0
  0
VERTEX
  5
1C7
330
17
100
AcDbEntity
  8
承台
100
AcDbVertex
100
AcDb2dVertex
 10
571109.490681163
 20
785778.0955163824
 30
0.0
 70
0
  0
VERTEX
  5
1C8
330
17
100
AcDbEntity
  8
承台
100
AcDbVertex
100
AcDb2dVertex
 10
571111.8531384182
 20
785784.684810405
 30
0.0
 70
0
  0
SEQEND
  5
1C4
330
1C3
100
AcDbEntity
  8
承台
  0
CIRCLE
  5
1C9
330
17
100
AcDbEntity
  8
桩基
100
AcDbCircle
 10
571090.5428873918
 20
785730.6697074883
 30
0.0
 40
0.75
  0
TEXT
  5
1CA
330
17
100
AcDbEntity
  8
桩基
100
AcDbText
 10
571090.5428873918
 20
785730.6697074883
 30
0.0
 40
0.1
  1
(R4-2, pk= 234.388, E=571090.543,N785730.670)
 72
1
 11
571090.5428873918
 21
785730.6697074883
 31
0.0
100
AcDbText
 73
2
  0
CIRCLE
  5
1CB
330
17
100
AcDbEntity
  8
桩基
100
AcDbCircle
 10
571091.2585027525
 20
785726.2269724461
 30
0.0
 40
0.75
  0
TEXT
  5
1CC
330
17
100
AcDbEntity
  8
桩基
100
AcDbText
 10
571091.2585027525
 20
785726.2269724461
 30
0.0
 40
0.1
  1
(R4-2, pk= 234.388, E=571091.259,N785726.227)
 72
1
 11
571091.2585027525
 21
785726.2269724461
 31
0.0
100
AcDbText
 73
2
  0
CIRCLE
  5
1CD
330
17
100
AcDbEntity
  8
桩基
100
AcDbCircle
 10
571094.985622434
 20
785731.385322849
 30
0.0
 40
0.75
  0
TEXT
  5
1CE
330
17
100
AcDbEntity
  8
桩基
100
AcDbText
 10
571094.985622434
 20
785731.385322849
 30
0.0
 40
0.1
  1
(R4-2, pk= 234.388, E=571094.986,N785731.385)
 72
1
 11
571094.985622434
 21
785731.385322849
 31
0.0
100
AcDbText
 73
2
  0
CIRCLE
  5
1CF
330
17
100
AcDbEntity
  8
桩基
100
AcDbCircle
 10
571095.7012377947
 20
785726.9425878068
 30
0.0
 40
0.75
  0
TEXT
  5
1D0
330
17
100
AcDbEntity
  8
桩基
100
AcDbText
 10
571095.7012377947
 20
785726.9425878068
 30
0.0
 40
0.1
  1
(R4-2, pk= 234.388, E=571095.701,N785726.943)
 72
1
 11
571095.7012377947
 21
785726.9425878068
 31
0.0
100
AcDbText
 73
2
  0
POLYLINE
  5
1D1
330
17
100
AcDbEntity
  8
承台
100
AcDb2dPolyline
 66
1
 10
0.0
 20
0.0
 30
0.0
 70
1
  0
VERTEX
  5
1D3
330
17
100
AcDbEntity
  8
承台
100
AcDbVertex
100
AcDb2dVertex
 10
571089.1100122798
 20
785731.7050185109
 30
0.0
 70
0
  0
VERTEX
  5
1D4
330
17
100
AcDbEntity
  8
承台
100
AcDbVertex
100
AcDb2dVertex
 10
571090.2231917299
 20
785724.7940973341
 30
0.0
 70
0
  0
VERTEX
  5
1D5
330
17
100
AcDbEntity
  8
承台
100
AcDbVertex
100
AcDb2dVertex
 10
571097.1341129066
 20
785725.9072767842
 30
0.0
 70
0
  0
VERTEX
  5
1D6
330
17
100
AcDbEntity
  8
承台
100
AcDbVertex
100
AcDb2dVertex
 10
571096.0209334566
 20
785732.818197961
 30
0.0
 70
0
  0
SEQEND
  5
1D2
330
1D1
100
AcDbEntity
  8
承台
  0
CIRCLE
  5
1D7
330
17
100
AcDbEntity
  8
桩基
100
AcDbCircle
 10
571112.3231787337
 20
785690.4822078181
 30
0.0
 40
0.75
  0
TEXT
  5
1D8
330
17
100
AcDbEntity
  8
桩基
100
AcDbText
 10
571112.3231787337
 20
785690.4822078181
 30
0.0
 40
0.1
  1
(R4-3, pk= 279.388, E=571112.323,N785690.482)
 72
1
 11
571112.3231787337
 21
785690.4822078181
 31
0.0
100
AcDbText
 73
2
  0
CIRCLE
  5
1D9
330
17
100
AcDbEntity
  8
桩基
100
AcDbCircle
 10
571115.8580726064
 20
785687.6975129858
 30
0.0
 40
0.75
  0
TEXT
  5
1DA
330
17
100
AcDbEntity
  8
桩基
100
AcDbText
 10
571115.8580726064
 20
785687.6975129858
 30
0.0
 40
0.1
  1
(R4-3, pk= 279.388, E=571115.858,N785687.698)
 72
1
 11
571115.8580726064
 21
785687.6975129858
 31
0.0
100
AcDbText
 73
2
  0
CIRCLE
  5
1DB
330
17
100
AcDbEntity
  8
桩基
100
AcDbCircle
 10
571115.107873566
 20
785694.0171016908
 30
0.0
 40
0.75
  0
TEXT
  5
1DC
330
17
100
AcDbEntity
  8
桩基
100
AcDbText
 10
571115.107873566
 20
785694.0171016908
 30
0.0
 40
0.1
  1
(R4-3, pk= 279.388, E=571115.108,N785694.017)
 72
1
 11
571115.107873566
 21
785694.0171016908
 31
0.0
100
AcDbText
 73
2
  0
CIRCLE
  5
1DD
330
17
100
AcDbEntity
  8
桩基
100
AcDbCircle
 10
571118.6427674387
 20
785691.2324068585
 30
0.0
 40
0.75
  0
TEXT
  5
1DE
330
17
100
AcDbEntity
  8
桩基
100
AcDbText
 10
571118.6427674387
 20
785691.2324068585
 30
0.0
 40
0.1
  1
(R4-3, pk= 279.388, E=571118.643,N785691.232)
 72
1
 11
571118.6427674387
 21
785691.2324068585
 31
0.0
100
AcDbText
 73
2
  0
POLYLINE
  5
1DF
330
17
100
AcDbEntity
  8
承台
100
AcDb2dPolyline
 66
1
 10
0.0
 20
0.0
 30
0.0
 70
1
  0
VERTEX
  5
1E1
330
17
100
AcDbEntity
  8
承台
100
AcDbVertex
100
AcDb2dVertex
 10
571110.5677374267
 20
785690.2738191957
 30
0.0
 70
0
  0
VERTEX
  5
1E2
330
17
100
AcDbEntity
  8
承台
100
AcDbVertex
100
AcDb2dVertex
 10
571116.0664612288
 20
785685.9420716788
 30
0.0
 70
0
  0
VERTEX
  5
1E3
330
17
100
AcDbEntity
  8
承台
100
AcDbVertex
100
AcDb2dVertex
 10
571120.3982087456
 20
785691.4407954809
 30
0.0
 70
0
  0
VERTEX
  5
1E4
330
17
100
AcDbEntity
  8
承台
100
AcDbVertex
100
AcDb2dVertex
 10
571114.8994849436
 20
785695.7725429977
 30
0.0
 70
0
  0
SEQEND
  5
1E0
330
1DF
100
AcDbEntity
  8
承台
  0
CIRCLE
  5
1E5
330
17
100
AcDbEntity
  8
桩基
100
AcDbCircle
 10
571148.300587586
 20
785671.1631150567
 30
0.0
 40
0.75
  0
TEXT
  5
1E6
330
17
100
AcDbEntity
  8
桩基
100
AcDbText
 10
571148.300587586
 20
785671.1631150567
 30
0.0
 40
0.1
  1
(R4-4, pk= 319.388, E=571148.301,N785671.163)
 72
1
 11
571148.300587586
 21
785671.1631150567
 31
0.0
100
AcDbText
 73
2
  0
CIRCLE
  5
1E7
330
17
100
AcDbEntity
  8
桩基
100
AcDbCircle
 10
571152.6037790478
 20
785669.8468539722
 30
0.0
 40
0.75
  0
TEXT
  5
1E8
330
17
100
AcDbEntity
  8
桩基
100
AcDbText
 10
571152.6037790478
 20
785669.8468539722
 30
0.0
 40
0.1
  1
(R4-4, pk= 319.388, E=571152.604,N785669.847)
 72
1
 11
571152.6037790478
 21
785669.8468539722
 31
0.0
100
AcDbText
 73
2
  0
CIRCLE
  5
1E9
330
17
100
AcDbEntity
  8
桩基
100
AcDbCircle
 10
571149.6168486705
 20
785675.4663065185
 30
0.0
 40
0.75
  0
TEXT
  5
1EA
330
17
100
AcDbEntity
  8
桩基
100
AcDbText
 10
571149.6168486705
 20
785675.4663065185
 30
0.0
 40
0.1
  1
(R4-4, pk= 319.388, E=571149.617,N785675.466)
 72
1
 11
571149.6168486705
 21
785675.4663065185
 31
0.0
100
AcDbText
 73
2
  0
CIRCLE
  5
1EB
330
17
100
AcDbEntity
  8
桩基
100
AcDbCircle
 10
571153.9200401324
 20
785674.150045434
 30
0.0
 40
0.75
  0
TEXT
  5
1EC
330
17
100
AcDbEntity
  8
桩基
100
AcDbText
 10
571153.9200401324
 20
785674.150045434
 30
0.0
 40
0.1
  1
(R4-4, pk= 319.388, E=571153.920,N785674.150)
 72
1
 11
571153.9200401324
 21
785674.150045434
 31
0.0
100
AcDbText
 73
2
  0
POLYLINE
  5
1ED
330
17
100
AcDbEntity
  8
承台
100
AcDb2dPolyline
 66
1
 10
0.0
 20
0.0
 30
0.0
 70
1
  0
VERTEX
  5
1EF
330
17
100
AcDbEntity
  8
承台
100
AcDbVertex
100
AcDb2dVertex
 10
571146.7396285454
 20
785670.3334121741
 30
0.0
 70
0
  0
VERTEX
  5
1F0
330
17
100
AcDbEntity
  8
承台
100
AcDbVertex
100
AcDb2dVertex
 10
571153.4334819304
 20
785668.2858949315
 30
0.0
 70
0
  0
VERTEX
  5
1F1
330
17
100
AcDbEntity
  8
承台
100
AcDbVertex
100
AcDb2dVertex
 10
571155.480999173
 20
785674.9797483166
 30
0.0
 70
0
  0
VERTEX
  5
1F2
330
17
100
AcDbEntity
  8
承台
100
AcDbVertex
100
AcDb2dVertex
 10
571148.787145788
 20
785677.0272655592
 30
0.0
 70
0
  0
SEQEND
  5
1EE
330
1ED
100
AcDbEntity
  8
承台
  0
CIRCLE
  5
1F3
330
17
100
AcDbEntity
  8
桩基
100
AcDbCircle
 10
571191.6280918248
 20
785658.6906054076
 30
0.0
 40
0.75
  0
TEXT
  5
1F4
330
17
100
AcDbEntity
  8
桩基
100
AcDbText
 10
571191.6280918248
 20
785658.6906054076
 30
0.0
 40
0.1
  1
(R4-5, pk= 364.388, E=571191.628,N785658.691)
 72
1
 11
571191.6280918248
 21
785658.6906054076
 31
0.0
100
AcDbText
 73
2
  0
CIRCLE
  5
1F5
330
17
100
AcDbEntity
  8
桩基
100
AcDbCircle
 10
571195.9624594088
 20
785657.4809535369
 30
0.0
 40
0.75
  0
TEXT
  5
1F6
330
17
100
AcDbEntity
  8
桩基
100
AcDbText
 10
571195.9624594088
 20
785657.4809535369
 30
0.0
 40
0.1
  1
(R4-5, pk= 364.388, E=571195.962,N785657.481)
 72
1
 11
571195.9624594088
 21
785657.4809535369
 31
0.0
100
AcDbText
 73
2
  0
CIRCLE
  5
1F7
330
17
100
AcDbEntity
  8
桩基
100
AcDbCircle
 10
571192.8377436955
 20
785663.0249729916
 30
0.0
 40
0.75
  0
TEXT
  5
1F8
330
17
100
AcDbEntity
  8
桩基
100
AcDbText
 10
571192.8377436955
 20
785663.0249729916
 30
0.0
 40
0.1
  1
(R4-5, pk= 364.388, E=571192.838,N785663.025)
 72
1
 11
571192.8377436955
 21
785663.0249729916
 31
0.0
100
AcDbText
 73
2
  0
CIRCLE
  5
1F9
330
17
100
AcDbEntity
  8
桩基
100
AcDbCircle
 10
571197.1721112794
 20
785661.8153211209
 30
0.0
 40
0.75
  0
TEXT
  5
1FA
330
17
100
AcDbEntity
  8
桩基
100
AcDbText
 10
571197.1721112794
 20
785661.8153211209
 30
0.0
 40
0.1
  1
(R4-5, pk= 364.388, E=571197.172,N785661.815)
 72
1
 11
571197.1721112794
 21
785661.8153211209
 31
0.0
100
AcDbText
 73
2
  0
POLYLINE
  5
1FB
330
17
100
AcDbEntity
  8
承台
100
AcDb2dPolyline
 66
1
 10
0.0
 20
0.0
 30
0.0
 70
1
  0
VERTEX
  5
1FD
330
17
100
AcDbEntity
  8
承台
100
AcDbVertex
100
AcDb2dVertex
 10
571190.0880864208
 20
785657.8226288205
 30
0.0
 70
0
  0
VERTEX
  5
1FE
330
17
100
AcDbEntity
  8
承台
100
AcDbVertex
100
AcDb2dVertex
 10
571196.8304359958
 20
785655.9409481329
 30
0.0
 70
0
  0
VERTEX
  5
1FF
330
17
100
AcDbEntity
  8
承台
100
AcDbVertex
100
AcDb2dVertex
 10
571198.7121166835
 20
785662.6832977079
 30
0.0
 70
0
  0
VERTEX
  5
200
330
17
100
AcDbEntity
  8
承台
100
AcDbVertex
100
AcDb2dVertex
 10
571191.9697671084
 20
785664.5649783956
 30
0.0
 70
0
  0
SEQEND
  5
1FC
330
1FB
100
AcDbEntity
  8
承台
  0
CIRCLE
  5
201
330
17
100
AcDbEntity
  8
桩基
100
AcDbCircle
 10
571234.9718196313
 20
785646.5942729122
 30
0.0
 40
0.75
  0
TEXT
  5
202
330
17
100
AcDbEntity
  8
桩基
100
AcDbText
 10
571234.9718196313
 20
785646.5942729122
 30
0.0
 40
0.1
  1
(R4-6, pk= 409.388, E=571234.972,N785646.594)
 72
1
 11
571234.9718196313
 21
785646.5942729122
 31
0.0
100
AcDbText
 73
2
  0
CIRCLE
  5
203
330
17
100
AcDbEntity
  8
桩基
100
AcDbCircle
 10
571239.3061872153
 20
785645.3846210416
 30
0.0
 40
0.75
  0
TEXT
  5
204
330
17
100
AcDbEntity
  8
桩基
100
AcDbText
 10
571239.3061872153
 20
785645.3846210416
 30
0.0
 40
0.1
  1
(R4-6, pk= 409.388, E=571239.306,N785645.385)
 72
1
 11
571239.3061872153
 21
785645.3846210416
 31
0.0
100
AcDbText
 73
2
  0
CIRCLE
  5
205
330
17
100
AcDbEntity
  8
桩基
100
AcDbCircle
 10
571236.181471502
 20
785650.9286404962
 30
0.0
 40
0.75
  0
TEXT
  5
206
330
17
100
AcDbEntity
  8
桩基
100
AcDbText
 10
571236.181471502
 20
785650.9286404962
 30
0.0
 40
0.1
  1
(R4-6, pk= 409.388, E=571236.181,N785650.929)
 72
1
 11
571236.181471502
 21
785650.9286404962
 31
0.0
100
AcDbText
 73
2
  0
CIRCLE
  5
207
330
17
100
AcDbEntity
  8
桩基
100
AcDbCircle
 10
571240.5158390859
 20
785649.7189886256
 30
0.0
 40
0.75
  0
TEXT
  5
208
330
17
100
AcDbEntity
  8
桩基
100
AcDbText
 10
571240.5158390859
 20
785649.7189886256
 30
0.0
 40
0.1
  1
(R4-6, pk= 409.388, E=571240.516,N785649.719)
 72
1
 11
571240.5158390859
 21
785649.7189886256
 31
0.0
100
AcDbText
 73
2
  0
POLYLINE
  5
209
330
17
100
AcDbEntity
  8
承台
100
AcDb2dPolyline
 66
1
 10
0.0
 20
0.0
 30
0.0
 70
1
  0
VERTEX
  5
20B
330
17
100
AcDbEntity
  8
承台
100
AcDbVertex
100
AcDb2dVertex
 10
571233.4318142273
 20
785645.7262963252
 30
0.0
 70
0
  0
VERTEX
  5
20C
330
17
100
AcDbEntity
  8
承台
100
AcDbVertex
100
AcDb2dVertex
 10
571240.1741638023
 20
785643.8446156376
 30
0.0
 70
0
  0
VERTEX
  5
20D
330
17
100
AcDbEntity
  8
承台
100
AcDbVertex
100
AcDb2dVertex
 10
571242.05584449
 20
785650.5869652126
 30
0.0
 70
0
  0
VERTEX
  5
20E
330
17
100
AcDbEntity
  8
承台
100
AcDbVertex
100
AcDb2dVertex
 10
571235.3134949149
 20
785652.4686459003
 30
0.0
 70
0
  0
SEQEND
  5
20A
330
209
100
AcDbEntity
  8
承台
  0
ENDSEC
  0
SECTION
  2
OBJECTS
  0
DICTIONARY
  5
A
330
0
100
AcDbDictionary
280
0
281
1
  3
ACAD_COLOR
350
B
  3
ACAD_GROUP
350
C
  3
ACAD_LAYOUT
350
D
  3
ACAD_MATERIAL
350
E
  3
ACAD_MLEADERSTYLE
350
F
  3
ACAD_MLINESTYLE
350
10
  3
ACAD_PLOTSETTINGS
350
11
  3
ACAD_PLOTSTYLENAME
350
12
  3
ACAD_SCALELIST
350
14
  3
ACAD_TABLESTYLE
350
15
  3
ACAD_VISUALSTYLE
350
16
  3
EZDXF_META
350
2D
  0
DICTIONARY
  5
B
330
A
100
AcDbDictionary
280
0
281
1
  0
DICTIONARY
  5
C
330
A
100
AcDbDictionary
280
0
281
1
  0
DICTIONARY
  5
D
330
A
100
AcDbDictionary
280
0
281
1
  3
Model
350
1A
  3
Layout1
350
1E
  0
DICTIONARY
  5
E
330
A
100
AcDbDictionary
280
0
281
1
  3
ByBlock
350
1F
  3
ByLayer
350
20
  3
Global
350
21
  0
DICTIONARY
  5
F
330
A
100
AcDbDictionary
280
0
281
1
  3
Standard
350
2C
  0
DICTIONARY
  5
10
330
A
100
AcDbDictionary
280
0
281
1
  3
Standard
350
22
  0
DICTIONARY
  5
11
330
A
100
AcDbDictionary
280
0
281
1
  0
ACDBDICTIONARYWDFLT
  5
12
330
A
100
AcDbDictionary
280
0
281
1
  3
Normal
350
13
100
AcDbDictionaryWithDefault
340
13
  0
ACDBPLACEHOLDER
  5
13
330
12
  0
DICTIONARY
  5
14
330
A
100
AcDbDictionary
280
0
281
1
  0
DICTIONARY
  5
15
330
A
100
AcDbDictionary
280
0
281
1
  0
DICTIONARY
  5
16
330
A
100
AcDbDictionary
280
0
281
1
  0
LAYOUT
  5
1A
330
D
100
AcDbPlotSettings
  1

  2
Adobe PDF
  4
A3
  6

 40
7.5
 41
20.0
 42
7.5
 43
20.0
 44
420.0
 45
297.0
 46
0.0
 47
0.0
 48
0.0
 49
0.0
140
0.0
141
0.0
142
1.0
143
1.0
 70
1024
 72
1
 73
0
 74
5
  7

 75
16
 76
0
 77
2
 78
300
147
1.0
148
0.0
149
0.0
100
AcDbLayout
  1
Model
 70
1
 71
0
 10
0.0
 20
0.0
 11
420.0
 21
297.0
 12
0.0
 22
0.0
 32
0.0
 14
1e+20
 24
1e+20
 34
1e+20
 15
-1e+20
 25
-1e+20
 35
-1e+20
146
0.0
 13
0.0
 23
0.0
 33
0.0
 16
1.0
 26
0.0
 36
0.0
 17
0.0
 27
1.0
 37
0.0
 76
1
330
17
  0
LAYOUT
  5
1E
330
D
100
AcDbPlotSettings
  1

  2
Adobe PDF
  4
A3
  6

 40
7.5
 41
20.0
 42
7.5
 43
20.0
 44
420.0
 45
297.0
 46
0.0
 47
0.0
 48
0.0
 49
0.0
140
0.0
141
0.0
142
1.0
143
1.0
 70
0
 72
1
 73
0
 74
5
  7

 75
16
 76
0
 77
2
 78
300
147
1.0
148
0.0
149
0.0
100
AcDbLayout
  1
Layout1
 70
1
 71
1
 10
0.0
 20
0.0
 11
420.0
 21
297.0
 12
0.0
 22
0.0
 32
0.0
 14
1e+20
 24
1e+20
 34
1e+20
 15
-1e+20
 25
-1e+20
 35
-1e+20
146
0.0
 13
0.0
 23
0.0
 33
0.0
 16
1.0
 26
0.0
 36
0.0
 17
0.0
 27
1.0
 37
0.0
 76
1
330
1B
  0
MATERIAL
  5
1F
102
{ACAD_REACTORS
330
E
102
}
330
E
100
AcDbMaterial
  1
ByBlock
  2

 70
0
 40
1.0
 71
1
 41
1.0
 91
-1023410177
 42
1.0
 72
1
  3

 73
1
 74
1
 75
1
 44
0.5
 73
0
 45
1.0
 46
1.0
 77
1
  4

 78
1
 79
1
170
1
 48
1.0
171
1
  6

172
1
173
1
174
1
140
1.0
141
1.0
175
1
  7

176
1
177
1
178
1
143
1.0
179
1
  8

270
1
271
1
272
1
145
1.0
146
1.0
273
1
  9

274
1
275
1
276
1
 42
1.0
 72
1
  3

 73
1
 74
1
 75
1
 94
63
  0
MATERIAL
  5
20
102
{ACAD_REACTORS
330
E
102
}
330
E
100
AcDbMaterial
  1
ByLayer
  2

 70
0
 40
1.0
 71
1
 41
1.0
 91
-1023410177
 42
1.0
 72
1
  3

 73
1
 74
1
 75
1
 44
0.5
 73
0
 45
1.0
 46
1.0
 77
1
  4

 78
1
 79
1
170
1
 48
1.0
171
1
  6

172
1
173
1
174
1
140
1.0
141
1.0
175
1
  7

176
1
177
1
178
1
143
1.0
179
1
  8

270
1
271
1
272
1
145
1.0
146
1.0
273
1
  9

274
1
275
1
276
1
 42
1.0
 72
1
  3

 73
1
 74
1
 75
1
 94
63
  0
MATERIAL
  5
21
102
{ACAD_REACTORS
330
E
102
}
330
E
100
AcDbMaterial
  1
Global
  2

 70
0
 40
1.0
 71
1
 41
1.0
 91
-1023410177
 42
1.0
 72
1
  3

 73
1
 74
1
 75
1
 44
0.5
 73
0
 45
1.0
 46
1.0
 77
1
  4

 78
1
 79
1
170
1
 48
1.0
171
1
  6

172
1
173
1
174
1
140
1.0
141
1.0
175
1
  7

176
1
177
1
178
1
143
1.0
179
1
  8

270
1
271
1
272
1
145
1.0
146
1.0
273
1
  9

274
1
275
1
276
1
 42
1.0
 72
1
  3

 73
1
 74
1
 75
1
 94
63
  0
MLINESTYLE
  5
22
102
{ACAD_REACTORS
330
10
102
}
330
10
100
AcDbMlineStyle
  2
Standard
 70
0
  3

 62
256
 51
90.0
 52
90.0
 71
2
 49
0.5
 62
256
  6
BYLAYER
 49
-0.5
 62
256
  6
BYLAYER
  0
MLEADERSTYLE
  5
2C
102
{ACAD_REACTORS
330
F
102
}
330
F
100
AcDbMLeaderStyle
179
2
170
2
171
1
172
0
 90
2
 40
0.0
 41
0.0
173
1
 91
-1056964608
 92
-2
290
1
 42
2.0
291
1
 43
8.0
  3
Standard
 44
4.0
300

342
29
174
1
175
1
176
0
178
1
 93
-1056964608
 45
4.0
292
0
297
0
 46
4.0
 94
-1056964608
 47
1.0
 49
1.0
140
1.0
294
1
141
0.0
177
0
142
1.0
295
0
296
0
143
3.75
271
0
272
9
273
9
  0
DICTIONARY
  5
2D
330
A
100
AcDbDictionary
281
1
  3
CREATED_BY_EZDXF
350
2E
  3
WRITTEN_BY_EZDXF
350
211
  0
DICTIONARYVAR
  5
2E
330
2D
100
DictionaryVariables
280
0
  1
1.1.0 @ 2023-12-25T08:01:35.946920+00:00
  0
DICTIONARYVAR
  5
211
330
2D
100
DictionaryVariables
280
0
  1
1.1.0 @ 2023-12-25T08:01:35.954921+00:00
  0
ENDSEC
  0
EOF
