  0
SECTION
  2
HEADER
  9
$ACADVER
  1
AC1027
  9
$ACADMAINTVER
 70
105
  9
$DWGCODEPAGE
  3
ANSI_1252
  9
$LASTSAVEDBY
  1
ezdxf
  9
$REQUIREDVERSIONS
160
0
  9
$INSBASE
 10
0.0
 20
0.0
 30
0.0
  9
$EXTMIN
 10
1e+20
 20
1e+20
 30
1e+20
  9
$EXTMAX
 10
-1e+20
 20
-1e+20
 30
-1e+20
  9
$LIMMIN
 10
0.0
 20
0.0
  9
$LIMMAX
 10
420.0
 20
297.0
  9
$ORTHOMODE
 70
0
  9
$REGENMODE
 70
1
  9
$FILLMODE
 70
1
  9
$QTEXTMODE
 70
0
  9
$MIRRTEXT
 70
1
  9
$LTSCALE
 40
1.0
  9
$ATTMODE
 70
1
  9
$TEXTSIZE
 40
2.5
  9
$TRACEWID
 40
1.0
  9
$TEXTSTYLE
  7
Standard
  9
$CLAYER
  8
0
  9
$CELTYPE
  6
ByLayer
  9
$CECOLOR
 62
256
  9
$CELTSCALE
 40
1.0
  9
$DISPSILH
 70
0
  9
$DIMSCALE
 40
1.0
  9
$DIMASZ
 40
2.5
  9
$DIMEXO
 40
0.625
  9
$DIMDLI
 40
3.75
  9
$DIMRND
 40
0.0
  9
$DIMDLE
 40
0.0
  9
$DIMEXE
 40
1.25
  9
$DIMTP
 40
0.0
  9
$DIMTM
 40
0.0
  9
$DIMTXT
 40
2.5
  9
$DIMCEN
 40
2.5
  9
$DIMTSZ
 40
0.0
  9
$DIMTOL
 70
0
  9
$DIMLIM
 70
0
  9
$DIMTIH
 70
0
  9
$DIMTOH
 70
0
  9
$DIMSE1
 70
0
  9
$DIMSE2
 70
0
  9
$DIMTAD
 70
1
  9
$DIMZIN
 70
8
  9
$DIMBLK
  1

  9
$DIMASO
 70
1
  9
$DIMSHO
 70
1
  9
$DIMPOST
  1

  9
$DIMAPOST
  1

  9
$DIMALT
 70
0
  9
$DIMALTD
 70
3
  9
$DIMALTF
 40
0.03937007874
  9
$DIMLFAC
 40
1.0
  9
$DIMTOFL
 70
1
  9
$DIMTVP
 40
0.0
  9
$DIMTIX
 70
0
  9
$DIMSOXD
 70
0
  9
$DIMSAH
 70
0
  9
$DIMBLK1
  1

  9
$DIMBLK2
  1

  9
$DIMSTYLE
  2
ISO-25
  9
$DIMCLRD
 70
0
  9
$DIMCLRE
 70
0
  9
$DIMCLRT
 70
0
  9
$DIMTFAC
 40
1.0
  9
$DIMGAP
 40
0.625
  9
$DIMJUST
 70
0
  9
$DIMSD1
 70
0
  9
$DIMSD2
 70
0
  9
$DIMTOLJ
 70
0
  9
$DIMTZIN
 70
8
  9
$DIMALTZ
 70
0
  9
$DIMALTTZ
 70
0
  9
$DIMUPT
 70
0
  9
$DIMDEC
 70
2
  9
$DIMTDEC
 70
2
  9
$DIMALTU
 70
2
  9
$DIMALTTD
 70
3
  9
$DIMTXSTY
  7
Standard
  9
$DIMAUNIT
 70
0
  9
$DIMADEC
 70
0
  9
$DIMALTRND
 40
0.0
  9
$DIMAZIN
 70
0
  9
$DIMDSEP
 70
44
  9
$DIMATFIT
 70
3
  9
$DIMFRAC
 70
0
  9
$DIMLDRBLK
  1

  9
$DIMLUNIT
 70
2
  9
$DIMLWD
 70
-2
  9
$DIMLWE
 70
-2
  9
$DIMTMOVE
 70
0
  9
$DIMFXL
 40
1.0
  9
$DIMFXLON
 70
0
  9
$DIMJOGANG
 40
0.785398163397
  9
$DIMTFILL
 70
0
  9
$DIMTFILLCLR
 70
0
  9
$DIMARCSYM
 70
0
  9
$DIMLTYPE
  6

  9
$DIMLTEX1
  6

  9
$DIMLTEX2
  6

  9
$DIMTXTDIRECTION
 70
0
  9
$LUNITS
 70
2
  9
$LUPREC
 70
4
  9
$SKETCHINC
 40
1.0
  9
$FILLETRAD
 40
10.0
  9
$AUNITS
 70
0
  9
$AUPREC
 70
2
  9
$MENU
  1
.
  9
$ELEVATION
 40
0.0
  9
$PELEVATION
 40
0.0
  9
$THICKNESS
 40
0.0
  9
$LIMCHECK
 70
0
  9
$CHAMFERA
 40
0.0
  9
$CHAMFERB
 40
0.0
  9
$CHAMFERC
 40
0.0
  9
$CHAMFERD
 40
0.0
  9
$SKPOLY
 70
0
  9
$TDCREATE
 40
2460525.6967592593
  9
$TDUCREATE
 40
2458532.153996898
  9
$TDUPDATE
 40
2460525.6967592593
  9
$TDUUPDATE
 40
2458532.1544311
  9
$TDINDWG
 40
0.0
  9
$TDUSRTIMER
 40
0.0
  9
$USRTIMER
 70
1
  9
$ANGBASE
 50
0.0
  9
$ANGDIR
 70
0
  9
$PDMODE
 70
0
  9
$PDSIZE
 40
0.0
  9
$PLINEWID
 40
0.0
  9
$SPLFRAME
 70
0
  9
$SPLINETYPE
 70
6
  9
$SPLINESEGS
 70
8
  9
$HANDSEED
  5
214
  9
$SURFTAB1
 70
6
  9
$SURFTAB2
 70
6
  9
$SURFTYPE
 70
6
  9
$SURFU
 70
6
  9
$SURFV
 70
6
  9
$UCSBASE
  2

  9
$UCSNAME
  2

  9
$UCSORG
 10
0.0
 20
0.0
 30
0.0
  9
$UCSXDIR
 10
1.0
 20
0.0
 30
0.0
  9
$UCSYDIR
 10
0.0
 20
1.0
 30
0.0
  9
$UCSORTHOREF
  2

  9
$UCSORTHOVIEW
 70
0
  9
$UCSORGTOP
 10
0.0
 20
0.0
 30
0.0
  9
$UCSORGBOTTOM
 10
0.0
 20
0.0
 30
0.0
  9
$UCSORGLEFT
 10
0.0
 20
0.0
 30
0.0
  9
$UCSORGRIGHT
 10
0.0
 20
0.0
 30
0.0
  9
$UCSORGFRONT
 10
0.0
 20
0.0
 30
0.0
  9
$UCSORGBACK
 10
0.0
 20
0.0
 30
0.0
  9
$PUCSBASE
  2

  9
$PUCSNAME
  2

  9
$PUCSORG
 10
0.0
 20
0.0
 30
0.0
  9
$PUCSXDIR
 10
1.0
 20
0.0
 30
0.0
  9
$PUCSYDIR
 10
0.0
 20
1.0
 30
0.0
  9
$PUCSORTHOREF
  2

  9
$PUCSORTHOVIEW
 70
0
  9
$PUCSORGTOP
 10
0.0
 20
0.0
 30
0.0
  9
$PUCSORGBOTTOM
 10
0.0
 20
0.0
 30
0.0
  9
$PUCSORGLEFT
 10
0.0
 20
0.0
 30
0.0
  9
$PUCSORGRIGHT
 10
0.0
 20
0.0
 30
0.0
  9
$PUCSORGFRONT
 10
0.0
 20
0.0
 30
0.0
  9
$PUCSORGBACK
 10
0.0
 20
0.0
 30
0.0
  9
$USERI1
 70
0
  9
$USERI2
 70
0
  9
$USERI3
 70
0
  9
$USERI4
 70
0
  9
$USERI5
 70
0
  9
$USERR1
 40
0.0
  9
$USERR2
 40
0.0
  9
$USERR3
 40
0.0
  9
$USERR4
 40
0.0
  9
$USERR5
 40
0.0
  9
$WORLDVIEW
 70
1
  9
$SHADEDGE
 70
3
  9
$SHADEDIF
 70
70
  9
$TILEMODE
 70
1
  9
$MAXACTVP
 70
64
  9
$PINSBASE
 10
0.0
 20
0.0
 30
0.0
  9
$PLIMCHECK
 70
0
  9
$PEXTMIN
 10
1e+20
 20
1e+20
 30
1e+20
  9
$PEXTMAX
 10
-1e+20
 20
-1e+20
 30
-1e+20
  9
$PLIMMIN
 10
0.0
 20
0.0
  9
$PLIMMAX
 10
420.0
 20
297.0
  9
$UNITMODE
 70
0
  9
$VISRETAIN
 70
1
  9
$PLINEGEN
 70
0
  9
$PSLTSCALE
 70
1
  9
$TREEDEPTH
 70
3020
  9
$CMLSTYLE
  2
Standard
  9
$CMLJUST
 70
0
  9
$CMLSCALE
 40
20.0
  9
$PROXYGRAPHICS
 70
1
  9
$MEASUREMENT
 70
1
  9
$CELWEIGHT
370
-1
  9
$ENDCAPS
280
0
  9
$JOINSTYLE
280
0
  9
$LWDISPLAY
290
0
  9
$INSUNITS
 70
6
  9
$HYPERLINKBASE
  1

  9
$STYLESHEET
  1

  9
$XEDIT
290
1
  9
$CEPSNTYPE
380
0
  9
$PSTYLEMODE
290
1
  9
$FINGERPRINTGUID
  2
{D1C7D24C-D753-4829-A701-1E9750A26735}
  9
$VERSIONGUID
  2
{3203F5EB-B3DE-4001-8DCF-F9A073F76F14}
  9
$EXTNAMES
290
1
  9
$PSVPSCALE
 40
0.0
  9
$OLESTARTUP
290
0
  9
$SORTENTS
280
127
  9
$INDEXCTL
280
0
  9
$HIDETEXT
280
1
  9
$XCLIPFRAME
280
0
  9
$HALOGAP
280
0
  9
$OBSCOLOR
 70
257
  9
$OBSLTYPE
280
0
  9
$INTERSECTIONDISPLAY
280
0
  9
$INTERSECTIONCOLOR
 70
257
  9
$DIMASSOC
280
2
  9
$PROJECTNAME
  1

  9
$CAMERADISPLAY
290
0
  9
$LENSLENGTH
 40
50.0
  9
$CAMERAHEIGHT
 40
0.0
  9
$STEPSPERSEC
 40
24.0
  9
$STEPSIZE
 40
100.0
  9
$3DDWFPREC
 40
2.0
  9
$PSOLWIDTH
 40
0.005
  9
$PSOLHEIGHT
 40
0.08
  9
$LOFTANG1
 40
1.570796326795
  9
$LOFTANG2
 40
1.570796326795
  9
$LOFTMAG1
 40
0.0
  9
$LOFTMAG2
 40
0.0
  9
$LOFTPARAM
 70
7
  9
$LOFTNORMALS
280
1
  9
$LATITUDE
 40
37.795
  9
$LONGITUDE
 40
-122.394
  9
$NORTHDIRECTION
 40
0.0
  9
$TIMEZONE
 70
-8000
  9
$LIGHTGLYPHDISPLAY
280
1
  9
$TILEMODELIGHTSYNCH
280
1
  9
$CMATERIAL
347
20
  9
$SOLIDHIST
280
0
  9
$SHOWHIST
280
1
  9
$DWFFRAME
280
2
  9
$DGNFRAME
280
2
  9
$REALWORLDSCALE
290
1
  9
$INTERFERECOLOR
 62
256
  9
$CSHADOW
280
0
  9
$SHADOWPLANELOCATION
 40
0.0
  0
ENDSEC
  0
SECTION
  2
CLASSES
  0
CLASS
  1
ACDBDICTIONARYWDFLT
  2
AcDbDictionaryWithDefault
  3
ObjectDBX Classes
 90
0
 91
0
280
0
281
0
  0
CLASS
  1
SUN
  2
AcDbSun
  3
SCENEOE
 90
1153
 91
0
280
0
281
0
  0
CLASS
  1
VISUALSTYLE
  2
AcDbVisualStyle
  3
ObjectDBX Classes
 90
4095
 91
0
280
0
281
0
  0
CLASS
  1
MATERIAL
  2
AcDbMaterial
  3
ObjectDBX Classes
 90
1153
 91
0
280
0
281
0
  0
CLASS
  1
SCALE
  2
AcDbScale
  3
ObjectDBX Classes
 90
1153
 91
0
280
0
281
0
  0
CLASS
  1
TABLESTYLE
  2
AcDbTableStyle
  3
ObjectDBX Classes
 90
4095
 91
0
280
0
281
0
  0
CLASS
  1
MLEADERSTYLE
  2
AcDbMLeaderStyle
  3
ACDB_MLEADERSTYLE_CLASS
 90
4095
 91
0
280
0
281
0
  0
CLASS
  1
DICTIONARYVAR
  2
AcDbDictionaryVar
  3
ObjectDBX Classes
 90
0
 91
0
280
0
281
0
  0
CLASS
  1
CELLSTYLEMAP
  2
AcDbCellStyleMap
  3
ObjectDBX Classes
 90
1152
 91
0
280
0
281
0
  0
CLASS
  1
MENTALRAYRENDERSETTINGS
  2
AcDbMentalRayRenderSettings
  3
SCENEOE
 90
1024
 91
0
280
0
281
0
  0
CLASS
  1
ACDBDETAILVIEWSTYLE
  2
AcDbDetailViewStyle
  3
ObjectDBX Classes
 90
1025
 91
0
280
0
281
0
  0
CLASS
  1
ACDBSECTIONVIEWSTYLE
  2
AcDbSectionViewStyle
  3
ObjectDBX Classes
 90
1025
 91
0
280
0
281
0
  0
CLASS
  1
RASTERVARIABLES
  2
AcDbRasterVariables
  3
ISM
 90
0
 91
0
280
0
281
0
  0
CLASS
  1
ACDBPLACEHOLDER
  2
AcDbPlaceHolder
  3
ObjectDBX Classes
 90
0
 91
0
280
0
281
0
  0
CLASS
  1
LAYOUT
  2
AcDbLayout
  3
ObjectDBX Classes
 90
0
 91
0
280
0
281
0
  0
ENDSEC
  0
SECTION
  2
TABLES
  0
TABLE
  2
VPORT
  5
8
330
0
100
AcDbSymbolTable
 70
1
  0
VPORT
  5
23
330
8
100
AcDbSymbolTableRecord
100
AcDbViewportTableRecord
  2
*Active
 70
0
 10
0.0
 20
0.0
 11
1.0
 21
1.0
 12
0.0
 22
0.0
 13
0.0
 23
0.0
 14
0.5
 24
0.5
 15
0.5
 25
0.5
 16
0.0
 26
0.0
 36
1.0
 17
0.0
 27
0.0
 37
0.0
 40
1000.0
 41
1.34
 42
50.0
 43
0.0
 44
0.0
 50
0.0
 51
0.0
 71
0
 72
1000
 73
1
 74
3
 75
0
 76
0
 77
0
 78
0
281
0
 65
0
146
0.0
  0
ENDTAB
  0
TABLE
  2
LTYPE
  5
2
330
0
100
AcDbSymbolTable
 70
3
  0
LTYPE
  5
24
330
2
100
AcDbSymbolTableRecord
100
AcDbLinetypeTableRecord
  2
ByBlock
 70
0
  3

 72
65
 73
0
 40
0.0
  0
LTYPE
  5
25
330
2
100
AcDbSymbolTableRecord
100
AcDbLinetypeTableRecord
  2
ByLayer
 70
0
  3

 72
65
 73
0
 40
0.0
  0
LTYPE
  5
26
330
2
100
AcDbSymbolTableRecord
100
AcDbLinetypeTableRecord
  2
Continuous
 70
0
  3

 72
65
 73
0
 40
0.0
  0
ENDTAB
  0
TABLE
  2
LAYER
  5
1
330
0
100
AcDbSymbolTable
 70
4
  0
LAYER
  5
27
330
1
100
AcDbSymbolTableRecord
100
AcDbLayerTableRecord
  2
0
 70
0
 62
7
  6
Continuous
370
-3
390
13
347
21
  0
LAYER
  5
28
330
1
100
AcDbSymbolTableRecord
100
AcDbLayerTableRecord
  2
Defpoints
 70
0
 62
7
  6
Continuous
290
0
370
-3
390
13
347
21
  0
LAYER
  5
2F
330
1
100
AcDbSymbolTableRecord
100
AcDbLayerTableRecord
  2
墩柱
 70
0
 62
80
  6
Continuous
370
-3
390
13
347
21
  0
LAYER
  5
30
330
1
100
AcDbSymbolTableRecord
100
AcDbLayerTableRecord
  2
盖梁
 70
0
 62
240
  6
Continuous
370
-3
390
13
347
21
  0
ENDTAB
  0
TABLE
  2
STYLE
  5
5
330
0
100
AcDbSymbolTable
 70
1
  0
STYLE
  5
29
330
5
100
AcDbSymbolTableRecord
100
AcDbTextStyleTableRecord
  2
Standard
 70
0
 40
0.0
 41
1.0
 50
0.0
 71
0
 42
2.5
  3
txt
  4

  0
ENDTAB
  0
TABLE
  2
VIEW
  5
7
330
0
100
AcDbSymbolTable
 70
0
  0
ENDTAB
  0
TABLE
  2
UCS
  5
6
330
0
100
AcDbSymbolTable
 70
0
  0
ENDTAB
  0
TABLE
  2
APPID
  5
3
330
0
100
AcDbSymbolTable
 70
3
  0
APPID
  5
2A
330
3
100
AcDbSymbolTableRecord
100
AcDbRegAppTableRecord
  2
ACAD
 70
0
  0
APPID
  5
211
330
3
100
AcDbSymbolTableRecord
100
AcDbRegAppTableRecord
  2
HATCHBACKGROUNDCOLOR
 70
0
  0
APPID
  5
212
330
3
100
AcDbSymbolTableRecord
100
AcDbRegAppTableRecord
  2
EZDXF
 70
0
  0
ENDTAB
  0
TABLE
  2
DIMSTYLE
  5
4
330
0
100
AcDbSymbolTable
 70
1
100
AcDbDimStyleTable
  0
DIMSTYLE
105
2B
330
4
100
AcDbSymbolTableRecord
100
AcDbDimStyleTableRecord
  2
Standard
 70
0
 40
1.0
 41
2.5
 42
0.625
 43
3.75
 44
1.25
 45
0.0
 46
0.0
 47
0.0
 48
0.0
 49
2.5
140
2.5
141
2.5
142
0.0
143
0.03937007874
144
1.0
145
0.0
146
1.0
147
0.625
148
0.0
 69
0
 70
0
 71
0
 72
0
 73
0
 74
0
 75
0
 76
0
 77
1
 78
8
 79
3
170
0
171
3
172
1
173
0
174
0
175
0
176
0
177
0
178
0
179
2
271
2
272
2
273
2
274
3
275
0
276
0
277
2
278
44
279
0
280
0
281
0
282
0
283
0
284
8
285
0
286
0
288
0
289
3
290
0
371
-2
372
-2
  0
ENDTAB
  0
TABLE
  2
BLOCK_RECORD
  5
9
330
0
100
AcDbSymbolTable
 70
2
  0
BLOCK_RECORD
  5
17
330
9
100
AcDbSymbolTableRecord
100
AcDbBlockTableRecord
  2
*Model_Space
340
1A
 70
0
280
1
281
0
  0
BLOCK_RECORD
  5
1B
330
9
100
AcDbSymbolTableRecord
100
AcDbBlockTableRecord
  2
*Paper_Space
340
1E
 70
0
280
1
281
0
  0
ENDTAB
  0
ENDSEC
  0
SECTION
  2
BLOCKS
  0
BLOCK
  5
18
330
17
100
AcDbEntity
  8
0
100
AcDbBlockBegin
  2
*Model_Space
 70
0
 10
0.0
 20
0.0
 30
0.0
  3
*Model_Space
  1

  0
ENDBLK
  5
19
330
17
100
AcDbEntity
  8
0
100
AcDbBlockEnd
  0
BLOCK
  5
1C
330
1B
100
AcDbEntity
  8
0
100
AcDbBlockBegin
  2
*Paper_Space
 70
0
 10
0.0
 20
0.0
 30
0.0
  3
*Paper_Space
  1

  0
ENDBLK
  5
1D
330
1B
100
AcDbEntity
  8
0
100
AcDbBlockEnd
  0
ENDSEC
  0
SECTION
  2
ENTITIES
  0
POLYLINE
  5
31
330
17
100
AcDbEntity
  8
墩柱
100
AcDb2dPolyline
 66
1
 10
0.0
 20
0.0
 30
0.0
 70
1
  0
VERTEX
  5
33
330
17
100
AcDbEntity
  8
墩柱
100
AcDbVertex
100
AcDb2dVertex
 10
570934.286903062
 20
785577.131257098
 30
0.0
 70
0
  0
VERTEX
  5
34
330
17
100
AcDbEntity
  8
墩柱
100
AcDbVertex
100
AcDb2dVertex
 10
570933.9351903212
 20
785577.0952272782
 30
0.0
 70
0
  0
VERTEX
  5
35
330
17
100
AcDbEntity
  8
墩柱
100
AcDbVertex
100
AcDb2dVertex
 10
570932.3842200782
 20
785578.3579589621
 30
0.0
 70
0
  0
VERTEX
  5
36
330
17
100
AcDbEntity
  8
墩柱
100
AcDbVertex
100
AcDb2dVertex
 10
570932.3481902584
 20
785578.7096717029
 30
0.0
 70
0
  0
VERTEX
  5
37
330
17
100
AcDbEntity
  8
墩柱
100
AcDbVertex
100
AcDb2dVertex
 10
570933.0426926845
 20
785579.5627053365
 30
0.0
 70
0
  0
VERTEX
  5
38
330
17
100
AcDbEntity
  8
墩柱
100
AcDbVertex
100
AcDb2dVertex
 10
570933.3944054253
 20
785579.5987351564
 30
0.0
 70
0
  0
VERTEX
  5
39
330
17
100
AcDbEntity
  8
墩柱
100
AcDbVertex
100
AcDb2dVertex
 10
570934.9453756682
 20
785578.3360034724
 30
0.0
 70
0
  0
VERTEX
  5
3A
330
17
100
AcDbEntity
  8
墩柱
100
AcDbVertex
100
AcDb2dVertex
 10
570934.9814054881
 20
785577.9842907316
 30
0.0
 70
0
  0
SEQEND
  5
32
330
31
100
AcDbEntity
  8
墩柱
  0
POLYLINE
  5
3B
330
17
100
AcDbEntity
  8
墩柱
100
AcDb2dPolyline
 66
1
 10
0.0
 20
0.0
 30
0.0
 70
1
  0
VERTEX
  5
3D
330
17
100
AcDbEntity
  8
墩柱
100
AcDbVertex
100
AcDb2dVertex
 10
570940.064267217
 20
785572.4275815753
 30
0.0
 70
0
  0
VERTEX
  5
3E
330
17
100
AcDbEntity
  8
墩柱
100
AcDbVertex
100
AcDb2dVertex
 10
570939.7125544761
 20
785572.3915517555
 30
0.0
 70
0
  0
VERTEX
  5
3F
330
17
100
AcDbEntity
  8
墩柱
100
AcDbVertex
100
AcDb2dVertex
 10
570938.1615842332
 20
785573.6542834394
 30
0.0
 70
0
  0
VERTEX
  5
40
330
17
100
AcDbEntity
  8
墩柱
100
AcDbVertex
100
AcDb2dVertex
 10
570938.1255544133
 20
785574.0059961802
 30
0.0
 70
0
  0
VERTEX
  5
41
330
17
100
AcDbEntity
  8
墩柱
100
AcDbVertex
100
AcDb2dVertex
 10
570938.8200568394
 20
785574.8590298138
 30
0.0
 70
0
  0
VERTEX
  5
42
330
17
100
AcDbEntity
  8
墩柱
100
AcDbVertex
100
AcDb2dVertex
 10
570939.1717695802
 20
785574.8950596337
 30
0.0
 70
0
  0
VERTEX
  5
43
330
17
100
AcDbEntity
  8
墩柱
100
AcDbVertex
100
AcDb2dVertex
 10
570940.7227398232
 20
785573.6323279497
 30
0.0
 70
0
  0
VERTEX
  5
44
330
17
100
AcDbEntity
  8
墩柱
100
AcDbVertex
100
AcDb2dVertex
 10
570940.758769643
 20
785573.2806152089
 30
0.0
 70
0
  0
SEQEND
  5
3C
330
3B
100
AcDbEntity
  8
墩柱
  0
POLYLINE
  5
45
330
17
100
AcDbEntity
  8
墩柱
100
AcDb2dPolyline
 66
1
 10
0.0
 20
0.0
 30
0.0
 70
1
  0
VERTEX
  5
47
330
17
100
AcDbEntity
  8
墩柱
100
AcDbVertex
100
AcDb2dVertex
 10
570964.2808620529
 20
785601.6943161206
 30
0.0
 70
0
  0
VERTEX
  5
48
330
17
100
AcDbEntity
  8
墩柱
100
AcDbVertex
100
AcDb2dVertex
 10
570963.9282878438
 20
785601.6680211189
 30
0.0
 70
0
  0
VERTEX
  5
49
330
17
100
AcDbEntity
  8
墩柱
100
AcDbVertex
100
AcDb2dVertex
 10
570962.412811001
 20
785602.9731379483
 30
0.0
 70
0
  0
VERTEX
  5
4A
330
17
100
AcDbEntity
  8
墩柱
100
AcDbVertex
100
AcDb2dVertex
 10
570962.3865159992
 20
785603.3257121574
 30
0.0
 70
0
  0
VERTEX
  5
4B
330
17
100
AcDbEntity
  8
墩柱
100
AcDbVertex
100
AcDb2dVertex
 10
570963.1043302554
 20
785604.159224421
 30
0.0
 70
0
  0
VERTEX
  5
4C
330
17
100
AcDbEntity
  8
墩柱
100
AcDbVertex
100
AcDb2dVertex
 10
570963.4569044645
 20
785604.1855194228
 30
0.0
 70
0
  0
VERTEX
  5
4D
330
17
100
AcDbEntity
  8
墩柱
100
AcDbVertex
100
AcDb2dVertex
 10
570964.9723813074
 20
785602.8804025933
 30
0.0
 70
0
  0
VERTEX
  5
4E
330
17
100
AcDbEntity
  8
墩柱
100
AcDbVertex
100
AcDb2dVertex
 10
570964.9986763091
 20
785602.5278283842
 30
0.0
 70
0
  0
SEQEND
  5
46
330
45
100
AcDbEntity
  8
墩柱
  0
POLYLINE
  5
4F
330
17
100
AcDbEntity
  8
墩柱
100
AcDb2dPolyline
 66
1
 10
0.0
 20
0.0
 30
0.0
 70
1
  0
VERTEX
  5
51
330
17
100
AcDbEntity
  8
墩柱
100
AcDbVertex
100
AcDb2dVertex
 10
571020.389952861
 20
785644.6283264821
 30
0.0
 70
0
  0
VERTEX
  5
52
330
17
100
AcDbEntity
  8
墩柱
100
AcDbVertex
100
AcDb2dVertex
 10
571020.0674055569
 20
785644.7731133483
 30
0.0
 70
0
  0
VERTEX
  5
53
330
17
100
AcDbEntity
  8
墩柱
100
AcDbVertex
100
AcDb2dVertex
 10
571019.3563638052
 20
785646.6424500294
 30
0.0
 70
0
  0
VERTEX
  5
54
330
17
100
AcDbEntity
  8
墩柱
100
AcDbVertex
100
AcDb2dVertex
 10
571019.5011506714
 20
785646.9649973335
 30
0.0
 70
0
  0
VERTEX
  5
55
330
17
100
AcDbEntity
  8
墩柱
100
AcDbVertex
100
AcDb2dVertex
 10
571020.9031531822
 20
785647.4982786472
 30
0.0
 70
0
  0
VERTEX
  5
56
330
17
100
AcDbEntity
  8
墩柱
100
AcDbVertex
100
AcDb2dVertex
 10
571021.2257004863
 20
785647.353491781
 30
0.0
 70
0
  0
VERTEX
  5
57
330
17
100
AcDbEntity
  8
墩柱
100
AcDbVertex
100
AcDb2dVertex
 10
571021.936742238
 20
785645.4841551
 30
0.0
 70
0
  0
VERTEX
  5
58
330
17
100
AcDbEntity
  8
墩柱
100
AcDbVertex
100
AcDb2dVertex
 10
571021.7919553719
 20
785645.1616077959
 30
0.0
 70
0
  0
SEQEND
  5
50
330
4F
100
AcDbEntity
  8
墩柱
  0
POLYLINE
  5
59
330
17
100
AcDbEntity
  8
墩柱
100
AcDb2dPolyline
 66
1
 10
0.0
 20
0.0
 30
0.0
 70
1
  0
VERTEX
  5
5B
330
17
100
AcDbEntity
  8
墩柱
100
AcDbVertex
100
AcDb2dVertex
 10
571069.0864408506
 20
785652.158072489
 30
0.0
 70
0
  0
VERTEX
  5
5C
330
17
100
AcDbEntity
  8
墩柱
100
AcDbVertex
100
AcDb2dVertex
 10
571068.8485969971
 20
785652.4196643492
 30
0.0
 70
0
  0
VERTEX
  5
5D
330
17
100
AcDbEntity
  8
墩柱
100
AcDbVertex
100
AcDb2dVertex
 10
571068.9435890238
 20
785654.4174072042
 30
0.0
 70
0
  0
VERTEX
  5
5E
330
17
100
AcDbEntity
  8
墩柱
100
AcDbVertex
100
AcDb2dVertex
 10
571069.205180884
 20
785654.6552510577
 30
0.0
 70
0
  0
VERTEX
  5
5F
330
17
100
AcDbEntity
  8
墩柱
100
AcDbVertex
100
AcDb2dVertex
 10
571070.7034880252
 20
785654.5840070377
 30
0.0
 70
0
  0
VERTEX
  5
60
330
17
100
AcDbEntity
  8
墩柱
100
AcDbVertex
100
AcDb2dVertex
 10
571070.9413318788
 20
785654.3224151775
 30
0.0
 70
0
  0
VERTEX
  5
61
330
17
100
AcDbEntity
  8
墩柱
100
AcDbVertex
100
AcDb2dVertex
 10
571070.8463398521
 20
785652.3246723225
 30
0.0
 70
0
  0
VERTEX
  5
62
330
17
100
AcDbEntity
  8
墩柱
100
AcDbVertex
100
AcDb2dVertex
 10
571070.5847479919
 20
785652.086828469
 30
0.0
 70
0
  0
SEQEND
  5
5A
330
59
100
AcDbEntity
  8
墩柱
  0
POLYLINE
  5
63
330
17
100
AcDbEntity
  8
墩柱
100
AcDb2dPolyline
 66
1
 10
0.0
 20
0.0
 30
0.0
 70
1
  0
VERTEX
  5
65
330
17
100
AcDbEntity
  8
墩柱
100
AcDbVertex
100
AcDb2dVertex
 10
571102.0106333762
 20
785649.8876214072
 30
0.0
 70
0
  0
VERTEX
  5
66
330
17
100
AcDbEntity
  8
墩柱
100
AcDbVertex
100
AcDb2dVertex
 10
571101.805297101
 20
785650.1754356079
 30
0.0
 70
0
  0
VERTEX
  5
67
330
17
100
AcDbEntity
  8
墩柱
100
AcDbVertex
100
AcDb2dVertex
 10
571102.1352088032
 20
785652.1480375112
 30
0.0
 70
0
  0
VERTEX
  5
68
330
17
100
AcDbEntity
  8
墩柱
100
AcDbVertex
100
AcDb2dVertex
 10
571102.423023004
 20
785652.3533737863
 30
0.0
 70
0
  0
VERTEX
  5
69
330
17
100
AcDbEntity
  8
墩柱
100
AcDbVertex
100
AcDb2dVertex
 10
571103.9024744313
 20
785652.1059400097
 30
0.0
 70
0
  0
VERTEX
  5
6A
330
17
100
AcDbEntity
  8
墩柱
100
AcDbVertex
100
AcDb2dVertex
 10
571104.1078107065
 20
785651.818125809
 30
0.0
 70
0
  0
VERTEX
  5
6B
330
17
100
AcDbEntity
  8
墩柱
100
AcDbVertex
100
AcDb2dVertex
 10
571103.7778990043
 20
785649.8455239057
 30
0.0
 70
0
  0
VERTEX
  5
6C
330
17
100
AcDbEntity
  8
墩柱
100
AcDbVertex
100
AcDb2dVertex
 10
571103.4900848035
 20
785649.6401876305
 30
0.0
 70
0
  0
SEQEND
  5
64
330
63
100
AcDbEntity
  8
墩柱
  0
POLYLINE
  5
6D
330
17
100
AcDbEntity
  8
墩柱
100
AcDb2dPolyline
 66
1
 10
0.0
 20
0.0
 30
0.0
 70
1
  0
VERTEX
  5
6F
330
17
100
AcDbEntity
  8
墩柱
100
AcDbVertex
100
AcDb2dVertex
 10
571143.9960926991
 20
785645.7407834567
 30
0.0
 70
0
  0
VERTEX
  5
70
330
17
100
AcDbEntity
  8
墩柱
100
AcDbVertex
100
AcDb2dVertex
 10
571143.7930766034
 20
785646.0302389194
 30
0.0
 70
0
  0
VERTEX
  5
71
330
17
100
AcDbEntity
  8
墩柱
100
AcDbVertex
100
AcDb2dVertex
 10
571144.1388340713
 20
785648.000125153
 30
0.0
 70
0
  0
VERTEX
  5
72
330
17
100
AcDbEntity
  8
墩柱
100
AcDbVertex
100
AcDb2dVertex
 10
571144.428289534
 20
785648.2031412487
 30
0.0
 70
0
  0
VERTEX
  5
73
330
17
100
AcDbEntity
  8
墩柱
100
AcDbVertex
100
AcDb2dVertex
 10
571145.9057042092
 20
785647.9438231478
 30
0.0
 70
0
  0
VERTEX
  5
74
330
17
100
AcDbEntity
  8
墩柱
100
AcDbVertex
100
AcDb2dVertex
 10
571146.1087203049
 20
785647.6543676851
 30
0.0
 70
0
  0
VERTEX
  5
75
330
17
100
AcDbEntity
  8
墩柱
100
AcDbVertex
100
AcDb2dVertex
 10
571145.762962837
 20
785645.6844814515
 30
0.0
 70
0
  0
VERTEX
  5
76
330
17
100
AcDbEntity
  8
墩柱
100
AcDbVertex
100
AcDb2dVertex
 10
571145.4735073744
 20
785645.4814653558
 30
0.0
 70
0
  0
SEQEND
  5
6E
330
6D
100
AcDbEntity
  8
墩柱
  0
POLYLINE
  5
77
330
17
100
AcDbEntity
  8
墩柱
100
AcDb2dPolyline
 66
1
 10
0.0
 20
0.0
 30
0.0
 70
1
  0
VERTEX
  5
79
330
17
100
AcDbEntity
  8
墩柱
100
AcDbVertex
100
AcDb2dVertex
 10
571143.1282414547
 20
785640.7963690103
 30
0.0
 70
0
  0
VERTEX
  5
7A
330
17
100
AcDbEntity
  8
墩柱
100
AcDbVertex
100
AcDb2dVertex
 10
571142.925225359
 20
785641.0858244731
 30
0.0
 70
0
  0
VERTEX
  5
7B
330
17
100
AcDbEntity
  8
墩柱
100
AcDbVertex
100
AcDb2dVertex
 10
571143.270982827
 20
785643.0557107066
 30
0.0
 70
0
  0
VERTEX
  5
7C
330
17
100
AcDbEntity
  8
墩柱
100
AcDbVertex
100
AcDb2dVertex
 10
571143.5604382895
 20
785643.2587268023
 30
0.0
 70
0
  0
VERTEX
  5
7D
330
17
100
AcDbEntity
  8
墩柱
100
AcDbVertex
100
AcDb2dVertex
 10
571145.0378529648
 20
785642.9994087014
 30
0.0
 70
0
  0
VERTEX
  5
7E
330
17
100
AcDbEntity
  8
墩柱
100
AcDbVertex
100
AcDb2dVertex
 10
571145.2408690605
 20
785642.7099532387
 30
0.0
 70
0
  0
VERTEX
  5
7F
330
17
100
AcDbEntity
  8
墩柱
100
AcDbVertex
100
AcDb2dVertex
 10
571144.8951115926
 20
785640.7400670052
 30
0.0
 70
0
  0
VERTEX
  5
80
330
17
100
AcDbEntity
  8
墩柱
100
AcDbVertex
100
AcDb2dVertex
 10
571144.60565613
 20
785640.5370509095
 30
0.0
 70
0
  0
SEQEND
  5
78
330
77
100
AcDbEntity
  8
墩柱
  0
POLYLINE
  5
81
330
17
100
AcDbEntity
  8
墩柱
100
AcDb2dPolyline
 66
1
 10
0.0
 20
0.0
 30
0.0
 70
1
  0
VERTEX
  5
83
330
17
100
AcDbEntity
  8
墩柱
100
AcDbVertex
100
AcDb2dVertex
 10
571188.5124965656
 20
785635.1632637628
 30
0.0
 70
0
  0
VERTEX
  5
84
330
17
100
AcDbEntity
  8
墩柱
100
AcDbVertex
100
AcDb2dVertex
 10
571188.3094804699
 20
785635.4527192255
 30
0.0
 70
0
  0
VERTEX
  5
85
330
17
100
AcDbEntity
  8
墩柱
100
AcDbVertex
100
AcDb2dVertex
 10
571188.6552379378
 20
785637.4226054591
 30
0.0
 70
0
  0
VERTEX
  5
86
330
17
100
AcDbEntity
  8
墩柱
100
AcDbVertex
100
AcDb2dVertex
 10
571188.9446934004
 20
785637.6256215548
 30
0.0
 70
0
  0
VERTEX
  5
87
330
17
100
AcDbEntity
  8
墩柱
100
AcDbVertex
100
AcDb2dVertex
 10
571190.4221080757
 20
785637.3663034539
 30
0.0
 70
0
  0
VERTEX
  5
88
330
17
100
AcDbEntity
  8
墩柱
100
AcDbVertex
100
AcDb2dVertex
 10
571190.6251241714
 20
785637.0768479912
 30
0.0
 70
0
  0
VERTEX
  5
89
330
17
100
AcDbEntity
  8
墩柱
100
AcDbVertex
100
AcDb2dVertex
 10
571190.2793667035
 20
785635.1069617576
 30
0.0
 70
0
  0
VERTEX
  5
8A
330
17
100
AcDbEntity
  8
墩柱
100
AcDbVertex
100
AcDb2dVertex
 10
571189.9899112409
 20
785634.903945662
 30
0.0
 70
0
  0
SEQEND
  5
82
330
81
100
AcDbEntity
  8
墩柱
  0
POLYLINE
  5
8B
330
17
100
AcDbEntity
  8
墩柱
100
AcDb2dPolyline
 66
1
 10
0.0
 20
0.0
 30
0.0
 70
1
  0
VERTEX
  5
8D
330
17
100
AcDbEntity
  8
墩柱
100
AcDbVertex
100
AcDb2dVertex
 10
571234.2549285529
 20
785636.1267898935
 30
0.0
 70
0
  0
VERTEX
  5
8E
330
17
100
AcDbEntity
  8
墩柱
100
AcDbVertex
100
AcDb2dVertex
 10
571234.0563377246
 20
785636.4192991804
 30
0.0
 70
0
  0
VERTEX
  5
8F
330
17
100
AcDbEntity
  8
墩柱
100
AcDbVertex
100
AcDb2dVertex
 10
571234.5259300179
 20
785638.8747997563
 30
0.0
 70
0
  0
VERTEX
  5
90
330
17
100
AcDbEntity
  8
墩柱
100
AcDbVertex
100
AcDb2dVertex
 10
571234.818439305
 20
785639.0733905846
 30
0.0
 70
0
  0
VERTEX
  5
91
330
17
100
AcDbEntity
  8
墩柱
100
AcDbVertex
100
AcDb2dVertex
 10
571236.5863997195
 20
785638.7352841333
 30
0.0
 70
0
  0
VERTEX
  5
92
330
17
100
AcDbEntity
  8
墩柱
100
AcDbVertex
100
AcDb2dVertex
 10
571236.7849905478
 20
785638.4427748465
 30
0.0
 70
0
  0
VERTEX
  5
93
330
17
100
AcDbEntity
  8
墩柱
100
AcDbVertex
100
AcDb2dVertex
 10
571236.3153982544
 20
785635.9872742705
 30
0.0
 70
0
  0
VERTEX
  5
94
330
17
100
AcDbEntity
  8
墩柱
100
AcDbVertex
100
AcDb2dVertex
 10
571236.0228889674
 20
785635.7886834423
 30
0.0
 70
0
  0
SEQEND
  5
8C
330
8B
100
AcDbEntity
  8
墩柱
  0
POLYLINE
  5
95
330
17
100
AcDbEntity
  8
墩柱
100
AcDb2dPolyline
 66
1
 10
0.0
 20
0.0
 30
0.0
 70
1
  0
VERTEX
  5
97
330
17
100
AcDbEntity
  8
墩柱
100
AcDbVertex
100
AcDb2dVertex
 10
571232.5040818626
 20
785626.9716033265
 30
0.0
 70
0
  0
VERTEX
  5
98
330
17
100
AcDbEntity
  8
墩柱
100
AcDbVertex
100
AcDb2dVertex
 10
571232.3054910343
 20
785627.2641126134
 30
0.0
 70
0
  0
VERTEX
  5
99
330
17
100
AcDbEntity
  8
墩柱
100
AcDbVertex
100
AcDb2dVertex
 10
571232.7750833277
 20
785629.7196131893
 30
0.0
 70
0
  0
VERTEX
  5
9A
330
17
100
AcDbEntity
  8
墩柱
100
AcDbVertex
100
AcDb2dVertex
 10
571233.0675926147
 20
785629.9182040176
 30
0.0
 70
0
  0
VERTEX
  5
9B
330
17
100
AcDbEntity
  8
墩柱
100
AcDbVertex
100
AcDb2dVertex
 10
571234.8355530292
 20
785629.5800975664
 30
0.0
 70
0
  0
VERTEX
  5
9C
330
17
100
AcDbEntity
  8
墩柱
100
AcDbVertex
100
AcDb2dVertex
 10
571235.0341438575
 20
785629.2875882795
 30
0.0
 70
0
  0
VERTEX
  5
9D
330
17
100
AcDbEntity
  8
墩柱
100
AcDbVertex
100
AcDb2dVertex
 10
571234.5645515642
 20
785626.8320877035
 30
0.0
 70
0
  0
VERTEX
  5
9E
330
17
100
AcDbEntity
  8
墩柱
100
AcDbVertex
100
AcDb2dVertex
 10
571234.2720422772
 20
785626.6334968753
 30
0.0
 70
0
  0
SEQEND
  5
96
330
95
100
AcDbEntity
  8
墩柱
  0
POLYLINE
  5
9F
330
17
100
AcDbEntity
  8
墩柱
100
AcDb2dPolyline
 66
1
 10
0.0
 20
0.0
 30
0.0
 70
1
  0
VERTEX
  5
A1
330
17
100
AcDbEntity
  8
墩柱
100
AcDbVertex
100
AcDb2dVertex
 10
570958.2785049864
 20
785606.5999325899
 30
0.0
 70
0
  0
VERTEX
  5
A2
330
17
100
AcDbEntity
  8
墩柱
100
AcDbVertex
100
AcDb2dVertex
 10
570957.9267938724
 20
785606.5638868938
 30
0.0
 70
0
  0
VERTEX
  5
A3
330
17
100
AcDbEntity
  8
墩柱
100
AcDbVertex
100
AcDb2dVertex
 10
570956.3757666313
 20
785607.8265485658
 30
0.0
 70
0
  0
VERTEX
  5
A4
330
17
100
AcDbEntity
  8
墩柱
100
AcDbVertex
100
AcDb2dVertex
 10
570956.3397209352
 20
785608.1782596798
 30
0.0
 70
0
  0
VERTEX
  5
A5
330
17
100
AcDbEntity
  8
墩柱
100
AcDbVertex
100
AcDb2dVertex
 10
570957.0341848548
 20
785609.0313246624
 30
0.0
 70
0
  0
VERTEX
  5
A6
330
17
100
AcDbEntity
  8
墩柱
100
AcDbVertex
100
AcDb2dVertex
 10
570957.3858959689
 20
785609.0673703585
 30
0.0
 70
0
  0
VERTEX
  5
A7
330
17
100
AcDbEntity
  8
墩柱
100
AcDbVertex
100
AcDb2dVertex
 10
570958.9369232099
 20
785607.8047086865
 30
0.0
 70
0
  0
VERTEX
  5
A8
330
17
100
AcDbEntity
  8
墩柱
100
AcDbVertex
100
AcDb2dVertex
 10
570958.972968906
 20
785607.4529975725
 30
0.0
 70
0
  0
SEQEND
  5
A0
330
9F
100
AcDbEntity
  8
墩柱
  0
POLYLINE
  5
A9
330
17
100
AcDbEntity
  8
墩柱
100
AcDb2dPolyline
 66
1
 10
0.0
 20
0.0
 30
0.0
 70
1
  0
VERTEX
  5
AB
330
17
100
AcDbEntity
  8
墩柱
100
AcDbVertex
100
AcDb2dVertex
 10
570991.8250545053
 20
785642.7325861468
 30
0.0
 70
0
  0
VERTEX
  5
AC
330
17
100
AcDbEntity
  8
墩柱
100
AcDbVertex
100
AcDb2dVertex
 10
570991.4724142109
 20
785642.7579795077
 30
0.0
 70
0
  0
VERTEX
  5
AD
330
17
100
AcDbEntity
  8
墩柱
100
AcDbVertex
100
AcDb2dVertex
 10
570990.1634264768
 20
785644.2701141286
 30
0.0
 70
0
  0
VERTEX
  5
AE
330
17
100
AcDbEntity
  8
墩柱
100
AcDbVertex
100
AcDb2dVertex
 10
570990.1888198376
 20
785644.6227544231
 30
0.0
 70
0
  0
VERTEX
  5
AF
330
17
100
AcDbEntity
  8
墩柱
100
AcDbVertex
100
AcDb2dVertex
 10
570991.3229208033
 20
785645.6044952236
 30
0.0
 70
0
  0
VERTEX
  5
B0
330
17
100
AcDbEntity
  8
墩柱
100
AcDbVertex
100
AcDb2dVertex
 10
570991.6755610977
 20
785645.5791018627
 30
0.0
 70
0
  0
VERTEX
  5
B1
330
17
100
AcDbEntity
  8
墩柱
100
AcDbVertex
100
AcDb2dVertex
 10
570992.9845488318
 20
785644.0669672418
 30
0.0
 70
0
  0
VERTEX
  5
B2
330
17
100
AcDbEntity
  8
墩柱
100
AcDbVertex
100
AcDb2dVertex
 10
570992.959155471
 20
785643.7143269473
 30
0.0
 70
0
  0
SEQEND
  5
AA
330
A9
100
AcDbEntity
  8
墩柱
  0
POLYLINE
  5
B3
330
17
100
AcDbEntity
  8
墩柱
100
AcDb2dPolyline
 66
1
 10
0.0
 20
0.0
 30
0.0
 70
1
  0
VERTEX
  5
B5
330
17
100
AcDbEntity
  8
墩柱
100
AcDbVertex
100
AcDb2dVertex
 10
571036.1805257438
 20
785666.1049037444
 30
0.0
 70
0
  0
VERTEX
  5
B6
330
17
100
AcDbEntity
  8
墩柱
100
AcDbVertex
100
AcDb2dVertex
 10
571035.8812415488
 20
785666.2931295946
 30
0.0
 70
0
  0
VERTEX
  5
B7
330
17
100
AcDbEntity
  8
墩柱
100
AcDbVertex
100
AcDb2dVertex
 10
571035.4370081701
 20
785668.243169775
 30
0.0
 70
0
  0
VERTEX
  5
B8
330
17
100
AcDbEntity
  8
墩柱
100
AcDbVertex
100
AcDb2dVertex
 10
571035.6252340202
 20
785668.54245397
 30
0.0
 70
0
  0
VERTEX
  5
B9
330
17
100
AcDbEntity
  8
墩柱
100
AcDbVertex
100
AcDb2dVertex
 10
571037.0877641555
 20
785668.875629004
 30
0.0
 70
0
  0
VERTEX
  5
BA
330
17
100
AcDbEntity
  8
墩柱
100
AcDbVertex
100
AcDb2dVertex
 10
571037.3870483504
 20
785668.6874031537
 30
0.0
 70
0
  0
VERTEX
  5
BB
330
17
100
AcDbEntity
  8
墩柱
100
AcDbVertex
100
AcDb2dVertex
 10
571037.8312817292
 20
785666.7373629734
 30
0.0
 70
0
  0
VERTEX
  5
BC
330
17
100
AcDbEntity
  8
墩柱
100
AcDbVertex
100
AcDb2dVertex
 10
571037.643055879
 20
785666.4380787784
 30
0.0
 70
0
  0
SEQEND
  5
B4
330
B3
100
AcDbEntity
  8
墩柱
  0
POLYLINE
  5
BD
330
17
100
AcDbEntity
  8
墩柱
100
AcDb2dPolyline
 66
1
 10
0.0
 20
0.0
 30
0.0
 70
1
  0
VERTEX
  5
BF
330
17
100
AcDbEntity
  8
墩柱
100
AcDbVertex
100
AcDb2dVertex
 10
571080.9565718202
 20
785667.679880525
 30
0.0
 70
0
  0
VERTEX
  5
C0
330
17
100
AcDbEntity
  8
墩柱
100
AcDbVertex
100
AcDb2dVertex
 10
571080.7422760039
 20
785667.961087394
 30
0.0
 70
0
  0
VERTEX
  5
C1
330
17
100
AcDbEntity
  8
墩柱
100
AcDbVertex
100
AcDb2dVertex
 10
571081.009920215
 20
785669.9430981347
 30
0.0
 70
0
  0
VERTEX
  5
C2
330
17
100
AcDbEntity
  8
墩柱
100
AcDbVertex
100
AcDb2dVertex
 10
571081.2911270839
 20
785670.157393951
 30
0.0
 70
0
  0
VERTEX
  5
C3
330
17
100
AcDbEntity
  8
墩柱
100
AcDbVertex
100
AcDb2dVertex
 10
571082.7776351394
 20
785669.9566607927
 30
0.0
 70
0
  0
VERTEX
  5
C4
330
17
100
AcDbEntity
  8
墩柱
100
AcDbVertex
100
AcDb2dVertex
 10
571082.9919309557
 20
785669.6754539236
 30
0.0
 70
0
  0
VERTEX
  5
C5
330
17
100
AcDbEntity
  8
墩柱
100
AcDbVertex
100
AcDb2dVertex
 10
571082.7242867446
 20
785667.693443183
 30
0.0
 70
0
  0
VERTEX
  5
C6
330
17
100
AcDbEntity
  8
墩柱
100
AcDbVertex
100
AcDb2dVertex
 10
571082.4430798757
 20
785667.4791473667
 30
0.0
 70
0
  0
SEQEND
  5
BE
330
BD
100
AcDbEntity
  8
墩柱
  0
POLYLINE
  5
C7
330
17
100
AcDbEntity
  8
墩柱
100
AcDb2dPolyline
 66
1
 10
0.0
 20
0.0
 30
0.0
 70
1
  0
VERTEX
  5
C9
330
17
100
AcDbEntity
  8
墩柱
100
AcDbVertex
100
AcDb2dVertex
 10
571116.215283191
 20
785661.3804638284
 30
0.0
 70
0
  0
VERTEX
  5
CA
330
17
100
AcDbEntity
  8
墩柱
100
AcDbVertex
100
AcDb2dVertex
 10
571116.0224600766
 20
785661.6768069515
 30
0.0
 70
0
  0
VERTEX
  5
CB
330
17
100
AcDbEntity
  8
墩柱
100
AcDbVertex
100
AcDb2dVertex
 10
571116.4365401114
 20
785663.6334719011
 30
0.0
 70
0
  0
VERTEX
  5
CC
330
17
100
AcDbEntity
  8
墩柱
100
AcDbVertex
100
AcDb2dVertex
 10
571116.7328832345
 20
785663.8262950154
 30
0.0
 70
0
  0
VERTEX
  5
CD
330
17
100
AcDbEntity
  8
墩柱
100
AcDbVertex
100
AcDb2dVertex
 10
571118.2003819466
 20
785663.5157349893
 30
0.0
 70
0
  0
VERTEX
  5
CE
330
17
100
AcDbEntity
  8
墩柱
100
AcDbVertex
100
AcDb2dVertex
 10
571118.393205061
 20
785663.2193918662
 30
0.0
 70
0
  0
VERTEX
  5
CF
330
17
100
AcDbEntity
  8
墩柱
100
AcDbVertex
100
AcDb2dVertex
 10
571117.9791250261
 20
785661.2627269167
 30
0.0
 70
0
  0
VERTEX
  5
D0
330
17
100
AcDbEntity
  8
墩柱
100
AcDbVertex
100
AcDb2dVertex
 10
571117.6827819031
 20
785661.0699038024
 30
0.0
 70
0
  0
SEQEND
  5
C8
330
C7
100
AcDbEntity
  8
墩柱
  0
POLYLINE
  5
D1
330
17
100
AcDbEntity
  8
墩柱
100
AcDb2dPolyline
 66
1
 10
0.0
 20
0.0
 30
0.0
 70
1
  0
VERTEX
  5
D3
330
17
100
AcDbEntity
  8
墩柱
100
AcDbVertex
100
AcDb2dVertex
 10
571145.7589567887
 20
785655.1282198833
 30
0.0
 70
0
  0
VERTEX
  5
D4
330
17
100
AcDbEntity
  8
墩柱
100
AcDbVertex
100
AcDb2dVertex
 10
571145.5661336744
 20
785655.4245630064
 30
0.0
 70
0
  0
VERTEX
  5
D5
330
17
100
AcDbEntity
  8
墩柱
100
AcDbVertex
100
AcDb2dVertex
 10
571145.9802137092
 20
785657.3812279559
 30
0.0
 70
0
  0
VERTEX
  5
D6
330
17
100
AcDbEntity
  8
墩柱
100
AcDbVertex
100
AcDb2dVertex
 10
571146.2765568323
 20
785657.5740510703
 30
0.0
 70
0
  0
VERTEX
  5
D7
330
17
100
AcDbEntity
  8
墩柱
100
AcDbVertex
100
AcDb2dVertex
 10
571147.7440555444
 20
785657.2634910442
 30
0.0
 70
0
  0
VERTEX
  5
D8
330
17
100
AcDbEntity
  8
墩柱
100
AcDbVertex
100
AcDb2dVertex
 10
571147.9368786587
 20
785656.9671479211
 30
0.0
 70
0
  0
VERTEX
  5
D9
330
17
100
AcDbEntity
  8
墩柱
100
AcDbVertex
100
AcDb2dVertex
 10
571147.5227986239
 20
785655.0104829716
 30
0.0
 70
0
  0
VERTEX
  5
DA
330
17
100
AcDbEntity
  8
墩柱
100
AcDbVertex
100
AcDb2dVertex
 10
571147.2264555008
 20
785654.8176598572
 30
0.0
 70
0
  0
SEQEND
  5
D2
330
D1
100
AcDbEntity
  8
墩柱
  0
POLYLINE
  5
DB
330
17
100
AcDbEntity
  8
墩柱
100
AcDb2dPolyline
 66
1
 10
0.0
 20
0.0
 30
0.0
 70
1
  0
VERTEX
  5
DD
330
17
100
AcDbEntity
  8
墩柱
100
AcDbVertex
100
AcDb2dVertex
 10
571189.7839025434
 20
785645.8113453375
 30
0.0
 70
0
  0
VERTEX
  5
DE
330
17
100
AcDbEntity
  8
墩柱
100
AcDbVertex
100
AcDb2dVertex
 10
571189.591079429
 20
785646.1076884606
 30
0.0
 70
0
  0
VERTEX
  5
DF
330
17
100
AcDbEntity
  8
墩柱
100
AcDbVertex
100
AcDb2dVertex
 10
571190.0051594638
 20
785648.0643534102
 30
0.0
 70
0
  0
VERTEX
  5
E0
330
17
100
AcDbEntity
  8
墩柱
100
AcDbVertex
100
AcDb2dVertex
 10
571190.3015025869
 20
785648.2571765245
 30
0.0
 70
0
  0
VERTEX
  5
E1
330
17
100
AcDbEntity
  8
墩柱
100
AcDbVertex
100
AcDb2dVertex
 10
571191.769001299
 20
785647.9466164984
 30
0.0
 70
0
  0
VERTEX
  5
E2
330
17
100
AcDbEntity
  8
墩柱
100
AcDbVertex
100
AcDb2dVertex
 10
571191.9618244134
 20
785647.6502733753
 30
0.0
 70
0
  0
VERTEX
  5
E3
330
17
100
AcDbEntity
  8
墩柱
100
AcDbVertex
100
AcDb2dVertex
 10
571191.5477443786
 20
785645.6936084258
 30
0.0
 70
0
  0
VERTEX
  5
E4
330
17
100
AcDbEntity
  8
墩柱
100
AcDbVertex
100
AcDb2dVertex
 10
571191.2514012555
 20
785645.5007853115
 30
0.0
 70
0
  0
SEQEND
  5
DC
330
DB
100
AcDbEntity
  8
墩柱
  0
POLYLINE
  5
E5
330
17
100
AcDbEntity
  8
墩柱
100
AcDb2dPolyline
 66
1
 10
0.0
 20
0.0
 30
0.0
 70
1
  0
VERTEX
  5
E7
330
17
100
AcDbEntity
  8
墩柱
100
AcDbVertex
100
AcDb2dVertex
 10
571095.7626208876
 20
785784.6359312116
 30
0.0
 70
0
  0
VERTEX
  5
E8
330
17
100
AcDbEntity
  8
墩柱
100
AcDbVertex
100
AcDb2dVertex
 10
571096.1140200074
 20
785784.674901182
 30
0.0
 70
0
  0
VERTEX
  5
E9
330
17
100
AcDbEntity
  8
墩柱
100
AcDbVertex
100
AcDb2dVertex
 10
571097.6754963679
 20
785783.4251845838
 30
0.0
 70
0
  0
VERTEX
  5
EA
330
17
100
AcDbEntity
  8
墩柱
100
AcDbVertex
100
AcDb2dVertex
 10
571097.7144663382
 20
785783.0737854639
 30
0.0
 70
0
  0
VERTEX
  5
EB
330
17
100
AcDbEntity
  8
墩柱
100
AcDbVertex
100
AcDb2dVertex
 10
571097.0271222092
 20
785782.2149734657
 30
0.0
 70
0
  0
VERTEX
  5
EC
330
17
100
AcDbEntity
  8
墩柱
100
AcDbVertex
100
AcDb2dVertex
 10
571096.6757230894
 20
785782.1760034953
 30
0.0
 70
0
  0
VERTEX
  5
ED
330
17
100
AcDbEntity
  8
墩柱
100
AcDbVertex
100
AcDb2dVertex
 10
571095.114246729
 20
785783.4257200935
 30
0.0
 70
0
  0
VERTEX
  5
EE
330
17
100
AcDbEntity
  8
墩柱
100
AcDbVertex
100
AcDb2dVertex
 10
571095.0752767586
 20
785783.7771192134
 30
0.0
 70
0
  0
SEQEND
  5
E6
330
E5
100
AcDbEntity
  8
墩柱
  0
POLYLINE
  5
EF
330
17
100
AcDbEntity
  8
墩柱
100
AcDb2dPolyline
 66
1
 10
0.0
 20
0.0
 30
0.0
 70
1
  0
VERTEX
  5
F1
330
17
100
AcDbEntity
  8
墩柱
100
AcDbVertex
100
AcDb2dVertex
 10
571075.3469078712
 20
785752.9449246469
 30
0.0
 70
0
  0
VERTEX
  5
F2
330
17
100
AcDbEntity
  8
墩柱
100
AcDbVertex
100
AcDb2dVertex
 10
571075.6799911392
 20
785753.0634806949
 30
0.0
 70
0
  0
VERTEX
  5
F3
330
17
100
AcDbEntity
  8
墩柱
100
AcDbVertex
100
AcDb2dVertex
 10
571077.4865484039
 20
785752.2053718151
 30
0.0
 70
0
  0
VERTEX
  5
F4
330
17
100
AcDbEntity
  8
墩柱
100
AcDbVertex
100
AcDb2dVertex
 10
571077.605104452
 20
785751.872288547
 30
0.0
 70
0
  0
VERTEX
  5
F5
330
17
100
AcDbEntity
  8
墩柱
100
AcDbVertex
100
AcDb2dVertex
 10
571076.9615227921
 20
785750.5173705985
 30
0.0
 70
0
  0
VERTEX
  5
F6
330
17
100
AcDbEntity
  8
墩柱
100
AcDbVertex
100
AcDb2dVertex
 10
571076.6284395241
 20
785750.3988145505
 30
0.0
 70
0
  0
VERTEX
  5
F7
330
17
100
AcDbEntity
  8
墩柱
100
AcDbVertex
100
AcDb2dVertex
 10
571074.8218822594
 20
785751.2569234303
 30
0.0
 70
0
  0
VERTEX
  5
F8
330
17
100
AcDbEntity
  8
墩柱
100
AcDbVertex
100
AcDb2dVertex
 10
571074.7033262113
 20
785751.5900066984
 30
0.0
 70
0
  0
SEQEND
  5
F0
330
EF
100
AcDbEntity
  8
墩柱
  0
POLYLINE
  5
F9
330
17
100
AcDbEntity
  8
墩柱
100
AcDb2dPolyline
 66
1
 10
0.0
 20
0.0
 30
0.0
 70
1
  0
VERTEX
  5
FB
330
17
100
AcDbEntity
  8
墩柱
100
AcDbVertex
100
AcDb2dVertex
 10
571069.2349124617
 20
785704.6112110388
 30
0.0
 70
0
  0
VERTEX
  5
FC
330
17
100
AcDbEntity
  8
墩柱
100
AcDbVertex
100
AcDb2dVertex
 10
571069.4201203746
 20
785704.9123721733
 30
0.0
 70
0
  0
VERTEX
  5
FD
330
17
100
AcDbEntity
  8
墩柱
100
AcDbVertex
100
AcDb2dVertex
 10
571071.3655965648
 20
785705.3761850595
 30
0.0
 70
0
  0
VERTEX
  5
FE
330
17
100
AcDbEntity
  8
墩柱
100
AcDbVertex
100
AcDb2dVertex
 10
571071.6667576995
 20
785705.1909771465
 30
0.0
 70
0
  0
VERTEX
  5
FF
330
17
100
AcDbEntity
  8
墩柱
100
AcDbVertex
100
AcDb2dVertex
 10
571072.014617364
 20
785703.7318700039
 30
0.0
 70
0
  0
VERTEX
  5
100
330
17
100
AcDbEntity
  8
墩柱
100
AcDbVertex
100
AcDb2dVertex
 10
571071.8294094511
 20
785703.4307088694
 30
0.0
 70
0
  0
VERTEX
  5
101
330
17
100
AcDbEntity
  8
墩柱
100
AcDbVertex
100
AcDb2dVertex
 10
571069.8839332609
 20
785702.9668959831
 30
0.0
 70
0
  0
VERTEX
  5
102
330
17
100
AcDbEntity
  8
墩柱
100
AcDbVertex
100
AcDb2dVertex
 10
571069.5827721263
 20
785703.1521038961
 30
0.0
 70
0
  0
SEQEND
  5
FA
330
F9
100
AcDbEntity
  8
墩柱
  0
POLYLINE
  5
103
330
17
100
AcDbEntity
  8
墩柱
100
AcDb2dPolyline
 66
1
 10
0.0
 20
0.0
 30
0.0
 70
1
  0
VERTEX
  5
105
330
17
100
AcDbEntity
  8
墩柱
100
AcDbVertex
100
AcDb2dVertex
 10
571081.7558301436
 20
785677.845749421
 30
0.0
 70
0
  0
VERTEX
  5
106
330
17
100
AcDbEntity
  8
墩柱
100
AcDbVertex
100
AcDb2dVertex
 10
571081.7991062982
 20
785678.1966442406
 30
0.0
 70
0
  0
VERTEX
  5
107
330
17
100
AcDbEntity
  8
墩柱
100
AcDbVertex
100
AcDb2dVertex
 10
571083.3757901954
 20
785679.4271189005
 30
0.0
 70
0
  0
VERTEX
  5
108
330
17
100
AcDbEntity
  8
墩柱
100
AcDbVertex
100
AcDb2dVertex
 10
571083.726685015
 20
785679.3838427458
 30
0.0
 70
0
  0
VERTEX
  5
109
330
17
100
AcDbEntity
  8
墩柱
100
AcDbVertex
100
AcDb2dVertex
 10
571084.6495410099
 20
785678.2013298229
 30
0.0
 70
0
  0
VERTEX
  5
10A
330
17
100
AcDbEntity
  8
墩柱
100
AcDbVertex
100
AcDb2dVertex
 10
571084.6062648552
 20
785677.8504350033
 30
0.0
 70
0
  0
VERTEX
  5
10B
330
17
100
AcDbEntity
  8
墩柱
100
AcDbVertex
100
AcDb2dVertex
 10
571083.0295809581
 20
785676.6199603435
 30
0.0
 70
0
  0
VERTEX
  5
10C
330
17
100
AcDbEntity
  8
墩柱
100
AcDbVertex
100
AcDb2dVertex
 10
571082.6786861385
 20
785676.6632364981
 30
0.0
 70
0
  0
SEQEND
  5
104
330
103
100
AcDbEntity
  8
墩柱
  0
POLYLINE
  5
10D
330
17
100
AcDbEntity
  8
墩柱
100
AcDb2dPolyline
 66
1
 10
0.0
 20
0.0
 30
0.0
 70
1
  0
VERTEX
  5
10F
330
17
100
AcDbEntity
  8
墩柱
100
AcDbVertex
100
AcDb2dVertex
 10
571104.1965842092
 20
785658.5607938959
 30
0.0
 70
0
  0
VERTEX
  5
110
330
17
100
AcDbEntity
  8
墩柱
100
AcDbVertex
100
AcDb2dVertex
 10
571104.0947043881
 20
785658.8993503934
 30
0.0
 70
0
  0
VERTEX
  5
111
330
17
100
AcDbEntity
  8
墩柱
100
AcDbVertex
100
AcDb2dVertex
 10
571105.0414110937
 20
785660.6610956683
 30
0.0
 70
0
  0
VERTEX
  5
112
330
17
100
AcDbEntity
  8
墩柱
100
AcDbVertex
100
AcDb2dVertex
 10
571105.3799675913
 20
785660.7629754895
 30
0.0
 70
0
  0
VERTEX
  5
113
330
17
100
AcDbEntity
  8
墩柱
100
AcDbVertex
100
AcDb2dVertex
 10
571106.7012765474
 20
785660.0529454603
 30
0.0
 70
0
  0
VERTEX
  5
114
330
17
100
AcDbEntity
  8
墩柱
100
AcDbVertex
100
AcDb2dVertex
 10
571106.8031563686
 20
785659.7143889627
 30
0.0
 70
0
  0
VERTEX
  5
115
330
17
100
AcDbEntity
  8
墩柱
100
AcDbVertex
100
AcDb2dVertex
 10
571105.8564496629
 20
785657.9526436878
 30
0.0
 70
0
  0
VERTEX
  5
116
330
17
100
AcDbEntity
  8
墩柱
100
AcDbVertex
100
AcDb2dVertex
 10
571105.5178931653
 20
785657.8507638667
 30
0.0
 70
0
  0
SEQEND
  5
10E
330
10D
100
AcDbEntity
  8
墩柱
  0
POLYLINE
  5
117
330
17
100
AcDbEntity
  8
墩柱
100
AcDb2dPolyline
 66
1
 10
0.0
 20
0.0
 30
0.0
 70
1
  0
VERTEX
  5
119
330
17
100
AcDbEntity
  8
墩柱
100
AcDbVertex
100
AcDb2dVertex
 10
571104.3287853308
 20
785781.4890970759
 30
0.0
 70
0
  0
VERTEX
  5
11A
330
17
100
AcDbEntity
  8
墩柱
100
AcDbVertex
100
AcDb2dVertex
 10
571104.6752756734
 20
785781.5594138056
 30
0.0
 70
0
  0
VERTEX
  5
11B
330
17
100
AcDbEntity
  8
墩柱
100
AcDbVertex
100
AcDb2dVertex
 10
571106.3425039628
 20
785780.4547193543
 30
0.0
 70
0
  0
VERTEX
  5
11C
330
17
100
AcDbEntity
  8
墩柱
100
AcDbVertex
100
AcDb2dVertex
 10
571106.4128206925
 20
785780.1082290116
 30
0.0
 70
0
  0
VERTEX
  5
11D
330
17
100
AcDbEntity
  8
墩柱
100
AcDbVertex
100
AcDb2dVertex
 10
571105.8052387442
 20
785779.1912534524
 30
0.0
 70
0
  0
VERTEX
  5
11E
330
17
100
AcDbEntity
  8
墩柱
100
AcDbVertex
100
AcDb2dVertex
 10
571105.4587484016
 20
785779.1209367227
 30
0.0
 70
0
  0
VERTEX
  5
11F
330
17
100
AcDbEntity
  8
墩柱
100
AcDbVertex
100
AcDb2dVertex
 10
571103.7915201122
 20
785780.225631174
 30
0.0
 70
0
  0
VERTEX
  5
120
330
17
100
AcDbEntity
  8
墩柱
100
AcDbVertex
100
AcDb2dVertex
 10
571103.7212033825
 20
785780.5721215167
 30
0.0
 70
0
  0
SEQEND
  5
118
330
117
100
AcDbEntity
  8
墩柱
  0
POLYLINE
  5
121
330
17
100
AcDbEntity
  8
墩柱
100
AcDb2dPolyline
 66
1
 10
0.0
 20
0.0
 30
0.0
 70
1
  0
VERTEX
  5
123
330
17
100
AcDbEntity
  8
墩柱
100
AcDbVertex
100
AcDb2dVertex
 10
571090.2707881255
 20
785733.7642987953
 30
0.0
 70
0
  0
VERTEX
  5
124
330
17
100
AcDbEntity
  8
墩柱
100
AcDbVertex
100
AcDb2dVertex
 10
571090.4964812973
 20
785734.0364432279
 30
0.0
 70
0
  0
VERTEX
  5
125
330
17
100
AcDbEntity
  8
墩柱
100
AcDbVertex
100
AcDb2dVertex
 10
571092.4878317149
 20
785734.2222482712
 30
0.0
 70
0
  0
VERTEX
  5
126
330
17
100
AcDbEntity
  8
墩柱
100
AcDbVertex
100
AcDb2dVertex
 10
571092.7599761476
 20
785733.9965550995
 30
0.0
 70
0
  0
VERTEX
  5
127
330
17
100
AcDbEntity
  8
墩柱
100
AcDbVertex
100
AcDb2dVertex
 10
571092.8993299301
 20
785732.5030422863
 30
0.0
 70
0
  0
VERTEX
  5
128
330
17
100
AcDbEntity
  8
墩柱
100
AcDbVertex
100
AcDb2dVertex
 10
571092.6736367582
 20
785732.2308978536
 30
0.0
 70
0
  0
VERTEX
  5
129
330
17
100
AcDbEntity
  8
墩柱
100
AcDbVertex
100
AcDb2dVertex
 10
571090.6822863406
 20
785732.0450928103
 30
0.0
 70
0
  0
VERTEX
  5
12A
330
17
100
AcDbEntity
  8
墩柱
100
AcDbVertex
100
AcDb2dVertex
 10
571090.410141908
 20
785732.270785982
 30
0.0
 70
0
  0
SEQEND
  5
122
330
121
100
AcDbEntity
  8
墩柱
  0
POLYLINE
  5
12B
330
17
100
AcDbEntity
  8
墩柱
100
AcDb2dPolyline
 66
1
 10
0.0
 20
0.0
 30
0.0
 70
1
  0
VERTEX
  5
12D
330
17
100
AcDbEntity
  8
墩柱
100
AcDbVertex
100
AcDb2dVertex
 10
571113.8532140459
 20
785690.229804991
 30
0.0
 70
0
  0
VERTEX
  5
12E
330
17
100
AcDbEntity
  8
墩柱
100
AcDbVertex
100
AcDb2dVertex
 10
571113.8064022859
 20
785690.5802456553
 30
0.0
 70
0
  0
VERTEX
  5
12F
330
17
100
AcDbEntity
  8
墩柱
100
AcDbVertex
100
AcDb2dVertex
 10
571115.0209179026
 20
785692.1692553521
 30
0.0
 70
0
  0
VERTEX
  5
130
330
17
100
AcDbEntity
  8
墩柱
100
AcDbVertex
100
AcDb2dVertex
 10
571115.3713585668
 20
785692.2160671122
 30
0.0
 70
0
  0
VERTEX
  5
131
330
17
100
AcDbEntity
  8
墩柱
100
AcDbVertex
100
AcDb2dVertex
 10
571116.5631158395
 20
785691.3051803997
 30
0.0
 70
0
  0
VERTEX
  5
132
330
17
100
AcDbEntity
  8
墩柱
100
AcDbVertex
100
AcDb2dVertex
 10
571116.6099275994
 20
785690.9547397355
 30
0.0
 70
0
  0
VERTEX
  5
133
330
17
100
AcDbEntity
  8
墩柱
100
AcDbVertex
100
AcDb2dVertex
 10
571115.3954119828
 20
785689.3657300386
 30
0.0
 70
0
  0
VERTEX
  5
134
330
17
100
AcDbEntity
  8
墩柱
100
AcDbVertex
100
AcDb2dVertex
 10
571115.0449713186
 20
785689.3189182786
 30
0.0
 70
0
  0
SEQEND
  5
12C
330
12B
100
AcDbEntity
  8
墩柱
  0
POLYLINE
  5
135
330
17
100
AcDbEntity
  8
墩柱
100
AcDb2dPolyline
 66
1
 10
0.0
 20
0.0
 30
0.0
 70
1
  0
VERTEX
  5
137
330
17
100
AcDbEntity
  8
墩柱
100
AcDbVertex
100
AcDb2dVertex
 10
571149.922296485
 20
785672.1867703456
 30
0.0
 70
0
  0
VERTEX
  5
138
330
17
100
AcDbEntity
  8
墩柱
100
AcDbVertex
100
AcDb2dVertex
 10
571149.7552360172
 20
785672.4983643122
 30
0.0
 70
0
  0
VERTEX
  5
139
330
17
100
AcDbEntity
  8
墩柱
100
AcDbVertex
100
AcDb2dVertex
 10
571150.3333700126
 20
785674.4129820504
 30
0.0
 70
0
  0
VERTEX
  5
13A
330
17
100
AcDbEntity
  8
墩柱
100
AcDbVertex
100
AcDb2dVertex
 10
571150.6449639793
 20
785674.5800425182
 30
0.0
 70
0
  0
VERTEX
  5
13B
330
17
100
AcDbEntity
  8
墩柱
100
AcDbVertex
100
AcDb2dVertex
 10
571152.0809272829
 20
785674.1464420217
 30
0.0
 70
0
  0
VERTEX
  5
13C
330
17
100
AcDbEntity
  8
墩柱
100
AcDbVertex
100
AcDb2dVertex
 10
571152.2479877508
 20
785673.834848055
 30
0.0
 70
0
  0
VERTEX
  5
13D
330
17
100
AcDbEntity
  8
墩柱
100
AcDbVertex
100
AcDb2dVertex
 10
571151.6698537554
 20
785671.9202303168
 30
0.0
 70
0
  0
VERTEX
  5
13E
330
17
100
AcDbEntity
  8
墩柱
100
AcDbVertex
100
AcDb2dVertex
 10
571151.3582597887
 20
785671.753169849
 30
0.0
 70
0
  0
SEQEND
  5
136
330
135
100
AcDbEntity
  8
墩柱
  0
POLYLINE
  5
13F
330
17
100
AcDbEntity
  8
墩柱
100
AcDb2dPolyline
 66
1
 10
0.0
 20
0.0
 30
0.0
 70
1
  0
VERTEX
  5
141
330
17
100
AcDbEntity
  8
墩柱
100
AcDbVertex
100
AcDb2dVertex
 10
571193.2838632208
 20
785659.9968825432
 30
0.0
 70
0
  0
VERTEX
  5
142
330
17
100
AcDbEntity
  8
墩柱
100
AcDbVertex
100
AcDb2dVertex
 10
571193.1102630843
 20
785660.3048809078
 30
0.0
 70
0
  0
VERTEX
  5
143
330
17
100
AcDbEntity
  8
墩柱
100
AcDbVertex
100
AcDb2dVertex
 10
571193.6478559966
 20
785662.2312749124
 30
0.0
 70
0
  0
VERTEX
  5
144
330
17
100
AcDbEntity
  8
墩柱
100
AcDbVertex
100
AcDb2dVertex
 10
571193.9558543613
 20
785662.4048750488
 30
0.0
 70
0
  0
VERTEX
  5
145
330
17
100
AcDbEntity
  8
墩柱
100
AcDbVertex
100
AcDb2dVertex
 10
571195.4006498647
 20
785662.0016803646
 30
0.0
 70
0
  0
VERTEX
  5
146
330
17
100
AcDbEntity
  8
墩柱
100
AcDbVertex
100
AcDb2dVertex
 10
571195.5742500012
 20
785661.693682
 30
0.0
 70
0
  0
VERTEX
  5
147
330
17
100
AcDbEntity
  8
墩柱
100
AcDbVertex
100
AcDb2dVertex
 10
571195.0366570889
 20
785659.7672879954
 30
0.0
 70
0
  0
VERTEX
  5
148
330
17
100
AcDbEntity
  8
墩柱
100
AcDbVertex
100
AcDb2dVertex
 10
571194.7286587242
 20
785659.593687859
 30
0.0
 70
0
  0
SEQEND
  5
140
330
13F
100
AcDbEntity
  8
墩柱
  0
POLYLINE
  5
149
330
17
100
AcDbEntity
  8
墩柱
100
AcDb2dPolyline
 66
1
 10
0.0
 20
0.0
 30
0.0
 70
1
  0
VERTEX
  5
14B
330
17
100
AcDbEntity
  8
墩柱
100
AcDbVertex
100
AcDb2dVertex
 10
571236.5931041538
 20
785647.7769708397
 30
0.0
 70
0
  0
VERTEX
  5
14C
330
17
100
AcDbEntity
  8
墩柱
100
AcDbVertex
100
AcDb2dVertex
 10
571236.4195040172
 20
785648.0849692043
 30
0.0
 70
0
  0
VERTEX
  5
14D
330
17
100
AcDbEntity
  8
墩柱
100
AcDbVertex
100
AcDb2dVertex
 10
571236.9570969295
 20
785650.0113632089
 30
0.0
 70
0
  0
VERTEX
  5
14E
330
17
100
AcDbEntity
  8
墩柱
100
AcDbVertex
100
AcDb2dVertex
 10
571237.2650952942
 20
785650.1849633453
 30
0.0
 70
0
  0
VERTEX
  5
14F
330
17
100
AcDbEntity
  8
墩柱
100
AcDbVertex
100
AcDb2dVertex
 10
571238.7098907976
 20
785649.7817686611
 30
0.0
 70
0
  0
VERTEX
  5
150
330
17
100
AcDbEntity
  8
墩柱
100
AcDbVertex
100
AcDb2dVertex
 10
571238.8834909342
 20
785649.4737702966
 30
0.0
 70
0
  0
VERTEX
  5
151
330
17
100
AcDbEntity
  8
墩柱
100
AcDbVertex
100
AcDb2dVertex
 10
571238.3458980218
 20
785647.547376292
 30
0.0
 70
0
  0
VERTEX
  5
152
330
17
100
AcDbEntity
  8
墩柱
100
AcDbVertex
100
AcDb2dVertex
 10
571238.0378996572
 20
785647.3737761555
 30
0.0
 70
0
  0
SEQEND
  5
14A
330
149
100
AcDbEntity
  8
墩柱
  0
POLYLINE
  5
153
330
17
100
AcDbEntity
  8
墩柱
100
AcDb2dPolyline
 66
1
 10
0.0
 20
0.0
 30
0.0
 70
1
  0
VERTEX
  5
155
330
17
100
AcDbEntity
  8
墩柱
100
AcDbVertex
100
AcDb2dVertex
 10
571568.0004287995
 20
785548.1244165031
 30
0.0
 70
0
  0
VERTEX
  5
156
330
17
100
AcDbEntity
  8
墩柱
100
AcDbVertex
100
AcDb2dVertex
 10
571567.826828663
 20
785548.4324148677
 30
0.0
 70
0
  0
VERTEX
  5
157
330
17
100
AcDbEntity
  8
墩柱
100
AcDbVertex
100
AcDb2dVertex
 10
571568.3644215753
 20
785550.3588088723
 30
0.0
 70
0
  0
VERTEX
  5
158
330
17
100
AcDbEntity
  8
墩柱
100
AcDbVertex
100
AcDb2dVertex
 10
571568.67241994
 20
785550.5324090087
 30
0.0
 70
0
  0
VERTEX
  5
159
330
17
100
AcDbEntity
  8
墩柱
100
AcDbVertex
100
AcDb2dVertex
 10
571570.1172154434
 20
785550.1292143245
 30
0.0
 70
0
  0
VERTEX
  5
15A
330
17
100
AcDbEntity
  8
墩柱
100
AcDbVertex
100
AcDb2dVertex
 10
571570.2908155799
 20
785549.82121596
 30
0.0
 70
0
  0
VERTEX
  5
15B
330
17
100
AcDbEntity
  8
墩柱
100
AcDbVertex
100
AcDb2dVertex
 10
571569.7532226676
 20
785547.8948219554
 30
0.0
 70
0
  0
VERTEX
  5
15C
330
17
100
AcDbEntity
  8
墩柱
100
AcDbVertex
100
AcDb2dVertex
 10
571569.4452243029
 20
785547.7212218189
 30
0.0
 70
0
  0
SEQEND
  5
154
330
153
100
AcDbEntity
  8
墩柱
  0
POLYLINE
  5
15D
330
17
100
AcDbEntity
  8
墩柱
100
AcDb2dPolyline
 66
1
 10
0.0
 20
0.0
 30
0.0
 70
1
  0
VERTEX
  5
15F
330
17
100
AcDbEntity
  8
墩柱
100
AcDbVertex
100
AcDb2dVertex
 10
571524.6566853094
 20
785560.2207655592
 30
0.0
 70
0
  0
VERTEX
  5
160
330
17
100
AcDbEntity
  8
墩柱
100
AcDbVertex
100
AcDb2dVertex
 10
571524.483089992
 20
785560.52876664
 30
0.0
 70
0
  0
VERTEX
  5
161
330
17
100
AcDbEntity
  8
墩柱
100
AcDbVertex
100
AcDb2dVertex
 10
571525.0207130455
 20
785562.4551522328
 30
0.0
 70
0
  0
VERTEX
  5
162
330
17
100
AcDbEntity
  8
墩柱
100
AcDbVertex
100
AcDb2dVertex
 10
571525.3287141263
 20
785562.6287475502
 30
0.0
 70
0
  0
VERTEX
  5
163
330
17
100
AcDbEntity
  8
墩柱
100
AcDbVertex
100
AcDb2dVertex
 10
571526.7735033209
 20
785562.22553026
 30
0.0
 70
0
  0
VERTEX
  5
164
330
17
100
AcDbEntity
  8
墩柱
100
AcDbVertex
100
AcDb2dVertex
 10
571526.9470986383
 20
785561.9175291792
 30
0.0
 70
0
  0
VERTEX
  5
165
330
17
100
AcDbEntity
  8
墩柱
100
AcDbVertex
100
AcDb2dVertex
 10
571526.4094755847
 20
785559.9911435865
 30
0.0
 70
0
  0
VERTEX
  5
166
330
17
100
AcDbEntity
  8
墩柱
100
AcDbVertex
100
AcDb2dVertex
 10
571526.101474504
 20
785559.817548269
 30
0.0
 70
0
  0
SEQEND
  5
15E
330
15D
100
AcDbEntity
  8
墩柱
  0
POLYLINE
  5
167
330
17
100
AcDbEntity
  8
墩柱
100
AcDb2dPolyline
 66
1
 10
0.0
 20
0.0
 30
0.0
 70
1
  0
VERTEX
  5
169
330
17
100
AcDbEntity
  8
墩柱
100
AcDbVertex
100
AcDb2dVertex
 10
571481.312957503
 20
785572.317098055
 30
0.0
 70
0
  0
VERTEX
  5
16A
330
17
100
AcDbEntity
  8
墩柱
100
AcDbVertex
100
AcDb2dVertex
 10
571481.1393621856
 20
785572.6250991358
 30
0.0
 70
0
  0
VERTEX
  5
16B
330
17
100
AcDbEntity
  8
墩柱
100
AcDbVertex
100
AcDb2dVertex
 10
571481.6769852391
 20
785574.5514847286
 30
0.0
 70
0
  0
VERTEX
  5
16C
330
17
100
AcDbEntity
  8
墩柱
100
AcDbVertex
100
AcDb2dVertex
 10
571481.9849863199
 20
785574.725080046
 30
0.0
 70
0
  0
VERTEX
  5
16D
330
17
100
AcDbEntity
  8
墩柱
100
AcDbVertex
100
AcDb2dVertex
 10
571483.4297755145
 20
785574.3218627558
 30
0.0
 70
0
  0
VERTEX
  5
16E
330
17
100
AcDbEntity
  8
墩柱
100
AcDbVertex
100
AcDb2dVertex
 10
571483.6033708319
 20
785574.013861675
 30
0.0
 70
0
  0
VERTEX
  5
16F
330
17
100
AcDbEntity
  8
墩柱
100
AcDbVertex
100
AcDb2dVertex
 10
571483.0657477784
 20
785572.0874760823
 30
0.0
 70
0
  0
VERTEX
  5
170
330
17
100
AcDbEntity
  8
墩柱
100
AcDbVertex
100
AcDb2dVertex
 10
571482.7577466976
 20
785571.9138807649
 30
0.0
 70
0
  0
SEQEND
  5
168
330
167
100
AcDbEntity
  8
墩柱
  0
POLYLINE
  5
171
330
17
100
AcDbEntity
  8
墩柱
100
AcDb2dPolyline
 66
1
 10
0.0
 20
0.0
 30
0.0
 70
1
  0
VERTEX
  5
173
330
17
100
AcDbEntity
  8
墩柱
100
AcDbVertex
100
AcDb2dVertex
 10
571437.9692296966
 20
785584.4134305507
 30
0.0
 70
0
  0
VERTEX
  5
174
330
17
100
AcDbEntity
  8
墩柱
100
AcDbVertex
100
AcDb2dVertex
 10
571437.7956343791
 20
785584.7214316315
 30
0.0
 70
0
  0
VERTEX
  5
175
330
17
100
AcDbEntity
  8
墩柱
100
AcDbVertex
100
AcDb2dVertex
 10
571438.3332574327
 20
785586.6478172243
 30
0.0
 70
0
  0
VERTEX
  5
176
330
17
100
AcDbEntity
  8
墩柱
100
AcDbVertex
100
AcDb2dVertex
 10
571438.6412585134
 20
785586.8214125417
 30
0.0
 70
0
  0
VERTEX
  5
177
330
17
100
AcDbEntity
  8
墩柱
100
AcDbVertex
100
AcDb2dVertex
 10
571440.086047708
 20
785586.4181952515
 30
0.0
 70
0
  0
VERTEX
  5
178
330
17
100
AcDbEntity
  8
墩柱
100
AcDbVertex
100
AcDb2dVertex
 10
571440.2596430255
 20
785586.1101941707
 30
0.0
 70
0
  0
VERTEX
  5
179
330
17
100
AcDbEntity
  8
墩柱
100
AcDbVertex
100
AcDb2dVertex
 10
571439.7220199719
 20
785584.183808578
 30
0.0
 70
0
  0
VERTEX
  5
17A
330
17
100
AcDbEntity
  8
墩柱
100
AcDbVertex
100
AcDb2dVertex
 10
571439.4140188912
 20
785584.0102132605
 30
0.0
 70
0
  0
SEQEND
  5
172
330
171
100
AcDbEntity
  8
墩柱
  0
POLYLINE
  5
17B
330
17
100
AcDbEntity
  8
墩柱
100
AcDb2dPolyline
 66
1
 10
0.0
 20
0.0
 30
0.0
 70
1
  0
VERTEX
  5
17D
330
17
100
AcDbEntity
  8
墩柱
100
AcDbVertex
100
AcDb2dVertex
 10
571395.6465684862
 20
785600.9539603369
 30
0.0
 70
0
  0
VERTEX
  5
17E
330
17
100
AcDbEntity
  8
墩柱
100
AcDbVertex
100
AcDb2dVertex
 10
571395.4677061571
 20
785601.2589329048
 30
0.0
 70
0
  0
VERTEX
  5
17F
330
17
100
AcDbEntity
  8
墩柱
100
AcDbVertex
100
AcDb2dVertex
 10
571396.098257351
 20
785603.6781073905
 30
0.0
 70
0
  0
VERTEX
  5
180
330
17
100
AcDbEntity
  8
墩柱
100
AcDbVertex
100
AcDb2dVertex
 10
571396.4032299189
 20
785603.8569697196
 30
0.0
 70
0
  0
VERTEX
  5
181
330
17
100
AcDbEntity
  8
墩柱
100
AcDbVertex
100
AcDb2dVertex
 10
571398.1450355486
 20
785603.4029728601
 30
0.0
 70
0
  0
VERTEX
  5
182
330
17
100
AcDbEntity
  8
墩柱
100
AcDbVertex
100
AcDb2dVertex
 10
571398.3238978777
 20
785603.0980002922
 30
0.0
 70
0
  0
VERTEX
  5
183
330
17
100
AcDbEntity
  8
墩柱
100
AcDbVertex
100
AcDb2dVertex
 10
571397.6933466839
 20
785600.6788258065
 30
0.0
 70
0
  0
VERTEX
  5
184
330
17
100
AcDbEntity
  8
墩柱
100
AcDbVertex
100
AcDb2dVertex
 10
571397.3883741159
 20
785600.4999634774
 30
0.0
 70
0
  0
SEQEND
  5
17C
330
17B
100
AcDbEntity
  8
墩柱
  0
POLYLINE
  5
185
330
17
100
AcDbEntity
  8
墩柱
100
AcDb2dPolyline
 66
1
 10
0.0
 20
0.0
 30
0.0
 70
1
  0
VERTEX
  5
187
330
17
100
AcDbEntity
  8
墩柱
100
AcDbVertex
100
AcDb2dVertex
 10
571393.1231782746
 20
785591.2727143463
 30
0.0
 70
0
  0
VERTEX
  5
188
330
17
100
AcDbEntity
  8
墩柱
100
AcDbVertex
100
AcDb2dVertex
 10
571392.9443159455
 20
785591.5776869142
 30
0.0
 70
0
  0
VERTEX
  5
189
330
17
100
AcDbEntity
  8
墩柱
100
AcDbVertex
100
AcDb2dVertex
 10
571393.5748671393
 20
785593.9968614
 30
0.0
 70
0
  0
VERTEX
  5
18A
330
17
100
AcDbEntity
  8
墩柱
100
AcDbVertex
100
AcDb2dVertex
 10
571393.8798397073
 20
785594.1757237291
 30
0.0
 70
0
  0
VERTEX
  5
18B
330
17
100
AcDbEntity
  8
墩柱
100
AcDbVertex
100
AcDb2dVertex
 10
571395.621645337
 20
785593.7217268696
 30
0.0
 70
0
  0
VERTEX
  5
18C
330
17
100
AcDbEntity
  8
墩柱
100
AcDbVertex
100
AcDb2dVertex
 10
571395.8005076661
 20
785593.4167543016
 30
0.0
 70
0
  0
VERTEX
  5
18D
330
17
100
AcDbEntity
  8
墩柱
100
AcDbVertex
100
AcDb2dVertex
 10
571395.1699564722
 20
785590.9975798159
 30
0.0
 70
0
  0
VERTEX
  5
18E
330
17
100
AcDbEntity
  8
墩柱
100
AcDbVertex
100
AcDb2dVertex
 10
571394.8649839043
 20
785590.8187174868
 30
0.0
 70
0
  0
SEQEND
  5
186
330
185
100
AcDbEntity
  8
墩柱
  0
POLYLINE
  5
18F
330
17
100
AcDbEntity
  8
墩柱
100
AcDb2dPolyline
 66
1
 10
0.0
 20
0.0
 30
0.0
 70
1
  0
VERTEX
  5
191
330
17
100
AcDbEntity
  8
墩柱
100
AcDbVertex
100
AcDb2dVertex
 10
571357.1565482215
 20
785612.1974514034
 30
0.0
 70
0
  0
VERTEX
  5
192
330
17
100
AcDbEntity
  8
墩柱
100
AcDbVertex
100
AcDb2dVertex
 10
571356.9728221779
 20
785612.4995188478
 30
0.0
 70
0
  0
VERTEX
  5
193
330
17
100
AcDbEntity
  8
墩柱
100
AcDbVertex
100
AcDb2dVertex
 10
571357.5645291823
 20
785614.928486287
 30
0.0
 70
0
  0
VERTEX
  5
194
330
17
100
AcDbEntity
  8
墩柱
100
AcDbVertex
100
AcDb2dVertex
 10
571357.8665966266
 20
785615.1122123306
 30
0.0
 70
0
  0
VERTEX
  5
195
330
17
100
AcDbEntity
  8
墩柱
100
AcDbVertex
100
AcDb2dVertex
 10
571359.6154531828
 20
785614.6861832875
 30
0.0
 70
0
  0
VERTEX
  5
196
330
17
100
AcDbEntity
  8
墩柱
100
AcDbVertex
100
AcDb2dVertex
 10
571359.7991792264
 20
785614.3841158431
 30
0.0
 70
0
  0
VERTEX
  5
197
330
17
100
AcDbEntity
  8
墩柱
100
AcDbVertex
100
AcDb2dVertex
 10
571359.207472222
 20
785611.9551484039
 30
0.0
 70
0
  0
VERTEX
  5
198
330
17
100
AcDbEntity
  8
墩柱
100
AcDbVertex
100
AcDb2dVertex
 10
571358.9054047777
 20
785611.7714223603
 30
0.0
 70
0
  0
SEQEND
  5
190
330
18F
100
AcDbEntity
  8
墩柱
  0
POLYLINE
  5
199
330
17
100
AcDbEntity
  8
墩柱
100
AcDb2dPolyline
 66
1
 10
0.0
 20
0.0
 30
0.0
 70
1
  0
VERTEX
  5
19B
330
17
100
AcDbEntity
  8
墩柱
100
AcDbVertex
100
AcDb2dVertex
 10
571354.2855385003
 20
785600.4119070707
 30
0.0
 70
0
  0
VERTEX
  5
19C
330
17
100
AcDbEntity
  8
墩柱
100
AcDbVertex
100
AcDb2dVertex
 10
571354.1018124567
 20
785600.7139745151
 30
0.0
 70
0
  0
VERTEX
  5
19D
330
17
100
AcDbEntity
  8
墩柱
100
AcDbVertex
100
AcDb2dVertex
 10
571354.6935194611
 20
785603.1429419543
 30
0.0
 70
0
  0
VERTEX
  5
19E
330
17
100
AcDbEntity
  8
墩柱
100
AcDbVertex
100
AcDb2dVertex
 10
571354.9955869054
 20
785603.3266679979
 30
0.0
 70
0
  0
VERTEX
  5
19F
330
17
100
AcDbEntity
  8
墩柱
100
AcDbVertex
100
AcDb2dVertex
 10
571356.7444434616
 20
785602.9006389548
 30
0.0
 70
0
  0
VERTEX
  5
1A0
330
17
100
AcDbEntity
  8
墩柱
100
AcDbVertex
100
AcDb2dVertex
 10
571356.9281695052
 20
785602.5985715104
 30
0.0
 70
0
  0
VERTEX
  5
1A1
330
17
100
AcDbEntity
  8
墩柱
100
AcDbVertex
100
AcDb2dVertex
 10
571356.3364625009
 20
785600.1696040712
 30
0.0
 70
0
  0
VERTEX
  5
1A2
330
17
100
AcDbEntity
  8
墩柱
100
AcDbVertex
100
AcDb2dVertex
 10
571356.0343950565
 20
785599.9858780276
 30
0.0
 70
0
  0
SEQEND
  5
19A
330
199
100
AcDbEntity
  8
墩柱
  0
POLYLINE
  5
1A3
330
17
100
AcDbEntity
  8
墩柱
100
AcDb2dPolyline
 66
1
 10
0.0
 20
0.0
 30
0.0
 70
1
  0
VERTEX
  5
1A5
330
17
100
AcDbEntity
  8
墩柱
100
AcDbVertex
100
AcDb2dVertex
 10
571318.023813089
 20
785620.8688594215
 30
0.0
 70
0
  0
VERTEX
  5
1A6
330
17
100
AcDbEntity
  8
墩柱
100
AcDbVertex
100
AcDb2dVertex
 10
571317.835283113
 20
785621.1679521296
 30
0.0
 70
0
  0
VERTEX
  5
1A7
330
17
100
AcDbEntity
  8
墩柱
100
AcDbVertex
100
AcDb2dVertex
 10
571318.3880967739
 20
785623.6060655512
 30
0.0
 70
0
  0
VERTEX
  5
1A8
330
17
100
AcDbEntity
  8
墩柱
100
AcDbVertex
100
AcDb2dVertex
 10
571318.687189482
 20
785623.7945955272
 30
0.0
 70
0
  0
VERTEX
  5
1A9
330
17
100
AcDbEntity
  8
墩柱
100
AcDbVertex
100
AcDb2dVertex
 10
571320.4426311456
 20
785623.3965696914
 30
0.0
 70
0
  0
VERTEX
  5
1AA
330
17
100
AcDbEntity
  8
墩柱
100
AcDbVertex
100
AcDb2dVertex
 10
571320.6311611217
 20
785623.0974769832
 30
0.0
 70
0
  0
VERTEX
  5
1AB
330
17
100
AcDbEntity
  8
墩柱
100
AcDbVertex
100
AcDb2dVertex
 10
571320.0783474607
 20
785620.6593635617
 30
0.0
 70
0
  0
VERTEX
  5
1AC
330
17
100
AcDbEntity
  8
墩柱
100
AcDbVertex
100
AcDb2dVertex
 10
571319.7792547526
 20
785620.4708335856
 30
0.0
 70
0
  0
SEQEND
  5
1A4
330
1A3
100
AcDbEntity
  8
墩柱
  0
POLYLINE
  5
1AD
330
17
100
AcDbEntity
  8
墩柱
100
AcDb2dPolyline
 66
1
 10
0.0
 20
0.0
 30
0.0
 70
1
  0
VERTEX
  5
1AF
330
17
100
AcDbEntity
  8
墩柱
100
AcDbVertex
100
AcDb2dVertex
 10
571315.5325693825
 20
785609.8815500495
 30
0.0
 70
0
  0
VERTEX
  5
1B0
330
17
100
AcDbEntity
  8
墩柱
100
AcDbVertex
100
AcDb2dVertex
 10
571315.3440394064
 20
785610.1806427577
 30
0.0
 70
0
  0
VERTEX
  5
1B1
330
17
100
AcDbEntity
  8
墩柱
100
AcDbVertex
100
AcDb2dVertex
 10
571315.8968530673
 20
785612.6187561792
 30
0.0
 70
0
  0
VERTEX
  5
1B2
330
17
100
AcDbEntity
  8
墩柱
100
AcDbVertex
100
AcDb2dVertex
 10
571316.1959457755
 20
785612.8072861553
 30
0.0
 70
0
  0
VERTEX
  5
1B3
330
17
100
AcDbEntity
  8
墩柱
100
AcDbVertex
100
AcDb2dVertex
 10
571317.951387439
 20
785612.4092603194
 30
0.0
 70
0
  0
VERTEX
  5
1B4
330
17
100
AcDbEntity
  8
墩柱
100
AcDbVertex
100
AcDb2dVertex
 10
571318.1399174151
 20
785612.1101676113
 30
0.0
 70
0
  0
VERTEX
  5
1B5
330
17
100
AcDbEntity
  8
墩柱
100
AcDbVertex
100
AcDb2dVertex
 10
571317.5871037542
 20
785609.6720541897
 30
0.0
 70
0
  0
VERTEX
  5
1B6
330
17
100
AcDbEntity
  8
墩柱
100
AcDbVertex
100
AcDb2dVertex
 10
571317.288011046
 20
785609.4835242137
 30
0.0
 70
0
  0
SEQEND
  5
1AE
330
1AD
100
AcDbEntity
  8
墩柱
  0
POLYLINE
  5
1B7
330
17
100
AcDbEntity
  8
墩柱
100
AcDb2dPolyline
 66
1
 10
0.0
 20
0.0
 30
0.0
 70
1
  0
VERTEX
  5
1B9
330
17
100
AcDbEntity
  8
墩柱
100
AcDbVertex
100
AcDb2dVertex
 10
571276.6829875098
 20
785618.996449162
 30
0.0
 70
0
  0
VERTEX
  5
1BA
330
17
100
AcDbEntity
  8
墩柱
100
AcDbVertex
100
AcDb2dVertex
 10
571276.4897079975
 20
785619.2924948175
 30
0.0
 70
0
  0
VERTEX
  5
1BB
330
17
100
AcDbEntity
  8
墩柱
100
AcDbVertex
100
AcDb2dVertex
 10
571277.003538714
 20
785621.7391206563
 30
0.0
 70
0
  0
VERTEX
  5
1BC
330
17
100
AcDbEntity
  8
墩柱
100
AcDbVertex
100
AcDb2dVertex
 10
571277.2995843695
 20
785621.9324001685
 30
0.0
 70
0
  0
VERTEX
  5
1BD
330
17
100
AcDbEntity
  8
墩柱
100
AcDbVertex
100
AcDb2dVertex
 10
571279.0611549735
 20
785621.5624420526
 30
0.0
 70
0
  0
VERTEX
  5
1BE
330
17
100
AcDbEntity
  8
墩柱
100
AcDbVertex
100
AcDb2dVertex
 10
571279.2544344857
 20
785621.2663963971
 30
0.0
 70
0
  0
VERTEX
  5
1BF
330
17
100
AcDbEntity
  8
墩柱
100
AcDbVertex
100
AcDb2dVertex
 10
571278.7406037692
 20
785618.8197705584
 30
0.0
 70
0
  0
VERTEX
  5
1C0
330
17
100
AcDbEntity
  8
墩柱
100
AcDbVertex
100
AcDb2dVertex
 10
571278.4445581137
 20
785618.6264910462
 30
0.0
 70
0
  0
SEQEND
  5
1B8
330
1B7
100
AcDbEntity
  8
墩柱
  0
POLYLINE
  5
1C1
330
17
100
AcDbEntity
  8
墩柱
100
AcDb2dPolyline
 66
1
 10
0.0
 20
0.0
 30
0.0
 70
1
  0
VERTEX
  5
1C3
330
17
100
AcDbEntity
  8
墩柱
100
AcDbVertex
100
AcDb2dVertex
 10
571279.8968342157
 20
785634.2993108631
 30
0.0
 70
0
  0
VERTEX
  5
1C4
330
17
100
AcDbEntity
  8
墩柱
100
AcDbVertex
100
AcDb2dVertex
 10
571279.7035547035
 20
785634.5953565186
 30
0.0
 70
0
  0
VERTEX
  5
1C5
330
17
100
AcDbEntity
  8
墩柱
100
AcDbVertex
100
AcDb2dVertex
 10
571280.21738542
 20
785637.0419823574
 30
0.0
 70
0
  0
VERTEX
  5
1C6
330
17
100
AcDbEntity
  8
墩柱
100
AcDbVertex
100
AcDb2dVertex
 10
571280.5134310755
 20
785637.2352618696
 30
0.0
 70
0
  0
VERTEX
  5
1C7
330
17
100
AcDbEntity
  8
墩柱
100
AcDbVertex
100
AcDb2dVertex
 10
571282.2750016794
 20
785636.8653037538
 30
0.0
 70
0
  0
VERTEX
  5
1C8
330
17
100
AcDbEntity
  8
墩柱
100
AcDbVertex
100
AcDb2dVertex
 10
571282.4682811917
 20
785636.5692580983
 30
0.0
 70
0
  0
VERTEX
  5
1C9
330
17
100
AcDbEntity
  8
墩柱
100
AcDbVertex
100
AcDb2dVertex
 10
571281.9544504752
 20
785634.1226322595
 30
0.0
 70
0
  0
VERTEX
  5
1CA
330
17
100
AcDbEntity
  8
墩柱
100
AcDbVertex
100
AcDb2dVertex
 10
571281.6584048197
 20
785633.9293527473
 30
0.0
 70
0
  0
SEQEND
  5
1C2
330
1C1
100
AcDbEntity
  8
墩柱
  0
POLYLINE
  5
1CB
330
17
100
AcDbEntity
  8
墩柱
100
AcDb2dPolyline
 66
1
 10
0.0
 20
0.0
 30
0.0
 70
1
  0
VERTEX
  5
1CD
330
17
100
AcDbEntity
  8
墩柱
100
AcDbVertex
100
AcDb2dVertex
 10
571278.5403211241
 20
785627.8402186488
 30
0.0
 70
0
  0
VERTEX
  5
1CE
330
17
100
AcDbEntity
  8
墩柱
100
AcDbVertex
100
AcDb2dVertex
 10
571278.3470416119
 20
785628.1362643043
 30
0.0
 70
0
  0
VERTEX
  5
1CF
330
17
100
AcDbEntity
  8
墩柱
100
AcDbVertex
100
AcDb2dVertex
 10
571278.8608723284
 20
785630.582890143
 30
0.0
 70
0
  0
VERTEX
  5
1D0
330
17
100
AcDbEntity
  8
墩柱
100
AcDbVertex
100
AcDb2dVertex
 10
571279.1569179839
 20
785630.7761696553
 30
0.0
 70
0
  0
VERTEX
  5
1D1
330
17
100
AcDbEntity
  8
墩柱
100
AcDbVertex
100
AcDb2dVertex
 10
571280.9184885878
 20
785630.4062115394
 30
0.0
 70
0
  0
VERTEX
  5
1D2
330
17
100
AcDbEntity
  8
墩柱
100
AcDbVertex
100
AcDb2dVertex
 10
571281.1117681001
 20
785630.1101658839
 30
0.0
 70
0
  0
VERTEX
  5
1D3
330
17
100
AcDbEntity
  8
墩柱
100
AcDbVertex
100
AcDb2dVertex
 10
571280.5979373836
 20
785627.6635400451
 30
0.0
 70
0
  0
VERTEX
  5
1D4
330
17
100
AcDbEntity
  8
墩柱
100
AcDbVertex
100
AcDb2dVertex
 10
571280.3018917281
 20
785627.4702605329
 30
0.0
 70
0
  0
SEQEND
  5
1CC
330
1CB
100
AcDbEntity
  8
墩柱
  0
POLYLINE
  5
1D5
330
17
100
AcDbEntity
  8
墩柱
100
AcDb2dPolyline
 66
1
 10
0.0
 20
0.0
 30
0.0
 70
1
  0
VERTEX
  5
1D7
330
17
100
AcDbEntity
  8
墩柱
100
AcDbVertex
100
AcDb2dVertex
 10
571828.0627799538
 20
785475.5464380889
 30
0.0
 70
0
  0
VERTEX
  5
1D8
330
17
100
AcDbEntity
  8
墩柱
100
AcDbVertex
100
AcDb2dVertex
 10
571827.8891846364
 20
785475.8544391696
 30
0.0
 70
0
  0
VERTEX
  5
1D9
330
17
100
AcDbEntity
  8
墩柱
100
AcDbVertex
100
AcDb2dVertex
 10
571828.42680769
 20
785477.7808247624
 30
0.0
 70
0
  0
VERTEX
  5
1DA
330
17
100
AcDbEntity
  8
墩柱
100
AcDbVertex
100
AcDb2dVertex
 10
571828.7348087707
 20
785477.9544200798
 30
0.0
 70
0
  0
VERTEX
  5
1DB
330
17
100
AcDbEntity
  8
墩柱
100
AcDbVertex
100
AcDb2dVertex
 10
571830.1795979653
 20
785477.5512027896
 30
0.0
 70
0
  0
VERTEX
  5
1DC
330
17
100
AcDbEntity
  8
墩柱
100
AcDbVertex
100
AcDb2dVertex
 10
571830.3531932827
 20
785477.2432017089
 30
0.0
 70
0
  0
VERTEX
  5
1DD
330
17
100
AcDbEntity
  8
墩柱
100
AcDbVertex
100
AcDb2dVertex
 10
571829.8155702292
 20
785475.3168161161
 30
0.0
 70
0
  0
VERTEX
  5
1DE
330
17
100
AcDbEntity
  8
墩柱
100
AcDbVertex
100
AcDb2dVertex
 10
571829.5075691484
 20
785475.1432207987
 30
0.0
 70
0
  0
SEQEND
  5
1D6
330
1D5
100
AcDbEntity
  8
墩柱
  0
POLYLINE
  5
1DF
330
17
100
AcDbEntity
  8
墩柱
100
AcDb2dPolyline
 66
1
 10
0.0
 20
0.0
 30
0.0
 70
1
  0
VERTEX
  5
1E1
330
17
100
AcDbEntity
  8
墩柱
100
AcDbVertex
100
AcDb2dVertex
 10
571784.7190678313
 20
785487.6427540244
 30
0.0
 70
0
  0
VERTEX
  5
1E2
330
17
100
AcDbEntity
  8
墩柱
100
AcDbVertex
100
AcDb2dVertex
 10
571784.5454676948
 20
785487.9507523889
 30
0.0
 70
0
  0
VERTEX
  5
1E3
330
17
100
AcDbEntity
  8
墩柱
100
AcDbVertex
100
AcDb2dVertex
 10
571785.0830606071
 20
785489.8771463935
 30
0.0
 70
0
  0
VERTEX
  5
1E4
330
17
100
AcDbEntity
  8
墩柱
100
AcDbVertex
100
AcDb2dVertex
 10
571785.3910589718
 20
785490.05074653
 30
0.0
 70
0
  0
VERTEX
  5
1E5
330
17
100
AcDbEntity
  8
墩柱
100
AcDbVertex
100
AcDb2dVertex
 10
571786.8358544752
 20
785489.6475518458
 30
0.0
 70
0
  0
VERTEX
  5
1E6
330
17
100
AcDbEntity
  8
墩柱
100
AcDbVertex
100
AcDb2dVertex
 10
571787.0094546117
 20
785489.3395534812
 30
0.0
 70
0
  0
VERTEX
  5
1E7
330
17
100
AcDbEntity
  8
墩柱
100
AcDbVertex
100
AcDb2dVertex
 10
571786.4718616994
 20
785487.4131594766
 30
0.0
 70
0
  0
VERTEX
  5
1E8
330
17
100
AcDbEntity
  8
墩柱
100
AcDbVertex
100
AcDb2dVertex
 10
571786.1638633347
 20
785487.2395593402
 30
0.0
 70
0
  0
SEQEND
  5
1E0
330
1DF
100
AcDbEntity
  8
墩柱
  0
POLYLINE
  5
1E9
330
17
100
AcDbEntity
  8
墩柱
100
AcDb2dPolyline
 66
1
 10
0.0
 20
0.0
 30
0.0
 70
1
  0
VERTEX
  5
1EB
330
17
100
AcDbEntity
  8
墩柱
100
AcDbVertex
100
AcDb2dVertex
 10
571741.3753400249
 20
785499.7390865202
 30
0.0
 70
0
  0
VERTEX
  5
1EC
330
17
100
AcDbEntity
  8
墩柱
100
AcDbVertex
100
AcDb2dVertex
 10
571741.2017398884
 20
785500.0470848847
 30
0.0
 70
0
  0
VERTEX
  5
1ED
330
17
100
AcDbEntity
  8
墩柱
100
AcDbVertex
100
AcDb2dVertex
 10
571741.7393328007
 20
785501.9734788893
 30
0.0
 70
0
  0
VERTEX
  5
1EE
330
17
100
AcDbEntity
  8
墩柱
100
AcDbVertex
100
AcDb2dVertex
 10
571742.0473311654
 20
785502.1470790257
 30
0.0
 70
0
  0
VERTEX
  5
1EF
330
17
100
AcDbEntity
  8
墩柱
100
AcDbVertex
100
AcDb2dVertex
 10
571743.4921266688
 20
785501.7438843416
 30
0.0
 70
0
  0
VERTEX
  5
1F0
330
17
100
AcDbEntity
  8
墩柱
100
AcDbVertex
100
AcDb2dVertex
 10
571743.6657268053
 20
785501.435885977
 30
0.0
 70
0
  0
VERTEX
  5
1F1
330
17
100
AcDbEntity
  8
墩柱
100
AcDbVertex
100
AcDb2dVertex
 10
571743.128133893
 20
785499.5094919724
 30
0.0
 70
0
  0
VERTEX
  5
1F2
330
17
100
AcDbEntity
  8
墩柱
100
AcDbVertex
100
AcDb2dVertex
 10
571742.8201355283
 20
785499.335891836
 30
0.0
 70
0
  0
SEQEND
  5
1EA
330
1E9
100
AcDbEntity
  8
墩柱
  0
POLYLINE
  5
1F3
330
17
100
AcDbEntity
  8
墩柱
100
AcDb2dPolyline
 66
1
 10
0.0
 20
0.0
 30
0.0
 70
1
  0
VERTEX
  5
1F5
330
17
100
AcDbEntity
  8
墩柱
100
AcDbVertex
100
AcDb2dVertex
 10
571698.0316122186
 20
785511.8354190158
 30
0.0
 70
0
  0
VERTEX
  5
1F6
330
17
100
AcDbEntity
  8
墩柱
100
AcDbVertex
100
AcDb2dVertex
 10
571697.858012082
 20
785512.1434173804
 30
0.0
 70
0
  0
VERTEX
  5
1F7
330
17
100
AcDbEntity
  8
墩柱
100
AcDbVertex
100
AcDb2dVertex
 10
571698.3956049944
 20
785514.069811385
 30
0.0
 70
0
  0
VERTEX
  5
1F8
330
17
100
AcDbEntity
  8
墩柱
100
AcDbVertex
100
AcDb2dVertex
 10
571698.703603359
 20
785514.2434115214
 30
0.0
 70
0
  0
VERTEX
  5
1F9
330
17
100
AcDbEntity
  8
墩柱
100
AcDbVertex
100
AcDb2dVertex
 10
571700.1483988625
 20
785513.8402168372
 30
0.0
 70
0
  0
VERTEX
  5
1FA
330
17
100
AcDbEntity
  8
墩柱
100
AcDbVertex
100
AcDb2dVertex
 10
571700.321998999
 20
785513.5322184727
 30
0.0
 70
0
  0
VERTEX
  5
1FB
330
17
100
AcDbEntity
  8
墩柱
100
AcDbVertex
100
AcDb2dVertex
 10
571699.7844060867
 20
785511.6058244681
 30
0.0
 70
0
  0
VERTEX
  5
1FC
330
17
100
AcDbEntity
  8
墩柱
100
AcDbVertex
100
AcDb2dVertex
 10
571699.476407722
 20
785511.4322243317
 30
0.0
 70
0
  0
SEQEND
  5
1F4
330
1F3
100
AcDbEntity
  8
墩柱
  0
POLYLINE
  5
1FD
330
17
100
AcDbEntity
  8
墩柱
100
AcDb2dPolyline
 66
1
 10
0.0
 20
0.0
 30
0.0
 70
1
  0
VERTEX
  5
1FF
330
17
100
AcDbEntity
  8
墩柱
100
AcDbVertex
100
AcDb2dVertex
 10
571654.6878844122
 20
785523.9317515116
 30
0.0
 70
0
  0
VERTEX
  5
200
330
17
100
AcDbEntity
  8
墩柱
100
AcDbVertex
100
AcDb2dVertex
 10
571654.5142842757
 20
785524.2397498762
 30
0.0
 70
0
  0
VERTEX
  5
201
330
17
100
AcDbEntity
  8
墩柱
100
AcDbVertex
100
AcDb2dVertex
 10
571655.051877188
 20
785526.1661438808
 30
0.0
 70
0
  0
VERTEX
  5
202
330
17
100
AcDbEntity
  8
墩柱
100
AcDbVertex
100
AcDb2dVertex
 10
571655.3598755527
 20
785526.3397440172
 30
0.0
 70
0
  0
VERTEX
  5
203
330
17
100
AcDbEntity
  8
墩柱
100
AcDbVertex
100
AcDb2dVertex
 10
571656.8046710561
 20
785525.936549333
 30
0.0
 70
0
  0
VERTEX
  5
204
330
17
100
AcDbEntity
  8
墩柱
100
AcDbVertex
100
AcDb2dVertex
 10
571656.9782711926
 20
785525.6285509685
 30
0.0
 70
0
  0
VERTEX
  5
205
330
17
100
AcDbEntity
  8
墩柱
100
AcDbVertex
100
AcDb2dVertex
 10
571656.4406782803
 20
785523.7021569639
 30
0.0
 70
0
  0
VERTEX
  5
206
330
17
100
AcDbEntity
  8
墩柱
100
AcDbVertex
100
AcDb2dVertex
 10
571656.1326799156
 20
785523.5285568275
 30
0.0
 70
0
  0
SEQEND
  5
1FE
330
1FD
100
AcDbEntity
  8
墩柱
  0
POLYLINE
  5
207
330
17
100
AcDbEntity
  8
墩柱
100
AcDb2dPolyline
 66
1
 10
0.0
 20
0.0
 30
0.0
 70
1
  0
VERTEX
  5
209
330
17
100
AcDbEntity
  8
墩柱
100
AcDbVertex
100
AcDb2dVertex
 10
571611.3441566059
 20
785536.0280840074
 30
0.0
 70
0
  0
VERTEX
  5
20A
330
17
100
AcDbEntity
  8
墩柱
100
AcDbVertex
100
AcDb2dVertex
 10
571611.1705564694
 20
785536.336082372
 30
0.0
 70
0
  0
VERTEX
  5
20B
330
17
100
AcDbEntity
  8
墩柱
100
AcDbVertex
100
AcDb2dVertex
 10
571611.7081493817
 20
785538.2624763766
 30
0.0
 70
0
  0
VERTEX
  5
20C
330
17
100
AcDbEntity
  8
墩柱
100
AcDbVertex
100
AcDb2dVertex
 10
571612.0161477464
 20
785538.436076513
 30
0.0
 70
0
  0
VERTEX
  5
20D
330
17
100
AcDbEntity
  8
墩柱
100
AcDbVertex
100
AcDb2dVertex
 10
571613.4609432498
 20
785538.0328818288
 30
0.0
 70
0
  0
VERTEX
  5
20E
330
17
100
AcDbEntity
  8
墩柱
100
AcDbVertex
100
AcDb2dVertex
 10
571613.6345433863
 20
785537.7248834643
 30
0.0
 70
0
  0
VERTEX
  5
20F
330
17
100
AcDbEntity
  8
墩柱
100
AcDbVertex
100
AcDb2dVertex
 10
571613.096950474
 20
785535.7984894597
 30
0.0
 70
0
  0
VERTEX
  5
210
330
17
100
AcDbEntity
  8
墩柱
100
AcDbVertex
100
AcDb2dVertex
 10
571612.7889521093
 20
785535.6248893233
 30
0.0
 70
0
  0
SEQEND
  5
208
330
207
100
AcDbEntity
  8
墩柱
  0
ENDSEC
  0
SECTION
  2
OBJECTS
  0
DICTIONARY
  5
A
330
0
100
AcDbDictionary
280
0
281
1
  3
ACAD_COLOR
350
B
  3
ACAD_GROUP
350
C
  3
ACAD_LAYOUT
350
D
  3
ACAD_MATERIAL
350
E
  3
ACAD_MLEADERSTYLE
350
F
  3
ACAD_MLINESTYLE
350
10
  3
ACAD_PLOTSETTINGS
350
11
  3
ACAD_PLOTSTYLENAME
350
12
  3
ACAD_SCALELIST
350
14
  3
ACAD_TABLESTYLE
350
15
  3
ACAD_VISUALSTYLE
350
16
  3
EZDXF_META
350
2D
  0
DICTIONARY
  5
B
330
A
100
AcDbDictionary
280
0
281
1
  0
DICTIONARY
  5
C
330
A
100
AcDbDictionary
280
0
281
1
  0
DICTIONARY
  5
D
330
A
100
AcDbDictionary
280
0
281
1
  3
Model
350
1A
  3
Layout1
350
1E
  0
DICTIONARY
  5
E
330
A
100
AcDbDictionary
280
0
281
1
  3
ByBlock
350
1F
  3
ByLayer
350
20
  3
Global
350
21
  0
DICTIONARY
  5
F
330
A
100
AcDbDictionary
280
0
281
1
  3
Standard
350
2C
  0
DICTIONARY
  5
10
330
A
100
AcDbDictionary
280
0
281
1
  3
Standard
350
22
  0
DICTIONARY
  5
11
330
A
100
AcDbDictionary
280
0
281
1
  0
ACDBDICTIONARYWDFLT
  5
12
330
A
100
AcDbDictionary
280
0
281
1
  3
Normal
350
13
100
AcDbDictionaryWithDefault
340
13
  0
ACDBPLACEHOLDER
  5
13
330
12
  0
DICTIONARY
  5
14
330
A
100
AcDbDictionary
280
0
281
1
  0
DICTIONARY
  5
15
330
A
100
AcDbDictionary
280
0
281
1
  0
DICTIONARY
  5
16
330
A
100
AcDbDictionary
280
0
281
1
  0
LAYOUT
  5
1A
330
D
100
AcDbPlotSettings
  1

  2
Adobe PDF
  4
A3
  6

 40
7.5
 41
20.0
 42
7.5
 43
20.0
 44
420.0
 45
297.0
 46
0.0
 47
0.0
 48
0.0
 49
0.0
140
0.0
141
0.0
142
1.0
143
1.0
 70
1024
 72
1
 73
0
 74
5
  7

 75
16
 76
0
 77
2
 78
300
147
1.0
148
0.0
149
0.0
100
AcDbLayout
  1
Model
 70
1
 71
0
 10
0.0
 20
0.0
 11
420.0
 21
297.0
 12
0.0
 22
0.0
 32
0.0
 14
1e+20
 24
1e+20
 34
1e+20
 15
-1e+20
 25
-1e+20
 35
-1e+20
146
0.0
 13
0.0
 23
0.0
 33
0.0
 16
1.0
 26
0.0
 36
0.0
 17
0.0
 27
1.0
 37
0.0
 76
1
330
17
  0
LAYOUT
  5
1E
330
D
100
AcDbPlotSettings
  1

  2
Adobe PDF
  4
A3
  6

 40
7.5
 41
20.0
 42
7.5
 43
20.0
 44
420.0
 45
297.0
 46
0.0
 47
0.0
 48
0.0
 49
0.0
140
0.0
141
0.0
142
1.0
143
1.0
 70
0
 72
1
 73
0
 74
5
  7

 75
16
 76
0
 77
2
 78
300
147
1.0
148
0.0
149
0.0
100
AcDbLayout
  1
Layout1
 70
1
 71
1
 10
0.0
 20
0.0
 11
420.0
 21
297.0
 12
0.0
 22
0.0
 32
0.0
 14
1e+20
 24
1e+20
 34
1e+20
 15
-1e+20
 25
-1e+20
 35
-1e+20
146
0.0
 13
0.0
 23
0.0
 33
0.0
 16
1.0
 26
0.0
 36
0.0
 17
0.0
 27
1.0
 37
0.0
 76
1
330
1B
  0
MATERIAL
  5
1F
102
{ACAD_REACTORS
330
E
102
}
330
E
100
AcDbMaterial
  1
ByBlock
  2

 70
0
 40
1.0
 71
1
 41
1.0
 91
-1023410177
 42
1.0
 72
1
  3

 73
1
 74
1
 75
1
 44
0.5
 73
0
 45
1.0
 46
1.0
 77
1
  4

 78
1
 79
1
170
1
 48
1.0
171
1
  6

172
1
173
1
174
1
140
1.0
141
1.0
175
1
  7

176
1
177
1
178
1
143
1.0
179
1
  8

270
1
271
1
272
1
145
1.0
146
1.0
273
1
  9

274
1
275
1
276
1
 42
1.0
 72
1
  3

 73
1
 74
1
 75
1
 94
63
  0
MATERIAL
  5
20
102
{ACAD_REACTORS
330
E
102
}
330
E
100
AcDbMaterial
  1
ByLayer
  2

 70
0
 40
1.0
 71
1
 41
1.0
 91
-1023410177
 42
1.0
 72
1
  3

 73
1
 74
1
 75
1
 44
0.5
 73
0
 45
1.0
 46
1.0
 77
1
  4

 78
1
 79
1
170
1
 48
1.0
171
1
  6

172
1
173
1
174
1
140
1.0
141
1.0
175
1
  7

176
1
177
1
178
1
143
1.0
179
1
  8

270
1
271
1
272
1
145
1.0
146
1.0
273
1
  9

274
1
275
1
276
1
 42
1.0
 72
1
  3

 73
1
 74
1
 75
1
 94
63
  0
MATERIAL
  5
21
102
{ACAD_REACTORS
330
E
102
}
330
E
100
AcDbMaterial
  1
Global
  2

 70
0
 40
1.0
 71
1
 41
1.0
 91
-1023410177
 42
1.0
 72
1
  3

 73
1
 74
1
 75
1
 44
0.5
 73
0
 45
1.0
 46
1.0
 77
1
  4

 78
1
 79
1
170
1
 48
1.0
171
1
  6

172
1
173
1
174
1
140
1.0
141
1.0
175
1
  7

176
1
177
1
178
1
143
1.0
179
1
  8

270
1
271
1
272
1
145
1.0
146
1.0
273
1
  9

274
1
275
1
276
1
 42
1.0
 72
1
  3

 73
1
 74
1
 75
1
 94
63
  0
MLINESTYLE
  5
22
102
{ACAD_REACTORS
330
10
102
}
330
10
100
AcDbMlineStyle
  2
Standard
 70
0
  3

 62
256
 51
90.0
 52
90.0
 71
2
 49
0.5
 62
256
  6
BYLAYER
 49
-0.5
 62
256
  6
BYLAYER
  0
MLEADERSTYLE
  5
2C
102
{ACAD_REACTORS
330
F
102
}
330
F
100
AcDbMLeaderStyle
179
2
170
2
171
1
172
0
 90
2
 40
0.0
 41
0.0
173
1
 91
-1056964608
 92
-2
290
1
 42
2.0
291
1
 43
8.0
  3
Standard
 44
4.0
300

342
29
174
1
175
1
176
0
178
1
 93
-1056964608
 45
4.0
292
0
297
0
 46
4.0
 94
-1056964608
 47
1.0
 49
1.0
140
1.0
294
1
141
0.0
177
0
142
1.0
295
0
296
0
143
3.75
271
0
272
9
273
9
  0
DICTIONARY
  5
2D
330
A
100
AcDbDictionary
281
1
  3
CREATED_BY_EZDXF
350
2E
  3
WRITTEN_BY_EZDXF
350
213
  0
DICTIONARYVAR
  5
2E
330
2D
100
DictionaryVariables
280
0
  1
1.1.4 @ 2024-08-02T08:43:20.816218+00:00
  0
DICTIONARYVAR
  5
213
330
2D
100
DictionaryVariables
280
0
  1
1.1.4 @ 2024-08-02T08:43:20.823218+00:00
  0
ENDSEC
  0
EOF
