  0
SECTION
  2
HEADER
  9
$ACADVER
  1
AC1027
  9
$ACADMAINTVER
 70
105
  9
$DWGCODEPAGE
  3
ANSI_1252
  9
$LASTSAVEDBY
  1
ezdxf
  9
$REQUIREDVERSIONS
160
0
  9
$INSBASE
 10
0.0
 20
0.0
 30
0.0
  9
$EXTMIN
 10
1e+20
 20
1e+20
 30
1e+20
  9
$EXTMAX
 10
-1e+20
 20
-1e+20
 30
-1e+20
  9
$LIMMIN
 10
0.0
 20
0.0
  9
$LIMMAX
 10
420.0
 20
297.0
  9
$ORTHOMODE
 70
0
  9
$REGENMODE
 70
1
  9
$FILLMODE
 70
1
  9
$QTEXTMODE
 70
0
  9
$MIRRTEXT
 70
1
  9
$LTSCALE
 40
1.0
  9
$ATTMODE
 70
1
  9
$TEXTSIZE
 40
2.5
  9
$TRACEWID
 40
1.0
  9
$TEXTSTYLE
  7
Standard
  9
$CLAYER
  8
0
  9
$CELTYPE
  6
ByLayer
  9
$CECOLOR
 62
256
  9
$CELTSCALE
 40
1.0
  9
$DISPSILH
 70
0
  9
$DIMSCALE
 40
1.0
  9
$DIMASZ
 40
2.5
  9
$DIMEXO
 40
0.625
  9
$DIMDLI
 40
3.75
  9
$DIMRND
 40
0.0
  9
$DIMDLE
 40
0.0
  9
$DIMEXE
 40
1.25
  9
$DIMTP
 40
0.0
  9
$DIMTM
 40
0.0
  9
$DIMTXT
 40
2.5
  9
$DIMCEN
 40
2.5
  9
$DIMTSZ
 40
0.0
  9
$DIMTOL
 70
0
  9
$DIMLIM
 70
0
  9
$DIMTIH
 70
0
  9
$DIMTOH
 70
0
  9
$DIMSE1
 70
0
  9
$DIMSE2
 70
0
  9
$DIMTAD
 70
1
  9
$DIMZIN
 70
8
  9
$DIMBLK
  1

  9
$DIMASO
 70
1
  9
$DIMSHO
 70
1
  9
$DIMPOST
  1

  9
$DIMAPOST
  1

  9
$DIMALT
 70
0
  9
$DIMALTD
 70
3
  9
$DIMALTF
 40
0.03937007874
  9
$DIMLFAC
 40
1.0
  9
$DIMTOFL
 70
1
  9
$DIMTVP
 40
0.0
  9
$DIMTIX
 70
0
  9
$DIMSOXD
 70
0
  9
$DIMSAH
 70
0
  9
$DIMBLK1
  1

  9
$DIMBLK2
  1

  9
$DIMSTYLE
  2
ISO-25
  9
$DIMCLRD
 70
0
  9
$DIMCLRE
 70
0
  9
$DIMCLRT
 70
0
  9
$DIMTFAC
 40
1.0
  9
$DIMGAP
 40
0.625
  9
$DIMJUST
 70
0
  9
$DIMSD1
 70
0
  9
$DIMSD2
 70
0
  9
$DIMTOLJ
 70
0
  9
$DIMTZIN
 70
8
  9
$DIMALTZ
 70
0
  9
$DIMALTTZ
 70
0
  9
$DIMUPT
 70
0
  9
$DIMDEC
 70
2
  9
$DIMTDEC
 70
2
  9
$DIMALTU
 70
2
  9
$DIMALTTD
 70
3
  9
$DIMTXSTY
  7
Standard
  9
$DIMAUNIT
 70
0
  9
$DIMADEC
 70
0
  9
$DIMALTRND
 40
0.0
  9
$DIMAZIN
 70
0
  9
$DIMDSEP
 70
44
  9
$DIMATFIT
 70
3
  9
$DIMFRAC
 70
0
  9
$DIMLDRBLK
  1

  9
$DIMLUNIT
 70
2
  9
$DIMLWD
 70
-2
  9
$DIMLWE
 70
-2
  9
$DIMTMOVE
 70
0
  9
$DIMFXL
 40
1.0
  9
$DIMFXLON
 70
0
  9
$DIMJOGANG
 40
0.785398163397
  9
$DIMTFILL
 70
0
  9
$DIMTFILLCLR
 70
0
  9
$DIMARCSYM
 70
0
  9
$DIMLTYPE
  6

  9
$DIMLTEX1
  6

  9
$DIMLTEX2
  6

  9
$DIMTXTDIRECTION
 70
0
  9
$LUNITS
 70
2
  9
$LUPREC
 70
4
  9
$SKETCHINC
 40
1.0
  9
$FILLETRAD
 40
10.0
  9
$AUNITS
 70
0
  9
$AUPREC
 70
2
  9
$MENU
  1
.
  9
$ELEVATION
 40
0.0
  9
$PELEVATION
 40
0.0
  9
$THICKNESS
 40
0.0
  9
$LIMCHECK
 70
0
  9
$CHAMFERA
 40
0.0
  9
$CHAMFERB
 40
0.0
  9
$CHAMFERC
 40
0.0
  9
$CHAMFERD
 40
0.0
  9
$SKPOLY
 70
0
  9
$TDCREATE
 40
2460284.4151157406
  9
$TDUCREATE
 40
2458532.153996898
  9
$TDUPDATE
 40
2460284.4151157406
  9
$TDUUPDATE
 40
2458532.1544311
  9
$TDINDWG
 40
0.0
  9
$TDUSRTIMER
 40
0.0
  9
$USRTIMER
 70
1
  9
$ANGBASE
 50
0.0
  9
$ANGDIR
 70
0
  9
$PDMODE
 70
0
  9
$PDSIZE
 40
0.0
  9
$PLINEWID
 40
0.0
  9
$SPLFRAME
 70
0
  9
$SPLINETYPE
 70
6
  9
$SPLINESEGS
 70
8
  9
$HANDSEED
  5
212
  9
$SURFTAB1
 70
6
  9
$SURFTAB2
 70
6
  9
$SURFTYPE
 70
6
  9
$SURFU
 70
6
  9
$SURFV
 70
6
  9
$UCSBASE
  2

  9
$UCSNAME
  2

  9
$UCSORG
 10
0.0
 20
0.0
 30
0.0
  9
$UCSXDIR
 10
1.0
 20
0.0
 30
0.0
  9
$UCSYDIR
 10
0.0
 20
1.0
 30
0.0
  9
$UCSORTHOREF
  2

  9
$UCSORTHOVIEW
 70
0
  9
$UCSORGTOP
 10
0.0
 20
0.0
 30
0.0
  9
$UCSORGBOTTOM
 10
0.0
 20
0.0
 30
0.0
  9
$UCSORGLEFT
 10
0.0
 20
0.0
 30
0.0
  9
$UCSORGRIGHT
 10
0.0
 20
0.0
 30
0.0
  9
$UCSORGFRONT
 10
0.0
 20
0.0
 30
0.0
  9
$UCSORGBACK
 10
0.0
 20
0.0
 30
0.0
  9
$PUCSBASE
  2

  9
$PUCSNAME
  2

  9
$PUCSORG
 10
0.0
 20
0.0
 30
0.0
  9
$PUCSXDIR
 10
1.0
 20
0.0
 30
0.0
  9
$PUCSYDIR
 10
0.0
 20
1.0
 30
0.0
  9
$PUCSORTHOREF
  2

  9
$PUCSORTHOVIEW
 70
0
  9
$PUCSORGTOP
 10
0.0
 20
0.0
 30
0.0
  9
$PUCSORGBOTTOM
 10
0.0
 20
0.0
 30
0.0
  9
$PUCSORGLEFT
 10
0.0
 20
0.0
 30
0.0
  9
$PUCSORGRIGHT
 10
0.0
 20
0.0
 30
0.0
  9
$PUCSORGFRONT
 10
0.0
 20
0.0
 30
0.0
  9
$PUCSORGBACK
 10
0.0
 20
0.0
 30
0.0
  9
$USERI1
 70
0
  9
$USERI2
 70
0
  9
$USERI3
 70
0
  9
$USERI4
 70
0
  9
$USERI5
 70
0
  9
$USERR1
 40
0.0
  9
$USERR2
 40
0.0
  9
$USERR3
 40
0.0
  9
$USERR4
 40
0.0
  9
$USERR5
 40
0.0
  9
$WORLDVIEW
 70
1
  9
$SHADEDGE
 70
3
  9
$SHADEDIF
 70
70
  9
$TILEMODE
 70
1
  9
$MAXACTVP
 70
64
  9
$PINSBASE
 10
0.0
 20
0.0
 30
0.0
  9
$PLIMCHECK
 70
0
  9
$PEXTMIN
 10
1e+20
 20
1e+20
 30
1e+20
  9
$PEXTMAX
 10
-1e+20
 20
-1e+20
 30
-1e+20
  9
$PLIMMIN
 10
0.0
 20
0.0
  9
$PLIMMAX
 10
420.0
 20
297.0
  9
$UNITMODE
 70
0
  9
$VISRETAIN
 70
1
  9
$PLINEGEN
 70
0
  9
$PSLTSCALE
 70
1
  9
$TREEDEPTH
 70
3020
  9
$CMLSTYLE
  2
Standard
  9
$CMLJUST
 70
0
  9
$CMLSCALE
 40
20.0
  9
$PROXYGRAPHICS
 70
1
  9
$MEASUREMENT
 70
1
  9
$CELWEIGHT
370
-1
  9
$ENDCAPS
280
0
  9
$JOINSTYLE
280
0
  9
$LWDISPLAY
290
0
  9
$INSUNITS
 70
6
  9
$HYPERLINKBASE
  1

  9
$STYLESHEET
  1

  9
$XEDIT
290
1
  9
$CEPSNTYPE
380
0
  9
$PSTYLEMODE
290
1
  9
$FINGERPRINTGUID
  2
{C7DA9D6D-5AA6-4C76-8168-AEB8FE1111B9}
  9
$VERSIONGUID
  2
{A1D3AA62-E228-4E85-AB8F-96628565792F}
  9
$EXTNAMES
290
1
  9
$PSVPSCALE
 40
0.0
  9
$OLESTARTUP
290
0
  9
$SORTENTS
280
127
  9
$INDEXCTL
280
0
  9
$HIDETEXT
280
1
  9
$XCLIPFRAME
280
0
  9
$HALOGAP
280
0
  9
$OBSCOLOR
 70
257
  9
$OBSLTYPE
280
0
  9
$INTERSECTIONDISPLAY
280
0
  9
$INTERSECTIONCOLOR
 70
257
  9
$DIMASSOC
280
2
  9
$PROJECTNAME
  1

  9
$CAMERADISPLAY
290
0
  9
$LENSLENGTH
 40
50.0
  9
$CAMERAHEIGHT
 40
0.0
  9
$STEPSPERSEC
 40
24.0
  9
$STEPSIZE
 40
100.0
  9
$3DDWFPREC
 40
2.0
  9
$PSOLWIDTH
 40
0.005
  9
$PSOLHEIGHT
 40
0.08
  9
$LOFTANG1
 40
1.570796326795
  9
$LOFTANG2
 40
1.570796326795
  9
$LOFTMAG1
 40
0.0
  9
$LOFTMAG2
 40
0.0
  9
$LOFTPARAM
 70
7
  9
$LOFTNORMALS
280
1
  9
$LATITUDE
 40
37.795
  9
$LONGITUDE
 40
-122.394
  9
$NORTHDIRECTION
 40
0.0
  9
$TIMEZONE
 70
-8000
  9
$LIGHTGLYPHDISPLAY
280
1
  9
$TILEMODELIGHTSYNCH
280
1
  9
$CMATERIAL
347
20
  9
$SOLIDHIST
280
0
  9
$SHOWHIST
280
1
  9
$DWFFRAME
280
2
  9
$DGNFRAME
280
2
  9
$REALWORLDSCALE
290
1
  9
$INTERFERECOLOR
 62
256
  9
$CSHADOW
280
0
  9
$SHADOWPLANELOCATION
 40
0.0
  0
ENDSEC
  0
SECTION
  2
CLASSES
  0
CLASS
  1
ACDBDICTIONARYWDFLT
  2
AcDbDictionaryWithDefault
  3
ObjectDBX Classes
 90
0
 91
0
280
0
281
0
  0
CLASS
  1
SUN
  2
AcDbSun
  3
SCENEOE
 90
1153
 91
0
280
0
281
0
  0
CLASS
  1
VISUALSTYLE
  2
AcDbVisualStyle
  3
ObjectDBX Classes
 90
4095
 91
0
280
0
281
0
  0
CLASS
  1
MATERIAL
  2
AcDbMaterial
  3
ObjectDBX Classes
 90
1153
 91
0
280
0
281
0
  0
CLASS
  1
SCALE
  2
AcDbScale
  3
ObjectDBX Classes
 90
1153
 91
0
280
0
281
0
  0
CLASS
  1
TABLESTYLE
  2
AcDbTableStyle
  3
ObjectDBX Classes
 90
4095
 91
0
280
0
281
0
  0
CLASS
  1
MLEADERSTYLE
  2
AcDbMLeaderStyle
  3
ACDB_MLEADERSTYLE_CLASS
 90
4095
 91
0
280
0
281
0
  0
CLASS
  1
DICTIONARYVAR
  2
AcDbDictionaryVar
  3
ObjectDBX Classes
 90
0
 91
0
280
0
281
0
  0
CLASS
  1
CELLSTYLEMAP
  2
AcDbCellStyleMap
  3
ObjectDBX Classes
 90
1152
 91
0
280
0
281
0
  0
CLASS
  1
MENTALRAYRENDERSETTINGS
  2
AcDbMentalRayRenderSettings
  3
SCENEOE
 90
1024
 91
0
280
0
281
0
  0
CLASS
  1
ACDBDETAILVIEWSTYLE
  2
AcDbDetailViewStyle
  3
ObjectDBX Classes
 90
1025
 91
0
280
0
281
0
  0
CLASS
  1
ACDBSECTIONVIEWSTYLE
  2
AcDbSectionViewStyle
  3
ObjectDBX Classes
 90
1025
 91
0
280
0
281
0
  0
CLASS
  1
RASTERVARIABLES
  2
AcDbRasterVariables
  3
ISM
 90
0
 91
0
280
0
281
0
  0
CLASS
  1
LAYOUT
  2
AcDbLayout
  3
ObjectDBX Classes
 90
0
 91
0
280
0
281
0
  0
CLASS
  1
ACDBPLACEHOLDER
  2
AcDbPlaceHolder
  3
ObjectDBX Classes
 90
0
 91
0
280
0
281
0
  0
ENDSEC
  0
SECTION
  2
TABLES
  0
TABLE
  2
VPORT
  5
8
330
0
100
AcDbSymbolTable
 70
1
  0
VPORT
  5
23
330
8
100
AcDbSymbolTableRecord
100
AcDbViewportTableRecord
  2
*Active
 70
0
 10
0.0
 20
0.0
 11
1.0
 21
1.0
 12
0.0
 22
0.0
 13
0.0
 23
0.0
 14
0.5
 24
0.5
 15
0.5
 25
0.5
 16
0.0
 26
0.0
 36
1.0
 17
0.0
 27
0.0
 37
0.0
 40
1000.0
 41
1.34
 42
50.0
 43
0.0
 44
0.0
 50
0.0
 51
0.0
 71
0
 72
1000
 73
1
 74
3
 75
0
 76
0
 77
0
 78
0
281
0
 65
0
146
0.0
  0
ENDTAB
  0
TABLE
  2
LTYPE
  5
2
330
0
100
AcDbSymbolTable
 70
3
  0
LTYPE
  5
24
330
2
100
AcDbSymbolTableRecord
100
AcDbLinetypeTableRecord
  2
ByBlock
 70
0
  3

 72
65
 73
0
 40
0.0
  0
LTYPE
  5
25
330
2
100
AcDbSymbolTableRecord
100
AcDbLinetypeTableRecord
  2
ByLayer
 70
0
  3

 72
65
 73
0
 40
0.0
  0
LTYPE
  5
26
330
2
100
AcDbSymbolTableRecord
100
AcDbLinetypeTableRecord
  2
Continuous
 70
0
  3

 72
65
 73
0
 40
0.0
  0
ENDTAB
  0
TABLE
  2
LAYER
  5
1
330
0
100
AcDbSymbolTable
 70
4
  0
LAYER
  5
27
330
1
100
AcDbSymbolTableRecord
100
AcDbLayerTableRecord
  2
0
 70
0
 62
7
  6
Continuous
370
-3
390
13
347
21
  0
LAYER
  5
28
330
1
100
AcDbSymbolTableRecord
100
AcDbLayerTableRecord
  2
Defpoints
 70
0
 62
7
  6
Continuous
290
0
370
-3
390
13
347
21
  0
LAYER
  5
2F
330
1
100
AcDbSymbolTableRecord
100
AcDbLayerTableRecord
  2
桩基
 70
0
 62
50
  6
Continuous
370
-3
390
13
347
21
  0
LAYER
  5
30
330
1
100
AcDbSymbolTableRecord
100
AcDbLayerTableRecord
  2
承台
 70
0
 62
130
  6
Continuous
370
-3
390
13
347
21
  0
ENDTAB
  0
TABLE
  2
STYLE
  5
5
330
0
100
AcDbSymbolTable
 70
1
  0
STYLE
  5
29
330
5
100
AcDbSymbolTableRecord
100
AcDbTextStyleTableRecord
  2
Standard
 70
0
 40
0.0
 41
1.0
 50
0.0
 71
0
 42
2.5
  3
txt
  4

  0
ENDTAB
  0
TABLE
  2
VIEW
  5
7
330
0
100
AcDbSymbolTable
 70
0
  0
ENDTAB
  0
TABLE
  2
UCS
  5
6
330
0
100
AcDbSymbolTable
 70
0
  0
ENDTAB
  0
TABLE
  2
APPID
  5
3
330
0
100
AcDbSymbolTable
 70
3
  0
APPID
  5
2A
330
3
100
AcDbSymbolTableRecord
100
AcDbRegAppTableRecord
  2
ACAD
 70
0
  0
APPID
  5
20F
330
3
100
AcDbSymbolTableRecord
100
AcDbRegAppTableRecord
  2
HATCHBACKGROUNDCOLOR
 70
0
  0
APPID
  5
210
330
3
100
AcDbSymbolTableRecord
100
AcDbRegAppTableRecord
  2
EZDXF
 70
0
  0
ENDTAB
  0
TABLE
  2
DIMSTYLE
  5
4
330
0
100
AcDbSymbolTable
 70
1
100
AcDbDimStyleTable
  0
DIMSTYLE
105
2B
330
4
100
AcDbSymbolTableRecord
100
AcDbDimStyleTableRecord
  2
Standard
 70
0
 40
1.0
 41
2.5
 42
0.625
 43
3.75
 44
1.25
 45
0.0
 46
0.0
 47
0.0
 48
0.0
 49
2.5
140
2.5
141
2.5
142
0.0
143
0.03937007874
144
1.0
145
0.0
146
1.0
147
0.625
148
0.0
 69
0
 70
0
 71
0
 72
0
 73
0
 74
0
 75
0
 76
0
 77
1
 78
8
 79
3
170
0
171
3
172
1
173
0
174
0
175
0
176
0
177
0
178
0
179
2
271
2
272
2
273
2
274
3
275
0
276
0
277
2
278
44
279
0
280
0
281
0
282
0
283
0
284
8
285
0
286
0
288
0
289
3
290
0
371
-2
372
-2
  0
ENDTAB
  0
TABLE
  2
BLOCK_RECORD
  5
9
330
0
100
AcDbSymbolTable
 70
2
  0
BLOCK_RECORD
  5
17
330
9
100
AcDbSymbolTableRecord
100
AcDbBlockTableRecord
  2
*Model_Space
340
1A
 70
0
280
1
281
0
  0
BLOCK_RECORD
  5
1B
330
9
100
AcDbSymbolTableRecord
100
AcDbBlockTableRecord
  2
*Paper_Space
340
1E
 70
0
280
1
281
0
  0
ENDTAB
  0
ENDSEC
  0
SECTION
  2
BLOCKS
  0
BLOCK
  5
18
330
17
100
AcDbEntity
  8
0
100
AcDbBlockBegin
  2
*Model_Space
 70
0
 10
0.0
 20
0.0
 30
0.0
  3
*Model_Space
  1

  0
ENDBLK
  5
19
330
17
100
AcDbEntity
  8
0
100
AcDbBlockEnd
  0
BLOCK
  5
1C
330
1B
100
AcDbEntity
  8
0
100
AcDbBlockBegin
  2
*Paper_Space
 70
0
 10
0.0
 20
0.0
 30
0.0
  3
*Paper_Space
  1

  0
ENDBLK
  5
1D
330
1B
100
AcDbEntity
  8
0
100
AcDbBlockEnd
  0
ENDSEC
  0
SECTION
  2
ENTITIES
  0
CIRCLE
  5
31
330
17
100
AcDbEntity
  8
桩基
100
AcDbCircle
 10
571187.0178010324
 20
785635.3263494022
 30
0.0
 40
0.75
  0
TEXT
  5
32
330
17
100
AcDbEntity
  8
桩基
100
AcDbText
 10
571187.0178010324
 20
785635.3263494022
 30
0.0
 40
0.1
  1
(R1-7, pk= 7.474, E=571187.018,N785635.326)
 72
1
 11
571187.0178010324
 21
785635.3263494022
 31
0.0
100
AcDbText
 73
2
  0
CIRCLE
  5
33
330
17
100
AcDbEntity
  8
桩基
100
AcDbCircle
 10
571191.4500004495
 20
785634.5481409944
 30
0.0
 40
0.75
  0
TEXT
  5
34
330
17
100
AcDbEntity
  8
桩基
100
AcDbText
 10
571191.4500004495
 20
785634.5481409944
 30
0.0
 40
0.1
  1
(R1-7, pk= 7.474, E=571191.450,N785634.548)
 72
1
 11
571191.4500004495
 21
785634.5481409944
 31
0.0
100
AcDbText
 73
2
  0
CIRCLE
  5
35
330
17
100
AcDbEntity
  8
桩基
100
AcDbCircle
 10
571187.7960094402
 20
785639.7585488193
 30
0.0
 40
0.75
  0
TEXT
  5
36
330
17
100
AcDbEntity
  8
桩基
100
AcDbText
 10
571187.7960094402
 20
785639.7585488193
 30
0.0
 40
0.1
  1
(R1-7, pk= 7.474, E=571187.796,N785639.759)
 72
1
 11
571187.7960094402
 21
785639.7585488193
 31
0.0
100
AcDbText
 73
2
  0
CIRCLE
  5
37
330
17
100
AcDbEntity
  8
桩基
100
AcDbCircle
 10
571192.2282088574
 20
785638.9803404115
 30
0.0
 40
0.75
  0
TEXT
  5
38
330
17
100
AcDbEntity
  8
桩基
100
AcDbText
 10
571192.2282088574
 20
785638.9803404115
 30
0.0
 40
0.1
  1
(R1-7, pk= 7.474, E=571192.228,N785638.980)
 72
1
 11
571192.2282088574
 21
785638.9803404115
 31
0.0
100
AcDbText
 73
2
  0
POLYLINE
  5
39
330
17
100
AcDbEntity
  8
承台
100
AcDb2dPolyline
 66
1
 10
0.0
 20
0.0
 30
0.0
 70
1
  0
VERTEX
  5
3B
330
17
100
AcDbEntity
  8
承台
100
AcDbVertex
100
AcDb2dVertex
 10
571185.5704655255
 20
785634.3113518996
 30
0.0
 70
0
  0
VERTEX
  5
3C
330
17
100
AcDbEntity
  8
承台
100
AcDbVertex
100
AcDb2dVertex
 10
571192.4649979521
 20
785633.1008054875
 30
0.0
 70
0
  0
VERTEX
  5
3D
330
17
100
AcDbEntity
  8
承台
100
AcDbVertex
100
AcDb2dVertex
 10
571193.6755443643
 20
785639.9953379141
 30
0.0
 70
0
  0
VERTEX
  5
3E
330
17
100
AcDbEntity
  8
承台
100
AcDbVertex
100
AcDb2dVertex
 10
571186.7810119377
 20
785641.2058843262
 30
0.0
 70
0
  0
SEQEND
  5
3A
330
39
100
AcDbEntity
  8
承台
  0
CIRCLE
  5
3F
330
17
100
AcDbEntity
  8
桩基
100
AcDbCircle
 10
571231.1529574837
 20
785627.0936524105
 30
0.0
 40
0.75
  0
TEXT
  5
40
330
17
100
AcDbEntity
  8
桩基
100
AcDbText
 10
571231.1529574837
 20
785627.0936524105
 30
0.0
 40
0.1
  1
(R1-8, pk= 52.474, E=571231.153,N785627.094)
 72
1
 11
571231.1529574837
 21
785627.0936524105
 31
0.0
100
AcDbText
 73
2
  0
CIRCLE
  5
41
330
17
100
AcDbEntity
  8
桩基
100
AcDbCircle
 10
571235.5728585201
 20
785626.2483862826
 30
0.0
 40
0.75
  0
TEXT
  5
42
330
17
100
AcDbEntity
  8
桩基
100
AcDbText
 10
571235.5728585201
 20
785626.2483862826
 30
0.0
 40
0.1
  1
(R1-8, pk= 52.474, E=571235.573,N785626.248)
 72
1
 11
571235.5728585201
 21
785626.2483862826
 31
0.0
100
AcDbText
 73
2
  0
CIRCLE
  5
43
330
17
100
AcDbEntity
  8
桩基
100
AcDbCircle
 10
571232.2217495433
 20
785632.6823717211
 30
0.0
 40
0.75
  0
TEXT
  5
44
330
17
100
AcDbEntity
  8
桩基
100
AcDbText
 10
571232.2217495433
 20
785632.6823717211
 30
0.0
 40
0.1
  1
(R1-8, pk= 52.474, E=571232.222,N785632.682)
 72
1
 11
571232.2217495433
 21
785632.6823717211
 31
0.0
100
AcDbText
 73
2
  0
CIRCLE
  5
45
330
17
100
AcDbEntity
  8
桩基
100
AcDbCircle
 10
571236.6416505798
 20
785631.8371055932
 30
0.0
 40
0.75
  0
TEXT
  5
46
330
17
100
AcDbEntity
  8
桩基
100
AcDbText
 10
571236.6416505798
 20
785631.8371055932
 30
0.0
 40
0.1
  1
(R1-8, pk= 52.474, E=571236.642,N785631.837)
 72
1
 11
571236.6416505798
 21
785631.8371055932
 31
0.0
100
AcDbText
 73
2
  0
CIRCLE
  5
47
330
17
100
AcDbEntity
  8
桩基
100
AcDbCircle
 10
571233.290541603
 20
785638.2710910317
 30
0.0
 40
0.75
  0
TEXT
  5
48
330
17
100
AcDbEntity
  8
桩基
100
AcDbText
 10
571233.290541603
 20
785638.2710910317
 30
0.0
 40
0.1
  1
(R1-8, pk= 52.474, E=571233.291,N785638.271)
 72
1
 11
571233.290541603
 21
785638.2710910317
 31
0.0
100
AcDbText
 73
2
  0
CIRCLE
  5
49
330
17
100
AcDbEntity
  8
桩基
100
AcDbCircle
 10
571237.7104426394
 20
785637.4258249038
 30
0.0
 40
0.75
  0
TEXT
  5
4A
330
17
100
AcDbEntity
  8
桩基
100
AcDbText
 10
571237.7104426394
 20
785637.4258249038
 30
0.0
 40
0.1
  1
(R1-8, pk= 52.474, E=571237.710,N785637.426)
 72
1
 11
571237.7104426394
 21
785637.4258249038
 31
0.0
100
AcDbText
 73
2
  0
POLYLINE
  5
4B
330
17
100
AcDbEntity
  8
承台
100
AcDb2dPolyline
 66
1
 10
0.0
 20
0.0
 30
0.0
 70
1
  0
VERTEX
  5
4D
330
17
100
AcDbEntity
  8
承台
100
AcDbVertex
100
AcDb2dVertex
 10
571229.690411049
 20
785626.1006982693
 30
0.0
 70
0
  0
VERTEX
  5
4E
330
17
100
AcDbEntity
  8
承台
100
AcDbVertex
100
AcDb2dVertex
 10
571236.5658126613
 20
785624.785839848
 30
0.0
 70
0
  0
VERTEX
  5
4F
330
17
100
AcDbEntity
  8
承台
100
AcDbVertex
100
AcDb2dVertex
 10
571239.172989074
 20
785638.418779045
 30
0.0
 70
0
  0
VERTEX
  5
50
330
17
100
AcDbEntity
  8
承台
100
AcDbVertex
100
AcDb2dVertex
 10
571232.2975874618
 20
785639.7336374663
 30
0.0
 70
0
  0
SEQEND
  5
4C
330
4B
100
AcDbEntity
  8
承台
  0
CIRCLE
  5
51
330
17
100
AcDbEntity
  8
桩基
100
AcDbCircle
 10
571277.0083684804
 20
785627.114770619
 30
0.0
 40
0.75
  0
TEXT
  5
52
330
17
100
AcDbEntity
  8
桩基
100
AcDbText
 10
571277.0083684804
 20
785627.114770619
 30
0.0
 40
0.1
  1
(W17, pk= 97.474, E=571277.008,N785627.115)
 72
1
 11
571277.0083684804
 21
785627.114770619
 31
0.0
100
AcDbText
 73
2
  0
CIRCLE
  5
53
330
17
100
AcDbEntity
  8
桩基
100
AcDbCircle
 10
571281.4123587288
 20
785626.1901788753
 30
0.0
 40
0.75
  0
TEXT
  5
54
330
17
100
AcDbEntity
  8
桩基
100
AcDbText
 10
571281.4123587288
 20
785626.1901788753
 30
0.0
 40
0.1
  1
(W17, pk= 97.474, E=571281.412,N785626.190)
 72
1
 11
571281.4123587288
 21
785626.1901788753
 31
0.0
100
AcDbText
 73
2
  0
CIRCLE
  5
55
330
17
100
AcDbEntity
  8
桩基
100
AcDbCircle
 10
571278.1055506828
 20
785632.340839047
 30
0.0
 40
0.75
  0
TEXT
  5
56
330
17
100
AcDbEntity
  8
桩基
100
AcDbText
 10
571278.1055506828
 20
785632.340839047
 30
0.0
 40
0.1
  1
(W17, pk= 97.474, E=571278.106,N785632.341)
 72
1
 11
571278.1055506828
 21
785632.340839047
 31
0.0
100
AcDbText
 73
2
  0
CIRCLE
  5
57
330
17
100
AcDbEntity
  8
桩基
100
AcDbCircle
 10
571282.5095409312
 20
785631.4162473034
 30
0.0
 40
0.75
  0
TEXT
  5
58
330
17
100
AcDbEntity
  8
桩基
100
AcDbText
 10
571282.5095409312
 20
785631.4162473034
 30
0.0
 40
0.1
  1
(W17, pk= 97.474, E=571282.510,N785631.416)
 72
1
 11
571282.5095409312
 21
785631.4162473034
 31
0.0
100
AcDbText
 73
2
  0
CIRCLE
  5
59
330
17
100
AcDbEntity
  8
桩基
100
AcDbCircle
 10
571279.2027328851
 20
785637.566907475
 30
0.0
 40
0.75
  0
TEXT
  5
5A
330
17
100
AcDbEntity
  8
桩基
100
AcDbText
 10
571279.2027328851
 20
785637.566907475
 30
0.0
 40
0.1
  1
(W17, pk= 97.474, E=571279.203,N785637.567)
 72
1
 11
571279.2027328851
 21
785637.566907475
 31
0.0
100
AcDbText
 73
2
  0
CIRCLE
  5
5B
330
17
100
AcDbEntity
  8
桩基
100
AcDbCircle
 10
571283.6067231336
 20
785636.6423157314
 30
0.0
 40
0.75
  0
TEXT
  5
5C
330
17
100
AcDbEntity
  8
桩基
100
AcDbText
 10
571283.6067231336
 20
785636.6423157314
 30
0.0
 40
0.1
  1
(W17, pk= 97.474, E=571283.607,N785636.642)
 72
1
 11
571283.6067231336
 21
785636.6423157314
 31
0.0
100
AcDbText
 73
2
  0
POLYLINE
  5
5D
330
17
100
AcDbEntity
  8
承台
100
AcDb2dPolyline
 66
1
 10
0.0
 20
0.0
 30
0.0
 70
1
  0
VERTEX
  5
5F
330
17
100
AcDbEntity
  8
承台
100
AcDbVertex
100
AcDb2dVertex
 10
571275.528206816
 20
785626.1482710344
 30
0.0
 70
0
  0
VERTEX
  5
60
330
17
100
AcDbEntity
  8
承台
100
AcDbVertex
100
AcDb2dVertex
 10
571282.3788583134
 20
785624.7100172109
 30
0.0
 70
0
  0
VERTEX
  5
61
330
17
100
AcDbEntity
  8
承台
100
AcDbVertex
100
AcDb2dVertex
 10
571285.086884798
 20
785637.608815316
 30
0.0
 70
0
  0
VERTEX
  5
62
330
17
100
AcDbEntity
  8
承台
100
AcDbVertex
100
AcDb2dVertex
 10
571278.2362333005
 20
785639.0470691394
 30
0.0
 70
0
  0
SEQEND
  5
5E
330
5D
100
AcDbEntity
  8
承台
  0
CIRCLE
  5
63
330
17
100
AcDbEntity
  8
桩基
100
AcDbCircle
 10
571275.1160373786
 20
785618.1012705772
 30
0.0
 40
0.75
  0
TEXT
  5
64
330
17
100
AcDbEntity
  8
桩基
100
AcDbText
 10
571275.1160373786
 20
785618.1012705772
 30
0.0
 40
0.1
  1
(W17, pk= 97.474, E=571275.116,N785618.101)
 72
1
 11
571275.1160373786
 21
785618.1012705772
 31
0.0
100
AcDbText
 73
2
  0
CIRCLE
  5
65
330
17
100
AcDbEntity
  8
桩基
100
AcDbCircle
 10
571279.520027627
 20
785617.1766788336
 30
0.0
 40
0.75
  0
TEXT
  5
66
330
17
100
AcDbEntity
  8
桩基
100
AcDbText
 10
571279.520027627
 20
785617.1766788336
 30
0.0
 40
0.1
  1
(W17, pk= 97.474, E=571279.520,N785617.177)
 72
1
 11
571279.520027627
 21
785617.1766788336
 31
0.0
100
AcDbText
 73
2
  0
CIRCLE
  5
67
330
17
100
AcDbEntity
  8
桩基
100
AcDbCircle
 10
571276.0406291222
 20
785622.5052608256
 30
0.0
 40
0.75
  0
TEXT
  5
68
330
17
100
AcDbEntity
  8
桩基
100
AcDbText
 10
571276.0406291222
 20
785622.5052608256
 30
0.0
 40
0.1
  1
(W17, pk= 97.474, E=571276.041,N785622.505)
 72
1
 11
571276.0406291222
 21
785622.5052608256
 31
0.0
100
AcDbText
 73
2
  0
CIRCLE
  5
69
330
17
100
AcDbEntity
  8
桩基
100
AcDbCircle
 10
571280.4446193706
 20
785621.580669082
 30
0.0
 40
0.75
  0
TEXT
  5
6A
330
17
100
AcDbEntity
  8
桩基
100
AcDbText
 10
571280.4446193706
 20
785621.580669082
 30
0.0
 40
0.1
  1
(W17, pk= 97.474, E=571280.445,N785621.581)
 72
1
 11
571280.4446193706
 21
785621.580669082
 31
0.0
100
AcDbText
 73
2
  0
POLYLINE
  5
6B
330
17
100
AcDbEntity
  8
承台
100
AcDb2dPolyline
 66
1
 10
0.0
 20
0.0
 30
0.0
 70
1
  0
VERTEX
  5
6D
330
17
100
AcDbEntity
  8
承台
100
AcDbVertex
100
AcDb2dVertex
 10
571273.6358757141
 20
785617.1347709926
 30
0.0
 70
0
  0
VERTEX
  5
6E
330
17
100
AcDbEntity
  8
承台
100
AcDbVertex
100
AcDb2dVertex
 10
571280.4865272116
 20
785615.6965171691
 30
0.0
 70
0
  0
VERTEX
  5
6F
330
17
100
AcDbEntity
  8
承台
100
AcDbVertex
100
AcDb2dVertex
 10
571281.924781035
 20
785622.5471686666
 30
0.0
 70
0
  0
VERTEX
  5
70
330
17
100
AcDbEntity
  8
承台
100
AcDbVertex
100
AcDb2dVertex
 10
571275.0741295376
 20
785623.98542249
 30
0.0
 70
0
  0
SEQEND
  5
6C
330
6B
100
AcDbEntity
  8
承台
  0
CIRCLE
  5
71
330
17
100
AcDbEntity
  8
桩基
100
AcDbCircle
 10
571316.5354291275
 20
785620.410671411
 30
0.0
 40
0.75
  0
TEXT
  5
72
330
17
100
AcDbEntity
  8
桩基
100
AcDbText
 10
571316.5354291275
 20
785620.410671411
 30
0.0
 40
0.1
  1
(W16, pk= 137.474, E=571316.535,N785620.411)
 72
1
 11
571316.5354291275
 21
785620.410671411
 31
0.0
100
AcDbText
 73
2
  0
CIRCLE
  5
73
330
17
100
AcDbEntity
  8
桩基
100
AcDbCircle
 10
571320.9240897652
 20
785619.4158559468
 30
0.0
 40
0.75
  0
TEXT
  5
74
330
17
100
AcDbEntity
  8
桩基
100
AcDbText
 10
571320.9240897652
 20
785619.4158559468
 30
0.0
 40
0.1
  1
(W16, pk= 137.474, E=571320.924,N785619.416)
 72
1
 11
571320.9240897652
 21
785619.4158559468
 31
0.0
100
AcDbText
 73
2
  0
CIRCLE
  5
75
330
17
100
AcDbEntity
  8
桩基
100
AcDbCircle
 10
571317.5302445916
 20
785624.7993320486
 30
0.0
 40
0.75
  0
TEXT
  5
76
330
17
100
AcDbEntity
  8
桩基
100
AcDbText
 10
571317.5302445916
 20
785624.7993320486
 30
0.0
 40
0.1
  1
(W16, pk= 137.474, E=571317.530,N785624.799)
 72
1
 11
571317.5302445916
 21
785624.7993320486
 31
0.0
100
AcDbText
 73
2
  0
CIRCLE
  5
77
330
17
100
AcDbEntity
  8
桩基
100
AcDbCircle
 10
571321.9189052293
 20
785623.8045165845
 30
0.0
 40
0.75
  0
TEXT
  5
78
330
17
100
AcDbEntity
  8
桩基
100
AcDbText
 10
571321.9189052293
 20
785623.8045165845
 30
0.0
 40
0.1
  1
(W16, pk= 137.474, E=571321.919,N785623.805)
 72
1
 11
571321.9189052293
 21
785623.8045165845
 31
0.0
100
AcDbText
 73
2
  0
POLYLINE
  5
79
330
17
100
AcDbEntity
  8
承台
100
AcDb2dPolyline
 66
1
 10
0.0
 20
0.0
 30
0.0
 70
1
  0
VERTEX
  5
7B
330
17
100
AcDbEntity
  8
承台
100
AcDbVertex
100
AcDb2dVertex
 10
571315.0400190993
 20
785619.4679366405
 30
0.0
 70
0
  0
VERTEX
  5
7C
330
17
100
AcDbEntity
  8
承台
100
AcDbVertex
100
AcDb2dVertex
 10
571321.8668245357
 20
785617.9204459186
 30
0.0
 70
0
  0
VERTEX
  5
7D
330
17
100
AcDbEntity
  8
承台
100
AcDbVertex
100
AcDb2dVertex
 10
571323.4143152576
 20
785624.747251355
 30
0.0
 70
0
  0
VERTEX
  5
7E
330
17
100
AcDbEntity
  8
承台
100
AcDbVertex
100
AcDb2dVertex
 10
571316.5875098212
 20
785626.2947420769
 30
0.0
 70
0
  0
SEQEND
  5
7A
330
79
100
AcDbEntity
  8
承台
  0
CIRCLE
  5
7F
330
17
100
AcDbEntity
  8
桩基
100
AcDbCircle
 10
571314.1877131792
 20
785610.0536464729
 30
0.0
 40
0.75
  0
TEXT
  5
80
330
17
100
AcDbEntity
  8
桩基
100
AcDbText
 10
571314.1877131792
 20
785610.0536464729
 30
0.0
 40
0.1
  1
(W16, pk= 137.474, E=571314.188,N785610.054)
 72
1
 11
571314.1877131792
 21
785610.0536464729
 31
0.0
100
AcDbText
 73
2
  0
CIRCLE
  5
81
330
17
100
AcDbEntity
  8
桩基
100
AcDbCircle
 10
571318.5763738168
 20
785609.0588310087
 30
0.0
 40
0.75
  0
TEXT
  5
82
330
17
100
AcDbEntity
  8
桩基
100
AcDbText
 10
571318.5763738168
 20
785609.0588310087
 30
0.0
 40
0.1
  1
(W16, pk= 137.474, E=571318.576,N785609.059)
 72
1
 11
571318.5763738168
 21
785609.0588310087
 31
0.0
100
AcDbText
 73
2
  0
CIRCLE
  5
83
330
17
100
AcDbEntity
  8
桩基
100
AcDbCircle
 10
571315.1825286433
 20
785614.4423071105
 30
0.0
 40
0.75
  0
TEXT
  5
84
330
17
100
AcDbEntity
  8
桩基
100
AcDbText
 10
571315.1825286433
 20
785614.4423071105
 30
0.0
 40
0.1
  1
(W16, pk= 137.474, E=571315.183,N785614.442)
 72
1
 11
571315.1825286433
 21
785614.4423071105
 31
0.0
100
AcDbText
 73
2
  0
CIRCLE
  5
85
330
17
100
AcDbEntity
  8
桩基
100
AcDbCircle
 10
571319.571189281
 20
785613.4474916464
 30
0.0
 40
0.75
  0
TEXT
  5
86
330
17
100
AcDbEntity
  8
桩基
100
AcDbText
 10
571319.571189281
 20
785613.4474916464
 30
0.0
 40
0.1
  1
(W16, pk= 137.474, E=571319.571,N785613.447)
 72
1
 11
571319.571189281
 21
785613.4474916464
 31
0.0
100
AcDbText
 73
2
  0
POLYLINE
  5
87
330
17
100
AcDbEntity
  8
承台
100
AcDb2dPolyline
 66
1
 10
0.0
 20
0.0
 30
0.0
 70
1
  0
VERTEX
  5
89
330
17
100
AcDbEntity
  8
承台
100
AcDbVertex
100
AcDb2dVertex
 10
571312.6923031509
 20
785609.1109117024
 30
0.0
 70
0
  0
VERTEX
  5
8A
330
17
100
AcDbEntity
  8
承台
100
AcDbVertex
100
AcDb2dVertex
 10
571319.5191085873
 20
785607.5634209805
 30
0.0
 70
0
  0
VERTEX
  5
8B
330
17
100
AcDbEntity
  8
承台
100
AcDbVertex
100
AcDb2dVertex
 10
571321.0665993092
 20
785614.3902264169
 30
0.0
 70
0
  0
VERTEX
  5
8C
330
17
100
AcDbEntity
  8
承台
100
AcDbVertex
100
AcDb2dVertex
 10
571314.2397938728
 20
785615.9377171388
 30
0.0
 70
0
  0
SEQEND
  5
88
330
87
100
AcDbEntity
  8
承台
  0
CIRCLE
  5
8D
330
17
100
AcDbEntity
  8
桩基
100
AcDbCircle
 10
571355.750539791
 20
785612.129878469
 30
0.0
 40
0.75
  0
TEXT
  5
8E
330
17
100
AcDbEntity
  8
桩基
100
AcDbText
 10
571355.750539791
 20
785612.129878469
 30
0.0
 40
0.1
  1
(W15, pk= 177.474, E=571355.751,N785612.130)
 72
1
 11
571355.750539791
 21
785612.129878469
 31
0.0
100
AcDbText
 73
2
  0
CIRCLE
  5
8F
330
17
100
AcDbEntity
  8
桩基
100
AcDbCircle
 10
571360.1226958543
 20
785611.0648660946
 30
0.0
 40
0.75
  0
TEXT
  5
90
330
17
100
AcDbEntity
  8
桩基
100
AcDbText
 10
571360.1226958543
 20
785611.0648660946
 30
0.0
 40
0.1
  1
(W15, pk= 177.474, E=571360.123,N785611.065)
 72
1
 11
571360.1226958543
 21
785611.0648660946
 31
0.0
100
AcDbText
 73
2
  0
CIRCLE
  5
91
330
17
100
AcDbEntity
  8
桩基
100
AcDbCircle
 10
571356.8155521654
 20
785616.5020345324
 30
0.0
 40
0.75
  0
TEXT
  5
92
330
17
100
AcDbEntity
  8
桩基
100
AcDbText
 10
571356.8155521654
 20
785616.5020345324
 30
0.0
 40
0.1
  1
(W15, pk= 177.474, E=571356.816,N785616.502)
 72
1
 11
571356.8155521654
 21
785616.5020345324
 31
0.0
100
AcDbText
 73
2
  0
CIRCLE
  5
93
330
17
100
AcDbEntity
  8
桩基
100
AcDbCircle
 10
571361.1877082287
 20
785615.437022158
 30
0.0
 40
0.75
  0
TEXT
  5
94
330
17
100
AcDbEntity
  8
桩基
100
AcDbText
 10
571361.1877082287
 20
785615.437022158
 30
0.0
 40
0.1
  1
(W15, pk= 177.474, E=571361.188,N785615.437)
 72
1
 11
571361.1877082287
 21
785615.437022158
 31
0.0
100
AcDbText
 73
2
  0
POLYLINE
  5
95
330
17
100
AcDbEntity
  8
承台
100
AcDb2dPolyline
 66
1
 10
0.0
 20
0.0
 30
0.0
 70
1
  0
VERTEX
  5
97
330
17
100
AcDbEntity
  8
承台
100
AcDbVertex
100
AcDb2dVertex
 10
571354.2402152249
 20
785611.2112274443
 30
0.0
 70
0
  0
VERTEX
  5
98
330
17
100
AcDbEntity
  8
承台
100
AcDbVertex
100
AcDb2dVertex
 10
571361.041346879
 20
785609.5545415286
 30
0.0
 70
0
  0
VERTEX
  5
99
330
17
100
AcDbEntity
  8
承台
100
AcDbVertex
100
AcDb2dVertex
 10
571362.6980327948
 20
785616.3556731826
 30
0.0
 70
0
  0
VERTEX
  5
9A
330
17
100
AcDbEntity
  8
承台
100
AcDbVertex
100
AcDb2dVertex
 10
571355.8969011407
 20
785618.0123590984
 30
0.0
 70
0
  0
SEQEND
  5
96
330
95
100
AcDbEntity
  8
承台
  0
CIRCLE
  5
9B
330
17
100
AcDbEntity
  8
桩基
100
AcDbCircle
 10
571352.8077922658
 20
785600.0491254709
 30
0.0
 40
0.75
  0
TEXT
  5
9C
330
17
100
AcDbEntity
  8
桩基
100
AcDbText
 10
571352.8077922658
 20
785600.0491254709
 30
0.0
 40
0.1
  1
(W15, pk= 177.474, E=571352.808,N785600.049)
 72
1
 11
571352.8077922658
 21
785600.0491254709
 31
0.0
100
AcDbText
 73
2
  0
CIRCLE
  5
9D
330
17
100
AcDbEntity
  8
桩基
100
AcDbCircle
 10
571357.1799483291
 20
785598.9841130965
 30
0.0
 40
0.75
  0
TEXT
  5
9E
330
17
100
AcDbEntity
  8
桩基
100
AcDbText
 10
571357.1799483291
 20
785598.9841130965
 30
0.0
 40
0.1
  1
(W15, pk= 177.474, E=571357.180,N785598.984)
 72
1
 11
571357.1799483291
 21
785598.9841130965
 31
0.0
100
AcDbText
 73
2
  0
CIRCLE
  5
9F
330
17
100
AcDbEntity
  8
桩基
100
AcDbCircle
 10
571353.8728046402
 20
785604.4212815342
 30
0.0
 40
0.75
  0
TEXT
  5
A0
330
17
100
AcDbEntity
  8
桩基
100
AcDbText
 10
571353.8728046402
 20
785604.4212815342
 30
0.0
 40
0.1
  1
(W15, pk= 177.474, E=571353.873,N785604.421)
 72
1
 11
571353.8728046402
 21
785604.4212815342
 31
0.0
100
AcDbText
 73
2
  0
CIRCLE
  5
A1
330
17
100
AcDbEntity
  8
桩基
100
AcDbCircle
 10
571358.2449607035
 20
785603.3562691598
 30
0.0
 40
0.75
  0
TEXT
  5
A2
330
17
100
AcDbEntity
  8
桩基
100
AcDbText
 10
571358.2449607035
 20
785603.3562691598
 30
0.0
 40
0.1
  1
(W15, pk= 177.474, E=571358.245,N785603.356)
 72
1
 11
571358.2449607035
 21
785603.3562691598
 31
0.0
100
AcDbText
 73
2
  0
POLYLINE
  5
A3
330
17
100
AcDbEntity
  8
承台
100
AcDb2dPolyline
 66
1
 10
0.0
 20
0.0
 30
0.0
 70
1
  0
VERTEX
  5
A5
330
17
100
AcDbEntity
  8
承台
100
AcDbVertex
100
AcDb2dVertex
 10
571351.2974676997
 20
785599.1304744462
 30
0.0
 70
0
  0
VERTEX
  5
A6
330
17
100
AcDbEntity
  8
承台
100
AcDbVertex
100
AcDb2dVertex
 10
571358.0985993538
 20
785597.4737885304
 30
0.0
 70
0
  0
VERTEX
  5
A7
330
17
100
AcDbEntity
  8
承台
100
AcDbVertex
100
AcDb2dVertex
 10
571359.7552852696
 20
785604.2749201845
 30
0.0
 70
0
  0
VERTEX
  5
A8
330
17
100
AcDbEntity
  8
承台
100
AcDbVertex
100
AcDb2dVertex
 10
571352.9541536155
 20
785605.9316061003
 30
0.0
 70
0
  0
SEQEND
  5
A4
330
A3
100
AcDbEntity
  8
承台
  0
CIRCLE
  5
A9
330
17
100
AcDbEntity
  8
桩基
100
AcDbCircle
 10
571394.1325408237
 20
785600.7176332274
 30
0.0
 40
0.75
  0
TEXT
  5
AA
330
17
100
AcDbEntity
  8
桩基
100
AcDbText
 10
571394.1325408237
 20
785600.7176332274
 30
0.0
 40
0.1
  1
(W14, pk= 217.472, E=571394.133,N785600.718)
 72
1
 11
571394.1325408237
 21
785600.7176332274
 31
0.0
100
AcDbText
 73
2
  0
CIRCLE
  5
AB
330
17
100
AcDbEntity
  8
桩基
100
AcDbCircle
 10
571398.5059420324
 20
785599.6577455599
 30
0.0
 40
0.75
  0
TEXT
  5
AC
330
17
100
AcDbEntity
  8
桩基
100
AcDbText
 10
571398.5059420324
 20
785599.6577455599
 30
0.0
 40
0.1
  1
(W14, pk= 217.472, E=571398.506,N785599.658)
 72
1
 11
571398.5059420324
 21
785599.6577455599
 31
0.0
100
AcDbText
 73
2
  0
CIRCLE
  5
AD
330
17
100
AcDbEntity
  8
桩基
100
AcDbCircle
 10
571395.1924284911
 20
785605.0910344361
 30
0.0
 40
0.75
  0
TEXT
  5
AE
330
17
100
AcDbEntity
  8
桩基
100
AcDbText
 10
571395.1924284911
 20
785605.0910344361
 30
0.0
 40
0.1
  1
(W14, pk= 217.472, E=571395.192,N785605.091)
 72
1
 11
571395.1924284911
 21
785605.0910344361
 31
0.0
100
AcDbText
 73
2
  0
CIRCLE
  5
AF
330
17
100
AcDbEntity
  8
桩基
100
AcDbCircle
 10
571399.5658296999
 20
785604.0311467687
 30
0.0
 40
0.75
  0
TEXT
  5
B0
330
17
100
AcDbEntity
  8
桩基
100
AcDbText
 10
571399.5658296999
 20
785604.0311467687
 30
0.0
 40
0.1
  1
(W14, pk= 217.472, E=571399.566,N785604.031)
 72
1
 11
571399.5658296999
 21
785604.0311467687
 31
0.0
100
AcDbText
 73
2
  0
POLYLINE
  5
B1
330
17
100
AcDbEntity
  8
承台
100
AcDb2dPolyline
 66
1
 10
0.0
 20
0.0
 30
0.0
 70
1
  0
VERTEX
  5
B3
330
17
100
AcDbEntity
  8
承台
100
AcDbVertex
100
AcDb2dVertex
 10
571392.6232939137
 20
785599.7972127992
 30
0.0
 70
0
  0
VERTEX
  5
B4
330
17
100
AcDbEntity
  8
承台
100
AcDbVertex
100
AcDb2dVertex
 10
571399.4263624606
 20
785598.1484986499
 30
0.0
 70
0
  0
VERTEX
  5
B5
330
17
100
AcDbEntity
  8
承台
100
AcDbVertex
100
AcDb2dVertex
 10
571401.0750766098
 20
785604.9515671969
 30
0.0
 70
0
  0
VERTEX
  5
B6
330
17
100
AcDbEntity
  8
承台
100
AcDbVertex
100
AcDb2dVertex
 10
571394.2720080629
 20
785606.6002813461
 30
0.0
 70
0
  0
SEQEND
  5
B2
330
B1
100
AcDbEntity
  8
承台
  0
CIRCLE
  5
B7
330
17
100
AcDbEntity
  8
桩基
100
AcDbCircle
 10
571391.7244760434
 20
785590.781265681
 30
0.0
 40
0.75
  0
TEXT
  5
B8
330
17
100
AcDbEntity
  8
桩基
100
AcDbText
 10
571391.7244760434
 20
785590.781265681
 30
0.0
 40
0.1
  1
(W14, pk= 217.472, E=571391.724,N785590.781)
 72
1
 11
571391.7244760434
 21
785590.781265681
 31
0.0
100
AcDbText
 73
2
  0
CIRCLE
  5
B9
330
17
100
AcDbEntity
  8
桩基
100
AcDbCircle
 10
571396.0978772521
 20
785589.7213780136
 30
0.0
 40
0.75
  0
TEXT
  5
BA
330
17
100
AcDbEntity
  8
桩基
100
AcDbText
 10
571396.0978772521
 20
785589.7213780136
 30
0.0
 40
0.1
  1
(W14, pk= 217.472, E=571396.098,N785589.721)
 72
1
 11
571396.0978772521
 21
785589.7213780136
 31
0.0
100
AcDbText
 73
2
  0
CIRCLE
  5
BB
330
17
100
AcDbEntity
  8
桩基
100
AcDbCircle
 10
571392.7843637108
 20
785595.1546668898
 30
0.0
 40
0.75
  0
TEXT
  5
BC
330
17
100
AcDbEntity
  8
桩基
100
AcDbText
 10
571392.7843637108
 20
785595.1546668898
 30
0.0
 40
0.1
  1
(W14, pk= 217.472, E=571392.784,N785595.155)
 72
1
 11
571392.7843637108
 21
785595.1546668898
 31
0.0
100
AcDbText
 73
2
  0
CIRCLE
  5
BD
330
17
100
AcDbEntity
  8
桩基
100
AcDbCircle
 10
571397.1577649196
 20
785594.0947792224
 30
0.0
 40
0.75
  0
TEXT
  5
BE
330
17
100
AcDbEntity
  8
桩基
100
AcDbText
 10
571397.1577649196
 20
785594.0947792224
 30
0.0
 40
0.1
  1
(W14, pk= 217.472, E=571397.158,N785594.095)
 72
1
 11
571397.1577649196
 21
785594.0947792224
 31
0.0
100
AcDbText
 73
2
  0
POLYLINE
  5
BF
330
17
100
AcDbEntity
  8
承台
100
AcDb2dPolyline
 66
1
 10
0.0
 20
0.0
 30
0.0
 70
1
  0
VERTEX
  5
C1
330
17
100
AcDbEntity
  8
承台
100
AcDbVertex
100
AcDb2dVertex
 10
571390.2152291334
 20
785589.8608452529
 30
0.0
 70
0
  0
VERTEX
  5
C2
330
17
100
AcDbEntity
  8
承台
100
AcDbVertex
100
AcDb2dVertex
 10
571397.0182976803
 20
785588.2121311036
 30
0.0
 70
0
  0
VERTEX
  5
C3
330
17
100
AcDbEntity
  8
承台
100
AcDbVertex
100
AcDb2dVertex
 10
571398.6670118296
 20
785595.0151996505
 30
0.0
 70
0
  0
VERTEX
  5
C4
330
17
100
AcDbEntity
  8
承台
100
AcDbVertex
100
AcDb2dVertex
 10
571391.8639432826
 20
785596.6639137998
 30
0.0
 70
0
  0
SEQEND
  5
C0
330
BF
100
AcDbEntity
  8
承台
  0
CIRCLE
  5
C5
330
17
100
AcDbEntity
  8
桩基
100
AcDbCircle
 10
570939.5144807699
 20
785570.6830260401
 30
0.0
 40
0.75
  0
TEXT
  5
C6
330
17
100
AcDbEntity
  8
桩基
100
AcDbText
 10
570939.5144807699
 20
785570.6830260401
 30
0.0
 40
0.1
  1
(R1-1, pk= 213.364, E=570939.514,N785570.683)
 72
1
 11
570939.5144807699
 21
785570.6830260401
 31
0.0
100
AcDbText
 73
2
  0
CIRCLE
  5
C7
330
17
100
AcDbEntity
  8
桩基
100
AcDbCircle
 10
570942.3554695318
 20
785574.1728373322
 30
0.0
 40
0.75
  0
TEXT
  5
C8
330
17
100
AcDbEntity
  8
桩基
100
AcDbText
 10
570942.3554695318
 20
785574.1728373322
 30
0.0
 40
0.1
  1
(R1-1, pk= 213.364, E=570942.355,N785574.173)
 72
1
 11
570942.3554695318
 21
785574.1728373322
 31
0.0
100
AcDbText
 73
2
  0
CIRCLE
  5
C9
330
17
100
AcDbEntity
  8
桩基
100
AcDbCircle
 10
570936.0246694777
 20
785573.524014802
 30
0.0
 40
0.75
  0
TEXT
  5
CA
330
17
100
AcDbEntity
  8
桩基
100
AcDbText
 10
570936.0246694777
 20
785573.524014802
 30
0.0
 40
0.1
  1
(R1-1, pk= 213.364, E=570936.025,N785573.524)
 72
1
 11
570936.0246694777
 21
785573.524014802
 31
0.0
100
AcDbText
 73
2
  0
CIRCLE
  5
CB
330
17
100
AcDbEntity
  8
桩基
100
AcDbCircle
 10
570938.8656582397
 20
785577.0138260941
 30
0.0
 40
0.75
  0
TEXT
  5
CC
330
17
100
AcDbEntity
  8
桩基
100
AcDbText
 10
570938.8656582397
 20
785577.0138260941
 30
0.0
 40
0.1
  1
(R1-1, pk= 213.364, E=570938.866,N785577.014)
 72
1
 11
570938.8656582397
 21
785577.0138260941
 31
0.0
100
AcDbText
 73
2
  0
CIRCLE
  5
CD
330
17
100
AcDbEntity
  8
桩基
100
AcDbCircle
 10
570932.5348581856
 20
785576.3650035638
 30
0.0
 40
0.75
  0
TEXT
  5
CE
330
17
100
AcDbEntity
  8
桩基
100
AcDbText
 10
570932.5348581856
 20
785576.3650035638
 30
0.0
 40
0.1
  1
(R1-1, pk= 213.364, E=570932.535,N785576.365)
 72
1
 11
570932.5348581856
 21
785576.3650035638
 31
0.0
100
AcDbText
 73
2
  0
CIRCLE
  5
CF
330
17
100
AcDbEntity
  8
桩基
100
AcDbCircle
 10
570935.3758469475
 20
785579.854814856
 30
0.0
 40
0.75
  0
TEXT
  5
D0
330
17
100
AcDbEntity
  8
桩基
100
AcDbText
 10
570935.3758469475
 20
785579.854814856
 30
0.0
 40
0.1
  1
(R1-1, pk= 213.364, E=570935.376,N785579.855)
 72
1
 11
570935.3758469475
 21
785579.854814856
 31
0.0
100
AcDbText
 73
2
  0
POLYLINE
  5
D1
330
17
100
AcDbEntity
  8
承台
100
AcDb2dPolyline
 66
1
 10
0.0
 20
0.0
 30
0.0
 70
1
  0
VERTEX
  5
D3
330
17
100
AcDbEntity
  8
承台
100
AcDbVertex
100
AcDb2dVertex
 10
570939.6947092505
 20
785568.9244704696
 30
0.0
 70
0
  0
VERTEX
  5
D4
330
17
100
AcDbEntity
  8
承台
100
AcDbVertex
100
AcDb2dVertex
 10
570944.1140251025
 20
785574.3530658128
 30
0.0
 70
0
  0
VERTEX
  5
D5
330
17
100
AcDbEntity
  8
承台
100
AcDbVertex
100
AcDb2dVertex
 10
570935.1956184669
 20
785581.6133704265
 30
0.0
 70
0
  0
VERTEX
  5
D6
330
17
100
AcDbEntity
  8
承台
100
AcDbVertex
100
AcDb2dVertex
 10
570930.776302615
 20
785576.1847750832
 30
0.0
 70
0
  0
SEQEND
  5
D2
330
D1
100
AcDbEntity
  8
承台
  0
CIRCLE
  5
D7
330
17
100
AcDbEntity
  8
桩基
100
AcDbCircle
 10
570963.5898802378
 20
785600.0872108164
 30
0.0
 40
0.75
  0
TEXT
  5
D8
330
17
100
AcDbEntity
  8
桩基
100
AcDbText
 10
570963.5898802378
 20
785600.0872108164
 30
0.0
 40
0.1
  1
(R1-2, pk= 251.364, E=570963.590,N785600.087)
 72
1
 11
570963.5898802378
 21
785600.0872108164
 31
0.0
100
AcDbText
 73
2
  0
CIRCLE
  5
D9
330
17
100
AcDbEntity
  8
桩基
100
AcDbCircle
 10
570966.5206194676
 20
785603.5019974228
 30
0.0
 40
0.75
  0
TEXT
  5
DA
330
17
100
AcDbEntity
  8
桩基
100
AcDbText
 10
570966.5206194676
 20
785603.5019974228
 30
0.0
 40
0.1
  1
(R1-2, pk= 251.364, E=570966.521,N785603.502)
 72
1
 11
570966.5206194676
 21
785603.5019974228
 31
0.0
100
AcDbText
 73
2
  0
CIRCLE
  5
DB
330
17
100
AcDbEntity
  8
桩基
100
AcDbCircle
 10
570960.1750936315
 20
785603.0179500462
 30
0.0
 40
0.75
  0
TEXT
  5
DC
330
17
100
AcDbEntity
  8
桩基
100
AcDbText
 10
570960.1750936315
 20
785603.0179500462
 30
0.0
 40
0.1
  1
(R1-2, pk= 251.364, E=570960.175,N785603.018)
 72
1
 11
570960.1750936315
 21
785603.0179500462
 31
0.0
100
AcDbText
 73
2
  0
CIRCLE
  5
DD
330
17
100
AcDbEntity
  8
桩基
100
AcDbCircle
 10
570963.1058328613
 20
785606.4327366526
 30
0.0
 40
0.75
  0
TEXT
  5
DE
330
17
100
AcDbEntity
  8
桩基
100
AcDbText
 10
570963.1058328613
 20
785606.4327366526
 30
0.0
 40
0.1
  1
(R1-2, pk= 251.364, E=570963.106,N785606.433)
 72
1
 11
570963.1058328613
 21
785606.4327366526
 31
0.0
100
AcDbText
 73
2
  0
CIRCLE
  5
DF
330
17
100
AcDbEntity
  8
桩基
100
AcDbCircle
 10
570956.7603070252
 20
785605.948689276
 30
0.0
 40
0.75
  0
TEXT
  5
E0
330
17
100
AcDbEntity
  8
桩基
100
AcDbText
 10
570956.7603070252
 20
785605.948689276
 30
0.0
 40
0.1
  1
(R1-2, pk= 251.364, E=570956.760,N785605.949)
 72
1
 11
570956.7603070252
 21
785605.948689276
 31
0.0
100
AcDbText
 73
2
  0
CIRCLE
  5
E1
330
17
100
AcDbEntity
  8
桩基
100
AcDbCircle
 10
570959.691046255
 20
785609.3634758823
 30
0.0
 40
0.75
  0
TEXT
  5
E2
330
17
100
AcDbEntity
  8
桩基
100
AcDbText
 10
570959.691046255
 20
785609.3634758823
 30
0.0
 40
0.1
  1
(R1-2, pk= 251.364, E=570959.691,N785609.363)
 72
1
 11
570959.691046255
 21
785609.3634758823
 31
0.0
100
AcDbText
 73
2
  0
POLYLINE
  5
E3
330
17
100
AcDbEntity
  8
承台
100
AcDb2dPolyline
 66
1
 10
0.0
 20
0.0
 30
0.0
 70
1
  0
VERTEX
  5
E5
330
17
100
AcDbEntity
  8
承台
100
AcDbVertex
100
AcDb2dVertex
 10
570963.7243378424
 20
785598.3245647509
 30
0.0
 70
0
  0
VERTEX
  5
E6
330
17
100
AcDbEntity
  8
承台
100
AcDbVertex
100
AcDb2dVertex
 10
570968.2832655332
 20
785603.6364550274
 30
0.0
 70
0
  0
VERTEX
  5
E7
330
17
100
AcDbEntity
  8
承台
100
AcDbVertex
100
AcDb2dVertex
 10
570959.5565886503
 20
785611.1261219479
 30
0.0
 70
0
  0
VERTEX
  5
E8
330
17
100
AcDbEntity
  8
承台
100
AcDbVertex
100
AcDb2dVertex
 10
570954.9976609596
 20
785605.8142316714
 30
0.0
 70
0
  0
SEQEND
  5
E4
330
E3
100
AcDbEntity
  8
承台
  0
CIRCLE
  5
E9
330
17
100
AcDbEntity
  8
桩基
100
AcDbCircle
 10
571018.9000656675
 20
785642.9437269048
 30
0.0
 40
0.75
  0
TEXT
  5
EA
330
17
100
AcDbEntity
  8
桩基
100
AcDbText
 10
571018.9000656675
 20
785642.9437269048
 30
0.0
 40
0.1
  1
(R1-3, pk= 322.364, E=571018.900,N785642.944)
 72
1
 11
571018.9000656675
 21
785642.9437269048
 31
0.0
100
AcDbText
 73
2
  0
CIRCLE
  5
EB
330
17
100
AcDbEntity
  8
桩基
100
AcDbCircle
 10
571023.0817239576
 20
785644.6061750831
 30
0.0
 40
0.75
  0
TEXT
  5
EC
330
17
100
AcDbEntity
  8
桩基
100
AcDbText
 10
571023.0817239576
 20
785644.6061750831
 30
0.0
 40
0.1
  1
(R1-3, pk= 322.364, E=571023.082,N785644.606)
 72
1
 11
571023.0817239576
 21
785644.6061750831
 31
0.0
100
AcDbText
 73
2
  0
CIRCLE
  5
ED
330
17
100
AcDbEntity
  8
桩基
100
AcDbCircle
 10
571017.2376174892
 20
785647.1253851949
 30
0.0
 40
0.75
  0
TEXT
  5
EE
330
17
100
AcDbEntity
  8
桩基
100
AcDbText
 10
571017.2376174892
 20
785647.1253851949
 30
0.0
 40
0.1
  1
(R1-3, pk= 322.364, E=571017.238,N785647.125)
 72
1
 11
571017.2376174892
 21
785647.1253851949
 31
0.0
100
AcDbText
 73
2
  0
CIRCLE
  5
EF
330
17
100
AcDbEntity
  8
桩基
100
AcDbCircle
 10
571021.4192757793
 20
785648.7878333732
 30
0.0
 40
0.75
  0
TEXT
  5
F0
330
17
100
AcDbEntity
  8
桩基
100
AcDbText
 10
571021.4192757793
 20
785648.7878333732
 30
0.0
 40
0.1
  1
(R1-3, pk= 322.364, E=571021.419,N785648.788)
 72
1
 11
571021.4192757793
 21
785648.7878333732
 31
0.0
100
AcDbText
 73
2
  0
POLYLINE
  5
F1
330
17
100
AcDbEntity
  8
承台
100
AcDb2dPolyline
 66
1
 10
0.0
 20
0.0
 30
0.0
 70
1
  0
VERTEX
  5
F3
330
17
100
AcDbEntity
  8
承台
100
AcDbVertex
100
AcDb2dVertex
 10
571018.2002850808
 20
785641.3203639969
 30
0.0
 70
0
  0
VERTEX
  5
F4
330
17
100
AcDbEntity
  8
承台
100
AcDbVertex
100
AcDb2dVertex
 10
571024.7050868655
 20
785643.9063944964
 30
0.0
 70
0
  0
VERTEX
  5
F5
330
17
100
AcDbEntity
  8
承台
100
AcDbVertex
100
AcDb2dVertex
 10
571022.1190563659
 20
785650.4111962811
 30
0.0
 70
0
  0
VERTEX
  5
F6
330
17
100
AcDbEntity
  8
承台
100
AcDbVertex
100
AcDb2dVertex
 10
571015.6142545813
 20
785647.8251657815
 30
0.0
 70
0
  0
SEQEND
  5
F2
330
F1
100
AcDbEntity
  8
承台
  0
CIRCLE
  5
F7
330
17
100
AcDbEntity
  8
桩基
100
AcDbCircle
 10
571062.272436078
 20
785651.71741177
 30
0.0
 40
0.75
  0
TEXT
  5
F8
330
17
100
AcDbEntity
  8
桩基
100
AcDbText
 10
571062.272436078
 20
785651.71741177
 30
0.0
 40
0.1
  1
(R1-4, pk= 367.364, E=571062.272,N785651.717)
 72
1
 11
571062.272436078
 21
785651.71741177
 31
0.0
100
AcDbText
 73
2
  0
CIRCLE
  5
F9
330
17
100
AcDbEntity
  8
桩基
100
AcDbCircle
 10
571066.7723369988
 20
785651.6875503866
 30
0.0
 40
0.75
  0
TEXT
  5
FA
330
17
100
AcDbEntity
  8
桩基
100
AcDbText
 10
571066.7723369988
 20
785651.6875503866
 30
0.0
 40
0.1
  1
(R1-4, pk= 367.364, E=571066.772,N785651.688)
 72
1
 11
571066.7723369988
 21
785651.6875503866
 31
0.0
100
AcDbText
 73
2
  0
CIRCLE
  5
FB
330
17
100
AcDbEntity
  8
桩基
100
AcDbCircle
 10
571062.3022974614
 20
785656.2173126908
 30
0.0
 40
0.75
  0
TEXT
  5
FC
330
17
100
AcDbEntity
  8
桩基
100
AcDbText
 10
571062.3022974614
 20
785656.2173126908
 30
0.0
 40
0.1
  1
(R1-4, pk= 367.364, E=571062.302,N785656.217)
 72
1
 11
571062.3022974614
 21
785656.2173126908
 31
0.0
100
AcDbText
 73
2
  0
CIRCLE
  5
FD
330
17
100
AcDbEntity
  8
桩基
100
AcDbCircle
 10
571066.8021983822
 20
785656.1874513074
 30
0.0
 40
0.75
  0
TEXT
  5
FE
330
17
100
AcDbEntity
  8
桩基
100
AcDbText
 10
571066.8021983822
 20
785656.1874513074
 30
0.0
 40
0.1
  1
(R1-4, pk= 367.364, E=571066.802,N785656.187)
 72
1
 11
571066.8021983822
 21
785656.1874513074
 31
0.0
100
AcDbText
 73
2
  0
POLYLINE
  5
FF
330
17
100
AcDbEntity
  8
承台
100
AcDb2dPolyline
 66
1
 10
0.0
 20
0.0
 30
0.0
 70
1
  0
VERTEX
  5
101
330
17
100
AcDbEntity
  8
承台
100
AcDbVertex
100
AcDb2dVertex
 10
571061.0141687713
 20
785650.4757341207
 30
0.0
 70
0
  0
VERTEX
  5
102
330
17
100
AcDbEntity
  8
承台
100
AcDbVertex
100
AcDb2dVertex
 10
571068.0140146482
 20
785650.4292830799
 30
0.0
 70
0
  0
VERTEX
  5
103
330
17
100
AcDbEntity
  8
承台
100
AcDbVertex
100
AcDb2dVertex
 10
571068.0604656889
 20
785657.4291289567
 30
0.0
 70
0
  0
VERTEX
  5
104
330
17
100
AcDbEntity
  8
承台
100
AcDbVertex
100
AcDb2dVertex
 10
571061.0606198121
 20
785657.4755799975
 30
0.0
 70
0
  0
SEQEND
  5
100
330
FF
100
AcDbEntity
  8
承台
  0
CIRCLE
  5
105
330
17
100
AcDbEntity
  8
桩基
100
AcDbCircle
 10
571102.2708865582
 20
785648.1830578882
 30
0.0
 40
0.75
  0
TEXT
  5
106
330
17
100
AcDbEntity
  8
桩基
100
AcDbText
 10
571102.2708865582
 20
785648.1830578882
 30
0.0
 40
0.1
  1
(R1-5, pk= 407.728, E=571102.271,N785648.183)
 72
1
 11
571102.2708865582
 21
785648.1830578882
 31
0.0
100
AcDbText
 73
2
  0
CIRCLE
  5
107
330
17
100
AcDbEntity
  8
桩基
100
AcDbCircle
 10
571106.708485552
 20
785647.4362545866
 30
0.0
 40
0.75
  0
TEXT
  5
108
330
17
100
AcDbEntity
  8
桩基
100
AcDbText
 10
571106.708485552
 20
785647.4362545866
 30
0.0
 40
0.1
  1
(R1-5, pk= 407.728, E=571106.708,N785647.436)
 72
1
 11
571106.708485552
 21
785647.4362545866
 31
0.0
100
AcDbText
 73
2
  0
CIRCLE
  5
109
330
17
100
AcDbEntity
  8
桩基
100
AcDbCircle
 10
571103.0176898598
 20
785652.620656882
 30
0.0
 40
0.75
  0
TEXT
  5
10A
330
17
100
AcDbEntity
  8
桩基
100
AcDbText
 10
571103.0176898598
 20
785652.620656882
 30
0.0
 40
0.1
  1
(R1-5, pk= 407.728, E=571103.018,N785652.621)
 72
1
 11
571103.0176898598
 21
785652.620656882
 31
0.0
100
AcDbText
 73
2
  0
CIRCLE
  5
10B
330
17
100
AcDbEntity
  8
桩基
100
AcDbCircle
 10
571107.4552888536
 20
785651.8738535803
 30
0.0
 40
0.75
  0
TEXT
  5
10C
330
17
100
AcDbEntity
  8
桩基
100
AcDbText
 10
571107.4552888536
 20
785651.8738535803
 30
0.0
 40
0.1
  1
(R1-5, pk= 407.728, E=571107.455,N785651.874)
 72
1
 11
571107.4552888536
 21
785651.8738535803
 31
0.0
100
AcDbText
 73
2
  0
POLYLINE
  5
10D
330
17
100
AcDbEntity
  8
承台
100
AcDb2dPolyline
 66
1
 10
0.0
 20
0.0
 30
0.0
 70
1
  0
VERTEX
  5
10F
330
17
100
AcDbEntity
  8
承台
100
AcDbVertex
100
AcDb2dVertex
 10
571100.8307748096
 20
785647.1578368626
 30
0.0
 70
0
  0
VERTEX
  5
110
330
17
100
AcDbEntity
  8
承台
100
AcDbVertex
100
AcDb2dVertex
 10
571107.7337065776
 20
785645.9961428379
 30
0.0
 70
0
  0
VERTEX
  5
111
330
17
100
AcDbEntity
  8
承台
100
AcDbVertex
100
AcDb2dVertex
 10
571108.8954006023
 20
785652.8990746059
 30
0.0
 70
0
  0
VERTEX
  5
112
330
17
100
AcDbEntity
  8
承台
100
AcDbVertex
100
AcDb2dVertex
 10
571101.9924688343
 20
785654.0607686306
 30
0.0
 70
0
  0
SEQEND
  5
10E
330
10D
100
AcDbEntity
  8
承台
  0
CIRCLE
  5
113
330
17
100
AcDbEntity
  8
桩基
100
AcDbCircle
 10
571142.7085257499
 20
785643.1785976363
 30
0.0
 40
0.75
  0
TEXT
  5
114
330
17
100
AcDbEntity
  8
桩基
100
AcDbText
 10
571142.7085257499
 20
785643.1785976363
 30
0.0
 40
0.1
  1
(R1-6, pk= 448.428, E=571142.709,N785643.179)
 72
1
 11
571142.7085257499
 21
785643.1785976363
 31
0.0
100
AcDbText
 73
2
  0
CIRCLE
  5
115
330
17
100
AcDbEntity
  8
桩基
100
AcDbCircle
 10
571147.1407697755
 20
785642.4006433336
 30
0.0
 40
0.75
  0
TEXT
  5
116
330
17
100
AcDbEntity
  8
桩基
100
AcDbText
 10
571147.1407697755
 20
785642.4006433336
 30
0.0
 40
0.1
  1
(R1-6, pk= 448.428, E=571147.141,N785642.401)
 72
1
 11
571147.1407697755
 21
785642.4006433336
 31
0.0
100
AcDbText
 73
2
  0
CIRCLE
  5
117
330
17
100
AcDbEntity
  8
桩基
100
AcDbCircle
 10
571143.4864800526
 20
785647.6108416619
 30
0.0
 40
0.75
  0
TEXT
  5
118
330
17
100
AcDbEntity
  8
桩基
100
AcDbText
 10
571143.4864800526
 20
785647.6108416619
 30
0.0
 40
0.1
  1
(R1-6, pk= 448.428, E=571143.486,N785647.611)
 72
1
 11
571143.4864800526
 21
785647.6108416619
 31
0.0
100
AcDbText
 73
2
  0
CIRCLE
  5
119
330
17
100
AcDbEntity
  8
桩基
100
AcDbCircle
 10
571147.9187240782
 20
785646.8328873592
 30
0.0
 40
0.75
  0
TEXT
  5
11A
330
17
100
AcDbEntity
  8
桩基
100
AcDbText
 10
571147.9187240782
 20
785646.8328873592
 30
0.0
 40
0.1
  1
(R1-6, pk= 448.428, E=571147.919,N785646.833)
 72
1
 11
571147.9187240782
 21
785646.8328873592
 31
0.0
100
AcDbText
 73
2
  0
POLYLINE
  5
11B
330
17
100
AcDbEntity
  8
承台
100
AcDb2dPolyline
 66
1
 10
0.0
 20
0.0
 30
0.0
 70
1
  0
VERTEX
  5
11D
330
17
100
AcDbEntity
  8
承台
100
AcDbVertex
100
AcDb2dVertex
 10
571141.2612484364
 20
785642.1635171577
 30
0.0
 70
0
  0
VERTEX
  5
11E
330
17
100
AcDbEntity
  8
承台
100
AcDbVertex
100
AcDb2dVertex
 10
571148.1558502541
 20
785640.9533660201
 30
0.0
 70
0
  0
VERTEX
  5
11F
330
17
100
AcDbEntity
  8
承台
100
AcDbVertex
100
AcDb2dVertex
 10
571149.3660013917
 20
785647.8479678378
 30
0.0
 70
0
  0
VERTEX
  5
120
330
17
100
AcDbEntity
  8
承台
100
AcDbVertex
100
AcDb2dVertex
 10
571142.471399574
 20
785649.0581189754
 30
0.0
 70
0
  0
SEQEND
  5
11C
330
11B
100
AcDbEntity
  8
承台
  0
CIRCLE
  5
121
330
17
100
AcDbEntity
  8
桩基
100
AcDbCircle
 10
570992.4225325915
 20
785640.0667688175
 30
0.0
 40
0.75
  0
TEXT
  5
122
330
17
100
AcDbEntity
  8
桩基
100
AcDbText
 10
570992.4225325915
 20
785640.0667688175
 30
0.0
 40
0.1
  1
(R2-3, pk= 301.364, E=570992.423,N785640.067)
 72
1
 11
570992.4225325915
 21
785640.0667688175
 31
0.0
100
AcDbText
 73
2
  0
CIRCLE
  5
123
330
17
100
AcDbEntity
  8
桩基
100
AcDbCircle
 10
570995.8125329895
 20
785643.0261432956
 30
0.0
 40
0.75
  0
TEXT
  5
124
330
17
100
AcDbEntity
  8
桩基
100
AcDbText
 10
570995.8125329895
 20
785643.0261432956
 30
0.0
 40
0.1
  1
(R2-3, pk= 301.364, E=570995.813,N785643.026)
 72
1
 11
570995.8125329895
 21
785643.0261432956
 31
0.0
100
AcDbText
 73
2
  0
CIRCLE
  5
125
330
17
100
AcDbEntity
  8
桩基
100
AcDbCircle
 10
570989.4631581134
 20
785643.4567692155
 30
0.0
 40
0.75
  0
TEXT
  5
126
330
17
100
AcDbEntity
  8
桩基
100
AcDbText
 10
570989.4631581134
 20
785643.4567692155
 30
0.0
 40
0.1
  1
(R2-3, pk= 301.364, E=570989.463,N785643.457)
 72
1
 11
570989.4631581134
 21
785643.4567692155
 31
0.0
100
AcDbText
 73
2
  0
CIRCLE
  5
127
330
17
100
AcDbEntity
  8
桩基
100
AcDbCircle
 10
570992.8531585115
 20
785646.4161436936
 30
0.0
 40
0.75
  0
TEXT
  5
128
330
17
100
AcDbEntity
  8
桩基
100
AcDbText
 10
570992.8531585115
 20
785646.4161436936
 30
0.0
 40
0.1
  1
(R2-3, pk= 301.364, E=570992.853,N785646.416)
 72
1
 11
570992.8531585115
 21
785646.4161436936
 31
0.0
100
AcDbText
 73
2
  0
POLYLINE
  5
129
330
17
100
AcDbEntity
  8
承台
100
AcDb2dPolyline
 66
1
 10
0.0
 20
0.0
 30
0.0
 70
1
  0
VERTEX
  5
12B
330
17
100
AcDbEntity
  8
承台
100
AcDbVertex
100
AcDb2dVertex
 10
570992.3029142804
 20
785638.3030535742
 30
0.0
 70
0
  0
VERTEX
  5
12C
330
17
100
AcDbEntity
  8
承台
100
AcDbVertex
100
AcDb2dVertex
 10
570997.5762482329
 20
785642.9065249845
 30
0.0
 70
0
  0
VERTEX
  5
12D
330
17
100
AcDbEntity
  8
承台
100
AcDbVertex
100
AcDb2dVertex
 10
570992.9727768225
 20
785648.1798589369
 30
0.0
 70
0
  0
VERTEX
  5
12E
330
17
100
AcDbEntity
  8
承台
100
AcDbVertex
100
AcDb2dVertex
 10
570987.6994428701
 20
785643.5763875266
 30
0.0
 70
0
  0
SEQEND
  5
12A
330
129
100
AcDbEntity
  8
承台
  0
CIRCLE
  5
12F
330
17
100
AcDbEntity
  8
桩基
100
AcDbCircle
 10
571035.0194538337
 20
785663.7311742724
 30
0.0
 40
0.75
  0
TEXT
  5
130
330
17
100
AcDbEntity
  8
桩基
100
AcDbText
 10
571035.0194538337
 20
785663.7311742724
 30
0.0
 40
0.1
  1
(R2-4, pk= 352.562, E=571035.019,N785663.731)
 72
1
 11
571035.0194538337
 21
785663.7311742724
 31
0.0
100
AcDbText
 73
2
  0
CIRCLE
  5
131
330
17
100
AcDbEntity
  8
桩基
100
AcDbCircle
 10
571039.3926902412
 20
785664.7917417266
 30
0.0
 40
0.75
  0
TEXT
  5
132
330
17
100
AcDbEntity
  8
桩基
100
AcDbText
 10
571039.3926902412
 20
785664.7917417266
 30
0.0
 40
0.1
  1
(R2-4, pk= 352.562, E=571039.393,N785664.792)
 72
1
 11
571039.3926902412
 21
785664.7917417266
 31
0.0
100
AcDbText
 73
2
  0
CIRCLE
  5
133
330
17
100
AcDbEntity
  8
桩基
100
AcDbCircle
 10
571033.9588863795
 20
785668.1044106799
 30
0.0
 40
0.75
  0
TEXT
  5
134
330
17
100
AcDbEntity
  8
桩基
100
AcDbText
 10
571033.9588863795
 20
785668.1044106799
 30
0.0
 40
0.1
  1
(R2-4, pk= 352.562, E=571033.959,N785668.104)
 72
1
 11
571033.9588863795
 21
785668.1044106799
 31
0.0
100
AcDbText
 73
2
  0
CIRCLE
  5
135
330
17
100
AcDbEntity
  8
桩基
100
AcDbCircle
 10
571038.332122787
 20
785669.1649781341
 30
0.0
 40
0.75
  0
TEXT
  5
136
330
17
100
AcDbEntity
  8
桩基
100
AcDbText
 10
571038.332122787
 20
785669.1649781341
 30
0.0
 40
0.1
  1
(R2-4, pk= 352.562, E=571038.332,N785669.165)
 72
1
 11
571038.332122787
 21
785669.1649781341
 31
0.0
100
AcDbText
 73
2
  0
POLYLINE
  5
137
330
17
100
AcDbEntity
  8
承台
100
AcDb2dPolyline
 66
1
 10
0.0
 20
0.0
 30
0.0
 70
1
  0
VERTEX
  5
139
330
17
100
AcDbEntity
  8
承台
100
AcDbVertex
100
AcDb2dVertex
 10
571034.0992680134
 20
785662.2217843108
 30
0.0
 70
0
  0
VERTEX
  5
13A
330
17
100
AcDbEntity
  8
承台
100
AcDbVertex
100
AcDb2dVertex
 10
571040.9020802028
 20
785663.8715559063
 30
0.0
 70
0
  0
VERTEX
  5
13B
330
17
100
AcDbEntity
  8
承台
100
AcDbVertex
100
AcDb2dVertex
 10
571039.2523086073
 20
785670.6743680957
 30
0.0
 70
0
  0
VERTEX
  5
13C
330
17
100
AcDbEntity
  8
承台
100
AcDbVertex
100
AcDb2dVertex
 10
571032.4494964179
 20
785669.0245965002
 30
0.0
 70
0
  0
SEQEND
  5
138
330
137
100
AcDbEntity
  8
承台
  0
CIRCLE
  5
13D
330
17
100
AcDbEntity
  8
桩基
100
AcDbCircle
 10
571076.2449420897
 20
785666.5356103925
 30
0.0
 40
0.75
  0
TEXT
  5
13E
330
17
100
AcDbEntity
  8
桩基
100
AcDbText
 10
571076.2449420897
 20
785666.5356103925
 30
0.0
 40
0.1
  1
(R2-5, pk= 395.562, E=571076.245,N785666.536)
 72
1
 11
571076.2449420897
 21
785666.5356103925
 31
0.0
100
AcDbText
 73
2
  0
CIRCLE
  5
13F
330
17
100
AcDbEntity
  8
桩基
100
AcDbCircle
 10
571080.7164262788
 20
785666.0298148345
 30
0.0
 40
0.75
  0
TEXT
  5
140
330
17
100
AcDbEntity
  8
桩基
100
AcDbText
 10
571080.7164262788
 20
785666.0298148345
 30
0.0
 40
0.1
  1
(R2-5, pk= 395.562, E=571080.716,N785666.030)
 72
1
 11
571080.7164262788
 21
785666.0298148345
 31
0.0
100
AcDbText
 73
2
  0
CIRCLE
  5
141
330
17
100
AcDbEntity
  8
桩基
100
AcDbCircle
 10
571076.7507376476
 20
785671.0070945816
 30
0.0
 40
0.75
  0
TEXT
  5
142
330
17
100
AcDbEntity
  8
桩基
100
AcDbText
 10
571076.7507376476
 20
785671.0070945816
 30
0.0
 40
0.1
  1
(R2-5, pk= 395.562, E=571076.751,N785671.007)
 72
1
 11
571076.7507376476
 21
785671.0070945816
 31
0.0
100
AcDbText
 73
2
  0
CIRCLE
  5
143
330
17
100
AcDbEntity
  8
桩基
100
AcDbCircle
 10
571081.2222218368
 20
785670.5012990236
 30
0.0
 40
0.75
  0
TEXT
  5
144
330
17
100
AcDbEntity
  8
桩基
100
AcDbText
 10
571081.2222218368
 20
785670.5012990236
 30
0.0
 40
0.1
  1
(R2-5, pk= 395.562, E=571081.222,N785670.501)
 72
1
 11
571081.2222218368
 21
785670.5012990236
 31
0.0
100
AcDbText
 73
2
  0
POLYLINE
  5
145
330
17
100
AcDbEntity
  8
承台
100
AcDb2dPolyline
 66
1
 10
0.0
 20
0.0
 30
0.0
 70
1
  0
VERTEX
  5
147
330
17
100
AcDbEntity
  8
承台
100
AcDbVertex
100
AcDb2dVertex
 10
571074.8623643821
 20
785665.4340302171
 30
0.0
 70
0
  0
VERTEX
  5
148
330
17
100
AcDbEntity
  8
承台
100
AcDbVertex
100
AcDb2dVertex
 10
571081.8180064542
 20
785664.647237127
 30
0.0
 70
0
  0
VERTEX
  5
149
330
17
100
AcDbEntity
  8
承台
100
AcDbVertex
100
AcDb2dVertex
 10
571082.6047995443
 20
785671.602879199
 30
0.0
 70
0
  0
VERTEX
  5
14A
330
17
100
AcDbEntity
  8
承台
100
AcDbVertex
100
AcDb2dVertex
 10
571075.6491574723
 20
785672.3896722891
 30
0.0
 70
0
  0
SEQEND
  5
146
330
145
100
AcDbEntity
  8
承台
  0
CIRCLE
  5
14B
330
17
100
AcDbEntity
  8
桩基
100
AcDbCircle
 10
571115.3019076033
 20
785659.9639012741
 30
0.0
 40
0.75
  0
TEXT
  5
14C
330
17
100
AcDbEntity
  8
桩基
100
AcDbText
 10
571115.3019076033
 20
785659.9639012741
 30
0.0
 40
0.1
  1
(R2-6, pk= 435.562, E=571115.302,N785659.964)
 72
1
 11
571115.3019076033
 21
785659.9639012741
 31
0.0
100
AcDbText
 73
2
  0
CIRCLE
  5
14D
330
17
100
AcDbEntity
  8
桩基
100
AcDbCircle
 10
571119.704392511
 20
785659.0321681381
 30
0.0
 40
0.75
  0
TEXT
  5
14E
330
17
100
AcDbEntity
  8
桩基
100
AcDbText
 10
571119.704392511
 20
785659.0321681381
 30
0.0
 40
0.1
  1
(R2-6, pk= 435.562, E=571119.704,N785659.032)
 72
1
 11
571119.704392511
 21
785659.0321681381
 31
0.0
100
AcDbText
 73
2
  0
CIRCLE
  5
14F
330
17
100
AcDbEntity
  8
桩基
100
AcDbCircle
 10
571116.2336407393
 20
785664.3663861819
 30
0.0
 40
0.75
  0
TEXT
  5
150
330
17
100
AcDbEntity
  8
桩基
100
AcDbText
 10
571116.2336407393
 20
785664.3663861819
 30
0.0
 40
0.1
  1
(R2-6, pk= 435.562, E=571116.234,N785664.366)
 72
1
 11
571116.2336407393
 21
785664.3663861819
 31
0.0
100
AcDbText
 73
2
  0
CIRCLE
  5
151
330
17
100
AcDbEntity
  8
桩基
100
AcDbCircle
 10
571120.6361256471
 20
785663.4346530458
 30
0.0
 40
0.75
  0
TEXT
  5
152
330
17
100
AcDbEntity
  8
桩基
100
AcDbText
 10
571120.6361256471
 20
785663.4346530458
 30
0.0
 40
0.1
  1
(R2-6, pk= 435.562, E=571120.636,N785663.435)
 72
1
 11
571120.6361256471
 21
785663.4346530458
 31
0.0
100
AcDbText
 73
2
  0
POLYLINE
  5
153
330
17
100
AcDbEntity
  8
承台
100
AcDb2dPolyline
 66
1
 10
0.0
 20
0.0
 30
0.0
 70
1
  0
VERTEX
  5
155
330
17
100
AcDbEntity
  8
承台
100
AcDbVertex
100
AcDb2dVertex
 10
571113.8201803688
 20
785658.9998035597
 30
0.0
 70
0
  0
VERTEX
  5
156
330
17
100
AcDbEntity
  8
承台
100
AcDbVertex
100
AcDb2dVertex
 10
571120.6684902254
 20
785657.5504409036
 30
0.0
 70
0
  0
VERTEX
  5
157
330
17
100
AcDbEntity
  8
承台
100
AcDbVertex
100
AcDb2dVertex
 10
571122.1178528816
 20
785664.3987507602
 30
0.0
 70
0
  0
VERTEX
  5
158
330
17
100
AcDbEntity
  8
承台
100
AcDbVertex
100
AcDb2dVertex
 10
571115.269543025
 20
785665.8481134163
 30
0.0
 70
0
  0
SEQEND
  5
154
330
153
100
AcDbEntity
  8
承台
  0
CIRCLE
  5
159
330
17
100
AcDbEntity
  8
桩基
100
AcDbCircle
 10
571144.6519097453
 20
785653.7526157534
 30
0.0
 40
0.75
  0
TEXT
  5
15A
330
17
100
AcDbEntity
  8
桩基
100
AcDbText
 10
571144.6519097453
 20
785653.7526157534
 30
0.0
 40
0.1
  1
(R2-7, pk= 465.562, E=571144.652,N785653.753)
 72
1
 11
571144.6519097453
 21
785653.7526157534
 31
0.0
100
AcDbText
 73
2
  0
CIRCLE
  5
15B
330
17
100
AcDbEntity
  8
桩基
100
AcDbCircle
 10
571149.0544058818
 20
785652.8209356751
 30
0.0
 40
0.75
  0
TEXT
  5
15C
330
17
100
AcDbEntity
  8
桩基
100
AcDbText
 10
571149.0544058818
 20
785652.8209356751
 30
0.0
 40
0.1
  1
(R2-7, pk= 465.562, E=571149.054,N785652.821)
 72
1
 11
571149.0544058818
 21
785652.8209356751
 31
0.0
100
AcDbText
 73
2
  0
CIRCLE
  5
15D
330
17
100
AcDbEntity
  8
桩基
100
AcDbCircle
 10
571145.5835898237
 20
785658.1551118899
 30
0.0
 40
0.75
  0
TEXT
  5
15E
330
17
100
AcDbEntity
  8
桩基
100
AcDbText
 10
571145.5835898237
 20
785658.1551118899
 30
0.0
 40
0.1
  1
(R2-7, pk= 465.562, E=571145.584,N785658.155)
 72
1
 11
571145.5835898237
 21
785658.1551118899
 31
0.0
100
AcDbText
 73
2
  0
CIRCLE
  5
15F
330
17
100
AcDbEntity
  8
桩基
100
AcDbCircle
 10
571149.9860859602
 20
785657.2234318116
 30
0.0
 40
0.75
  0
TEXT
  5
160
330
17
100
AcDbEntity
  8
桩基
100
AcDbText
 10
571149.9860859602
 20
785657.2234318116
 30
0.0
 40
0.1
  1
(R2-7, pk= 465.562, E=571149.986,N785657.223)
 72
1
 11
571149.9860859602
 21
785657.2234318116
 31
0.0
100
AcDbText
 73
2
  0
POLYLINE
  5
161
330
17
100
AcDbEntity
  8
承台
100
AcDb2dPolyline
 66
1
 10
0.0
 20
0.0
 30
0.0
 70
1
  0
VERTEX
  5
163
330
17
100
AcDbEntity
  8
承台
100
AcDbVertex
100
AcDb2dVertex
 10
571143.17019413
 20
785652.7885001817
 30
0.0
 70
0
  0
VERTEX
  5
164
330
17
100
AcDbEntity
  8
承台
100
AcDbVertex
100
AcDb2dVertex
 10
571150.0185214535
 20
785651.3392200598
 30
0.0
 70
0
  0
VERTEX
  5
165
330
17
100
AcDbEntity
  8
承台
100
AcDbVertex
100
AcDb2dVertex
 10
571151.4678015754
 20
785658.1875473832
 30
0.0
 70
0
  0
VERTEX
  5
166
330
17
100
AcDbEntity
  8
承台
100
AcDbVertex
100
AcDb2dVertex
 10
571144.619474252
 20
785659.6368275052
 30
0.0
 70
0
  0
SEQEND
  5
162
330
161
100
AcDbEntity
  8
承台
  0
CIRCLE
  5
167
330
17
100
AcDbEntity
  8
桩基
100
AcDbCircle
 10
571188.6768555
 20
785644.4357412077
 30
0.0
 40
0.75
  0
TEXT
  5
168
330
17
100
AcDbEntity
  8
桩基
100
AcDbText
 10
571188.6768555
 20
785644.4357412077
 30
0.0
 40
0.1
  1
(R2-8, pk= 510.562, E=571188.677,N785644.436)
 72
1
 11
571188.6768555
 21
785644.4357412077
 31
0.0
100
AcDbText
 73
2
  0
CIRCLE
  5
169
330
17
100
AcDbEntity
  8
桩基
100
AcDbCircle
 10
571193.0793516365
 20
785643.5040611293
 30
0.0
 40
0.75
  0
TEXT
  5
16A
330
17
100
AcDbEntity
  8
桩基
100
AcDbText
 10
571193.0793516365
 20
785643.5040611293
 30
0.0
 40
0.1
  1
(R2-8, pk= 510.562, E=571193.079,N785643.504)
 72
1
 11
571193.0793516365
 21
785643.5040611293
 31
0.0
100
AcDbText
 73
2
  0
CIRCLE
  5
16B
330
17
100
AcDbEntity
  8
桩基
100
AcDbCircle
 10
571189.6085355784
 20
785648.8382373442
 30
0.0
 40
0.75
  0
TEXT
  5
16C
330
17
100
AcDbEntity
  8
桩基
100
AcDbText
 10
571189.6085355784
 20
785648.8382373442
 30
0.0
 40
0.1
  1
(R2-8, pk= 510.562, E=571189.609,N785648.838)
 72
1
 11
571189.6085355784
 21
785648.8382373442
 31
0.0
100
AcDbText
 73
2
  0
CIRCLE
  5
16D
330
17
100
AcDbEntity
  8
桩基
100
AcDbCircle
 10
571194.0110317149
 20
785647.9065572658
 30
0.0
 40
0.75
  0
TEXT
  5
16E
330
17
100
AcDbEntity
  8
桩基
100
AcDbText
 10
571194.0110317149
 20
785647.9065572658
 30
0.0
 40
0.1
  1
(R2-8, pk= 510.562, E=571194.011,N785647.907)
 72
1
 11
571194.0110317149
 21
785647.9065572658
 31
0.0
100
AcDbText
 73
2
  0
POLYLINE
  5
16F
330
17
100
AcDbEntity
  8
承台
100
AcDb2dPolyline
 66
1
 10
0.0
 20
0.0
 30
0.0
 70
1
  0
VERTEX
  5
171
330
17
100
AcDbEntity
  8
承台
100
AcDbVertex
100
AcDb2dVertex
 10
571187.1951398847
 20
785643.471625636
 30
0.0
 70
0
  0
VERTEX
  5
172
330
17
100
AcDbEntity
  8
承台
100
AcDbVertex
100
AcDb2dVertex
 10
571194.0434672082
 20
785642.022345514
 30
0.0
 70
0
  0
VERTEX
  5
173
330
17
100
AcDbEntity
  8
承台
100
AcDbVertex
100
AcDb2dVertex
 10
571195.4927473301
 20
785648.8706728375
 30
0.0
 70
0
  0
VERTEX
  5
174
330
17
100
AcDbEntity
  8
承台
100
AcDbVertex
100
AcDb2dVertex
 10
571188.6444200067
 20
785650.3199529594
 30
0.0
 70
0
  0
SEQEND
  5
170
330
16F
100
AcDbEntity
  8
承台
  0
CIRCLE
  5
175
330
17
100
AcDbEntity
  8
桩基
100
AcDbCircle
 10
571097.1269674777
 20
785785.0602985283
 30
0.0
 40
0.75
  0
TEXT
  5
176
330
17
100
AcDbEntity
  8
桩基
100
AcDbText
 10
571097.1269674777
 20
785785.0602985283
 30
0.0
 40
0.1
  1
(R3-1, pk= 184.505, E=571097.127,N785785.060)
 72
1
 11
571097.1269674777
 21
785785.0602985283
 31
0.0
100
AcDbText
 73
2
  0
CIRCLE
  5
177
330
17
100
AcDbEntity
  8
桩基
100
AcDbCircle
 10
571094.3232567495
 20
785781.540468113
 30
0.0
 40
0.75
  0
TEXT
  5
178
330
17
100
AcDbEntity
  8
桩基
100
AcDbText
 10
571094.3232567495
 20
785781.540468113
 30
0.0
 40
0.1
  1
(R3-1, pk= 184.505, E=571094.323,N785781.540)
 72
1
 11
571094.3232567495
 21
785781.540468113
 31
0.0
100
AcDbText
 73
2
  0
CIRCLE
  5
179
330
17
100
AcDbEntity
  8
桩基
100
AcDbCircle
 10
571100.646797893
 20
785782.2565878001
 30
0.0
 40
0.75
  0
TEXT
  5
17A
330
17
100
AcDbEntity
  8
桩基
100
AcDbText
 10
571100.646797893
 20
785782.2565878001
 30
0.0
 40
0.1
  1
(R3-1, pk= 184.505, E=571100.647,N785782.257)
 72
1
 11
571100.646797893
 21
785782.2565878001
 31
0.0
100
AcDbText
 73
2
  0
CIRCLE
  5
17B
330
17
100
AcDbEntity
  8
桩基
100
AcDbCircle
 10
571097.8430871648
 20
785778.7367573848
 30
0.0
 40
0.75
  0
TEXT
  5
17C
330
17
100
AcDbEntity
  8
桩基
100
AcDbText
 10
571097.8430871648
 20
785778.7367573848
 30
0.0
 40
0.1
  1
(R3-1, pk= 184.505, E=571097.843,N785778.737)
 72
1
 11
571097.8430871648
 21
785778.7367573848
 31
0.0
100
AcDbText
 73
2
  0
POLYLINE
  5
17D
330
17
100
AcDbEntity
  8
承台
100
AcDb2dPolyline
 66
1
 10
0.0
 20
0.0
 30
0.0
 70
1
  0
VERTEX
  5
17F
330
17
100
AcDbEntity
  8
承台
100
AcDbVertex
100
AcDb2dVertex
 10
571096.9280453424
 20
785786.8168377348
 30
0.0
 70
0
  0
VERTEX
  5
180
330
17
100
AcDbEntity
  8
承台
100
AcDbVertex
100
AcDb2dVertex
 10
571092.566717543
 20
785781.3415459777
 30
0.0
 70
0
  0
VERTEX
  5
181
330
17
100
AcDbEntity
  8
承台
100
AcDbVertex
100
AcDb2dVertex
 10
571098.0420093001
 20
785776.9802181784
 30
0.0
 70
0
  0
VERTEX
  5
182
330
17
100
AcDbEntity
  8
承台
100
AcDbVertex
100
AcDb2dVertex
 10
571102.4033370995
 20
785782.4555099354
 30
0.0
 70
0
  0
SEQEND
  5
17E
330
17D
100
AcDbEntity
  8
承台
  0
CIRCLE
  5
183
330
17
100
AcDbEntity
  8
桩基
100
AcDbCircle
 10
571077.5973372016
 20
785755.9803347338
 30
0.0
 40
0.75
  0
TEXT
  5
184
330
17
100
AcDbEntity
  8
桩基
100
AcDbText
 10
571077.5973372016
 20
785755.9803347338
 30
0.0
 40
0.1
  1
(R3-2, pk= 219.505, E=571077.597,N785755.980)
 72
1
 11
571077.5973372016
 21
785755.9803347338
 31
0.0
100
AcDbText
 73
2
  0
CIRCLE
  5
185
330
17
100
AcDbEntity
  8
桩基
100
AcDbCircle
 10
571075.5911649544
 20
785751.9522740447
 30
0.0
 40
0.75
  0
TEXT
  5
186
330
17
100
AcDbEntity
  8
桩基
100
AcDbText
 10
571075.5911649544
 20
785751.9522740447
 30
0.0
 40
0.1
  1
(R3-2, pk= 219.505, E=571075.591,N785751.952)
 72
1
 11
571075.5911649544
 21
785751.9522740447
 31
0.0
100
AcDbText
 73
2
  0
CIRCLE
  5
187
330
17
100
AcDbEntity
  8
桩基
100
AcDbCircle
 10
571081.6253978907
 20
785753.9741624866
 30
0.0
 40
0.75
  0
TEXT
  5
188
330
17
100
AcDbEntity
  8
桩基
100
AcDbText
 10
571081.6253978907
 20
785753.9741624866
 30
0.0
 40
0.1
  1
(R3-2, pk= 219.505, E=571081.625,N785753.974)
 72
1
 11
571081.6253978907
 21
785753.9741624866
 31
0.0
100
AcDbText
 73
2
  0
CIRCLE
  5
189
330
17
100
AcDbEntity
  8
桩基
100
AcDbCircle
 10
571079.6192256435
 20
785749.9461017975
 30
0.0
 40
0.75
  0
TEXT
  5
18A
330
17
100
AcDbEntity
  8
桩基
100
AcDbText
 10
571079.6192256435
 20
785749.9461017975
 30
0.0
 40
0.1
  1
(R3-2, pk= 219.505, E=571079.619,N785749.946)
 72
1
 11
571079.6192256435
 21
785749.9461017975
 31
0.0
100
AcDbText
 73
2
  0
POLYLINE
  5
18B
330
17
100
AcDbEntity
  8
承台
100
AcDb2dPolyline
 66
1
 10
0.0
 20
0.0
 30
0.0
 70
1
  0
VERTEX
  5
18D
330
17
100
AcDbEntity
  8
承台
100
AcDbVertex
100
AcDb2dVertex
 10
571077.0357015233
 20
785757.6565105495
 30
0.0
 70
0
  0
VERTEX
  5
18E
330
17
100
AcDbEntity
  8
承台
100
AcDbVertex
100
AcDb2dVertex
 10
571073.9149891387
 20
785751.3906383665
 30
0.0
 70
0
  0
VERTEX
  5
18F
330
17
100
AcDbEntity
  8
承台
100
AcDbVertex
100
AcDb2dVertex
 10
571080.1808613217
 20
785748.2699259819
 30
0.0
 70
0
  0
VERTEX
  5
190
330
17
100
AcDbEntity
  8
承台
100
AcDbVertex
100
AcDb2dVertex
 10
571083.3015737063
 20
785754.5357981649
 30
0.0
 70
0
  0
SEQEND
  5
18C
330
18B
100
AcDbEntity
  8
承台
  0
CIRCLE
  5
191
330
17
100
AcDbEntity
  8
桩基
100
AcDbCircle
 10
571069.3245084096
 20
785707.5408803646
 30
0.0
 40
0.75
  0
TEXT
  5
192
330
17
100
AcDbEntity
  8
桩基
100
AcDbText
 10
571069.3245084096
 20
785707.5408803646
 30
0.0
 40
0.1
  1
(R3-3, pk= 269.505, E=571069.325,N785707.541)
 72
1
 11
571069.3245084096
 21
785707.5408803646
 31
0.0
100
AcDbText
 73
2
  0
CIRCLE
  5
193
330
17
100
AcDbEntity
  8
桩基
100
AcDbCircle
 10
571070.2520176017
 20
785703.1375036265
 30
0.0
 40
0.75
  0
TEXT
  5
194
330
17
100
AcDbEntity
  8
桩基
100
AcDbText
 10
571070.2520176017
 20
785703.1375036265
 30
0.0
 40
0.1
  1
(R3-3, pk= 269.505, E=571070.252,N785703.138)
 72
1
 11
571070.2520176017
 21
785703.1375036265
 31
0.0
100
AcDbText
 73
2
  0
CIRCLE
  5
195
330
17
100
AcDbEntity
  8
桩基
100
AcDbCircle
 10
571073.7278851477
 20
785708.4683895567
 30
0.0
 40
0.75
  0
TEXT
  5
196
330
17
100
AcDbEntity
  8
桩基
100
AcDbText
 10
571073.7278851477
 20
785708.4683895567
 30
0.0
 40
0.1
  1
(R3-3, pk= 269.505, E=571073.728,N785708.468)
 72
1
 11
571073.7278851477
 21
785708.4683895567
 31
0.0
100
AcDbText
 73
2
  0
CIRCLE
  5
197
330
17
100
AcDbEntity
  8
桩基
100
AcDbCircle
 10
571074.6553943398
 20
785704.0650128187
 30
0.0
 40
0.75
  0
TEXT
  5
198
330
17
100
AcDbEntity
  8
桩基
100
AcDbText
 10
571074.6553943398
 20
785704.0650128187
 30
0.0
 40
0.1
  1
(R3-3, pk= 269.505, E=571074.655,N785704.065)
 72
1
 11
571074.6553943398
 21
785704.0650128187
 31
0.0
100
AcDbText
 73
2
  0
POLYLINE
  5
199
330
17
100
AcDbEntity
  8
承台
100
AcDb2dPolyline
 66
1
 10
0.0
 20
0.0
 30
0.0
 70
1
  0
VERTEX
  5
19B
330
17
100
AcDbEntity
  8
承台
100
AcDbVertex
100
AcDb2dVertex
 10
571067.8437067623
 20
785708.5063991274
 30
0.0
 70
0
  0
VERTEX
  5
19C
330
17
100
AcDbEntity
  8
承台
100
AcDbVertex
100
AcDb2dVertex
 10
571069.2864988389
 20
785701.6567019792
 30
0.0
 70
0
  0
VERTEX
  5
19D
330
17
100
AcDbEntity
  8
承台
100
AcDbVertex
100
AcDb2dVertex
 10
571076.1361959871
 20
785703.0994940558
 30
0.0
 70
0
  0
VERTEX
  5
19E
330
17
100
AcDbEntity
  8
承台
100
AcDbVertex
100
AcDb2dVertex
 10
571074.6934039105
 20
785709.949191204
 30
0.0
 70
0
  0
SEQEND
  5
19A
330
199
100
AcDbEntity
  8
承台
  0
CIRCLE
  5
19F
330
17
100
AcDbEntity
  8
桩基
100
AcDbCircle
 10
571082.3998382062
 20
785677.554678849
 30
0.0
 40
0.75
  0
TEXT
  5
1A0
330
17
100
AcDbEntity
  8
桩基
100
AcDbText
 10
571082.3998382062
 20
785677.554678849
 30
0.0
 40
0.1
  1
(R3-4, pk= 302.505, E=571082.400,N785677.555)
 72
1
 11
571082.3998382062
 21
785677.554678849
 31
0.0
100
AcDbText
 73
2
  0
CIRCLE
  5
1A1
330
17
100
AcDbEntity
  8
桩基
100
AcDbCircle
 10
571085.2260807514
 20
785674.0529145685
 30
0.0
 40
0.75
  0
TEXT
  5
1A2
330
17
100
AcDbEntity
  8
桩基
100
AcDbText
 10
571085.2260807514
 20
785674.0529145685
 30
0.0
 40
0.1
  1
(R3-4, pk= 302.505, E=571085.226,N785674.053)
 72
1
 11
571085.2260807514
 21
785674.0529145685
 31
0.0
100
AcDbText
 73
2
  0
CIRCLE
  5
1A3
330
17
100
AcDbEntity
  8
桩基
100
AcDbCircle
 10
571085.9016024867
 20
785680.3809213941
 30
0.0
 40
0.75
  0
TEXT
  5
1A4
330
17
100
AcDbEntity
  8
桩基
100
AcDbText
 10
571085.9016024867
 20
785680.3809213941
 30
0.0
 40
0.1
  1
(R3-4, pk= 302.505, E=571085.902,N785680.381)
 72
1
 11
571085.9016024867
 21
785680.3809213941
 31
0.0
100
AcDbText
 73
2
  0
CIRCLE
  5
1A5
330
17
100
AcDbEntity
  8
桩基
100
AcDbCircle
 10
571088.7278450319
 20
785676.8791571136
 30
0.0
 40
0.75
  0
TEXT
  5
1A6
330
17
100
AcDbEntity
  8
桩基
100
AcDbText
 10
571088.7278450319
 20
785676.8791571136
 30
0.0
 40
0.1
  1
(R3-4, pk= 302.505, E=571088.728,N785676.879)
 72
1
 11
571088.7278450319
 21
785676.8791571136
 31
0.0
100
AcDbText
 73
2
  0
POLYLINE
  5
1A7
330
17
100
AcDbEntity
  8
承台
100
AcDb2dPolyline
 66
1
 10
0.0
 20
0.0
 30
0.0
 70
1
  0
VERTEX
  5
1A9
330
17
100
AcDbEntity
  8
承台
100
AcDbVertex
100
AcDb2dVertex
 10
571080.6420585325
 20
785677.7423237754
 30
0.0
 70
0
  0
VERTEX
  5
1AA
330
17
100
AcDbEntity
  8
承台
100
AcDbVertex
100
AcDb2dVertex
 10
571085.0384358249
 20
785672.2951348947
 30
0.0
 70
0
  0
VERTEX
  5
1AB
330
17
100
AcDbEntity
  8
承台
100
AcDbVertex
100
AcDb2dVertex
 10
571090.4856247057
 20
785676.6915121871
 30
0.0
 70
0
  0
VERTEX
  5
1AC
330
17
100
AcDbEntity
  8
承台
100
AcDbVertex
100
AcDb2dVertex
 10
571086.0892474132
 20
785682.1387010679
 30
0.0
 70
0
  0
SEQEND
  5
1A8
330
1A7
100
AcDbEntity
  8
承台
  0
CIRCLE
  5
1AD
330
17
100
AcDbEntity
  8
桩基
100
AcDbCircle
 10
571104.913454689
 20
785657.9924735584
 30
0.0
 40
0.75
  0
TEXT
  5
1AE
330
17
100
AcDbEntity
  8
桩基
100
AcDbText
 10
571104.913454689
 20
785657.9924735584
 30
0.0
 40
0.1
  1
(R3-5, pk= 332.505, E=571104.913,N785657.992)
 72
1
 11
571104.913454689
 21
785657.9924735584
 31
0.0
100
AcDbText
 73
2
  0
CIRCLE
  5
1AF
330
17
100
AcDbEntity
  8
桩基
100
AcDbCircle
 10
571108.9056986946
 20
785655.9159409198
 30
0.0
 40
0.75
  0
TEXT
  5
1B0
330
17
100
AcDbEntity
  8
桩基
100
AcDbText
 10
571108.9056986946
 20
785655.9159409198
 30
0.0
 40
0.1
  1
(R3-5, pk= 332.505, E=571108.906,N785655.916)
 72
1
 11
571108.9056986946
 21
785655.9159409198
 31
0.0
100
AcDbText
 73
2
  0
CIRCLE
  5
1B1
330
17
100
AcDbEntity
  8
桩基
100
AcDbCircle
 10
571106.9899873276
 20
785661.9847175641
 30
0.0
 40
0.75
  0
TEXT
  5
1B2
330
17
100
AcDbEntity
  8
桩基
100
AcDbText
 10
571106.9899873276
 20
785661.9847175641
 30
0.0
 40
0.1
  1
(R3-5, pk= 332.505, E=571106.990,N785661.985)
 72
1
 11
571106.9899873276
 21
785661.9847175641
 31
0.0
100
AcDbText
 73
2
  0
CIRCLE
  5
1B3
330
17
100
AcDbEntity
  8
桩基
100
AcDbCircle
 10
571110.9822313333
 20
785659.9081849254
 30
0.0
 40
0.75
  0
TEXT
  5
1B4
330
17
100
AcDbEntity
  8
桩基
100
AcDbText
 10
571110.9822313333
 20
785659.9081849254
 30
0.0
 40
0.1
  1
(R3-5, pk= 332.505, E=571110.982,N785659.908)
 72
1
 11
571110.9822313333
 21
785659.9081849254
 31
0.0
100
AcDbText
 73
2
  0
POLYLINE
  5
1B5
330
17
100
AcDbEntity
  8
承台
100
AcDb2dPolyline
 66
1
 10
0.0
 20
0.0
 30
0.0
 70
1
  0
VERTEX
  5
1B7
330
17
100
AcDbEntity
  8
承台
100
AcDbVertex
100
AcDb2dVertex
 10
571103.2276833989
 20
785657.460331512
 30
0.0
 70
0
  0
VERTEX
  5
1B8
330
17
100
AcDbEntity
  8
承台
100
AcDbVertex
100
AcDb2dVertex
 10
571109.437840741
 20
785654.2301696297
 30
0.0
 70
0
  0
VERTEX
  5
1B9
330
17
100
AcDbEntity
  8
承台
100
AcDbVertex
100
AcDb2dVertex
 10
571112.6680026234
 20
785660.4403269718
 30
0.0
 70
0
  0
VERTEX
  5
1BA
330
17
100
AcDbEntity
  8
承台
100
AcDbVertex
100
AcDb2dVertex
 10
571106.4578452812
 20
785663.6704888542
 30
0.0
 70
0
  0
SEQEND
  5
1B6
330
1B5
100
AcDbEntity
  8
承台
  0
CIRCLE
  5
1BB
330
17
100
AcDbEntity
  8
桩基
100
AcDbCircle
 10
571106.0186366754
 20
785785.4487406462
 30
0.0
 40
0.75
  0
TEXT
  5
1BC
330
17
100
AcDbEntity
  8
桩基
100
AcDbText
 10
571106.0186366754
 20
785785.4487406462
 30
0.0
 40
0.1
  1
(R4-1, pk= 177.388, E=571106.019,N785785.449)
 72
1
 11
571106.0186366754
 21
785785.4487406462
 31
0.0
100
AcDbText
 73
2
  0
CIRCLE
  5
1BD
330
17
100
AcDbEntity
  8
桩基
100
AcDbCircle
 10
571104.4999141543
 20
785781.2127659174
 30
0.0
 40
0.75
  0
TEXT
  5
1BE
330
17
100
AcDbEntity
  8
桩基
100
AcDbText
 10
571104.4999141543
 20
785781.2127659174
 30
0.0
 40
0.1
  1
(R4-1, pk= 177.388, E=571104.500,N785781.213)
 72
1
 11
571104.4999141543
 21
785781.2127659174
 31
0.0
100
AcDbText
 73
2
  0
CIRCLE
  5
1BF
330
17
100
AcDbEntity
  8
桩基
100
AcDbCircle
 10
571110.2546114043
 20
785783.9300181251
 30
0.0
 40
0.75
  0
TEXT
  5
1C0
330
17
100
AcDbEntity
  8
桩基
100
AcDbText
 10
571110.2546114043
 20
785783.9300181251
 30
0.0
 40
0.1
  1
(R4-1, pk= 177.388, E=571110.255,N785783.930)
 72
1
 11
571110.2546114043
 21
785783.9300181251
 31
0.0
100
AcDbText
 73
2
  0
CIRCLE
  5
1C1
330
17
100
AcDbEntity
  8
桩基
100
AcDbCircle
 10
571108.7358888831
 20
785779.6940433963
 30
0.0
 40
0.75
  0
TEXT
  5
1C2
330
17
100
AcDbEntity
  8
桩基
100
AcDbText
 10
571108.7358888831
 20
785779.6940433963
 30
0.0
 40
0.1
  1
(R4-1, pk= 177.388, E=571108.736,N785779.694)
 72
1
 11
571108.7358888831
 21
785779.6940433963
 31
0.0
100
AcDbText
 73
2
  0
POLYLINE
  5
1C3
330
17
100
AcDbEntity
  8
承台
100
AcDb2dPolyline
 66
1
 10
0.0
 20
0.0
 30
0.0
 70
1
  0
VERTEX
  5
1C5
330
17
100
AcDbEntity
  8
承台
100
AcDbVertex
100
AcDb2dVertex
 10
571105.2638443955
 20
785787.0472676601
 30
0.0
 70
0
  0
VERTEX
  5
1C6
330
17
100
AcDbEntity
  8
承台
100
AcDbVertex
100
AcDb2dVertex
 10
571102.9013871404
 20
785780.4579736375
 30
0.0
 70
0
  0
VERTEX
  5
1C7
330
17
100
AcDbEntity
  8
承台
100
AcDbVertex
100
AcDb2dVertex
 10
571109.490681163
 20
785778.0955163824
 30
0.0
 70
0
  0
VERTEX
  5
1C8
330
17
100
AcDbEntity
  8
承台
100
AcDbVertex
100
AcDb2dVertex
 10
571111.8531384182
 20
785784.684810405
 30
0.0
 70
0
  0
SEQEND
  5
1C4
330
1C3
100
AcDbEntity
  8
承台
  0
CIRCLE
  5
1C9
330
17
100
AcDbEntity
  8
桩基
100
AcDbCircle
 10
571090.0492501648
 20
785730.5901946704
 30
0.0
 40
0.75
  0
TEXT
  5
1CA
330
17
100
AcDbEntity
  8
桩基
100
AcDbText
 10
571090.0492501648
 20
785730.5901946704
 30
0.0
 40
0.1
  1
(R4-2, pk= 234.388, E=571090.049,N785730.590)
 72
1
 11
571090.0492501648
 21
785730.5901946704
 31
0.0
100
AcDbText
 73
2
  0
CIRCLE
  5
1CB
330
17
100
AcDbEntity
  8
桩基
100
AcDbCircle
 10
571090.7648655255
 20
785726.1474596282
 30
0.0
 40
0.75
  0
TEXT
  5
1CC
330
17
100
AcDbEntity
  8
桩基
100
AcDbText
 10
571090.7648655255
 20
785726.1474596282
 30
0.0
 40
0.1
  1
(R4-2, pk= 234.388, E=571090.765,N785726.147)
 72
1
 11
571090.7648655255
 21
785726.1474596282
 31
0.0
100
AcDbText
 73
2
  0
CIRCLE
  5
1CD
330
17
100
AcDbEntity
  8
桩基
100
AcDbCircle
 10
571094.491985207
 20
785731.3058100311
 30
0.0
 40
0.75
  0
TEXT
  5
1CE
330
17
100
AcDbEntity
  8
桩基
100
AcDbText
 10
571094.491985207
 20
785731.3058100311
 30
0.0
 40
0.1
  1
(R4-2, pk= 234.388, E=571094.492,N785731.306)
 72
1
 11
571094.491985207
 21
785731.3058100311
 31
0.0
100
AcDbText
 73
2
  0
CIRCLE
  5
1CF
330
17
100
AcDbEntity
  8
桩基
100
AcDbCircle
 10
571095.2076005677
 20
785726.8630749889
 30
0.0
 40
0.75
  0
TEXT
  5
1D0
330
17
100
AcDbEntity
  8
桩基
100
AcDbText
 10
571095.2076005677
 20
785726.8630749889
 30
0.0
 40
0.1
  1
(R4-2, pk= 234.388, E=571095.208,N785726.863)
 72
1
 11
571095.2076005677
 21
785726.8630749889
 31
0.0
100
AcDbText
 73
2
  0
POLYLINE
  5
1D1
330
17
100
AcDbEntity
  8
承台
100
AcDb2dPolyline
 66
1
 10
0.0
 20
0.0
 30
0.0
 70
1
  0
VERTEX
  5
1D3
330
17
100
AcDbEntity
  8
承台
100
AcDbVertex
100
AcDb2dVertex
 10
571088.6163750528
 20
785731.625505693
 30
0.0
 70
0
  0
VERTEX
  5
1D4
330
17
100
AcDbEntity
  8
承台
100
AcDbVertex
100
AcDb2dVertex
 10
571089.7295545029
 20
785724.7145845162
 30
0.0
 70
0
  0
VERTEX
  5
1D5
330
17
100
AcDbEntity
  8
承台
100
AcDbVertex
100
AcDb2dVertex
 10
571096.6404756797
 20
785725.8277639663
 30
0.0
 70
0
  0
VERTEX
  5
1D6
330
17
100
AcDbEntity
  8
承台
100
AcDbVertex
100
AcDb2dVertex
 10
571095.5272962296
 20
785732.7386851431
 30
0.0
 70
0
  0
SEQEND
  5
1D2
330
1D1
100
AcDbEntity
  8
承台
  0
CIRCLE
  5
1D7
330
17
100
AcDbEntity
  8
桩基
100
AcDbCircle
 10
571112.0137681968
 20
785690.0894418322
 30
0.0
 40
0.75
  0
TEXT
  5
1D8
330
17
100
AcDbEntity
  8
桩基
100
AcDbText
 10
571112.0137681968
 20
785690.0894418322
 30
0.0
 40
0.1
  1
(R4-3, pk= 279.388, E=571112.014,N785690.089)
 72
1
 11
571112.0137681968
 21
785690.0894418322
 31
0.0
100
AcDbText
 73
2
  0
CIRCLE
  5
1D9
330
17
100
AcDbEntity
  8
桩基
100
AcDbCircle
 10
571115.5486620695
 20
785687.3047469999
 30
0.0
 40
0.75
  0
TEXT
  5
1DA
330
17
100
AcDbEntity
  8
桩基
100
AcDbText
 10
571115.5486620695
 20
785687.3047469999
 30
0.0
 40
0.1
  1
(R4-3, pk= 279.388, E=571115.549,N785687.305)
 72
1
 11
571115.5486620695
 21
785687.3047469999
 31
0.0
100
AcDbText
 73
2
  0
CIRCLE
  5
1DB
330
17
100
AcDbEntity
  8
桩基
100
AcDbCircle
 10
571114.7984630291
 20
785693.6243357048
 30
0.0
 40
0.75
  0
TEXT
  5
1DC
330
17
100
AcDbEntity
  8
桩基
100
AcDbText
 10
571114.7984630291
 20
785693.6243357048
 30
0.0
 40
0.1
  1
(R4-3, pk= 279.388, E=571114.798,N785693.624)
 72
1
 11
571114.7984630291
 21
785693.6243357048
 31
0.0
100
AcDbText
 73
2
  0
CIRCLE
  5
1DD
330
17
100
AcDbEntity
  8
桩基
100
AcDbCircle
 10
571118.3333569018
 20
785690.8396408726
 30
0.0
 40
0.75
  0
TEXT
  5
1DE
330
17
100
AcDbEntity
  8
桩基
100
AcDbText
 10
571118.3333569018
 20
785690.8396408726
 30
0.0
 40
0.1
  1
(R4-3, pk= 279.388, E=571118.333,N785690.840)
 72
1
 11
571118.3333569018
 21
785690.8396408726
 31
0.0
100
AcDbText
 73
2
  0
POLYLINE
  5
1DF
330
17
100
AcDbEntity
  8
承台
100
AcDb2dPolyline
 66
1
 10
0.0
 20
0.0
 30
0.0
 70
1
  0
VERTEX
  5
1E1
330
17
100
AcDbEntity
  8
承台
100
AcDbVertex
100
AcDb2dVertex
 10
571110.2583268898
 20
785689.8810532098
 30
0.0
 70
0
  0
VERTEX
  5
1E2
330
17
100
AcDbEntity
  8
承台
100
AcDbVertex
100
AcDb2dVertex
 10
571115.7570506919
 20
785685.5493056929
 30
0.0
 70
0
  0
VERTEX
  5
1E3
330
17
100
AcDbEntity
  8
承台
100
AcDbVertex
100
AcDb2dVertex
 10
571120.0887982087
 20
785691.0480294949
 30
0.0
 70
0
  0
VERTEX
  5
1E4
330
17
100
AcDbEntity
  8
承台
100
AcDbVertex
100
AcDb2dVertex
 10
571114.5900744067
 20
785695.3797770118
 30
0.0
 70
0
  0
SEQEND
  5
1E0
330
1DF
100
AcDbEntity
  8
承台
  0
CIRCLE
  5
1E5
330
17
100
AcDbEntity
  8
桩基
100
AcDbCircle
 10
571148.300587586
 20
785671.1631150567
 30
0.0
 40
0.75
  0
TEXT
  5
1E6
330
17
100
AcDbEntity
  8
桩基
100
AcDbText
 10
571148.300587586
 20
785671.1631150567
 30
0.0
 40
0.1
  1
(R4-4, pk= 319.388, E=571148.301,N785671.163)
 72
1
 11
571148.300587586
 21
785671.1631150567
 31
0.0
100
AcDbText
 73
2
  0
CIRCLE
  5
1E7
330
17
100
AcDbEntity
  8
桩基
100
AcDbCircle
 10
571152.6037790478
 20
785669.8468539722
 30
0.0
 40
0.75
  0
TEXT
  5
1E8
330
17
100
AcDbEntity
  8
桩基
100
AcDbText
 10
571152.6037790478
 20
785669.8468539722
 30
0.0
 40
0.1
  1
(R4-4, pk= 319.388, E=571152.604,N785669.847)
 72
1
 11
571152.6037790478
 21
785669.8468539722
 31
0.0
100
AcDbText
 73
2
  0
CIRCLE
  5
1E9
330
17
100
AcDbEntity
  8
桩基
100
AcDbCircle
 10
571149.6168486705
 20
785675.4663065185
 30
0.0
 40
0.75
  0
TEXT
  5
1EA
330
17
100
AcDbEntity
  8
桩基
100
AcDbText
 10
571149.6168486705
 20
785675.4663065185
 30
0.0
 40
0.1
  1
(R4-4, pk= 319.388, E=571149.617,N785675.466)
 72
1
 11
571149.6168486705
 21
785675.4663065185
 31
0.0
100
AcDbText
 73
2
  0
CIRCLE
  5
1EB
330
17
100
AcDbEntity
  8
桩基
100
AcDbCircle
 10
571153.9200401324
 20
785674.150045434
 30
0.0
 40
0.75
  0
TEXT
  5
1EC
330
17
100
AcDbEntity
  8
桩基
100
AcDbText
 10
571153.9200401324
 20
785674.150045434
 30
0.0
 40
0.1
  1
(R4-4, pk= 319.388, E=571153.920,N785674.150)
 72
1
 11
571153.9200401324
 21
785674.150045434
 31
0.0
100
AcDbText
 73
2
  0
POLYLINE
  5
1ED
330
17
100
AcDbEntity
  8
承台
100
AcDb2dPolyline
 66
1
 10
0.0
 20
0.0
 30
0.0
 70
1
  0
VERTEX
  5
1EF
330
17
100
AcDbEntity
  8
承台
100
AcDbVertex
100
AcDb2dVertex
 10
571146.7396285454
 20
785670.3334121741
 30
0.0
 70
0
  0
VERTEX
  5
1F0
330
17
100
AcDbEntity
  8
承台
100
AcDbVertex
100
AcDb2dVertex
 10
571153.4334819304
 20
785668.2858949315
 30
0.0
 70
0
  0
VERTEX
  5
1F1
330
17
100
AcDbEntity
  8
承台
100
AcDbVertex
100
AcDb2dVertex
 10
571155.480999173
 20
785674.9797483166
 30
0.0
 70
0
  0
VERTEX
  5
1F2
330
17
100
AcDbEntity
  8
承台
100
AcDbVertex
100
AcDb2dVertex
 10
571148.787145788
 20
785677.0272655592
 30
0.0
 70
0
  0
SEQEND
  5
1EE
330
1ED
100
AcDbEntity
  8
承台
  0
CIRCLE
  5
1F3
330
17
100
AcDbEntity
  8
桩基
100
AcDbCircle
 10
571191.6280918248
 20
785658.6906054076
 30
0.0
 40
0.75
  0
TEXT
  5
1F4
330
17
100
AcDbEntity
  8
桩基
100
AcDbText
 10
571191.6280918248
 20
785658.6906054076
 30
0.0
 40
0.1
  1
(R4-5, pk= 364.388, E=571191.628,N785658.691)
 72
1
 11
571191.6280918248
 21
785658.6906054076
 31
0.0
100
AcDbText
 73
2
  0
CIRCLE
  5
1F5
330
17
100
AcDbEntity
  8
桩基
100
AcDbCircle
 10
571195.9624594088
 20
785657.4809535369
 30
0.0
 40
0.75
  0
TEXT
  5
1F6
330
17
100
AcDbEntity
  8
桩基
100
AcDbText
 10
571195.9624594088
 20
785657.4809535369
 30
0.0
 40
0.1
  1
(R4-5, pk= 364.388, E=571195.962,N785657.481)
 72
1
 11
571195.9624594088
 21
785657.4809535369
 31
0.0
100
AcDbText
 73
2
  0
CIRCLE
  5
1F7
330
17
100
AcDbEntity
  8
桩基
100
AcDbCircle
 10
571192.8377436955
 20
785663.0249729916
 30
0.0
 40
0.75
  0
TEXT
  5
1F8
330
17
100
AcDbEntity
  8
桩基
100
AcDbText
 10
571192.8377436955
 20
785663.0249729916
 30
0.0
 40
0.1
  1
(R4-5, pk= 364.388, E=571192.838,N785663.025)
 72
1
 11
571192.8377436955
 21
785663.0249729916
 31
0.0
100
AcDbText
 73
2
  0
CIRCLE
  5
1F9
330
17
100
AcDbEntity
  8
桩基
100
AcDbCircle
 10
571197.1721112794
 20
785661.8153211209
 30
0.0
 40
0.75
  0
TEXT
  5
1FA
330
17
100
AcDbEntity
  8
桩基
100
AcDbText
 10
571197.1721112794
 20
785661.8153211209
 30
0.0
 40
0.1
  1
(R4-5, pk= 364.388, E=571197.172,N785661.815)
 72
1
 11
571197.1721112794
 21
785661.8153211209
 31
0.0
100
AcDbText
 73
2
  0
POLYLINE
  5
1FB
330
17
100
AcDbEntity
  8
承台
100
AcDb2dPolyline
 66
1
 10
0.0
 20
0.0
 30
0.0
 70
1
  0
VERTEX
  5
1FD
330
17
100
AcDbEntity
  8
承台
100
AcDbVertex
100
AcDb2dVertex
 10
571190.0880864208
 20
785657.8226288205
 30
0.0
 70
0
  0
VERTEX
  5
1FE
330
17
100
AcDbEntity
  8
承台
100
AcDbVertex
100
AcDb2dVertex
 10
571196.8304359958
 20
785655.9409481329
 30
0.0
 70
0
  0
VERTEX
  5
1FF
330
17
100
AcDbEntity
  8
承台
100
AcDbVertex
100
AcDb2dVertex
 10
571198.7121166835
 20
785662.6832977079
 30
0.0
 70
0
  0
VERTEX
  5
200
330
17
100
AcDbEntity
  8
承台
100
AcDbVertex
100
AcDb2dVertex
 10
571191.9697671084
 20
785664.5649783956
 30
0.0
 70
0
  0
SEQEND
  5
1FC
330
1FB
100
AcDbEntity
  8
承台
  0
CIRCLE
  5
201
330
17
100
AcDbEntity
  8
桩基
100
AcDbCircle
 10
571234.9718196313
 20
785646.5942729122
 30
0.0
 40
0.75
  0
TEXT
  5
202
330
17
100
AcDbEntity
  8
桩基
100
AcDbText
 10
571234.9718196313
 20
785646.5942729122
 30
0.0
 40
0.1
  1
(R4-6, pk= 409.388, E=571234.972,N785646.594)
 72
1
 11
571234.9718196313
 21
785646.5942729122
 31
0.0
100
AcDbText
 73
2
  0
CIRCLE
  5
203
330
17
100
AcDbEntity
  8
桩基
100
AcDbCircle
 10
571239.3061872153
 20
785645.3846210416
 30
0.0
 40
0.75
  0
TEXT
  5
204
330
17
100
AcDbEntity
  8
桩基
100
AcDbText
 10
571239.3061872153
 20
785645.3846210416
 30
0.0
 40
0.1
  1
(R4-6, pk= 409.388, E=571239.306,N785645.385)
 72
1
 11
571239.3061872153
 21
785645.3846210416
 31
0.0
100
AcDbText
 73
2
  0
CIRCLE
  5
205
330
17
100
AcDbEntity
  8
桩基
100
AcDbCircle
 10
571236.181471502
 20
785650.9286404962
 30
0.0
 40
0.75
  0
TEXT
  5
206
330
17
100
AcDbEntity
  8
桩基
100
AcDbText
 10
571236.181471502
 20
785650.9286404962
 30
0.0
 40
0.1
  1
(R4-6, pk= 409.388, E=571236.181,N785650.929)
 72
1
 11
571236.181471502
 21
785650.9286404962
 31
0.0
100
AcDbText
 73
2
  0
CIRCLE
  5
207
330
17
100
AcDbEntity
  8
桩基
100
AcDbCircle
 10
571240.5158390859
 20
785649.7189886256
 30
0.0
 40
0.75
  0
TEXT
  5
208
330
17
100
AcDbEntity
  8
桩基
100
AcDbText
 10
571240.5158390859
 20
785649.7189886256
 30
0.0
 40
0.1
  1
(R4-6, pk= 409.388, E=571240.516,N785649.719)
 72
1
 11
571240.5158390859
 21
785649.7189886256
 31
0.0
100
AcDbText
 73
2
  0
POLYLINE
  5
209
330
17
100
AcDbEntity
  8
承台
100
AcDb2dPolyline
 66
1
 10
0.0
 20
0.0
 30
0.0
 70
1
  0
VERTEX
  5
20B
330
17
100
AcDbEntity
  8
承台
100
AcDbVertex
100
AcDb2dVertex
 10
571233.4318142273
 20
785645.7262963252
 30
0.0
 70
0
  0
VERTEX
  5
20C
330
17
100
AcDbEntity
  8
承台
100
AcDbVertex
100
AcDb2dVertex
 10
571240.1741638023
 20
785643.8446156376
 30
0.0
 70
0
  0
VERTEX
  5
20D
330
17
100
AcDbEntity
  8
承台
100
AcDbVertex
100
AcDb2dVertex
 10
571242.05584449
 20
785650.5869652126
 30
0.0
 70
0
  0
VERTEX
  5
20E
330
17
100
AcDbEntity
  8
承台
100
AcDbVertex
100
AcDb2dVertex
 10
571235.3134949149
 20
785652.4686459003
 30
0.0
 70
0
  0
SEQEND
  5
20A
330
209
100
AcDbEntity
  8
承台
  0
ENDSEC
  0
SECTION
  2
OBJECTS
  0
DICTIONARY
  5
A
330
0
100
AcDbDictionary
280
0
281
1
  3
ACAD_COLOR
350
B
  3
ACAD_GROUP
350
C
  3
ACAD_LAYOUT
350
D
  3
ACAD_MATERIAL
350
E
  3
ACAD_MLEADERSTYLE
350
F
  3
ACAD_MLINESTYLE
350
10
  3
ACAD_PLOTSETTINGS
350
11
  3
ACAD_PLOTSTYLENAME
350
12
  3
ACAD_SCALELIST
350
14
  3
ACAD_TABLESTYLE
350
15
  3
ACAD_VISUALSTYLE
350
16
  3
EZDXF_META
350
2D
  0
DICTIONARY
  5
B
330
A
100
AcDbDictionary
280
0
281
1
  0
DICTIONARY
  5
C
330
A
100
AcDbDictionary
280
0
281
1
  0
DICTIONARY
  5
D
330
A
100
AcDbDictionary
280
0
281
1
  3
Model
350
1A
  3
Layout1
350
1E
  0
DICTIONARY
  5
E
330
A
100
AcDbDictionary
280
0
281
1
  3
ByBlock
350
1F
  3
ByLayer
350
20
  3
Global
350
21
  0
DICTIONARY
  5
F
330
A
100
AcDbDictionary
280
0
281
1
  3
Standard
350
2C
  0
DICTIONARY
  5
10
330
A
100
AcDbDictionary
280
0
281
1
  3
Standard
350
22
  0
DICTIONARY
  5
11
330
A
100
AcDbDictionary
280
0
281
1
  0
ACDBDICTIONARYWDFLT
  5
12
330
A
100
AcDbDictionary
280
0
281
1
  3
Normal
350
13
100
AcDbDictionaryWithDefault
340
13
  0
ACDBPLACEHOLDER
  5
13
330
12
  0
DICTIONARY
  5
14
330
A
100
AcDbDictionary
280
0
281
1
  0
DICTIONARY
  5
15
330
A
100
AcDbDictionary
280
0
281
1
  0
DICTIONARY
  5
16
330
A
100
AcDbDictionary
280
0
281
1
  0
LAYOUT
  5
1A
330
D
100
AcDbPlotSettings
  1

  2
Adobe PDF
  4
A3
  6

 40
7.5
 41
20.0
 42
7.5
 43
20.0
 44
420.0
 45
297.0
 46
0.0
 47
0.0
 48
0.0
 49
0.0
140
0.0
141
0.0
142
1.0
143
1.0
 70
1024
 72
1
 73
0
 74
5
  7

 75
16
 76
0
 77
2
 78
300
147
1.0
148
0.0
149
0.0
100
AcDbLayout
  1
Model
 70
1
 71
0
 10
0.0
 20
0.0
 11
420.0
 21
297.0
 12
0.0
 22
0.0
 32
0.0
 14
1e+20
 24
1e+20
 34
1e+20
 15
-1e+20
 25
-1e+20
 35
-1e+20
146
0.0
 13
0.0
 23
0.0
 33
0.0
 16
1.0
 26
0.0
 36
0.0
 17
0.0
 27
1.0
 37
0.0
 76
1
330
17
  0
LAYOUT
  5
1E
330
D
100
AcDbPlotSettings
  1

  2
Adobe PDF
  4
A3
  6

 40
7.5
 41
20.0
 42
7.5
 43
20.0
 44
420.0
 45
297.0
 46
0.0
 47
0.0
 48
0.0
 49
0.0
140
0.0
141
0.0
142
1.0
143
1.0
 70
0
 72
1
 73
0
 74
5
  7

 75
16
 76
0
 77
2
 78
300
147
1.0
148
0.0
149
0.0
100
AcDbLayout
  1
Layout1
 70
1
 71
1
 10
0.0
 20
0.0
 11
420.0
 21
297.0
 12
0.0
 22
0.0
 32
0.0
 14
1e+20
 24
1e+20
 34
1e+20
 15
-1e+20
 25
-1e+20
 35
-1e+20
146
0.0
 13
0.0
 23
0.0
 33
0.0
 16
1.0
 26
0.0
 36
0.0
 17
0.0
 27
1.0
 37
0.0
 76
1
330
1B
  0
MATERIAL
  5
1F
102
{ACAD_REACTORS
330
E
102
}
330
E
100
AcDbMaterial
  1
ByBlock
  2

 70
0
 40
1.0
 71
1
 41
1.0
 91
-1023410177
 42
1.0
 72
1
  3

 73
1
 74
1
 75
1
 44
0.5
 73
0
 45
1.0
 46
1.0
 77
1
  4

 78
1
 79
1
170
1
 48
1.0
171
1
  6

172
1
173
1
174
1
140
1.0
141
1.0
175
1
  7

176
1
177
1
178
1
143
1.0
179
1
  8

270
1
271
1
272
1
145
1.0
146
1.0
273
1
  9

274
1
275
1
276
1
 42
1.0
 72
1
  3

 73
1
 74
1
 75
1
 94
63
  0
MATERIAL
  5
20
102
{ACAD_REACTORS
330
E
102
}
330
E
100
AcDbMaterial
  1
ByLayer
  2

 70
0
 40
1.0
 71
1
 41
1.0
 91
-1023410177
 42
1.0
 72
1
  3

 73
1
 74
1
 75
1
 44
0.5
 73
0
 45
1.0
 46
1.0
 77
1
  4

 78
1
 79
1
170
1
 48
1.0
171
1
  6

172
1
173
1
174
1
140
1.0
141
1.0
175
1
  7

176
1
177
1
178
1
143
1.0
179
1
  8

270
1
271
1
272
1
145
1.0
146
1.0
273
1
  9

274
1
275
1
276
1
 42
1.0
 72
1
  3

 73
1
 74
1
 75
1
 94
63
  0
MATERIAL
  5
21
102
{ACAD_REACTORS
330
E
102
}
330
E
100
AcDbMaterial
  1
Global
  2

 70
0
 40
1.0
 71
1
 41
1.0
 91
-1023410177
 42
1.0
 72
1
  3

 73
1
 74
1
 75
1
 44
0.5
 73
0
 45
1.0
 46
1.0
 77
1
  4

 78
1
 79
1
170
1
 48
1.0
171
1
  6

172
1
173
1
174
1
140
1.0
141
1.0
175
1
  7

176
1
177
1
178
1
143
1.0
179
1
  8

270
1
271
1
272
1
145
1.0
146
1.0
273
1
  9

274
1
275
1
276
1
 42
1.0
 72
1
  3

 73
1
 74
1
 75
1
 94
63
  0
MLINESTYLE
  5
22
102
{ACAD_REACTORS
330
10
102
}
330
10
100
AcDbMlineStyle
  2
Standard
 70
0
  3

 62
256
 51
90.0
 52
90.0
 71
2
 49
0.5
 62
256
  6
BYLAYER
 49
-0.5
 62
256
  6
BYLAYER
  0
MLEADERSTYLE
  5
2C
102
{ACAD_REACTORS
330
F
102
}
330
F
100
AcDbMLeaderStyle
179
2
170
2
171
1
172
0
 90
2
 40
0.0
 41
0.0
173
1
 91
-1056964608
 92
-2
290
1
 42
2.0
291
1
 43
8.0
  3
Standard
 44
4.0
300

342
29
174
1
175
1
176
0
178
1
 93
-1056964608
 45
4.0
292
0
297
0
 46
4.0
 94
-1056964608
 47
1.0
 49
1.0
140
1.0
294
1
141
0.0
177
0
142
1.0
295
0
296
0
143
3.75
271
0
272
9
273
9
  0
DICTIONARY
  5
2D
330
A
100
AcDbDictionary
281
1
  3
CREATED_BY_EZDXF
350
2E
  3
WRITTEN_BY_EZDXF
350
211
  0
DICTIONARYVAR
  5
2E
330
2D
100
DictionaryVariables
280
0
  1
1.1.0 @ 2023-12-05T01:57:46.956426+00:00
  0
DICTIONARYVAR
  5
211
330
2D
100
DictionaryVariables
280
0
  1
1.1.0 @ 2023-12-05T01:57:46.972427+00:00
  0
ENDSEC
  0
EOF
