  0
SECTION
  2
HEADER
  9
$ACADVER
  1
AC1027
  9
$ACADMAINTVER
 70
105
  9
$DWGCODEPAGE
  3
ANSI_1252
  9
$LASTSAVEDBY
  1
ezdxf
  9
$REQUIREDVERSIONS
160
0
  9
$INSBASE
 10
0.0
 20
0.0
 30
0.0
  9
$EXTMIN
 10
1e+20
 20
1e+20
 30
1e+20
  9
$EXTMAX
 10
-1e+20
 20
-1e+20
 30
-1e+20
  9
$LIMMIN
 10
0.0
 20
0.0
  9
$LIMMAX
 10
420.0
 20
297.0
  9
$ORTHOMODE
 70
0
  9
$REGENMODE
 70
1
  9
$FILLMODE
 70
1
  9
$QTEXTMODE
 70
0
  9
$MIRRTEXT
 70
1
  9
$LTSCALE
 40
1.0
  9
$ATTMODE
 70
1
  9
$TEXTSIZE
 40
2.5
  9
$TRACEWID
 40
1.0
  9
$TEXTSTYLE
  7
Standard
  9
$CLAYER
  8
0
  9
$CELTYPE
  6
ByLayer
  9
$CECOLOR
 62
256
  9
$CELTSCALE
 40
1.0
  9
$DISPSILH
 70
0
  9
$DIMSCALE
 40
1.0
  9
$DIMASZ
 40
2.5
  9
$DIMEXO
 40
0.625
  9
$DIMDLI
 40
3.75
  9
$DIMRND
 40
0.0
  9
$DIMDLE
 40
0.0
  9
$DIMEXE
 40
1.25
  9
$DIMTP
 40
0.0
  9
$DIMTM
 40
0.0
  9
$DIMTXT
 40
2.5
  9
$DIMCEN
 40
2.5
  9
$DIMTSZ
 40
0.0
  9
$DIMTOL
 70
0
  9
$DIMLIM
 70
0
  9
$DIMTIH
 70
0
  9
$DIMTOH
 70
0
  9
$DIMSE1
 70
0
  9
$DIMSE2
 70
0
  9
$DIMTAD
 70
1
  9
$DIMZIN
 70
8
  9
$DIMBLK
  1

  9
$DIMASO
 70
1
  9
$DIMSHO
 70
1
  9
$DIMPOST
  1

  9
$DIMAPOST
  1

  9
$DIMALT
 70
0
  9
$DIMALTD
 70
3
  9
$DIMALTF
 40
0.03937007874
  9
$DIMLFAC
 40
1.0
  9
$DIMTOFL
 70
1
  9
$DIMTVP
 40
0.0
  9
$DIMTIX
 70
0
  9
$DIMSOXD
 70
0
  9
$DIMSAH
 70
0
  9
$DIMBLK1
  1

  9
$DIMBLK2
  1

  9
$DIMSTYLE
  2
ISO-25
  9
$DIMCLRD
 70
0
  9
$DIMCLRE
 70
0
  9
$DIMCLRT
 70
0
  9
$DIMTFAC
 40
1.0
  9
$DIMGAP
 40
0.625
  9
$DIMJUST
 70
0
  9
$DIMSD1
 70
0
  9
$DIMSD2
 70
0
  9
$DIMTOLJ
 70
0
  9
$DIMTZIN
 70
8
  9
$DIMALTZ
 70
0
  9
$DIMALTTZ
 70
0
  9
$DIMUPT
 70
0
  9
$DIMDEC
 70
2
  9
$DIMTDEC
 70
2
  9
$DIMALTU
 70
2
  9
$DIMALTTD
 70
3
  9
$DIMTXSTY
  7
Standard
  9
$DIMAUNIT
 70
0
  9
$DIMADEC
 70
0
  9
$DIMALTRND
 40
0.0
  9
$DIMAZIN
 70
0
  9
$DIMDSEP
 70
44
  9
$DIMATFIT
 70
3
  9
$DIMFRAC
 70
0
  9
$DIMLDRBLK
  1

  9
$DIMLUNIT
 70
2
  9
$DIMLWD
 70
-2
  9
$DIMLWE
 70
-2
  9
$DIMTMOVE
 70
0
  9
$DIMFXL
 40
1.0
  9
$DIMFXLON
 70
0
  9
$DIMJOGANG
 40
0.785398163397
  9
$DIMTFILL
 70
0
  9
$DIMTFILLCLR
 70
0
  9
$DIMARCSYM
 70
0
  9
$DIMLTYPE
  6

  9
$DIMLTEX1
  6

  9
$DIMLTEX2
  6

  9
$DIMTXTDIRECTION
 70
0
  9
$LUNITS
 70
2
  9
$LUPREC
 70
4
  9
$SKETCHINC
 40
1.0
  9
$FILLETRAD
 40
10.0
  9
$AUNITS
 70
0
  9
$AUPREC
 70
2
  9
$MENU
  1
.
  9
$ELEVATION
 40
0.0
  9
$PELEVATION
 40
0.0
  9
$THICKNESS
 40
0.0
  9
$LIMCHECK
 70
0
  9
$CHAMFERA
 40
0.0
  9
$CHAMFERB
 40
0.0
  9
$CHAMFERC
 40
0.0
  9
$CHAMFERD
 40
0.0
  9
$SKPOLY
 70
0
  9
$TDCREATE
 40
2460522.448715278
  9
$TDUCREATE
 40
2458532.153996898
  9
$TDUPDATE
 40
2460522.448715278
  9
$TDUUPDATE
 40
2458532.1544311
  9
$TDINDWG
 40
0.0
  9
$TDUSRTIMER
 40
0.0
  9
$USRTIMER
 70
1
  9
$ANGBASE
 50
0.0
  9
$ANGDIR
 70
0
  9
$PDMODE
 70
0
  9
$PDSIZE
 40
0.0
  9
$PLINEWID
 40
0.0
  9
$SPLFRAME
 70
0
  9
$SPLINETYPE
 70
6
  9
$SPLINESEGS
 70
8
  9
$HANDSEED
  5
2AE
  9
$SURFTAB1
 70
6
  9
$SURFTAB2
 70
6
  9
$SURFTYPE
 70
6
  9
$SURFU
 70
6
  9
$SURFV
 70
6
  9
$UCSBASE
  2

  9
$UCSNAME
  2

  9
$UCSORG
 10
0.0
 20
0.0
 30
0.0
  9
$UCSXDIR
 10
1.0
 20
0.0
 30
0.0
  9
$UCSYDIR
 10
0.0
 20
1.0
 30
0.0
  9
$UCSORTHOREF
  2

  9
$UCSORTHOVIEW
 70
0
  9
$UCSORGTOP
 10
0.0
 20
0.0
 30
0.0
  9
$UCSORGBOTTOM
 10
0.0
 20
0.0
 30
0.0
  9
$UCSORGLEFT
 10
0.0
 20
0.0
 30
0.0
  9
$UCSORGRIGHT
 10
0.0
 20
0.0
 30
0.0
  9
$UCSORGFRONT
 10
0.0
 20
0.0
 30
0.0
  9
$UCSORGBACK
 10
0.0
 20
0.0
 30
0.0
  9
$PUCSBASE
  2

  9
$PUCSNAME
  2

  9
$PUCSORG
 10
0.0
 20
0.0
 30
0.0
  9
$PUCSXDIR
 10
1.0
 20
0.0
 30
0.0
  9
$PUCSYDIR
 10
0.0
 20
1.0
 30
0.0
  9
$PUCSORTHOREF
  2

  9
$PUCSORTHOVIEW
 70
0
  9
$PUCSORGTOP
 10
0.0
 20
0.0
 30
0.0
  9
$PUCSORGBOTTOM
 10
0.0
 20
0.0
 30
0.0
  9
$PUCSORGLEFT
 10
0.0
 20
0.0
 30
0.0
  9
$PUCSORGRIGHT
 10
0.0
 20
0.0
 30
0.0
  9
$PUCSORGFRONT
 10
0.0
 20
0.0
 30
0.0
  9
$PUCSORGBACK
 10
0.0
 20
0.0
 30
0.0
  9
$USERI1
 70
0
  9
$USERI2
 70
0
  9
$USERI3
 70
0
  9
$USERI4
 70
0
  9
$USERI5
 70
0
  9
$USERR1
 40
0.0
  9
$USERR2
 40
0.0
  9
$USERR3
 40
0.0
  9
$USERR4
 40
0.0
  9
$USERR5
 40
0.0
  9
$WORLDVIEW
 70
1
  9
$SHADEDGE
 70
3
  9
$SHADEDIF
 70
70
  9
$TILEMODE
 70
1
  9
$MAXACTVP
 70
64
  9
$PINSBASE
 10
0.0
 20
0.0
 30
0.0
  9
$PLIMCHECK
 70
0
  9
$PEXTMIN
 10
1e+20
 20
1e+20
 30
1e+20
  9
$PEXTMAX
 10
-1e+20
 20
-1e+20
 30
-1e+20
  9
$PLIMMIN
 10
0.0
 20
0.0
  9
$PLIMMAX
 10
420.0
 20
297.0
  9
$UNITMODE
 70
0
  9
$VISRETAIN
 70
1
  9
$PLINEGEN
 70
0
  9
$PSLTSCALE
 70
1
  9
$TREEDEPTH
 70
3020
  9
$CMLSTYLE
  2
Standard
  9
$CMLJUST
 70
0
  9
$CMLSCALE
 40
20.0
  9
$PROXYGRAPHICS
 70
1
  9
$MEASUREMENT
 70
1
  9
$CELWEIGHT
370
-1
  9
$ENDCAPS
280
0
  9
$JOINSTYLE
280
0
  9
$LWDISPLAY
290
0
  9
$INSUNITS
 70
6
  9
$HYPERLINKBASE
  1

  9
$STYLESHEET
  1

  9
$XEDIT
290
1
  9
$CEPSNTYPE
380
0
  9
$PSTYLEMODE
290
1
  9
$FINGERPRINTGUID
  2
{EE555EA2-C20E-4793-B133-AABCCF4E6082}
  9
$VERSIONGUID
  2
{2BEC886D-068B-4E1C-9694-654ADBC14289}
  9
$EXTNAMES
290
1
  9
$PSVPSCALE
 40
0.0
  9
$OLESTARTUP
290
0
  9
$SORTENTS
280
127
  9
$INDEXCTL
280
0
  9
$HIDETEXT
280
1
  9
$XCLIPFRAME
280
0
  9
$HALOGAP
280
0
  9
$OBSCOLOR
 70
257
  9
$OBSLTYPE
280
0
  9
$INTERSECTIONDISPLAY
280
0
  9
$INTERSECTIONCOLOR
 70
257
  9
$DIMASSOC
280
2
  9
$PROJECTNAME
  1

  9
$CAMERADISPLAY
290
0
  9
$LENSLENGTH
 40
50.0
  9
$CAMERAHEIGHT
 40
0.0
  9
$STEPSPERSEC
 40
24.0
  9
$STEPSIZE
 40
100.0
  9
$3DDWFPREC
 40
2.0
  9
$PSOLWIDTH
 40
0.005
  9
$PSOLHEIGHT
 40
0.08
  9
$LOFTANG1
 40
1.570796326795
  9
$LOFTANG2
 40
1.570796326795
  9
$LOFTMAG1
 40
0.0
  9
$LOFTMAG2
 40
0.0
  9
$LOFTPARAM
 70
7
  9
$LOFTNORMALS
280
1
  9
$LATITUDE
 40
37.795
  9
$LONGITUDE
 40
-122.394
  9
$NORTHDIRECTION
 40
0.0
  9
$TIMEZONE
 70
-8000
  9
$LIGHTGLYPHDISPLAY
280
1
  9
$TILEMODELIGHTSYNCH
280
1
  9
$CMATERIAL
347
20
  9
$SOLIDHIST
280
0
  9
$SHOWHIST
280
1
  9
$DWFFRAME
280
2
  9
$DGNFRAME
280
2
  9
$REALWORLDSCALE
290
1
  9
$INTERFERECOLOR
 62
256
  9
$CSHADOW
280
0
  9
$SHADOWPLANELOCATION
 40
0.0
  0
ENDSEC
  0
SECTION
  2
CLASSES
  0
CLASS
  1
ACDBDICTIONARYWDFLT
  2
AcDbDictionaryWithDefault
  3
ObjectDBX Classes
 90
0
 91
0
280
0
281
0
  0
CLASS
  1
SUN
  2
AcDbSun
  3
SCENEOE
 90
1153
 91
0
280
0
281
0
  0
CLASS
  1
VISUALSTYLE
  2
AcDbVisualStyle
  3
ObjectDBX Classes
 90
4095
 91
0
280
0
281
0
  0
CLASS
  1
MATERIAL
  2
AcDbMaterial
  3
ObjectDBX Classes
 90
1153
 91
0
280
0
281
0
  0
CLASS
  1
SCALE
  2
AcDbScale
  3
ObjectDBX Classes
 90
1153
 91
0
280
0
281
0
  0
CLASS
  1
TABLESTYLE
  2
AcDbTableStyle
  3
ObjectDBX Classes
 90
4095
 91
0
280
0
281
0
  0
CLASS
  1
MLEADERSTYLE
  2
AcDbMLeaderStyle
  3
ACDB_MLEADERSTYLE_CLASS
 90
4095
 91
0
280
0
281
0
  0
CLASS
  1
DICTIONARYVAR
  2
AcDbDictionaryVar
  3
ObjectDBX Classes
 90
0
 91
0
280
0
281
0
  0
CLASS
  1
CELLSTYLEMAP
  2
AcDbCellStyleMap
  3
ObjectDBX Classes
 90
1152
 91
0
280
0
281
0
  0
CLASS
  1
MENTALRAYRENDERSETTINGS
  2
AcDbMentalRayRenderSettings
  3
SCENEOE
 90
1024
 91
0
280
0
281
0
  0
CLASS
  1
ACDBDETAILVIEWSTYLE
  2
AcDbDetailViewStyle
  3
ObjectDBX Classes
 90
1025
 91
0
280
0
281
0
  0
CLASS
  1
ACDBSECTIONVIEWSTYLE
  2
AcDbSectionViewStyle
  3
ObjectDBX Classes
 90
1025
 91
0
280
0
281
0
  0
CLASS
  1
RASTERVARIABLES
  2
AcDbRasterVariables
  3
ISM
 90
0
 91
0
280
0
281
0
  0
CLASS
  1
ACDBPLACEHOLDER
  2
AcDbPlaceHolder
  3
ObjectDBX Classes
 90
0
 91
0
280
0
281
0
  0
CLASS
  1
LAYOUT
  2
AcDbLayout
  3
ObjectDBX Classes
 90
0
 91
0
280
0
281
0
  0
ENDSEC
  0
SECTION
  2
TABLES
  0
TABLE
  2
VPORT
  5
8
330
0
100
AcDbSymbolTable
 70
1
  0
VPORT
  5
23
330
8
100
AcDbSymbolTableRecord
100
AcDbViewportTableRecord
  2
*Active
 70
0
 10
0.0
 20
0.0
 11
1.0
 21
1.0
 12
0.0
 22
0.0
 13
0.0
 23
0.0
 14
0.5
 24
0.5
 15
0.5
 25
0.5
 16
0.0
 26
0.0
 36
1.0
 17
0.0
 27
0.0
 37
0.0
 40
1000.0
 41
1.34
 42
50.0
 43
0.0
 44
0.0
 50
0.0
 51
0.0
 71
0
 72
1000
 73
1
 74
3
 75
0
 76
0
 77
0
 78
0
281
0
 65
0
146
0.0
  0
ENDTAB
  0
TABLE
  2
LTYPE
  5
2
330
0
100
AcDbSymbolTable
 70
3
  0
LTYPE
  5
24
330
2
100
AcDbSymbolTableRecord
100
AcDbLinetypeTableRecord
  2
ByBlock
 70
0
  3

 72
65
 73
0
 40
0.0
  0
LTYPE
  5
25
330
2
100
AcDbSymbolTableRecord
100
AcDbLinetypeTableRecord
  2
ByLayer
 70
0
  3

 72
65
 73
0
 40
0.0
  0
LTYPE
  5
26
330
2
100
AcDbSymbolTableRecord
100
AcDbLinetypeTableRecord
  2
Continuous
 70
0
  3

 72
65
 73
0
 40
0.0
  0
ENDTAB
  0
TABLE
  2
LAYER
  5
1
330
0
100
AcDbSymbolTable
 70
4
  0
LAYER
  5
27
330
1
100
AcDbSymbolTableRecord
100
AcDbLayerTableRecord
  2
0
 70
0
 62
7
  6
Continuous
370
-3
390
13
347
21
  0
LAYER
  5
28
330
1
100
AcDbSymbolTableRecord
100
AcDbLayerTableRecord
  2
Defpoints
 70
0
 62
7
  6
Continuous
290
0
370
-3
390
13
347
21
  0
LAYER
  5
2F
330
1
100
AcDbSymbolTableRecord
100
AcDbLayerTableRecord
  2
桩基
 70
0
 62
50
  6
Continuous
370
-3
390
13
347
21
  0
LAYER
  5
30
330
1
100
AcDbSymbolTableRecord
100
AcDbLayerTableRecord
  2
承台
 70
0
 62
130
  6
Continuous
370
-3
390
13
347
21
  0
ENDTAB
  0
TABLE
  2
STYLE
  5
5
330
0
100
AcDbSymbolTable
 70
1
  0
STYLE
  5
29
330
5
100
AcDbSymbolTableRecord
100
AcDbTextStyleTableRecord
  2
Standard
 70
0
 40
0.0
 41
1.0
 50
0.0
 71
0
 42
2.5
  3
txt
  4

  0
ENDTAB
  0
TABLE
  2
VIEW
  5
7
330
0
100
AcDbSymbolTable
 70
0
  0
ENDTAB
  0
TABLE
  2
UCS
  5
6
330
0
100
AcDbSymbolTable
 70
0
  0
ENDTAB
  0
TABLE
  2
APPID
  5
3
330
0
100
AcDbSymbolTable
 70
3
  0
APPID
  5
2A
330
3
100
AcDbSymbolTableRecord
100
AcDbRegAppTableRecord
  2
ACAD
 70
0
  0
APPID
  5
2AB
330
3
100
AcDbSymbolTableRecord
100
AcDbRegAppTableRecord
  2
HATCHBACKGROUNDCOLOR
 70
0
  0
APPID
  5
2AC
330
3
100
AcDbSymbolTableRecord
100
AcDbRegAppTableRecord
  2
EZDXF
 70
0
  0
ENDTAB
  0
TABLE
  2
DIMSTYLE
  5
4
330
0
100
AcDbSymbolTable
 70
1
100
AcDbDimStyleTable
  0
DIMSTYLE
105
2B
330
4
100
AcDbSymbolTableRecord
100
AcDbDimStyleTableRecord
  2
Standard
 70
0
 40
1.0
 41
2.5
 42
0.625
 43
3.75
 44
1.25
 45
0.0
 46
0.0
 47
0.0
 48
0.0
 49
2.5
140
2.5
141
2.5
142
0.0
143
0.03937007874
144
1.0
145
0.0
146
1.0
147
0.625
148
0.0
 69
0
 70
0
 71
0
 72
0
 73
0
 74
0
 75
0
 76
0
 77
1
 78
8
 79
3
170
0
171
3
172
1
173
0
174
0
175
0
176
0
177
0
178
0
179
2
271
2
272
2
273
2
274
3
275
0
276
0
277
2
278
44
279
0
280
0
281
0
282
0
283
0
284
8
285
0
286
0
288
0
289
3
290
0
371
-2
372
-2
  0
ENDTAB
  0
TABLE
  2
BLOCK_RECORD
  5
9
330
0
100
AcDbSymbolTable
 70
2
  0
BLOCK_RECORD
  5
17
330
9
100
AcDbSymbolTableRecord
100
AcDbBlockTableRecord
  2
*Model_Space
340
1A
 70
0
280
1
281
0
  0
BLOCK_RECORD
  5
1B
330
9
100
AcDbSymbolTableRecord
100
AcDbBlockTableRecord
  2
*Paper_Space
340
1E
 70
0
280
1
281
0
  0
ENDTAB
  0
ENDSEC
  0
SECTION
  2
BLOCKS
  0
BLOCK
  5
18
330
17
100
AcDbEntity
  8
0
100
AcDbBlockBegin
  2
*Model_Space
 70
0
 10
0.0
 20
0.0
 30
0.0
  3
*Model_Space
  1

  0
ENDBLK
  5
19
330
17
100
AcDbEntity
  8
0
100
AcDbBlockEnd
  0
BLOCK
  5
1C
330
1B
100
AcDbEntity
  8
0
100
AcDbBlockBegin
  2
*Paper_Space
 70
0
 10
0.0
 20
0.0
 30
0.0
  3
*Paper_Space
  1

  0
ENDBLK
  5
1D
330
1B
100
AcDbEntity
  8
0
100
AcDbBlockEnd
  0
ENDSEC
  0
SECTION
  2
ENTITIES
  0
CIRCLE
  5
31
330
17
100
AcDbEntity
  8
桩基
100
AcDbCircle
 10
570940.3674313759
 20
785569.9885824997
 30
0.0
 40
0.75
  0
TEXT
  5
32
330
17
100
AcDbEntity
  8
桩基
100
AcDbText
 10
570940.3674313759
 20
785569.9885824997
 30
0.0
 40
0.1
  1
(R1-1, pk= 213.364, E=570940.367,N785569.989)
 72
1
 11
570940.3674313759
 21
785569.9885824997
 31
0.0
100
AcDbText
 73
2
  0
CIRCLE
  5
33
330
17
100
AcDbEntity
  8
桩基
100
AcDbCircle
 10
570943.2085776648
 20
785573.4782655461
 30
0.0
 40
0.75
  0
TEXT
  5
34
330
17
100
AcDbEntity
  8
桩基
100
AcDbText
 10
570943.2085776648
 20
785573.4782655461
 30
0.0
 40
0.1
  1
(R1-1, pk= 213.364, E=570943.209,N785573.478)
 72
1
 11
570943.2085776648
 21
785573.4782655461
 31
0.0
100
AcDbText
 73
2
  0
CIRCLE
  5
35
330
17
100
AcDbEntity
  8
桩基
100
AcDbCircle
 10
570936.8777483293
 20
785572.8297287885
 30
0.0
 40
0.75
  0
TEXT
  5
36
330
17
100
AcDbEntity
  8
桩基
100
AcDbText
 10
570936.8777483293
 20
785572.8297287885
 30
0.0
 40
0.1
  1
(R1-1, pk= 213.364, E=570936.878,N785572.830)
 72
1
 11
570936.8777483293
 21
785572.8297287885
 31
0.0
100
AcDbText
 73
2
  0
CIRCLE
  5
37
330
17
100
AcDbEntity
  8
桩基
100
AcDbCircle
 10
570939.7188946182
 20
785576.3194118349
 30
0.0
 40
0.75
  0
TEXT
  5
38
330
17
100
AcDbEntity
  8
桩基
100
AcDbText
 10
570939.7188946182
 20
785576.3194118349
 30
0.0
 40
0.1
  1
(R1-1, pk= 213.364, E=570939.719,N785576.319)
 72
1
 11
570939.7188946182
 21
785576.3194118349
 31
0.0
100
AcDbText
 73
2
  0
CIRCLE
  5
39
330
17
100
AcDbEntity
  8
桩基
100
AcDbCircle
 10
570933.3880652828
 20
785575.6708750774
 30
0.0
 40
0.75
  0
TEXT
  5
3A
330
17
100
AcDbEntity
  8
桩基
100
AcDbText
 10
570933.3880652828
 20
785575.6708750774
 30
0.0
 40
0.1
  1
(R1-1, pk= 213.364, E=570933.388,N785575.671)
 72
1
 11
570933.3880652828
 21
785575.6708750774
 31
0.0
100
AcDbText
 73
2
  0
CIRCLE
  5
3B
330
17
100
AcDbEntity
  8
桩基
100
AcDbCircle
 10
570936.2292115717
 20
785579.1605581238
 30
0.0
 40
0.75
  0
TEXT
  5
3C
330
17
100
AcDbEntity
  8
桩基
100
AcDbText
 10
570936.2292115717
 20
785579.1605581238
 30
0.0
 40
0.1
  1
(R1-1, pk= 213.364, E=570936.229,N785579.161)
 72
1
 11
570936.2292115717
 21
785579.1605581238
 31
0.0
100
AcDbText
 73
2
  0
CIRCLE
  5
3D
330
17
100
AcDbEntity
  8
桩基
100
AcDbCircle
 10
570929.8983822362
 20
785578.5120213662
 30
0.0
 40
0.75
  0
TEXT
  5
3E
330
17
100
AcDbEntity
  8
桩基
100
AcDbText
 10
570929.8983822362
 20
785578.5120213662
 30
0.0
 40
0.1
  1
(R1-1, pk= 213.364, E=570929.898,N785578.512)
 72
1
 11
570929.8983822362
 21
785578.5120213662
 31
0.0
100
AcDbText
 73
2
  0
CIRCLE
  5
3F
330
17
100
AcDbEntity
  8
桩基
100
AcDbCircle
 10
570932.7395285252
 20
785582.0017044126
 30
0.0
 40
0.75
  0
TEXT
  5
40
330
17
100
AcDbEntity
  8
桩基
100
AcDbText
 10
570932.7395285252
 20
785582.0017044126
 30
0.0
 40
0.1
  1
(R1-1, pk= 213.364, E=570932.740,N785582.002)
 72
1
 11
570932.7395285252
 21
785582.0017044126
 31
0.0
100
AcDbText
 73
2
  0
POLYLINE
  5
41
330
17
100
AcDbEntity
  8
承台
100
AcDb2dPolyline
 66
1
 10
0.0
 20
0.0
 30
0.0
 70
1
  0
VERTEX
  5
43
330
17
100
AcDbEntity
  8
承台
100
AcDbVertex
100
AcDb2dVertex
 10
570940.5475804752
 20
785568.2300187955
 30
0.0
 70
0
  0
VERTEX
  5
44
330
17
100
AcDbEntity
  8
承台
100
AcDbVertex
100
AcDb2dVertex
 10
570944.9671413691
 20
785573.6584146455
 30
0.0
 70
0
  0
VERTEX
  5
45
330
17
100
AcDbEntity
  8
承台
100
AcDbVertex
100
AcDb2dVertex
 10
570932.5593794258
 20
785583.7602681168
 30
0.0
 70
0
  0
VERTEX
  5
46
330
17
100
AcDbEntity
  8
承台
100
AcDbVertex
100
AcDb2dVertex
 10
570928.1398185319
 20
785578.3318722668
 30
0.0
 70
0
  0
SEQEND
  5
42
330
41
100
AcDbEntity
  8
承台
  0
CIRCLE
  5
47
330
17
100
AcDbEntity
  8
桩基
100
AcDbCircle
 10
570964.441827855
 20
785599.312175348
 30
0.0
 40
0.75
  0
TEXT
  5
48
330
17
100
AcDbEntity
  8
桩基
100
AcDbText
 10
570964.441827855
 20
785599.312175348
 30
0.0
 40
0.1
  1
(R1-2, pk= 251.364, E=570964.442,N785599.312)
 72
1
 11
570964.441827855
 21
785599.312175348
 31
0.0
100
AcDbText
 73
2
  0
CIRCLE
  5
49
330
17
100
AcDbEntity
  8
桩基
100
AcDbCircle
 10
570967.3783407212
 20
785602.7219982446
 30
0.0
 40
0.75
  0
TEXT
  5
4A
330
17
100
AcDbEntity
  8
桩基
100
AcDbText
 10
570967.3783407212
 20
785602.7219982446
 30
0.0
 40
0.1
  1
(R1-2, pk= 251.364, E=570967.378,N785602.722)
 72
1
 11
570967.3783407212
 21
785602.7219982446
 31
0.0
100
AcDbText
 73
2
  0
CIRCLE
  5
4B
330
17
100
AcDbEntity
  8
桩基
100
AcDbCircle
 10
570961.0320049584
 20
785602.2486882143
 30
0.0
 40
0.75
  0
TEXT
  5
4C
330
17
100
AcDbEntity
  8
桩基
100
AcDbText
 10
570961.0320049584
 20
785602.2486882143
 30
0.0
 40
0.1
  1
(R1-2, pk= 251.364, E=570961.032,N785602.249)
 72
1
 11
570961.0320049584
 21
785602.2486882143
 31
0.0
100
AcDbText
 73
2
  0
CIRCLE
  5
4D
330
17
100
AcDbEntity
  8
桩基
100
AcDbCircle
 10
570963.9685178247
 20
785605.6585111109
 30
0.0
 40
0.75
  0
TEXT
  5
4E
330
17
100
AcDbEntity
  8
桩基
100
AcDbText
 10
570963.9685178247
 20
785605.6585111109
 30
0.0
 40
0.1
  1
(R1-2, pk= 251.364, E=570963.969,N785605.659)
 72
1
 11
570963.9685178247
 21
785605.6585111109
 31
0.0
100
AcDbText
 73
2
  0
CIRCLE
  5
4F
330
17
100
AcDbEntity
  8
桩基
100
AcDbCircle
 10
570957.6221820618
 20
785605.1852010806
 30
0.0
 40
0.75
  0
TEXT
  5
50
330
17
100
AcDbEntity
  8
桩基
100
AcDbText
 10
570957.6221820618
 20
785605.1852010806
 30
0.0
 40
0.1
  1
(R1-2, pk= 251.364, E=570957.622,N785605.185)
 72
1
 11
570957.6221820618
 21
785605.1852010806
 31
0.0
100
AcDbText
 73
2
  0
CIRCLE
  5
51
330
17
100
AcDbEntity
  8
桩基
100
AcDbCircle
 10
570960.5586949281
 20
785608.5950239772
 30
0.0
 40
0.75
  0
TEXT
  5
52
330
17
100
AcDbEntity
  8
桩基
100
AcDbText
 10
570960.5586949281
 20
785608.5950239772
 30
0.0
 40
0.1
  1
(R1-2, pk= 251.364, E=570960.559,N785608.595)
 72
1
 11
570960.5586949281
 21
785608.5950239772
 31
0.0
100
AcDbText
 73
2
  0
CIRCLE
  5
53
330
17
100
AcDbEntity
  8
桩基
100
AcDbCircle
 10
570954.2123591652
 20
785608.1217139469
 30
0.0
 40
0.75
  0
TEXT
  5
54
330
17
100
AcDbEntity
  8
桩基
100
AcDbText
 10
570954.2123591652
 20
785608.1217139469
 30
0.0
 40
0.1
  1
(R1-2, pk= 251.364, E=570954.212,N785608.122)
 72
1
 11
570954.2123591652
 21
785608.1217139469
 31
0.0
100
AcDbText
 73
2
  0
CIRCLE
  5
55
330
17
100
AcDbEntity
  8
桩基
100
AcDbCircle
 10
570957.1488720315
 20
785611.5315368435
 30
0.0
 40
0.75
  0
TEXT
  5
56
330
17
100
AcDbEntity
  8
桩基
100
AcDbText
 10
570957.1488720315
 20
785611.5315368435
 30
0.0
 40
0.1
  1
(R1-2, pk= 251.364, E=570957.149,N785611.532)
 72
1
 11
570957.1488720315
 21
785611.5315368435
 31
0.0
100
AcDbText
 73
2
  0
POLYLINE
  5
57
330
17
100
AcDbEntity
  8
承台
100
AcDb2dPolyline
 66
1
 10
0.0
 20
0.0
 30
0.0
 70
1
  0
VERTEX
  5
59
330
17
100
AcDbEntity
  8
承台
100
AcDbVertex
100
AcDb2dVertex
 10
570964.5733028634
 20
785597.5493043028
 30
0.0
 70
0
  0
VERTEX
  5
5A
330
17
100
AcDbEntity
  8
承台
100
AcDbVertex
100
AcDb2dVertex
 10
570969.1412117665
 20
785602.8534732531
 30
0.0
 70
0
  0
VERTEX
  5
5B
330
17
100
AcDbEntity
  8
承台
100
AcDbVertex
100
AcDb2dVertex
 10
570957.017397023
 20
785613.2944078888
 30
0.0
 70
0
  0
VERTEX
  5
5C
330
17
100
AcDbEntity
  8
承台
100
AcDbVertex
100
AcDb2dVertex
 10
570952.4494881199
 20
785607.9902389385
 30
0.0
 70
0
  0
SEQEND
  5
58
330
57
100
AcDbEntity
  8
承台
  0
CIRCLE
  5
5D
330
17
100
AcDbEntity
  8
桩基
100
AcDbCircle
 10
571019.3434712259
 20
785643.1603768278
 30
0.0
 40
0.75
  0
TEXT
  5
5E
330
17
100
AcDbEntity
  8
桩基
100
AcDbText
 10
571019.3434712259
 20
785643.1603768278
 30
0.0
 40
0.1
  1
(R1-3, pk= 323.364, E=571019.343,N785643.160)
 72
1
 11
571019.3434712259
 21
785643.1603768278
 31
0.0
100
AcDbText
 73
2
  0
CIRCLE
  5
5F
330
17
100
AcDbEntity
  8
桩基
100
AcDbCircle
 10
571023.5494787585
 20
785644.760220769
 30
0.0
 40
0.75
  0
TEXT
  5
60
330
17
100
AcDbEntity
  8
桩基
100
AcDbText
 10
571023.5494787585
 20
785644.760220769
 30
0.0
 40
0.1
  1
(R1-3, pk= 323.364, E=571023.549,N785644.760)
 72
1
 11
571023.5494787585
 21
785644.760220769
 31
0.0
100
AcDbText
 73
2
  0
CIRCLE
  5
61
330
17
100
AcDbEntity
  8
桩基
100
AcDbCircle
 10
571017.7436272848
 20
785647.3663843604
 30
0.0
 40
0.75
  0
TEXT
  5
62
330
17
100
AcDbEntity
  8
桩基
100
AcDbText
 10
571017.7436272848
 20
785647.3663843604
 30
0.0
 40
0.1
  1
(R1-3, pk= 323.364, E=571017.744,N785647.366)
 72
1
 11
571017.7436272848
 21
785647.3663843604
 31
0.0
100
AcDbText
 73
2
  0
CIRCLE
  5
63
330
17
100
AcDbEntity
  8
桩基
100
AcDbCircle
 10
571021.9496348173
 20
785648.9662283015
 30
0.0
 40
0.75
  0
TEXT
  5
64
330
17
100
AcDbEntity
  8
桩基
100
AcDbText
 10
571021.9496348173
 20
785648.9662283015
 30
0.0
 40
0.1
  1
(R1-3, pk= 323.364, E=571021.950,N785648.966)
 72
1
 11
571021.9496348173
 21
785648.9662283015
 31
0.0
100
AcDbText
 73
2
  0
POLYLINE
  5
65
330
17
100
AcDbEntity
  8
承台
100
AcDb2dPolyline
 66
1
 10
0.0
 20
0.0
 30
0.0
 70
1
  0
VERTEX
  5
67
330
17
100
AcDbEntity
  8
承台
100
AcDbVertex
100
AcDb2dVertex
 10
571018.619536895
 20
785641.5476403073
 30
0.0
 70
0
  0
VERTEX
  5
68
330
17
100
AcDbEntity
  8
承台
100
AcDbVertex
100
AcDb2dVertex
 10
571025.162215279
 20
785644.036286438
 30
0.0
 70
0
  0
VERTEX
  5
69
330
17
100
AcDbEntity
  8
承台
100
AcDbVertex
100
AcDb2dVertex
 10
571022.6735691483
 20
785650.578964822
 30
0.0
 70
0
  0
VERTEX
  5
6A
330
17
100
AcDbEntity
  8
承台
100
AcDbVertex
100
AcDb2dVertex
 10
571016.1308907643
 20
785648.0903186913
 30
0.0
 70
0
  0
SEQEND
  5
66
330
65
100
AcDbEntity
  8
承台
  0
CIRCLE
  5
6B
330
17
100
AcDbEntity
  8
桩基
100
AcDbCircle
 10
571067.540637696
 20
785651.2304450815
 30
0.0
 40
0.75
  0
TEXT
  5
6C
330
17
100
AcDbEntity
  8
桩基
100
AcDbText
 10
571067.540637696
 20
785651.2304450815
 30
0.0
 40
0.1
  1
(R1-4, pk= 373.364, E=571067.541,N785651.230)
 72
1
 11
571067.540637696
 21
785651.2304450815
 31
0.0
100
AcDbText
 73
2
  0
CIRCLE
  5
6D
330
17
100
AcDbEntity
  8
桩基
100
AcDbCircle
 10
571072.0355591198
 20
785651.0167130214
 30
0.0
 40
0.75
  0
TEXT
  5
6E
330
17
100
AcDbEntity
  8
桩基
100
AcDbText
 10
571072.0355591198
 20
785651.0167130214
 30
0.0
 40
0.1
  1
(R1-4, pk= 373.364, E=571072.036,N785651.017)
 72
1
 11
571072.0355591198
 21
785651.0167130214
 31
0.0
100
AcDbText
 73
2
  0
CIRCLE
  5
6F
330
17
100
AcDbEntity
  8
桩基
100
AcDbCircle
 10
571067.7543697561
 20
785655.7253665052
 30
0.0
 40
0.75
  0
TEXT
  5
70
330
17
100
AcDbEntity
  8
桩基
100
AcDbText
 10
571067.7543697561
 20
785655.7253665052
 30
0.0
 40
0.1
  1
(R1-4, pk= 373.364, E=571067.754,N785655.725)
 72
1
 11
571067.7543697561
 21
785655.7253665052
 31
0.0
100
AcDbText
 73
2
  0
CIRCLE
  5
71
330
17
100
AcDbEntity
  8
桩基
100
AcDbCircle
 10
571072.2492911798
 20
785655.5116344452
 30
0.0
 40
0.75
  0
TEXT
  5
72
330
17
100
AcDbEntity
  8
桩基
100
AcDbText
 10
571072.2492911798
 20
785655.5116344452
 30
0.0
 40
0.1
  1
(R1-4, pk= 373.364, E=571072.249,N785655.512)
 72
1
 11
571072.2492911798
 21
785655.5116344452
 31
0.0
100
AcDbText
 73
2
  0
POLYLINE
  5
73
330
17
100
AcDbEntity
  8
承台
100
AcDb2dPolyline
 66
1
 10
0.0
 20
0.0
 30
0.0
 70
1
  0
VERTEX
  5
75
330
17
100
AcDbEntity
  8
承台
100
AcDbVertex
100
AcDb2dVertex
 10
571066.232678395
 20
785650.0412258138
 30
0.0
 70
0
  0
VERTEX
  5
76
330
17
100
AcDbEntity
  8
承台
100
AcDbVertex
100
AcDb2dVertex
 10
571073.2247783875
 20
785649.7087537204
 30
0.0
 70
0
  0
VERTEX
  5
77
330
17
100
AcDbEntity
  8
承台
100
AcDbVertex
100
AcDb2dVertex
 10
571073.5572504809
 20
785656.7008537129
 30
0.0
 70
0
  0
VERTEX
  5
78
330
17
100
AcDbEntity
  8
承台
100
AcDbVertex
100
AcDb2dVertex
 10
571066.5651504884
 20
785657.0333258063
 30
0.0
 70
0
  0
SEQEND
  5
74
330
73
100
AcDbEntity
  8
承台
  0
CIRCLE
  5
79
330
17
100
AcDbEntity
  8
桩基
100
AcDbCircle
 10
571099.9688002014
 20
785649.5386865052
 30
0.0
 40
0.75
  0
TEXT
  5
7A
330
17
100
AcDbEntity
  8
桩基
100
AcDbText
 10
571099.9688002014
 20
785649.5386865052
 30
0.0
 40
0.1
  1
(R1-5, pk= 406.364, E=571099.969,N785649.539)
 72
1
 11
571099.9688002014
 21
785649.5386865052
 31
0.0
100
AcDbText
 73
2
  0
CIRCLE
  5
7B
330
17
100
AcDbEntity
  8
桩基
100
AcDbCircle
 10
571104.2330687585
 20
785648.1013230601
 30
0.0
 40
0.75
  0
TEXT
  5
7C
330
17
100
AcDbEntity
  8
桩基
100
AcDbText
 10
571104.2330687585
 20
785648.1013230601
 30
0.0
 40
0.1
  1
(R1-5, pk= 406.364, E=571104.233,N785648.101)
 72
1
 11
571104.2330687585
 21
785648.1013230601
 31
0.0
100
AcDbText
 73
2
  0
CIRCLE
  5
7D
330
17
100
AcDbEntity
  8
桩基
100
AcDbCircle
 10
571101.4061636466
 20
785653.8029550622
 30
0.0
 40
0.75
  0
TEXT
  5
7E
330
17
100
AcDbEntity
  8
桩基
100
AcDbText
 10
571101.4061636466
 20
785653.8029550622
 30
0.0
 40
0.1
  1
(R1-5, pk= 406.364, E=571101.406,N785653.803)
 72
1
 11
571101.4061636466
 21
785653.8029550622
 31
0.0
100
AcDbText
 73
2
  0
CIRCLE
  5
7F
330
17
100
AcDbEntity
  8
桩基
100
AcDbCircle
 10
571105.6704322037
 20
785652.3655916172
 30
0.0
 40
0.75
  0
TEXT
  5
80
330
17
100
AcDbEntity
  8
桩基
100
AcDbText
 10
571105.6704322037
 20
785652.3655916172
 30
0.0
 40
0.1
  1
(R1-5, pk= 406.364, E=571105.670,N785652.366)
 72
1
 11
571105.6704322037
 21
785652.3655916172
 31
0.0
100
AcDbText
 73
2
  0
CIRCLE
  5
81
330
17
100
AcDbEntity
  8
桩基
100
AcDbCircle
 10
571102.8435270917
 20
785658.0672236193
 30
0.0
 40
0.75
  0
TEXT
  5
82
330
17
100
AcDbEntity
  8
桩基
100
AcDbText
 10
571102.8435270917
 20
785658.0672236193
 30
0.0
 40
0.1
  1
(R1-5, pk= 406.364, E=571102.844,N785658.067)
 72
1
 11
571102.8435270917
 21
785658.0672236193
 31
0.0
100
AcDbText
 73
2
  0
CIRCLE
  5
83
330
17
100
AcDbEntity
  8
桩基
100
AcDbCircle
 10
571107.1077956487
 20
785656.6298601743
 30
0.0
 40
0.75
  0
TEXT
  5
84
330
17
100
AcDbEntity
  8
桩基
100
AcDbText
 10
571107.1077956487
 20
785656.6298601743
 30
0.0
 40
0.1
  1
(R1-5, pk= 406.364, E=571107.108,N785656.630)
 72
1
 11
571107.1077956487
 21
785656.6298601743
 31
0.0
100
AcDbText
 73
2
  0
CIRCLE
  5
85
330
17
100
AcDbEntity
  8
桩基
100
AcDbCircle
 10
571104.2808905368
 20
785662.3314921764
 30
0.0
 40
0.75
  0
TEXT
  5
86
330
17
100
AcDbEntity
  8
桩基
100
AcDbText
 10
571104.2808905368
 20
785662.3314921764
 30
0.0
 40
0.1
  1
(R1-5, pk= 406.364, E=571104.281,N785662.331)
 72
1
 11
571104.2808905368
 21
785662.3314921764
 31
0.0
100
AcDbText
 73
2
  0
CIRCLE
  5
87
330
17
100
AcDbEntity
  8
桩基
100
AcDbCircle
 10
571108.5451590939
 20
785660.8941287313
 30
0.0
 40
0.75
  0
TEXT
  5
88
330
17
100
AcDbEntity
  8
桩基
100
AcDbText
 10
571108.5451590939
 20
785660.8941287313
 30
0.0
 40
0.1
  1
(R1-5, pk= 406.364, E=571108.545,N785660.894)
 72
1
 11
571108.5451590939
 21
785660.8941287313
 31
0.0
100
AcDbText
 73
2
  0
POLYLINE
  5
89
330
17
100
AcDbEntity
  8
承台
100
AcDb2dPolyline
 66
1
 10
0.0
 20
0.0
 30
0.0
 70
1
  0
VERTEX
  5
8B
330
17
100
AcDbEntity
  8
承台
100
AcDbVertex
100
AcDb2dVertex
 10
571098.3850135341
 20
785648.7534350852
 30
0.0
 70
0
  0
VERTEX
  5
8C
330
17
100
AcDbEntity
  8
承台
100
AcDbVertex
100
AcDb2dVertex
 10
571105.0183201785
 20
785646.5175363929
 30
0.0
 70
0
  0
VERTEX
  5
8D
330
17
100
AcDbEntity
  8
承台
100
AcDbVertex
100
AcDb2dVertex
 10
571110.1289457612
 20
785661.6793801513
 30
0.0
 70
0
  0
VERTEX
  5
8E
330
17
100
AcDbEntity
  8
承台
100
AcDbVertex
100
AcDb2dVertex
 10
571103.4956391169
 20
785663.9152788436
 30
0.0
 70
0
  0
SEQEND
  5
8A
330
89
100
AcDbEntity
  8
承台
  0
CIRCLE
  5
8F
330
17
100
AcDbEntity
  8
桩基
100
AcDbCircle
 10
571141.5266621178
 20
785640.3482829895
 30
0.0
 40
0.75
  0
TEXT
  5
90
330
17
100
AcDbEntity
  8
桩基
100
AcDbText
 10
571141.5266621178
 20
785640.3482829895
 30
0.0
 40
0.1
  1
(R1-6, pk= 448.428, E=571141.527,N785640.348)
 72
1
 11
571141.5266621178
 21
785640.3482829895
 31
0.0
100
AcDbText
 73
2
  0
CIRCLE
  5
91
330
17
100
AcDbEntity
  8
桩基
100
AcDbCircle
 10
571145.9589061434
 20
785639.5703286867
 30
0.0
 40
0.75
  0
TEXT
  5
92
330
17
100
AcDbEntity
  8
桩基
100
AcDbText
 10
571145.9589061434
 20
785639.5703286867
 30
0.0
 40
0.1
  1
(R1-6, pk= 448.428, E=571145.959,N785639.570)
 72
1
 11
571145.9589061434
 21
785639.5703286867
 31
0.0
100
AcDbText
 73
2
  0
CIRCLE
  5
93
330
17
100
AcDbEntity
  8
桩基
100
AcDbCircle
 10
571142.3046164205
 20
785644.7805270151
 30
0.0
 40
0.75
  0
TEXT
  5
94
330
17
100
AcDbEntity
  8
桩基
100
AcDbText
 10
571142.3046164205
 20
785644.7805270151
 30
0.0
 40
0.1
  1
(R1-6, pk= 448.428, E=571142.305,N785644.781)
 72
1
 11
571142.3046164205
 21
785644.7805270151
 31
0.0
100
AcDbText
 73
2
  0
CIRCLE
  5
95
330
17
100
AcDbEntity
  8
桩基
100
AcDbCircle
 10
571146.7368604462
 20
785644.0025727124
 30
0.0
 40
0.75
  0
TEXT
  5
96
330
17
100
AcDbEntity
  8
桩基
100
AcDbText
 10
571146.7368604462
 20
785644.0025727124
 30
0.0
 40
0.1
  1
(R1-6, pk= 448.428, E=571146.737,N785644.003)
 72
1
 11
571146.7368604462
 21
785644.0025727124
 31
0.0
100
AcDbText
 73
2
  0
CIRCLE
  5
97
330
17
100
AcDbEntity
  8
桩基
100
AcDbCircle
 10
571143.0825707233
 20
785649.2127710407
 30
0.0
 40
0.75
  0
TEXT
  5
98
330
17
100
AcDbEntity
  8
桩基
100
AcDbText
 10
571143.0825707233
 20
785649.2127710407
 30
0.0
 40
0.1
  1
(R1-6, pk= 448.428, E=571143.083,N785649.213)
 72
1
 11
571143.0825707233
 21
785649.2127710407
 31
0.0
100
AcDbText
 73
2
  0
CIRCLE
  5
99
330
17
100
AcDbEntity
  8
桩基
100
AcDbCircle
 10
571147.5148147489
 20
785648.434816738
 30
0.0
 40
0.75
  0
TEXT
  5
9A
330
17
100
AcDbEntity
  8
桩基
100
AcDbText
 10
571147.5148147489
 20
785648.434816738
 30
0.0
 40
0.1
  1
(R1-6, pk= 448.428, E=571147.515,N785648.435)
 72
1
 11
571147.5148147489
 21
785648.434816738
 31
0.0
100
AcDbText
 73
2
  0
POLYLINE
  5
9B
330
17
100
AcDbEntity
  8
承台
100
AcDb2dPolyline
 66
1
 10
0.0
 20
0.0
 30
0.0
 70
1
  0
VERTEX
  5
9D
330
17
100
AcDbEntity
  8
承台
100
AcDbVertex
100
AcDb2dVertex
 10
571140.0793848044
 20
785639.3332025108
 30
0.0
 70
0
  0
VERTEX
  5
9E
330
17
100
AcDbEntity
  8
承台
100
AcDbVertex
100
AcDb2dVertex
 10
571146.9739866221
 20
785638.1230513733
 30
0.0
 70
0
  0
VERTEX
  5
9F
330
17
100
AcDbEntity
  8
承台
100
AcDbVertex
100
AcDb2dVertex
 10
571148.9620920623
 20
785649.4498972166
 30
0.0
 70
0
  0
VERTEX
  5
A0
330
17
100
AcDbEntity
  8
承台
100
AcDbVertex
100
AcDb2dVertex
 10
571142.0674902446
 20
785650.6600483542
 30
0.0
 70
0
  0
SEQEND
  5
9C
330
9B
100
AcDbEntity
  8
承台
  0
CIRCLE
  5
A1
330
17
100
AcDbEntity
  8
桩基
100
AcDbCircle
 10
571186.8622031565
 20
785634.4376387469
 30
0.0
 40
0.75
  0
TEXT
  5
A2
330
17
100
AcDbEntity
  8
桩基
100
AcDbText
 10
571186.8622031565
 20
785634.4376387469
 30
0.0
 40
0.1
  1
(R1-7, pk= 7.474, E=571186.862,N785634.438)
 72
1
 11
571186.8622031565
 21
785634.4376387469
 31
0.0
100
AcDbText
 73
2
  0
CIRCLE
  5
A3
330
17
100
AcDbEntity
  8
桩基
100
AcDbCircle
 10
571191.2944471821
 20
785633.6596844442
 30
0.0
 40
0.75
  0
TEXT
  5
A4
330
17
100
AcDbEntity
  8
桩基
100
AcDbText
 10
571191.2944471821
 20
785633.6596844442
 30
0.0
 40
0.1
  1
(R1-7, pk= 7.474, E=571191.294,N785633.660)
 72
1
 11
571191.2944471821
 21
785633.6596844442
 31
0.0
100
AcDbText
 73
2
  0
CIRCLE
  5
A5
330
17
100
AcDbEntity
  8
桩基
100
AcDbCircle
 10
571187.6401574592
 20
785638.8698827726
 30
0.0
 40
0.75
  0
TEXT
  5
A6
330
17
100
AcDbEntity
  8
桩基
100
AcDbText
 10
571187.6401574592
 20
785638.8698827726
 30
0.0
 40
0.1
  1
(R1-7, pk= 7.474, E=571187.640,N785638.870)
 72
1
 11
571187.6401574592
 21
785638.8698827726
 31
0.0
100
AcDbText
 73
2
  0
CIRCLE
  5
A7
330
17
100
AcDbEntity
  8
桩基
100
AcDbCircle
 10
571192.0724014848
 20
785638.0919284698
 30
0.0
 40
0.75
  0
TEXT
  5
A8
330
17
100
AcDbEntity
  8
桩基
100
AcDbText
 10
571192.0724014848
 20
785638.0919284698
 30
0.0
 40
0.1
  1
(R1-7, pk= 7.474, E=571192.072,N785638.092)
 72
1
 11
571192.0724014848
 21
785638.0919284698
 31
0.0
100
AcDbText
 73
2
  0
POLYLINE
  5
A9
330
17
100
AcDbEntity
  8
承台
100
AcDb2dPolyline
 66
1
 10
0.0
 20
0.0
 30
0.0
 70
1
  0
VERTEX
  5
AB
330
17
100
AcDbEntity
  8
承台
100
AcDbVertex
100
AcDb2dVertex
 10
571185.414925843
 20
785633.4225582683
 30
0.0
 70
0
  0
VERTEX
  5
AC
330
17
100
AcDbEntity
  8
承台
100
AcDbVertex
100
AcDb2dVertex
 10
571192.3095276607
 20
785632.2124071307
 30
0.0
 70
0
  0
VERTEX
  5
AD
330
17
100
AcDbEntity
  8
承台
100
AcDbVertex
100
AcDb2dVertex
 10
571193.5196787983
 20
785639.1070089485
 30
0.0
 70
0
  0
VERTEX
  5
AE
330
17
100
AcDbEntity
  8
承台
100
AcDbVertex
100
AcDb2dVertex
 10
571186.6250769806
 20
785640.317160086
 30
0.0
 70
0
  0
SEQEND
  5
AA
330
A9
100
AcDbEntity
  8
承台
  0
CIRCLE
  5
AF
330
17
100
AcDbEntity
  8
桩基
100
AcDbCircle
 10
571227.4663205288
 20
785627.780334963
 30
0.0
 40
0.75
  0
TEXT
  5
B0
330
17
100
AcDbEntity
  8
桩基
100
AcDbText
 10
571227.4663205288
 20
785627.780334963
 30
0.0
 40
0.1
  1
(R1-8, pk= 52.474, E=571227.466,N785627.780)
 72
1
 11
571227.4663205288
 21
785627.780334963
 31
0.0
100
AcDbText
 73
2
  0
CIRCLE
  5
B1
330
17
100
AcDbEntity
  8
桩基
100
AcDbCircle
 10
571233.3595219108
 20
785626.6533134589
 30
0.0
 40
0.75
  0
TEXT
  5
B2
330
17
100
AcDbEntity
  8
桩基
100
AcDbText
 10
571233.3595219108
 20
785626.6533134589
 30
0.0
 40
0.1
  1
(R1-8, pk= 52.474, E=571233.360,N785626.653)
 72
1
 11
571233.3595219108
 21
785626.6533134589
 31
0.0
100
AcDbText
 73
2
  0
CIRCLE
  5
B3
330
17
100
AcDbEntity
  8
桩基
100
AcDbCircle
 10
571239.2527232928
 20
785625.5262919548
 30
0.0
 40
0.75
  0
TEXT
  5
B4
330
17
100
AcDbEntity
  8
桩基
100
AcDbText
 10
571239.2527232928
 20
785625.5262919548
 30
0.0
 40
0.1
  1
(R1-8, pk= 52.474, E=571239.253,N785625.526)
 72
1
 11
571239.2527232928
 21
785625.5262919548
 31
0.0
100
AcDbText
 73
2
  0
CIRCLE
  5
B5
330
17
100
AcDbEntity
  8
桩基
100
AcDbCircle
 10
571228.5933420329
 20
785633.673536345
 30
0.0
 40
0.75
  0
TEXT
  5
B6
330
17
100
AcDbEntity
  8
桩基
100
AcDbText
 10
571228.5933420329
 20
785633.673536345
 30
0.0
 40
0.1
  1
(R1-8, pk= 52.474, E=571228.593,N785633.674)
 72
1
 11
571228.5933420329
 21
785633.673536345
 31
0.0
100
AcDbText
 73
2
  0
CIRCLE
  5
B7
330
17
100
AcDbEntity
  8
桩基
100
AcDbCircle
 10
571234.4865434149
 20
785632.5465148409
 30
0.0
 40
0.75
  0
TEXT
  5
B8
330
17
100
AcDbEntity
  8
桩基
100
AcDbText
 10
571234.4865434149
 20
785632.5465148409
 30
0.0
 40
0.1
  1
(R1-8, pk= 52.474, E=571234.487,N785632.547)
 72
1
 11
571234.4865434149
 21
785632.5465148409
 31
0.0
100
AcDbText
 73
2
  0
CIRCLE
  5
B9
330
17
100
AcDbEntity
  8
桩基
100
AcDbCircle
 10
571240.3797447969
 20
785631.4194933368
 30
0.0
 40
0.75
  0
TEXT
  5
BA
330
17
100
AcDbEntity
  8
桩基
100
AcDbText
 10
571240.3797447969
 20
785631.4194933368
 30
0.0
 40
0.1
  1
(R1-8, pk= 52.474, E=571240.380,N785631.419)
 72
1
 11
571240.3797447969
 21
785631.4194933368
 31
0.0
100
AcDbText
 73
2
  0
CIRCLE
  5
BB
330
17
100
AcDbEntity
  8
桩基
100
AcDbCircle
 10
571229.720363537
 20
785639.566737727
 30
0.0
 40
0.75
  0
TEXT
  5
BC
330
17
100
AcDbEntity
  8
桩基
100
AcDbText
 10
571229.720363537
 20
785639.566737727
 30
0.0
 40
0.1
  1
(R1-8, pk= 52.474, E=571229.720,N785639.567)
 72
1
 11
571229.720363537
 21
785639.566737727
 31
0.0
100
AcDbText
 73
2
  0
CIRCLE
  5
BD
330
17
100
AcDbEntity
  8
桩基
100
AcDbCircle
 10
571235.613564919
 20
785638.4397162229
 30
0.0
 40
0.75
  0
TEXT
  5
BE
330
17
100
AcDbEntity
  8
桩基
100
AcDbText
 10
571235.613564919
 20
785638.4397162229
 30
0.0
 40
0.1
  1
(R1-8, pk= 52.474, E=571235.614,N785638.440)
 72
1
 11
571235.613564919
 21
785638.4397162229
 31
0.0
100
AcDbText
 73
2
  0
CIRCLE
  5
BF
330
17
100
AcDbEntity
  8
桩基
100
AcDbCircle
 10
571241.506766301
 20
785637.3126947188
 30
0.0
 40
0.75
  0
TEXT
  5
C0
330
17
100
AcDbEntity
  8
桩基
100
AcDbText
 10
571241.506766301
 20
785637.3126947188
 30
0.0
 40
0.1
  1
(R1-8, pk= 52.474, E=571241.507,N785637.313)
 72
1
 11
571241.506766301
 21
785637.3126947188
 31
0.0
100
AcDbText
 73
2
  0
POLYLINE
  5
C1
330
17
100
AcDbEntity
  8
承台
100
AcDb2dPolyline
 66
1
 10
0.0
 20
0.0
 30
0.0
 70
1
  0
VERTEX
  5
C3
330
17
100
AcDbEntity
  8
承台
100
AcDbVertex
100
AcDb2dVertex
 10
571226.0037740942
 20
785626.7873808218
 30
0.0
 70
0
  0
VERTEX
  5
C4
330
17
100
AcDbEntity
  8
承台
100
AcDbVertex
100
AcDb2dVertex
 10
571240.245677434
 20
785624.0637455202
 30
0.0
 70
0
  0
VERTEX
  5
C5
330
17
100
AcDbEntity
  8
承台
100
AcDbVertex
100
AcDb2dVertex
 10
571242.9693127356
 20
785638.30564886
 30
0.0
 70
0
  0
VERTEX
  5
C6
330
17
100
AcDbEntity
  8
承台
100
AcDbVertex
100
AcDb2dVertex
 10
571228.7274093957
 20
785641.0292841616
 30
0.0
 70
0
  0
SEQEND
  5
C2
330
C1
100
AcDbEntity
  8
承台
  0
CIRCLE
  5
C7
330
17
100
AcDbEntity
  8
桩基
100
AcDbCircle
 10
570991.3454474065
 20
785640.9947780357
 30
0.0
 40
0.75
  0
TEXT
  5
C8
330
17
100
AcDbEntity
  8
桩基
100
AcDbText
 10
570991.3454474065
 20
785640.9947780357
 30
0.0
 40
0.1
  1
(R2-3, pk= 301.364, E=570991.345,N785640.995)
 72
1
 11
570991.3454474065
 21
785640.9947780357
 31
0.0
100
AcDbText
 73
2
  0
CIRCLE
  5
C9
330
17
100
AcDbEntity
  8
桩基
100
AcDbCircle
 10
570994.7477503038
 20
785643.9400004374
 30
0.0
 40
0.75
  0
TEXT
  5
CA
330
17
100
AcDbEntity
  8
桩基
100
AcDbText
 10
570994.7477503038
 20
785643.9400004374
 30
0.0
 40
0.1
  1
(R2-3, pk= 301.364, E=570994.748,N785643.940)
 72
1
 11
570994.7477503038
 21
785643.9400004374
 31
0.0
100
AcDbText
 73
2
  0
CIRCLE
  5
CB
330
17
100
AcDbEntity
  8
桩基
100
AcDbCircle
 10
570988.4002250048
 20
785644.397080933
 30
0.0
 40
0.75
  0
TEXT
  5
CC
330
17
100
AcDbEntity
  8
桩基
100
AcDbText
 10
570988.4002250048
 20
785644.397080933
 30
0.0
 40
0.1
  1
(R2-3, pk= 301.364, E=570988.400,N785644.397)
 72
1
 11
570988.4002250048
 21
785644.397080933
 31
0.0
100
AcDbText
 73
2
  0
CIRCLE
  5
CD
330
17
100
AcDbEntity
  8
桩基
100
AcDbCircle
 10
570991.8025279021
 20
785647.3423033347
 30
0.0
 40
0.75
  0
TEXT
  5
CE
330
17
100
AcDbEntity
  8
桩基
100
AcDbText
 10
570991.8025279021
 20
785647.3423033347
 30
0.0
 40
0.1
  1
(R2-3, pk= 301.364, E=570991.803,N785647.342)
 72
1
 11
570991.8025279021
 21
785647.3423033347
 31
0.0
100
AcDbText
 73
2
  0
POLYLINE
  5
CF
330
17
100
AcDbEntity
  8
承台
100
AcDb2dPolyline
 66
1
 10
0.0
 20
0.0
 30
0.0
 70
1
  0
VERTEX
  5
D1
330
17
100
AcDbEntity
  8
承台
100
AcDbVertex
100
AcDb2dVertex
 10
570991.2184806023
 20
785639.2315765638
 30
0.0
 70
0
  0
VERTEX
  5
D2
330
17
100
AcDbEntity
  8
承台
100
AcDbVertex
100
AcDb2dVertex
 10
570996.5109517757
 20
785643.8130336332
 30
0.0
 70
0
  0
VERTEX
  5
D3
330
17
100
AcDbEntity
  8
承台
100
AcDbVertex
100
AcDb2dVertex
 10
570991.9294947063
 20
785649.1055048066
 30
0.0
 70
0
  0
VERTEX
  5
D4
330
17
100
AcDbEntity
  8
承台
100
AcDbVertex
100
AcDb2dVertex
 10
570986.6370235329
 20
785644.5240477372
 30
0.0
 70
0
  0
SEQEND
  5
D0
330
CF
100
AcDbEntity
  8
承台
  0
CIRCLE
  5
D5
330
17
100
AcDbEntity
  8
桩基
100
AcDbCircle
 10
571034.9401122978
 20
785664.79670862
 30
0.0
 40
0.75
  0
TEXT
  5
D6
330
17
100
AcDbEntity
  8
桩基
100
AcDbText
 10
571034.9401122978
 20
785664.79670862
 30
0.0
 40
0.1
  1
(R2-4, pk= 353.364, E=571034.940,N785664.797)
 72
1
 11
571034.9401122978
 21
785664.79670862
 31
0.0
100
AcDbText
 73
2
  0
CIRCLE
  5
D7
330
17
100
AcDbEntity
  8
桩基
100
AcDbCircle
 10
571039.3277027038
 20
785665.7962337224
 30
0.0
 40
0.75
  0
TEXT
  5
D8
330
17
100
AcDbEntity
  8
桩基
100
AcDbText
 10
571039.3277027038
 20
785665.7962337224
 30
0.0
 40
0.1
  1
(R2-4, pk= 353.364, E=571039.328,N785665.796)
 72
1
 11
571039.3277027038
 21
785665.7962337224
 31
0.0
100
AcDbText
 73
2
  0
CIRCLE
  5
D9
330
17
100
AcDbEntity
  8
桩基
100
AcDbCircle
 10
571033.9405871955
 20
785669.184299026
 30
0.0
 40
0.75
  0
TEXT
  5
DA
330
17
100
AcDbEntity
  8
桩基
100
AcDbText
 10
571033.9405871955
 20
785669.184299026
 30
0.0
 40
0.1
  1
(R2-4, pk= 353.364, E=571033.941,N785669.184)
 72
1
 11
571033.9405871955
 21
785669.184299026
 31
0.0
100
AcDbText
 73
2
  0
CIRCLE
  5
DB
330
17
100
AcDbEntity
  8
桩基
100
AcDbCircle
 10
571038.3281776014
 20
785670.1838241284
 30
0.0
 40
0.75
  0
TEXT
  5
DC
330
17
100
AcDbEntity
  8
桩基
100
AcDbText
 10
571038.3281776014
 20
785670.1838241284
 30
0.0
 40
0.1
  1
(R2-4, pk= 353.364, E=571038.328,N785670.184)
 72
1
 11
571038.3281776014
 21
785670.1838241284
 31
0.0
100
AcDbText
 73
2
  0
POLYLINE
  5
DD
330
17
100
AcDbEntity
  8
承台
100
AcDb2dPolyline
 66
1
 10
0.0
 20
0.0
 30
0.0
 70
1
  0
VERTEX
  5
DF
330
17
100
AcDbEntity
  8
承台
100
AcDbVertex
100
AcDb2dVertex
 10
571033.9989830467
 20
785663.3002876455
 30
0.0
 70
0
  0
VERTEX
  5
E0
330
17
100
AcDbEntity
  8
承台
100
AcDbVertex
100
AcDb2dVertex
 10
571040.8241236783
 20
785664.8551044713
 30
0.0
 70
0
  0
VERTEX
  5
E1
330
17
100
AcDbEntity
  8
承台
100
AcDbVertex
100
AcDb2dVertex
 10
571039.2693068525
 20
785671.6802451028
 30
0.0
 70
0
  0
VERTEX
  5
E2
330
17
100
AcDbEntity
  8
承台
100
AcDbVertex
100
AcDb2dVertex
 10
571032.444166221
 20
785670.1254282771
 30
0.0
 70
0
  0
SEQEND
  5
DE
330
DD
100
AcDbEntity
  8
承台
  0
CIRCLE
  5
E3
330
17
100
AcDbEntity
  8
桩基
100
AcDbCircle
 10
571079.3362416591
 20
785666.889608313
 30
0.0
 40
0.75
  0
TEXT
  5
E4
330
17
100
AcDbEntity
  8
桩基
100
AcDbText
 10
571079.3362416591
 20
785666.889608313
 30
0.0
 40
0.1
  1
(R2-5, pk= 399.364, E=571079.336,N785666.890)
 72
1
 11
571079.3362416591
 21
785666.889608313
 31
0.0
100
AcDbText
 73
2
  0
CIRCLE
  5
E5
330
17
100
AcDbEntity
  8
桩基
100
AcDbCircle
 10
571083.7957658257
 20
785666.2874088382
 30
0.0
 40
0.75
  0
TEXT
  5
E6
330
17
100
AcDbEntity
  8
桩基
100
AcDbText
 10
571083.7957658257
 20
785666.2874088382
 30
0.0
 40
0.1
  1
(R2-5, pk= 399.364, E=571083.796,N785666.287)
 72
1
 11
571083.7957658257
 21
785666.2874088382
 31
0.0
100
AcDbText
 73
2
  0
CIRCLE
  5
E7
330
17
100
AcDbEntity
  8
桩基
100
AcDbCircle
 10
571079.9384411339
 20
785671.3491324795
 30
0.0
 40
0.75
  0
TEXT
  5
E8
330
17
100
AcDbEntity
  8
桩基
100
AcDbText
 10
571079.9384411339
 20
785671.3491324795
 30
0.0
 40
0.1
  1
(R2-5, pk= 399.364, E=571079.938,N785671.349)
 72
1
 11
571079.9384411339
 21
785671.3491324795
 31
0.0
100
AcDbText
 73
2
  0
CIRCLE
  5
E9
330
17
100
AcDbEntity
  8
桩基
100
AcDbCircle
 10
571084.3979653005
 20
785670.7469330047
 30
0.0
 40
0.75
  0
TEXT
  5
EA
330
17
100
AcDbEntity
  8
桩基
100
AcDbText
 10
571084.3979653005
 20
785670.7469330047
 30
0.0
 40
0.1
  1
(R2-5, pk= 399.364, E=571084.398,N785670.747)
 72
1
 11
571084.3979653005
 21
785670.7469330047
 31
0.0
100
AcDbText
 73
2
  0
POLYLINE
  5
EB
330
17
100
AcDbEntity
  8
承台
100
AcDb2dPolyline
 66
1
 10
0.0
 20
0.0
 30
0.0
 70
1
  0
VERTEX
  5
ED
330
17
100
AcDbEntity
  8
承台
100
AcDbVertex
100
AcDb2dVertex
 10
571077.9302073143
 20
785665.8181292319
 30
0.0
 70
0
  0
VERTEX
  5
EE
330
17
100
AcDbEntity
  8
承台
100
AcDbVertex
100
AcDb2dVertex
 10
571084.8672449067
 20
785664.8813744934
 30
0.0
 70
0
  0
VERTEX
  5
EF
330
17
100
AcDbEntity
  8
承台
100
AcDbVertex
100
AcDb2dVertex
 10
571085.8039996453
 20
785671.8184120858
 30
0.0
 70
0
  0
VERTEX
  5
F0
330
17
100
AcDbEntity
  8
承台
100
AcDbVertex
100
AcDb2dVertex
 10
571078.8669620529
 20
785672.7551668243
 30
0.0
 70
0
  0
SEQEND
  5
EC
330
EB
100
AcDbEntity
  8
承台
  0
CIRCLE
  5
F1
330
17
100
AcDbEntity
  8
桩基
100
AcDbCircle
 10
571114.5407444614
 20
785660.7126913798
 30
0.0
 40
0.75
  0
TEXT
  5
F2
330
17
100
AcDbEntity
  8
桩基
100
AcDbText
 10
571114.5407444614
 20
785660.7126913798
 30
0.0
 40
0.1
  1
(R2-6, pk= 435.364, E=571114.541,N785660.713)
 72
1
 11
571114.5407444614
 21
785660.7126913798
 31
0.0
100
AcDbText
 73
2
  0
CIRCLE
  5
F3
330
17
100
AcDbEntity
  8
桩基
100
AcDbCircle
 10
571118.9432405978
 20
785659.7810113014
 30
0.0
 40
0.75
  0
TEXT
  5
F4
330
17
100
AcDbEntity
  8
桩基
100
AcDbText
 10
571118.9432405978
 20
785659.7810113014
 30
0.0
 40
0.1
  1
(R2-6, pk= 435.364, E=571118.943,N785659.781)
 72
1
 11
571118.9432405978
 21
785659.7810113014
 31
0.0
100
AcDbText
 73
2
  0
CIRCLE
  5
F5
330
17
100
AcDbEntity
  8
桩基
100
AcDbCircle
 10
571115.4724245397
 20
785665.1151875163
 30
0.0
 40
0.75
  0
TEXT
  5
F6
330
17
100
AcDbEntity
  8
桩基
100
AcDbText
 10
571115.4724245397
 20
785665.1151875163
 30
0.0
 40
0.1
  1
(R2-6, pk= 435.364, E=571115.472,N785665.115)
 72
1
 11
571115.4724245397
 21
785665.1151875163
 31
0.0
100
AcDbText
 73
2
  0
CIRCLE
  5
F7
330
17
100
AcDbEntity
  8
桩基
100
AcDbCircle
 10
571119.8749206762
 20
785664.1835074379
 30
0.0
 40
0.75
  0
TEXT
  5
F8
330
17
100
AcDbEntity
  8
桩基
100
AcDbText
 10
571119.8749206762
 20
785664.1835074379
 30
0.0
 40
0.1
  1
(R2-6, pk= 435.364, E=571119.875,N785664.184)
 72
1
 11
571119.8749206762
 21
785664.1835074379
 31
0.0
100
AcDbText
 73
2
  0
POLYLINE
  5
F9
330
17
100
AcDbEntity
  8
承台
100
AcDb2dPolyline
 66
1
 10
0.0
 20
0.0
 30
0.0
 70
1
  0
VERTEX
  5
FB
330
17
100
AcDbEntity
  8
承台
100
AcDbVertex
100
AcDb2dVertex
 10
571113.0590288461
 20
785659.7485758081
 30
0.0
 70
0
  0
VERTEX
  5
FC
330
17
100
AcDbEntity
  8
承台
100
AcDbVertex
100
AcDb2dVertex
 10
571119.9073561695
 20
785658.2992956862
 30
0.0
 70
0
  0
VERTEX
  5
FD
330
17
100
AcDbEntity
  8
承台
100
AcDbVertex
100
AcDb2dVertex
 10
571121.3566362915
 20
785665.1476230096
 30
0.0
 70
0
  0
VERTEX
  5
FE
330
17
100
AcDbEntity
  8
承台
100
AcDbVertex
100
AcDb2dVertex
 10
571114.508308968
 20
785666.5969031316
 30
0.0
 70
0
  0
SEQEND
  5
FA
330
F9
100
AcDbEntity
  8
承台
  0
CIRCLE
  5
FF
330
17
100
AcDbEntity
  8
桩基
100
AcDbCircle
 10
571144.0844180591
 20
785654.4604474347
 30
0.0
 40
0.75
  0
TEXT
  5
100
330
17
100
AcDbEntity
  8
桩基
100
AcDbText
 10
571144.0844180591
 20
785654.4604474347
 30
0.0
 40
0.1
  1
(R2-7, pk= 465.562, E=571144.084,N785654.460)
 72
1
 11
571144.0844180591
 21
785654.4604474347
 31
0.0
100
AcDbText
 73
2
  0
CIRCLE
  5
101
330
17
100
AcDbEntity
  8
桩基
100
AcDbCircle
 10
571148.4869141956
 20
785653.5287673563
 30
0.0
 40
0.75
  0
TEXT
  5
102
330
17
100
AcDbEntity
  8
桩基
100
AcDbText
 10
571148.4869141956
 20
785653.5287673563
 30
0.0
 40
0.1
  1
(R2-7, pk= 465.562, E=571148.487,N785653.529)
 72
1
 11
571148.4869141956
 21
785653.5287673563
 31
0.0
100
AcDbText
 73
2
  0
CIRCLE
  5
103
330
17
100
AcDbEntity
  8
桩基
100
AcDbCircle
 10
571145.0160981375
 20
785658.8629435712
 30
0.0
 40
0.75
  0
TEXT
  5
104
330
17
100
AcDbEntity
  8
桩基
100
AcDbText
 10
571145.0160981375
 20
785658.8629435712
 30
0.0
 40
0.1
  1
(R2-7, pk= 465.562, E=571145.016,N785658.863)
 72
1
 11
571145.0160981375
 21
785658.8629435712
 31
0.0
100
AcDbText
 73
2
  0
CIRCLE
  5
105
330
17
100
AcDbEntity
  8
桩基
100
AcDbCircle
 10
571149.418594274
 20
785657.9312634928
 30
0.0
 40
0.75
  0
TEXT
  5
106
330
17
100
AcDbEntity
  8
桩基
100
AcDbText
 10
571149.418594274
 20
785657.9312634928
 30
0.0
 40
0.1
  1
(R2-7, pk= 465.562, E=571149.419,N785657.931)
 72
1
 11
571149.418594274
 21
785657.9312634928
 31
0.0
100
AcDbText
 73
2
  0
POLYLINE
  5
107
330
17
100
AcDbEntity
  8
承台
100
AcDb2dPolyline
 66
1
 10
0.0
 20
0.0
 30
0.0
 70
1
  0
VERTEX
  5
109
330
17
100
AcDbEntity
  8
承台
100
AcDbVertex
100
AcDb2dVertex
 10
571142.6027024438
 20
785653.496331863
 30
0.0
 70
0
  0
VERTEX
  5
10A
330
17
100
AcDbEntity
  8
承台
100
AcDbVertex
100
AcDb2dVertex
 10
571149.4510297673
 20
785652.047051741
 30
0.0
 70
0
  0
VERTEX
  5
10B
330
17
100
AcDbEntity
  8
承台
100
AcDbVertex
100
AcDb2dVertex
 10
571150.9003098892
 20
785658.8953790645
 30
0.0
 70
0
  0
VERTEX
  5
10C
330
17
100
AcDbEntity
  8
承台
100
AcDbVertex
100
AcDb2dVertex
 10
571144.0519825658
 20
785660.3446591864
 30
0.0
 70
0
  0
SEQEND
  5
108
330
107
100
AcDbEntity
  8
承台
  0
CIRCLE
  5
10D
330
17
100
AcDbEntity
  8
桩基
100
AcDbCircle
 10
571188.1093638138
 20
785645.1435728889
 30
0.0
 40
0.75
  0
TEXT
  5
10E
330
17
100
AcDbEntity
  8
桩基
100
AcDbText
 10
571188.1093638138
 20
785645.1435728889
 30
0.0
 40
0.1
  1
(R2-8, pk= 510.562, E=571188.109,N785645.144)
 72
1
 11
571188.1093638138
 21
785645.1435728889
 31
0.0
100
AcDbText
 73
2
  0
CIRCLE
  5
10F
330
17
100
AcDbEntity
  8
桩基
100
AcDbCircle
 10
571192.5118599503
 20
785644.2118928105
 30
0.0
 40
0.75
  0
TEXT
  5
110
330
17
100
AcDbEntity
  8
桩基
100
AcDbText
 10
571192.5118599503
 20
785644.2118928105
 30
0.0
 40
0.1
  1
(R2-8, pk= 510.562, E=571192.512,N785644.212)
 72
1
 11
571192.5118599503
 21
785644.2118928105
 31
0.0
100
AcDbText
 73
2
  0
CIRCLE
  5
111
330
17
100
AcDbEntity
  8
桩基
100
AcDbCircle
 10
571189.0410438922
 20
785649.5460690254
 30
0.0
 40
0.75
  0
TEXT
  5
112
330
17
100
AcDbEntity
  8
桩基
100
AcDbText
 10
571189.0410438922
 20
785649.5460690254
 30
0.0
 40
0.1
  1
(R2-8, pk= 510.562, E=571189.041,N785649.546)
 72
1
 11
571189.0410438922
 21
785649.5460690254
 31
0.0
100
AcDbText
 73
2
  0
CIRCLE
  5
113
330
17
100
AcDbEntity
  8
桩基
100
AcDbCircle
 10
571193.4435400286
 20
785648.614388947
 30
0.0
 40
0.75
  0
TEXT
  5
114
330
17
100
AcDbEntity
  8
桩基
100
AcDbText
 10
571193.4435400286
 20
785648.614388947
 30
0.0
 40
0.1
  1
(R2-8, pk= 510.562, E=571193.444,N785648.614)
 72
1
 11
571193.4435400286
 21
785648.614388947
 31
0.0
100
AcDbText
 73
2
  0
POLYLINE
  5
115
330
17
100
AcDbEntity
  8
承台
100
AcDb2dPolyline
 66
1
 10
0.0
 20
0.0
 30
0.0
 70
1
  0
VERTEX
  5
117
330
17
100
AcDbEntity
  8
承台
100
AcDbVertex
100
AcDb2dVertex
 10
571186.6276481985
 20
785644.1794573172
 30
0.0
 70
0
  0
VERTEX
  5
118
330
17
100
AcDbEntity
  8
承台
100
AcDbVertex
100
AcDb2dVertex
 10
571193.475975522
 20
785642.7301771953
 30
0.0
 70
0
  0
VERTEX
  5
119
330
17
100
AcDbEntity
  8
承台
100
AcDbVertex
100
AcDb2dVertex
 10
571194.9252556439
 20
785649.5785045187
 30
0.0
 70
0
  0
VERTEX
  5
11A
330
17
100
AcDbEntity
  8
承台
100
AcDbVertex
100
AcDb2dVertex
 10
571188.0769283205
 20
785651.0277846407
 30
0.0
 70
0
  0
SEQEND
  5
116
330
115
100
AcDbEntity
  8
承台
  0
CIRCLE
  5
11B
330
17
100
AcDbEntity
  8
桩基
100
AcDbCircle
 10
571075.0872108989
 20
785754.7288970352
 30
0.0
 40
0.75
  0
TEXT
  5
11C
330
17
100
AcDbEntity
  8
桩基
100
AcDbText
 10
571075.0872108989
 20
785754.7288970352
 30
0.0
 40
0.1
  1
(R3-2, pk= 222.000, E=571075.087,N785754.729)
 72
1
 11
571075.0872108989
 21
785754.7288970352
 31
0.0
100
AcDbText
 73
2
  0
CIRCLE
  5
11D
330
17
100
AcDbEntity
  8
桩基
100
AcDbCircle
 10
571073.1564659191
 20
785750.6641431899
 30
0.0
 40
0.75
  0
TEXT
  5
11E
330
17
100
AcDbEntity
  8
桩基
100
AcDbText
 10
571073.1564659191
 20
785750.6641431899
 30
0.0
 40
0.1
  1
(R3-2, pk= 222.000, E=571073.156,N785750.664)
 72
1
 11
571073.1564659191
 21
785750.6641431899
 31
0.0
100
AcDbText
 73
2
  0
CIRCLE
  5
11F
330
17
100
AcDbEntity
  8
桩基
100
AcDbCircle
 10
571079.1519647442
 20
785752.7981520555
 30
0.0
 40
0.75
  0
TEXT
  5
120
330
17
100
AcDbEntity
  8
桩基
100
AcDbText
 10
571079.1519647442
 20
785752.7981520555
 30
0.0
 40
0.1
  1
(R3-2, pk= 222.000, E=571079.152,N785752.798)
 72
1
 11
571079.1519647442
 21
785752.7981520555
 31
0.0
100
AcDbText
 73
2
  0
CIRCLE
  5
121
330
17
100
AcDbEntity
  8
桩基
100
AcDbCircle
 10
571077.2212197644
 20
785748.7333982101
 30
0.0
 40
0.75
  0
TEXT
  5
122
330
17
100
AcDbEntity
  8
桩基
100
AcDbText
 10
571077.2212197644
 20
785748.7333982101
 30
0.0
 40
0.1
  1
(R3-2, pk= 222.000, E=571077.221,N785748.733)
 72
1
 11
571077.2212197644
 21
785748.7333982101
 31
0.0
100
AcDbText
 73
2
  0
POLYLINE
  5
123
330
17
100
AcDbEntity
  8
承台
100
AcDb2dPolyline
 66
1
 10
0.0
 20
0.0
 30
0.0
 70
1
  0
VERTEX
  5
125
330
17
100
AcDbEntity
  8
承台
100
AcDbVertex
100
AcDb2dVertex
 10
571074.4944306584
 20
785756.3943133756
 30
0.0
 70
0
  0
VERTEX
  5
126
330
17
100
AcDbEntity
  8
承台
100
AcDbVertex
100
AcDb2dVertex
 10
571071.4910495788
 20
785750.0713629494
 30
0.0
 70
0
  0
VERTEX
  5
127
330
17
100
AcDbEntity
  8
承台
100
AcDbVertex
100
AcDb2dVertex
 10
571077.8140000049
 20
785747.0679818698
 30
0.0
 70
0
  0
VERTEX
  5
128
330
17
100
AcDbEntity
  8
承台
100
AcDbVertex
100
AcDb2dVertex
 10
571080.8173810845
 20
785753.3909322959
 30
0.0
 70
0
  0
SEQEND
  5
124
330
123
100
AcDbEntity
  8
承台
  0
CIRCLE
  5
129
330
17
100
AcDbEntity
  8
桩基
100
AcDbCircle
 10
571067.9143147019
 20
785705.8384117383
 30
0.0
 40
0.75
  0
TEXT
  5
12A
330
17
100
AcDbEntity
  8
桩基
100
AcDbText
 10
571067.9143147019
 20
785705.8384117383
 30
0.0
 40
0.1
  1
(R3-3, pk= 272.000, E=571067.914,N785705.838)
 72
1
 11
571067.9143147019
 21
785705.8384117383
 31
0.0
100
AcDbText
 73
2
  0
CIRCLE
  5
12B
330
17
100
AcDbEntity
  8
桩基
100
AcDbCircle
 10
571068.9578936959
 20
785701.4610903104
 30
0.0
 40
0.75
  0
TEXT
  5
12C
330
17
100
AcDbEntity
  8
桩基
100
AcDbText
 10
571068.9578936959
 20
785701.4610903104
 30
0.0
 40
0.1
  1
(R3-3, pk= 272.000, E=571068.958,N785701.461)
 72
1
 11
571068.9578936959
 21
785701.4610903104
 31
0.0
100
AcDbText
 73
2
  0
CIRCLE
  5
12D
330
17
100
AcDbEntity
  8
桩基
100
AcDbCircle
 10
571072.2916361298
 20
785706.8819907323
 30
0.0
 40
0.75
  0
TEXT
  5
12E
330
17
100
AcDbEntity
  8
桩基
100
AcDbText
 10
571072.2916361298
 20
785706.8819907323
 30
0.0
 40
0.1
  1
(R3-3, pk= 272.000, E=571072.292,N785706.882)
 72
1
 11
571072.2916361298
 21
785706.8819907323
 31
0.0
100
AcDbText
 73
2
  0
CIRCLE
  5
12F
330
17
100
AcDbEntity
  8
桩基
100
AcDbCircle
 10
571073.3352151238
 20
785702.5046693044
 30
0.0
 40
0.75
  0
TEXT
  5
130
330
17
100
AcDbEntity
  8
桩基
100
AcDbText
 10
571073.3352151238
 20
785702.5046693044
 30
0.0
 40
0.1
  1
(R3-3, pk= 272.000, E=571073.335,N785702.505)
 72
1
 11
571073.3352151238
 21
785702.5046693044
 31
0.0
100
AcDbText
 73
2
  0
POLYLINE
  5
131
330
17
100
AcDbEntity
  8
承台
100
AcDb2dPolyline
 66
1
 10
0.0
 20
0.0
 30
0.0
 70
1
  0
VERTEX
  5
133
330
17
100
AcDbEntity
  8
承台
100
AcDbVertex
100
AcDb2dVertex
 10
571066.4085090292
 20
785706.7644513033
 30
0.0
 70
0
  0
VERTEX
  5
134
330
17
100
AcDbEntity
  8
承台
100
AcDbVertex
100
AcDb2dVertex
 10
571068.0318541309
 20
785699.9552846376
 30
0.0
 70
0
  0
VERTEX
  5
135
330
17
100
AcDbEntity
  8
承台
100
AcDbVertex
100
AcDb2dVertex
 10
571074.8410207966
 20
785701.5786297393
 30
0.0
 70
0
  0
VERTEX
  5
136
330
17
100
AcDbEntity
  8
承台
100
AcDbVertex
100
AcDb2dVertex
 10
571073.2176756948
 20
785708.387796405
 30
0.0
 70
0
  0
SEQEND
  5
132
330
131
100
AcDbEntity
  8
承台
  0
CIRCLE
  5
137
330
17
100
AcDbEntity
  8
桩基
100
AcDbCircle
 10
571080.0446322002
 20
785678.4130250139
 30
0.0
 40
0.75
  0
TEXT
  5
138
330
17
100
AcDbEntity
  8
桩基
100
AcDbText
 10
571080.0446322002
 20
785678.4130250139
 30
0.0
 40
0.1
  1
(R3-4, pk= 302.000, E=571080.045,N785678.413)
 72
1
 11
571080.0446322002
 21
785678.4130250139
 31
0.0
100
AcDbText
 73
2
  0
CIRCLE
  5
139
330
17
100
AcDbEntity
  8
桩基
100
AcDbCircle
 10
571082.8132001848
 20
785674.8654862454
 30
0.0
 40
0.75
  0
TEXT
  5
13A
330
17
100
AcDbEntity
  8
桩基
100
AcDbText
 10
571082.8132001848
 20
785674.8654862454
 30
0.0
 40
0.1
  1
(R3-4, pk= 302.000, E=571082.813,N785674.865)
 72
1
 11
571082.8132001848
 21
785674.8654862454
 31
0.0
100
AcDbText
 73
2
  0
CIRCLE
  5
13B
330
17
100
AcDbEntity
  8
桩基
100
AcDbCircle
 10
571083.5921709687
 20
785681.1815929986
 30
0.0
 40
0.75
  0
TEXT
  5
13C
330
17
100
AcDbEntity
  8
桩基
100
AcDbText
 10
571083.5921709687
 20
785681.1815929986
 30
0.0
 40
0.1
  1
(R3-4, pk= 302.000, E=571083.592,N785681.182)
 72
1
 11
571083.5921709687
 21
785681.1815929986
 31
0.0
100
AcDbText
 73
2
  0
CIRCLE
  5
13D
330
17
100
AcDbEntity
  8
桩基
100
AcDbCircle
 10
571086.3607389533
 20
785677.6340542301
 30
0.0
 40
0.75
  0
TEXT
  5
13E
330
17
100
AcDbEntity
  8
桩基
100
AcDbText
 10
571086.3607389533
 20
785677.6340542301
 30
0.0
 40
0.1
  1
(R3-4, pk= 302.000, E=571086.361,N785677.634)
 72
1
 11
571086.3607389533
 21
785677.6340542301
 31
0.0
100
AcDbText
 73
2
  0
POLYLINE
  5
13F
330
17
100
AcDbEntity
  8
承台
100
AcDb2dPolyline
 66
1
 10
0.0
 20
0.0
 30
0.0
 70
1
  0
VERTEX
  5
141
330
17
100
AcDbEntity
  8
承台
100
AcDbVertex
100
AcDb2dVertex
 10
571078.290158102
 20
785678.6294057871
 30
0.0
 70
0
  0
VERTEX
  5
142
330
17
100
AcDbEntity
  8
承台
100
AcDbVertex
100
AcDb2dVertex
 10
571082.5968194116
 20
785673.1110121473
 30
0.0
 70
0
  0
VERTEX
  5
143
330
17
100
AcDbEntity
  8
承台
100
AcDbVertex
100
AcDb2dVertex
 10
571088.1152130514
 20
785677.4176734568
 30
0.0
 70
0
  0
VERTEX
  5
144
330
17
100
AcDbEntity
  8
承台
100
AcDbVertex
100
AcDb2dVertex
 10
571083.8085517419
 20
785682.9360670967
 30
0.0
 70
0
  0
SEQEND
  5
140
330
13F
100
AcDbEntity
  8
承台
  0
CIRCLE
  5
145
330
17
100
AcDbEntity
  8
桩基
100
AcDbCircle
 10
571092.9746825902
 20
785786.907626324
 30
0.0
 40
0.75
  0
TEXT
  5
146
330
17
100
AcDbEntity
  8
桩基
100
AcDbText
 10
571092.9746825902
 20
785786.907626324
 30
0.0
 40
0.1
  1
(R4-1, pk= 180.888, E=571092.975,N785786.908)
 72
1
 11
571092.9746825902
 21
785786.907626324
 31
0.0
100
AcDbText
 73
2
  0
CIRCLE
  5
147
330
17
100
AcDbEntity
  8
桩基
100
AcDbCircle
 10
571091.4663364848
 20
785782.6679456726
 30
0.0
 40
0.75
  0
TEXT
  5
148
330
17
100
AcDbEntity
  8
桩基
100
AcDbText
 10
571091.4663364848
 20
785782.6679456726
 30
0.0
 40
0.1
  1
(R4-1, pk= 180.888, E=571091.466,N785782.668)
 72
1
 11
571091.4663364848
 21
785782.6679456726
 31
0.0
100
AcDbText
 73
2
  0
CIRCLE
  5
149
330
17
100
AcDbEntity
  8
桩基
100
AcDbCircle
 10
571097.2143632416
 20
785785.3992802184
 30
0.0
 40
0.75
  0
TEXT
  5
14A
330
17
100
AcDbEntity
  8
桩基
100
AcDbText
 10
571097.2143632416
 20
785785.3992802184
 30
0.0
 40
0.1
  1
(R4-1, pk= 180.888, E=571097.214,N785785.399)
 72
1
 11
571097.2143632416
 21
785785.3992802184
 31
0.0
100
AcDbText
 73
2
  0
CIRCLE
  5
14B
330
17
100
AcDbEntity
  8
桩基
100
AcDbCircle
 10
571095.7060171361
 20
785781.1595995671
 30
0.0
 40
0.75
  0
TEXT
  5
14C
330
17
100
AcDbEntity
  8
桩基
100
AcDbText
 10
571095.7060171361
 20
785781.1595995671
 30
0.0
 40
0.1
  1
(R4-1, pk= 180.888, E=571095.706,N785781.160)
 72
1
 11
571095.7060171361
 21
785781.1595995671
 31
0.0
100
AcDbText
 73
2
  0
CIRCLE
  5
14D
330
17
100
AcDbEntity
  8
桩基
100
AcDbCircle
 10
571101.454043893
 20
785783.890934113
 30
0.0
 40
0.75
  0
TEXT
  5
14E
330
17
100
AcDbEntity
  8
桩基
100
AcDbText
 10
571101.454043893
 20
785783.890934113
 30
0.0
 40
0.1
  1
(R4-1, pk= 180.888, E=571101.454,N785783.891)
 72
1
 11
571101.454043893
 21
785783.890934113
 31
0.0
100
AcDbText
 73
2
  0
CIRCLE
  5
14F
330
17
100
AcDbEntity
  8
桩基
100
AcDbCircle
 10
571099.9456977876
 20
785779.6512534616
 30
0.0
 40
0.75
  0
TEXT
  5
150
330
17
100
AcDbEntity
  8
桩基
100
AcDbText
 10
571099.9456977876
 20
785779.6512534616
 30
0.0
 40
0.1
  1
(R4-1, pk= 180.888, E=571099.946,N785779.651)
 72
1
 11
571099.9456977876
 21
785779.6512534616
 31
0.0
100
AcDbText
 73
2
  0
CIRCLE
  5
151
330
17
100
AcDbEntity
  8
桩基
100
AcDbCircle
 10
571105.6937245445
 20
785782.3825880075
 30
0.0
 40
0.75
  0
TEXT
  5
152
330
17
100
AcDbEntity
  8
桩基
100
AcDbText
 10
571105.6937245445
 20
785782.3825880075
 30
0.0
 40
0.1
  1
(R4-1, pk= 180.888, E=571105.694,N785782.383)
 72
1
 11
571105.6937245445
 21
785782.3825880075
 31
0.0
100
AcDbText
 73
2
  0
CIRCLE
  5
153
330
17
100
AcDbEntity
  8
桩基
100
AcDbCircle
 10
571104.185378439
 20
785778.1429073561
 30
0.0
 40
0.75
  0
TEXT
  5
154
330
17
100
AcDbEntity
  8
桩基
100
AcDbText
 10
571104.185378439
 20
785778.1429073561
 30
0.0
 40
0.1
  1
(R4-1, pk= 180.888, E=571104.185,N785778.143)
 72
1
 11
571104.185378439
 21
785778.1429073561
 31
0.0
100
AcDbText
 73
2
  0
CIRCLE
  5
155
330
17
100
AcDbEntity
  8
桩基
100
AcDbCircle
 10
571109.9334051958
 20
785780.8742419019
 30
0.0
 40
0.75
  0
TEXT
  5
156
330
17
100
AcDbEntity
  8
桩基
100
AcDbText
 10
571109.9334051958
 20
785780.8742419019
 30
0.0
 40
0.1
  1
(R4-1, pk= 180.888, E=571109.933,N785780.874)
 72
1
 11
571109.9334051958
 21
785780.8742419019
 31
0.0
100
AcDbText
 73
2
  0
CIRCLE
  5
157
330
17
100
AcDbEntity
  8
桩基
100
AcDbCircle
 10
571108.4250590904
 20
785776.6345612506
 30
0.0
 40
0.75
  0
TEXT
  5
158
330
17
100
AcDbEntity
  8
桩基
100
AcDbText
 10
571108.4250590904
 20
785776.6345612506
 30
0.0
 40
0.1
  1
(R4-1, pk= 180.888, E=571108.425,N785776.635)
 72
1
 11
571108.4250590904
 21
785776.6345612506
 31
0.0
100
AcDbText
 73
2
  0
POLYLINE
  5
159
330
17
100
AcDbEntity
  8
承台
100
AcDb2dPolyline
 66
1
 10
0.0
 20
0.0
 30
0.0
 70
1
  0
VERTEX
  5
15B
330
17
100
AcDbEntity
  8
承台
100
AcDbVertex
100
AcDb2dVertex
 10
571092.2159785497
 20
785788.5043004231
 30
0.0
 70
0
  0
VERTEX
  5
15C
330
17
100
AcDbEntity
  8
承台
100
AcDbVertex
100
AcDb2dVertex
 10
571089.8696623857
 20
785781.9092416321
 30
0.0
 70
0
  0
VERTEX
  5
15D
330
17
100
AcDbEntity
  8
承台
100
AcDbVertex
100
AcDb2dVertex
 10
571109.1837631309
 20
785775.0378871515
 30
0.0
 70
0
  0
VERTEX
  5
15E
330
17
100
AcDbEntity
  8
承台
100
AcDbVertex
100
AcDb2dVertex
 10
571111.5300792949
 20
785781.6329459425
 30
0.0
 70
0
  0
SEQEND
  5
15A
330
159
100
AcDbEntity
  8
承台
  0
CIRCLE
  5
15F
330
17
100
AcDbEntity
  8
桩基
100
AcDbCircle
 10
571089.1357591342
 20
785735.1649090869
 30
0.0
 40
0.75
  0
TEXT
  5
160
330
17
100
AcDbEntity
  8
桩基
100
AcDbText
 10
571089.1357591342
 20
785735.1649090869
 30
0.0
 40
0.1
  1
(R4-2, pk= 230.888, E=571089.136,N785735.165)
 72
1
 11
571089.1357591342
 21
785735.1649090869
 31
0.0
100
AcDbText
 73
2
  0
CIRCLE
  5
161
330
17
100
AcDbEntity
  8
桩基
100
AcDbCircle
 10
571089.5538204816
 20
785730.6843706472
 30
0.0
 40
0.75
  0
TEXT
  5
162
330
17
100
AcDbEntity
  8
桩基
100
AcDbText
 10
571089.5538204816
 20
785730.6843706472
 30
0.0
 40
0.1
  1
(R4-2, pk= 230.888, E=571089.554,N785730.684)
 72
1
 11
571089.5538204816
 21
785730.6843706472
 31
0.0
100
AcDbText
 73
2
  0
CIRCLE
  5
163
330
17
100
AcDbEntity
  8
桩基
100
AcDbCircle
 10
571093.6162975739
 20
785735.5829704343
 30
0.0
 40
0.75
  0
TEXT
  5
164
330
17
100
AcDbEntity
  8
桩基
100
AcDbText
 10
571093.6162975739
 20
785735.5829704343
 30
0.0
 40
0.1
  1
(R4-2, pk= 230.888, E=571093.616,N785735.583)
 72
1
 11
571093.6162975739
 21
785735.5829704343
 31
0.0
100
AcDbText
 73
2
  0
CIRCLE
  5
165
330
17
100
AcDbEntity
  8
桩基
100
AcDbCircle
 10
571094.0343589213
 20
785731.1024319946
 30
0.0
 40
0.75
  0
TEXT
  5
166
330
17
100
AcDbEntity
  8
桩基
100
AcDbText
 10
571094.0343589213
 20
785731.1024319946
 30
0.0
 40
0.1
  1
(R4-2, pk= 230.888, E=571094.034,N785731.102)
 72
1
 11
571094.0343589213
 21
785731.1024319946
 31
0.0
100
AcDbText
 73
2
  0
POLYLINE
  5
167
330
17
100
AcDbEntity
  8
承台
100
AcDb2dPolyline
 66
1
 10
0.0
 20
0.0
 30
0.0
 70
1
  0
VERTEX
  5
169
330
17
100
AcDbEntity
  8
承台
100
AcDbVertex
100
AcDb2dVertex
 10
571087.7750369711
 20
785736.2933749459
 30
0.0
 70
0
  0
VERTEX
  5
16A
330
17
100
AcDbEntity
  8
承台
100
AcDbVertex
100
AcDb2dVertex
 10
571088.4253546227
 20
785729.3236484841
 30
0.0
 70
0
  0
VERTEX
  5
16B
330
17
100
AcDbEntity
  8
承台
100
AcDbVertex
100
AcDb2dVertex
 10
571095.3950810845
 20
785729.9739661356
 30
0.0
 70
0
  0
VERTEX
  5
16C
330
17
100
AcDbEntity
  8
承台
100
AcDbVertex
100
AcDb2dVertex
 10
571094.7447634329
 20
785736.9436925974
 30
0.0
 70
0
  0
SEQEND
  5
168
330
167
100
AcDbEntity
  8
承台
  0
CIRCLE
  5
16D
330
17
100
AcDbEntity
  8
桩基
100
AcDbCircle
 10
571112.0541989648
 20
785690.3461868551
 30
0.0
 40
0.75
  0
TEXT
  5
16E
330
17
100
AcDbEntity
  8
桩基
100
AcDbText
 10
571112.0541989648
 20
785690.3461868551
 30
0.0
 40
0.1
  1
(R4-3, pk= 280.888, E=571112.054,N785690.346)
 72
1
 11
571112.0541989648
 21
785690.3461868551
 31
0.0
100
AcDbText
 73
2
  0
CIRCLE
  5
16F
330
17
100
AcDbEntity
  8
桩基
100
AcDbCircle
 10
571115.6294707829
 20
785687.6135267175
 30
0.0
 40
0.75
  0
TEXT
  5
170
330
17
100
AcDbEntity
  8
桩基
100
AcDbText
 10
571115.6294707829
 20
785687.6135267175
 30
0.0
 40
0.1
  1
(R4-3, pk= 280.888, E=571115.629,N785687.614)
 72
1
 11
571115.6294707829
 21
785687.6135267175
 31
0.0
100
AcDbText
 73
2
  0
CIRCLE
  5
171
330
17
100
AcDbEntity
  8
桩基
100
AcDbCircle
 10
571114.7868591024
 20
785693.9214586732
 30
0.0
 40
0.75
  0
TEXT
  5
172
330
17
100
AcDbEntity
  8
桩基
100
AcDbText
 10
571114.7868591024
 20
785693.9214586732
 30
0.0
 40
0.1
  1
(R4-3, pk= 280.888, E=571114.787,N785693.921)
 72
1
 11
571114.7868591024
 21
785693.9214586732
 31
0.0
100
AcDbText
 73
2
  0
CIRCLE
  5
173
330
17
100
AcDbEntity
  8
桩基
100
AcDbCircle
 10
571118.3621309205
 20
785691.1887985356
 30
0.0
 40
0.75
  0
TEXT
  5
174
330
17
100
AcDbEntity
  8
桩基
100
AcDbText
 10
571118.3621309205
 20
785691.1887985356
 30
0.0
 40
0.1
  1
(R4-3, pk= 280.888, E=571118.362,N785691.189)
 72
1
 11
571118.3621309205
 21
785691.1887985356
 31
0.0
100
AcDbText
 73
2
  0
POLYLINE
  5
175
330
17
100
AcDbEntity
  8
承台
100
AcDb2dPolyline
 66
1
 10
0.0
 20
0.0
 30
0.0
 70
1
  0
VERTEX
  5
177
330
17
100
AcDbEntity
  8
承台
100
AcDbVertex
100
AcDb2dVertex
 10
571110.3019956439
 20
785690.112128055
 30
0.0
 70
0
  0
VERTEX
  5
178
330
17
100
AcDbEntity
  8
承台
100
AcDbVertex
100
AcDb2dVertex
 10
571115.8635295831
 20
785685.8613233966
 30
0.0
 70
0
  0
VERTEX
  5
179
330
17
100
AcDbEntity
  8
承台
100
AcDbVertex
100
AcDb2dVertex
 10
571120.1143342415
 20
785691.4228573358
 30
0.0
 70
0
  0
VERTEX
  5
17A
330
17
100
AcDbEntity
  8
承台
100
AcDbVertex
100
AcDb2dVertex
 10
571114.5528003023
 20
785695.6736619942
 30
0.0
 70
0
  0
SEQEND
  5
176
330
175
100
AcDbEntity
  8
承台
  0
CIRCLE
  5
17B
330
17
100
AcDbEntity
  8
桩基
100
AcDbCircle
 10
571148.1972661838
 20
785671.6630619729
 30
0.0
 40
0.75
  0
TEXT
  5
17C
330
17
100
AcDbEntity
  8
桩基
100
AcDbText
 10
571148.1972661838
 20
785671.6630619729
 30
0.0
 40
0.1
  1
(R4-4, pk= 320.888, E=571148.197,N785671.663)
 72
1
 11
571148.1972661838
 21
785671.6630619729
 31
0.0
100
AcDbText
 73
2
  0
CIRCLE
  5
17D
330
17
100
AcDbEntity
  8
桩基
100
AcDbCircle
 10
571152.5051560947
 20
785670.3622604834
 30
0.0
 40
0.75
  0
TEXT
  5
17E
330
17
100
AcDbEntity
  8
桩基
100
AcDbText
 10
571152.5051560947
 20
785670.3622604834
 30
0.0
 40
0.1
  1
(R4-4, pk= 320.888, E=571152.505,N785670.362)
 72
1
 11
571152.5051560947
 21
785670.3622604834
 31
0.0
100
AcDbText
 73
2
  0
CIRCLE
  5
17F
330
17
100
AcDbEntity
  8
桩基
100
AcDbCircle
 10
571149.4980676733
 20
785675.9709518838
 30
0.0
 40
0.75
  0
TEXT
  5
180
330
17
100
AcDbEntity
  8
桩基
100
AcDbText
 10
571149.4980676733
 20
785675.9709518838
 30
0.0
 40
0.1
  1
(R4-4, pk= 320.888, E=571149.498,N785675.971)
 72
1
 11
571149.4980676733
 21
785675.9709518838
 31
0.0
100
AcDbText
 73
2
  0
CIRCLE
  5
181
330
17
100
AcDbEntity
  8
桩基
100
AcDbCircle
 10
571153.8059575842
 20
785674.6701503943
 30
0.0
 40
0.75
  0
TEXT
  5
182
330
17
100
AcDbEntity
  8
桩基
100
AcDbText
 10
571153.8059575842
 20
785674.6701503943
 30
0.0
 40
0.1
  1
(R4-4, pk= 320.888, E=571153.806,N785674.670)
 72
1
 11
571153.8059575842
 21
785674.6701503943
 31
0.0
100
AcDbText
 73
2
  0
POLYLINE
  5
183
330
17
100
AcDbEntity
  8
承台
100
AcDb2dPolyline
 66
1
 10
0.0
 20
0.0
 30
0.0
 70
1
  0
VERTEX
  5
185
330
17
100
AcDbEntity
  8
承台
100
AcDbVertex
100
AcDb2dVertex
 10
571146.6392963503
 20
785670.8277596337
 30
0.0
 70
0
  0
VERTEX
  5
186
330
17
100
AcDbEntity
  8
承台
100
AcDbVertex
100
AcDb2dVertex
 10
571153.340458434
 20
785668.80429065
 30
0.0
 70
0
  0
VERTEX
  5
187
330
17
100
AcDbEntity
  8
承台
100
AcDbVertex
100
AcDb2dVertex
 10
571155.3639274177
 20
785675.5054527336
 30
0.0
 70
0
  0
VERTEX
  5
188
330
17
100
AcDbEntity
  8
承台
100
AcDbVertex
100
AcDb2dVertex
 10
571148.662765334
 20
785677.5289217173
 30
0.0
 70
0
  0
SEQEND
  5
184
330
183
100
AcDbEntity
  8
承台
  0
CIRCLE
  5
189
330
17
100
AcDbEntity
  8
桩基
100
AcDbCircle
 10
571191.5702712614
 20
785659.4368802252
 30
0.0
 40
0.75
  0
TEXT
  5
18A
330
17
100
AcDbEntity
  8
桩基
100
AcDbText
 10
571191.5702712614
 20
785659.4368802252
 30
0.0
 40
0.1
  1
(R4-5, pk= 365.888, E=571191.570,N785659.437)
 72
1
 11
571191.5702712614
 21
785659.4368802252
 31
0.0
100
AcDbText
 73
2
  0
CIRCLE
  5
18B
330
17
100
AcDbEntity
  8
桩基
100
AcDbCircle
 10
571195.9046577715
 20
785658.2272961725
 30
0.0
 40
0.75
  0
TEXT
  5
18C
330
17
100
AcDbEntity
  8
桩基
100
AcDbText
 10
571195.9046577715
 20
785658.2272961725
 30
0.0
 40
0.1
  1
(R4-5, pk= 365.888, E=571195.905,N785658.227)
 72
1
 11
571195.9046577715
 21
785658.2272961725
 31
0.0
100
AcDbText
 73
2
  0
CIRCLE
  5
18D
330
17
100
AcDbEntity
  8
桩基
100
AcDbCircle
 10
571192.7798553141
 20
785663.7712667353
 30
0.0
 40
0.75
  0
TEXT
  5
18E
330
17
100
AcDbEntity
  8
桩基
100
AcDbText
 10
571192.7798553141
 20
785663.7712667353
 30
0.0
 40
0.1
  1
(R4-5, pk= 365.888, E=571192.780,N785663.771)
 72
1
 11
571192.7798553141
 21
785663.7712667353
 31
0.0
100
AcDbText
 73
2
  0
CIRCLE
  5
18F
330
17
100
AcDbEntity
  8
桩基
100
AcDbCircle
 10
571197.1142418241
 20
785662.5616826826
 30
0.0
 40
0.75
  0
TEXT
  5
190
330
17
100
AcDbEntity
  8
桩基
100
AcDbText
 10
571197.1142418241
 20
785662.5616826826
 30
0.0
 40
0.1
  1
(R4-5, pk= 365.888, E=571197.114,N785662.562)
 72
1
 11
571197.1142418241
 21
785662.5616826826
 31
0.0
100
AcDbText
 73
2
  0
POLYLINE
  5
191
330
17
100
AcDbEntity
  8
承台
100
AcDb2dPolyline
 66
1
 10
0.0
 20
0.0
 30
0.0
 70
1
  0
VERTEX
  5
193
330
17
100
AcDbEntity
  8
承台
100
AcDbVertex
100
AcDb2dVertex
 10
571190.0302794384
 20
785658.5688795425
 30
0.0
 70
0
  0
VERTEX
  5
194
330
17
100
AcDbEntity
  8
承台
100
AcDbVertex
100
AcDb2dVertex
 10
571196.7726584541
 20
785656.6873043495
 30
0.0
 70
0
  0
VERTEX
  5
195
330
17
100
AcDbEntity
  8
承台
100
AcDbVertex
100
AcDb2dVertex
 10
571198.6542336472
 20
785663.4296833653
 30
0.0
 70
0
  0
VERTEX
  5
196
330
17
100
AcDbEntity
  8
承台
100
AcDbVertex
100
AcDb2dVertex
 10
571191.9118546314
 20
785665.3112585583
 30
0.0
 70
0
  0
SEQEND
  5
192
330
191
100
AcDbEntity
  8
承台
  0
CIRCLE
  5
197
330
17
100
AcDbEntity
  8
桩基
100
AcDbCircle
 10
571234.8795121943
 20
785647.2169685217
 30
0.0
 40
0.75
  0
TEXT
  5
198
330
17
100
AcDbEntity
  8
桩基
100
AcDbText
 10
571234.8795121943
 20
785647.2169685217
 30
0.0
 40
0.1
  1
(R4-6, pk= 410.888, E=571234.880,N785647.217)
 72
1
 11
571234.8795121943
 21
785647.2169685217
 31
0.0
100
AcDbText
 73
2
  0
CIRCLE
  5
199
330
17
100
AcDbEntity
  8
桩基
100
AcDbCircle
 10
571239.2138987044
 20
785646.007384469
 30
0.0
 40
0.75
  0
TEXT
  5
19A
330
17
100
AcDbEntity
  8
桩基
100
AcDbText
 10
571239.2138987044
 20
785646.007384469
 30
0.0
 40
0.1
  1
(R4-6, pk= 410.888, E=571239.214,N785646.007)
 72
1
 11
571239.2138987044
 21
785646.007384469
 31
0.0
100
AcDbText
 73
2
  0
CIRCLE
  5
19B
330
17
100
AcDbEntity
  8
桩基
100
AcDbCircle
 10
571236.089096247
 20
785651.5513550318
 30
0.0
 40
0.75
  0
TEXT
  5
19C
330
17
100
AcDbEntity
  8
桩基
100
AcDbText
 10
571236.089096247
 20
785651.5513550318
 30
0.0
 40
0.1
  1
(R4-6, pk= 410.888, E=571236.089,N785651.551)
 72
1
 11
571236.089096247
 21
785651.5513550318
 31
0.0
100
AcDbText
 73
2
  0
CIRCLE
  5
19D
330
17
100
AcDbEntity
  8
桩基
100
AcDbCircle
 10
571240.4234827571
 20
785650.3417709791
 30
0.0
 40
0.75
  0
TEXT
  5
19E
330
17
100
AcDbEntity
  8
桩基
100
AcDbText
 10
571240.4234827571
 20
785650.3417709791
 30
0.0
 40
0.1
  1
(R4-6, pk= 410.888, E=571240.423,N785650.342)
 72
1
 11
571240.4234827571
 21
785650.3417709791
 31
0.0
100
AcDbText
 73
2
  0
POLYLINE
  5
19F
330
17
100
AcDbEntity
  8
承台
100
AcDb2dPolyline
 66
1
 10
0.0
 20
0.0
 30
0.0
 70
1
  0
VERTEX
  5
1A1
330
17
100
AcDbEntity
  8
承台
100
AcDbVertex
100
AcDb2dVertex
 10
571233.3395203713
 20
785646.348967839
 30
0.0
 70
0
  0
VERTEX
  5
1A2
330
17
100
AcDbEntity
  8
承台
100
AcDbVertex
100
AcDb2dVertex
 10
571240.0818993871
 20
785644.467392646
 30
0.0
 70
0
  0
VERTEX
  5
1A3
330
17
100
AcDbEntity
  8
承台
100
AcDbVertex
100
AcDb2dVertex
 10
571241.9634745801
 20
785651.2097716618
 30
0.0
 70
0
  0
VERTEX
  5
1A4
330
17
100
AcDbEntity
  8
承台
100
AcDbVertex
100
AcDb2dVertex
 10
571235.2210955643
 20
785653.0913468548
 30
0.0
 70
0
  0
SEQEND
  5
1A0
330
19F
100
AcDbEntity
  8
承台
  0
CIRCLE
  5
1A5
330
17
100
AcDbEntity
  8
桩基
100
AcDbCircle
 10
571566.2868368401
 20
785547.5644141851
 30
0.0
 40
0.75
  0
TEXT
  5
1A6
330
17
100
AcDbEntity
  8
桩基
100
AcDbText
 10
571566.2868368401
 20
785547.5644141851
 30
0.0
 40
0.1
  1
(W10, pk= 397.474, E=571566.287,N785547.564)
 72
1
 11
571566.2868368401
 21
785547.5644141851
 31
0.0
100
AcDbText
 73
2
  0
CIRCLE
  5
1A7
330
17
100
AcDbEntity
  8
桩基
100
AcDbCircle
 10
571570.6212233502
 20
785546.3548301324
 30
0.0
 40
0.75
  0
TEXT
  5
1A8
330
17
100
AcDbEntity
  8
桩基
100
AcDbText
 10
571570.6212233502
 20
785546.3548301324
 30
0.0
 40
0.1
  1
(W10, pk= 397.474, E=571570.621,N785546.355)
 72
1
 11
571570.6212233502
 21
785546.3548301324
 31
0.0
100
AcDbText
 73
2
  0
CIRCLE
  5
1A9
330
17
100
AcDbEntity
  8
桩基
100
AcDbCircle
 10
571567.4964208928
 20
785551.8988006952
 30
0.0
 40
0.75
  0
TEXT
  5
1AA
330
17
100
AcDbEntity
  8
桩基
100
AcDbText
 10
571567.4964208928
 20
785551.8988006952
 30
0.0
 40
0.1
  1
(W10, pk= 397.474, E=571567.496,N785551.899)
 72
1
 11
571567.4964208928
 21
785551.8988006952
 31
0.0
100
AcDbText
 73
2
  0
CIRCLE
  5
1AB
330
17
100
AcDbEntity
  8
桩基
100
AcDbCircle
 10
571571.8308074028
 20
785550.6892166425
 30
0.0
 40
0.75
  0
TEXT
  5
1AC
330
17
100
AcDbEntity
  8
桩基
100
AcDbText
 10
571571.8308074028
 20
785550.6892166425
 30
0.0
 40
0.1
  1
(W10, pk= 397.474, E=571571.831,N785550.689)
 72
1
 11
571571.8308074028
 21
785550.6892166425
 31
0.0
100
AcDbText
 73
2
  0
POLYLINE
  5
1AD
330
17
100
AcDbEntity
  8
承台
100
AcDb2dPolyline
 66
1
 10
0.0
 20
0.0
 30
0.0
 70
1
  0
VERTEX
  5
1AF
330
17
100
AcDbEntity
  8
承台
100
AcDbVertex
100
AcDb2dVertex
 10
571564.7468450171
 20
785546.6964135024
 30
0.0
 70
0
  0
VERTEX
  5
1B0
330
17
100
AcDbEntity
  8
承台
100
AcDbVertex
100
AcDb2dVertex
 10
571571.4892240328
 20
785544.8148383094
 30
0.0
 70
0
  0
VERTEX
  5
1B1
330
17
100
AcDbEntity
  8
承台
100
AcDbVertex
100
AcDb2dVertex
 10
571573.3707992259
 20
785551.5572173252
 30
0.0
 70
0
  0
VERTEX
  5
1B2
330
17
100
AcDbEntity
  8
承台
100
AcDbVertex
100
AcDb2dVertex
 10
571566.6284202101
 20
785553.4387925182
 30
0.0
 70
0
  0
SEQEND
  5
1AE
330
1AD
100
AcDbEntity
  8
承台
  0
CIRCLE
  5
1B3
330
17
100
AcDbEntity
  8
桩基
100
AcDbCircle
 10
571522.9430845878
 20
785559.660790053
 30
0.0
 40
0.75
  0
TEXT
  5
1B4
330
17
100
AcDbEntity
  8
桩基
100
AcDbText
 10
571522.9430845878
 20
785559.660790053
 30
0.0
 40
0.1
  1
(W11, pk= 352.474, E=571522.943,N785559.661)
 72
1
 11
571522.9430845878
 21
785559.660790053
 31
0.0
100
AcDbText
 73
2
  0
CIRCLE
  5
1B5
330
17
100
AcDbEntity
  8
桩基
100
AcDbCircle
 10
571527.2774521718
 20
785558.4511381823
 30
0.0
 40
0.75
  0
TEXT
  5
1B6
330
17
100
AcDbEntity
  8
桩基
100
AcDbText
 10
571527.2774521718
 20
785558.4511381823
 30
0.0
 40
0.1
  1
(W11, pk= 352.474, E=571527.277,N785558.451)
 72
1
 11
571527.2774521718
 21
785558.4511381823
 31
0.0
100
AcDbText
 73
2
  0
CIRCLE
  5
1B7
330
17
100
AcDbEntity
  8
桩基
100
AcDbCircle
 10
571524.1527364585
 20
785563.9951576369
 30
0.0
 40
0.75
  0
TEXT
  5
1B8
330
17
100
AcDbEntity
  8
桩基
100
AcDbText
 10
571524.1527364585
 20
785563.9951576369
 30
0.0
 40
0.1
  1
(W11, pk= 352.474, E=571524.153,N785563.995)
 72
1
 11
571524.1527364585
 21
785563.9951576369
 31
0.0
100
AcDbText
 73
2
  0
CIRCLE
  5
1B9
330
17
100
AcDbEntity
  8
桩基
100
AcDbCircle
 10
571528.4871040424
 20
785562.7855057663
 30
0.0
 40
0.75
  0
TEXT
  5
1BA
330
17
100
AcDbEntity
  8
桩基
100
AcDbText
 10
571528.4871040424
 20
785562.7855057663
 30
0.0
 40
0.1
  1
(W11, pk= 352.474, E=571528.487,N785562.786)
 72
1
 11
571528.4871040424
 21
785562.7855057663
 31
0.0
100
AcDbText
 73
2
  0
POLYLINE
  5
1BB
330
17
100
AcDbEntity
  8
承台
100
AcDb2dPolyline
 66
1
 10
0.0
 20
0.0
 30
0.0
 70
1
  0
VERTEX
  5
1BD
330
17
100
AcDbEntity
  8
承台
100
AcDbVertex
100
AcDb2dVertex
 10
571521.4030791838
 20
785558.7928134659
 30
0.0
 70
0
  0
VERTEX
  5
1BE
330
17
100
AcDbEntity
  8
承台
100
AcDbVertex
100
AcDb2dVertex
 10
571528.1454287588
 20
785556.9111327783
 30
0.0
 70
0
  0
VERTEX
  5
1BF
330
17
100
AcDbEntity
  8
承台
100
AcDbVertex
100
AcDb2dVertex
 10
571530.0271094465
 20
785563.6534823533
 30
0.0
 70
0
  0
VERTEX
  5
1C0
330
17
100
AcDbEntity
  8
承台
100
AcDbVertex
100
AcDb2dVertex
 10
571523.2847598714
 20
785565.535163041
 30
0.0
 70
0
  0
SEQEND
  5
1BC
330
1BB
100
AcDbEntity
  8
承台
  0
CIRCLE
  5
1C1
330
17
100
AcDbEntity
  8
桩基
100
AcDbCircle
 10
571479.5993567815
 20
785571.7571225488
 30
0.0
 40
0.75
  0
TEXT
  5
1C2
330
17
100
AcDbEntity
  8
桩基
100
AcDbText
 10
571479.5993567815
 20
785571.7571225488
 30
0.0
 40
0.1
  1
(W12, pk= 307.474, E=571479.599,N785571.757)
 72
1
 11
571479.5993567815
 21
785571.7571225488
 31
0.0
100
AcDbText
 73
2
  0
CIRCLE
  5
1C3
330
17
100
AcDbEntity
  8
桩基
100
AcDbCircle
 10
571483.9337243654
 20
785570.5474706781
 30
0.0
 40
0.75
  0
TEXT
  5
1C4
330
17
100
AcDbEntity
  8
桩基
100
AcDbText
 10
571483.9337243654
 20
785570.5474706781
 30
0.0
 40
0.1
  1
(W12, pk= 307.474, E=571483.934,N785570.547)
 72
1
 11
571483.9337243654
 21
785570.5474706781
 31
0.0
100
AcDbText
 73
2
  0
CIRCLE
  5
1C5
330
17
100
AcDbEntity
  8
桩基
100
AcDbCircle
 10
571480.8090086521
 20
785576.0914901327
 30
0.0
 40
0.75
  0
TEXT
  5
1C6
330
17
100
AcDbEntity
  8
桩基
100
AcDbText
 10
571480.8090086521
 20
785576.0914901327
 30
0.0
 40
0.1
  1
(W12, pk= 307.474, E=571480.809,N785576.091)
 72
1
 11
571480.8090086521
 21
785576.0914901327
 31
0.0
100
AcDbText
 73
2
  0
CIRCLE
  5
1C7
330
17
100
AcDbEntity
  8
桩基
100
AcDbCircle
 10
571485.1433762361
 20
785574.8818382621
 30
0.0
 40
0.75
  0
TEXT
  5
1C8
330
17
100
AcDbEntity
  8
桩基
100
AcDbText
 10
571485.1433762361
 20
785574.8818382621
 30
0.0
 40
0.1
  1
(W12, pk= 307.474, E=571485.143,N785574.882)
 72
1
 11
571485.1433762361
 21
785574.8818382621
 31
0.0
100
AcDbText
 73
2
  0
POLYLINE
  5
1C9
330
17
100
AcDbEntity
  8
承台
100
AcDb2dPolyline
 66
1
 10
0.0
 20
0.0
 30
0.0
 70
1
  0
VERTEX
  5
1CB
330
17
100
AcDbEntity
  8
承台
100
AcDbVertex
100
AcDb2dVertex
 10
571478.0593513774
 20
785570.8891459617
 30
0.0
 70
0
  0
VERTEX
  5
1CC
330
17
100
AcDbEntity
  8
承台
100
AcDbVertex
100
AcDb2dVertex
 10
571484.8017009525
 20
785569.0074652741
 30
0.0
 70
0
  0
VERTEX
  5
1CD
330
17
100
AcDbEntity
  8
承台
100
AcDbVertex
100
AcDb2dVertex
 10
571486.6833816401
 20
785575.7498148491
 30
0.0
 70
0
  0
VERTEX
  5
1CE
330
17
100
AcDbEntity
  8
承台
100
AcDbVertex
100
AcDb2dVertex
 10
571479.9410320651
 20
785577.6314955368
 30
0.0
 70
0
  0
SEQEND
  5
1CA
330
1C9
100
AcDbEntity
  8
承台
  0
CIRCLE
  5
1CF
330
17
100
AcDbEntity
  8
桩基
100
AcDbCircle
 10
571436.255628975
 20
785583.8534550444
 30
0.0
 40
0.75
  0
TEXT
  5
1D0
330
17
100
AcDbEntity
  8
桩基
100
AcDbText
 10
571436.255628975
 20
785583.8534550444
 30
0.0
 40
0.1
  1
(W13, pk= 262.474, E=571436.256,N785583.853)
 72
1
 11
571436.255628975
 21
785583.8534550444
 31
0.0
100
AcDbText
 73
2
  0
CIRCLE
  5
1D1
330
17
100
AcDbEntity
  8
桩基
100
AcDbCircle
 10
571440.589996559
 20
785582.6438031738
 30
0.0
 40
0.75
  0
TEXT
  5
1D2
330
17
100
AcDbEntity
  8
桩基
100
AcDbText
 10
571440.589996559
 20
785582.6438031738
 30
0.0
 40
0.1
  1
(W13, pk= 262.474, E=571440.590,N785582.644)
 72
1
 11
571440.589996559
 21
785582.6438031738
 31
0.0
100
AcDbText
 73
2
  0
CIRCLE
  5
1D3
330
17
100
AcDbEntity
  8
桩基
100
AcDbCircle
 10
571437.4652808456
 20
785588.1878226284
 30
0.0
 40
0.75
  0
TEXT
  5
1D4
330
17
100
AcDbEntity
  8
桩基
100
AcDbText
 10
571437.4652808456
 20
785588.1878226284
 30
0.0
 40
0.1
  1
(W13, pk= 262.474, E=571437.465,N785588.188)
 72
1
 11
571437.4652808456
 21
785588.1878226284
 31
0.0
100
AcDbText
 73
2
  0
CIRCLE
  5
1D5
330
17
100
AcDbEntity
  8
桩基
100
AcDbCircle
 10
571441.7996484296
 20
785586.9781707578
 30
0.0
 40
0.75
  0
TEXT
  5
1D6
330
17
100
AcDbEntity
  8
桩基
100
AcDbText
 10
571441.7996484296
 20
785586.9781707578
 30
0.0
 40
0.1
  1
(W13, pk= 262.474, E=571441.800,N785586.978)
 72
1
 11
571441.7996484296
 21
785586.9781707578
 31
0.0
100
AcDbText
 73
2
  0
POLYLINE
  5
1D7
330
17
100
AcDbEntity
  8
承台
100
AcDb2dPolyline
 66
1
 10
0.0
 20
0.0
 30
0.0
 70
1
  0
VERTEX
  5
1D9
330
17
100
AcDbEntity
  8
承台
100
AcDbVertex
100
AcDb2dVertex
 10
571434.715623571
 20
785582.9854784574
 30
0.0
 70
0
  0
VERTEX
  5
1DA
330
17
100
AcDbEntity
  8
承台
100
AcDbVertex
100
AcDb2dVertex
 10
571441.457973146
 20
785581.1037977698
 30
0.0
 70
0
  0
VERTEX
  5
1DB
330
17
100
AcDbEntity
  8
承台
100
AcDbVertex
100
AcDb2dVertex
 10
571443.3396538337
 20
785587.8461473448
 30
0.0
 70
0
  0
VERTEX
  5
1DC
330
17
100
AcDbEntity
  8
承台
100
AcDbVertex
100
AcDb2dVertex
 10
571436.5973042586
 20
785589.7278280325
 30
0.0
 70
0
  0
SEQEND
  5
1D8
330
1D7
100
AcDbEntity
  8
承台
  0
CIRCLE
  5
1DD
330
17
100
AcDbEntity
  8
桩基
100
AcDbCircle
 10
571394.1452730569
 20
785600.5465459977
 30
0.0
 40
0.75
  0
TEXT
  5
1DE
330
17
100
AcDbEntity
  8
桩基
100
AcDbText
 10
571394.1452730569
 20
785600.5465459977
 30
0.0
 40
0.1
  1
(W14, pk= 217.474, E=571394.145,N785600.547)
 72
1
 11
571394.1452730569
 21
785600.5465459977
 31
0.0
100
AcDbText
 73
2
  0
CIRCLE
  5
1DF
330
17
100
AcDbEntity
  8
桩基
100
AcDbCircle
 10
571398.499787131
 20
785599.4115538488
 30
0.0
 40
0.75
  0
TEXT
  5
1E0
330
17
100
AcDbEntity
  8
桩基
100
AcDbText
 10
571398.499787131
 20
785599.4115538488
 30
0.0
 40
0.1
  1
(W14, pk= 217.474, E=571398.500,N785599.412)
 72
1
 11
571398.499787131
 21
785599.4115538488
 31
0.0
100
AcDbText
 73
2
  0
CIRCLE
  5
1E1
330
17
100
AcDbEntity
  8
桩基
100
AcDbCircle
 10
571395.2802652059
 20
785604.9010600718
 30
0.0
 40
0.75
  0
TEXT
  5
1E2
330
17
100
AcDbEntity
  8
桩基
100
AcDbText
 10
571395.2802652059
 20
785604.9010600718
 30
0.0
 40
0.1
  1
(W14, pk= 217.474, E=571395.280,N785604.901)
 72
1
 11
571395.2802652059
 21
785604.9010600718
 31
0.0
100
AcDbText
 73
2
  0
CIRCLE
  5
1E3
330
17
100
AcDbEntity
  8
桩基
100
AcDbCircle
 10
571399.6347792799
 20
785603.7660679228
 30
0.0
 40
0.75
  0
TEXT
  5
1E4
330
17
100
AcDbEntity
  8
桩基
100
AcDbText
 10
571399.6347792799
 20
785603.7660679228
 30
0.0
 40
0.1
  1
(W14, pk= 217.474, E=571399.635,N785603.766)
 72
1
 11
571399.6347792799
 21
785603.7660679228
 31
0.0
100
AcDbText
 73
2
  0
POLYLINE
  5
1E5
330
17
100
AcDbEntity
  8
承台
100
AcDb2dPolyline
 66
1
 10
0.0
 20
0.0
 30
0.0
 70
1
  0
VERTEX
  5
1E7
330
17
100
AcDbEntity
  8
承台
100
AcDbVertex
100
AcDb2dVertex
 10
571392.6204102172
 20
785599.6522343518
 30
0.0
 70
0
  0
VERTEX
  5
1E8
330
17
100
AcDbEntity
  8
承台
100
AcDbVertex
100
AcDb2dVertex
 10
571399.3940987769
 20
785597.886691009
 30
0.0
 70
0
  0
VERTEX
  5
1E9
330
17
100
AcDbEntity
  8
承台
100
AcDbVertex
100
AcDb2dVertex
 10
571401.1596421197
 20
785604.6603795687
 30
0.0
 70
0
  0
VERTEX
  5
1EA
330
17
100
AcDbEntity
  8
承台
100
AcDbVertex
100
AcDb2dVertex
 10
571394.38595356
 20
785606.4259229115
 30
0.0
 70
0
  0
SEQEND
  5
1E6
330
1E5
100
AcDbEntity
  8
承台
  0
CIRCLE
  5
1EB
330
17
100
AcDbEntity
  8
桩基
100
AcDbCircle
 10
571391.631189781
 20
785590.9010070225
 30
0.0
 40
0.75
  0
TEXT
  5
1EC
330
17
100
AcDbEntity
  8
桩基
100
AcDbText
 10
571391.631189781
 20
785590.9010070225
 30
0.0
 40
0.1
  1
(W14, pk= 217.474, E=571391.631,N785590.901)
 72
1
 11
571391.631189781
 21
785590.9010070225
 31
0.0
100
AcDbText
 73
2
  0
CIRCLE
  5
1ED
330
17
100
AcDbEntity
  8
桩基
100
AcDbCircle
 10
571395.985703855
 20
785589.7660148735
 30
0.0
 40
0.75
  0
TEXT
  5
1EE
330
17
100
AcDbEntity
  8
桩基
100
AcDbText
 10
571395.985703855
 20
785589.7660148735
 30
0.0
 40
0.1
  1
(W14, pk= 217.474, E=571395.986,N785589.766)
 72
1
 11
571395.985703855
 21
785589.7660148735
 31
0.0
100
AcDbText
 73
2
  0
CIRCLE
  5
1EF
330
17
100
AcDbEntity
  8
桩基
100
AcDbCircle
 10
571392.76618193
 20
785595.2555210965
 30
0.0
 40
0.75
  0
TEXT
  5
1F0
330
17
100
AcDbEntity
  8
桩基
100
AcDbText
 10
571392.76618193
 20
785595.2555210965
 30
0.0
 40
0.1
  1
(W14, pk= 217.474, E=571392.766,N785595.256)
 72
1
 11
571392.76618193
 21
785595.2555210965
 31
0.0
100
AcDbText
 73
2
  0
CIRCLE
  5
1F1
330
17
100
AcDbEntity
  8
桩基
100
AcDbCircle
 10
571397.120696004
 20
785594.1205289476
 30
0.0
 40
0.75
  0
TEXT
  5
1F2
330
17
100
AcDbEntity
  8
桩基
100
AcDbText
 10
571397.120696004
 20
785594.1205289476
 30
0.0
 40
0.1
  1
(W14, pk= 217.474, E=571397.121,N785594.121)
 72
1
 11
571397.120696004
 21
785594.1205289476
 31
0.0
100
AcDbText
 73
2
  0
POLYLINE
  5
1F3
330
17
100
AcDbEntity
  8
承台
100
AcDb2dPolyline
 66
1
 10
0.0
 20
0.0
 30
0.0
 70
1
  0
VERTEX
  5
1F5
330
17
100
AcDbEntity
  8
承台
100
AcDbVertex
100
AcDb2dVertex
 10
571390.1063269413
 20
785590.0066953766
 30
0.0
 70
0
  0
VERTEX
  5
1F6
330
17
100
AcDbEntity
  8
承台
100
AcDbVertex
100
AcDb2dVertex
 10
571396.8800155009
 20
785588.2411520338
 30
0.0
 70
0
  0
VERTEX
  5
1F7
330
17
100
AcDbEntity
  8
承台
100
AcDbVertex
100
AcDb2dVertex
 10
571398.6455588437
 20
785595.0148405934
 30
0.0
 70
0
  0
VERTEX
  5
1F8
330
17
100
AcDbEntity
  8
承台
100
AcDbVertex
100
AcDb2dVertex
 10
571391.8718702841
 20
785596.7803839362
 30
0.0
 70
0
  0
SEQEND
  5
1F4
330
1F3
100
AcDbEntity
  8
承台
  0
CIRCLE
  5
1F9
330
17
100
AcDbEntity
  8
桩基
100
AcDbCircle
 10
571354.5195374144
 20
785611.0901239886
 30
0.0
 40
0.75
  0
TEXT
  5
1FA
330
17
100
AcDbEntity
  8
桩基
100
AcDbText
 10
571354.5195374144
 20
785611.0901239886
 30
0.0
 40
0.1
  1
(W15, pk= 177.474, E=571354.520,N785611.090)
 72
1
 11
571354.5195374144
 21
785611.0901239886
 31
0.0
100
AcDbText
 73
2
  0
CIRCLE
  5
1FB
330
17
100
AcDbEntity
  8
桩基
100
AcDbCircle
 10
571360.737694059
 20
785609.5753540577
 30
0.0
 40
0.75
  0
TEXT
  5
1FC
330
17
100
AcDbEntity
  8
桩基
100
AcDbText
 10
571360.737694059
 20
785609.5753540577
 30
0.0
 40
0.1
  1
(W15, pk= 177.474, E=571360.738,N785609.575)
 72
1
 11
571360.737694059
 21
785609.5753540577
 31
0.0
100
AcDbText
 73
2
  0
CIRCLE
  5
1FD
330
17
100
AcDbEntity
  8
桩基
100
AcDbCircle
 10
571358.3860007022
 20
785613.4418173454
 30
0.0
 40
0.75
  0
TEXT
  5
1FE
330
17
100
AcDbEntity
  8
桩基
100
AcDbText
 10
571358.3860007022
 20
785613.4418173454
 30
0.0
 40
0.1
  1
(W15, pk= 177.474, E=571358.386,N785613.442)
 72
1
 11
571358.3860007022
 21
785613.4418173454
 31
0.0
100
AcDbText
 73
2
  0
CIRCLE
  5
1FF
330
17
100
AcDbEntity
  8
桩基
100
AcDbCircle
 10
571356.0343073453
 20
785617.3082806332
 30
0.0
 40
0.75
  0
TEXT
  5
200
330
17
100
AcDbEntity
  8
桩基
100
AcDbText
 10
571356.0343073453
 20
785617.3082806332
 30
0.0
 40
0.1
  1
(W15, pk= 177.474, E=571356.034,N785617.308)
 72
1
 11
571356.0343073453
 21
785617.3082806332
 31
0.0
100
AcDbText
 73
2
  0
CIRCLE
  5
201
330
17
100
AcDbEntity
  8
桩基
100
AcDbCircle
 10
571362.2524639899
 20
785615.7935107023
 30
0.0
 40
0.75
  0
TEXT
  5
202
330
17
100
AcDbEntity
  8
桩基
100
AcDbText
 10
571362.2524639899
 20
785615.7935107023
 30
0.0
 40
0.1
  1
(W15, pk= 177.474, E=571362.252,N785615.794)
 72
1
 11
571362.2524639899
 21
785615.7935107023
 31
0.0
100
AcDbText
 73
2
  0
POLYLINE
  5
203
330
17
100
AcDbEntity
  8
承台
100
AcDb2dPolyline
 66
1
 10
0.0
 20
0.0
 30
0.0
 70
1
  0
VERTEX
  5
205
330
17
100
AcDbEntity
  8
承台
100
AcDbVertex
100
AcDb2dVertex
 10
571353.0092001926
 20
785610.171493771
 30
0.0
 70
0
  0
VERTEX
  5
206
330
17
100
AcDbEntity
  8
承台
100
AcDbVertex
100
AcDb2dVertex
 10
571361.6563242766
 20
785608.0650168359
 30
0.0
 70
0
  0
VERTEX
  5
207
330
17
100
AcDbEntity
  8
承台
100
AcDbVertex
100
AcDb2dVertex
 10
571363.7628012117
 20
785616.7121409199
 30
0.0
 70
0
  0
VERTEX
  5
208
330
17
100
AcDbEntity
  8
承台
100
AcDbVertex
100
AcDb2dVertex
 10
571355.1156771277
 20
785618.818617855
 30
0.0
 70
0
  0
SEQEND
  5
204
330
203
100
AcDbEntity
  8
承台
  0
CIRCLE
  5
209
330
17
100
AcDbEntity
  8
桩基
100
AcDbCircle
 10
571351.6485276932
 20
785599.3045796559
 30
0.0
 40
0.75
  0
TEXT
  5
20A
330
17
100
AcDbEntity
  8
桩基
100
AcDbText
 10
571351.6485276932
 20
785599.3045796559
 30
0.0
 40
0.1
  1
(W15, pk= 177.474, E=571351.649,N785599.305)
 72
1
 11
571351.6485276932
 21
785599.3045796559
 31
0.0
100
AcDbText
 73
2
  0
CIRCLE
  5
20B
330
17
100
AcDbEntity
  8
桩基
100
AcDbCircle
 10
571357.8666843378
 20
785597.789809725
 30
0.0
 40
0.75
  0
TEXT
  5
20C
330
17
100
AcDbEntity
  8
桩基
100
AcDbText
 10
571357.8666843378
 20
785597.789809725
 30
0.0
 40
0.1
  1
(W15, pk= 177.474, E=571357.867,N785597.790)
 72
1
 11
571357.8666843378
 21
785597.789809725
 31
0.0
100
AcDbText
 73
2
  0
CIRCLE
  5
20D
330
17
100
AcDbEntity
  8
桩基
100
AcDbCircle
 10
571355.514990981
 20
785601.6562730127
 30
0.0
 40
0.75
  0
TEXT
  5
20E
330
17
100
AcDbEntity
  8
桩基
100
AcDbText
 10
571355.514990981
 20
785601.6562730127
 30
0.0
 40
0.1
  1
(W15, pk= 177.474, E=571355.515,N785601.656)
 72
1
 11
571355.514990981
 21
785601.6562730127
 31
0.0
100
AcDbText
 73
2
  0
CIRCLE
  5
20F
330
17
100
AcDbEntity
  8
桩基
100
AcDbCircle
 10
571353.1632976241
 20
785605.5227363005
 30
0.0
 40
0.75
  0
TEXT
  5
210
330
17
100
AcDbEntity
  8
桩基
100
AcDbText
 10
571353.1632976241
 20
785605.5227363005
 30
0.0
 40
0.1
  1
(W15, pk= 177.474, E=571353.163,N785605.523)
 72
1
 11
571353.1632976241
 21
785605.5227363005
 31
0.0
100
AcDbText
 73
2
  0
CIRCLE
  5
211
330
17
100
AcDbEntity
  8
桩基
100
AcDbCircle
 10
571359.3814542687
 20
785604.0079663696
 30
0.0
 40
0.75
  0
TEXT
  5
212
330
17
100
AcDbEntity
  8
桩基
100
AcDbText
 10
571359.3814542687
 20
785604.0079663696
 30
0.0
 40
0.1
  1
(W15, pk= 177.474, E=571359.381,N785604.008)
 72
1
 11
571359.3814542687
 21
785604.0079663696
 31
0.0
100
AcDbText
 73
2
  0
POLYLINE
  5
213
330
17
100
AcDbEntity
  8
承台
100
AcDb2dPolyline
 66
1
 10
0.0
 20
0.0
 30
0.0
 70
1
  0
VERTEX
  5
215
330
17
100
AcDbEntity
  8
承台
100
AcDbVertex
100
AcDb2dVertex
 10
571350.1381904715
 20
785598.3859494383
 30
0.0
 70
0
  0
VERTEX
  5
216
330
17
100
AcDbEntity
  8
承台
100
AcDbVertex
100
AcDb2dVertex
 10
571358.7853145554
 20
785596.2794725032
 30
0.0
 70
0
  0
VERTEX
  5
217
330
17
100
AcDbEntity
  8
承台
100
AcDbVertex
100
AcDb2dVertex
 10
571360.8917914905
 20
785604.9265965872
 30
0.0
 70
0
  0
VERTEX
  5
218
330
17
100
AcDbEntity
  8
承台
100
AcDbVertex
100
AcDb2dVertex
 10
571352.2446674065
 20
785607.0330735223
 30
0.0
 70
0
  0
SEQEND
  5
214
330
213
100
AcDbEntity
  8
承台
  0
CIRCLE
  5
219
330
17
100
AcDbEntity
  8
桩基
100
AcDbCircle
 10
571315.4048354517
 20
785619.7195308629
 30
0.0
 40
0.75
  0
TEXT
  5
21A
330
17
100
AcDbEntity
  8
桩基
100
AcDbText
 10
571315.4048354517
 20
785619.7195308629
 30
0.0
 40
0.1
  1
(W16, pk= 137.474, E=571315.405,N785619.720)
 72
1
 11
571315.4048354517
 21
785619.7195308629
 31
0.0
100
AcDbText
 73
2
  0
CIRCLE
  5
21B
330
17
100
AcDbEntity
  8
桩基
100
AcDbCircle
 10
571321.6464058108
 20
785618.3043278909
 30
0.0
 40
0.75
  0
TEXT
  5
21C
330
17
100
AcDbEntity
  8
桩基
100
AcDbText
 10
571321.6464058108
 20
785618.3043278909
 30
0.0
 40
0.1
  1
(W16, pk= 137.474, E=571321.646,N785618.304)
 72
1
 11
571321.6464058108
 21
785618.3043278909
 31
0.0
100
AcDbText
 73
2
  0
CIRCLE
  5
21D
330
17
100
AcDbEntity
  8
桩基
100
AcDbCircle
 10
571319.2332221173
 20
785622.1327145564
 30
0.0
 40
0.75
  0
TEXT
  5
21E
330
17
100
AcDbEntity
  8
桩基
100
AcDbText
 10
571319.2332221173
 20
785622.1327145564
 30
0.0
 40
0.1
  1
(W16, pk= 137.474, E=571319.233,N785622.133)
 72
1
 11
571319.2332221173
 21
785622.1327145564
 31
0.0
100
AcDbText
 73
2
  0
CIRCLE
  5
21F
330
17
100
AcDbEntity
  8
桩基
100
AcDbCircle
 10
571316.8200384238
 20
785625.961101222
 30
0.0
 40
0.75
  0
TEXT
  5
220
330
17
100
AcDbEntity
  8
桩基
100
AcDbText
 10
571316.8200384238
 20
785625.961101222
 30
0.0
 40
0.1
  1
(W16, pk= 137.474, E=571316.820,N785625.961)
 72
1
 11
571316.8200384238
 21
785625.961101222
 31
0.0
100
AcDbText
 73
2
  0
CIRCLE
  5
221
330
17
100
AcDbEntity
  8
桩基
100
AcDbCircle
 10
571323.0616087829
 20
785624.54589825
 30
0.0
 40
0.75
  0
TEXT
  5
222
330
17
100
AcDbEntity
  8
桩基
100
AcDbText
 10
571323.0616087829
 20
785624.54589825
 30
0.0
 40
0.1
  1
(W16, pk= 137.474, E=571323.062,N785624.546)
 72
1
 11
571323.0616087829
 21
785624.54589825
 31
0.0
100
AcDbText
 73
2
  0
POLYLINE
  5
223
330
17
100
AcDbEntity
  8
承台
100
AcDb2dPolyline
 66
1
 10
0.0
 20
0.0
 30
0.0
 70
1
  0
VERTEX
  5
225
330
17
100
AcDbEntity
  8
承台
100
AcDbVertex
100
AcDb2dVertex
 10
571313.9093719105
 20
785618.7768809826
 30
0.0
 70
0
  0
VERTEX
  5
226
330
17
100
AcDbEntity
  8
承台
100
AcDbVertex
100
AcDb2dVertex
 10
571322.5890556911
 20
785616.8088643496
 30
0.0
 70
0
  0
VERTEX
  5
227
330
17
100
AcDbEntity
  8
承台
100
AcDbVertex
100
AcDb2dVertex
 10
571324.5570723241
 20
785625.4885481303
 30
0.0
 70
0
  0
VERTEX
  5
228
330
17
100
AcDbEntity
  8
承台
100
AcDbVertex
100
AcDb2dVertex
 10
571315.8773885434
 20
785627.4565647632
 30
0.0
 70
0
  0
SEQEND
  5
224
330
223
100
AcDbEntity
  8
承台
  0
CIRCLE
  5
229
330
17
100
AcDbEntity
  8
桩基
100
AcDbCircle
 10
571312.9135917452
 20
785608.7322214909
 30
0.0
 40
0.75
  0
TEXT
  5
22A
330
17
100
AcDbEntity
  8
桩基
100
AcDbText
 10
571312.9135917452
 20
785608.7322214909
 30
0.0
 40
0.1
  1
(W16, pk= 137.474, E=571312.914,N785608.732)
 72
1
 11
571312.9135917452
 21
785608.7322214909
 31
0.0
100
AcDbText
 73
2
  0
CIRCLE
  5
22B
330
17
100
AcDbEntity
  8
桩基
100
AcDbCircle
 10
571319.1551621043
 20
785607.3170185189
 30
0.0
 40
0.75
  0
TEXT
  5
22C
330
17
100
AcDbEntity
  8
桩基
100
AcDbText
 10
571319.1551621043
 20
785607.3170185189
 30
0.0
 40
0.1
  1
(W16, pk= 137.474, E=571319.155,N785607.317)
 72
1
 11
571319.1551621043
 21
785607.3170185189
 31
0.0
100
AcDbText
 73
2
  0
CIRCLE
  5
22D
330
17
100
AcDbEntity
  8
桩基
100
AcDbCircle
 10
571316.7419784107
 20
785611.1454051845
 30
0.0
 40
0.75
  0
TEXT
  5
22E
330
17
100
AcDbEntity
  8
桩基
100
AcDbText
 10
571316.7419784107
 20
785611.1454051845
 30
0.0
 40
0.1
  1
(W16, pk= 137.474, E=571316.742,N785611.145)
 72
1
 11
571316.7419784107
 21
785611.1454051845
 31
0.0
100
AcDbText
 73
2
  0
CIRCLE
  5
22F
330
17
100
AcDbEntity
  8
桩基
100
AcDbCircle
 10
571314.3287947172
 20
785614.97379185
 30
0.0
 40
0.75
  0
TEXT
  5
230
330
17
100
AcDbEntity
  8
桩基
100
AcDbText
 10
571314.3287947172
 20
785614.97379185
 30
0.0
 40
0.1
  1
(W16, pk= 137.474, E=571314.329,N785614.974)
 72
1
 11
571314.3287947172
 21
785614.97379185
 31
0.0
100
AcDbText
 73
2
  0
CIRCLE
  5
231
330
17
100
AcDbEntity
  8
桩基
100
AcDbCircle
 10
571320.5703650763
 20
785613.558588878
 30
0.0
 40
0.75
  0
TEXT
  5
232
330
17
100
AcDbEntity
  8
桩基
100
AcDbText
 10
571320.5703650763
 20
785613.558588878
 30
0.0
 40
0.1
  1
(W16, pk= 137.474, E=571320.570,N785613.559)
 72
1
 11
571320.5703650763
 21
785613.558588878
 31
0.0
100
AcDbText
 73
2
  0
POLYLINE
  5
233
330
17
100
AcDbEntity
  8
承台
100
AcDb2dPolyline
 66
1
 10
0.0
 20
0.0
 30
0.0
 70
1
  0
VERTEX
  5
235
330
17
100
AcDbEntity
  8
承台
100
AcDbVertex
100
AcDb2dVertex
 10
571311.418128204
 20
785607.7895716106
 30
0.0
 70
0
  0
VERTEX
  5
236
330
17
100
AcDbEntity
  8
承台
100
AcDbVertex
100
AcDb2dVertex
 10
571320.0978119846
 20
785605.8215549777
 30
0.0
 70
0
  0
VERTEX
  5
237
330
17
100
AcDbEntity
  8
承台
100
AcDbVertex
100
AcDb2dVertex
 10
571322.0658286175
 20
785614.5012387583
 30
0.0
 70
0
  0
VERTEX
  5
238
330
17
100
AcDbEntity
  8
承台
100
AcDbVertex
100
AcDb2dVertex
 10
571313.3861448369
 20
785616.4692553913
 30
0.0
 70
0
  0
SEQEND
  5
234
330
233
100
AcDbEntity
  8
承台
  0
CIRCLE
  5
239
330
17
100
AcDbEntity
  8
桩基
100
AcDbCircle
 10
571271.7709835792
 20
785620.4213625431
 30
0.0
 40
0.75
  0
TEXT
  5
23A
330
17
100
AcDbEntity
  8
桩基
100
AcDbText
 10
571271.7709835792
 20
785620.4213625431
 30
0.0
 40
0.1
  1
(W17, pk= 97.474, E=571271.771,N785620.421)
 72
1
 11
571271.7709835792
 21
785620.4213625431
 31
0.0
100
AcDbText
 73
2
  0
CIRCLE
  5
23B
330
17
100
AcDbEntity
  8
桩基
100
AcDbCircle
 10
571277.6428855922
 20
785619.1881688235
 30
0.0
 40
0.75
  0
TEXT
  5
23C
330
17
100
AcDbEntity
  8
桩基
100
AcDbText
 10
571277.6428855922
 20
785619.1881688235
 30
0.0
 40
0.1
  1
(W17, pk= 97.474, E=571277.643,N785619.188)
 72
1
 11
571277.6428855922
 21
785619.1881688235
 31
0.0
100
AcDbText
 73
2
  0
CIRCLE
  5
23D
330
17
100
AcDbEntity
  8
桩基
100
AcDbCircle
 10
571283.5147876051
 20
785617.9549751038
 30
0.0
 40
0.75
  0
TEXT
  5
23E
330
17
100
AcDbEntity
  8
桩基
100
AcDbText
 10
571283.5147876051
 20
785617.9549751038
 30
0.0
 40
0.1
  1
(W17, pk= 97.474, E=571283.515,N785617.955)
 72
1
 11
571283.5147876051
 21
785617.9549751038
 31
0.0
100
AcDbText
 73
2
  0
CIRCLE
  5
23F
330
17
100
AcDbEntity
  8
桩基
100
AcDbCircle
 10
571273.0041772989
 20
785626.2932645561
 30
0.0
 40
0.75
  0
TEXT
  5
240
330
17
100
AcDbEntity
  8
桩基
100
AcDbText
 10
571273.0041772989
 20
785626.2932645561
 30
0.0
 40
0.1
  1
(W17, pk= 97.474, E=571273.004,N785626.293)
 72
1
 11
571273.0041772989
 21
785626.2932645561
 31
0.0
100
AcDbText
 73
2
  0
CIRCLE
  5
241
330
17
100
AcDbEntity
  8
桩基
100
AcDbCircle
 10
571278.8760793118
 20
785625.0600708365
 30
0.0
 40
0.75
  0
TEXT
  5
242
330
17
100
AcDbEntity
  8
桩基
100
AcDbText
 10
571278.8760793118
 20
785625.0600708365
 30
0.0
 40
0.1
  1
(W17, pk= 97.474, E=571278.876,N785625.060)
 72
1
 11
571278.8760793118
 21
785625.0600708365
 31
0.0
100
AcDbText
 73
2
  0
CIRCLE
  5
243
330
17
100
AcDbEntity
  8
桩基
100
AcDbCircle
 10
571284.7479813248
 20
785623.8268771168
 30
0.0
 40
0.75
  0
TEXT
  5
244
330
17
100
AcDbEntity
  8
桩基
100
AcDbText
 10
571284.7479813248
 20
785623.8268771168
 30
0.0
 40
0.1
  1
(W17, pk= 97.474, E=571284.748,N785623.827)
 72
1
 11
571284.7479813248
 21
785623.8268771168
 31
0.0
100
AcDbText
 73
2
  0
CIRCLE
  5
245
330
17
100
AcDbEntity
  8
桩基
100
AcDbCircle
 10
571274.2373710184
 20
785632.1651665691
 30
0.0
 40
0.75
  0
TEXT
  5
246
330
17
100
AcDbEntity
  8
桩基
100
AcDbText
 10
571274.2373710184
 20
785632.1651665691
 30
0.0
 40
0.1
  1
(W17, pk= 97.474, E=571274.237,N785632.165)
 72
1
 11
571274.2373710184
 21
785632.1651665691
 31
0.0
100
AcDbText
 73
2
  0
CIRCLE
  5
247
330
17
100
AcDbEntity
  8
桩基
100
AcDbCircle
 10
571280.1092730314
 20
785630.9319728494
 30
0.0
 40
0.75
  0
TEXT
  5
248
330
17
100
AcDbEntity
  8
桩基
100
AcDbText
 10
571280.1092730314
 20
785630.9319728494
 30
0.0
 40
0.1
  1
(W17, pk= 97.474, E=571280.109,N785630.932)
 72
1
 11
571280.1092730314
 21
785630.9319728494
 31
0.0
100
AcDbText
 73
2
  0
CIRCLE
  5
249
330
17
100
AcDbEntity
  8
桩基
100
AcDbCircle
 10
571285.9811750443
 20
785629.6987791298
 30
0.0
 40
0.75
  0
TEXT
  5
24A
330
17
100
AcDbEntity
  8
桩基
100
AcDbText
 10
571285.9811750443
 20
785629.6987791298
 30
0.0
 40
0.1
  1
(W17, pk= 97.474, E=571285.981,N785629.699)
 72
1
 11
571285.9811750443
 21
785629.6987791298
 31
0.0
100
AcDbText
 73
2
  0
CIRCLE
  5
24B
330
17
100
AcDbEntity
  8
桩基
100
AcDbCircle
 10
571275.470564738
 20
785638.037068582
 30
0.0
 40
0.75
  0
TEXT
  5
24C
330
17
100
AcDbEntity
  8
桩基
100
AcDbText
 10
571275.470564738
 20
785638.037068582
 30
0.0
 40
0.1
  1
(W17, pk= 97.474, E=571275.471,N785638.037)
 72
1
 11
571275.470564738
 21
785638.037068582
 31
0.0
100
AcDbText
 73
2
  0
CIRCLE
  5
24D
330
17
100
AcDbEntity
  8
桩基
100
AcDbCircle
 10
571281.342466751
 20
785636.8038748624
 30
0.0
 40
0.75
  0
TEXT
  5
24E
330
17
100
AcDbEntity
  8
桩基
100
AcDbText
 10
571281.342466751
 20
785636.8038748624
 30
0.0
 40
0.1
  1
(W17, pk= 97.474, E=571281.342,N785636.804)
 72
1
 11
571281.342466751
 21
785636.8038748624
 31
0.0
100
AcDbText
 73
2
  0
CIRCLE
  5
24F
330
17
100
AcDbEntity
  8
桩基
100
AcDbCircle
 10
571287.214368764
 20
785635.5706811427
 30
0.0
 40
0.75
  0
TEXT
  5
250
330
17
100
AcDbEntity
  8
桩基
100
AcDbText
 10
571287.214368764
 20
785635.5706811427
 30
0.0
 40
0.1
  1
(W17, pk= 97.474, E=571287.214,N785635.571)
 72
1
 11
571287.214368764
 21
785635.5706811427
 31
0.0
100
AcDbText
 73
2
  0
POLYLINE
  5
251
330
17
100
AcDbEntity
  8
承台
100
AcDb2dPolyline
 66
1
 10
0.0
 20
0.0
 30
0.0
 70
1
  0
VERTEX
  5
253
330
17
100
AcDbEntity
  8
承台
100
AcDbVertex
100
AcDb2dVertex
 10
571270.2907553016
 20
785619.454964982
 30
0.0
 70
0
  0
VERTEX
  5
254
330
17
100
AcDbEntity
  8
承台
100
AcDbVertex
100
AcDb2dVertex
 10
571284.4811851663
 20
785616.4747468262
 30
0.0
 70
0
  0
VERTEX
  5
255
330
17
100
AcDbEntity
  8
承台
100
AcDbVertex
100
AcDb2dVertex
 10
571288.6945970416
 20
785636.5370787039
 30
0.0
 70
0
  0
VERTEX
  5
256
330
17
100
AcDbEntity
  8
承台
100
AcDbVertex
100
AcDb2dVertex
 10
571274.5041671769
 20
785639.5172968596
 30
0.0
 70
0
  0
SEQEND
  5
252
330
251
100
AcDbEntity
  8
承台
  0
CIRCLE
  5
257
330
17
100
AcDbEntity
  8
桩基
100
AcDbCircle
 10
571826.3491792323
 20
785474.9864625826
 30
0.0
 40
0.75
  0
TEXT
  5
258
330
17
100
AcDbEntity
  8
桩基
100
AcDbText
 10
571826.3491792323
 20
785474.9864625826
 30
0.0
 40
0.1
  1
(W4, pk= 667.474, E=571826.349,N785474.986)
 72
1
 11
571826.3491792323
 21
785474.9864625826
 31
0.0
100
AcDbText
 73
2
  0
CIRCLE
  5
259
330
17
100
AcDbEntity
  8
桩基
100
AcDbCircle
 10
571830.6835468162
 20
785473.776810712
 30
0.0
 40
0.75
  0
TEXT
  5
25A
330
17
100
AcDbEntity
  8
桩基
100
AcDbText
 10
571830.6835468162
 20
785473.776810712
 30
0.0
 40
0.1
  1
(W4, pk= 667.474, E=571830.684,N785473.777)
 72
1
 11
571830.6835468162
 21
785473.776810712
 31
0.0
100
AcDbText
 73
2
  0
CIRCLE
  5
25B
330
17
100
AcDbEntity
  8
桩基
100
AcDbCircle
 10
571827.5588311029
 20
785479.3208301666
 30
0.0
 40
0.75
  0
TEXT
  5
25C
330
17
100
AcDbEntity
  8
桩基
100
AcDbText
 10
571827.5588311029
 20
785479.3208301666
 30
0.0
 40
0.1
  1
(W4, pk= 667.474, E=571827.559,N785479.321)
 72
1
 11
571827.5588311029
 21
785479.3208301666
 31
0.0
100
AcDbText
 73
2
  0
CIRCLE
  5
25D
330
17
100
AcDbEntity
  8
桩基
100
AcDbCircle
 10
571831.8931986869
 20
785478.1111782959
 30
0.0
 40
0.75
  0
TEXT
  5
25E
330
17
100
AcDbEntity
  8
桩基
100
AcDbText
 10
571831.8931986869
 20
785478.1111782959
 30
0.0
 40
0.1
  1
(W4, pk= 667.474, E=571831.893,N785478.111)
 72
1
 11
571831.8931986869
 21
785478.1111782959
 31
0.0
100
AcDbText
 73
2
  0
POLYLINE
  5
25F
330
17
100
AcDbEntity
  8
承台
100
AcDb2dPolyline
 66
1
 10
0.0
 20
0.0
 30
0.0
 70
1
  0
VERTEX
  5
261
330
17
100
AcDbEntity
  8
承台
100
AcDbVertex
100
AcDb2dVertex
 10
571824.8091738282
 20
785474.1184859956
 30
0.0
 70
0
  0
VERTEX
  5
262
330
17
100
AcDbEntity
  8
承台
100
AcDbVertex
100
AcDb2dVertex
 10
571831.5515234033
 20
785472.2368053079
 30
0.0
 70
0
  0
VERTEX
  5
263
330
17
100
AcDbEntity
  8
承台
100
AcDbVertex
100
AcDb2dVertex
 10
571833.4332040909
 20
785478.979154883
 30
0.0
 70
0
  0
VERTEX
  5
264
330
17
100
AcDbEntity
  8
承台
100
AcDbVertex
100
AcDb2dVertex
 10
571826.6908545159
 20
785480.8608355706
 30
0.0
 70
0
  0
SEQEND
  5
260
330
25F
100
AcDbEntity
  8
承台
  0
CIRCLE
  5
265
330
17
100
AcDbEntity
  8
桩基
100
AcDbCircle
 10
571783.0054758718
 20
785487.0827517064
 30
0.0
 40
0.75
  0
TEXT
  5
266
330
17
100
AcDbEntity
  8
桩基
100
AcDbText
 10
571783.0054758718
 20
785487.0827517064
 30
0.0
 40
0.1
  1
(W5, pk= 622.474, E=571783.005,N785487.083)
 72
1
 11
571783.0054758718
 21
785487.0827517064
 31
0.0
100
AcDbText
 73
2
  0
CIRCLE
  5
267
330
17
100
AcDbEntity
  8
桩基
100
AcDbCircle
 10
571787.3398623819
 20
785485.8731676537
 30
0.0
 40
0.75
  0
TEXT
  5
268
330
17
100
AcDbEntity
  8
桩基
100
AcDbText
 10
571787.3398623819
 20
785485.8731676537
 30
0.0
 40
0.1
  1
(W5, pk= 622.474, E=571787.340,N785485.873)
 72
1
 11
571787.3398623819
 21
785485.8731676537
 31
0.0
100
AcDbText
 73
2
  0
CIRCLE
  5
269
330
17
100
AcDbEntity
  8
桩基
100
AcDbCircle
 10
571784.2150599245
 20
785491.4171382164
 30
0.0
 40
0.75
  0
TEXT
  5
26A
330
17
100
AcDbEntity
  8
桩基
100
AcDbText
 10
571784.2150599245
 20
785491.4171382164
 30
0.0
 40
0.1
  1
(W5, pk= 622.474, E=571784.215,N785491.417)
 72
1
 11
571784.2150599245
 21
785491.4171382164
 31
0.0
100
AcDbText
 73
2
  0
CIRCLE
  5
26B
330
17
100
AcDbEntity
  8
桩基
100
AcDbCircle
 10
571788.5494464346
 20
785490.2075541638
 30
0.0
 40
0.75
  0
TEXT
  5
26C
330
17
100
AcDbEntity
  8
桩基
100
AcDbText
 10
571788.5494464346
 20
785490.2075541638
 30
0.0
 40
0.1
  1
(W5, pk= 622.474, E=571788.549,N785490.208)
 72
1
 11
571788.5494464346
 21
785490.2075541638
 31
0.0
100
AcDbText
 73
2
  0
POLYLINE
  5
26D
330
17
100
AcDbEntity
  8
承台
100
AcDb2dPolyline
 66
1
 10
0.0
 20
0.0
 30
0.0
 70
1
  0
VERTEX
  5
26F
330
17
100
AcDbEntity
  8
承台
100
AcDbVertex
100
AcDb2dVertex
 10
571781.4654840488
 20
785486.2147510237
 30
0.0
 70
0
  0
VERTEX
  5
270
330
17
100
AcDbEntity
  8
承台
100
AcDbVertex
100
AcDb2dVertex
 10
571788.2078630646
 20
785484.3331758307
 30
0.0
 70
0
  0
VERTEX
  5
271
330
17
100
AcDbEntity
  8
承台
100
AcDbVertex
100
AcDb2dVertex
 10
571790.0894382576
 20
785491.0755548464
 30
0.0
 70
0
  0
VERTEX
  5
272
330
17
100
AcDbEntity
  8
承台
100
AcDbVertex
100
AcDb2dVertex
 10
571783.3470592418
 20
785492.9571300395
 30
0.0
 70
0
  0
SEQEND
  5
26E
330
26D
100
AcDbEntity
  8
承台
  0
CIRCLE
  5
273
330
17
100
AcDbEntity
  8
桩基
100
AcDbCircle
 10
571739.6617480655
 20
785499.1790842022
 30
0.0
 40
0.75
  0
TEXT
  5
274
330
17
100
AcDbEntity
  8
桩基
100
AcDbText
 10
571739.6617480655
 20
785499.1790842022
 30
0.0
 40
0.1
  1
(W6, pk= 577.474, E=571739.662,N785499.179)
 72
1
 11
571739.6617480655
 21
785499.1790842022
 31
0.0
100
AcDbText
 73
2
  0
CIRCLE
  5
275
330
17
100
AcDbEntity
  8
桩基
100
AcDbCircle
 10
571743.9961345756
 20
785497.9695001495
 30
0.0
 40
0.75
  0
TEXT
  5
276
330
17
100
AcDbEntity
  8
桩基
100
AcDbText
 10
571743.9961345756
 20
785497.9695001495
 30
0.0
 40
0.1
  1
(W6, pk= 577.474, E=571743.996,N785497.970)
 72
1
 11
571743.9961345756
 21
785497.9695001495
 31
0.0
100
AcDbText
 73
2
  0
CIRCLE
  5
277
330
17
100
AcDbEntity
  8
桩基
100
AcDbCircle
 10
571740.8713321182
 20
785503.5134707122
 30
0.0
 40
0.75
  0
TEXT
  5
278
330
17
100
AcDbEntity
  8
桩基
100
AcDbText
 10
571740.8713321182
 20
785503.5134707122
 30
0.0
 40
0.1
  1
(W6, pk= 577.474, E=571740.871,N785503.513)
 72
1
 11
571740.8713321182
 21
785503.5134707122
 31
0.0
100
AcDbText
 73
2
  0
CIRCLE
  5
279
330
17
100
AcDbEntity
  8
桩基
100
AcDbCircle
 10
571745.2057186282
 20
785502.3038866596
 30
0.0
 40
0.75
  0
TEXT
  5
27A
330
17
100
AcDbEntity
  8
桩基
100
AcDbText
 10
571745.2057186282
 20
785502.3038866596
 30
0.0
 40
0.1
  1
(W6, pk= 577.474, E=571745.206,N785502.304)
 72
1
 11
571745.2057186282
 21
785502.3038866596
 31
0.0
100
AcDbText
 73
2
  0
POLYLINE
  5
27B
330
17
100
AcDbEntity
  8
承台
100
AcDb2dPolyline
 66
1
 10
0.0
 20
0.0
 30
0.0
 70
1
  0
VERTEX
  5
27D
330
17
100
AcDbEntity
  8
承台
100
AcDbVertex
100
AcDb2dVertex
 10
571738.1217562425
 20
785498.3110835195
 30
0.0
 70
0
  0
VERTEX
  5
27E
330
17
100
AcDbEntity
  8
承台
100
AcDbVertex
100
AcDb2dVertex
 10
571744.8641352582
 20
785496.4295083265
 30
0.0
 70
0
  0
VERTEX
  5
27F
330
17
100
AcDbEntity
  8
承台
100
AcDbVertex
100
AcDb2dVertex
 10
571746.7457104513
 20
785503.1718873422
 30
0.0
 70
0
  0
VERTEX
  5
280
330
17
100
AcDbEntity
  8
承台
100
AcDbVertex
100
AcDb2dVertex
 10
571740.0033314355
 20
785505.0534625353
 30
0.0
 70
0
  0
SEQEND
  5
27C
330
27B
100
AcDbEntity
  8
承台
  0
CIRCLE
  5
281
330
17
100
AcDbEntity
  8
桩基
100
AcDbCircle
 10
571696.3180202591
 20
785511.2754166978
 30
0.0
 40
0.75
  0
TEXT
  5
282
330
17
100
AcDbEntity
  8
桩基
100
AcDbText
 10
571696.3180202591
 20
785511.2754166978
 30
0.0
 40
0.1
  1
(W7, pk= 532.474, E=571696.318,N785511.275)
 72
1
 11
571696.3180202591
 21
785511.2754166978
 31
0.0
100
AcDbText
 73
2
  0
CIRCLE
  5
283
330
17
100
AcDbEntity
  8
桩基
100
AcDbCircle
 10
571700.6524067692
 20
785510.0658326452
 30
0.0
 40
0.75
  0
TEXT
  5
284
330
17
100
AcDbEntity
  8
桩基
100
AcDbText
 10
571700.6524067692
 20
785510.0658326452
 30
0.0
 40
0.1
  1
(W7, pk= 532.474, E=571700.652,N785510.066)
 72
1
 11
571700.6524067692
 21
785510.0658326452
 31
0.0
100
AcDbText
 73
2
  0
CIRCLE
  5
285
330
17
100
AcDbEntity
  8
桩基
100
AcDbCircle
 10
571697.5276043118
 20
785515.6098032079
 30
0.0
 40
0.75
  0
TEXT
  5
286
330
17
100
AcDbEntity
  8
桩基
100
AcDbText
 10
571697.5276043118
 20
785515.6098032079
 30
0.0
 40
0.1
  1
(W7, pk= 532.474, E=571697.528,N785515.610)
 72
1
 11
571697.5276043118
 21
785515.6098032079
 31
0.0
100
AcDbText
 73
2
  0
CIRCLE
  5
287
330
17
100
AcDbEntity
  8
桩基
100
AcDbCircle
 10
571701.8619908219
 20
785514.4002191552
 30
0.0
 40
0.75
  0
TEXT
  5
288
330
17
100
AcDbEntity
  8
桩基
100
AcDbText
 10
571701.8619908219
 20
785514.4002191552
 30
0.0
 40
0.1
  1
(W7, pk= 532.474, E=571701.862,N785514.400)
 72
1
 11
571701.8619908219
 21
785514.4002191552
 31
0.0
100
AcDbText
 73
2
  0
POLYLINE
  5
289
330
17
100
AcDbEntity
  8
承台
100
AcDb2dPolyline
 66
1
 10
0.0
 20
0.0
 30
0.0
 70
1
  0
VERTEX
  5
28B
330
17
100
AcDbEntity
  8
承台
100
AcDbVertex
100
AcDb2dVertex
 10
571694.7780284361
 20
785510.4074160152
 30
0.0
 70
0
  0
VERTEX
  5
28C
330
17
100
AcDbEntity
  8
承台
100
AcDbVertex
100
AcDb2dVertex
 10
571701.5204074519
 20
785508.5258408221
 30
0.0
 70
0
  0
VERTEX
  5
28D
330
17
100
AcDbEntity
  8
承台
100
AcDbVertex
100
AcDb2dVertex
 10
571703.4019826449
 20
785515.2682198379
 30
0.0
 70
0
  0
VERTEX
  5
28E
330
17
100
AcDbEntity
  8
承台
100
AcDbVertex
100
AcDb2dVertex
 10
571696.6596036291
 20
785517.149795031
 30
0.0
 70
0
  0
SEQEND
  5
28A
330
289
100
AcDbEntity
  8
承台
  0
CIRCLE
  5
28F
330
17
100
AcDbEntity
  8
桩基
100
AcDbCircle
 10
571652.9742924528
 20
785523.3717491936
 30
0.0
 40
0.75
  0
TEXT
  5
290
330
17
100
AcDbEntity
  8
桩基
100
AcDbText
 10
571652.9742924528
 20
785523.3717491936
 30
0.0
 40
0.1
  1
(W8, pk= 487.474, E=571652.974,N785523.372)
 72
1
 11
571652.9742924528
 21
785523.3717491936
 31
0.0
100
AcDbText
 73
2
  0
CIRCLE
  5
291
330
17
100
AcDbEntity
  8
桩基
100
AcDbCircle
 10
571657.3086789629
 20
785522.162165141
 30
0.0
 40
0.75
  0
TEXT
  5
292
330
17
100
AcDbEntity
  8
桩基
100
AcDbText
 10
571657.3086789629
 20
785522.162165141
 30
0.0
 40
0.1
  1
(W8, pk= 487.474, E=571657.309,N785522.162)
 72
1
 11
571657.3086789629
 21
785522.162165141
 31
0.0
100
AcDbText
 73
2
  0
CIRCLE
  5
293
330
17
100
AcDbEntity
  8
桩基
100
AcDbCircle
 10
571654.1838765055
 20
785527.7061357037
 30
0.0
 40
0.75
  0
TEXT
  5
294
330
17
100
AcDbEntity
  8
桩基
100
AcDbText
 10
571654.1838765055
 20
785527.7061357037
 30
0.0
 40
0.1
  1
(W8, pk= 487.474, E=571654.184,N785527.706)
 72
1
 11
571654.1838765055
 21
785527.7061357037
 31
0.0
100
AcDbText
 73
2
  0
CIRCLE
  5
295
330
17
100
AcDbEntity
  8
桩基
100
AcDbCircle
 10
571658.5182630155
 20
785526.496551651
 30
0.0
 40
0.75
  0
TEXT
  5
296
330
17
100
AcDbEntity
  8
桩基
100
AcDbText
 10
571658.5182630155
 20
785526.496551651
 30
0.0
 40
0.1
  1
(W8, pk= 487.474, E=571658.518,N785526.497)
 72
1
 11
571658.5182630155
 21
785526.496551651
 31
0.0
100
AcDbText
 73
2
  0
POLYLINE
  5
297
330
17
100
AcDbEntity
  8
承台
100
AcDb2dPolyline
 66
1
 10
0.0
 20
0.0
 30
0.0
 70
1
  0
VERTEX
  5
299
330
17
100
AcDbEntity
  8
承台
100
AcDbVertex
100
AcDb2dVertex
 10
571651.4343006298
 20
785522.503748511
 30
0.0
 70
0
  0
VERTEX
  5
29A
330
17
100
AcDbEntity
  8
承台
100
AcDbVertex
100
AcDb2dVertex
 10
571658.1766796455
 20
785520.6221733179
 30
0.0
 70
0
  0
VERTEX
  5
29B
330
17
100
AcDbEntity
  8
承台
100
AcDbVertex
100
AcDb2dVertex
 10
571660.0582548386
 20
785527.3645523337
 30
0.0
 70
0
  0
VERTEX
  5
29C
330
17
100
AcDbEntity
  8
承台
100
AcDbVertex
100
AcDb2dVertex
 10
571653.3158758228
 20
785529.2461275267
 30
0.0
 70
0
  0
SEQEND
  5
298
330
297
100
AcDbEntity
  8
承台
  0
CIRCLE
  5
29D
330
17
100
AcDbEntity
  8
桩基
100
AcDbCircle
 10
571609.6305646464
 20
785535.4680816894
 30
0.0
 40
0.75
  0
TEXT
  5
29E
330
17
100
AcDbEntity
  8
桩基
100
AcDbText
 10
571609.6305646464
 20
785535.4680816894
 30
0.0
 40
0.1
  1
(W9, pk= 442.474, E=571609.631,N785535.468)
 72
1
 11
571609.6305646464
 21
785535.4680816894
 31
0.0
100
AcDbText
 73
2
  0
CIRCLE
  5
29F
330
17
100
AcDbEntity
  8
桩基
100
AcDbCircle
 10
571613.9649511565
 20
785534.2584976368
 30
0.0
 40
0.75
  0
TEXT
  5
2A0
330
17
100
AcDbEntity
  8
桩基
100
AcDbText
 10
571613.9649511565
 20
785534.2584976368
 30
0.0
 40
0.1
  1
(W9, pk= 442.474, E=571613.965,N785534.258)
 72
1
 11
571613.9649511565
 21
785534.2584976368
 31
0.0
100
AcDbText
 73
2
  0
CIRCLE
  5
2A1
330
17
100
AcDbEntity
  8
桩基
100
AcDbCircle
 10
571610.8401486991
 20
785539.8024681995
 30
0.0
 40
0.75
  0
TEXT
  5
2A2
330
17
100
AcDbEntity
  8
桩基
100
AcDbText
 10
571610.8401486991
 20
785539.8024681995
 30
0.0
 40
0.1
  1
(W9, pk= 442.474, E=571610.840,N785539.802)
 72
1
 11
571610.8401486991
 21
785539.8024681995
 31
0.0
100
AcDbText
 73
2
  0
CIRCLE
  5
2A3
330
17
100
AcDbEntity
  8
桩基
100
AcDbCircle
 10
571615.1745352092
 20
785538.5928841468
 30
0.0
 40
0.75
  0
TEXT
  5
2A4
330
17
100
AcDbEntity
  8
桩基
100
AcDbText
 10
571615.1745352092
 20
785538.5928841468
 30
0.0
 40
0.1
  1
(W9, pk= 442.474, E=571615.175,N785538.593)
 72
1
 11
571615.1745352092
 21
785538.5928841468
 31
0.0
100
AcDbText
 73
2
  0
POLYLINE
  5
2A5
330
17
100
AcDbEntity
  8
承台
100
AcDb2dPolyline
 66
1
 10
0.0
 20
0.0
 30
0.0
 70
1
  0
VERTEX
  5
2A7
330
17
100
AcDbEntity
  8
承台
100
AcDbVertex
100
AcDb2dVertex
 10
571608.0905728234
 20
785534.6000810068
 30
0.0
 70
0
  0
VERTEX
  5
2A8
330
17
100
AcDbEntity
  8
承台
100
AcDbVertex
100
AcDb2dVertex
 10
571614.8329518392
 20
785532.7185058137
 30
0.0
 70
0
  0
VERTEX
  5
2A9
330
17
100
AcDbEntity
  8
承台
100
AcDbVertex
100
AcDb2dVertex
 10
571616.7145270322
 20
785539.4608848295
 30
0.0
 70
0
  0
VERTEX
  5
2AA
330
17
100
AcDbEntity
  8
承台
100
AcDbVertex
100
AcDb2dVertex
 10
571609.9721480164
 20
785541.3424600225
 30
0.0
 70
0
  0
SEQEND
  5
2A6
330
2A5
100
AcDbEntity
  8
承台
  0
ENDSEC
  0
SECTION
  2
OBJECTS
  0
DICTIONARY
  5
A
330
0
100
AcDbDictionary
280
0
281
1
  3
ACAD_COLOR
350
B
  3
ACAD_GROUP
350
C
  3
ACAD_LAYOUT
350
D
  3
ACAD_MATERIAL
350
E
  3
ACAD_MLEADERSTYLE
350
F
  3
ACAD_MLINESTYLE
350
10
  3
ACAD_PLOTSETTINGS
350
11
  3
ACAD_PLOTSTYLENAME
350
12
  3
ACAD_SCALELIST
350
14
  3
ACAD_TABLESTYLE
350
15
  3
ACAD_VISUALSTYLE
350
16
  3
EZDXF_META
350
2D
  0
DICTIONARY
  5
B
330
A
100
AcDbDictionary
280
0
281
1
  0
DICTIONARY
  5
C
330
A
100
AcDbDictionary
280
0
281
1
  0
DICTIONARY
  5
D
330
A
100
AcDbDictionary
280
0
281
1
  3
Model
350
1A
  3
Layout1
350
1E
  0
DICTIONARY
  5
E
330
A
100
AcDbDictionary
280
0
281
1
  3
ByBlock
350
1F
  3
ByLayer
350
20
  3
Global
350
21
  0
DICTIONARY
  5
F
330
A
100
AcDbDictionary
280
0
281
1
  3
Standard
350
2C
  0
DICTIONARY
  5
10
330
A
100
AcDbDictionary
280
0
281
1
  3
Standard
350
22
  0
DICTIONARY
  5
11
330
A
100
AcDbDictionary
280
0
281
1
  0
ACDBDICTIONARYWDFLT
  5
12
330
A
100
AcDbDictionary
280
0
281
1
  3
Normal
350
13
100
AcDbDictionaryWithDefault
340
13
  0
ACDBPLACEHOLDER
  5
13
330
12
  0
DICTIONARY
  5
14
330
A
100
AcDbDictionary
280
0
281
1
  0
DICTIONARY
  5
15
330
A
100
AcDbDictionary
280
0
281
1
  0
DICTIONARY
  5
16
330
A
100
AcDbDictionary
280
0
281
1
  0
LAYOUT
  5
1A
330
D
100
AcDbPlotSettings
  1

  2
Adobe PDF
  4
A3
  6

 40
7.5
 41
20.0
 42
7.5
 43
20.0
 44
420.0
 45
297.0
 46
0.0
 47
0.0
 48
0.0
 49
0.0
140
0.0
141
0.0
142
1.0
143
1.0
 70
1024
 72
1
 73
0
 74
5
  7

 75
16
 76
0
 77
2
 78
300
147
1.0
148
0.0
149
0.0
100
AcDbLayout
  1
Model
 70
1
 71
0
 10
0.0
 20
0.0
 11
420.0
 21
297.0
 12
0.0
 22
0.0
 32
0.0
 14
1e+20
 24
1e+20
 34
1e+20
 15
-1e+20
 25
-1e+20
 35
-1e+20
146
0.0
 13
0.0
 23
0.0
 33
0.0
 16
1.0
 26
0.0
 36
0.0
 17
0.0
 27
1.0
 37
0.0
 76
1
330
17
  0
LAYOUT
  5
1E
330
D
100
AcDbPlotSettings
  1

  2
Adobe PDF
  4
A3
  6

 40
7.5
 41
20.0
 42
7.5
 43
20.0
 44
420.0
 45
297.0
 46
0.0
 47
0.0
 48
0.0
 49
0.0
140
0.0
141
0.0
142
1.0
143
1.0
 70
0
 72
1
 73
0
 74
5
  7

 75
16
 76
0
 77
2
 78
300
147
1.0
148
0.0
149
0.0
100
AcDbLayout
  1
Layout1
 70
1
 71
1
 10
0.0
 20
0.0
 11
420.0
 21
297.0
 12
0.0
 22
0.0
 32
0.0
 14
1e+20
 24
1e+20
 34
1e+20
 15
-1e+20
 25
-1e+20
 35
-1e+20
146
0.0
 13
0.0
 23
0.0
 33
0.0
 16
1.0
 26
0.0
 36
0.0
 17
0.0
 27
1.0
 37
0.0
 76
1
330
1B
  0
MATERIAL
  5
1F
102
{ACAD_REACTORS
330
E
102
}
330
E
100
AcDbMaterial
  1
ByBlock
  2

 70
0
 40
1.0
 71
1
 41
1.0
 91
-1023410177
 42
1.0
 72
1
  3

 73
1
 74
1
 75
1
 44
0.5
 73
0
 45
1.0
 46
1.0
 77
1
  4

 78
1
 79
1
170
1
 48
1.0
171
1
  6

172
1
173
1
174
1
140
1.0
141
1.0
175
1
  7

176
1
177
1
178
1
143
1.0
179
1
  8

270
1
271
1
272
1
145
1.0
146
1.0
273
1
  9

274
1
275
1
276
1
 42
1.0
 72
1
  3

 73
1
 74
1
 75
1
 94
63
  0
MATERIAL
  5
20
102
{ACAD_REACTORS
330
E
102
}
330
E
100
AcDbMaterial
  1
ByLayer
  2

 70
0
 40
1.0
 71
1
 41
1.0
 91
-1023410177
 42
1.0
 72
1
  3

 73
1
 74
1
 75
1
 44
0.5
 73
0
 45
1.0
 46
1.0
 77
1
  4

 78
1
 79
1
170
1
 48
1.0
171
1
  6

172
1
173
1
174
1
140
1.0
141
1.0
175
1
  7

176
1
177
1
178
1
143
1.0
179
1
  8

270
1
271
1
272
1
145
1.0
146
1.0
273
1
  9

274
1
275
1
276
1
 42
1.0
 72
1
  3

 73
1
 74
1
 75
1
 94
63
  0
MATERIAL
  5
21
102
{ACAD_REACTORS
330
E
102
}
330
E
100
AcDbMaterial
  1
Global
  2

 70
0
 40
1.0
 71
1
 41
1.0
 91
-1023410177
 42
1.0
 72
1
  3

 73
1
 74
1
 75
1
 44
0.5
 73
0
 45
1.0
 46
1.0
 77
1
  4

 78
1
 79
1
170
1
 48
1.0
171
1
  6

172
1
173
1
174
1
140
1.0
141
1.0
175
1
  7

176
1
177
1
178
1
143
1.0
179
1
  8

270
1
271
1
272
1
145
1.0
146
1.0
273
1
  9

274
1
275
1
276
1
 42
1.0
 72
1
  3

 73
1
 74
1
 75
1
 94
63
  0
MLINESTYLE
  5
22
102
{ACAD_REACTORS
330
10
102
}
330
10
100
AcDbMlineStyle
  2
Standard
 70
0
  3

 62
256
 51
90.0
 52
90.0
 71
2
 49
0.5
 62
256
  6
BYLAYER
 49
-0.5
 62
256
  6
BYLAYER
  0
MLEADERSTYLE
  5
2C
102
{ACAD_REACTORS
330
F
102
}
330
F
100
AcDbMLeaderStyle
179
2
170
2
171
1
172
0
 90
2
 40
0.0
 41
0.0
173
1
 91
-1056964608
 92
-2
290
1
 42
2.0
291
1
 43
8.0
  3
Standard
 44
4.0
300

342
29
174
1
175
1
176
0
178
1
 93
-1056964608
 45
4.0
292
0
297
0
 46
4.0
 94
-1056964608
 47
1.0
 49
1.0
140
1.0
294
1
141
0.0
177
0
142
1.0
295
0
296
0
143
3.75
271
0
272
9
273
9
  0
DICTIONARY
  5
2D
330
A
100
AcDbDictionary
281
1
  3
CREATED_BY_EZDXF
350
2E
  3
WRITTEN_BY_EZDXF
350
2AD
  0
DICTIONARYVAR
  5
2E
330
2D
100
DictionaryVariables
280
0
  1
1.1.4 @ 2024-07-30T02:46:09.104161+00:00
  0
DICTIONARYVAR
  5
2AD
330
2D
100
DictionaryVariables
280
0
  1
1.1.4 @ 2024-07-30T02:46:09.116145+00:00
  0
ENDSEC
  0
EOF
