  0
SECTION
  2
HEADER
  9
$ACADVER
  1
AC1027
  9
$ACADMAINTVER
 70
105
  9
$DWGCODEPAGE
  3
ANSI_1252
  9
$LASTSAVEDBY
  1
ezdxf
  9
$REQUIREDVERSIONS
160
0
  9
$INSBASE
 10
0.0
 20
0.0
 30
0.0
  9
$EXTMIN
 10
1e+20
 20
1e+20
 30
1e+20
  9
$EXTMAX
 10
-1e+20
 20
-1e+20
 30
-1e+20
  9
$LIMMIN
 10
0.0
 20
0.0
  9
$LIMMAX
 10
420.0
 20
297.0
  9
$ORTHOMODE
 70
0
  9
$REGENMODE
 70
1
  9
$FILLMODE
 70
1
  9
$QTEXTMODE
 70
0
  9
$MIRRTEXT
 70
1
  9
$LTSCALE
 40
1.0
  9
$ATTMODE
 70
1
  9
$TEXTSIZE
 40
2.5
  9
$TRACEWID
 40
1.0
  9
$TEXTSTYLE
  7
Standard
  9
$CLAYER
  8
0
  9
$CELTYPE
  6
ByLayer
  9
$CECOLOR
 62
256
  9
$CELTSCALE
 40
1.0
  9
$DISPSILH
 70
0
  9
$DIMSCALE
 40
1.0
  9
$DIMASZ
 40
2.5
  9
$DIMEXO
 40
0.625
  9
$DIMDLI
 40
3.75
  9
$DIMRND
 40
0.0
  9
$DIMDLE
 40
0.0
  9
$DIMEXE
 40
1.25
  9
$DIMTP
 40
0.0
  9
$DIMTM
 40
0.0
  9
$DIMTXT
 40
2.5
  9
$DIMCEN
 40
2.5
  9
$DIMTSZ
 40
0.0
  9
$DIMTOL
 70
0
  9
$DIMLIM
 70
0
  9
$DIMTIH
 70
0
  9
$DIMTOH
 70
0
  9
$DIMSE1
 70
0
  9
$DIMSE2
 70
0
  9
$DIMTAD
 70
1
  9
$DIMZIN
 70
8
  9
$DIMBLK
  1

  9
$DIMASO
 70
1
  9
$DIMSHO
 70
1
  9
$DIMPOST
  1

  9
$DIMAPOST
  1

  9
$DIMALT
 70
0
  9
$DIMALTD
 70
3
  9
$DIMALTF
 40
0.03937007874
  9
$DIMLFAC
 40
1.0
  9
$DIMTOFL
 70
1
  9
$DIMTVP
 40
0.0
  9
$DIMTIX
 70
0
  9
$DIMSOXD
 70
0
  9
$DIMSAH
 70
0
  9
$DIMBLK1
  1

  9
$DIMBLK2
  1

  9
$DIMSTYLE
  2
ISO-25
  9
$DIMCLRD
 70
0
  9
$DIMCLRE
 70
0
  9
$DIMCLRT
 70
0
  9
$DIMTFAC
 40
1.0
  9
$DIMGAP
 40
0.625
  9
$DIMJUST
 70
0
  9
$DIMSD1
 70
0
  9
$DIMSD2
 70
0
  9
$DIMTOLJ
 70
0
  9
$DIMTZIN
 70
8
  9
$DIMALTZ
 70
0
  9
$DIMALTTZ
 70
0
  9
$DIMUPT
 70
0
  9
$DIMDEC
 70
2
  9
$DIMTDEC
 70
2
  9
$DIMALTU
 70
2
  9
$DIMALTTD
 70
3
  9
$DIMTXSTY
  7
Standard
  9
$DIMAUNIT
 70
0
  9
$DIMADEC
 70
0
  9
$DIMALTRND
 40
0.0
  9
$DIMAZIN
 70
0
  9
$DIMDSEP
 70
44
  9
$DIMATFIT
 70
3
  9
$DIMFRAC
 70
0
  9
$DIMLDRBLK
  1

  9
$DIMLUNIT
 70
2
  9
$DIMLWD
 70
-2
  9
$DIMLWE
 70
-2
  9
$DIMTMOVE
 70
0
  9
$DIMFXL
 40
1.0
  9
$DIMFXLON
 70
0
  9
$DIMJOGANG
 40
0.785398163397
  9
$DIMTFILL
 70
0
  9
$DIMTFILLCLR
 70
0
  9
$DIMARCSYM
 70
0
  9
$DIMLTYPE
  6

  9
$DIMLTEX1
  6

  9
$DIMLTEX2
  6

  9
$DIMTXTDIRECTION
 70
0
  9
$LUNITS
 70
2
  9
$LUPREC
 70
4
  9
$SKETCHINC
 40
1.0
  9
$FILLETRAD
 40
10.0
  9
$AUNITS
 70
0
  9
$AUPREC
 70
2
  9
$MENU
  1
.
  9
$ELEVATION
 40
0.0
  9
$PELEVATION
 40
0.0
  9
$THICKNESS
 40
0.0
  9
$LIMCHECK
 70
0
  9
$CHAMFERA
 40
0.0
  9
$CHAMFERB
 40
0.0
  9
$CHAMFERC
 40
0.0
  9
$CHAMFERD
 40
0.0
  9
$SKPOLY
 70
0
  9
$TDCREATE
 40
2460328.489548611
  9
$TDUCREATE
 40
2458532.153996898
  9
$TDUPDATE
 40
2460328.489548611
  9
$TDUUPDATE
 40
2458532.1544311
  9
$TDINDWG
 40
0.0
  9
$TDUSRTIMER
 40
0.0
  9
$USRTIMER
 70
1
  9
$ANGBASE
 50
0.0
  9
$ANGDIR
 70
0
  9
$PDMODE
 70
0
  9
$PDSIZE
 40
0.0
  9
$PLINEWID
 40
0.0
  9
$SPLFRAME
 70
0
  9
$SPLINETYPE
 70
6
  9
$SPLINESEGS
 70
8
  9
$HANDSEED
  5
136
  9
$SURFTAB1
 70
6
  9
$SURFTAB2
 70
6
  9
$SURFTYPE
 70
6
  9
$SURFU
 70
6
  9
$SURFV
 70
6
  9
$UCSBASE
  2

  9
$UCSNAME
  2

  9
$UCSORG
 10
0.0
 20
0.0
 30
0.0
  9
$UCSXDIR
 10
1.0
 20
0.0
 30
0.0
  9
$UCSYDIR
 10
0.0
 20
1.0
 30
0.0
  9
$UCSORTHOREF
  2

  9
$UCSORTHOVIEW
 70
0
  9
$UCSORGTOP
 10
0.0
 20
0.0
 30
0.0
  9
$UCSORGBOTTOM
 10
0.0
 20
0.0
 30
0.0
  9
$UCSORGLEFT
 10
0.0
 20
0.0
 30
0.0
  9
$UCSORGRIGHT
 10
0.0
 20
0.0
 30
0.0
  9
$UCSORGFRONT
 10
0.0
 20
0.0
 30
0.0
  9
$UCSORGBACK
 10
0.0
 20
0.0
 30
0.0
  9
$PUCSBASE
  2

  9
$PUCSNAME
  2

  9
$PUCSORG
 10
0.0
 20
0.0
 30
0.0
  9
$PUCSXDIR
 10
1.0
 20
0.0
 30
0.0
  9
$PUCSYDIR
 10
0.0
 20
1.0
 30
0.0
  9
$PUCSORTHOREF
  2

  9
$PUCSORTHOVIEW
 70
0
  9
$PUCSORGTOP
 10
0.0
 20
0.0
 30
0.0
  9
$PUCSORGBOTTOM
 10
0.0
 20
0.0
 30
0.0
  9
$PUCSORGLEFT
 10
0.0
 20
0.0
 30
0.0
  9
$PUCSORGRIGHT
 10
0.0
 20
0.0
 30
0.0
  9
$PUCSORGFRONT
 10
0.0
 20
0.0
 30
0.0
  9
$PUCSORGBACK
 10
0.0
 20
0.0
 30
0.0
  9
$USERI1
 70
0
  9
$USERI2
 70
0
  9
$USERI3
 70
0
  9
$USERI4
 70
0
  9
$USERI5
 70
0
  9
$USERR1
 40
0.0
  9
$USERR2
 40
0.0
  9
$USERR3
 40
0.0
  9
$USERR4
 40
0.0
  9
$USERR5
 40
0.0
  9
$WORLDVIEW
 70
1
  9
$SHADEDGE
 70
3
  9
$SHADEDIF
 70
70
  9
$TILEMODE
 70
1
  9
$MAXACTVP
 70
64
  9
$PINSBASE
 10
0.0
 20
0.0
 30
0.0
  9
$PLIMCHECK
 70
0
  9
$PEXTMIN
 10
1e+20
 20
1e+20
 30
1e+20
  9
$PEXTMAX
 10
-1e+20
 20
-1e+20
 30
-1e+20
  9
$PLIMMIN
 10
0.0
 20
0.0
  9
$PLIMMAX
 10
420.0
 20
297.0
  9
$UNITMODE
 70
0
  9
$VISRETAIN
 70
1
  9
$PLINEGEN
 70
0
  9
$PSLTSCALE
 70
1
  9
$TREEDEPTH
 70
3020
  9
$CMLSTYLE
  2
Standard
  9
$CMLJUST
 70
0
  9
$CMLSCALE
 40
20.0
  9
$PROXYGRAPHICS
 70
1
  9
$MEASUREMENT
 70
1
  9
$CELWEIGHT
370
-1
  9
$ENDCAPS
280
0
  9
$JOINSTYLE
280
0
  9
$LWDISPLAY
290
0
  9
$INSUNITS
 70
6
  9
$HYPERLINKBASE
  1

  9
$STYLESHEET
  1

  9
$XEDIT
290
1
  9
$CEPSNTYPE
380
0
  9
$PSTYLEMODE
290
1
  9
$FINGERPRINTGUID
  2
{65A7CC78-5691-4B9E-B9DA-D14659AA43BD}
  9
$VERSIONGUID
  2
{139A9A4B-80F5-4D6C-9E43-FCEF79D91040}
  9
$EXTNAMES
290
1
  9
$PSVPSCALE
 40
0.0
  9
$OLESTARTUP
290
0
  9
$SORTENTS
280
127
  9
$INDEXCTL
280
0
  9
$HIDETEXT
280
1
  9
$XCLIPFRAME
280
0
  9
$HALOGAP
280
0
  9
$OBSCOLOR
 70
257
  9
$OBSLTYPE
280
0
  9
$INTERSECTIONDISPLAY
280
0
  9
$INTERSECTIONCOLOR
 70
257
  9
$DIMASSOC
280
2
  9
$PROJECTNAME
  1

  9
$CAMERADISPLAY
290
0
  9
$LENSLENGTH
 40
50.0
  9
$CAMERAHEIGHT
 40
0.0
  9
$STEPSPERSEC
 40
24.0
  9
$STEPSIZE
 40
100.0
  9
$3DDWFPREC
 40
2.0
  9
$PSOLWIDTH
 40
0.005
  9
$PSOLHEIGHT
 40
0.08
  9
$LOFTANG1
 40
1.570796326795
  9
$LOFTANG2
 40
1.570796326795
  9
$LOFTMAG1
 40
0.0
  9
$LOFTMAG2
 40
0.0
  9
$LOFTPARAM
 70
7
  9
$LOFTNORMALS
280
1
  9
$LATITUDE
 40
37.795
  9
$LONGITUDE
 40
-122.394
  9
$NORTHDIRECTION
 40
0.0
  9
$TIMEZONE
 70
-8000
  9
$LIGHTGLYPHDISPLAY
280
1
  9
$TILEMODELIGHTSYNCH
280
1
  9
$CMATERIAL
347
20
  9
$SOLIDHIST
280
0
  9
$SHOWHIST
280
1
  9
$DWFFRAME
280
2
  9
$DGNFRAME
280
2
  9
$REALWORLDSCALE
290
1
  9
$INTERFERECOLOR
 62
256
  9
$CSHADOW
280
0
  9
$SHADOWPLANELOCATION
 40
0.0
  0
ENDSEC
  0
SECTION
  2
CLASSES
  0
CLASS
  1
ACDBDICTIONARYWDFLT
  2
AcDbDictionaryWithDefault
  3
ObjectDBX Classes
 90
0
 91
0
280
0
281
0
  0
CLASS
  1
SUN
  2
AcDbSun
  3
SCENEOE
 90
1153
 91
0
280
0
281
0
  0
CLASS
  1
VISUALSTYLE
  2
AcDbVisualStyle
  3
ObjectDBX Classes
 90
4095
 91
0
280
0
281
0
  0
CLASS
  1
MATERIAL
  2
AcDbMaterial
  3
ObjectDBX Classes
 90
1153
 91
0
280
0
281
0
  0
CLASS
  1
SCALE
  2
AcDbScale
  3
ObjectDBX Classes
 90
1153
 91
0
280
0
281
0
  0
CLASS
  1
TABLESTYLE
  2
AcDbTableStyle
  3
ObjectDBX Classes
 90
4095
 91
0
280
0
281
0
  0
CLASS
  1
MLEADERSTYLE
  2
AcDbMLeaderStyle
  3
ACDB_MLEADERSTYLE_CLASS
 90
4095
 91
0
280
0
281
0
  0
CLASS
  1
DICTIONARYVAR
  2
AcDbDictionaryVar
  3
ObjectDBX Classes
 90
0
 91
0
280
0
281
0
  0
CLASS
  1
CELLSTYLEMAP
  2
AcDbCellStyleMap
  3
ObjectDBX Classes
 90
1152
 91
0
280
0
281
0
  0
CLASS
  1
MENTALRAYRENDERSETTINGS
  2
AcDbMentalRayRenderSettings
  3
SCENEOE
 90
1024
 91
0
280
0
281
0
  0
CLASS
  1
ACDBDETAILVIEWSTYLE
  2
AcDbDetailViewStyle
  3
ObjectDBX Classes
 90
1025
 91
0
280
0
281
0
  0
CLASS
  1
ACDBSECTIONVIEWSTYLE
  2
AcDbSectionViewStyle
  3
ObjectDBX Classes
 90
1025
 91
0
280
0
281
0
  0
CLASS
  1
RASTERVARIABLES
  2
AcDbRasterVariables
  3
ISM
 90
0
 91
0
280
0
281
0
  0
CLASS
  1
ACDBPLACEHOLDER
  2
AcDbPlaceHolder
  3
ObjectDBX Classes
 90
0
 91
0
280
0
281
0
  0
CLASS
  1
LAYOUT
  2
AcDbLayout
  3
ObjectDBX Classes
 90
0
 91
0
280
0
281
0
  0
ENDSEC
  0
SECTION
  2
TABLES
  0
TABLE
  2
VPORT
  5
8
330
0
100
AcDbSymbolTable
 70
1
  0
VPORT
  5
23
330
8
100
AcDbSymbolTableRecord
100
AcDbViewportTableRecord
  2
*Active
 70
0
 10
0.0
 20
0.0
 11
1.0
 21
1.0
 12
0.0
 22
0.0
 13
0.0
 23
0.0
 14
0.5
 24
0.5
 15
0.5
 25
0.5
 16
0.0
 26
0.0
 36
1.0
 17
0.0
 27
0.0
 37
0.0
 40
1000.0
 41
1.34
 42
50.0
 43
0.0
 44
0.0
 50
0.0
 51
0.0
 71
0
 72
1000
 73
1
 74
3
 75
0
 76
0
 77
0
 78
0
281
0
 65
0
146
0.0
  0
ENDTAB
  0
TABLE
  2
LTYPE
  5
2
330
0
100
AcDbSymbolTable
 70
3
  0
LTYPE
  5
24
330
2
100
AcDbSymbolTableRecord
100
AcDbLinetypeTableRecord
  2
ByBlock
 70
0
  3

 72
65
 73
0
 40
0.0
  0
LTYPE
  5
25
330
2
100
AcDbSymbolTableRecord
100
AcDbLinetypeTableRecord
  2
ByLayer
 70
0
  3

 72
65
 73
0
 40
0.0
  0
LTYPE
  5
26
330
2
100
AcDbSymbolTableRecord
100
AcDbLinetypeTableRecord
  2
Continuous
 70
0
  3

 72
65
 73
0
 40
0.0
  0
ENDTAB
  0
TABLE
  2
LAYER
  5
1
330
0
100
AcDbSymbolTable
 70
4
  0
LAYER
  5
27
330
1
100
AcDbSymbolTableRecord
100
AcDbLayerTableRecord
  2
0
 70
0
 62
7
  6
Continuous
370
-3
390
13
347
21
  0
LAYER
  5
28
330
1
100
AcDbSymbolTableRecord
100
AcDbLayerTableRecord
  2
Defpoints
 70
0
 62
7
  6
Continuous
290
0
370
-3
390
13
347
21
  0
LAYER
  5
2F
330
1
100
AcDbSymbolTableRecord
100
AcDbLayerTableRecord
  2
跨径线
 70
0
 62
50
  6
Continuous
370
-3
390
13
347
21
  0
LAYER
  5
30
330
1
100
AcDbSymbolTableRecord
100
AcDbLayerTableRecord
  2
承台
 70
0
 62
130
  6
Continuous
370
-3
390
13
347
21
  0
ENDTAB
  0
TABLE
  2
STYLE
  5
5
330
0
100
AcDbSymbolTable
 70
1
  0
STYLE
  5
29
330
5
100
AcDbSymbolTableRecord
100
AcDbTextStyleTableRecord
  2
Standard
 70
0
 40
0.0
 41
1.0
 50
0.0
 71
0
 42
2.5
  3
txt
  4

  0
ENDTAB
  0
TABLE
  2
VIEW
  5
7
330
0
100
AcDbSymbolTable
 70
0
  0
ENDTAB
  0
TABLE
  2
UCS
  5
6
330
0
100
AcDbSymbolTable
 70
0
  0
ENDTAB
  0
TABLE
  2
APPID
  5
3
330
0
100
AcDbSymbolTable
 70
3
  0
APPID
  5
2A
330
3
100
AcDbSymbolTableRecord
100
AcDbRegAppTableRecord
  2
ACAD
 70
0
  0
APPID
  5
133
330
3
100
AcDbSymbolTableRecord
100
AcDbRegAppTableRecord
  2
HATCHBACKGROUNDCOLOR
 70
0
  0
APPID
  5
134
330
3
100
AcDbSymbolTableRecord
100
AcDbRegAppTableRecord
  2
EZDXF
 70
0
  0
ENDTAB
  0
TABLE
  2
DIMSTYLE
  5
4
330
0
100
AcDbSymbolTable
 70
1
100
AcDbDimStyleTable
  0
DIMSTYLE
105
2B
330
4
100
AcDbSymbolTableRecord
100
AcDbDimStyleTableRecord
  2
Standard
 70
0
 40
1.0
 41
2.5
 42
0.625
 43
3.75
 44
1.25
 45
0.0
 46
0.0
 47
0.0
 48
0.0
 49
2.5
140
2.5
141
2.5
142
0.0
143
0.03937007874
144
1.0
145
0.0
146
1.0
147
0.625
148
0.0
 69
0
 70
0
 71
0
 72
0
 73
0
 74
0
 75
0
 76
0
 77
1
 78
8
 79
3
170
0
171
3
172
1
173
0
174
0
175
0
176
0
177
0
178
0
179
2
271
2
272
2
273
2
274
3
275
0
276
0
277
2
278
44
279
0
280
0
281
0
282
0
283
0
284
8
285
0
286
0
288
0
289
3
290
0
371
-2
372
-2
  0
ENDTAB
  0
TABLE
  2
BLOCK_RECORD
  5
9
330
0
100
AcDbSymbolTable
 70
2
  0
BLOCK_RECORD
  5
17
330
9
100
AcDbSymbolTableRecord
100
AcDbBlockTableRecord
  2
*Model_Space
340
1A
 70
0
280
1
281
0
  0
BLOCK_RECORD
  5
1B
330
9
100
AcDbSymbolTableRecord
100
AcDbBlockTableRecord
  2
*Paper_Space
340
1E
 70
0
280
1
281
0
  0
ENDTAB
  0
ENDSEC
  0
SECTION
  2
BLOCKS
  0
BLOCK
  5
18
330
17
100
AcDbEntity
  8
0
100
AcDbBlockBegin
  2
*Model_Space
 70
0
 10
0.0
 20
0.0
 30
0.0
  3
*Model_Space
  1

  0
ENDBLK
  5
19
330
17
100
AcDbEntity
  8
0
100
AcDbBlockEnd
  0
BLOCK
  5
1C
330
1B
100
AcDbEntity
  8
0
100
AcDbBlockBegin
  2
*Paper_Space
 70
0
 10
0.0
 20
0.0
 30
0.0
  3
*Paper_Space
  1

  0
ENDBLK
  5
1D
330
1B
100
AcDbEntity
  8
0
100
AcDbBlockEnd
  0
ENDSEC
  0
SECTION
  2
ENTITIES
  0
POLYLINE
  5
31
330
17
100
AcDbEntity
  8
跨径线
100
AcDb2dPolyline
 66
1
 10
0.0
 20
0.0
 30
0.0
 70
0
  0
VERTEX
  5
33
330
17
100
AcDbEntity
  8
跨径线
100
AcDbVertex
100
AcDb2dVertex
 10
571187.7985385666
 20
785626.7622996066
 30
0.0
 70
0
  0
VERTEX
  5
34
330
17
100
AcDbEntity
  8
跨径线
100
AcDbVertex
100
AcDb2dVertex
 10
571190.3925665925
 20
785641.5362976639
 30
0.0
 70
0
  0
VERTEX
  5
35
330
17
100
AcDbEntity
  8
跨径线
100
AcDbVertex
100
AcDb2dVertex
 10
571192.9865946185
 20
785656.3102957213
 30
0.0
 70
0
  0
SEQEND
  5
32
330
31
100
AcDbEntity
  8
跨径线
  0
TEXT
  5
36
330
17
100
AcDbEntity
  8
跨径线
100
AcDbText
 10
571190.3925665925
 20
785641.5362976639
 30
0.0
 40
0.1
  1
R1-7 (7.474 of M) 
 72
1
 11
571190.3925665925
 21
785641.5362976639
 31
0.0
100
AcDbText
 73
2
  0
POLYLINE
  5
37
330
17
100
AcDbEntity
  8
跨径线
100
AcDb2dPolyline
 66
1
 10
0.0
 20
0.0
 30
0.0
 70
0
  0
VERTEX
  5
39
330
17
100
AcDbEntity
  8
跨径线
100
AcDbVertex
100
AcDb2dVertex
 10
571231.8460336806
 20
785618.7392755301
 30
0.0
 70
0
  0
VERTEX
  5
3A
330
17
100
AcDbEntity
  8
跨径线
100
AcDbVertex
100
AcDb2dVertex
 10
571234.6635874409
 20
785633.4722789852
 30
0.0
 70
0
  0
VERTEX
  5
3B
330
17
100
AcDbEntity
  8
跨径线
100
AcDbVertex
100
AcDb2dVertex
 10
571237.4811412011
 20
785648.2052824403
 30
0.0
 70
0
  0
SEQEND
  5
38
330
37
100
AcDbEntity
  8
跨径线
  0
TEXT
  5
3C
330
17
100
AcDbEntity
  8
跨径线
100
AcDbText
 10
571234.6635874409
 20
785633.4722789852
 30
0.0
 40
0.1
  1
R1-8 (52.474 of M) 
 72
1
 11
571234.6635874409
 21
785633.4722789852
 31
0.0
100
AcDbText
 73
2
  0
POLYLINE
  5
3D
330
17
100
AcDbEntity
  8
跨径线
100
AcDb2dPolyline
 66
1
 10
0.0
 20
0.0
 30
0.0
 70
0
  0
VERTEX
  5
3F
330
17
100
AcDbEntity
  8
跨径线
100
AcDbVertex
100
AcDb2dVertex
 10
571275.702168838
 20
785609.9423368417
 30
0.0
 70
0
  0
VERTEX
  5
40
330
17
100
AcDbEntity
  8
跨径线
100
AcDbVertex
100
AcDb2dVertex
 10
571278.7841413167
 20
785624.6223043363
 30
0.0
 70
0
  0
VERTEX
  5
41
330
17
100
AcDbEntity
  8
跨径线
100
AcDbVertex
100
AcDb2dVertex
 10
571281.8661137953
 20
785639.3022718308
 30
0.0
 70
0
  0
SEQEND
  5
3E
330
3D
100
AcDbEntity
  8
跨径线
  0
TEXT
  5
42
330
17
100
AcDbEntity
  8
跨径线
100
AcDbText
 10
571278.7841413167
 20
785624.6223043363
 30
0.0
 40
0.1
  1
W17 (97.474 of M) 
 72
1
 11
571278.7841413167
 21
785624.6223043363
 31
0.0
100
AcDbText
 73
2
  0
POLYLINE
  5
43
330
17
100
AcDbEntity
  8
跨径线
100
AcDb2dPolyline
 66
1
 10
0.0
 20
0.0
 30
0.0
 70
0
  0
VERTEX
  5
45
330
17
100
AcDbEntity
  8
跨径线
100
AcDbVertex
100
AcDb2dVertex
 10
571314.547077193
 20
785601.4612254606
 30
0.0
 70
0
  0
VERTEX
  5
46
330
17
100
AcDbEntity
  8
跨径线
100
AcDbVertex
100
AcDb2dVertex
 10
571317.8631287402
 20
785616.0900942527
 30
0.0
 70
0
  0
VERTEX
  5
47
330
17
100
AcDbEntity
  8
跨径线
100
AcDbVertex
100
AcDb2dVertex
 10
571321.1791802874
 20
785630.7189630448
 30
0.0
 70
0
  0
SEQEND
  5
44
330
43
100
AcDbEntity
  8
跨径线
  0
TEXT
  5
48
330
17
100
AcDbEntity
  8
跨径线
100
AcDbText
 10
571317.8631287402
 20
785616.0900942527
 30
0.0
 40
0.1
  1
W16 (137.474 of M) 
 72
1
 11
571317.8631287402
 21
785616.0900942527
 31
0.0
100
AcDbText
 73
2
  0
POLYLINE
  5
49
330
17
100
AcDbEntity
  8
跨径线
100
AcDb2dPolyline
 66
1
 10
0.0
 20
0.0
 30
0.0
 70
0
  0
VERTEX
  5
4B
330
17
100
AcDbEntity
  8
跨径线
100
AcDbVertex
100
AcDb2dVertex
 10
571353.2505633753
 20
785592.3598856031
 30
0.0
 70
0
  0
VERTEX
  5
4C
330
17
100
AcDbEntity
  8
跨径线
100
AcDbVertex
100
AcDb2dVertex
 10
571356.8006046233
 20
785606.9337391476
 30
0.0
 70
0
  0
VERTEX
  5
4D
330
17
100
AcDbEntity
  8
跨径线
100
AcDbVertex
100
AcDb2dVertex
 10
571360.3506458713
 20
785621.5075926922
 30
0.0
 70
0
  0
SEQEND
  5
4A
330
49
100
AcDbEntity
  8
跨径线
  0
TEXT
  5
4E
330
17
100
AcDbEntity
  8
跨径线
100
AcDbText
 10
571356.8006046233
 20
785606.9337391476
 30
0.0
 40
0.1
  1
W15 (177.474 of M) 
 72
1
 11
571356.8006046233
 21
785606.9337391476
 31
0.0
100
AcDbText
 73
2
  0
POLYLINE
  5
4F
330
17
100
AcDbEntity
  8
跨径线
100
AcDb2dPolyline
 66
1
 10
0.0
 20
0.0
 30
0.0
 70
0
  0
VERTEX
  5
51
330
17
100
AcDbEntity
  8
跨径线
100
AcDbVertex
100
AcDb2dVertex
 10
571391.8032940218
 20
785582.640536084
 30
0.0
 70
0
  0
VERTEX
  5
52
330
17
100
AcDbEntity
  8
跨径线
100
AcDbVertex
100
AcDb2dVertex
 10
571395.5866011848
 20
785597.1555829978
 30
0.0
 70
0
  0
VERTEX
  5
53
330
17
100
AcDbEntity
  8
跨径线
100
AcDbVertex
100
AcDb2dVertex
 10
571399.3699083478
 20
785611.6706299117
 30
0.0
 70
0
  0
SEQEND
  5
50
330
4F
100
AcDbEntity
  8
跨径线
  0
TEXT
  5
54
330
17
100
AcDbEntity
  8
跨径线
100
AcDbText
 10
571395.5866011848
 20
785597.1555829978
 30
0.0
 40
0.1
  1
W14 (217.474 of M) 
 72
1
 11
571395.5866011848
 21
785597.1555829978
 31
0.0
100
AcDbText
 73
2
  0
POLYLINE
  5
55
330
17
100
AcDbEntity
  8
跨径线
100
AcDb2dPolyline
 66
1
 10
0.0
 20
0.0
 30
0.0
 70
0
  0
VERTEX
  5
57
330
17
100
AcDbEntity
  8
跨径线
100
AcDbVertex
100
AcDb2dVertex
 10
571434.9954658005
 20
785570.9679209554
 30
0.0
 70
0
  0
VERTEX
  5
58
330
17
100
AcDbEntity
  8
跨径线
100
AcDbVertex
100
AcDb2dVertex
 10
571439.0276387024
 20
785585.4158129016
 30
0.0
 70
0
  0
VERTEX
  5
59
330
17
100
AcDbEntity
  8
跨径线
100
AcDbVertex
100
AcDb2dVertex
 10
571443.0598116043
 20
785599.8637048478
 30
0.0
 70
0
  0
SEQEND
  5
56
330
55
100
AcDbEntity
  8
跨径线
  0
TEXT
  5
5A
330
17
100
AcDbEntity
  8
跨径线
100
AcDbText
 10
571439.0276387024
 20
785585.4158129016
 30
0.0
 40
0.1
  1
W13 (262.474 of M) 
 72
1
 11
571439.0276387024
 21
785585.4158129016
 31
0.0
100
AcDbText
 73
2
  0
POLYLINE
  5
5B
330
17
100
AcDbEntity
  8
跨径线
100
AcDb2dPolyline
 66
1
 10
0.0
 20
0.0
 30
0.0
 70
0
  0
VERTEX
  5
5D
330
17
100
AcDbEntity
  8
跨径线
100
AcDbVertex
100
AcDb2dVertex
 10
571478.3386096742
 20
785558.8717514385
 30
0.0
 70
0
  0
VERTEX
  5
5E
330
17
100
AcDbEntity
  8
跨径线
100
AcDbVertex
100
AcDb2dVertex
 10
571482.3713665089
 20
785573.3194804058
 30
0.0
 70
0
  0
VERTEX
  5
5F
330
17
100
AcDbEntity
  8
跨径线
100
AcDbVertex
100
AcDb2dVertex
 10
571486.4041233435
 20
785587.7672093731
 30
0.0
 70
0
  0
SEQEND
  5
5C
330
5B
100
AcDbEntity
  8
跨径线
  0
TEXT
  5
60
330
17
100
AcDbEntity
  8
跨径线
100
AcDbText
 10
571482.3713665089
 20
785573.3194804058
 30
0.0
 40
0.1
  1
W12 (307.474 of M) 
 72
1
 11
571482.3713665089
 21
785573.3194804058
 31
0.0
100
AcDbText
 73
2
  0
POLYLINE
  5
61
330
17
100
AcDbEntity
  8
跨径线
100
AcDb2dPolyline
 66
1
 10
0.0
 20
0.0
 30
0.0
 70
0
  0
VERTEX
  5
63
330
17
100
AcDbEntity
  8
跨径线
100
AcDbVertex
100
AcDb2dVertex
 10
571521.6831474729
 20
785546.7751928762
 30
0.0
 70
0
  0
VERTEX
  5
64
330
17
100
AcDbEntity
  8
跨径线
100
AcDbVertex
100
AcDb2dVertex
 10
571525.7150943152
 20
785561.2231479101
 30
0.0
 70
0
  0
VERTEX
  5
65
330
17
100
AcDbEntity
  8
跨径线
100
AcDbVertex
100
AcDb2dVertex
 10
571529.7470411576
 20
785575.671102944
 30
0.0
 70
0
  0
SEQEND
  5
62
330
61
100
AcDbEntity
  8
跨径线
  0
TEXT
  5
66
330
17
100
AcDbEntity
  8
跨径线
100
AcDbText
 10
571525.7150943152
 20
785561.2231479101
 30
0.0
 40
0.1
  1
W11 (352.474 of M) 
 72
1
 11
571525.7150943152
 21
785561.2231479101
 31
0.0
100
AcDbText
 73
2
  0
POLYLINE
  5
67
330
17
100
AcDbEntity
  8
跨径线
100
AcDb2dPolyline
 66
1
 10
0.0
 20
0.0
 30
0.0
 70
0
  0
VERTEX
  5
69
330
17
100
AcDbEntity
  8
跨径线
100
AcDbVertex
100
AcDb2dVertex
 10
571565.0268752793
 20
785534.6788603805
 30
0.0
 70
0
  0
VERTEX
  5
6A
330
17
100
AcDbEntity
  8
跨径线
100
AcDbVertex
100
AcDb2dVertex
 10
571569.0588221216
 20
785549.1268154144
 30
0.0
 70
0
  0
VERTEX
  5
6B
330
17
100
AcDbEntity
  8
跨径线
100
AcDbVertex
100
AcDb2dVertex
 10
571573.0907689639
 20
785563.5747704483
 30
0.0
 70
0
  0
SEQEND
  5
68
330
67
100
AcDbEntity
  8
跨径线
  0
TEXT
  5
6C
330
17
100
AcDbEntity
  8
跨径线
100
AcDbText
 10
571569.0588221216
 20
785549.1268154144
 30
0.0
 40
0.1
  1
W10 (397.474 of M) 
 72
1
 11
571569.0588221216
 21
785549.1268154144
 31
0.0
100
AcDbText
 73
2
  0
POLYLINE
  5
6D
330
17
100
AcDbEntity
  8
跨径线
100
AcDb2dPolyline
 66
1
 10
0.0
 20
0.0
 30
0.0
 70
0
  0
VERTEX
  5
6F
330
17
100
AcDbEntity
  8
跨径线
100
AcDbVertex
100
AcDb2dVertex
 10
571608.370377026
 20
785522.5825909725
 30
0.0
 70
0
  0
VERTEX
  5
70
330
17
100
AcDbEntity
  8
跨径线
100
AcDbVertex
100
AcDb2dVertex
 10
571612.4025499279
 20
785537.0304829187
 30
0.0
 70
0
  0
VERTEX
  5
71
330
17
100
AcDbEntity
  8
跨径线
100
AcDbVertex
100
AcDb2dVertex
 10
571616.4347228298
 20
785551.4783748649
 30
0.0
 70
0
  0
SEQEND
  5
6E
330
6D
100
AcDbEntity
  8
跨径线
  0
TEXT
  5
72
330
17
100
AcDbEntity
  8
跨径线
100
AcDbText
 10
571612.4025499279
 20
785537.0304829187
 30
0.0
 40
0.1
  1
W9 (442.474 of M) 
 72
1
 11
571612.4025499279
 21
785537.0304829187
 31
0.0
100
AcDbText
 73
2
  0
POLYLINE
  5
73
330
17
100
AcDbEntity
  8
跨径线
100
AcDb2dPolyline
 66
1
 10
0.0
 20
0.0
 30
0.0
 70
0
  0
VERTEX
  5
75
330
17
100
AcDbEntity
  8
跨径线
100
AcDbVertex
100
AcDb2dVertex
 10
571651.7141048325
 20
785510.4862584769
 30
0.0
 70
0
  0
VERTEX
  5
76
330
17
100
AcDbEntity
  8
跨径线
100
AcDbVertex
100
AcDb2dVertex
 10
571655.7462777344
 20
785524.934150423
 30
0.0
 70
0
  0
VERTEX
  5
77
330
17
100
AcDbEntity
  8
跨径线
100
AcDbVertex
100
AcDb2dVertex
 10
571659.7784506363
 20
785539.3820423692
 30
0.0
 70
0
  0
SEQEND
  5
74
330
73
100
AcDbEntity
  8
跨径线
  0
TEXT
  5
78
330
17
100
AcDbEntity
  8
跨径线
100
AcDbText
 10
571655.7462777344
 20
785524.934150423
 30
0.0
 40
0.1
  1
W8 (487.474 of M) 
 72
1
 11
571655.7462777344
 21
785524.934150423
 31
0.0
100
AcDbText
 73
2
  0
POLYLINE
  5
79
330
17
100
AcDbEntity
  8
跨径线
100
AcDb2dPolyline
 66
1
 10
0.0
 20
0.0
 30
0.0
 70
0
  0
VERTEX
  5
7B
330
17
100
AcDbEntity
  8
跨径线
100
AcDbVertex
100
AcDb2dVertex
 10
571695.0580586984
 20
785498.3898628935
 30
0.0
 70
0
  0
VERTEX
  5
7C
330
17
100
AcDbEntity
  8
跨径线
100
AcDbVertex
100
AcDb2dVertex
 10
571699.0900055408
 20
785512.8378179274
 30
0.0
 70
0
  0
VERTEX
  5
7D
330
17
100
AcDbEntity
  8
跨径线
100
AcDbVertex
100
AcDb2dVertex
 10
571703.1219523831
 20
785527.2857729612
 30
0.0
 70
0
  0
SEQEND
  5
7A
330
79
100
AcDbEntity
  8
跨径线
  0
TEXT
  5
7E
330
17
100
AcDbEntity
  8
跨径线
100
AcDbText
 10
571699.0900055408
 20
785512.8378179274
 30
0.0
 40
0.1
  1
W7 (532.474 of M) 
 72
1
 11
571699.0900055408
 21
785512.8378179274
 31
0.0
100
AcDbText
 73
2
  0
POLYLINE
  5
7F
330
17
100
AcDbEntity
  8
跨径线
100
AcDb2dPolyline
 66
1
 10
0.0
 20
0.0
 30
0.0
 70
0
  0
VERTEX
  5
81
330
17
100
AcDbEntity
  8
跨径线
100
AcDbVertex
100
AcDb2dVertex
 10
571738.4017865048
 20
785486.2935303978
 30
0.0
 70
0
  0
VERTEX
  5
82
330
17
100
AcDbEntity
  8
跨径线
100
AcDbVertex
100
AcDb2dVertex
 10
571742.4337333471
 20
785500.7414854317
 30
0.0
 70
0
  0
VERTEX
  5
83
330
17
100
AcDbEntity
  8
跨径线
100
AcDbVertex
100
AcDb2dVertex
 10
571746.4656801894
 20
785515.1894404655
 30
0.0
 70
0
  0
SEQEND
  5
80
330
7F
100
AcDbEntity
  8
跨径线
  0
TEXT
  5
84
330
17
100
AcDbEntity
  8
跨径线
100
AcDbText
 10
571742.4337333471
 20
785500.7414854317
 30
0.0
 40
0.1
  1
W6 (577.474 of M) 
 72
1
 11
571742.4337333471
 21
785500.7414854317
 31
0.0
100
AcDbText
 73
2
  0
POLYLINE
  5
85
330
17
100
AcDbEntity
  8
跨径线
100
AcDb2dPolyline
 66
1
 10
0.0
 20
0.0
 30
0.0
 70
0
  0
VERTEX
  5
87
330
17
100
AcDbEntity
  8
跨径线
100
AcDbVertex
100
AcDb2dVertex
 10
571781.7444782208
 20
785474.1974870806
 30
0.0
 70
0
  0
VERTEX
  5
88
330
17
100
AcDbEntity
  8
跨径线
100
AcDbVertex
100
AcDb2dVertex
 10
571785.7774611535
 20
785488.6451529359
 30
0.0
 70
0
  0
VERTEX
  5
89
330
17
100
AcDbEntity
  8
跨径线
100
AcDbVertex
100
AcDb2dVertex
 10
571789.8104440861
 20
785503.0928187912
 30
0.0
 70
0
  0
SEQEND
  5
86
330
85
100
AcDbEntity
  8
跨径线
  0
TEXT
  5
8A
330
17
100
AcDbEntity
  8
跨径线
100
AcDbText
 10
571785.7774611535
 20
785488.6451529359
 30
0.0
 40
0.1
  1
W5 (622.474 of M) 
 72
1
 11
571785.7774611535
 21
785488.6451529359
 31
0.0
100
AcDbText
 73
2
  0
POLYLINE
  5
8B
330
17
100
AcDbEntity
  8
跨径线
100
AcDb2dPolyline
 66
1
 10
0.0
 20
0.0
 30
0.0
 70
0
  0
VERTEX
  5
8D
330
17
100
AcDbEntity
  8
跨径线
100
AcDbVertex
100
AcDb2dVertex
 10
571825.089016058
 20
785462.100928494
 30
0.0
 70
0
  0
VERTEX
  5
8E
330
17
100
AcDbEntity
  8
跨径线
100
AcDbVertex
100
AcDb2dVertex
 10
571829.1211889599
 20
785476.5488204402
 30
0.0
 70
0
  0
VERTEX
  5
8F
330
17
100
AcDbEntity
  8
跨径线
100
AcDbVertex
100
AcDb2dVertex
 10
571833.1533618618
 20
785490.9967123864
 30
0.0
 70
0
  0
SEQEND
  5
8C
330
8B
100
AcDbEntity
  8
跨径线
  0
TEXT
  5
90
330
17
100
AcDbEntity
  8
跨径线
100
AcDbText
 10
571829.1211889599
 20
785476.5488204402
 30
0.0
 40
0.1
  1
W4 (667.474 of M) 
 72
1
 11
571829.1211889599
 21
785476.5488204402
 31
0.0
100
AcDbText
 73
2
  0
POLYLINE
  5
91
330
17
100
AcDbEntity
  8
跨径线
100
AcDb2dPolyline
 66
1
 10
0.0
 20
0.0
 30
0.0
 70
0
  0
VERTEX
  5
93
330
17
100
AcDbEntity
  8
跨径线
100
AcDbVertex
100
AcDb2dVertex
 10
570931.8290461804
 20
785537.2868666173
 30
0.0
 70
0
  0
VERTEX
  5
94
330
17
100
AcDbEntity
  8
跨径线
100
AcDbVertex
100
AcDb2dVertex
 10
570920.1971174186
 20
785546.757781741
 30
0.0
 70
0
  0
VERTEX
  5
95
330
17
100
AcDbEntity
  8
跨径线
100
AcDbVertex
100
AcDb2dVertex
 10
570908.5651886569
 20
785556.2286968647
 30
0.0
 70
0
  0
SEQEND
  5
92
330
91
100
AcDbEntity
  8
跨径线
  0
TEXT
  5
96
330
17
100
AcDbEntity
  8
跨径线
100
AcDbText
 10
570920.1971174186
 20
785546.757781741
 30
0.0
 40
0.1
  1
SA (180.364 of D1) 
 72
1
 11
570920.1971174186
 21
785546.757781741
 31
0.0
100
AcDbText
 73
2
  0
POLYLINE
  5
97
330
17
100
AcDbEntity
  8
跨径线
100
AcDb2dPolyline
 66
1
 10
0.0
 20
0.0
 30
0.0
 70
0
  0
VERTEX
  5
99
330
17
100
AcDbEntity
  8
跨径线
100
AcDbVertex
100
AcDb2dVertex
 10
570952.6646186606
 20
785562.879052792
 30
0.0
 70
0
  0
VERTEX
  5
9A
330
17
100
AcDbEntity
  8
跨径线
100
AcDbVertex
100
AcDb2dVertex
 10
570941.0319143534
 20
785572.3490153316
 30
0.0
 70
0
  0
VERTEX
  5
9B
330
17
100
AcDbEntity
  8
跨径线
100
AcDbVertex
100
AcDb2dVertex
 10
570929.3992100462
 20
785581.8189778712
 30
0.0
 70
0
  0
SEQEND
  5
98
330
97
100
AcDbEntity
  8
跨径线
  0
TEXT
  5
9C
330
17
100
AcDbEntity
  8
跨径线
100
AcDbText
 10
570941.0319143534
 20
785572.3490153316
 30
0.0
 40
0.1
  1
R1-1 (213.364 of D1) 
 72
1
 11
570941.0319143534
 21
785572.3490153316
 31
0.0
100
AcDbText
 73
2
  0
POLYLINE
  5
9D
330
17
100
AcDbEntity
  8
跨径线
100
AcDb2dPolyline
 66
1
 10
0.0
 20
0.0
 30
0.0
 70
0
  0
VERTEX
  5
9F
330
17
100
AcDbEntity
  8
跨径线
100
AcDbVertex
100
AcDb2dVertex
 10
570976.5395566308
 20
785591.9382024521
 30
0.0
 70
0
  0
VERTEX
  5
A0
330
17
100
AcDbEntity
  8
跨径线
100
AcDbVertex
100
AcDb2dVertex
 10
570965.1569346095
 20
785601.7073332181
 30
0.0
 70
0
  0
VERTEX
  5
A1
330
17
100
AcDbEntity
  8
跨径线
100
AcDbVertex
100
AcDb2dVertex
 10
570953.7743125883
 20
785611.476463984
 30
0.0
 70
0
  0
SEQEND
  5
9E
330
9D
100
AcDbEntity
  8
跨径线
  0
TEXT
  5
A2
330
17
100
AcDbEntity
  8
跨径线
100
AcDbText
 10
570965.1569346095
 20
785601.7073332181
 30
0.0
 40
0.1
  1
R1-2 (251.364 of D1) 
 72
1
 11
570965.1569346095
 21
785601.7073332181
 31
0.0
100
AcDbText
 73
2
  0
POLYLINE
  5
A3
330
17
100
AcDbEntity
  8
跨径线
100
AcDb2dPolyline
 66
1
 10
0.0
 20
0.0
 30
0.0
 70
0
  0
VERTEX
  5
A5
330
17
100
AcDbEntity
  8
跨径线
100
AcDbVertex
100
AcDb2dVertex
 10
571026.0613617564
 20
785631.0208932095
 30
0.0
 70
0
  0
VERTEX
  5
A6
330
17
100
AcDbEntity
  8
跨径线
100
AcDbVertex
100
AcDb2dVertex
 10
571020.5198678287
 20
785644.9597541762
 30
0.0
 70
0
  0
VERTEX
  5
A7
330
17
100
AcDbEntity
  8
跨径线
100
AcDbVertex
100
AcDb2dVertex
 10
571014.978373901
 20
785658.8986151429
 30
0.0
 70
0
  0
SEQEND
  5
A4
330
A3
100
AcDbEntity
  8
跨径线
  0
TEXT
  5
A8
330
17
100
AcDbEntity
  8
跨径线
100
AcDbText
 10
571020.5198678287
 20
785644.9597541762
 30
0.0
 40
0.1
  1
R1-3 (322.364 of D1) 
 72
1
 11
571020.5198678287
 21
785644.9597541762
 31
0.0
100
AcDbText
 73
2
  0
POLYLINE
  5
A9
330
17
100
AcDbEntity
  8
跨径线
100
AcDb2dPolyline
 66
1
 10
0.0
 20
0.0
 30
0.0
 70
0
  0
VERTEX
  5
AB
330
17
100
AcDbEntity
  8
跨径线
100
AcDbVertex
100
AcDb2dVertex
 10
571064.4304253188
 20
785637.8445706028
 30
0.0
 70
0
  0
VERTEX
  5
AC
330
17
100
AcDbEntity
  8
跨径线
100
AcDbVertex
100
AcDb2dVertex
 10
571064.5299632633
 20
785652.844240339
 30
0.0
 70
0
  0
VERTEX
  5
AD
330
17
100
AcDbEntity
  8
跨径线
100
AcDbVertex
100
AcDb2dVertex
 10
571064.6295012078
 20
785667.8439100753
 30
0.0
 70
0
  0
SEQEND
  5
AA
330
A9
100
AcDbEntity
  8
跨径线
  0
TEXT
  5
AE
330
17
100
AcDbEntity
  8
跨径线
100
AcDbText
 10
571064.5299632633
 20
785652.844240339
 30
0.0
 40
0.1
  1
R1-4 (367.364 of D1) 
 72
1
 11
571064.5299632633
 21
785652.844240339
 31
0.0
100
AcDbText
 73
2
  0
POLYLINE
  5
AF
330
17
100
AcDbEntity
  8
跨径线
100
AcDb2dPolyline
 66
1
 10
0.0
 20
0.0
 30
0.0
 70
0
  0
VERTEX
  5
B1
330
17
100
AcDbEntity
  8
跨径线
100
AcDbVertex
100
AcDb2dVertex
 10
571102.1410352932
 20
785633.8536784903
 30
0.0
 70
0
  0
VERTEX
  5
B2
330
17
100
AcDbEntity
  8
跨径线
100
AcDbVertex
100
AcDb2dVertex
 10
571104.6303796316
 20
785648.6456751359
 30
0.0
 70
0
  0
VERTEX
  5
B3
330
17
100
AcDbEntity
  8
跨径线
100
AcDbVertex
100
AcDb2dVertex
 10
571107.1197239701
 20
785663.4376717815
 30
0.0
 70
0
  0
SEQEND
  5
B0
330
AF
100
AcDbEntity
  8
跨径线
  0
TEXT
  5
B4
330
17
100
AcDbEntity
  8
跨径线
100
AcDbText
 10
571104.6303796316
 20
785648.6456751359
 30
0.0
 40
0.1
  1
R1-5 (407.728 of D1) 
 72
1
 11
571104.6303796316
 21
785648.6456751359
 31
0.0
100
AcDbText
 73
2
  0
POLYLINE
  5
B5
330
17
100
AcDbEntity
  8
跨径线
100
AcDb2dPolyline
 66
1
 10
0.0
 20
0.0
 30
0.0
 70
0
  0
VERTEX
  5
B7
330
17
100
AcDbEntity
  8
跨径线
100
AcDbVertex
100
AcDb2dVertex
 10
571142.12850712
 20
785626.8591505135
 30
0.0
 70
0
  0
VERTEX
  5
B8
330
17
100
AcDbEntity
  8
跨径线
100
AcDbVertex
100
AcDb2dVertex
 10
571144.721688129
 20
785641.6332972657
 30
0.0
 70
0
  0
VERTEX
  5
B9
330
17
100
AcDbEntity
  8
跨径线
100
AcDbVertex
100
AcDb2dVertex
 10
571147.3148691381
 20
785656.4074440179
 30
0.0
 70
0
  0
SEQEND
  5
B6
330
B5
100
AcDbEntity
  8
跨径线
  0
TEXT
  5
BA
330
17
100
AcDbEntity
  8
跨径线
100
AcDbText
 10
571144.721688129
 20
785641.6332972657
 30
0.0
 40
0.1
  1
R1-6 (448.428 of D1) 
 72
1
 11
571144.721688129
 21
785641.6332972657
 31
0.0
100
AcDbText
 73
2
  0
POLYLINE
  5
BB
330
17
100
AcDbEntity
  8
跨径线
100
AcDb2dPolyline
 66
1
 10
0.0
 20
0.0
 30
0.0
 70
0
  0
VERTEX
  5
BD
330
17
100
AcDbEntity
  8
跨径线
100
AcDbVertex
100
AcDb2dVertex
 10
570945.4908908507
 20
785568.7185844186
 30
0.0
 70
0
  0
VERTEX
  5
BE
330
17
100
AcDbEntity
  8
跨径线
100
AcDbVertex
100
AcDb2dVertex
 10
570933.8586140288
 20
785578.1890720481
 30
0.0
 70
0
  0
VERTEX
  5
BF
330
17
100
AcDbEntity
  8
跨径线
100
AcDbVertex
100
AcDb2dVertex
 10
570922.2263372069
 20
785587.6595596775
 30
0.0
 70
0
  0
SEQEND
  5
BC
330
BB
100
AcDbEntity
  8
跨径线
  0
TEXT
  5
C0
330
17
100
AcDbEntity
  8
跨径线
100
AcDbText
 10
570933.8586140288
 20
785578.1890720481
 30
0.0
 40
0.1
  1
R2-1 (213.364 of D2) 
 72
1
 11
570933.8586140288
 21
785578.1890720481
 31
0.0
100
AcDbText
 73
2
  0
POLYLINE
  5
C1
330
17
100
AcDbEntity
  8
跨径线
100
AcDb2dPolyline
 66
1
 10
0.0
 20
0.0
 30
0.0
 70
0
  0
VERTEX
  5
C3
330
17
100
AcDbEntity
  8
跨径线
100
AcDbVertex
100
AcDb2dVertex
 10
570969.4829026851
 20
785598.187802734
 30
0.0
 70
0
  0
VERTEX
  5
C4
330
17
100
AcDbEntity
  8
跨径线
100
AcDbVertex
100
AcDb2dVertex
 10
570957.8501983779
 20
785607.6577652736
 30
0.0
 70
0
  0
VERTEX
  5
C5
330
17
100
AcDbEntity
  8
跨径线
100
AcDbVertex
100
AcDb2dVertex
 10
570946.2174940706
 20
785617.1277278132
 30
0.0
 70
0
  0
SEQEND
  5
C2
330
C1
100
AcDbEntity
  8
跨径线
  0
TEXT
  5
C6
330
17
100
AcDbEntity
  8
跨径线
100
AcDbText
 10
570957.8501983779
 20
785607.6577652736
 30
0.0
 40
0.1
  1
R2-2 (251.364 of D2) 
 72
1
 11
570957.8501983779
 21
785607.6577652736
 31
0.0
100
AcDbText
 73
2
  0
POLYLINE
  5
C7
330
17
100
AcDbEntity
  8
跨径线
100
AcDb2dPolyline
 66
1
 10
0.0
 20
0.0
 30
0.0
 70
0
  0
VERTEX
  5
C9
330
17
100
AcDbEntity
  8
跨径线
100
AcDbVertex
100
AcDb2dVertex
 10
571001.3301439437
 20
785633.2843199667
 30
0.0
 70
0
  0
VERTEX
  5
CA
330
17
100
AcDbEntity
  8
跨径线
100
AcDbVertex
100
AcDb2dVertex
 10
570991.4655623499
 20
785644.5843212932
 30
0.0
 70
0
  0
VERTEX
  5
CB
330
17
100
AcDbEntity
  8
跨径线
100
AcDbVertex
100
AcDb2dVertex
 10
570981.6009807561
 20
785655.8843226196
 30
0.0
 70
0
  0
SEQEND
  5
C8
330
C7
100
AcDbEntity
  8
跨径线
  0
TEXT
  5
CC
330
17
100
AcDbEntity
  8
跨径线
100
AcDbText
 10
570991.4655623499
 20
785644.5843212932
 30
0.0
 40
0.1
  1
R2-3 (301.364 of D2) 
 72
1
 11
570991.4655623499
 21
785644.5843212932
 31
0.0
100
AcDbText
 73
2
  0
POLYLINE
  5
CD
330
17
100
AcDbEntity
  8
跨径线
100
AcDb2dPolyline
 66
1
 10
0.0
 20
0.0
 30
0.0
 70
0
  0
VERTEX
  5
CF
330
17
100
AcDbEntity
  8
跨径线
100
AcDbVertex
100
AcDb2dVertex
 10
571039.734013282
 20
785653.8375244311
 30
0.0
 70
0
  0
VERTEX
  5
D0
330
17
100
AcDbEntity
  8
跨径线
100
AcDbVertex
100
AcDb2dVertex
 10
571036.198788435
 20
785668.4149791225
 30
0.0
 70
0
  0
VERTEX
  5
D1
330
17
100
AcDbEntity
  8
跨径线
100
AcDbVertex
100
AcDb2dVertex
 10
571032.6635635879
 20
785682.9924338139
 30
0.0
 70
0
  0
SEQEND
  5
CE
330
CD
100
AcDbEntity
  8
跨径线
  0
TEXT
  5
D2
330
17
100
AcDbEntity
  8
跨径线
100
AcDbText
 10
571036.198788435
 20
785668.4149791225
 30
0.0
 40
0.1
  1
R2-4 (352.562 of D2) 
 72
1
 11
571036.198788435
 21
785668.4149791225
 31
0.0
100
AcDbText
 73
2
  0
POLYLINE
  5
D3
330
17
100
AcDbEntity
  8
跨径线
100
AcDb2dPolyline
 66
1
 10
0.0
 20
0.0
 30
0.0
 70
0
  0
VERTEX
  5
D5
330
17
100
AcDbEntity
  8
跨径线
100
AcDbVertex
100
AcDb2dVertex
 10
571077.2458780705
 20
785655.3664126808
 30
0.0
 70
0
  0
VERTEX
  5
D6
330
17
100
AcDbEntity
  8
跨径线
100
AcDbVertex
100
AcDb2dVertex
 10
571078.9318632635
 20
785670.2713599779
 30
0.0
 70
0
  0
VERTEX
  5
D7
330
17
100
AcDbEntity
  8
跨径线
100
AcDbVertex
100
AcDb2dVertex
 10
571080.6178484565
 20
785685.176307275
 30
0.0
 70
0
  0
SEQEND
  5
D4
330
D3
100
AcDbEntity
  8
跨径线
  0
TEXT
  5
D8
330
17
100
AcDbEntity
  8
跨径线
100
AcDbText
 10
571078.9318632635
 20
785670.2713599779
 30
0.0
 40
0.1
  1
R2-5 (395.562 of D2) 
 72
1
 11
571078.9318632635
 21
785670.2713599779
 31
0.0
100
AcDbText
 73
2
  0
POLYLINE
  5
D9
330
17
100
AcDbEntity
  8
跨径线
100
AcDb2dPolyline
 66
1
 10
0.0
 20
0.0
 30
0.0
 70
0
  0
VERTEX
  5
DB
330
17
100
AcDbEntity
  8
跨径线
100
AcDbVertex
100
AcDb2dVertex
 10
571115.1686409219
 20
785648.4673641872
 30
0.0
 70
0
  0
VERTEX
  5
DC
330
17
100
AcDbEntity
  8
跨径线
100
AcDbVertex
100
AcDb2dVertex
 10
571118.274418042
 20
785663.1423138798
 30
0.0
 70
0
  0
VERTEX
  5
DD
330
17
100
AcDbEntity
  8
跨径线
100
AcDbVertex
100
AcDb2dVertex
 10
571121.3801951621
 20
785677.8172635724
 30
0.0
 70
0
  0
SEQEND
  5
DA
330
D9
100
AcDbEntity
  8
跨径线
  0
TEXT
  5
DE
330
17
100
AcDbEntity
  8
跨径线
100
AcDbText
 10
571118.274418042
 20
785663.1423138798
 30
0.0
 40
0.1
  1
R2-6 (435.5618 of D2) 
 72
1
 11
571118.274418042
 21
785663.1423138798
 31
0.0
100
AcDbText
 73
2
  0
POLYLINE
  5
DF
330
17
100
AcDbEntity
  8
跨径线
100
AcDb2dPolyline
 66
1
 10
0.0
 20
0.0
 30
0.0
 70
0
  0
VERTEX
  5
E1
330
17
100
AcDbEntity
  8
跨径线
100
AcDbVertex
100
AcDb2dVertex
 10
571144.5187816172
 20
785642.2560770613
 30
0.0
 70
0
  0
VERTEX
  5
E2
330
17
100
AcDbEntity
  8
跨径线
100
AcDbVertex
100
AcDb2dVertex
 10
571147.6243818784
 20
785656.9310641828
 30
0.0
 70
0
  0
VERTEX
  5
E3
330
17
100
AcDbEntity
  8
跨径线
100
AcDbVertex
100
AcDb2dVertex
 10
571150.7299821397
 20
785671.6060513043
 30
0.0
 70
0
  0
SEQEND
  5
E0
330
DF
100
AcDbEntity
  8
跨径线
  0
TEXT
  5
E4
330
17
100
AcDbEntity
  8
跨径线
100
AcDbText
 10
571147.6243818784
 20
785656.9310641828
 30
0.0
 40
0.1
  1
R2-7 (465.5618 of D2) 
 72
1
 11
571147.6243818784
 21
785656.9310641828
 31
0.0
100
AcDbText
 73
2
  0
POLYLINE
  5
E5
330
17
100
AcDbEntity
  8
跨径线
100
AcDb2dPolyline
 66
1
 10
0.0
 20
0.0
 30
0.0
 70
0
  0
VERTEX
  5
E7
330
17
100
AcDbEntity
  8
跨径线
100
AcDbVertex
100
AcDb2dVertex
 10
571188.5437273718
 20
785632.9392025155
 30
0.0
 70
0
  0
VERTEX
  5
E8
330
17
100
AcDbEntity
  8
跨径线
100
AcDbVertex
100
AcDb2dVertex
 10
571191.6493276331
 20
785647.614189637
 30
0.0
 70
0
  0
VERTEX
  5
E9
330
17
100
AcDbEntity
  8
跨径线
100
AcDbVertex
100
AcDb2dVertex
 10
571194.7549278943
 20
785662.2891767585
 30
0.0
 70
0
  0
SEQEND
  5
E6
330
E5
100
AcDbEntity
  8
跨径线
  0
TEXT
  5
EA
330
17
100
AcDbEntity
  8
跨径线
100
AcDbText
 10
571191.6493276331
 20
785647.614189637
 30
0.0
 40
0.1
  1
R2-8 (510.5618 of D2) 
 72
1
 11
571191.6493276331
 21
785647.614189637
 31
0.0
100
AcDbText
 73
2
  0
POLYLINE
  5
EB
330
17
100
AcDbEntity
  8
跨径线
100
AcDb2dPolyline
 66
1
 10
0.0
 20
0.0
 30
0.0
 70
0
  0
VERTEX
  5
ED
330
17
100
AcDbEntity
  8
跨径线
100
AcDbVertex
100
AcDb2dVertex
 10
571084.5066989148
 20
785792.2363778794
 30
0.0
 70
0
  0
VERTEX
  5
EE
330
17
100
AcDbEntity
  8
跨径线
100
AcDbVertex
100
AcDb2dVertex
 10
571096.2394669659
 20
785782.8906754521
 30
0.0
 70
0
  0
VERTEX
  5
EF
330
17
100
AcDbEntity
  8
跨径线
100
AcDbVertex
100
AcDb2dVertex
 10
571107.972235017
 20
785773.5449730247
 30
0.0
 70
0
  0
SEQEND
  5
EC
330
EB
100
AcDbEntity
  8
跨径线
  0
TEXT
  5
F0
330
17
100
AcDbEntity
  8
跨径线
100
AcDbText
 10
571096.2394669659
 20
785782.8906754521
 30
0.0
 40
0.1
  1
R3-1 (184.505 of D3) 
 72
1
 11
571096.2394669659
 21
785782.8906754521
 31
0.0
100
AcDbText
 73
2
  0
POLYLINE
  5
F1
330
17
100
AcDbEntity
  8
跨径线
100
AcDb2dPolyline
 66
1
 10
0.0
 20
0.0
 30
0.0
 70
0
  0
VERTEX
  5
F3
330
17
100
AcDbEntity
  8
跨径线
100
AcDbVertex
100
AcDb2dVertex
 10
571063.3821225055
 20
785760.5465939416
 30
0.0
 70
0
  0
VERTEX
  5
F4
330
17
100
AcDbEntity
  8
跨径线
100
AcDbVertex
100
AcDb2dVertex
 10
571076.808991469
 20
785753.8593531176
 30
0.0
 70
0
  0
VERTEX
  5
F5
330
17
100
AcDbEntity
  8
跨径线
100
AcDbVertex
100
AcDb2dVertex
 10
571090.2358604325
 20
785747.1721122937
 30
0.0
 70
0
  0
SEQEND
  5
F2
330
F1
100
AcDbEntity
  8
跨径线
  0
TEXT
  5
F6
330
17
100
AcDbEntity
  8
跨径线
100
AcDbText
 10
571076.808991469
 20
785753.8593531176
 30
0.0
 40
0.1
  1
R3-2 (219.505 of D3) 
 72
1
 11
571076.808991469
 21
785753.8593531176
 31
0.0
100
AcDbText
 73
2
  0
POLYLINE
  5
F7
330
17
100
AcDbEntity
  8
跨径线
100
AcDb2dPolyline
 66
1
 10
0.0
 20
0.0
 30
0.0
 70
0
  0
VERTEX
  5
F9
330
17
100
AcDbEntity
  8
跨径线
100
AcDbVertex
100
AcDb2dVertex
 10
571055.1119932791
 20
785702.2478428134
 30
0.0
 70
0
  0
VERTEX
  5
FA
330
17
100
AcDbEntity
  8
跨径线
100
AcDbVertex
100
AcDb2dVertex
 10
571069.7899157397
 20
785705.3395401207
 30
0.0
 70
0
  0
VERTEX
  5
FB
330
17
100
AcDbEntity
  8
跨径线
100
AcDbVertex
100
AcDb2dVertex
 10
571084.4678382003
 20
785708.431237428
 30
0.0
 70
0
  0
SEQEND
  5
F8
330
F7
100
AcDbEntity
  8
跨径线
  0
TEXT
  5
FC
330
17
100
AcDbEntity
  8
跨径线
100
AcDbText
 10
571069.7899157397
 20
785705.3395401207
 30
0.0
 40
0.1
  1
R3-3 (269.505 of D3) 
 72
1
 11
571069.7899157397
 21
785705.3395401207
 31
0.0
100
AcDbText
 73
2
  0
POLYLINE
  5
FD
330
17
100
AcDbEntity
  8
跨径线
100
AcDb2dPolyline
 66
1
 10
0.0
 20
0.0
 30
0.0
 70
0
  0
VERTEX
  5
FF
330
17
100
AcDbEntity
  8
跨径线
100
AcDbVertex
100
AcDb2dVertex
 10
571072.1417262062
 20
785666.3840490079
 30
0.0
 70
0
  0
VERTEX
  5
100
330
17
100
AcDbEntity
  8
跨径线
100
AcDbVertex
100
AcDb2dVertex
 10
571083.8142738077
 20
785675.8048574917
 30
0.0
 70
0
  0
VERTEX
  5
101
330
17
100
AcDbEntity
  8
跨径线
100
AcDbVertex
100
AcDb2dVertex
 10
571095.4868214092
 20
785685.2256659756
 30
0.0
 70
0
  0
SEQEND
  5
FE
330
FD
100
AcDbEntity
  8
跨径线
  0
TEXT
  5
102
330
17
100
AcDbEntity
  8
跨径线
100
AcDbText
 10
571083.8142738077
 20
785675.8048574917
 30
0.0
 40
0.1
  1
R3-4 (302.505 of D3) 
 72
1
 11
571083.8142738077
 21
785675.8048574917
 31
0.0
100
AcDbText
 73
2
  0
POLYLINE
  5
103
330
17
100
AcDbEntity
  8
跨径线
100
AcDb2dPolyline
 66
1
 10
0.0
 20
0.0
 30
0.0
 70
0
  0
VERTEX
  5
105
330
17
100
AcDbEntity
  8
跨径线
100
AcDbVertex
100
AcDb2dVertex
 10
571100.0558718157
 20
785643.7775965274
 30
0.0
 70
0
  0
VERTEX
  5
106
330
17
100
AcDbEntity
  8
跨径线
100
AcDbVertex
100
AcDb2dVertex
 10
571106.9776472775
 20
785657.0850765463
 30
0.0
 70
0
  0
VERTEX
  5
107
330
17
100
AcDbEntity
  8
跨径线
100
AcDbVertex
100
AcDb2dVertex
 10
571113.8994227394
 20
785670.3925565652
 30
0.0
 70
0
  0
SEQEND
  5
104
330
103
100
AcDbEntity
  8
跨径线
  0
TEXT
  5
108
330
17
100
AcDbEntity
  8
跨径线
100
AcDbText
 10
571106.9776472775
 20
785657.0850765463
 30
0.0
 40
0.1
  1
R3-5 (332.505 of D3) 
 72
1
 11
571106.9776472775
 21
785657.0850765463
 31
0.0
100
AcDbText
 73
2
  0
POLYLINE
  5
109
330
17
100
AcDbEntity
  8
跨径线
100
AcDb2dPolyline
 66
1
 10
0.0
 20
0.0
 30
0.0
 70
0
  0
VERTEX
  5
10B
330
17
100
AcDbEntity
  8
跨径线
100
AcDbVertex
100
AcDb2dVertex
 10
571117.0806476969
 20
785817.6527864407
 30
0.0
 70
0
  0
VERTEX
  5
10C
330
17
100
AcDbEntity
  8
跨径线
100
AcDbVertex
100
AcDb2dVertex
 10
571128.7133520041
 20
785808.1828239011
 30
0.0
 70
0
  0
VERTEX
  5
10D
330
17
100
AcDbEntity
  8
跨径线
100
AcDbVertex
100
AcDb2dVertex
 10
571140.3460563113
 20
785798.7128613614
 30
0.0
 70
0
  0
SEQEND
  5
10A
330
109
100
AcDbEntity
  8
跨径线
  0
TEXT
  5
10E
330
17
100
AcDbEntity
  8
跨径线
100
AcDbText
 10
571128.7133520041
 20
785808.1828239011
 30
0.0
 40
0.1
  1
NA4 (144.3884 of D4) 
 72
1
 11
571128.7133520041
 21
785808.1828239011
 31
0.0
100
AcDbText
 73
2
  0
POLYLINE
  5
10F
330
17
100
AcDbEntity
  8
跨径线
100
AcDb2dPolyline
 66
1
 10
0.0
 20
0.0
 30
0.0
 70
0
  0
VERTEX
  5
111
330
17
100
AcDbEntity
  8
跨径线
100
AcDbVertex
100
AcDb2dVertex
 10
571096.0299405636
 20
785790.7643351009
 30
0.0
 70
0
  0
VERTEX
  5
112
330
17
100
AcDbEntity
  8
跨径线
100
AcDbVertex
100
AcDb2dVertex
 10
571108.3580753756
 20
785782.2193311771
 30
0.0
 70
0
  0
VERTEX
  5
113
330
17
100
AcDbEntity
  8
跨径线
100
AcDbVertex
100
AcDb2dVertex
 10
571120.6862101875
 20
785773.6743272532
 30
0.0
 70
0
  0
SEQEND
  5
110
330
10F
100
AcDbEntity
  8
跨径线
  0
TEXT
  5
114
330
17
100
AcDbEntity
  8
跨径线
100
AcDbText
 10
571108.3580753756
 20
785782.2193311771
 30
0.0
 40
0.1
  1
R4-1 (177.3884 of D4) 
 72
1
 11
571108.3580753756
 21
785782.2193311771
 31
0.0
100
AcDbText
 73
2
  0
POLYLINE
  5
115
330
17
100
AcDbEntity
  8
跨径线
100
AcDb2dPolyline
 66
1
 10
0.0
 20
0.0
 30
0.0
 70
0
  0
VERTEX
  5
117
330
17
100
AcDbEntity
  8
跨径线
100
AcDbVertex
100
AcDb2dVertex
 10
571078.3890578117
 20
785726.4327583625
 30
0.0
 70
0
  0
VERTEX
  5
118
330
17
100
AcDbEntity
  8
跨径线
100
AcDbVertex
100
AcDb2dVertex
 10
571093.1981966979
 20
785728.8180058236
 30
0.0
 70
0
  0
VERTEX
  5
119
330
17
100
AcDbEntity
  8
跨径线
100
AcDbVertex
100
AcDb2dVertex
 10
571108.007335584
 20
785731.2032532848
 30
0.0
 70
0
  0
SEQEND
  5
116
330
115
100
AcDbEntity
  8
跨径线
  0
TEXT
  5
11A
330
17
100
AcDbEntity
  8
跨径线
100
AcDbText
 10
571093.1981966979
 20
785728.8180058236
 30
0.0
 40
0.1
  1
R4-2 (234.3884 of D4) 
 72
1
 11
571093.1981966979
 21
785728.8180058236
 31
0.0
100
AcDbText
 73
2
  0
POLYLINE
  5
11B
330
17
100
AcDbEntity
  8
跨径线
100
AcDb2dPolyline
 66
1
 10
0.0
 20
0.0
 30
0.0
 70
0
  0
VERTEX
  5
11D
330
17
100
AcDbEntity
  8
跨径线
100
AcDbVertex
100
AcDb2dVertex
 10
571106.3059647079
 20
785679.2073590886
 30
0.0
 70
0
  0
VERTEX
  5
11E
330
17
100
AcDbEntity
  8
跨径线
100
AcDbVertex
100
AcDb2dVertex
 10
571115.5882808153
 20
785690.9903386643
 30
0.0
 70
0
  0
VERTEX
  5
11F
330
17
100
AcDbEntity
  8
跨径线
100
AcDbVertex
100
AcDb2dVertex
 10
571124.8705969227
 20
785702.77331824
 30
0.0
 70
0
  0
SEQEND
  5
11C
330
11B
100
AcDbEntity
  8
跨径线
  0
TEXT
  5
120
330
17
100
AcDbEntity
  8
跨径线
100
AcDbText
 10
571115.5882808153
 20
785690.9903386643
 30
0.0
 40
0.1
  1
R4-3 (279.3884 of D4) 
 72
1
 11
571115.5882808153
 21
785690.9903386643
 31
0.0
100
AcDbText
 73
2
  0
POLYLINE
  5
121
330
17
100
AcDbEntity
  8
跨径线
100
AcDb2dPolyline
 66
1
 10
0.0
 20
0.0
 30
0.0
 70
0
  0
VERTEX
  5
123
330
17
100
AcDbEntity
  8
跨径线
100
AcDbVertex
100
AcDb2dVertex
 10
571147.0956230732
 20
785659.5315374131
 30
0.0
 70
0
  0
VERTEX
  5
124
330
17
100
AcDbEntity
  8
跨径线
100
AcDbVertex
100
AcDb2dVertex
 10
571151.4831600215
 20
785673.8755089527
 30
0.0
 70
0
  0
VERTEX
  5
125
330
17
100
AcDbEntity
  8
跨径线
100
AcDbVertex
100
AcDb2dVertex
 10
571155.8706969698
 20
785688.2194804922
 30
0.0
 70
0
  0
SEQEND
  5
122
330
121
100
AcDbEntity
  8
跨径线
  0
TEXT
  5
126
330
17
100
AcDbEntity
  8
跨径线
100
AcDbText
 10
571151.4831600215
 20
785673.8755089527
 30
0.0
 40
0.1
  1
R4-4 (319.3884 of D4) 
 72
1
 11
571151.4831600215
 21
785673.8755089527
 31
0.0
100
AcDbText
 73
2
  0
POLYLINE
  5
127
330
17
100
AcDbEntity
  8
跨径线
100
AcDb2dPolyline
 66
1
 10
0.0
 20
0.0
 30
0.0
 70
0
  0
VERTEX
  5
129
330
17
100
AcDbEntity
  8
跨径线
100
AcDbVertex
100
AcDb2dVertex
 10
571190.7644256522
 20
785647.2257806928
 30
0.0
 70
0
  0
VERTEX
  5
12A
330
17
100
AcDbEntity
  8
跨径线
100
AcDbVertex
100
AcDb2dVertex
 10
571194.7965985541
 20
785661.673672639
 30
0.0
 70
0
  0
VERTEX
  5
12B
330
17
100
AcDbEntity
  8
跨径线
100
AcDbVertex
100
AcDb2dVertex
 10
571198.828771456
 20
785676.1215645851
 30
0.0
 70
0
  0
SEQEND
  5
128
330
127
100
AcDbEntity
  8
跨径线
  0
TEXT
  5
12C
330
17
100
AcDbEntity
  8
跨径线
100
AcDbText
 10
571194.7965985541
 20
785661.673672639
 30
0.0
 40
0.1
  1
R4-5 (364.3884 of D4) 
 72
1
 11
571194.7965985541
 21
785661.673672639
 31
0.0
100
AcDbText
 73
2
  0
POLYLINE
  5
12D
330
17
100
AcDbEntity
  8
跨径线
100
AcDb2dPolyline
 66
1
 10
0.0
 20
0.0
 30
0.0
 70
0
  0
VERTEX
  5
12F
330
17
100
AcDbEntity
  8
跨径线
100
AcDbVertex
100
AcDb2dVertex
 10
571234.1081534587
 20
785635.1294481974
 30
0.0
 70
0
  0
VERTEX
  5
130
330
17
100
AcDbEntity
  8
跨径线
100
AcDbVertex
100
AcDb2dVertex
 10
571238.1403263606
 20
785649.5773401436
 30
0.0
 70
0
  0
VERTEX
  5
131
330
17
100
AcDbEntity
  8
跨径线
100
AcDbVertex
100
AcDb2dVertex
 10
571242.1724992625
 20
785664.0252320898
 30
0.0
 70
0
  0
SEQEND
  5
12E
330
12D
100
AcDbEntity
  8
跨径线
  0
TEXT
  5
132
330
17
100
AcDbEntity
  8
跨径线
100
AcDbText
 10
571238.1403263606
 20
785649.5773401436
 30
0.0
 40
0.1
  1
R4-6 (409.3884 of D4) 
 72
1
 11
571238.1403263606
 21
785649.5773401436
 31
0.0
100
AcDbText
 73
2
  0
ENDSEC
  0
SECTION
  2
OBJECTS
  0
DICTIONARY
  5
A
330
0
100
AcDbDictionary
280
0
281
1
  3
ACAD_COLOR
350
B
  3
ACAD_GROUP
350
C
  3
ACAD_LAYOUT
350
D
  3
ACAD_MATERIAL
350
E
  3
ACAD_MLEADERSTYLE
350
F
  3
ACAD_MLINESTYLE
350
10
  3
ACAD_PLOTSETTINGS
350
11
  3
ACAD_PLOTSTYLENAME
350
12
  3
ACAD_SCALELIST
350
14
  3
ACAD_TABLESTYLE
350
15
  3
ACAD_VISUALSTYLE
350
16
  3
EZDXF_META
350
2D
  0
DICTIONARY
  5
B
330
A
100
AcDbDictionary
280
0
281
1
  0
DICTIONARY
  5
C
330
A
100
AcDbDictionary
280
0
281
1
  0
DICTIONARY
  5
D
330
A
100
AcDbDictionary
280
0
281
1
  3
Model
350
1A
  3
Layout1
350
1E
  0
DICTIONARY
  5
E
330
A
100
AcDbDictionary
280
0
281
1
  3
ByBlock
350
1F
  3
ByLayer
350
20
  3
Global
350
21
  0
DICTIONARY
  5
F
330
A
100
AcDbDictionary
280
0
281
1
  3
Standard
350
2C
  0
DICTIONARY
  5
10
330
A
100
AcDbDictionary
280
0
281
1
  3
Standard
350
22
  0
DICTIONARY
  5
11
330
A
100
AcDbDictionary
280
0
281
1
  0
ACDBDICTIONARYWDFLT
  5
12
330
A
100
AcDbDictionary
280
0
281
1
  3
Normal
350
13
100
AcDbDictionaryWithDefault
340
13
  0
ACDBPLACEHOLDER
  5
13
330
12
  0
DICTIONARY
  5
14
330
A
100
AcDbDictionary
280
0
281
1
  0
DICTIONARY
  5
15
330
A
100
AcDbDictionary
280
0
281
1
  0
DICTIONARY
  5
16
330
A
100
AcDbDictionary
280
0
281
1
  0
LAYOUT
  5
1A
330
D
100
AcDbPlotSettings
  1

  2
Adobe PDF
  4
A3
  6

 40
7.5
 41
20.0
 42
7.5
 43
20.0
 44
420.0
 45
297.0
 46
0.0
 47
0.0
 48
0.0
 49
0.0
140
0.0
141
0.0
142
1.0
143
1.0
 70
1024
 72
1
 73
0
 74
5
  7

 75
16
 76
0
 77
2
 78
300
147
1.0
148
0.0
149
0.0
100
AcDbLayout
  1
Model
 70
1
 71
0
 10
0.0
 20
0.0
 11
420.0
 21
297.0
 12
0.0
 22
0.0
 32
0.0
 14
1e+20
 24
1e+20
 34
1e+20
 15
-1e+20
 25
-1e+20
 35
-1e+20
146
0.0
 13
0.0
 23
0.0
 33
0.0
 16
1.0
 26
0.0
 36
0.0
 17
0.0
 27
1.0
 37
0.0
 76
1
330
17
  0
LAYOUT
  5
1E
330
D
100
AcDbPlotSettings
  1

  2
Adobe PDF
  4
A3
  6

 40
7.5
 41
20.0
 42
7.5
 43
20.0
 44
420.0
 45
297.0
 46
0.0
 47
0.0
 48
0.0
 49
0.0
140
0.0
141
0.0
142
1.0
143
1.0
 70
0
 72
1
 73
0
 74
5
  7

 75
16
 76
0
 77
2
 78
300
147
1.0
148
0.0
149
0.0
100
AcDbLayout
  1
Layout1
 70
1
 71
1
 10
0.0
 20
0.0
 11
420.0
 21
297.0
 12
0.0
 22
0.0
 32
0.0
 14
1e+20
 24
1e+20
 34
1e+20
 15
-1e+20
 25
-1e+20
 35
-1e+20
146
0.0
 13
0.0
 23
0.0
 33
0.0
 16
1.0
 26
0.0
 36
0.0
 17
0.0
 27
1.0
 37
0.0
 76
1
330
1B
  0
MATERIAL
  5
1F
102
{ACAD_REACTORS
330
E
102
}
330
E
100
AcDbMaterial
  1
ByBlock
  2

 70
0
 40
1.0
 71
1
 41
1.0
 91
-1023410177
 42
1.0
 72
1
  3

 73
1
 74
1
 75
1
 44
0.5
 73
0
 45
1.0
 46
1.0
 77
1
  4

 78
1
 79
1
170
1
 48
1.0
171
1
  6

172
1
173
1
174
1
140
1.0
141
1.0
175
1
  7

176
1
177
1
178
1
143
1.0
179
1
  8

270
1
271
1
272
1
145
1.0
146
1.0
273
1
  9

274
1
275
1
276
1
 42
1.0
 72
1
  3

 73
1
 74
1
 75
1
 94
63
  0
MATERIAL
  5
20
102
{ACAD_REACTORS
330
E
102
}
330
E
100
AcDbMaterial
  1
ByLayer
  2

 70
0
 40
1.0
 71
1
 41
1.0
 91
-1023410177
 42
1.0
 72
1
  3

 73
1
 74
1
 75
1
 44
0.5
 73
0
 45
1.0
 46
1.0
 77
1
  4

 78
1
 79
1
170
1
 48
1.0
171
1
  6

172
1
173
1
174
1
140
1.0
141
1.0
175
1
  7

176
1
177
1
178
1
143
1.0
179
1
  8

270
1
271
1
272
1
145
1.0
146
1.0
273
1
  9

274
1
275
1
276
1
 42
1.0
 72
1
  3

 73
1
 74
1
 75
1
 94
63
  0
MATERIAL
  5
21
102
{ACAD_REACTORS
330
E
102
}
330
E
100
AcDbMaterial
  1
Global
  2

 70
0
 40
1.0
 71
1
 41
1.0
 91
-1023410177
 42
1.0
 72
1
  3

 73
1
 74
1
 75
1
 44
0.5
 73
0
 45
1.0
 46
1.0
 77
1
  4

 78
1
 79
1
170
1
 48
1.0
171
1
  6

172
1
173
1
174
1
140
1.0
141
1.0
175
1
  7

176
1
177
1
178
1
143
1.0
179
1
  8

270
1
271
1
272
1
145
1.0
146
1.0
273
1
  9

274
1
275
1
276
1
 42
1.0
 72
1
  3

 73
1
 74
1
 75
1
 94
63
  0
MLINESTYLE
  5
22
102
{ACAD_REACTORS
330
10
102
}
330
10
100
AcDbMlineStyle
  2
Standard
 70
0
  3

 62
256
 51
90.0
 52
90.0
 71
2
 49
0.5
 62
256
  6
BYLAYER
 49
-0.5
 62
256
  6
BYLAYER
  0
MLEADERSTYLE
  5
2C
102
{ACAD_REACTORS
330
F
102
}
330
F
100
AcDbMLeaderStyle
179
2
170
2
171
1
172
0
 90
2
 40
0.0
 41
0.0
173
1
 91
-1056964608
 92
-2
290
1
 42
2.0
291
1
 43
8.0
  3
Standard
 44
4.0
300

342
29
174
1
175
1
176
0
178
1
 93
-1056964608
 45
4.0
292
0
297
0
 46
4.0
 94
-1056964608
 47
1.0
 49
1.0
140
1.0
294
1
141
0.0
177
0
142
1.0
295
0
296
0
143
3.75
271
0
272
9
273
9
  0
DICTIONARY
  5
2D
330
A
100
AcDbDictionary
281
1
  3
CREATED_BY_EZDXF
350
2E
  3
WRITTEN_BY_EZDXF
350
135
  0
DICTIONARYVAR
  5
2E
330
2D
100
DictionaryVariables
280
0
  1
1.1.0 @ 2024-01-18T03:44:57.500589+00:00
  0
DICTIONARYVAR
  5
135
330
2D
100
DictionaryVariables
280
0
  1
1.1.0 @ 2024-01-18T03:44:57.504701+00:00
  0
ENDSEC
  0
EOF
