  0
SECTION
  2
HEADER
  9
$ACADVER
  1
AC1027
  9
$ACADMAINTVER
 70
105
  9
$DWGCODEPAGE
  3
ANSI_1252
  9
$LASTSAVEDBY
  1
ezdxf
  9
$REQUIREDVERSIONS
160
0
  9
$INSBASE
 10
0.0
 20
0.0
 30
0.0
  9
$EXTMIN
 10
1e+20
 20
1e+20
 30
1e+20
  9
$EXTMAX
 10
-1e+20
 20
-1e+20
 30
-1e+20
  9
$LIMMIN
 10
0.0
 20
0.0
  9
$LIMMAX
 10
420.0
 20
297.0
  9
$ORTHOMODE
 70
0
  9
$REGENMODE
 70
1
  9
$FILLMODE
 70
1
  9
$QTEXTMODE
 70
0
  9
$MIRRTEXT
 70
1
  9
$LTSCALE
 40
1.0
  9
$ATTMODE
 70
1
  9
$TEXTSIZE
 40
2.5
  9
$TRACEWID
 40
1.0
  9
$TEXTSTYLE
  7
Standard
  9
$CLAYER
  8
0
  9
$CELTYPE
  6
ByLayer
  9
$CECOLOR
 62
256
  9
$CELTSCALE
 40
1.0
  9
$DISPSILH
 70
0
  9
$DIMSCALE
 40
1.0
  9
$DIMASZ
 40
2.5
  9
$DIMEXO
 40
0.625
  9
$DIMDLI
 40
3.75
  9
$DIMRND
 40
0.0
  9
$DIMDLE
 40
0.0
  9
$DIMEXE
 40
1.25
  9
$DIMTP
 40
0.0
  9
$DIMTM
 40
0.0
  9
$DIMTXT
 40
2.5
  9
$DIMCEN
 40
2.5
  9
$DIMTSZ
 40
0.0
  9
$DIMTOL
 70
0
  9
$DIMLIM
 70
0
  9
$DIMTIH
 70
0
  9
$DIMTOH
 70
0
  9
$DIMSE1
 70
0
  9
$DIMSE2
 70
0
  9
$DIMTAD
 70
1
  9
$DIMZIN
 70
8
  9
$DIMBLK
  1

  9
$DIMASO
 70
1
  9
$DIMSHO
 70
1
  9
$DIMPOST
  1

  9
$DIMAPOST
  1

  9
$DIMALT
 70
0
  9
$DIMALTD
 70
3
  9
$DIMALTF
 40
0.03937007874
  9
$DIMLFAC
 40
1.0
  9
$DIMTOFL
 70
1
  9
$DIMTVP
 40
0.0
  9
$DIMTIX
 70
0
  9
$DIMSOXD
 70
0
  9
$DIMSAH
 70
0
  9
$DIMBLK1
  1

  9
$DIMBLK2
  1

  9
$DIMSTYLE
  2
ISO-25
  9
$DIMCLRD
 70
0
  9
$DIMCLRE
 70
0
  9
$DIMCLRT
 70
0
  9
$DIMTFAC
 40
1.0
  9
$DIMGAP
 40
0.625
  9
$DIMJUST
 70
0
  9
$DIMSD1
 70
0
  9
$DIMSD2
 70
0
  9
$DIMTOLJ
 70
0
  9
$DIMTZIN
 70
8
  9
$DIMALTZ
 70
0
  9
$DIMALTTZ
 70
0
  9
$DIMUPT
 70
0
  9
$DIMDEC
 70
2
  9
$DIMTDEC
 70
2
  9
$DIMALTU
 70
2
  9
$DIMALTTD
 70
3
  9
$DIMTXSTY
  7
Standard
  9
$DIMAUNIT
 70
0
  9
$DIMADEC
 70
0
  9
$DIMALTRND
 40
0.0
  9
$DIMAZIN
 70
0
  9
$DIMDSEP
 70
44
  9
$DIMATFIT
 70
3
  9
$DIMFRAC
 70
0
  9
$DIMLDRBLK
  1

  9
$DIMLUNIT
 70
2
  9
$DIMLWD
 70
-2
  9
$DIMLWE
 70
-2
  9
$DIMTMOVE
 70
0
  9
$DIMFXL
 40
1.0
  9
$DIMFXLON
 70
0
  9
$DIMJOGANG
 40
0.785398163397
  9
$DIMTFILL
 70
0
  9
$DIMTFILLCLR
 70
0
  9
$DIMARCSYM
 70
0
  9
$DIMLTYPE
  6

  9
$DIMLTEX1
  6

  9
$DIMLTEX2
  6

  9
$DIMTXTDIRECTION
 70
0
  9
$LUNITS
 70
2
  9
$LUPREC
 70
4
  9
$SKETCHINC
 40
1.0
  9
$FILLETRAD
 40
10.0
  9
$AUNITS
 70
0
  9
$AUPREC
 70
2
  9
$MENU
  1
.
  9
$ELEVATION
 40
0.0
  9
$PELEVATION
 40
0.0
  9
$THICKNESS
 40
0.0
  9
$LIMCHECK
 70
0
  9
$CHAMFERA
 40
0.0
  9
$CHAMFERB
 40
0.0
  9
$CHAMFERC
 40
0.0
  9
$CHAMFERD
 40
0.0
  9
$SKPOLY
 70
0
  9
$TDCREATE
 40
2460580.5656365743
  9
$TDUCREATE
 40
2458532.153996898
  9
$TDUPDATE
 40
2460580.5656365743
  9
$TDUUPDATE
 40
2458532.1544311
  9
$TDINDWG
 40
0.0
  9
$TDUSRTIMER
 40
0.0
  9
$USRTIMER
 70
1
  9
$ANGBASE
 50
0.0
  9
$ANGDIR
 70
0
  9
$PDMODE
 70
0
  9
$PDSIZE
 40
0.0
  9
$PLINEWID
 40
0.0
  9
$SPLFRAME
 70
0
  9
$SPLINETYPE
 70
6
  9
$SPLINESEGS
 70
8
  9
$HANDSEED
  5
1F7
  9
$SURFTAB1
 70
6
  9
$SURFTAB2
 70
6
  9
$SURFTYPE
 70
6
  9
$SURFU
 70
6
  9
$SURFV
 70
6
  9
$UCSBASE
  2

  9
$UCSNAME
  2

  9
$UCSORG
 10
0.0
 20
0.0
 30
0.0
  9
$UCSXDIR
 10
1.0
 20
0.0
 30
0.0
  9
$UCSYDIR
 10
0.0
 20
1.0
 30
0.0
  9
$UCSORTHOREF
  2

  9
$UCSORTHOVIEW
 70
0
  9
$UCSORGTOP
 10
0.0
 20
0.0
 30
0.0
  9
$UCSORGBOTTOM
 10
0.0
 20
0.0
 30
0.0
  9
$UCSORGLEFT
 10
0.0
 20
0.0
 30
0.0
  9
$UCSORGRIGHT
 10
0.0
 20
0.0
 30
0.0
  9
$UCSORGFRONT
 10
0.0
 20
0.0
 30
0.0
  9
$UCSORGBACK
 10
0.0
 20
0.0
 30
0.0
  9
$PUCSBASE
  2

  9
$PUCSNAME
  2

  9
$PUCSORG
 10
0.0
 20
0.0
 30
0.0
  9
$PUCSXDIR
 10
1.0
 20
0.0
 30
0.0
  9
$PUCSYDIR
 10
0.0
 20
1.0
 30
0.0
  9
$PUCSORTHOREF
  2

  9
$PUCSORTHOVIEW
 70
0
  9
$PUCSORGTOP
 10
0.0
 20
0.0
 30
0.0
  9
$PUCSORGBOTTOM
 10
0.0
 20
0.0
 30
0.0
  9
$PUCSORGLEFT
 10
0.0
 20
0.0
 30
0.0
  9
$PUCSORGRIGHT
 10
0.0
 20
0.0
 30
0.0
  9
$PUCSORGFRONT
 10
0.0
 20
0.0
 30
0.0
  9
$PUCSORGBACK
 10
0.0
 20
0.0
 30
0.0
  9
$USERI1
 70
0
  9
$USERI2
 70
0
  9
$USERI3
 70
0
  9
$USERI4
 70
0
  9
$USERI5
 70
0
  9
$USERR1
 40
0.0
  9
$USERR2
 40
0.0
  9
$USERR3
 40
0.0
  9
$USERR4
 40
0.0
  9
$USERR5
 40
0.0
  9
$WORLDVIEW
 70
1
  9
$SHADEDGE
 70
3
  9
$SHADEDIF
 70
70
  9
$TILEMODE
 70
1
  9
$MAXACTVP
 70
64
  9
$PINSBASE
 10
0.0
 20
0.0
 30
0.0
  9
$PLIMCHECK
 70
0
  9
$PEXTMIN
 10
1e+20
 20
1e+20
 30
1e+20
  9
$PEXTMAX
 10
-1e+20
 20
-1e+20
 30
-1e+20
  9
$PLIMMIN
 10
0.0
 20
0.0
  9
$PLIMMAX
 10
420.0
 20
297.0
  9
$UNITMODE
 70
0
  9
$VISRETAIN
 70
1
  9
$PLINEGEN
 70
0
  9
$PSLTSCALE
 70
1
  9
$TREEDEPTH
 70
3020
  9
$CMLSTYLE
  2
Standard
  9
$CMLJUST
 70
0
  9
$CMLSCALE
 40
20.0
  9
$PROXYGRAPHICS
 70
1
  9
$MEASUREMENT
 70
1
  9
$CELWEIGHT
370
-1
  9
$ENDCAPS
280
0
  9
$JOINSTYLE
280
0
  9
$LWDISPLAY
290
0
  9
$INSUNITS
 70
6
  9
$HYPERLINKBASE
  1

  9
$STYLESHEET
  1

  9
$XEDIT
290
1
  9
$CEPSNTYPE
380
0
  9
$PSTYLEMODE
290
1
  9
$FINGERPRINTGUID
  2
{98AA55C5-7420-41C3-A3E4-182EBE1141AD}
  9
$VERSIONGUID
  2
{7BE70FFE-427A-46EB-B76F-80E9039FBBDF}
  9
$EXTNAMES
290
1
  9
$PSVPSCALE
 40
0.0
  9
$OLESTARTUP
290
0
  9
$SORTENTS
280
127
  9
$INDEXCTL
280
0
  9
$HIDETEXT
280
1
  9
$XCLIPFRAME
280
0
  9
$HALOGAP
280
0
  9
$OBSCOLOR
 70
257
  9
$OBSLTYPE
280
0
  9
$INTERSECTIONDISPLAY
280
0
  9
$INTERSECTIONCOLOR
 70
257
  9
$DIMASSOC
280
2
  9
$PROJECTNAME
  1

  9
$CAMERADISPLAY
290
0
  9
$LENSLENGTH
 40
50.0
  9
$CAMERAHEIGHT
 40
0.0
  9
$STEPSPERSEC
 40
24.0
  9
$STEPSIZE
 40
100.0
  9
$3DDWFPREC
 40
2.0
  9
$PSOLWIDTH
 40
0.005
  9
$PSOLHEIGHT
 40
0.08
  9
$LOFTANG1
 40
1.570796326795
  9
$LOFTANG2
 40
1.570796326795
  9
$LOFTMAG1
 40
0.0
  9
$LOFTMAG2
 40
0.0
  9
$LOFTPARAM
 70
7
  9
$LOFTNORMALS
280
1
  9
$LATITUDE
 40
37.795
  9
$LONGITUDE
 40
-122.394
  9
$NORTHDIRECTION
 40
0.0
  9
$TIMEZONE
 70
-8000
  9
$LIGHTGLYPHDISPLAY
280
1
  9
$TILEMODELIGHTSYNCH
280
1
  9
$CMATERIAL
347
20
  9
$SOLIDHIST
280
0
  9
$SHOWHIST
280
1
  9
$DWFFRAME
280
2
  9
$DGNFRAME
280
2
  9
$REALWORLDSCALE
290
1
  9
$INTERFERECOLOR
 62
256
  9
$CSHADOW
280
0
  9
$SHADOWPLANELOCATION
 40
0.0
  0
ENDSEC
  0
SECTION
  2
CLASSES
  0
CLASS
  1
ACDBDICTIONARYWDFLT
  2
AcDbDictionaryWithDefault
  3
ObjectDBX Classes
 90
0
 91
0
280
0
281
0
  0
CLASS
  1
SUN
  2
AcDbSun
  3
SCENEOE
 90
1153
 91
0
280
0
281
0
  0
CLASS
  1
VISUALSTYLE
  2
AcDbVisualStyle
  3
ObjectDBX Classes
 90
4095
 91
0
280
0
281
0
  0
CLASS
  1
MATERIAL
  2
AcDbMaterial
  3
ObjectDBX Classes
 90
1153
 91
0
280
0
281
0
  0
CLASS
  1
SCALE
  2
AcDbScale
  3
ObjectDBX Classes
 90
1153
 91
0
280
0
281
0
  0
CLASS
  1
TABLESTYLE
  2
AcDbTableStyle
  3
ObjectDBX Classes
 90
4095
 91
0
280
0
281
0
  0
CLASS
  1
MLEADERSTYLE
  2
AcDbMLeaderStyle
  3
ACDB_MLEADERSTYLE_CLASS
 90
4095
 91
0
280
0
281
0
  0
CLASS
  1
DICTIONARYVAR
  2
AcDbDictionaryVar
  3
ObjectDBX Classes
 90
0
 91
0
280
0
281
0
  0
CLASS
  1
CELLSTYLEMAP
  2
AcDbCellStyleMap
  3
ObjectDBX Classes
 90
1152
 91
0
280
0
281
0
  0
CLASS
  1
MENTALRAYRENDERSETTINGS
  2
AcDbMentalRayRenderSettings
  3
SCENEOE
 90
1024
 91
0
280
0
281
0
  0
CLASS
  1
ACDBDETAILVIEWSTYLE
  2
AcDbDetailViewStyle
  3
ObjectDBX Classes
 90
1025
 91
0
280
0
281
0
  0
CLASS
  1
ACDBSECTIONVIEWSTYLE
  2
AcDbSectionViewStyle
  3
ObjectDBX Classes
 90
1025
 91
0
280
0
281
0
  0
CLASS
  1
RASTERVARIABLES
  2
AcDbRasterVariables
  3
ISM
 90
0
 91
0
280
0
281
0
  0
CLASS
  1
LAYOUT
  2
AcDbLayout
  3
ObjectDBX Classes
 90
0
 91
0
280
0
281
0
  0
CLASS
  1
ACDBPLACEHOLDER
  2
AcDbPlaceHolder
  3
ObjectDBX Classes
 90
0
 91
0
280
0
281
0
  0
ENDSEC
  0
SECTION
  2
TABLES
  0
TABLE
  2
VPORT
  5
8
330
0
100
AcDbSymbolTable
 70
1
  0
VPORT
  5
23
330
8
100
AcDbSymbolTableRecord
100
AcDbViewportTableRecord
  2
*Active
 70
0
 10
0.0
 20
0.0
 11
1.0
 21
1.0
 12
0.0
 22
0.0
 13
0.0
 23
0.0
 14
0.5
 24
0.5
 15
0.5
 25
0.5
 16
0.0
 26
0.0
 36
1.0
 17
0.0
 27
0.0
 37
0.0
 40
1000.0
 41
1.34
 42
50.0
 43
0.0
 44
0.0
 50
0.0
 51
0.0
 71
0
 72
1000
 73
1
 74
3
 75
0
 76
0
 77
0
 78
0
281
0
 65
0
146
0.0
  0
ENDTAB
  0
TABLE
  2
LTYPE
  5
2
330
0
100
AcDbSymbolTable
 70
3
  0
LTYPE
  5
24
330
2
100
AcDbSymbolTableRecord
100
AcDbLinetypeTableRecord
  2
ByBlock
 70
0
  3

 72
65
 73
0
 40
0.0
  0
LTYPE
  5
25
330
2
100
AcDbSymbolTableRecord
100
AcDbLinetypeTableRecord
  2
ByLayer
 70
0
  3

 72
65
 73
0
 40
0.0
  0
LTYPE
  5
26
330
2
100
AcDbSymbolTableRecord
100
AcDbLinetypeTableRecord
  2
Continuous
 70
0
  3

 72
65
 73
0
 40
0.0
  0
ENDTAB
  0
TABLE
  2
LAYER
  5
1
330
0
100
AcDbSymbolTable
 70
3
  0
LAYER
  5
27
330
1
100
AcDbSymbolTableRecord
100
AcDbLayerTableRecord
  2
0
 70
0
 62
7
  6
Continuous
370
-3
390
13
347
21
  0
LAYER
  5
28
330
1
100
AcDbSymbolTableRecord
100
AcDbLayerTableRecord
  2
Defpoints
 70
0
 62
7
  6
Continuous
290
0
370
-3
390
13
347
21
  0
LAYER
  5
2F
330
1
100
AcDbSymbolTableRecord
100
AcDbLayerTableRecord
  2
路灯
 70
0
 62
210
  6
Continuous
370
-3
390
13
347
21
  0
ENDTAB
  0
TABLE
  2
STYLE
  5
5
330
0
100
AcDbSymbolTable
 70
1
  0
STYLE
  5
29
330
5
100
AcDbSymbolTableRecord
100
AcDbTextStyleTableRecord
  2
Standard
 70
0
 40
0.0
 41
1.0
 50
0.0
 71
0
 42
2.5
  3
txt
  4

  0
ENDTAB
  0
TABLE
  2
VIEW
  5
7
330
0
100
AcDbSymbolTable
 70
0
  0
ENDTAB
  0
TABLE
  2
UCS
  5
6
330
0
100
AcDbSymbolTable
 70
0
  0
ENDTAB
  0
TABLE
  2
APPID
  5
3
330
0
100
AcDbSymbolTable
 70
3
  0
APPID
  5
2A
330
3
100
AcDbSymbolTableRecord
100
AcDbRegAppTableRecord
  2
ACAD
 70
0
  0
APPID
  5
1F4
330
3
100
AcDbSymbolTableRecord
100
AcDbRegAppTableRecord
  2
HATCHBACKGROUNDCOLOR
 70
0
  0
APPID
  5
1F5
330
3
100
AcDbSymbolTableRecord
100
AcDbRegAppTableRecord
  2
EZDXF
 70
0
  0
ENDTAB
  0
TABLE
  2
DIMSTYLE
  5
4
330
0
100
AcDbSymbolTable
 70
1
100
AcDbDimStyleTable
  0
DIMSTYLE
105
2B
330
4
100
AcDbSymbolTableRecord
100
AcDbDimStyleTableRecord
  2
Standard
 70
0
 40
1.0
 41
2.5
 42
0.625
 43
3.75
 44
1.25
 45
0.0
 46
0.0
 47
0.0
 48
0.0
 49
2.5
140
2.5
141
2.5
142
0.0
143
0.03937007874
144
1.0
145
0.0
146
1.0
147
0.625
148
0.0
 69
0
 70
0
 71
0
 72
0
 73
0
 74
0
 75
0
 76
0
 77
1
 78
8
 79
3
170
0
171
3
172
1
173
0
174
0
175
0
176
0
177
0
178
0
179
2
271
2
272
2
273
2
274
3
275
0
276
0
277
2
278
44
279
0
280
0
281
0
282
0
283
0
284
8
285
0
286
0
288
0
289
3
290
0
371
-2
372
-2
  0
ENDTAB
  0
TABLE
  2
BLOCK_RECORD
  5
9
330
0
100
AcDbSymbolTable
 70
2
  0
BLOCK_RECORD
  5
17
330
9
100
AcDbSymbolTableRecord
100
AcDbBlockTableRecord
  2
*Model_Space
340
1A
 70
0
280
1
281
0
  0
BLOCK_RECORD
  5
1B
330
9
100
AcDbSymbolTableRecord
100
AcDbBlockTableRecord
  2
*Paper_Space
340
1E
 70
0
280
1
281
0
  0
ENDTAB
  0
ENDSEC
  0
SECTION
  2
BLOCKS
  0
BLOCK
  5
18
330
17
100
AcDbEntity
  8
0
100
AcDbBlockBegin
  2
*Model_Space
 70
0
 10
0.0
 20
0.0
 30
0.0
  3
*Model_Space
  1

  0
ENDBLK
  5
19
330
17
100
AcDbEntity
  8
0
100
AcDbBlockEnd
  0
BLOCK
  5
1C
330
1B
100
AcDbEntity
  8
0
100
AcDbBlockBegin
  2
*Paper_Space
 70
0
 10
0.0
 20
0.0
 30
0.0
  3
*Paper_Space
  1

  0
ENDBLK
  5
1D
330
1B
100
AcDbEntity
  8
0
100
AcDbBlockEnd
  0
ENDSEC
  0
SECTION
  2
ENTITIES
  0
CIRCLE
  5
30
330
17
100
AcDbEntity
  8
路灯
100
AcDbCircle
 10
571296.4378980472
 20
785631.0307337639
 30
0.0
 40
1.0
  0
TEXT
  5
31
330
17
100
AcDbEntity
  8
路灯
100
AcDbText
 10
571296.4378980472
 20
785631.0307337639
 30
0.0
 40
0.2
  1
M-113.371
 72
1
 11
571296.4378980472
 21
785631.0307337639
 31
0.0
100
AcDbText
 73
2
  0
CIRCLE
  5
32
330
17
100
AcDbEntity
  8
路灯
100
AcDbCircle
 10
571325.8355447059
 20
785624.4778990741
 30
0.0
 40
1.0
  0
TEXT
  5
33
330
17
100
AcDbEntity
  8
路灯
100
AcDbText
 10
571325.8355447059
 20
785624.4778990741
 30
0.0
 40
0.2
  1
M-143.371
 72
1
 11
571325.8355447059
 21
785624.4778990741
 31
0.0
100
AcDbText
 73
2
  0
CIRCLE
  5
34
330
17
100
AcDbEntity
  8
路灯
100
AcDbCircle
 10
571355.1525611638
 20
785617.5727454692
 30
0.0
 40
1.0
  0
TEXT
  5
35
330
17
100
AcDbEntity
  8
路灯
100
AcDbText
 10
571355.1525611638
 20
785617.5727454692
 30
0.0
 40
0.2
  1
M-173.371
 72
1
 11
571355.1525611638
 21
785617.5727454692
 31
0.0
100
AcDbText
 73
2
  0
CIRCLE
  5
36
330
17
100
AcDbEntity
  8
路灯
100
AcDbCircle
 10
571384.384721177
 20
785610.316263942
 30
0.0
 40
1.0
  0
TEXT
  5
37
330
17
100
AcDbEntity
  8
路灯
100
AcDbText
 10
571384.384721177
 20
785610.316263942
 30
0.0
 40
0.2
  1
M-203.371
 72
1
 11
571384.384721177
 21
785610.316263942
 31
0.0
100
AcDbText
 73
2
  0
CIRCLE
  5
38
330
17
100
AcDbEntity
  8
路灯
100
AcDbCircle
 10
571413.5277013686
 20
785602.7095255048
 30
0.0
 40
1.0
  0
TEXT
  5
39
330
17
100
AcDbEntity
  8
路灯
100
AcDbText
 10
571413.5277013686
 20
785602.7095255048
 30
0.0
 40
0.2
  1
M-233.371
 72
1
 11
571413.5277013686
 21
785602.7095255048
 31
0.0
100
AcDbText
 73
2
  0
CIRCLE
  5
3A
330
17
100
AcDbEntity
  8
路灯
100
AcDbCircle
 10
571442.5661484153
 20
785594.7585028459
 30
0.0
 40
1.0
  0
TEXT
  5
3B
330
17
100
AcDbEntity
  8
路灯
100
AcDbText
 10
571442.5661484153
 20
785594.7585028459
 30
0.0
 40
0.2
  1
M-263.371
 72
1
 11
571442.5661484153
 21
785594.7585028459
 31
0.0
100
AcDbText
 73
2
  0
CIRCLE
  5
3C
330
17
100
AcDbEntity
  8
路灯
100
AcDbCircle
 10
571471.4619669529
 20
785586.694281182
 30
0.0
 40
1.0
  0
TEXT
  5
3D
330
17
100
AcDbEntity
  8
路灯
100
AcDbText
 10
571471.4619669529
 20
785586.694281182
 30
0.0
 40
0.2
  1
M-293.371
 72
1
 11
571471.4619669529
 21
785586.694281182
 31
0.0
100
AcDbText
 73
2
  0
CIRCLE
  5
3E
330
17
100
AcDbEntity
  8
路灯
100
AcDbCircle
 10
571500.3577854905
 20
785578.6300595183
 30
0.0
 40
1.0
  0
TEXT
  5
3F
330
17
100
AcDbEntity
  8
路灯
100
AcDbText
 10
571500.3577854905
 20
785578.6300595183
 30
0.0
 40
0.2
  1
M-323.371
 72
1
 11
571500.3577854905
 21
785578.6300595183
 31
0.0
100
AcDbText
 73
2
  0
CIRCLE
  5
40
330
17
100
AcDbEntity
  8
路灯
100
AcDbCircle
 10
571529.253604028
 20
785570.5658378544
 30
0.0
 40
1.0
  0
TEXT
  5
41
330
17
100
AcDbEntity
  8
路灯
100
AcDbText
 10
571529.253604028
 20
785570.5658378544
 30
0.0
 40
0.2
  1
M-353.371
 72
1
 11
571529.253604028
 21
785570.5658378544
 31
0.0
100
AcDbText
 73
2
  0
CIRCLE
  5
42
330
17
100
AcDbEntity
  8
路灯
100
AcDbCircle
 10
571558.1494225656
 20
785562.5016161905
 30
0.0
 40
1.0
  0
TEXT
  5
43
330
17
100
AcDbEntity
  8
路灯
100
AcDbText
 10
571558.1494225656
 20
785562.5016161905
 30
0.0
 40
0.2
  1
M-383.371
 72
1
 11
571558.1494225656
 21
785562.5016161905
 31
0.0
100
AcDbText
 73
2
  0
CIRCLE
  5
44
330
17
100
AcDbEntity
  8
路灯
100
AcDbCircle
 10
571587.0452411032
 20
785554.4373945267
 30
0.0
 40
1.0
  0
TEXT
  5
45
330
17
100
AcDbEntity
  8
路灯
100
AcDbText
 10
571587.0452411032
 20
785554.4373945267
 30
0.0
 40
0.2
  1
M-413.371
 72
1
 11
571587.0452411032
 21
785554.4373945267
 31
0.0
100
AcDbText
 73
2
  0
CIRCLE
  5
46
330
17
100
AcDbEntity
  8
路灯
100
AcDbCircle
 10
571615.941746914
 20
785546.3729810411
 30
0.0
 40
1.0
  0
TEXT
  5
47
330
17
100
AcDbEntity
  8
路灯
100
AcDbText
 10
571615.941746914
 20
785546.3729810411
 30
0.0
 40
0.2
  1
M-443.371
 72
1
 11
571615.941746914
 21
785546.3729810411
 31
0.0
100
AcDbText
 73
2
  0
CIRCLE
  5
48
330
17
100
AcDbEntity
  8
路灯
100
AcDbCircle
 10
571644.8370281312
 20
785538.3089093509
 30
0.0
 40
1.0
  0
TEXT
  5
49
330
17
100
AcDbEntity
  8
路灯
100
AcDbText
 10
571644.8370281312
 20
785538.3089093509
 30
0.0
 40
0.2
  1
M-473.371
 72
1
 11
571644.8370281312
 21
785538.3089093509
 31
0.0
100
AcDbText
 73
2
  0
CIRCLE
  5
4A
330
17
100
AcDbEntity
  8
路灯
100
AcDbCircle
 10
571673.7328466688
 20
785530.244687687
 30
0.0
 40
1.0
  0
TEXT
  5
4B
330
17
100
AcDbEntity
  8
路灯
100
AcDbText
 10
571673.7328466688
 20
785530.244687687
 30
0.0
 40
0.2
  1
M-503.371
 72
1
 11
571673.7328466688
 21
785530.244687687
 31
0.0
100
AcDbText
 73
2
  0
CIRCLE
  5
4C
330
17
100
AcDbEntity
  8
路灯
100
AcDbCircle
 10
571702.6286652065
 20
785522.1804660232
 30
0.0
 40
1.0
  0
TEXT
  5
4D
330
17
100
AcDbEntity
  8
路灯
100
AcDbText
 10
571702.6286652065
 20
785522.1804660232
 30
0.0
 40
0.2
  1
M-533.371
 72
1
 11
571702.6286652065
 21
785522.1804660232
 31
0.0
100
AcDbText
 73
2
  0
CIRCLE
  5
4E
330
17
100
AcDbEntity
  8
路灯
100
AcDbCircle
 10
571731.524483744
 20
785514.1162443593
 30
0.0
 40
1.0
  0
TEXT
  5
4F
330
17
100
AcDbEntity
  8
路灯
100
AcDbText
 10
571731.524483744
 20
785514.1162443593
 30
0.0
 40
0.2
  1
M-563.371
 72
1
 11
571731.524483744
 21
785514.1162443593
 31
0.0
100
AcDbText
 73
2
  0
CIRCLE
  5
50
330
17
100
AcDbEntity
  8
路灯
100
AcDbCircle
 10
571760.4203022816
 20
785506.0520226955
 30
0.0
 40
1.0
  0
TEXT
  5
51
330
17
100
AcDbEntity
  8
路灯
100
AcDbText
 10
571760.4203022816
 20
785506.0520226955
 30
0.0
 40
0.2
  1
M-593.371
 72
1
 11
571760.4203022816
 21
785506.0520226955
 31
0.0
100
AcDbText
 73
2
  0
CIRCLE
  5
52
330
17
100
AcDbEntity
  8
路灯
100
AcDbCircle
 10
571789.3159708662
 20
785497.9878428798
 30
0.0
 40
1.0
  0
TEXT
  5
53
330
17
100
AcDbEntity
  8
路灯
100
AcDbText
 10
571789.3159708662
 20
785497.9878428798
 30
0.0
 40
0.2
  1
M-623.371
 72
1
 11
571789.3159708662
 21
785497.9878428798
 31
0.0
100
AcDbText
 73
2
  0
CIRCLE
  5
54
330
17
100
AcDbEntity
  8
路灯
100
AcDbCircle
 10
571818.2117894038
 20
785489.923621216
 30
0.0
 40
1.0
  0
TEXT
  5
55
330
17
100
AcDbEntity
  8
路灯
100
AcDbText
 10
571818.2117894038
 20
785489.923621216
 30
0.0
 40
0.2
  1
M-653.371
 72
1
 11
571818.2117894038
 21
785489.923621216
 31
0.0
100
AcDbText
 73
2
  0
CIRCLE
  5
56
330
17
100
AcDbEntity
  8
路灯
100
AcDbCircle
 10
571847.1076079414
 20
785481.8593995521
 30
0.0
 40
1.0
  0
TEXT
  5
57
330
17
100
AcDbEntity
  8
路灯
100
AcDbText
 10
571847.1076079414
 20
785481.8593995521
 30
0.0
 40
0.2
  1
M-683.371
 72
1
 11
571847.1076079414
 21
785481.8593995521
 31
0.0
100
AcDbText
 73
2
  0
CIRCLE
  5
58
330
17
100
AcDbEntity
  8
路灯
100
AcDbCircle
 10
571876.003963774
 20
785473.7950279309
 30
0.0
 40
1.0
  0
TEXT
  5
59
330
17
100
AcDbEntity
  8
路灯
100
AcDbText
 10
571876.003963774
 20
785473.7950279309
 30
0.0
 40
0.2
  1
M-713.371
 72
1
 11
571876.003963774
 21
785473.7950279309
 31
0.0
100
AcDbText
 73
2
  0
CIRCLE
  5
5A
330
17
100
AcDbEntity
  8
路灯
100
AcDbCircle
 10
571904.8992450165
 20
785465.7309562245
 30
0.0
 40
1.0
  0
TEXT
  5
5B
330
17
100
AcDbEntity
  8
路灯
100
AcDbText
 10
571904.8992450165
 20
785465.7309562245
 30
0.0
 40
0.2
  1
M-743.371
 72
1
 11
571904.8992450165
 21
785465.7309562245
 31
0.0
100
AcDbText
 73
2
  0
CIRCLE
  5
5C
330
17
100
AcDbEntity
  8
路灯
100
AcDbCircle
 10
571933.7950635541
 20
785457.6667345606
 30
0.0
 40
1.0
  0
TEXT
  5
5D
330
17
100
AcDbEntity
  8
路灯
100
AcDbText
 10
571933.7950635541
 20
785457.6667345606
 30
0.0
 40
0.2
  1
M-773.371
 72
1
 11
571933.7950635541
 21
785457.6667345606
 31
0.0
100
AcDbText
 73
2
  0
CIRCLE
  5
5E
330
17
100
AcDbEntity
  8
路灯
100
AcDbCircle
 10
571962.6908820916
 20
785449.6025128968
 30
0.0
 40
1.0
  0
TEXT
  5
5F
330
17
100
AcDbEntity
  8
路灯
100
AcDbText
 10
571962.6908820916
 20
785449.6025128968
 30
0.0
 40
0.2
  1
M-803.371
 72
1
 11
571962.6908820916
 21
785449.6025128968
 31
0.0
100
AcDbText
 73
2
  0
CIRCLE
  5
60
330
17
100
AcDbEntity
  8
路灯
100
AcDbCircle
 10
571991.5867006292
 20
785441.5382912329
 30
0.0
 40
1.0
  0
TEXT
  5
61
330
17
100
AcDbEntity
  8
路灯
100
AcDbText
 10
571991.5867006292
 20
785441.5382912329
 30
0.0
 40
0.2
  1
M-833.371
 72
1
 11
571991.5867006292
 21
785441.5382912329
 31
0.0
100
AcDbText
 73
2
  0
CIRCLE
  5
62
330
17
100
AcDbEntity
  8
路灯
100
AcDbCircle
 10
572020.4826691197
 20
785433.474027721
 30
0.0
 40
1.0
  0
TEXT
  5
63
330
17
100
AcDbEntity
  8
路灯
100
AcDbText
 10
572020.4826691197
 20
785433.474027721
 30
0.0
 40
0.2
  1
M-863.371
 72
1
 11
572020.4826691197
 21
785433.474027721
 31
0.0
100
AcDbText
 73
2
  0
CIRCLE
  5
64
330
17
100
AcDbEntity
  8
路灯
100
AcDbCircle
 10
572049.3784876573
 20
785425.4098060571
 30
0.0
 40
1.0
  0
TEXT
  5
65
330
17
100
AcDbEntity
  8
路灯
100
AcDbText
 10
572049.3784876573
 20
785425.4098060571
 30
0.0
 40
0.2
  1
M-893.371
 72
1
 11
572049.3784876573
 21
785425.4098060571
 31
0.0
100
AcDbText
 73
2
  0
CIRCLE
  5
66
330
17
100
AcDbEntity
  8
路灯
100
AcDbCircle
 10
572078.2743061949
 20
785417.3455843932
 30
0.0
 40
1.0
  0
TEXT
  5
67
330
17
100
AcDbEntity
  8
路灯
100
AcDbText
 10
572078.2743061949
 20
785417.3455843932
 30
0.0
 40
0.2
  1
M-923.371
 72
1
 11
572078.2743061949
 21
785417.3455843932
 31
0.0
100
AcDbText
 73
2
  0
CIRCLE
  5
68
330
17
100
AcDbEntity
  8
路灯
100
AcDbCircle
 10
572107.1701247324
 20
785409.2813627294
 30
0.0
 40
1.0
  0
TEXT
  5
69
330
17
100
AcDbEntity
  8
路灯
100
AcDbText
 10
572107.1701247324
 20
785409.2813627294
 30
0.0
 40
0.2
  1
M-953.371
 72
1
 11
572107.1701247324
 21
785409.2813627294
 31
0.0
100
AcDbText
 73
2
  0
CIRCLE
  5
6A
330
17
100
AcDbEntity
  8
路灯
100
AcDbCircle
 10
572136.0659432701
 20
785401.2171410656
 30
0.0
 40
1.0
  0
TEXT
  5
6B
330
17
100
AcDbEntity
  8
路灯
100
AcDbText
 10
572136.0659432701
 20
785401.2171410656
 30
0.0
 40
0.2
  1
M-983.371
 72
1
 11
572136.0659432701
 21
785401.2171410656
 31
0.0
100
AcDbText
 73
2
  0
CIRCLE
  5
6C
330
17
100
AcDbEntity
  8
路灯
100
AcDbCircle
 10
572164.9617618077
 20
785393.1529194018
 30
0.0
 40
1.0
  0
TEXT
  5
6D
330
17
100
AcDbEntity
  8
路灯
100
AcDbText
 10
572164.9617618077
 20
785393.1529194018
 30
0.0
 40
0.2
  1
M-1013.371
 72
1
 11
572164.9617618077
 21
785393.1529194018
 31
0.0
100
AcDbText
 73
2
  0
CIRCLE
  5
6E
330
17
100
AcDbEntity
  8
路灯
100
AcDbCircle
 10
572193.8575803452
 20
785385.0886977379
 30
0.0
 40
1.0
  0
TEXT
  5
6F
330
17
100
AcDbEntity
  8
路灯
100
AcDbText
 10
572193.8575803452
 20
785385.0886977379
 30
0.0
 40
0.2
  1
M-1043.371
 72
1
 11
572193.8575803452
 21
785385.0886977379
 31
0.0
100
AcDbText
 73
2
  0
CIRCLE
  5
70
330
17
100
AcDbEntity
  8
路灯
100
AcDbCircle
 10
572222.7532489299
 20
785377.0245179222
 30
0.0
 40
1.0
  0
TEXT
  5
71
330
17
100
AcDbEntity
  8
路灯
100
AcDbText
 10
572222.7532489299
 20
785377.0245179222
 30
0.0
 40
0.2
  1
M-1073.371
 72
1
 11
572222.7532489299
 21
785377.0245179222
 31
0.0
100
AcDbText
 73
2
  0
CIRCLE
  5
72
330
17
100
AcDbEntity
  8
路灯
100
AcDbCircle
 10
572251.6490674674
 20
785368.9602962583
 30
0.0
 40
1.0
  0
TEXT
  5
73
330
17
100
AcDbEntity
  8
路灯
100
AcDbText
 10
572251.6490674674
 20
785368.9602962583
 30
0.0
 40
0.2
  1
M-1103.371
 72
1
 11
572251.6490674674
 21
785368.9602962583
 31
0.0
100
AcDbText
 73
2
  0
CIRCLE
  5
74
330
17
100
AcDbEntity
  8
路灯
100
AcDbCircle
 10
572280.544886005
 20
785360.8960745946
 30
0.0
 40
1.0
  0
TEXT
  5
75
330
17
100
AcDbEntity
  8
路灯
100
AcDbText
 10
572280.544886005
 20
785360.8960745946
 30
0.0
 40
0.2
  1
M-1133.371
 72
1
 11
572280.544886005
 21
785360.8960745946
 31
0.0
100
AcDbText
 73
2
  0
CIRCLE
  5
76
330
17
100
AcDbEntity
  8
路灯
100
AcDbCircle
 10
572309.4407045426
 20
785352.8318529307
 30
0.0
 40
1.0
  0
TEXT
  5
77
330
17
100
AcDbEntity
  8
路灯
100
AcDbText
 10
572309.4407045426
 20
785352.8318529307
 30
0.0
 40
0.2
  1
M-1163.371
 72
1
 11
572309.4407045426
 21
785352.8318529307
 31
0.0
100
AcDbText
 73
2
  0
CIRCLE
  5
78
330
17
100
AcDbEntity
  8
路灯
100
AcDbCircle
 10
572338.3365230801
 20
785344.7676312668
 30
0.0
 40
1.0
  0
TEXT
  5
79
330
17
100
AcDbEntity
  8
路灯
100
AcDbText
 10
572338.3365230801
 20
785344.7676312668
 30
0.0
 40
0.2
  1
M-1193.371
 72
1
 11
572338.3365230801
 21
785344.7676312668
 31
0.0
100
AcDbText
 73
2
  0
CIRCLE
  5
7A
330
17
100
AcDbEntity
  8
路灯
100
AcDbCircle
 10
572367.2323416177
 20
785336.703409603
 30
0.0
 40
1.0
  0
TEXT
  5
7B
330
17
100
AcDbEntity
  8
路灯
100
AcDbText
 10
572367.2323416177
 20
785336.703409603
 30
0.0
 40
0.2
  1
M-1223.371
 72
1
 11
572367.2323416177
 21
785336.703409603
 31
0.0
100
AcDbText
 73
2
  0
CIRCLE
  5
7C
330
17
100
AcDbEntity
  8
路灯
100
AcDbCircle
 10
572396.1281601553
 20
785328.6391879392
 30
0.0
 40
1.0
  0
TEXT
  5
7D
330
17
100
AcDbEntity
  8
路灯
100
AcDbText
 10
572396.1281601553
 20
785328.6391879392
 30
0.0
 40
0.2
  1
M-1253.371
 72
1
 11
572396.1281601553
 21
785328.6391879392
 31
0.0
100
AcDbText
 73
2
  0
CIRCLE
  5
7E
330
17
100
AcDbEntity
  8
路灯
100
AcDbCircle
 10
572425.0239786928
 20
785320.5749662754
 30
0.0
 40
1.0
  0
TEXT
  5
7F
330
17
100
AcDbEntity
  8
路灯
100
AcDbText
 10
572425.0239786928
 20
785320.5749662754
 30
0.0
 40
0.2
  1
M-1283.371
 72
1
 11
572425.0239786928
 21
785320.5749662754
 31
0.0
100
AcDbText
 73
2
  0
CIRCLE
  5
80
330
17
100
AcDbEntity
  8
路灯
100
AcDbCircle
 10
572453.9199471833
 20
785312.5107027633
 30
0.0
 40
1.0
  0
TEXT
  5
81
330
17
100
AcDbEntity
  8
路灯
100
AcDbText
 10
572453.9199471833
 20
785312.5107027633
 30
0.0
 40
0.2
  1
M-1313.371
 72
1
 11
572453.9199471833
 21
785312.5107027633
 31
0.0
100
AcDbText
 73
2
  0
CIRCLE
  5
82
330
17
100
AcDbEntity
  8
路灯
100
AcDbCircle
 10
572482.8157657209
 20
785304.4464810995
 30
0.0
 40
1.0
  0
TEXT
  5
83
330
17
100
AcDbEntity
  8
路灯
100
AcDbText
 10
572482.8157657209
 20
785304.4464810995
 30
0.0
 40
0.2
  1
M-1343.371
 72
1
 11
572482.8157657209
 21
785304.4464810995
 31
0.0
100
AcDbText
 73
2
  0
CIRCLE
  5
84
330
17
100
AcDbEntity
  8
路灯
100
AcDbCircle
 10
572511.7115842585
 20
785296.3822594356
 30
0.0
 40
1.0
  0
TEXT
  5
85
330
17
100
AcDbEntity
  8
路灯
100
AcDbText
 10
572511.7115842585
 20
785296.3822594356
 30
0.0
 40
0.2
  1
M-1373.371
 72
1
 11
572511.7115842585
 21
785296.3822594356
 31
0.0
100
AcDbText
 73
2
  0
CIRCLE
  5
86
330
17
100
AcDbEntity
  8
路灯
100
AcDbCircle
 10
572540.6074027962
 20
785288.3180377719
 30
0.0
 40
1.0
  0
TEXT
  5
87
330
17
100
AcDbEntity
  8
路灯
100
AcDbText
 10
572540.6074027962
 20
785288.3180377719
 30
0.0
 40
0.2
  1
M-1403.371
 72
1
 11
572540.6074027962
 21
785288.3180377719
 31
0.0
100
AcDbText
 73
2
  0
CIRCLE
  5
88
330
17
100
AcDbEntity
  8
路灯
100
AcDbCircle
 10
572569.5032213337
 20
785280.253816108
 30
0.0
 40
1.0
  0
TEXT
  5
89
330
17
100
AcDbEntity
  8
路灯
100
AcDbText
 10
572569.5032213337
 20
785280.253816108
 30
0.0
 40
0.2
  1
M-1433.371
 72
1
 11
572569.5032213337
 21
785280.253816108
 31
0.0
100
AcDbText
 73
2
  0
CIRCLE
  5
8A
330
17
100
AcDbEntity
  8
路灯
100
AcDbCircle
 10
572598.3990398713
 20
785272.1895944441
 30
0.0
 40
1.0
  0
TEXT
  5
8B
330
17
100
AcDbEntity
  8
路灯
100
AcDbText
 10
572598.3990398713
 20
785272.1895944441
 30
0.0
 40
0.2
  1
M-1463.371
 72
1
 11
572598.3990398713
 21
785272.1895944441
 31
0.0
100
AcDbText
 73
2
  0
CIRCLE
  5
8C
330
17
100
AcDbEntity
  8
路灯
100
AcDbCircle
 10
572627.2948584089
 20
785264.1253727803
 30
0.0
 40
1.0
  0
TEXT
  5
8D
330
17
100
AcDbEntity
  8
路灯
100
AcDbText
 10
572627.2948584089
 20
785264.1253727803
 30
0.0
 40
0.2
  1
M-1493.371
 72
1
 11
572627.2948584089
 21
785264.1253727803
 31
0.0
100
AcDbText
 73
2
  0
CIRCLE
  5
8E
330
17
100
AcDbEntity
  8
路灯
100
AcDbCircle
 10
572656.1905269935
 20
785256.0611929647
 30
0.0
 40
1.0
  0
TEXT
  5
8F
330
17
100
AcDbEntity
  8
路灯
100
AcDbText
 10
572656.1905269935
 20
785256.0611929647
 30
0.0
 40
0.2
  1
M-1523.371
 72
1
 11
572656.1905269935
 21
785256.0611929647
 31
0.0
100
AcDbText
 73
2
  0
CIRCLE
  5
90
330
17
100
AcDbEntity
  8
路灯
100
AcDbCircle
 10
572685.086345531
 20
785247.9969713008
 30
0.0
 40
1.0
  0
TEXT
  5
91
330
17
100
AcDbEntity
  8
路灯
100
AcDbText
 10
572685.086345531
 20
785247.9969713008
 30
0.0
 40
0.2
  1
M-1553.371
 72
1
 11
572685.086345531
 21
785247.9969713008
 31
0.0
100
AcDbText
 73
2
  0
CIRCLE
  5
92
330
17
100
AcDbEntity
  8
路灯
100
AcDbCircle
 10
572713.9821640686
 20
785239.9327496369
 30
0.0
 40
1.0
  0
TEXT
  5
93
330
17
100
AcDbEntity
  8
路灯
100
AcDbText
 10
572713.9821640686
 20
785239.9327496369
 30
0.0
 40
0.2
  1
M-1583.371
 72
1
 11
572713.9821640686
 21
785239.9327496369
 31
0.0
100
AcDbText
 73
2
  0
CIRCLE
  5
94
330
17
100
AcDbEntity
  8
路灯
100
AcDbCircle
 10
572742.8779826062
 20
785231.8685279731
 30
0.0
 40
1.0
  0
TEXT
  5
95
330
17
100
AcDbEntity
  8
路灯
100
AcDbText
 10
572742.8779826062
 20
785231.8685279731
 30
0.0
 40
0.2
  1
M-1613.371
 72
1
 11
572742.8779826062
 21
785231.8685279731
 31
0.0
100
AcDbText
 73
2
  0
CIRCLE
  5
96
330
17
100
AcDbEntity
  8
路灯
100
AcDbCircle
 10
572771.7738011437
 20
785223.8043063092
 30
0.0
 40
1.0
  0
TEXT
  5
97
330
17
100
AcDbEntity
  8
路灯
100
AcDbText
 10
572771.7738011437
 20
785223.8043063092
 30
0.0
 40
0.2
  1
M-1643.371
 72
1
 11
572771.7738011437
 21
785223.8043063092
 31
0.0
100
AcDbText
 73
2
  0
CIRCLE
  5
98
330
17
100
AcDbEntity
  8
路灯
100
AcDbCircle
 10
572800.6696196813
 20
785215.7400846455
 30
0.0
 40
1.0
  0
TEXT
  5
99
330
17
100
AcDbEntity
  8
路灯
100
AcDbText
 10
572800.6696196813
 20
785215.7400846455
 30
0.0
 40
0.2
  1
M-1673.371
 72
1
 11
572800.6696196813
 21
785215.7400846455
 31
0.0
100
AcDbText
 73
2
  0
CIRCLE
  5
9A
330
17
100
AcDbEntity
  8
路灯
100
AcDbCircle
 10
572829.5654382189
 20
785207.6758629816
 30
0.0
 40
1.0
  0
TEXT
  5
9B
330
17
100
AcDbEntity
  8
路灯
100
AcDbText
 10
572829.5654382189
 20
785207.6758629816
 30
0.0
 40
0.2
  1
M-1703.371
 72
1
 11
572829.5654382189
 21
785207.6758629816
 31
0.0
100
AcDbText
 73
2
  0
CIRCLE
  5
9C
330
17
100
AcDbEntity
  8
路灯
100
AcDbCircle
 10
572858.4612567564
 20
785199.6116413177
 30
0.0
 40
1.0
  0
TEXT
  5
9D
330
17
100
AcDbEntity
  8
路灯
100
AcDbText
 10
572858.4612567564
 20
785199.6116413177
 30
0.0
 40
0.2
  1
M-1733.371
 72
1
 11
572858.4612567564
 21
785199.6116413177
 31
0.0
100
AcDbText
 73
2
  0
CIRCLE
  5
9E
330
17
100
AcDbEntity
  8
路灯
100
AcDbCircle
 10
572887.3005847747
 20
785191.6495134843
 30
0.0
 40
1.0
  0
TEXT
  5
9F
330
17
100
AcDbEntity
  8
路灯
100
AcDbText
 10
572887.3005847747
 20
785191.6495134843
 30
0.0
 40
0.2
  1
M-1763.371
 72
1
 11
572887.3005847747
 21
785191.6495134843
 31
0.0
100
AcDbText
 73
2
  0
CIRCLE
  5
A0
330
17
100
AcDbEntity
  8
路灯
100
AcDbCircle
 10
572916.1924302935
 20
785184.0260490361
 30
0.0
 40
1.0
  0
TEXT
  5
A1
330
17
100
AcDbEntity
  8
路灯
100
AcDbText
 10
572916.1924302935
 20
785184.0260490361
 30
0.0
 40
0.2
  1
M-1793.371
 72
1
 11
572916.1924302935
 21
785184.0260490361
 31
0.0
100
AcDbText
 73
2
  0
CIRCLE
  5
A2
330
17
100
AcDbEntity
  8
路灯
100
AcDbCircle
 10
572945.173273128
 20
785176.7499290138
 30
0.0
 40
1.0
  0
TEXT
  5
A3
330
17
100
AcDbEntity
  8
路灯
100
AcDbText
 10
572945.173273128
 20
785176.7499290138
 30
0.0
 40
0.2
  1
M-1823.371
 72
1
 11
572945.173273128
 21
785176.7499290138
 31
0.0
100
AcDbText
 73
2
  0
CIRCLE
  5
A4
330
17
100
AcDbEntity
  8
路灯
100
AcDbCircle
 10
572974.2398774965
 20
785169.8219683727
 30
0.0
 40
1.0
  0
TEXT
  5
A5
330
17
100
AcDbEntity
  8
路灯
100
AcDbText
 10
572974.2398774965
 20
785169.8219683727
 30
0.0
 40
0.2
  1
M-1853.371
 72
1
 11
572974.2398774965
 21
785169.8219683727
 31
0.0
100
AcDbText
 73
2
  0
CIRCLE
  5
A6
330
17
100
AcDbEntity
  8
路灯
100
AcDbCircle
 10
573003.3871002585
 20
785163.2433951404
 30
0.0
 40
1.0
  0
TEXT
  5
A7
330
17
100
AcDbEntity
  8
路灯
100
AcDbText
 10
573003.3871002585
 20
785163.2433951404
 30
0.0
 40
0.2
  1
M-1883.371
 72
1
 11
573003.3871002585
 21
785163.2433951404
 31
0.0
100
AcDbText
 73
2
  0
CIRCLE
  5
A8
330
17
100
AcDbEntity
  8
路灯
100
AcDbCircle
 10
573032.6109798937
 20
785157.0150919469
 30
0.0
 40
1.0
  0
TEXT
  5
A9
330
17
100
AcDbEntity
  8
路灯
100
AcDbText
 10
573032.6109798937
 20
785157.0150919469
 30
0.0
 40
0.2
  1
M-1913.371
 72
1
 11
573032.6109798937
 21
785157.0150919469
 31
0.0
100
AcDbText
 73
2
  0
CIRCLE
  5
AA
330
17
100
AcDbEntity
  8
路灯
100
AcDbCircle
 10
573061.9078344505
 20
785151.1378464247
 30
0.0
 40
1.0
  0
TEXT
  5
AB
330
17
100
AcDbEntity
  8
路灯
100
AcDbText
 10
573061.9078344505
 20
785151.1378464247
 30
0.0
 40
0.2
  1
M-1943.371
 72
1
 11
573061.9078344505
 21
785151.1378464247
 31
0.0
100
AcDbText
 73
2
  0
CIRCLE
  5
AC
330
17
100
AcDbEntity
  8
路灯
100
AcDbCircle
 10
573091.2733191038
 20
785145.6125405614
 30
0.0
 40
1.0
  0
TEXT
  5
AD
330
17
100
AcDbEntity
  8
路灯
100
AcDbText
 10
573091.2733191038
 20
785145.6125405614
 30
0.0
 40
0.2
  1
M-1973.371
 72
1
 11
573091.2733191038
 21
785145.6125405614
 31
0.0
100
AcDbText
 73
2
  0
CIRCLE
  5
AE
330
17
100
AcDbEntity
  8
路灯
100
AcDbCircle
 10
573120.7019785492
 20
785140.4401859763
 30
0.0
 40
1.0
  0
TEXT
  5
AF
330
17
100
AcDbEntity
  8
路灯
100
AcDbText
 10
573120.7019785492
 20
785140.4401859763
 30
0.0
 40
0.2
  1
M-2003.371
 72
1
 11
573120.7019785492
 21
785140.4401859763
 31
0.0
100
AcDbText
 73
2
  0
CIRCLE
  5
B0
330
17
100
AcDbEntity
  8
路灯
100
AcDbCircle
 10
573150.1915379158
 20
785135.6211813352
 30
0.0
 40
1.0
  0
TEXT
  5
B1
330
17
100
AcDbEntity
  8
路灯
100
AcDbText
 10
573150.1915379158
 20
785135.6211813352
 30
0.0
 40
0.2
  1
M-2033.371
 72
1
 11
573150.1915379158
 21
785135.6211813352
 31
0.0
100
AcDbText
 73
2
  0
CIRCLE
  5
B2
330
17
100
AcDbEntity
  8
路灯
100
AcDbCircle
 10
573179.7364953723
 20
785131.1564376708
 30
0.0
 40
1.0
  0
TEXT
  5
B3
330
17
100
AcDbEntity
  8
路灯
100
AcDbText
 10
573179.7364953723
 20
785131.1564376708
 30
0.0
 40
0.2
  1
M-2063.371
 72
1
 11
573179.7364953723
 21
785131.1564376708
 31
0.0
100
AcDbText
 73
2
  0
CIRCLE
  5
B4
330
17
100
AcDbEntity
  8
路灯
100
AcDbCircle
 10
573209.338764299
 20
785127.0453035393
 30
0.0
 40
1.0
  0
TEXT
  5
B5
330
17
100
AcDbEntity
  8
路灯
100
AcDbText
 10
573209.338764299
 20
785127.0453035393
 30
0.0
 40
0.2
  1
M-2093.371
 72
1
 11
573209.338764299
 21
785127.0453035393
 31
0.0
100
AcDbText
 73
2
  0
CIRCLE
  5
B6
330
17
100
AcDbEntity
  8
路灯
100
AcDbCircle
 10
573239.0760265826
 20
785123.0792378346
 30
0.0
 40
1.0
  0
TEXT
  5
B7
330
17
100
AcDbEntity
  8
路灯
100
AcDbText
 10
573239.0760265826
 20
785123.0792378346
 30
0.0
 40
0.2
  1
M-2123.371
 72
1
 11
573239.0760265826
 21
785123.0792378346
 31
0.0
100
AcDbText
 73
2
  0
CIRCLE
  5
B8
330
17
100
AcDbEntity
  8
路灯
100
AcDbCircle
 10
573268.8121507809
 20
785119.1133239391
 30
0.0
 40
1.0
  0
TEXT
  5
B9
330
17
100
AcDbEntity
  8
路灯
100
AcDbText
 10
573268.8121507809
 20
785119.1133239391
 30
0.0
 40
0.2
  1
M-2153.371
 72
1
 11
573268.8121507809
 21
785119.1133239391
 31
0.0
100
AcDbText
 73
2
  0
CIRCLE
  5
BA
330
17
100
AcDbEntity
  8
路灯
100
AcDbCircle
 10
573298.5488440219
 20
785115.1473341391
 30
0.0
 40
1.0
  0
TEXT
  5
BB
330
17
100
AcDbEntity
  8
路灯
100
AcDbText
 10
573298.5488440219
 20
785115.1473341391
 30
0.0
 40
0.2
  1
M-2183.371
 72
1
 11
573298.5488440219
 21
785115.1473341391
 31
0.0
100
AcDbText
 73
2
  0
CIRCLE
  5
BC
330
17
100
AcDbEntity
  8
路灯
100
AcDbCircle
 10
573328.2854613783
 20
785111.1813544588
 30
0.0
 40
1.0
  0
TEXT
  5
BD
330
17
100
AcDbEntity
  8
路灯
100
AcDbText
 10
573328.2854613783
 20
785111.1813544588
 30
0.0
 40
0.2
  1
M-2213.371
 72
1
 11
573328.2854613783
 21
785111.1813544588
 31
0.0
100
AcDbText
 73
2
  0
CIRCLE
  5
BE
330
17
100
AcDbEntity
  8
路灯
100
AcDbCircle
 10
573358.0222305037
 20
785107.2153545391
 30
0.0
 40
1.0
  0
TEXT
  5
BF
330
17
100
AcDbEntity
  8
路灯
100
AcDbText
 10
573358.0222305037
 20
785107.2153545391
 30
0.0
 40
0.2
  1
M-2243.371
 72
1
 11
573358.0222305037
 21
785107.2153545391
 31
0.0
100
AcDbText
 73
2
  0
CIRCLE
  5
C0
330
17
100
AcDbEntity
  8
路灯
100
AcDbCircle
 10
573387.7594927873
 20
785103.2492888344
 30
0.0
 40
1.0
  0
TEXT
  5
C1
330
17
100
AcDbEntity
  8
路灯
100
AcDbText
 10
573387.7594927873
 20
785103.2492888344
 30
0.0
 40
0.2
  1
M-2273.371
 72
1
 11
573387.7594927873
 21
785103.2492888344
 31
0.0
100
AcDbText
 73
2
  0
CIRCLE
  5
C2
330
17
100
AcDbEntity
  8
路灯
100
AcDbCircle
 10
573417.4956169856
 20
785099.283374939
 30
0.0
 40
1.0
  0
TEXT
  5
C3
330
17
100
AcDbEntity
  8
路灯
100
AcDbText
 10
573417.4956169856
 20
785099.283374939
 30
0.0
 40
0.2
  1
M-2303.371
 72
1
 11
573417.4956169856
 21
785099.283374939
 31
0.0
100
AcDbText
 73
2
  0
CIRCLE
  5
C4
330
17
100
AcDbEntity
  8
路灯
100
AcDbCircle
 10
573447.2323102265
 20
785095.317385139
 30
0.0
 40
1.0
  0
TEXT
  5
C5
330
17
100
AcDbEntity
  8
路灯
100
AcDbText
 10
573447.2323102265
 20
785095.317385139
 30
0.0
 40
0.2
  1
M-2333.371
 72
1
 11
573447.2323102265
 21
785095.317385139
 31
0.0
100
AcDbText
 73
2
  0
CIRCLE
  5
C6
330
17
100
AcDbEntity
  8
路灯
100
AcDbCircle
 10
573476.9690034675
 20
785091.351395339
 30
0.0
 40
1.0
  0
TEXT
  5
C7
330
17
100
AcDbEntity
  8
路灯
100
AcDbText
 10
573476.9690034675
 20
785091.351395339
 30
0.0
 40
0.2
  1
M-2363.371
 72
1
 11
573476.9690034675
 21
785091.351395339
 31
0.0
100
AcDbText
 73
2
  0
CIRCLE
  5
C8
330
17
100
AcDbEntity
  8
路灯
100
AcDbCircle
 10
573506.7056967085
 20
785087.385405539
 30
0.0
 40
1.0
  0
TEXT
  5
C9
330
17
100
AcDbEntity
  8
路灯
100
AcDbText
 10
573506.7056967085
 20
785087.385405539
 30
0.0
 40
0.2
  1
M-2393.371
 72
1
 11
573506.7056967085
 21
785087.385405539
 31
0.0
100
AcDbText
 73
2
  0
CIRCLE
  5
CA
330
17
100
AcDbEntity
  8
路灯
100
AcDbCircle
 10
573536.4429589921
 20
785083.4193398342
 30
0.0
 40
1.0
  0
TEXT
  5
CB
330
17
100
AcDbEntity
  8
路灯
100
AcDbText
 10
573536.4429589921
 20
785083.4193398342
 30
0.0
 40
0.2
  1
M-2423.371
 72
1
 11
573536.4429589921
 21
785083.4193398342
 31
0.0
100
AcDbText
 73
2
  0
CIRCLE
  5
CC
330
17
100
AcDbEntity
  8
路灯
100
AcDbCircle
 10
573566.1790831904
 20
785079.4534259388
 30
0.0
 40
1.0
  0
TEXT
  5
CD
330
17
100
AcDbEntity
  8
路灯
100
AcDbText
 10
573566.1790831904
 20
785079.4534259388
 30
0.0
 40
0.2
  1
M-2453.371
 72
1
 11
573566.1790831904
 21
785079.4534259388
 31
0.0
100
AcDbText
 73
2
  0
CIRCLE
  5
CE
330
17
100
AcDbEntity
  8
路灯
100
AcDbCircle
 10
571204.2925099867
 20
785628.9783721055
 30
0.0
 40
1.0
  0
TEXT
  5
CF
330
17
100
AcDbEntity
  8
路灯
100
AcDbText
 10
571204.2925099867
 20
785628.9783721055
 30
0.0
 40
0.2
  1
M-23.371
 72
1
 11
571204.2925099867
 21
785628.9783721055
 31
0.0
100
AcDbText
 73
2
  0
CIRCLE
  5
D0
330
17
100
AcDbEntity
  8
路灯
100
AcDbCircle
 10
571233.6720473552
 20
785623.5314218054
 30
0.0
 40
1.0
  0
TEXT
  5
D1
330
17
100
AcDbEntity
  8
路灯
100
AcDbText
 10
571233.6720473552
 20
785623.5314218054
 30
0.0
 40
0.2
  1
M-53.371
 72
1
 11
571233.6720473552
 21
785623.5314218054
 31
0.0
100
AcDbText
 73
2
  0
CIRCLE
  5
D2
330
17
100
AcDbEntity
  8
路灯
100
AcDbCircle
 10
571262.9840066549
 20
785617.7323409771
 30
0.0
 40
1.0
  0
TEXT
  5
D3
330
17
100
AcDbEntity
  8
路灯
100
AcDbText
 10
571262.9840066549
 20
785617.7323409771
 30
0.0
 40
0.2
  1
M-83.371
 72
1
 11
571262.9840066549
 21
785617.7323409771
 31
0.0
100
AcDbText
 73
2
  0
CIRCLE
  5
D4
330
17
100
AcDbEntity
  8
路灯
100
AcDbCircle
 10
571292.224928466
 20
785611.5818035284
 30
0.0
 40
1.0
  0
TEXT
  5
D5
330
17
100
AcDbEntity
  8
路灯
100
AcDbText
 10
571292.224928466
 20
785611.5818035284
 30
0.0
 40
0.2
  1
M-113.371
 72
1
 11
571292.224928466
 21
785611.5818035284
 31
0.0
100
AcDbText
 73
2
  0
CIRCLE
  5
D6
330
17
100
AcDbEntity
  8
路灯
100
AcDbCircle
 10
571321.3896942653
 20
785605.0808783271
 30
0.0
 40
1.0
  0
TEXT
  5
D7
330
17
100
AcDbEntity
  8
路灯
100
AcDbText
 10
571321.3896942653
 20
785605.0808783271
 30
0.0
 40
0.2
  1
M-143.371
 72
1
 11
571321.3896942653
 21
785605.0808783271
 31
0.0
100
AcDbText
 73
2
  0
CIRCLE
  5
D8
330
17
100
AcDbEntity
  8
路灯
100
AcDbCircle
 10
571350.4742324632
 20
785598.2304798167
 30
0.0
 40
1.0
  0
TEXT
  5
D9
330
17
100
AcDbEntity
  8
路灯
100
AcDbText
 10
571350.4742324632
 20
785598.2304798167
 30
0.0
 40
0.2
  1
M-173.371
 72
1
 11
571350.4742324632
 21
785598.2304798167
 31
0.0
100
AcDbText
 73
2
  0
CIRCLE
  5
DA
330
17
100
AcDbEntity
  8
路灯
100
AcDbCircle
 10
571379.4743595804
 20
785591.0315977798
 30
0.0
 40
1.0
  0
TEXT
  5
DB
330
17
100
AcDbEntity
  8
路灯
100
AcDbText
 10
571379.4743595804
 20
785591.0315977798
 30
0.0
 40
0.2
  1
M-203.371
 72
1
 11
571379.4743595804
 21
785591.0315977798
 31
0.0
100
AcDbText
 73
2
  0
CIRCLE
  5
DC
330
17
100
AcDbEntity
  8
路灯
100
AcDbCircle
 10
571408.3860136454
 20
785583.4852427521
 30
0.0
 40
1.0
  0
TEXT
  5
DD
330
17
100
AcDbEntity
  8
路灯
100
AcDbText
 10
571408.3860136454
 20
785583.4852427521
 30
0.0
 40
0.2
  1
M-233.371
 72
1
 11
571408.3860136454
 21
785583.4852427521
 31
0.0
100
AcDbText
 73
2
  0
CIRCLE
  5
DE
330
17
100
AcDbEntity
  8
路灯
100
AcDbCircle
 10
571437.217098938
 20
785575.5908825009
 30
0.0
 40
1.0
  0
TEXT
  5
DF
330
17
100
AcDbEntity
  8
路灯
100
AcDbText
 10
571437.217098938
 20
785575.5908825009
 30
0.0
 40
0.2
  1
M-263.371
 72
1
 11
571437.217098938
 21
785575.5908825009
 31
0.0
100
AcDbText
 73
2
  0
CIRCLE
  5
E0
330
17
100
AcDbEntity
  8
路灯
100
AcDbCircle
 10
571466.1129174755
 20
785567.526660837
 30
0.0
 40
1.0
  0
TEXT
  5
E1
330
17
100
AcDbEntity
  8
路灯
100
AcDbText
 10
571466.1129174755
 20
785567.526660837
 30
0.0
 40
0.2
  1
M-293.371
 72
1
 11
571466.1129174755
 21
785567.526660837
 31
0.0
100
AcDbText
 73
2
  0
CIRCLE
  5
E2
330
17
100
AcDbEntity
  8
路灯
100
AcDbCircle
 10
571495.0087360131
 20
785559.4624391733
 30
0.0
 40
1.0
  0
TEXT
  5
E3
330
17
100
AcDbEntity
  8
路灯
100
AcDbText
 10
571495.0087360131
 20
785559.4624391733
 30
0.0
 40
0.2
  1
M-323.371
 72
1
 11
571495.0087360131
 21
785559.4624391733
 31
0.0
100
AcDbText
 73
2
  0
CIRCLE
  5
E4
330
17
100
AcDbEntity
  8
路灯
100
AcDbCircle
 10
571523.9045545507
 20
785551.3982175094
 30
0.0
 40
1.0
  0
TEXT
  5
E5
330
17
100
AcDbEntity
  8
路灯
100
AcDbText
 10
571523.9045545507
 20
785551.3982175094
 30
0.0
 40
0.2
  1
M-353.371
 72
1
 11
571523.9045545507
 21
785551.3982175094
 31
0.0
100
AcDbText
 73
2
  0
CIRCLE
  5
E6
330
17
100
AcDbEntity
  8
路灯
100
AcDbCircle
 10
571552.8003730882
 20
785543.3339958455
 30
0.0
 40
1.0
  0
TEXT
  5
E7
330
17
100
AcDbEntity
  8
路灯
100
AcDbText
 10
571552.8003730882
 20
785543.3339958455
 30
0.0
 40
0.2
  1
M-383.371
 72
1
 11
571552.8003730882
 21
785543.3339958455
 31
0.0
100
AcDbText
 73
2
  0
CIRCLE
  5
E8
330
17
100
AcDbEntity
  8
路灯
100
AcDbCircle
 10
571581.6961916258
 20
785535.2697741817
 30
0.0
 40
1.0
  0
TEXT
  5
E9
330
17
100
AcDbEntity
  8
路灯
100
AcDbText
 10
571581.6961916258
 20
785535.2697741817
 30
0.0
 40
0.2
  1
M-413.371
 72
1
 11
571581.6961916258
 21
785535.2697741817
 31
0.0
100
AcDbText
 73
2
  0
CIRCLE
  5
EA
330
17
100
AcDbEntity
  8
路灯
100
AcDbCircle
 10
571610.5913228901
 20
785527.2057443397
 30
0.0
 40
1.0
  0
TEXT
  5
EB
330
17
100
AcDbEntity
  8
路灯
100
AcDbText
 10
571610.5913228901
 20
785527.2057443397
 30
0.0
 40
0.2
  1
M-443.371
 72
1
 11
571610.5913228901
 21
785527.2057443397
 31
0.0
100
AcDbText
 73
2
  0
CIRCLE
  5
EC
330
17
100
AcDbEntity
  8
路灯
100
AcDbCircle
 10
571639.487678748
 20
785519.1413727022
 30
0.0
 40
1.0
  0
TEXT
  5
ED
330
17
100
AcDbEntity
  8
路灯
100
AcDbText
 10
571639.487678748
 20
785519.1413727022
 30
0.0
 40
0.2
  1
M-473.371
 72
1
 11
571639.487678748
 21
785519.1413727022
 31
0.0
100
AcDbText
 73
2
  0
CIRCLE
  5
EE
330
17
100
AcDbEntity
  8
路灯
100
AcDbCircle
 10
571668.3834972855
 20
785511.0771510383
 30
0.0
 40
1.0
  0
TEXT
  5
EF
330
17
100
AcDbEntity
  8
路灯
100
AcDbText
 10
571668.3834972855
 20
785511.0771510383
 30
0.0
 40
0.2
  1
M-503.371
 72
1
 11
571668.3834972855
 21
785511.0771510383
 31
0.0
100
AcDbText
 73
2
  0
CIRCLE
  5
F0
330
17
100
AcDbEntity
  8
路灯
100
AcDbCircle
 10
571697.2793158232
 20
785503.0129293745
 30
0.0
 40
1.0
  0
TEXT
  5
F1
330
17
100
AcDbEntity
  8
路灯
100
AcDbText
 10
571697.2793158232
 20
785503.0129293745
 30
0.0
 40
0.2
  1
M-533.371
 72
1
 11
571697.2793158232
 21
785503.0129293745
 31
0.0
100
AcDbText
 73
2
  0
CIRCLE
  5
F2
330
17
100
AcDbEntity
  8
路灯
100
AcDbCircle
 10
571726.1751343608
 20
785494.9487077106
 30
0.0
 40
1.0
  0
TEXT
  5
F3
330
17
100
AcDbEntity
  8
路灯
100
AcDbText
 10
571726.1751343608
 20
785494.9487077106
 30
0.0
 40
0.2
  1
M-563.371
 72
1
 11
571726.1751343608
 21
785494.9487077106
 31
0.0
100
AcDbText
 73
2
  0
CIRCLE
  5
F4
330
17
100
AcDbEntity
  8
路灯
100
AcDbCircle
 10
571755.0709528984
 20
785486.8844860469
 30
0.0
 40
1.0
  0
TEXT
  5
F5
330
17
100
AcDbEntity
  8
路灯
100
AcDbText
 10
571755.0709528984
 20
785486.8844860469
 30
0.0
 40
0.2
  1
M-593.371
 72
1
 11
571755.0709528984
 21
785486.8844860469
 31
0.0
100
AcDbText
 73
2
  0
CIRCLE
  5
F6
330
17
100
AcDbEntity
  8
路灯
100
AcDbCircle
 10
571783.9669213889
 20
785478.8202225348
 30
0.0
 40
1.0
  0
TEXT
  5
F7
330
17
100
AcDbEntity
  8
路灯
100
AcDbText
 10
571783.9669213889
 20
785478.8202225348
 30
0.0
 40
0.2
  1
M-623.371
 72
1
 11
571783.9669213889
 21
785478.8202225348
 31
0.0
100
AcDbText
 73
2
  0
CIRCLE
  5
F8
330
17
100
AcDbEntity
  8
路灯
100
AcDbCircle
 10
571812.8627399264
 20
785470.756000871
 30
0.0
 40
1.0
  0
TEXT
  5
F9
330
17
100
AcDbEntity
  8
路灯
100
AcDbText
 10
571812.8627399264
 20
785470.756000871
 30
0.0
 40
0.2
  1
M-653.371
 72
1
 11
571812.8627399264
 21
785470.756000871
 31
0.0
100
AcDbText
 73
2
  0
CIRCLE
  5
FA
330
17
100
AcDbEntity
  8
路灯
100
AcDbCircle
 10
571841.758558464
 20
785462.6917792071
 30
0.0
 40
1.0
  0
TEXT
  5
FB
330
17
100
AcDbEntity
  8
路灯
100
AcDbText
 10
571841.758558464
 20
785462.6917792071
 30
0.0
 40
0.2
  1
M-683.371
 72
1
 11
571841.758558464
 21
785462.6917792071
 31
0.0
100
AcDbText
 73
2
  0
CIRCLE
  5
FC
330
17
100
AcDbEntity
  8
路灯
100
AcDbCircle
 10
571870.6538397066
 20
785454.6277075008
 30
0.0
 40
1.0
  0
TEXT
  5
FD
330
17
100
AcDbEntity
  8
路灯
100
AcDbText
 10
571870.6538397066
 20
785454.6277075008
 30
0.0
 40
0.2
  1
M-713.371
 72
1
 11
571870.6538397066
 21
785454.6277075008
 31
0.0
100
AcDbText
 73
2
  0
CIRCLE
  5
FE
330
17
100
AcDbEntity
  8
路灯
100
AcDbCircle
 10
571899.5501955391
 20
785446.5633358795
 30
0.0
 40
1.0
  0
TEXT
  5
FF
330
17
100
AcDbEntity
  8
路灯
100
AcDbText
 10
571899.5501955391
 20
785446.5633358795
 30
0.0
 40
0.2
  1
M-743.371
 72
1
 11
571899.5501955391
 21
785446.5633358795
 31
0.0
100
AcDbText
 73
2
  0
CIRCLE
  5
100
330
17
100
AcDbEntity
  8
路灯
100
AcDbCircle
 10
571928.4460140767
 20
785438.4991142156
 30
0.0
 40
1.0
  0
TEXT
  5
101
330
17
100
AcDbEntity
  8
路灯
100
AcDbText
 10
571928.4460140767
 20
785438.4991142156
 30
0.0
 40
0.2
  1
M-773.371
 72
1
 11
571928.4460140767
 21
785438.4991142156
 31
0.0
100
AcDbText
 73
2
  0
CIRCLE
  5
102
330
17
100
AcDbEntity
  8
路灯
100
AcDbCircle
 10
571957.3418326143
 20
785430.4348925517
 30
0.0
 40
1.0
  0
TEXT
  5
103
330
17
100
AcDbEntity
  8
路灯
100
AcDbText
 10
571957.3418326143
 20
785430.4348925517
 30
0.0
 40
0.2
  1
M-803.371
 72
1
 11
571957.3418326143
 21
785430.4348925517
 31
0.0
100
AcDbText
 73
2
  0
CIRCLE
  5
104
330
17
100
AcDbEntity
  8
路灯
100
AcDbCircle
 10
571986.2376511518
 20
785422.3706708879
 30
0.0
 40
1.0
  0
TEXT
  5
105
330
17
100
AcDbEntity
  8
路灯
100
AcDbText
 10
571986.2376511518
 20
785422.3706708879
 30
0.0
 40
0.2
  1
M-833.371
 72
1
 11
571986.2376511518
 21
785422.3706708879
 31
0.0
100
AcDbText
 73
2
  0
CIRCLE
  5
106
330
17
100
AcDbEntity
  8
路灯
100
AcDbCircle
 10
572015.1333197365
 20
785414.3064910723
 30
0.0
 40
1.0
  0
TEXT
  5
107
330
17
100
AcDbEntity
  8
路灯
100
AcDbText
 10
572015.1333197365
 20
785414.3064910723
 30
0.0
 40
0.2
  1
M-863.371
 72
1
 11
572015.1333197365
 21
785414.3064910723
 31
0.0
100
AcDbText
 73
2
  0
CIRCLE
  5
108
330
17
100
AcDbEntity
  8
路灯
100
AcDbCircle
 10
572044.029138274
 20
785406.2422694084
 30
0.0
 40
1.0
  0
TEXT
  5
109
330
17
100
AcDbEntity
  8
路灯
100
AcDbText
 10
572044.029138274
 20
785406.2422694084
 30
0.0
 40
0.2
  1
M-893.371
 72
1
 11
572044.029138274
 21
785406.2422694084
 31
0.0
100
AcDbText
 73
2
  0
CIRCLE
  5
10A
330
17
100
AcDbEntity
  8
路灯
100
AcDbCircle
 10
572072.9249568116
 20
785398.1780477446
 30
0.0
 40
1.0
  0
TEXT
  5
10B
330
17
100
AcDbEntity
  8
路灯
100
AcDbText
 10
572072.9249568116
 20
785398.1780477446
 30
0.0
 40
0.2
  1
M-923.371
 72
1
 11
572072.9249568116
 21
785398.1780477446
 31
0.0
100
AcDbText
 73
2
  0
CIRCLE
  5
10C
330
17
100
AcDbEntity
  8
路灯
100
AcDbCircle
 10
572101.8207753492
 20
785390.1138260807
 30
0.0
 40
1.0
  0
TEXT
  5
10D
330
17
100
AcDbEntity
  8
路灯
100
AcDbText
 10
572101.8207753492
 20
785390.1138260807
 30
0.0
 40
0.2
  1
M-953.371
 72
1
 11
572101.8207753492
 21
785390.1138260807
 31
0.0
100
AcDbText
 73
2
  0
CIRCLE
  5
10E
330
17
100
AcDbEntity
  8
路灯
100
AcDbCircle
 10
572130.7165938868
 20
785382.0496044169
 30
0.0
 40
1.0
  0
TEXT
  5
10F
330
17
100
AcDbEntity
  8
路灯
100
AcDbText
 10
572130.7165938868
 20
785382.0496044169
 30
0.0
 40
0.2
  1
M-983.371
 72
1
 11
572130.7165938868
 21
785382.0496044169
 31
0.0
100
AcDbText
 73
2
  0
CIRCLE
  5
110
330
17
100
AcDbEntity
  8
路灯
100
AcDbCircle
 10
572159.6124124244
 20
785373.9853827531
 30
0.0
 40
1.0
  0
TEXT
  5
111
330
17
100
AcDbEntity
  8
路灯
100
AcDbText
 10
572159.6124124244
 20
785373.9853827531
 30
0.0
 40
0.2
  1
M-1013.371
 72
1
 11
572159.6124124244
 21
785373.9853827531
 31
0.0
100
AcDbText
 73
2
  0
CIRCLE
  5
112
330
17
100
AcDbEntity
  8
路灯
100
AcDbCircle
 10
572188.508230962
 20
785365.9211610892
 30
0.0
 40
1.0
  0
TEXT
  5
113
330
17
100
AcDbEntity
  8
路灯
100
AcDbText
 10
572188.508230962
 20
785365.9211610892
 30
0.0
 40
0.2
  1
M-1043.371
 72
1
 11
572188.508230962
 21
785365.9211610892
 31
0.0
100
AcDbText
 73
2
  0
CIRCLE
  5
114
330
17
100
AcDbEntity
  8
路灯
100
AcDbCircle
 10
572217.4041994525
 20
785357.8568975772
 30
0.0
 40
1.0
  0
TEXT
  5
115
330
17
100
AcDbEntity
  8
路灯
100
AcDbText
 10
572217.4041994525
 20
785357.8568975772
 30
0.0
 40
0.2
  1
M-1073.371
 72
1
 11
572217.4041994525
 21
785357.8568975772
 31
0.0
100
AcDbText
 73
2
  0
CIRCLE
  5
116
330
17
100
AcDbEntity
  8
路灯
100
AcDbCircle
 10
572246.30001799
 20
785349.7926759133
 30
0.0
 40
1.0
  0
TEXT
  5
117
330
17
100
AcDbEntity
  8
路灯
100
AcDbText
 10
572246.30001799
 20
785349.7926759133
 30
0.0
 40
0.2
  1
M-1103.371
 72
1
 11
572246.30001799
 21
785349.7926759133
 31
0.0
100
AcDbText
 73
2
  0
CIRCLE
  5
118
330
17
100
AcDbEntity
  8
路灯
100
AcDbCircle
 10
572275.1958365276
 20
785341.7284542496
 30
0.0
 40
1.0
  0
TEXT
  5
119
330
17
100
AcDbEntity
  8
路灯
100
AcDbText
 10
572275.1958365276
 20
785341.7284542496
 30
0.0
 40
0.2
  1
M-1133.371
 72
1
 11
572275.1958365276
 21
785341.7284542496
 31
0.0
100
AcDbText
 73
2
  0
CIRCLE
  5
11A
330
17
100
AcDbEntity
  8
路灯
100
AcDbCircle
 10
572304.0916550652
 20
785333.6642325857
 30
0.0
 40
1.0
  0
TEXT
  5
11B
330
17
100
AcDbEntity
  8
路灯
100
AcDbText
 10
572304.0916550652
 20
785333.6642325857
 30
0.0
 40
0.2
  1
M-1163.371
 72
1
 11
572304.0916550652
 21
785333.6642325857
 31
0.0
100
AcDbText
 73
2
  0
CIRCLE
  5
11C
330
17
100
AcDbEntity
  8
路灯
100
AcDbCircle
 10
572332.9874736028
 20
785325.6000109218
 30
0.0
 40
1.0
  0
TEXT
  5
11D
330
17
100
AcDbEntity
  8
路灯
100
AcDbText
 10
572332.9874736028
 20
785325.6000109218
 30
0.0
 40
0.2
  1
M-1193.371
 72
1
 11
572332.9874736028
 21
785325.6000109218
 31
0.0
100
AcDbText
 73
2
  0
CIRCLE
  5
11E
330
17
100
AcDbEntity
  8
路灯
100
AcDbCircle
 10
572361.8832921403
 20
785317.535789258
 30
0.0
 40
1.0
  0
TEXT
  5
11F
330
17
100
AcDbEntity
  8
路灯
100
AcDbText
 10
572361.8832921403
 20
785317.535789258
 30
0.0
 40
0.2
  1
M-1223.371
 72
1
 11
572361.8832921403
 21
785317.535789258
 31
0.0
100
AcDbText
 73
2
  0
CIRCLE
  5
120
330
17
100
AcDbEntity
  8
路灯
100
AcDbCircle
 10
572390.7791106779
 20
785309.4715675942
 30
0.0
 40
1.0
  0
TEXT
  5
121
330
17
100
AcDbEntity
  8
路灯
100
AcDbText
 10
572390.7791106779
 20
785309.4715675942
 30
0.0
 40
0.2
  1
M-1253.371
 72
1
 11
572390.7791106779
 21
785309.4715675942
 31
0.0
100
AcDbText
 73
2
  0
CIRCLE
  5
122
330
17
100
AcDbEntity
  8
路灯
100
AcDbCircle
 10
572419.6749292155
 20
785301.4073459303
 30
0.0
 40
1.0
  0
TEXT
  5
123
330
17
100
AcDbEntity
  8
路灯
100
AcDbText
 10
572419.6749292155
 20
785301.4073459303
 30
0.0
 40
0.2
  1
M-1283.371
 72
1
 11
572419.6749292155
 21
785301.4073459303
 31
0.0
100
AcDbText
 73
2
  0
CIRCLE
  5
124
330
17
100
AcDbEntity
  8
路灯
100
AcDbCircle
 10
572448.5705978001
 20
785293.3431661146
 30
0.0
 40
1.0
  0
TEXT
  5
125
330
17
100
AcDbEntity
  8
路灯
100
AcDbText
 10
572448.5705978001
 20
785293.3431661146
 30
0.0
 40
0.2
  1
M-1313.371
 72
1
 11
572448.5705978001
 21
785293.3431661146
 31
0.0
100
AcDbText
 73
2
  0
CIRCLE
  5
126
330
17
100
AcDbEntity
  8
路灯
100
AcDbCircle
 10
572477.4664163376
 20
785285.2789444508
 30
0.0
 40
1.0
  0
TEXT
  5
127
330
17
100
AcDbEntity
  8
路灯
100
AcDbText
 10
572477.4664163376
 20
785285.2789444508
 30
0.0
 40
0.2
  1
M-1343.371
 72
1
 11
572477.4664163376
 21
785285.2789444508
 31
0.0
100
AcDbText
 73
2
  0
CIRCLE
  5
128
330
17
100
AcDbEntity
  8
路灯
100
AcDbCircle
 10
572506.3622348752
 20
785277.2147227869
 30
0.0
 40
1.0
  0
TEXT
  5
129
330
17
100
AcDbEntity
  8
路灯
100
AcDbText
 10
572506.3622348752
 20
785277.2147227869
 30
0.0
 40
0.2
  1
M-1373.371
 72
1
 11
572506.3622348752
 21
785277.2147227869
 31
0.0
100
AcDbText
 73
2
  0
CIRCLE
  5
12A
330
17
100
AcDbEntity
  8
路灯
100
AcDbCircle
 10
572535.2580534129
 20
785269.1505011232
 30
0.0
 40
1.0
  0
TEXT
  5
12B
330
17
100
AcDbEntity
  8
路灯
100
AcDbText
 10
572535.2580534129
 20
785269.1505011232
 30
0.0
 40
0.2
  1
M-1403.371
 72
1
 11
572535.2580534129
 21
785269.1505011232
 31
0.0
100
AcDbText
 73
2
  0
CIRCLE
  5
12C
330
17
100
AcDbEntity
  8
路灯
100
AcDbCircle
 10
572564.1538719505
 20
785261.0862794593
 30
0.0
 40
1.0
  0
TEXT
  5
12D
330
17
100
AcDbEntity
  8
路灯
100
AcDbText
 10
572564.1538719505
 20
785261.0862794593
 30
0.0
 40
0.2
  1
M-1433.371
 72
1
 11
572564.1538719505
 21
785261.0862794593
 31
0.0
100
AcDbText
 73
2
  0
CIRCLE
  5
12E
330
17
100
AcDbEntity
  8
路灯
100
AcDbCircle
 10
572593.049690488
 20
785253.0220577954
 30
0.0
 40
1.0
  0
TEXT
  5
12F
330
17
100
AcDbEntity
  8
路灯
100
AcDbText
 10
572593.049690488
 20
785253.0220577954
 30
0.0
 40
0.2
  1
M-1463.371
 72
1
 11
572593.049690488
 21
785253.0220577954
 31
0.0
100
AcDbText
 73
2
  0
CIRCLE
  5
130
330
17
100
AcDbEntity
  8
路灯
100
AcDbCircle
 10
572621.9455090256
 20
785244.9578361316
 30
0.0
 40
1.0
  0
TEXT
  5
131
330
17
100
AcDbEntity
  8
路灯
100
AcDbText
 10
572621.9455090256
 20
785244.9578361316
 30
0.0
 40
0.2
  1
M-1493.371
 72
1
 11
572621.9455090256
 21
785244.9578361316
 31
0.0
100
AcDbText
 73
2
  0
CIRCLE
  5
132
330
17
100
AcDbEntity
  8
路灯
100
AcDbCircle
 10
572650.8414775161
 20
785236.8935726197
 30
0.0
 40
1.0
  0
TEXT
  5
133
330
17
100
AcDbEntity
  8
路灯
100
AcDbText
 10
572650.8414775161
 20
785236.8935726197
 30
0.0
 40
0.2
  1
M-1523.371
 72
1
 11
572650.8414775161
 21
785236.8935726197
 31
0.0
100
AcDbText
 73
2
  0
CIRCLE
  5
134
330
17
100
AcDbEntity
  8
路灯
100
AcDbCircle
 10
572679.7372960537
 20
785228.8293509558
 30
0.0
 40
1.0
  0
TEXT
  5
135
330
17
100
AcDbEntity
  8
路灯
100
AcDbText
 10
572679.7372960537
 20
785228.8293509558
 30
0.0
 40
0.2
  1
M-1553.371
 72
1
 11
572679.7372960537
 21
785228.8293509558
 31
0.0
100
AcDbText
 73
2
  0
CIRCLE
  5
136
330
17
100
AcDbEntity
  8
路灯
100
AcDbCircle
 10
572708.6331145912
 20
785220.7651292919
 30
0.0
 40
1.0
  0
TEXT
  5
137
330
17
100
AcDbEntity
  8
路灯
100
AcDbText
 10
572708.6331145912
 20
785220.7651292919
 30
0.0
 40
0.2
  1
M-1583.371
 72
1
 11
572708.6331145912
 21
785220.7651292919
 31
0.0
100
AcDbText
 73
2
  0
CIRCLE
  5
138
330
17
100
AcDbEntity
  8
路灯
100
AcDbCircle
 10
572737.5289331288
 20
785212.700907628
 30
0.0
 40
1.0
  0
TEXT
  5
139
330
17
100
AcDbEntity
  8
路灯
100
AcDbText
 10
572737.5289331288
 20
785212.700907628
 30
0.0
 40
0.2
  1
M-1613.371
 72
1
 11
572737.5289331288
 21
785212.700907628
 31
0.0
100
AcDbText
 73
2
  0
CIRCLE
  5
13A
330
17
100
AcDbEntity
  8
路灯
100
AcDbCircle
 10
572766.4247516664
 20
785204.6366859642
 30
0.0
 40
1.0
  0
TEXT
  5
13B
330
17
100
AcDbEntity
  8
路灯
100
AcDbText
 10
572766.4247516664
 20
785204.6366859642
 30
0.0
 40
0.2
  1
M-1643.371
 72
1
 11
572766.4247516664
 21
785204.6366859642
 31
0.0
100
AcDbText
 73
2
  0
CIRCLE
  5
13C
330
17
100
AcDbEntity
  8
路灯
100
AcDbCircle
 10
572795.3205702039
 20
785196.5724643004
 30
0.0
 40
1.0
  0
TEXT
  5
13D
330
17
100
AcDbEntity
  8
路灯
100
AcDbText
 10
572795.3205702039
 20
785196.5724643004
 30
0.0
 40
0.2
  1
M-1673.371
 72
1
 11
572795.3205702039
 21
785196.5724643004
 31
0.0
100
AcDbText
 73
2
  0
CIRCLE
  5
13E
330
17
100
AcDbEntity
  8
路灯
100
AcDbCircle
 10
572824.2163887415
 20
785188.5082426366
 30
0.0
 40
1.0
  0
TEXT
  5
13F
330
17
100
AcDbEntity
  8
路灯
100
AcDbText
 10
572824.2163887415
 20
785188.5082426366
 30
0.0
 40
0.2
  1
M-1703.371
 72
1
 11
572824.2163887415
 21
785188.5082426366
 31
0.0
100
AcDbText
 73
2
  0
CIRCLE
  5
140
330
17
100
AcDbEntity
  8
路灯
100
AcDbCircle
 10
572853.1122072791
 20
785180.4440209727
 30
0.0
 40
1.0
  0
TEXT
  5
141
330
17
100
AcDbEntity
  8
路灯
100
AcDbText
 10
572853.1122072791
 20
785180.4440209727
 30
0.0
 40
0.2
  1
M-1733.371
 72
1
 11
572853.1122072791
 21
785180.4440209727
 31
0.0
100
AcDbText
 73
2
  0
CIRCLE
  5
142
330
17
100
AcDbEntity
  8
路灯
100
AcDbCircle
 10
572882.1089619764
 20
785172.4386558066
 30
0.0
 40
1.0
  0
TEXT
  5
143
330
17
100
AcDbEntity
  8
路灯
100
AcDbText
 10
572882.1089619764
 20
785172.4386558066
 30
0.0
 40
0.2
  1
M-1763.371
 72
1
 11
572882.1089619764
 21
785172.4386558066
 31
0.0
100
AcDbText
 73
2
  0
CIRCLE
  5
144
330
17
100
AcDbEntity
  8
路灯
100
AcDbCircle
 10
572911.2311743371
 20
785164.7544134196
 30
0.0
 40
1.0
  0
TEXT
  5
145
330
17
100
AcDbEntity
  8
路灯
100
AcDbText
 10
572911.2311743371
 20
785164.7544134196
 30
0.0
 40
0.2
  1
M-1793.371
 72
1
 11
572911.2311743371
 21
785164.7544134196
 31
0.0
100
AcDbText
 73
2
  0
CIRCLE
  5
146
330
17
100
AcDbEntity
  8
路灯
100
AcDbCircle
 10
572940.4439004937
 20
785157.420080735
 30
0.0
 40
1.0
  0
TEXT
  5
147
330
17
100
AcDbEntity
  8
路灯
100
AcDbText
 10
572940.4439004937
 20
785157.420080735
 30
0.0
 40
0.2
  1
M-1823.371
 72
1
 11
572940.4439004937
 21
785157.420080735
 31
0.0
100
AcDbText
 73
2
  0
CIRCLE
  5
148
330
17
100
AcDbEntity
  8
路灯
100
AcDbCircle
 10
572969.7419964542
 20
785150.4369466773
 30
0.0
 40
1.0
  0
TEXT
  5
149
330
17
100
AcDbEntity
  8
路灯
100
AcDbText
 10
572969.7419964542
 20
785150.4369466773
 30
0.0
 40
0.2
  1
M-1853.371
 72
1
 11
572969.7419964542
 21
785150.4369466773
 31
0.0
100
AcDbText
 73
2
  0
CIRCLE
  5
14A
330
17
100
AcDbEntity
  8
路灯
100
AcDbCircle
 10
572999.1222009432
 20
785143.8057863927
 30
0.0
 40
1.0
  0
TEXT
  5
14B
330
17
100
AcDbEntity
  8
路灯
100
AcDbText
 10
572999.1222009432
 20
785143.8057863927
 30
0.0
 40
0.2
  1
M-1883.371
 72
1
 11
572999.1222009432
 21
785143.8057863927
 31
0.0
100
AcDbText
 73
2
  0
CIRCLE
  5
14C
330
17
100
AcDbEntity
  8
路灯
100
AcDbCircle
 10
573028.5800476326
 20
785137.5276194297
 30
0.0
 40
1.0
  0
TEXT
  5
14D
330
17
100
AcDbEntity
  8
路灯
100
AcDbText
 10
573028.5800476326
 20
785137.5276194297
 30
0.0
 40
0.2
  1
M-1913.371
 72
1
 11
573028.5800476326
 21
785137.5276194297
 31
0.0
100
AcDbText
 73
2
  0
CIRCLE
  5
14E
330
17
100
AcDbEntity
  8
路灯
100
AcDbCircle
 10
573058.1107684069
 20
785131.6034590665
 30
0.0
 40
1.0
  0
TEXT
  5
14F
330
17
100
AcDbEntity
  8
路灯
100
AcDbText
 10
573058.1107684069
 20
785131.6034590665
 30
0.0
 40
0.2
  1
M-1943.371
 72
1
 11
573058.1107684069
 21
785131.6034590665
 31
0.0
100
AcDbText
 73
2
  0
CIRCLE
  5
150
330
17
100
AcDbEntity
  8
路灯
100
AcDbCircle
 10
573087.7102370218
 20
785126.034122697
 30
0.0
 40
1.0
  0
TEXT
  5
151
330
17
100
AcDbEntity
  8
路灯
100
AcDbText
 10
573087.7102370218
 20
785126.034122697
 30
0.0
 40
0.2
  1
M-1973.371
 72
1
 11
573087.7102370218
 21
785126.034122697
 31
0.0
100
AcDbText
 73
2
  0
CIRCLE
  5
152
330
17
100
AcDbEntity
  8
路灯
100
AcDbCircle
 10
573117.3754179307
 20
785120.8201963113
 30
0.0
 40
1.0
  0
TEXT
  5
153
330
17
100
AcDbEntity
  8
路灯
100
AcDbText
 10
573117.3754179307
 20
785120.8201963113
 30
0.0
 40
0.2
  1
M-2003.371
 72
1
 11
573117.3754179307
 21
785120.8201963113
 31
0.0
100
AcDbText
 73
2
  0
CIRCLE
  5
154
330
17
100
AcDbEntity
  8
路灯
100
AcDbCircle
 10
573147.1000765931
 20
785115.9627768503
 30
0.0
 40
1.0
  0
TEXT
  5
155
330
17
100
AcDbEntity
  8
路灯
100
AcDbText
 10
573147.1000765931
 20
785115.9627768503
 30
0.0
 40
0.2
  1
M-2033.371
 72
1
 11
573147.1000765931
 21
785115.9627768503
 31
0.0
100
AcDbText
 73
2
  0
CIRCLE
  5
156
330
17
100
AcDbEntity
  8
路灯
100
AcDbCircle
 10
573176.8811880957
 20
785111.4623466698
 30
0.0
 40
1.0
  0
TEXT
  5
157
330
17
100
AcDbEntity
  8
路灯
100
AcDbText
 10
573176.8811880957
 20
785111.4623466698
 30
0.0
 40
0.2
  1
M-2063.371
 72
1
 11
573176.8811880957
 21
785111.4623466698
 31
0.0
100
AcDbText
 73
2
  0
CIRCLE
  5
158
330
17
100
AcDbEntity
  8
路灯
100
AcDbCircle
 10
573206.7081751538
 20
785107.3199391383
 30
0.0
 40
1.0
  0
TEXT
  5
159
330
17
100
AcDbEntity
  8
路灯
100
AcDbText
 10
573206.7081751538
 20
785107.3199391383
 30
0.0
 40
0.2
  1
M-2093.371
 72
1
 11
573206.7081751538
 21
785107.3199391383
 31
0.0
100
AcDbText
 73
2
  0
CIRCLE
  5
15A
330
17
100
AcDbEntity
  8
路灯
100
AcDbCircle
 10
573236.4442993521
 20
785103.3540252429
 30
0.0
 40
1.0
  0
TEXT
  5
15B
330
17
100
AcDbEntity
  8
路灯
100
AcDbText
 10
573236.4442993521
 20
785103.3540252429
 30
0.0
 40
0.2
  1
M-2123.371
 72
1
 11
573236.4442993521
 21
785103.3540252429
 31
0.0
100
AcDbText
 73
2
  0
CIRCLE
  5
15C
330
17
100
AcDbEntity
  8
路灯
100
AcDbCircle
 10
573266.1815616357
 20
785099.3879595381
 30
0.0
 40
1.0
  0
TEXT
  5
15D
330
17
100
AcDbEntity
  8
路灯
100
AcDbText
 10
573266.1815616357
 20
785099.3879595381
 30
0.0
 40
0.2
  1
M-2153.371
 72
1
 11
573266.1815616357
 21
785099.3879595381
 31
0.0
100
AcDbText
 73
2
  0
CIRCLE
  5
15E
330
17
100
AcDbEntity
  8
路灯
100
AcDbCircle
 10
573295.9182548766
 20
785095.4219697381
 30
0.0
 40
1.0
  0
TEXT
  5
15F
330
17
100
AcDbEntity
  8
路灯
100
AcDbText
 10
573295.9182548766
 20
785095.4219697381
 30
0.0
 40
0.2
  1
M-2183.371
 72
1
 11
573295.9182548766
 21
785095.4219697381
 31
0.0
100
AcDbText
 73
2
  0
CIRCLE
  5
160
330
17
100
AcDbEntity
  8
路灯
100
AcDbCircle
 10
573325.6550240021
 20
785091.4559698185
 30
0.0
 40
1.0
  0
TEXT
  5
161
330
17
100
AcDbEntity
  8
路灯
100
AcDbText
 10
573325.6550240021
 20
785091.4559698185
 30
0.0
 40
0.2
  1
M-2213.371
 72
1
 11
573325.6550240021
 21
785091.4559698185
 31
0.0
100
AcDbText
 73
2
  0
CIRCLE
  5
162
330
17
100
AcDbEntity
  8
路灯
100
AcDbCircle
 10
573355.3916413585
 20
785087.4899901381
 30
0.0
 40
1.0
  0
TEXT
  5
163
330
17
100
AcDbEntity
  8
路灯
100
AcDbText
 10
573355.3916413585
 20
785087.4899901381
 30
0.0
 40
0.2
  1
M-2243.371
 72
1
 11
573355.3916413585
 21
785087.4899901381
 31
0.0
100
AcDbText
 73
2
  0
CIRCLE
  5
164
330
17
100
AcDbEntity
  8
路灯
100
AcDbCircle
 10
573385.1277655568
 20
785083.5240762427
 30
0.0
 40
1.0
  0
TEXT
  5
165
330
17
100
AcDbEntity
  8
路灯
100
AcDbText
 10
573385.1277655568
 20
785083.5240762427
 30
0.0
 40
0.2
  1
M-2273.371
 72
1
 11
573385.1277655568
 21
785083.5240762427
 31
0.0
100
AcDbText
 73
2
  0
CIRCLE
  5
166
330
17
100
AcDbEntity
  8
路灯
100
AcDbCircle
 10
573414.8650278404
 20
785079.558010538
 30
0.0
 40
1.0
  0
TEXT
  5
167
330
17
100
AcDbEntity
  8
路灯
100
AcDbText
 10
573414.8650278404
 20
785079.558010538
 30
0.0
 40
0.2
  1
M-2303.371
 72
1
 11
573414.8650278404
 21
785079.558010538
 31
0.0
100
AcDbText
 73
2
  0
CIRCLE
  5
168
330
17
100
AcDbEntity
  8
路灯
100
AcDbCircle
 10
573444.6017210813
 20
785075.5920207379
 30
0.0
 40
1.0
  0
TEXT
  5
169
330
17
100
AcDbEntity
  8
路灯
100
AcDbText
 10
573444.6017210813
 20
785075.5920207379
 30
0.0
 40
0.2
  1
M-2333.371
 72
1
 11
573444.6017210813
 21
785075.5920207379
 31
0.0
100
AcDbText
 73
2
  0
CIRCLE
  5
16A
330
17
100
AcDbEntity
  8
路灯
100
AcDbCircle
 10
573474.3384143222
 20
785071.626030938
 30
0.0
 40
1.0
  0
TEXT
  5
16B
330
17
100
AcDbEntity
  8
路灯
100
AcDbText
 10
573474.3384143222
 20
785071.626030938
 30
0.0
 40
0.2
  1
M-2363.371
 72
1
 11
573474.3384143222
 21
785071.626030938
 31
0.0
100
AcDbText
 73
2
  0
CIRCLE
  5
16C
330
17
100
AcDbEntity
  8
路灯
100
AcDbCircle
 10
573504.0751075633
 20
785067.660041138
 30
0.0
 40
1.0
  0
TEXT
  5
16D
330
17
100
AcDbEntity
  8
路灯
100
AcDbText
 10
573504.0751075633
 20
785067.660041138
 30
0.0
 40
0.2
  1
M-2393.371
 72
1
 11
573504.0751075633
 21
785067.660041138
 31
0.0
100
AcDbText
 73
2
  0
CIRCLE
  5
16E
330
17
100
AcDbEntity
  8
路灯
100
AcDbCircle
 10
573533.8112317616
 20
785063.6941272425
 30
0.0
 40
1.0
  0
TEXT
  5
16F
330
17
100
AcDbEntity
  8
路灯
100
AcDbText
 10
573533.8112317616
 20
785063.6941272425
 30
0.0
 40
0.2
  1
M-2423.371
 72
1
 11
573533.8112317616
 21
785063.6941272425
 31
0.0
100
AcDbText
 73
2
  0
CIRCLE
  5
170
330
17
100
AcDbEntity
  8
路灯
100
AcDbCircle
 10
573563.5484940452
 20
785059.7280615378
 30
0.0
 40
1.0
  0
TEXT
  5
171
330
17
100
AcDbEntity
  8
路灯
100
AcDbText
 10
573563.5484940452
 20
785059.7280615378
 30
0.0
 40
0.2
  1
M-2453.371
 72
1
 11
573563.5484940452
 21
785059.7280615378
 31
0.0
100
AcDbText
 73
2
  0
CIRCLE
  5
172
330
17
100
AcDbEntity
  8
路灯
100
AcDbCircle
 10
570807.0984450615
 20
785406.2555943541
 30
0.0
 40
1.0
  0
TEXT
  5
173
330
17
100
AcDbEntity
  8
路灯
100
AcDbText
 10
570807.0984450615
 20
785406.2555943541
 30
0.0
 40
0.2
  1
D1-0.000
 72
1
 11
570807.0984450615
 21
785406.2555943541
 31
0.0
100
AcDbText
 73
2
  0
CIRCLE
  5
174
330
17
100
AcDbEntity
  8
路灯
100
AcDbCircle
 10
570826.0391581596
 20
785429.5203381763
 30
0.0
 40
1.0
  0
TEXT
  5
175
330
17
100
AcDbEntity
  8
路灯
100
AcDbText
 10
570826.0391581596
 20
785429.5203381763
 30
0.0
 40
0.2
  1
D1-30.000
 72
1
 11
570826.0391581596
 21
785429.5203381763
 31
0.0
100
AcDbText
 73
2
  0
CIRCLE
  5
176
330
17
100
AcDbEntity
  8
路灯
100
AcDbCircle
 10
570844.9799439185
 20
785452.7851712487
 30
0.0
 40
1.0
  0
TEXT
  5
177
330
17
100
AcDbEntity
  8
路灯
100
AcDbText
 10
570844.9799439185
 20
785452.7851712487
 30
0.0
 40
0.2
  1
D1-60.000
 72
1
 11
570844.9799439185
 21
785452.7851712487
 31
0.0
100
AcDbText
 73
2
  0
CIRCLE
  5
178
330
17
100
AcDbEntity
  8
路灯
100
AcDbCircle
 10
570863.9206071318
 20
785476.0498537956
 30
0.0
 40
1.0
  0
TEXT
  5
179
330
17
100
AcDbEntity
  8
路灯
100
AcDbText
 10
570863.9206071318
 20
785476.0498537956
 30
0.0
 40
0.2
  1
D1-90.000
 72
1
 11
570863.9206071318
 21
785476.0498537956
 31
0.0
100
AcDbText
 73
2
  0
CIRCLE
  5
17A
330
17
100
AcDbEntity
  8
路灯
100
AcDbCircle
 10
570882.8613316178
 20
785499.3146116053
 30
0.0
 40
1.0
  0
TEXT
  5
17B
330
17
100
AcDbEntity
  8
路灯
100
AcDbText
 10
570882.8613316178
 20
785499.3146116053
 30
0.0
 40
0.2
  1
D1-120.000
 72
1
 11
570882.8613316178
 21
785499.3146116053
 31
0.0
100
AcDbText
 73
2
  0
CIRCLE
  5
17C
330
17
100
AcDbEntity
  8
路灯
100
AcDbCircle
 10
570901.8021173768
 20
785522.5794446777
 30
0.0
 40
1.0
  0
TEXT
  5
17D
330
17
100
AcDbEntity
  8
路灯
100
AcDbText
 10
570901.8021173768
 20
785522.5794446777
 30
0.0
 40
0.2
  1
D1-150.000
 72
1
 11
570901.8021173768
 21
785522.5794446777
 31
0.0
100
AcDbText
 73
2
  0
CIRCLE
  5
17E
330
17
100
AcDbEntity
  8
路灯
100
AcDbCircle
 10
570920.7427805901
 20
785545.8441272245
 30
0.0
 40
1.0
  0
TEXT
  5
17F
330
17
100
AcDbEntity
  8
路灯
100
AcDbText
 10
570920.7427805901
 20
785545.8441272245
 30
0.0
 40
0.2
  1
D1-180.000
 72
1
 11
570920.7427805901
 21
785545.8441272245
 31
0.0
100
AcDbText
 73
2
  0
CIRCLE
  5
180
330
17
100
AcDbEntity
  8
路灯
100
AcDbCircle
 10
570939.683566349
 20
785569.1089602971
 30
0.0
 40
1.0
  0
TEXT
  5
181
330
17
100
AcDbEntity
  8
路灯
100
AcDbText
 10
570939.683566349
 20
785569.1089602971
 30
0.0
 40
0.2
  1
D1-210.000
 72
1
 11
570939.683566349
 21
785569.1089602971
 31
0.0
100
AcDbText
 73
2
  0
CIRCLE
  5
182
330
17
100
AcDbEntity
  8
路灯
100
AcDbCircle
 10
570958.6300186173
 20
785592.3534164606
 30
0.0
 40
1.0
  0
TEXT
  5
183
330
17
100
AcDbEntity
  8
路灯
100
AcDbText
 10
570958.6300186173
 20
785592.3534164606
 30
0.0
 40
0.2
  1
D1-240.000
 72
1
 11
570958.6300186173
 21
785592.3534164606
 31
0.0
100
AcDbText
 73
2
  0
CIRCLE
  5
184
330
17
100
AcDbEntity
  8
路灯
100
AcDbCircle
 10
570978.4125005213
 20
785614.6203698308
 30
0.0
 40
1.0
  0
TEXT
  5
185
330
17
100
AcDbEntity
  8
路灯
100
AcDbText
 10
570978.4125005213
 20
785614.6203698308
 30
0.0
 40
0.2
  1
D1-270.000
 72
1
 11
570978.4125005213
 21
785614.6203698308
 31
0.0
100
AcDbText
 73
2
  0
CIRCLE
  5
186
330
17
100
AcDbEntity
  8
路灯
100
AcDbCircle
 10
571001.1289798695
 20
785633.4252262777
 30
0.0
 40
1.0
  0
TEXT
  5
187
330
17
100
AcDbEntity
  8
路灯
100
AcDbText
 10
571001.1289798695
 20
785633.4252262777
 30
0.0
 40
0.2
  1
D1-300.000
 72
1
 11
571001.1289798695
 21
785633.4252262777
 31
0.0
100
AcDbText
 73
2
  0
CIRCLE
  5
188
330
17
100
AcDbEntity
  8
路灯
100
AcDbCircle
 10
571027.6648003922
 20
785645.9016501703
 30
0.0
 40
1.0
  0
TEXT
  5
189
330
17
100
AcDbEntity
  8
路灯
100
AcDbText
 10
571027.6648003922
 20
785645.9016501703
 30
0.0
 40
0.2
  1
D1-330.000
 72
1
 11
571027.6648003922
 21
785645.9016501703
 31
0.0
100
AcDbText
 73
2
  0
CIRCLE
  5
18A
330
17
100
AcDbEntity
  8
路灯
100
AcDbCircle
 10
571056.5998044346
 20
785650.8126918992
 30
0.0
 40
1.0
  0
TEXT
  5
18B
330
17
100
AcDbEntity
  8
路灯
100
AcDbText
 10
571056.5998044346
 20
785650.8126918992
 30
0.0
 40
0.2
  1
D1-360.000
 72
1
 11
571056.5998044346
 21
785650.8126918992
 31
0.0
100
AcDbText
 73
2
  0
CIRCLE
  5
18C
330
17
100
AcDbEntity
  8
路灯
100
AcDbCircle
 10
571086.1703049219
 20
785649.2752383258
 30
0.0
 40
1.0
  0
TEXT
  5
18D
330
17
100
AcDbEntity
  8
路灯
100
AcDbText
 10
571086.1703049219
 20
785649.2752383258
 30
0.0
 40
0.2
  1
D1-390.000
 72
1
 11
571086.1703049219
 21
785649.2752383258
 31
0.0
100
AcDbText
 73
2
  0
CIRCLE
  5
18E
330
17
100
AcDbEntity
  8
路灯
100
AcDbCircle
 10
571115.6854303107
 20
785644.5469289715
 30
0.0
 40
1.0
  0
TEXT
  5
18F
330
17
100
AcDbEntity
  8
路灯
100
AcDbText
 10
571115.6854303107
 20
785644.5469289715
 30
0.0
 40
0.2
  1
D1-420.000
 72
1
 11
571115.6854303107
 21
785644.5469289715
 31
0.0
100
AcDbText
 73
2
  0
CIRCLE
  5
190
330
17
100
AcDbEntity
  8
路灯
100
AcDbCircle
 10
571145.2337220323
 20
785639.3605567967
 30
0.0
 40
1.0
  0
TEXT
  5
191
330
17
100
AcDbEntity
  8
路灯
100
AcDbText
 10
571145.2337220323
 20
785639.3605567967
 30
0.0
 40
0.2
  1
D1-450.000
 72
1
 11
571145.2337220323
 21
785639.3605567967
 31
0.0
100
AcDbText
 73
2
  0
CIRCLE
  5
192
330
17
100
AcDbEntity
  8
路灯
100
AcDbCircle
 10
571174.7820137538
 20
785634.1741846218
 30
0.0
 40
1.0
  0
TEXT
  5
193
330
17
100
AcDbEntity
  8
路灯
100
AcDbText
 10
571174.7820137538
 20
785634.1741846218
 30
0.0
 40
0.2
  1
D1-480.000
 72
1
 11
571174.7820137538
 21
785634.1741846218
 31
0.0
100
AcDbText
 73
2
  0
CIRCLE
  5
194
330
17
100
AcDbEntity
  8
路灯
100
AcDbCircle
 10
570796.5905359386
 20
785414.810496216
 30
0.0
 40
1.0
  0
TEXT
  5
195
330
17
100
AcDbEntity
  8
路灯
100
AcDbText
 10
570796.5905359386
 20
785414.810496216
 30
0.0
 40
0.2
  1
D2-0.000
 72
1
 11
570796.5905359386
 21
785414.810496216
 31
0.0
100
AcDbText
 73
2
  0
CIRCLE
  5
196
330
17
100
AcDbEntity
  8
路灯
100
AcDbCircle
 10
570815.5312718127
 20
785438.0752680133
 30
0.0
 40
1.0
  0
TEXT
  5
197
330
17
100
AcDbEntity
  8
路灯
100
AcDbText
 10
570815.5312718127
 20
785438.0752680133
 30
0.0
 40
0.2
  1
D2-30.000
 72
1
 11
570815.5312718127
 21
785438.0752680133
 31
0.0
100
AcDbText
 73
2
  0
CIRCLE
  5
198
330
17
100
AcDbEntity
  8
路灯
100
AcDbCircle
 10
570834.4719962988
 20
785461.3400258229
 30
0.0
 40
1.0
  0
TEXT
  5
199
330
17
100
AcDbEntity
  8
路灯
100
AcDbText
 10
570834.4719962988
 20
785461.3400258229
 30
0.0
 40
0.2
  1
D2-60.000
 72
1
 11
570834.4719962988
 21
785461.3400258229
 31
0.0
100
AcDbText
 73
2
  0
CIRCLE
  5
19A
330
17
100
AcDbEntity
  8
路灯
100
AcDbCircle
 10
570853.412659512
 20
785484.6047083697
 30
0.0
 40
1.0
  0
TEXT
  5
19B
330
17
100
AcDbEntity
  8
路灯
100
AcDbText
 10
570853.412659512
 20
785484.6047083697
 30
0.0
 40
0.2
  1
D2-90.000
 72
1
 11
570853.412659512
 21
785484.6047083697
 31
0.0
100
AcDbText
 73
2
  0
CIRCLE
  5
19C
330
17
100
AcDbEntity
  8
路灯
100
AcDbCircle
 10
570872.353445271
 20
785507.8695414423
 30
0.0
 40
1.0
  0
TEXT
  5
19D
330
17
100
AcDbEntity
  8
路灯
100
AcDbText
 10
570872.353445271
 20
785507.8695414423
 30
0.0
 40
0.2
  1
D2-120.000
 72
1
 11
570872.353445271
 21
785507.8695414423
 31
0.0
100
AcDbText
 73
2
  0
CIRCLE
  5
19E
330
17
100
AcDbEntity
  8
路灯
100
AcDbCircle
 10
570891.294169757
 20
785531.1342992518
 30
0.0
 40
1.0
  0
TEXT
  5
19F
330
17
100
AcDbEntity
  8
路灯
100
AcDbText
 10
570891.294169757
 20
785531.1342992518
 30
0.0
 40
0.2
  1
D2-150.000
 72
1
 11
570891.294169757
 21
785531.1342992518
 31
0.0
100
AcDbText
 73
2
  0
CIRCLE
  5
1A0
330
17
100
AcDbEntity
  8
路灯
100
AcDbCircle
 10
570910.2348329703
 20
785554.3989817987
 30
0.0
 40
1.0
  0
TEXT
  5
1A1
330
17
100
AcDbEntity
  8
路灯
100
AcDbText
 10
570910.2348329703
 20
785554.3989817987
 30
0.0
 40
0.2
  1
D2-180.000
 72
1
 11
570910.2348329703
 21
785554.3989817987
 31
0.0
100
AcDbText
 73
2
  0
CIRCLE
  5
1A2
330
17
100
AcDbEntity
  8
路灯
100
AcDbCircle
 10
570929.1756187293
 20
785577.6638148711
 30
0.0
 40
1.0
  0
TEXT
  5
1A3
330
17
100
AcDbEntity
  8
路灯
100
AcDbText
 10
570929.1756187293
 20
785577.6638148711
 30
0.0
 40
0.2
  1
D2-210.000
 72
1
 11
570929.1756187293
 21
785577.6638148711
 31
0.0
100
AcDbText
 73
2
  0
CIRCLE
  5
1A4
330
17
100
AcDbEntity
  8
路灯
100
AcDbCircle
 10
570948.116393104
 20
785600.928633955
 30
0.0
 40
1.0
  0
TEXT
  5
1A5
330
17
100
AcDbEntity
  8
路灯
100
AcDbText
 10
570948.116393104
 20
785600.928633955
 30
0.0
 40
0.2
  1
D2-240.000
 72
1
 11
570948.116393104
 21
785600.928633955
 31
0.0
100
AcDbText
 73
2
  0
CIRCLE
  5
1A6
330
17
100
AcDbEntity
  8
路灯
100
AcDbCircle
 10
570967.1956554585
 20
785624.1431863039
 30
0.0
 40
1.0
  0
TEXT
  5
1A7
330
17
100
AcDbEntity
  8
路灯
100
AcDbText
 10
570967.1956554585
 20
785624.1431863039
 30
0.0
 40
0.2
  1
D2-270.000
 72
1
 11
570967.1956554585
 21
785624.1431863039
 31
0.0
100
AcDbText
 73
2
  0
CIRCLE
  5
1A8
330
17
100
AcDbEntity
  8
路灯
100
AcDbCircle
 10
570988.1971277869
 20
785645.9542747441
 30
0.0
 40
1.0
  0
TEXT
  5
1A9
330
17
100
AcDbEntity
  8
路灯
100
AcDbText
 10
570988.1971277869
 20
785645.9542747441
 30
0.0
 40
0.2
  1
D2-300.000
 72
1
 11
570988.1971277869
 21
785645.9542747441
 31
0.0
100
AcDbText
 73
2
  0
CIRCLE
  5
1AA
330
17
100
AcDbEntity
  8
路灯
100
AcDbCircle
 10
571013.3696554088
 20
785663.1388297115
 30
0.0
 40
1.0
  0
TEXT
  5
1AB
330
17
100
AcDbEntity
  8
路灯
100
AcDbText
 10
571013.3696554088
 20
785663.1388297115
 30
0.0
 40
0.2
  1
D2-330.000
 72
1
 11
571013.3696554088
 21
785663.1388297115
 31
0.0
100
AcDbText
 73
2
  0
CIRCLE
  5
1AC
330
17
100
AcDbEntity
  8
路灯
100
AcDbCircle
 10
571042.4667270276
 20
785672.3831384587
 30
0.0
 40
1.0
  0
TEXT
  5
1AD
330
17
100
AcDbEntity
  8
路灯
100
AcDbText
 10
571042.4667270276
 20
785672.3831384587
 30
0.0
 40
0.2
  1
D2-360.000
 72
1
 11
571042.4667270276
 21
785672.3831384587
 31
0.0
100
AcDbText
 73
2
  0
CIRCLE
  5
1AE
330
17
100
AcDbEntity
  8
路灯
100
AcDbCircle
 10
571072.9026503661
 20
785673.1727638845
 30
0.0
 40
1.0
  0
TEXT
  5
1AF
330
17
100
AcDbEntity
  8
路灯
100
AcDbText
 10
571072.9026503661
 20
785673.1727638845
 30
0.0
 40
0.2
  1
D2-390.000
 72
1
 11
571072.9026503661
 21
785673.1727638845
 31
0.0
100
AcDbText
 73
2
  0
CIRCLE
  5
1B0
330
17
100
AcDbEntity
  8
路灯
100
AcDbCircle
 10
571102.7803252062
 20
785668.5806464861
 30
0.0
 40
1.0
  0
TEXT
  5
1B1
330
17
100
AcDbEntity
  8
路灯
100
AcDbText
 10
571102.7803252062
 20
785668.5806464861
 30
0.0
 40
0.2
  1
D2-420.000
 72
1
 11
571102.7803252062
 21
785668.5806464861
 31
0.0
100
AcDbText
 73
2
  0
CIRCLE
  5
1B2
330
17
100
AcDbEntity
  8
路灯
100
AcDbCircle
 10
571132.1581989838
 20
785662.4017463516
 30
0.0
 40
1.0
  0
TEXT
  5
1B3
330
17
100
AcDbEntity
  8
路灯
100
AcDbText
 10
571132.1581989838
 20
785662.4017463516
 30
0.0
 40
0.2
  1
D2-450.000
 72
1
 11
571132.1581989838
 21
785662.4017463516
 31
0.0
100
AcDbText
 73
2
  0
CIRCLE
  5
1B4
330
17
100
AcDbEntity
  8
路灯
100
AcDbCircle
 10
571161.5081374703
 20
785656.1905020192
 30
0.0
 40
1.0
  0
TEXT
  5
1B5
330
17
100
AcDbEntity
  8
路灯
100
AcDbText
 10
571161.5081374703
 20
785656.1905020192
 30
0.0
 40
0.2
  1
D2-480.000
 72
1
 11
571161.5081374703
 21
785656.1905020192
 31
0.0
100
AcDbText
 73
2
  0
CIRCLE
  5
1B6
330
17
100
AcDbEntity
  8
路灯
100
AcDbCircle
 10
571190.8581266566
 20
785649.9792469573
 30
0.0
 40
1.0
  0
TEXT
  5
1B7
330
17
100
AcDbEntity
  8
路灯
100
AcDbText
 10
571190.8581266566
 20
785649.9792469573
 30
0.0
 40
0.2
  1
D2-510.000
 72
1
 11
571190.8581266566
 21
785649.9792469573
 31
0.0
100
AcDbText
 73
2
  0
CIRCLE
  5
1B8
330
17
100
AcDbEntity
  8
路灯
100
AcDbCircle
 10
571220.2080651432
 20
785643.768002625
 30
0.0
 40
1.0
  0
TEXT
  5
1B9
330
17
100
AcDbEntity
  8
路灯
100
AcDbText
 10
571220.2080651432
 20
785643.768002625
 30
0.0
 40
0.2
  1
D2-540.000
 72
1
 11
571220.2080651432
 21
785643.768002625
 31
0.0
100
AcDbText
 73
2
  0
CIRCLE
  5
1BA
330
17
100
AcDbEntity
  8
路灯
100
AcDbCircle
 10
571249.5580289797
 20
785637.5567529278
 30
0.0
 40
1.0
  0
TEXT
  5
1BB
330
17
100
AcDbEntity
  8
路灯
100
AcDbText
 10
571249.5580289797
 20
785637.5567529278
 30
0.0
 40
0.2
  1
D2-570.000
 72
1
 11
571249.5580289797
 21
785637.5567529278
 31
0.0
100
AcDbText
 73
2
  0
CIRCLE
  5
1BC
330
17
100
AcDbEntity
  8
路灯
100
AcDbCircle
 10
571210.141628341
 20
785928.0784028482
 30
0.0
 40
1.0
  0
TEXT
  5
1BD
330
17
100
AcDbEntity
  8
路灯
100
AcDbText
 10
571210.141628341
 20
785928.0784028482
 30
0.0
 40
0.2
  1
D3-0.000
 72
1
 11
571210.141628341
 21
785928.0784028482
 31
0.0
100
AcDbText
 73
2
  0
CIRCLE
  5
1BE
330
17
100
AcDbEntity
  8
路灯
100
AcDbCircle
 10
571191.2008539706
 20
785904.8135837629
 30
0.0
 40
1.0
  0
TEXT
  5
1BF
330
17
100
AcDbEntity
  8
路灯
100
AcDbText
 10
571191.2008539706
 20
785904.8135837629
 30
0.0
 40
0.2
  1
D3-30.000
 72
1
 11
571191.2008539706
 21
785904.8135837629
 31
0.0
100
AcDbText
 73
2
  0
CIRCLE
  5
1C0
330
17
100
AcDbEntity
  8
路灯
100
AcDbCircle
 10
571172.260129485
 20
785881.5488259527
 30
0.0
 40
1.0
  0
TEXT
  5
1C1
330
17
100
AcDbEntity
  8
路灯
100
AcDbText
 10
571172.260129485
 20
785881.5488259527
 30
0.0
 40
0.2
  1
D3-60.000
 72
1
 11
571172.260129485
 21
785881.5488259527
 31
0.0
100
AcDbText
 73
2
  0
CIRCLE
  5
1C2
330
17
100
AcDbEntity
  8
路灯
100
AcDbCircle
 10
571153.3194049995
 20
785858.2840681426
 30
0.0
 40
1.0
  0
TEXT
  5
1C3
330
17
100
AcDbEntity
  8
路灯
100
AcDbText
 10
571153.3194049995
 20
785858.2840681426
 30
0.0
 40
0.2
  1
D3-90.000
 72
1
 11
571153.3194049995
 21
785858.2840681426
 31
0.0
100
AcDbText
 73
2
  0
CIRCLE
  5
1C4
330
17
100
AcDbEntity
  8
路灯
100
AcDbCircle
 10
571134.3786805139
 20
785835.0193103325
 30
0.0
 40
1.0
  0
TEXT
  5
1C5
330
17
100
AcDbEntity
  8
路灯
100
AcDbText
 10
571134.3786805139
 20
785835.0193103325
 30
0.0
 40
0.2
  1
D3-120.000
 72
1
 11
571134.3786805139
 21
785835.0193103325
 31
0.0
100
AcDbText
 73
2
  0
CIRCLE
  5
1C6
330
17
100
AcDbEntity
  8
路灯
100
AcDbCircle
 10
571115.4380671899
 20
785811.7546890595
 30
0.0
 40
1.0
  0
TEXT
  5
1C7
330
17
100
AcDbEntity
  8
路灯
100
AcDbText
 10
571115.4380671899
 20
785811.7546890595
 30
0.0
 40
0.2
  1
D3-150.000
 72
1
 11
571115.4380671899
 21
785811.7546890595
 31
0.0
100
AcDbText
 73
2
  0
CIRCLE
  5
1C8
330
17
100
AcDbEntity
  8
路灯
100
AcDbCircle
 10
571096.4969599858
 20
785788.4833655865
 30
0.0
 40
1.0
  0
TEXT
  5
1C9
330
17
100
AcDbEntity
  8
路灯
100
AcDbText
 10
571096.4969599858
 20
785788.4833655865
 30
0.0
 40
0.2
  1
D3-180.000
 72
1
 11
571096.4969599858
 21
785788.4833655865
 31
0.0
100
AcDbText
 73
2
  0
CIRCLE
  5
1CA
330
17
100
AcDbEntity
  8
路灯
100
AcDbCircle
 10
571078.6173111206
 20
785764.0737552296
 30
0.0
 40
1.0
  0
TEXT
  5
1CB
330
17
100
AcDbEntity
  8
路灯
100
AcDbText
 10
571078.6173111206
 20
785764.0737552296
 30
0.0
 40
0.2
  1
D3-210.000
 72
1
 11
571078.6173111206
 21
785764.0737552296
 31
0.0
100
AcDbText
 73
2
  0
CIRCLE
  5
1CC
330
17
100
AcDbEntity
  8
路灯
100
AcDbCircle
 10
571066.6270239238
 20
785735.9571996192
 30
0.0
 40
1.0
  0
TEXT
  5
1CD
330
17
100
AcDbEntity
  8
路灯
100
AcDbText
 10
571066.6270239238
 20
785735.9571996192
 30
0.0
 40
0.2
  1
D3-240.000
 72
1
 11
571066.6270239238
 21
785735.9571996192
 31
0.0
100
AcDbText
 73
2
  0
CIRCLE
  5
1CE
330
17
100
AcDbEntity
  8
路灯
100
AcDbCircle
 10
571066.3573504703
 20
785705.2731028261
 30
0.0
 40
1.0
  0
TEXT
  5
1CF
330
17
100
AcDbEntity
  8
路灯
100
AcDbText
 10
571066.3573504703
 20
785705.2731028261
 30
0.0
 40
0.2
  1
D3-270.000
 72
1
 11
571066.3573504703
 21
785705.2731028261
 31
0.0
100
AcDbText
 73
2
  0
CIRCLE
  5
1D0
330
17
100
AcDbEntity
  8
路灯
100
AcDbCircle
 10
571078.8635650356
 20
785677.2518914067
 30
0.0
 40
1.0
  0
TEXT
  5
1D1
330
17
100
AcDbEntity
  8
路灯
100
AcDbText
 10
571078.8635650356
 20
785677.2518914067
 30
0.0
 40
0.2
  1
D3-300.000
 72
1
 11
571078.8635650356
 21
785677.2518914067
 31
0.0
100
AcDbText
 73
2
  0
CIRCLE
  5
1D2
330
17
100
AcDbEntity
  8
路灯
100
AcDbCircle
 10
571101.8522613088
 20
785656.9482193721
 30
0.0
 40
1.0
  0
TEXT
  5
1D3
330
17
100
AcDbEntity
  8
路灯
100
AcDbText
 10
571101.8522613088
 20
785656.9482193721
 30
0.0
 40
0.2
  1
D3-330.000
 72
1
 11
571101.8522613088
 21
785656.9482193721
 31
0.0
100
AcDbText
 73
2
  0
CIRCLE
  5
1D4
330
17
100
AcDbEntity
  8
路灯
100
AcDbCircle
 10
571220.6495374641
 20
785919.5235009865
 30
0.0
 40
1.0
  0
TEXT
  5
1D5
330
17
100
AcDbEntity
  8
路灯
100
AcDbText
 10
571220.6495374641
 20
785919.5235009865
 30
0.0
 40
0.2
  1
D4-0.000
 72
1
 11
571220.6495374641
 21
785919.5235009865
 31
0.0
100
AcDbText
 73
2
  0
CIRCLE
  5
1D6
330
17
100
AcDbEntity
  8
路灯
100
AcDbCircle
 10
571201.7088628635
 20
785896.2588044518
 30
0.0
 40
1.0
  0
TEXT
  5
1D7
330
17
100
AcDbEntity
  8
路灯
100
AcDbText
 10
571201.7088628635
 20
785896.2588044518
 30
0.0
 40
0.2
  1
D4-30.000
 72
1
 11
571201.7088628635
 21
785896.2588044518
 31
0.0
100
AcDbText
 73
2
  0
CIRCLE
  5
1D8
330
17
100
AcDbEntity
  8
路灯
100
AcDbCircle
 10
571182.7681383779
 20
785872.9940466416
 30
0.0
 40
1.0
  0
TEXT
  5
1D9
330
17
100
AcDbEntity
  8
路灯
100
AcDbText
 10
571182.7681383779
 20
785872.9940466416
 30
0.0
 40
0.2
  1
D4-60.000
 72
1
 11
571182.7681383779
 21
785872.9940466416
 31
0.0
100
AcDbText
 73
2
  0
CIRCLE
  5
1DA
330
17
100
AcDbEntity
  8
路灯
100
AcDbCircle
 10
571163.8274138924
 20
785849.7292888316
 30
0.0
 40
1.0
  0
TEXT
  5
1DB
330
17
100
AcDbEntity
  8
路灯
100
AcDbText
 10
571163.8274138924
 20
785849.7292888316
 30
0.0
 40
0.2
  1
D4-90.000
 72
1
 11
571163.8274138924
 21
785849.7292888316
 31
0.0
100
AcDbText
 73
2
  0
CIRCLE
  5
1DC
330
17
100
AcDbEntity
  8
路灯
100
AcDbCircle
 10
571144.8866894068
 20
785826.4645310214
 30
0.0
 40
1.0
  0
TEXT
  5
1DD
330
17
100
AcDbEntity
  8
路灯
100
AcDbText
 10
571144.8866894068
 20
785826.4645310214
 30
0.0
 40
0.2
  1
D4-120.000
 72
1
 11
571144.8866894068
 21
785826.4645310214
 31
0.0
100
AcDbText
 73
2
  0
CIRCLE
  5
1DE
330
17
100
AcDbEntity
  8
路灯
100
AcDbCircle
 10
571125.9459150364
 20
785803.1997119361
 30
0.0
 40
1.0
  0
TEXT
  5
1DF
330
17
100
AcDbEntity
  8
路灯
100
AcDbText
 10
571125.9459150364
 20
785803.1997119361
 30
0.0
 40
0.2
  1
D4-150.000
 72
1
 11
571125.9459150364
 21
785803.1997119361
 31
0.0
100
AcDbText
 73
2
  0
CIRCLE
  5
1E0
330
17
100
AcDbEntity
  8
路灯
100
AcDbCircle
 10
571107.7446382714
 20
785779.6146596129
 30
0.0
 40
1.0
  0
TEXT
  5
1E1
330
17
100
AcDbEntity
  8
路灯
100
AcDbText
 10
571107.7446382714
 20
785779.6146596129
 30
0.0
 40
0.2
  1
D4-180.000
 72
1
 11
571107.7446382714
 21
785779.6146596129
 31
0.0
100
AcDbText
 73
2
  0
CIRCLE
  5
1E2
330
17
100
AcDbEntity
  8
路灯
100
AcDbCircle
 10
571095.2458598374
 20
785753.3024852992
 30
0.0
 40
1.0
  0
TEXT
  5
1E3
330
17
100
AcDbEntity
  8
路灯
100
AcDbText
 10
571095.2458598374
 20
785753.3024852992
 30
0.0
 40
0.2
  1
D4-210.000
 72
1
 11
571095.2458598374
 21
785753.3024852992
 31
0.0
100
AcDbText
 73
2
  0
CIRCLE
  5
1E4
330
17
100
AcDbEntity
  8
路灯
100
AcDbCircle
 10
571095.1022187644
 20
785724.6720239865
 30
0.0
 40
1.0
  0
TEXT
  5
1E5
330
17
100
AcDbEntity
  8
路灯
100
AcDbText
 10
571095.1022187644
 20
785724.6720239865
 30
0.0
 40
0.2
  1
D4-240.000
 72
1
 11
571095.1022187644
 21
785724.6720239865
 31
0.0
100
AcDbText
 73
2
  0
CIRCLE
  5
1E6
330
17
100
AcDbEntity
  8
路灯
100
AcDbCircle
 10
571108.6974126913
 20
785699.4819502338
 30
0.0
 40
1.0
  0
TEXT
  5
1E7
330
17
100
AcDbEntity
  8
路灯
100
AcDbText
 10
571108.6974126913
 20
785699.4819502338
 30
0.0
 40
0.2
  1
D4-270.000
 72
1
 11
571108.6974126913
 21
785699.4819502338
 31
0.0
100
AcDbText
 73
2
  0
CIRCLE
  5
1E8
330
17
100
AcDbEntity
  8
路灯
100
AcDbCircle
 10
571132.5049677762
 20
785683.0237697242
 30
0.0
 40
1.0
  0
TEXT
  5
1E9
330
17
100
AcDbEntity
  8
路灯
100
AcDbText
 10
571132.5049677762
 20
785683.0237697242
 30
0.0
 40
0.2
  1
D4-300.000
 72
1
 11
571132.5049677762
 21
785683.0237697242
 31
0.0
100
AcDbText
 73
2
  0
CIRCLE
  5
1EA
330
17
100
AcDbEntity
  8
路灯
100
AcDbCircle
 10
571160.5639253284
 20
785673.461064939
 30
0.0
 40
1.0
  0
TEXT
  5
1EB
330
17
100
AcDbEntity
  8
路灯
100
AcDbText
 10
571160.5639253284
 20
785673.461064939
 30
0.0
 40
0.2
  1
D4-330.000
 72
1
 11
571160.5639253284
 21
785673.461064939
 31
0.0
100
AcDbText
 73
2
  0
CIRCLE
  5
1EC
330
17
100
AcDbEntity
  8
路灯
100
AcDbCircle
 10
571189.4563455656
 20
785665.396182998
 30
0.0
 40
1.0
  0
TEXT
  5
1ED
330
17
100
AcDbEntity
  8
路灯
100
AcDbText
 10
571189.4563455656
 20
785665.396182998
 30
0.0
 40
0.2
  1
D4-360.000
 72
1
 11
571189.4563455656
 21
785665.396182998
 31
0.0
100
AcDbText
 73
2
  0
CIRCLE
  5
1EE
330
17
100
AcDbEntity
  8
路灯
100
AcDbCircle
 10
571218.3521317013
 20
785657.331970377
 30
0.0
 40
1.0
  0
TEXT
  5
1EF
330
17
100
AcDbEntity
  8
路灯
100
AcDbText
 10
571218.3521317013
 20
785657.331970377
 30
0.0
 40
0.2
  1
D4-390.000
 72
1
 11
571218.3521317013
 21
785657.331970377
 31
0.0
100
AcDbText
 73
2
  0
CIRCLE
  5
1F0
330
17
100
AcDbEntity
  8
路灯
100
AcDbCircle
 10
571247.247950239
 20
785649.2677487135
 30
0.0
 40
1.0
  0
TEXT
  5
1F1
330
17
100
AcDbEntity
  8
路灯
100
AcDbText
 10
571247.247950239
 20
785649.2677487135
 30
0.0
 40
0.2
  1
D4-420.000
 72
1
 11
571247.247950239
 21
785649.2677487135
 31
0.0
100
AcDbText
 73
2
  0
CIRCLE
  5
1F2
330
17
100
AcDbEntity
  8
路灯
100
AcDbCircle
 10
571276.1437687767
 20
785641.20352705
 30
0.0
 40
1.0
  0
TEXT
  5
1F3
330
17
100
AcDbEntity
  8
路灯
100
AcDbText
 10
571276.1437687767
 20
785641.20352705
 30
0.0
 40
0.2
  1
D4-450.000
 72
1
 11
571276.1437687767
 21
785641.20352705
 31
0.0
100
AcDbText
 73
2
  0
ENDSEC
  0
SECTION
  2
OBJECTS
  0
DICTIONARY
  5
A
330
0
100
AcDbDictionary
280
0
281
1
  3
ACAD_COLOR
350
B
  3
ACAD_GROUP
350
C
  3
ACAD_LAYOUT
350
D
  3
ACAD_MATERIAL
350
E
  3
ACAD_MLEADERSTYLE
350
F
  3
ACAD_MLINESTYLE
350
10
  3
ACAD_PLOTSETTINGS
350
11
  3
ACAD_PLOTSTYLENAME
350
12
  3
ACAD_SCALELIST
350
14
  3
ACAD_TABLESTYLE
350
15
  3
ACAD_VISUALSTYLE
350
16
  3
EZDXF_META
350
2D
  0
DICTIONARY
  5
B
330
A
100
AcDbDictionary
280
0
281
1
  0
DICTIONARY
  5
C
330
A
100
AcDbDictionary
280
0
281
1
  0
DICTIONARY
  5
D
330
A
100
AcDbDictionary
280
0
281
1
  3
Model
350
1A
  3
Layout1
350
1E
  0
DICTIONARY
  5
E
330
A
100
AcDbDictionary
280
0
281
1
  3
ByBlock
350
1F
  3
ByLayer
350
20
  3
Global
350
21
  0
DICTIONARY
  5
F
330
A
100
AcDbDictionary
280
0
281
1
  3
Standard
350
2C
  0
DICTIONARY
  5
10
330
A
100
AcDbDictionary
280
0
281
1
  3
Standard
350
22
  0
DICTIONARY
  5
11
330
A
100
AcDbDictionary
280
0
281
1
  0
ACDBDICTIONARYWDFLT
  5
12
330
A
100
AcDbDictionary
280
0
281
1
  3
Normal
350
13
100
AcDbDictionaryWithDefault
340
13
  0
ACDBPLACEHOLDER
  5
13
330
12
  0
DICTIONARY
  5
14
330
A
100
AcDbDictionary
280
0
281
1
  0
DICTIONARY
  5
15
330
A
100
AcDbDictionary
280
0
281
1
  0
DICTIONARY
  5
16
330
A
100
AcDbDictionary
280
0
281
1
  0
LAYOUT
  5
1A
330
D
100
AcDbPlotSettings
  1

  2
Adobe PDF
  4
A3
  6

 40
7.5
 41
20.0
 42
7.5
 43
20.0
 44
420.0
 45
297.0
 46
0.0
 47
0.0
 48
0.0
 49
0.0
140
0.0
141
0.0
142
1.0
143
1.0
 70
1024
 72
1
 73
0
 74
5
  7

 75
16
 76
0
 77
2
 78
300
147
1.0
148
0.0
149
0.0
100
AcDbLayout
  1
Model
 70
1
 71
0
 10
0.0
 20
0.0
 11
420.0
 21
297.0
 12
0.0
 22
0.0
 32
0.0
 14
1e+20
 24
1e+20
 34
1e+20
 15
-1e+20
 25
-1e+20
 35
-1e+20
146
0.0
 13
0.0
 23
0.0
 33
0.0
 16
1.0
 26
0.0
 36
0.0
 17
0.0
 27
1.0
 37
0.0
 76
1
330
17
  0
LAYOUT
  5
1E
330
D
100
AcDbPlotSettings
  1

  2
Adobe PDF
  4
A3
  6

 40
7.5
 41
20.0
 42
7.5
 43
20.0
 44
420.0
 45
297.0
 46
0.0
 47
0.0
 48
0.0
 49
0.0
140
0.0
141
0.0
142
1.0
143
1.0
 70
0
 72
1
 73
0
 74
5
  7

 75
16
 76
0
 77
2
 78
300
147
1.0
148
0.0
149
0.0
100
AcDbLayout
  1
Layout1
 70
1
 71
1
 10
0.0
 20
0.0
 11
420.0
 21
297.0
 12
0.0
 22
0.0
 32
0.0
 14
1e+20
 24
1e+20
 34
1e+20
 15
-1e+20
 25
-1e+20
 35
-1e+20
146
0.0
 13
0.0
 23
0.0
 33
0.0
 16
1.0
 26
0.0
 36
0.0
 17
0.0
 27
1.0
 37
0.0
 76
1
330
1B
  0
MATERIAL
  5
1F
102
{ACAD_REACTORS
330
E
102
}
330
E
100
AcDbMaterial
  1
ByBlock
  2

 70
0
 40
1.0
 71
1
 41
1.0
 91
-1023410177
 42
1.0
 72
1
  3

 73
1
 74
1
 75
1
 44
0.5
 73
0
 45
1.0
 46
1.0
 77
1
  4

 78
1
 79
1
170
1
 48
1.0
171
1
  6

172
1
173
1
174
1
140
1.0
141
1.0
175
1
  7

176
1
177
1
178
1
143
1.0
179
1
  8

270
1
271
1
272
1
145
1.0
146
1.0
273
1
  9

274
1
275
1
276
1
 42
1.0
 72
1
  3

 73
1
 74
1
 75
1
 94
63
  0
MATERIAL
  5
20
102
{ACAD_REACTORS
330
E
102
}
330
E
100
AcDbMaterial
  1
ByLayer
  2

 70
0
 40
1.0
 71
1
 41
1.0
 91
-1023410177
 42
1.0
 72
1
  3

 73
1
 74
1
 75
1
 44
0.5
 73
0
 45
1.0
 46
1.0
 77
1
  4

 78
1
 79
1
170
1
 48
1.0
171
1
  6

172
1
173
1
174
1
140
1.0
141
1.0
175
1
  7

176
1
177
1
178
1
143
1.0
179
1
  8

270
1
271
1
272
1
145
1.0
146
1.0
273
1
  9

274
1
275
1
276
1
 42
1.0
 72
1
  3

 73
1
 74
1
 75
1
 94
63
  0
MATERIAL
  5
21
102
{ACAD_REACTORS
330
E
102
}
330
E
100
AcDbMaterial
  1
Global
  2

 70
0
 40
1.0
 71
1
 41
1.0
 91
-1023410177
 42
1.0
 72
1
  3

 73
1
 74
1
 75
1
 44
0.5
 73
0
 45
1.0
 46
1.0
 77
1
  4

 78
1
 79
1
170
1
 48
1.0
171
1
  6

172
1
173
1
174
1
140
1.0
141
1.0
175
1
  7

176
1
177
1
178
1
143
1.0
179
1
  8

270
1
271
1
272
1
145
1.0
146
1.0
273
1
  9

274
1
275
1
276
1
 42
1.0
 72
1
  3

 73
1
 74
1
 75
1
 94
63
  0
MLINESTYLE
  5
22
102
{ACAD_REACTORS
330
10
102
}
330
10
100
AcDbMlineStyle
  2
Standard
 70
0
  3

 62
256
 51
90.0
 52
90.0
 71
2
 49
0.5
 62
256
  6
BYLAYER
 49
-0.5
 62
256
  6
BYLAYER
  0
MLEADERSTYLE
  5
2C
102
{ACAD_REACTORS
330
F
102
}
330
F
100
AcDbMLeaderStyle
179
2
170
2
171
1
172
0
 90
2
 40
0.0
 41
0.0
173
1
 91
-1056964608
 92
-2
290
1
 42
2.0
291
1
 43
8.0
  3
Standard
 44
4.0
300

342
29
174
1
175
1
176
0
178
1
 93
-1056964608
 45
4.0
292
0
297
0
 46
4.0
 94
-1056964608
 47
1.0
 49
1.0
140
1.0
294
1
141
0.0
177
0
142
1.0
295
0
296
0
143
3.75
271
0
272
9
273
9
  0
DICTIONARY
  5
2D
330
A
100
AcDbDictionary
281
1
  3
CREATED_BY_EZDXF
350
2E
  3
WRITTEN_BY_EZDXF
350
1F6
  0
DICTIONARYVAR
  5
2E
330
2D
100
DictionaryVariables
280
0
  1
1.1.4 @ 2024-09-26T05:34:31.605854+00:00
  0
DICTIONARYVAR
  5
1F6
330
2D
100
DictionaryVariables
280
0
  1
1.1.4 @ 2024-09-26T05:34:31.614853+00:00
  0
ENDSEC
  0
EOF
