  0
SECTION
  2
HEADER
  9
$ACADVER
  1
AC1009
  9
$INSBASE
 10
0.0
 20
0.0
 30
0.0
  9
$EXTMIN
 10
570799.1496560537489131
 20
785057.1634399299509823
 30
0.0
  9
$EXTMAX
 10
573608.2212671111337841
 20
785925.9949191701598465
 30
0.0
  9
$LIMMIN
 10
0.0
 20
0.0
  9
$LIMMAX
 10
420.0
 20
297.0
  9
$ORTHOMODE
 70
     0
  9
$REGENMODE
 70
     1
  9
$FILLMODE
 70
     1
  9
$QTEXTMODE
 70
     0
  9
$MIRRTEXT
 70
     0
  9
$DRAGMODE
 70
     2
  9
$LTSCALE
 40
1.0
  9
$OSMODE
 70
  2095
  9
$ATTMODE
 70
     1
  9
$TEXTSIZE
 40
2.5
  9
$TRACEWID
 40
1.0
  9
$TEXTSTYLE
  7
STANDARD
  9
$CLAYER
  8
‘§÷∆¡∫AA
  9
$CELTYPE
  6
BYLAYER
  9
$CECOLOR
 62
   256
  9
$DIMSCALE
 40
0.0
  9
$DIMASZ
 40
2.5
  9
$DIMEXO
 40
0.625
  9
$DIMDLI
 40
3.75
  9
$DIMRND
 40
0.0
  9
$DIMDLE
 40
0.0
  9
$DIMEXE
 40
1.25
  9
$DIMTP
 40
0.0
  9
$DIMTM
 40
0.0
  9
$DIMTXT
 40
2.5
  9
$DIMCEN
 40
2.5
  9
$DIMTSZ
 40
0.0
  9
$DIMTOL
 70
     0
  9
$DIMLIM
 70
     0
  9
$DIMTIH
 70
     0
  9
$DIMTOH
 70
     0
  9
$DIMSE1
 70
     0
  9
$DIMSE2
 70
     0
  9
$DIMTAD
 70
     1
  9
$DIMZIN
 70
     8
  9
$DIMBLK
  1

  9
$DIMASO
 70
     1
  9
$DIMSHO
 70
     1
  9
$DIMPOST
  1

  9
$DIMAPOST
  1

  9
$DIMALT
 70
     0
  9
$DIMALTD
 70
     3
  9
$DIMALTF
 40
0.03937007874016
  9
$DIMLFAC
 40
1000.0
  9
$DIMTOFL
 70
     1
  9
$DIMTVP
 40
0.0
  9
$DIMTIX
 70
     0
  9
$DIMSOXD
 70
     0
  9
$DIMSAH
 70
     0
  9
$DIMBLK1
  1

  9
$DIMBLK2
  1

  9
$DIMSTYLE
  2
ANNOTATIVE
  9
$DIMCLRD
 70
     0
  9
$DIMCLRE
 70
     0
  9
$DIMCLRT
 70
     0
  9
$DIMTFAC
 40
1.0
  9
$DIMGAP
 40
0.625
  9
$LUNITS
 70
     2
  9
$LUPREC
 70
     7
  9
$SKETCHINC
 40
1.0
  9
$FILLETRAD
 40
0.0
  9
$AUNITS
 70
     0
  9
$AUPREC
 70
     6
  9
$MENU
  1
.
  9
$ELEVATION
 40
0.0
  9
$PELEVATION
 40
0.0
  9
$THICKNESS
 40
0.0
  9
$LIMCHECK
 70
     0
  9
$BLIPMODE
 70
     0
  9
$CHAMFERA
 40
0.0
  9
$CHAMFERB
 40
0.0
  9
$SKPOLY
 70
     0
  9
$TDCREATE
 40
2460188.4745601848699152
  9
$TDUPDATE
 40
2460192.4241319438442588
  9
$TDINDWG
 40
1.356099537
  9
$TDUSRTIMER
 40
1.356099537
  9
$USRTIMER
 70
     1
  9
$ANGBASE
 50
0.0
  9
$ANGDIR
 70
     0
  9
$PDMODE
 70
    35
  9
$PDSIZE
 40
0.0
  9
$PLINEWID
 40
0.0
  9
$COORDS
 70
     1
  9
$SPLFRAME
 70
     0
  9
$SPLINETYPE
 70
     6
  9
$SPLINESEGS
 70
     8
  9
$ATTDIA
 70
     1
  9
$ATTREQ
 70
     1
  9
$HANDLING
 70
     1
  9
$HANDSEED
  5
143
  9
$SURFTAB1
 70
     6
  9
$SURFTAB2
 70
     6
  9
$SURFTYPE
 70
     6
  9
$SURFU
 70
     6
  9
$SURFV
 70
     6
  9
$UCSNAME
  2

  9
$UCSORG
 10
0.0
 20
0.0
 30
0.0
  9
$UCSXDIR
 10
1.0
 20
0.0
 30
0.0
  9
$UCSYDIR
 10
0.0
 20
1.0
 30
0.0
  9
$PUCSNAME
  2

  9
$PUCSORG
 10
0.0
 20
0.0
 30
0.0
  9
$PUCSXDIR
 10
1.0
 20
0.0
 30
0.0
  9
$PUCSYDIR
 10
0.0
 20
1.0
 30
0.0
  9
$USERI1
 70
     0
  9
$USERI2
 70
     0
  9
$USERI3
 70
     0
  9
$USERI4
 70
     0
  9
$USERI5
 70
     0
  9
$USERR1
 40
0.0
  9
$USERR2
 40
0.0
  9
$USERR3
 40
0.0
  9
$USERR4
 40
0.0
  9
$USERR5
 40
0.0
  9
$WORLDVIEW
 70
     1
  9
$SHADEDGE
 70
     3
  9
$SHADEDIF
 70
    70
  9
$TILEMODE
 70
     1
  9
$MAXACTVP
 70
    64
  9
$PLIMCHECK
 70
     0
  9
$PEXTMIN
 10
0.0
 20
0.0
 30
0.0
  9
$PEXTMAX
 10
0.0
 20
0.0
 30
0.0
  9
$PLIMMIN
 10
0.0
 20
0.0
  9
$PLIMMAX
 10
12.0
 20
9.0
  9
$UNITMODE
 70
     0
  9
$VISRETAIN
 70
     1
  9
$PLINEGEN
 70
     0
  9
$PSLTSCALE
 70
     1
  0
ENDSEC
  0
SECTION
  2
TABLES
  0
TABLE
  2
VPORT
 70
     1
  0
VPORT
  2
*ACTIVE
 70
     0
 10
0.0
 20
0.0
 11
1.0
 21
1.0
 12
-1071.1011527690191087
 22
-971.9002571739127916
 13
0.0
 23
0.0
 14
10.0
 24
10.0
 15
10.0
 25
10.0
 16
0.0
 26
0.0
 36
8878.6819095382998057
 17
572205.556304931640625
 27
785403.2307128907414153
 37
0.0
 40
8893.0510507050221349
 41
2.3422025129342199
 42
50.0
 43
0.0
 44
0.0
 50
0.0
 51
0.0
 71
     0
 72
  1000
 73
     1
 74
     3
 75
     0
 76
     0
 77
     0
 78
     0
  0
ENDTAB
  0
TABLE
  2
LTYPE
 70
     2
  0
LTYPE
  2
CONTINUOUS
 70
     0
  3
Solid line
 72
    65
 73
     0
 40
0.0
  0
LTYPE
  2
DASHED
 70
     0
  3
Dashed __ __ __ __ __ __ __ __ __ __ __ __ __ _
 72
    65
 73
     2
 40
0.75
 49
0.5
 49
-0.25
  0
ENDTAB
  0
TABLE
  2
LAYER
 70
     5
  0
LAYER
  2
0
 70
     0
 62
    -7
  6
CONTINUOUS
  0
LAYER
  2
‘§÷∆¡∫MM
 70
     0
 62
     3
  6
DASHED
  0
LAYER
  2
‘§÷∆¡∫SS
 70
     0
 62
    94
  6
DASHED
  0
LAYER
  2
‘§÷∆¡∫DE
 70
     0
 62
   160
  6
DASHED
  0
LAYER
  2
‘§÷∆¡∫AA
 70
     0
 62
    22
  6
DASHED
  0
ENDTAB
  0
TABLE
  2
STYLE
 70
     1
  0
STYLE
  2
STANDARD
 70
     0
 40
0.0
 41
1.0
 50
0.0
 71
     0
 42
2.5
  3
txt
  4

  0
ENDTAB
  0
TABLE
  2
VIEW
 70
     0
  0
ENDTAB
  0
TABLE
  2
UCS
 70
     0
  0
ENDTAB
  0
TABLE
  2
APPID
 70
    10
  0
APPID
  2
ACAD
 70
     0
  0
APPID
  2
ACAD_PSEXT
 70
     0
  0
APPID
  2
ACADANNOTATIVE
 70
     0
  0
APPID
  2
ACAD_DSTYLE_DIMJAG
 70
     0
  0
APPID
  2
ACAD_DSTYLE_DIMTALN
 70
     0
  0
APPID
  2
ACAD_NAV_VCDISPLAY
 70
     0
  0
APPID
  2
ACAECLAYERSTANDARD
 70
     0
  0
APPID
  2
ACCMTRANSPARENCY
 70
     0
  0
APPID
  2
EICADPM
 70
     0
  0
APPID
  2
EICADREL
 70
     0
  0
ENDTAB
  0
TABLE
  2
DIMSTYLE
 70
     1
  0
DIMSTYLE
  2
ANNOTATIVE
 70
     0
  3

  4

  5

  6

  7

 40
0.0
 41
2.5
 42
0.625
 43
3.75
 44
1.25
 45
0.0
 46
0.0
 47
0.0
 48
0.0
140
2.5
141
2.5
142
0.0
143
0.03937007874016
144
1000.0
145
0.0
146
1.0
147
0.625
 71
     0
 72
     0
 73
     0
 74
     0
 75
     0
 76
     0
 77
     1
 78
     8
170
     0
171
     3
172
     1
173
     0
174
     0
175
     0
176
     0
177
     0
178
     0
  0
ENDTAB
  0
ENDSEC
  0
SECTION
  2
BLOCKS
  0
BLOCK
  8
0
  2
$MODEL_SPACE
 70
     0
 10
0.0
 20
0.0
 30
0.0
  3
$MODEL_SPACE
  1

  0
ENDBLK
  5
15
  8
0
  0
BLOCK
 67
     1
  8
0
  2
$PAPER_SPACE
 70
     0
 10
0.0
 20
0.0
 30
0.0
  3
$PAPER_SPACE
  1

  0
ENDBLK
  5
1D
 67
     1
  8
0
  0
ENDSEC
  0
SECTION
  2
ENTITIES
  0
LINE
  5
69
  8
‘§÷∆¡∫AA
 10
573529.5296584870666265
 20
785074.3032650250243023
 30
0.0
 11
573563.8953636428341269
 21
785069.7199028128525242
 31
0.0
  0
LINE
  5
6A
  8
‘§÷∆¡∫AA
 10
573529.1132295581046492
 20
785071.1809122348204255
 30
0.0
 11
573563.4789347137557343
 21
785066.5975500226486474
 31
0.0
  0
LINE
  5
6B
  8
‘§÷∆¡∫AA
 10
573528.6968006291426718
 20
785068.0585594442673028
 30
0.0
 11
573563.0625057847937569
 21
785063.47519723221194
 31
0.0
  0
LINE
  5
6C
  8
‘§÷∆¡∫AA
 10
573528.2803717001806945
 20
785064.9362066539470106
 30
0.0
 11
573562.6460768559481949
 21
785060.3528444420080632
 31
0.0
  0
LINE
  5
6D
  8
‘§÷∆¡∫AA
 10
573529.9460874160286039
 20
785077.4256178153445944
 30
0.0
 11
573564.311792571679689
 21
785072.8422556031728163
 31
0.0
  0
LINE
  5
6E
  8
‘§÷∆¡∫AA
 10
573530.362516344874166
 20
785080.5479706056648865
 30
0.0
 11
573564.7282215007580817
 21
785075.9646083934931085
 31
0.0
  0
LINE
  5
6F
  8
‘§÷∆¡∫AA
 10
573530.7789452739525586
 20
785083.6703233959851786
 30
0.0
 11
573565.1446504296036437
 21
785079.0869611839298159
 31
0.0
  0
LINE
  5
70
  8
‘§÷∆¡∫MM
 10
573484.9246186256641522
 20
785080.2522497250465676
 30
0.0
 11
573529.0340469331713393
 21
785074.3693648549960926
 31
0.0
  0
LINE
  5
72
  8
‘§÷∆¡∫MM
 10
573484.5081896967021748
 20
785077.1298969346098602
 30
0.0
 11
573528.6176180043257773
 21
785071.2470120645593852
 31
0.0
  0
LINE
  5
73
  8
‘§÷∆¡∫MM
 10
573484.0917607678566128
 20
785074.0075441442895681
 30
0.0
 11
573528.2011890752473846
 21
785068.1246592743555084
 31
0.0
  0
LINE
  5
74
  8
‘§÷∆¡∫MM
 10
573483.6753318387782201
 20
785070.8851913538528606
 30
0.0
 11
573527.7847601462854072
 21
785065.0023064841516316
 31
0.0
  0
LINE
  5
75
  8
‘§÷∆¡∫MM
 10
573485.3410475547425449
 20
785083.3746025152504444
 30
0.0
 11
573529.450475862249732
 21
785077.4917176453163847
 31
0.0
  0
LINE
  5
76
  8
‘§÷∆¡∫MM
 10
573485.7574764835881069
 20
785086.4969553056871518
 30
0.0
 11
573529.8669047910952941
 21
785080.6140704357530922
 31
0.0
  0
LINE
  5
77
  8
‘§÷∆¡∫MM
 10
573486.1739054125500843
 20
785089.6193080958910286
 30
0.0
 11
573530.2833337200572714
 21
785083.736423225956969
 31
0.0
  0
LINE
  5
78
  8
‘§÷∆¡∫MM
 10
573440.3195787642616779
 20
785086.2012344248360023
 30
0.0
 11
573484.429007071768865
 21
785080.3183495549019426
 31
0.0
  0
LINE
  5
79
  8
‘§÷∆¡∫MM
 10
573439.9031498352997005
 20
785083.0788816345157102
 30
0.0
 11
573484.0125781428068876
 21
785077.1959967645816505
 31
0.0
  0
LINE
  5
7A
  8
‘§÷∆¡∫MM
 10
573439.4867209063377231
 20
785079.9565288441954181
 30
0.0
 11
573483.5961492138449103
 21
785074.0736439742613584
 31
0.0
  0
LINE
  5
7B
  8
‘§÷∆¡∫MM
 10
573439.0702919773757458
 20
785076.8341760538751259
 30
0.0
 11
573483.1797202848829329
 21
785070.9512911840574816
 31
0.0
  0
LINE
  5
7C
  8
‘§÷∆¡∫MM
 10
573440.7360076932236552
 20
785089.3235872152727097
 30
0.0
 11
573484.8454360007308424
 21
785083.44070234533865
 31
0.0
  0
LINE
  5
7D
  8
‘§÷∆¡∫MM
 10
573441.1524366223020479
 20
785092.4459400053601712
 30
0.0
 11
573485.261864929809235
 21
785086.5630551355425268
 31
0.0
  0
LINE
  5
7E
  8
‘§÷∆¡∫MM
 10
573441.5688655511476099
 20
785095.568292795913294
 30
0.0
 11
573485.6782938586547971
 21
785089.685407925862819
 31
0.0
  0
LINE
  5
7F
  8
‘§÷∆¡∫MM
 10
573395.7145389028592035
 20
785092.1502191247418523
 30
0.0
 11
573439.8239672103663906
 21
785086.2673342549242079
 31
0.0
  0
LINE
  5
80
  8
‘§÷∆¡∫MM
 10
573395.2981099738972262
 20
785089.0278663344215602
 30
0.0
 11
573439.4075382814044133
 21
785083.1449814644875005
 31
0.0
  0
LINE
  5
81
  8
‘§÷∆¡∫MM
 10
573394.8816810450516641
 20
785085.9055135441012681
 30
0.0
 11
573438.9911093524424359
 21
785080.0226286741672084
 31
0.0
  0
LINE
  5
82
  8
‘§÷∆¡∫MM
 10
573394.4652521158568561
 20
785082.7831607537809759
 30
0.0
 11
573438.5746804234804586
 21
785076.9002758838469163
 31
0.0
  0
LINE
  5
83
  8
‘§÷∆¡∫MM
 10
573396.1309678318211809
 20
785095.2725719149457291
 30
0.0
 11
573440.240396139328368
 21
785089.3896870451280847
 31
0.0
  0
LINE
  5
84
  8
‘§÷∆¡∫MM
 10
573396.5473967606667429
 20
785098.3949247054988518
 30
0.0
 11
573440.6568250682903454
 21
785092.5120398354483768
 31
0.0
  0
LINE
  5
85
  8
‘§÷∆¡∫MM
 10
573396.9638256897451356
 20
785101.5172774957027286
 30
0.0
 11
573441.0732539972523227
 21
785095.6343926257686689
 31
0.0
  0
LINE
  5
86
  8
‘§÷∆¡∫AA
 10
573350.9409911129623652
 20
785098.1216777670197189
 30
0.0
 11
573395.218927348847501
 21
785092.2163189547136426
 31
0.0
  0
LINE
  5
87
  8
‘§÷∆¡∫AA
 10
573351.3574200419243425
 20
785101.244030557340011
 30
0.0
 11
573395.6353562778094783
 21
785095.33867174515035
 31
0.0
  0
LINE
  5
88
  8
‘§÷∆¡∫AA
 10
573351.7738489708863199
 20
785104.3663833475438878
 30
0.0
 11
573396.0517852067714557
 21
785098.4610245353542268
 31
0.0
  0
LINE
  5
89
  8
‘§÷∆¡∫AA
 10
573352.1902778998482972
 20
785107.4887361378641799
 30
0.0
 11
573396.4682141357334331
 21
785101.5833773256745189
 31
0.0
  0
LINE
  5
8A
  8
‘§÷∆¡∫AA
 10
573350.5245621841168031
 20
785094.9993249765830114
 30
0.0
 11
573394.8024984198855236
 21
785089.0939661645097658
 31
0.0
  0
LINE
  5
8B
  8
‘§÷∆¡∫AA
 10
573350.1081332550384104
 20
785091.8769721863791347
 30
0.0
 11
573394.3860694910399616
 21
785085.971613373956643
 31
0.0
  0
LINE
  5
8C
  8
‘§÷∆¡∫AA
 10
573349.6917043260764331
 20
785088.7546193959424272
 30
0.0
 11
573393.9696405619615689
 21
785082.8492605837527663
 31
0.0
  0
LINE
  5
8D
  8
‘§÷∆¡∫DE
 10
573350.7823954159393907
 20
785098.1428297123638913
 30
0.0
 11
573306.5044591800542548
 21
785104.0481885238550603
 31
0.0
  0
LINE
  5
8F
  8
‘§÷∆¡∫DE
 10
573351.1988243447849527
 20
785101.2651825029170141
 30
0.0
 11
573306.9208881086669862
 21
785107.1705413141753525
 31
0.0
  0
LINE
  5
90
  8
‘§÷∆¡∫DE
 10
573351.6152532737469301
 20
785104.3875352932373062
 30
0.0
 11
573307.3373170377453789
 21
785110.2928941044956446
 31
0.0
  0
LINE
  5
91
  8
‘§÷∆¡∫DE
 10
573352.0316822028253227
 20
785107.5098880835575983
 30
0.0
 11
573307.7537459668237716
 21
785113.4152468948159367
 31
0.0
  0
LINE
  5
92
  8
‘§÷∆¡∫DE
 10
573350.3659664869774133
 20
785095.0204769222764298
 30
0.0
 11
573306.0880302509758621
 21
785100.9258357335347682
 31
0.0
  0
LINE
  5
93
  8
‘§÷∆¡∫DE
 10
573349.9495375578990206
 20
785091.8981241319561377
 30
0.0
 11
573305.6716013218974695
 21
785097.8034829433308914
 31
0.0
  0
LINE
  5
94
  8
‘§÷∆¡∫DE
 10
573349.5331086289370432
 20
785088.7757713415194303
 30
0.0
 11
573305.2551723929354921
 21
785094.681130152894184
 31
0.0
  0
LINE
  5
95
  8
‘§÷∆¡∫MM
 10
573306.0088476260425523
 20
785104.1142883545253426
 30
0.0
 11
573261.8994193185353652
 21
785109.997173223644495
 31
0.0
  0
LINE
  5
96
  8
‘§÷∆¡∫MM
 10
573306.4252765548881143
 20
785107.2366411448456347
 30
0.0
 11
573262.3158482473809272
 21
785113.1195260140812024
 31
0.0
  0
LINE
  5
97
  8
‘§÷∆¡∫MM
 10
573306.8417054838500917
 20
785110.3589939351659268
 30
0.0
 11
573262.7322771763429046
 21
785116.2418788040522486
 31
0.0
  0
LINE
  5
98
  8
‘§÷∆¡∫MM
 10
573307.2581344128120691
 20
785113.4813467256026343
 30
0.0
 11
573263.1487061055377126
 21
785119.3642315947217867
 31
0.0
  0
LINE
  5
99
  8
‘§÷∆¡∫MM
 10
573305.5924186969641596
 20
785100.9919355644378811
 30
0.0
 11
573261.4829903895733878
 21
785106.8748204333242029
 31
0.0
  0
LINE
  5
9A
  8
‘§÷∆¡∫MM
 10
573305.1759897681185976
 20
785097.869582773768343
 30
0.0
 11
573261.0665614604949951
 21
785103.7524676430039108
 31
0.0
  0
LINE
  5
9B
  8
‘§÷∆¡∫MM
 10
573304.7595608391566202
 20
785094.7472299835644662
 30
0.0
 11
573260.6501325316494331
 21
785100.6301148526836187
 31
0.0
  0
LINE
  5
9C
  8
‘§÷∆¡∫MM
 10
573261.4038077646400779
 20
785110.0632730545476079
 30
0.0
 11
573217.2943794570164755
 21
785115.9461579240160063
 31
0.0
  0
LINE
  5
9D
  8
‘§÷∆¡∫AA
 10
573216.7987679031211883
 20
785116.0122577538713813
 30
0.0
 11
573172.518821096746251
 21
785121.9178847155999392
 31
0.0
  0
LINE
  5
9E
  8
‘§÷∆¡∫MM
 10
573261.8202366936020553
 20
785113.1856258448679
 30
0.0
 11
573217.7108083859784529
 21
785119.0685107141034678
 31
0.0
  0
LINE
  5
9F
  8
‘§÷∆¡∫AA
 10
573217.2151968319667503
 20
785119.1346105440752581
 30
0.0
 11
573172.9768716351827607
 21
785125.0346864218590781
 31
0.0
  0
LINE
  5
A0
  8
‘§÷∆¡∫MM
 10
573262.2366656224476174
 20
785116.3079786351881921
 30
0.0
 11
573218.1272373148240149
 21
785122.1908635043073446
 31
0.0
  0
LINE
  5
A1
  8
‘§÷∆¡∫AA
 10
573217.6316257608123124
 20
785122.2569633342791349
 30
0.0
 11
573173.434922173502855
 21
785128.1514881278853863
 31
0.0
  0
LINE
  5
A2
  8
‘§÷∆¡∫MM
 10
573262.6530945514095947
 20
785119.4303314257413149
 30
0.0
 11
573218.5436662439024076
 21
785125.3132162948604673
 31
0.0
  0
LINE
  5
A3
  8
‘§÷∆¡∫AA
 10
573218.048054689890705
 20
785125.3793161248322576
 30
0.0
 11
573173.8929727118229493
 21
785131.2682898344937712
 31
0.0
  0
LINE
  5
A4
  8
‘§÷∆¡∫MM
 10
573260.9873788356781006
 20
785106.9409202643437311
 30
0.0
 11
573216.8779505281709135
 21
785112.8238051334628835
 31
0.0
  0
LINE
  5
A5
  8
‘§÷∆¡∫AA
 10
573216.3823389741592109
 20
785112.8899049635510892
 30
0.0
 11
573172.0607705583097413
 21
785118.8010830089915544
 31
0.0
  0
LINE
  5
A6
  8
‘§÷∆¡∫MM
 10
573260.5709499067161232
 20
785103.8185674742562696
 30
0.0
 11
573216.4615215990925208
 21
785109.7014523433754221
 31
0.0
  0
LINE
  5
A7
  8
‘§÷∆¡∫AA
 10
573215.9659100450808182
 20
785109.7675521732307971
 30
0.0
 11
573171.6027200198732316
 21
785115.6842813024995849
 31
0.0
  0
LINE
  5
A8
  8
‘§÷∆¡∫MM
 10
573260.1545209777541459
 20
785100.6962146834703162
 30
0.0
 11
573216.0450926700141281
 21
785106.579099552705884
 31
0.0
  0
LINE
  5
A9
  8
‘§÷∆¡∫AA
 10
573215.5494811160024256
 20
785106.6451993826776743
 30
0.0
 11
573171.1446694815531373
 21
785112.567479596240446
 31
0.0
  0
LINE
  5
AA
  8
‘§÷∆¡∫AA
 10
571612.4796054431935772
 20
785537.0089783287839964
 30
0.0
 11
571655.505479246028699
 21
785525.0013522722292691
 31
0.0
  0
LINE
  5
AB
  8
‘§÷∆¡∫AA
 10
571613.3263487179065123
 20
785540.0430392754497007
 30
0.0
 11
571656.3522225206252187
 21
785528.0354132185457274
 31
0.0
  0
LINE
  5
AC
  8
‘§÷∆¡∫AA
 10
571614.1730919925030321
 20
785543.0771002217661589
 30
0.0
 11
571657.1989657952217385
 21
785531.069474164978601
 31
0.0
  0
LINE
  5
AD
  8
‘§÷∆¡∫AA
 10
571615.0198352670995519
 20
785546.1111611680826172
 30
0.0
 11
571658.0457090699346736
 21
785534.10353511152789
 31
0.0
  0
LINE
  5
AE
  8
‘§÷∆¡∫AA
 10
571611.6328621685970575
 20
785533.9749173823511228
 30
0.0
 11
571654.6587359713157639
 21
785521.9672913255635649
 31
0.0
  0
LINE
  5
AF
  8
‘§÷∆¡∫AA
 10
571610.7861188940005377
 20
785530.9408564359182492
 30
0.0
 11
571653.8119926967192441
 21
785518.933230379014276
 31
0.0
  0
LINE
  5
B0
  8
‘§÷∆¡∫AA
 10
571609.9393756194040179
 20
785527.9067954892525449
 30
0.0
 11
571652.9652494221227244
 21
785515.8991694325814024
 31
0.0
  0
LINE
  5
B1
  8
‘§÷∆¡∫MM
 10
571655.9870762214995921
 20
785524.866948576644063
 30
0.0
 11
571698.8492070523789153
 21
785512.9050197756150737
 31
0.0
  0
LINE
  5
B2
  8
‘§÷∆¡∫MM
 10
571656.8338194960961118
 20
785527.901009522844106
 30
0.0
 11
571699.6959503268590197
 21
785515.9390807221643627
 31
0.0
  0
LINE
  5
B3
  8
‘§÷∆¡∫MM
 10
571657.6805627710418776
 20
785530.9350704697426409
 30
0.0
 11
571700.5426936014555395
 21
785518.9731416685972363
 31
0.0
  0
LINE
  5
B4
  8
‘§÷∆¡∫MM
 10
571658.5273060454055667
 20
785533.9691314160590991
 30
0.0
 11
571701.3894368760520592
 21
785522.0072026151465252
 31
0.0
  0
LINE
  5
B5
  8
‘§÷∆¡∫MM
 10
571655.1403329469030723
 20
785521.8328876302111894
 30
0.0
 11
571698.0024637776659802
 21
785509.8709588291822001
 31
0.0
  0
LINE
  5
B6
  8
‘§÷∆¡∫MM
 10
571654.2935896721901372
 20
785518.7988266837783158
 30
0.0
 11
571697.1557205030694604
 21
785506.8368978827493265
 31
0.0
  0
LINE
  5
B7
  8
‘§÷∆¡∫MM
 10
571653.4468463974772021
 20
785515.7647657374618575
 30
0.0
 11
571696.3089772283565253
 21
785503.8028369363164529
 31
0.0
  0
LINE
  5
B8
  8
‘§÷∆¡∫MM
 10
571699.3308040278498083
 20
785512.7706160811940208
 30
0.0
 11
571742.1929348588455468
 21
785500.8086872800486162
 31
0.0
  0
LINE
  5
B9
  8
‘§÷∆¡∫MM
 10
571700.1775473024463281
 20
785515.8046770273940638
 30
0.0
 11
571743.039678133209236
 21
785503.8427482264814898
 31
0.0
  0
LINE
  5
BA
  8
‘§÷∆¡∫MM
 10
571701.0242905771592632
 20
785518.8387379739433527
 30
0.0
 11
571743.8864214080385864
 21
785506.8768091729143634
 31
0.0
  0
LINE
  5
BB
  8
‘§÷∆¡∫MM
 10
571701.871033851755783
 20
785521.872798920259811
 30
0.0
 11
571744.7331646825186908
 21
785509.9108701193472371
 31
0.0
  0
LINE
  5
BC
  8
‘§÷∆¡∫MM
 10
571698.4840607532532886
 20
785509.7365551346447319
 30
0.0
 11
571741.3461915840161964
 21
785497.774626333382912
 31
0.0
  0
LINE
  5
BD
  8
‘§÷∆¡∫MM
 10
571697.6373174786567688
 20
785506.702494188095443
 30
0.0
 11
571740.499448309536092
 21
785494.7405653870664537
 31
0.0
  0
LINE
  5
BE
  8
‘§÷∆¡∫MM
 10
571696.7905742039438337
 20
785503.6684332416625693
 30
0.0
 11
571739.6527050347067416
 21
785491.7065044405171648
 31
0.0
  0
LINE
  5
BF
  8
‘§÷∆¡∫MM
 10
571742.6745318342000246
 20
785500.6742835853947327
 30
0.0
 11
571785.5366626649629325
 21
785488.7123547842493281
 31
0.0
  0
LINE
  5
C0
  8
‘§÷∆¡∫MM
 10
571743.5212751086801291
 20
785503.7083445315947756
 30
0.0
 11
571786.3834059395594522
 21
785491.7464157309150323
 31
0.0
  0
LINE
  5
C1
  8
‘§÷∆¡∫MM
 10
571744.3680183837423101
 20
785506.7424054783768952
 30
0.0
 11
571787.2301492142723873
 21
785494.7804766773479059
 31
0.0
  0
LINE
  5
C2
  8
‘§÷∆¡∫MM
 10
571745.2147616581059992
 20
785509.7764664248097688
 30
0.0
 11
571788.0768924888689071
 21
785497.8145376235479489
 31
0.0
  0
LINE
  5
C3
  8
‘§÷∆¡∫MM
 10
571741.8277885596035048
 20
785497.6402226388454437
 30
0.0
 11
571784.6899193903664127
 21
785485.6782938377000391
 31
0.0
  0
LINE
  5
C4
  8
‘§÷∆¡∫MM
 10
571740.9810452848905697
 20
785494.6061616924125701
 30
0.0
 11
571783.8431761157698929
 21
785482.6442328913835809
 31
0.0
  0
LINE
  5
C5
  8
‘§÷∆¡∫MM
 10
571740.1343020101776347
 20
785491.5721007459796965
 30
0.0
 11
571782.9964328410569578
 21
785479.6101719448342919
 31
0.0
  0
LINE
  5
C6
  8
‘§÷∆¡∫AA
 10
571786.0182596406666562
 20
785488.5779510898282751
 30
0.0
 11
571829.044133443152532
 21
785476.5703250328078866
 31
0.0
  0
LINE
  5
C7
  8
‘§÷∆¡∫AA
 10
571786.865002915263176
 20
785491.6120120361447334
 30
0.0
 11
571829.8908767177490517
 21
785479.6043859791243449
 31
0.0
  0
LINE
  5
C8
  8
‘§÷∆¡∫AA
 10
571787.7117461902089417
 20
785494.6460729826940224
 30
0.0
 11
571830.7376199925784022
 21
785482.6384469255572185
 31
0.0
  0
LINE
  5
C9
  8
‘§÷∆¡∫AA
 10
571788.5584894645726308
 20
785497.6801339292433113
 30
0.0
 11
571831.5843632671749219
 21
785485.6725078722229227
 31
0.0
  0
LINE
  5
CA
  8
‘§÷∆¡∫AA
 10
571785.1715163660701364
 20
785485.5438901432789862
 30
0.0
 11
571828.1973901683231816
 21
785473.5362640861421824
 31
0.0
  0
LINE
  5
CB
  8
‘§÷∆¡∫AA
 10
571784.3247730913572013
 20
785482.5098291968461126
 30
0.0
 11
571827.3506468936102465
 21
785470.5022031398257241
 31
0.0
  0
LINE
  5
CC
  8
‘§÷∆¡∫AA
 10
571783.4780298166442662
 20
785479.475768250413239
 30
0.0
 11
571826.5039036188973114
 21
785467.4681421932764351
 31
0.0
  0
LINE
  5
CD
  8
‘§÷∆¡∫AA
 10
571118.3682135074632242
 20
785663.1991253511514515
 30
0.0
 11
571147.3953277458203956
 21
785657.0561993998708203
 31
0.0
1001
EICADPM
1071
     4321
1002
{
1011
571114.9933388885110617
1021
0.0
1031
0.0
1021
785663.8366794232279062
1031
0.0
1011
571283.597357953665778
1021
0.0
1031
0.0
1021
785628.1554885299410671
1031
0.0
1041
172.3382216122641921
1002
}
1001
EICADREL
1011
571361.5450116555439308
1021
0.0
1031
0.0
1021
785611.6596474058460444
1031
0.0
  0
LINE
  5
D0
  8
‘§÷∆¡∫MM
 10
571147.8844938095426187
 20
785656.952678571571596
 30
0.0
 11
571191.4202734947903082
 21
785647.7393248552689329
 31
0.0
1001
EICADPM
1071
     4321
1002
{
1011
571114.9933388885110617
1021
0.0
1031
0.0
1021
785663.8366794232279062
1031
0.0
1011
571283.597357953665778
1021
0.0
1031
0.0
1021
785628.1554885299410671
1031
0.0
1041
172.3382216122641921
1002
}
1001
EICADREL
1011
571361.5450116555439308
1021
0.0
1031
0.0
1021
785611.6596474058460444
1031
0.0
  0
LINE
  5
D1
  8
‘§÷∆¡∫MM
 10
571191.9094395586289465
 20
785647.6358040269697085
 30
0.0
 11
571235.4452192554017529
 21
785638.4224503084551543
 31
0.0
1001
EICADPM
1071
     4321
1002
{
1011
571114.9933388885110617
1021
0.0
1031
0.0
1021
785663.8366794232279062
1031
0.0
1011
571283.597357953665778
1021
0.0
1031
0.0
1021
785628.1554885299410671
1031
0.0
1041
172.3382216122641921
1002
}
1001
EICADREL
1011
571361.5450116555439308
1021
0.0
1031
0.0
1021
785611.6596474058460444
1031
0.0
  0
LINE
  5
D2
  8
‘§÷∆¡∫DE
 10
571235.9343853193568066
 20
785638.3189294800395146
 30
0.0
 11
571279.6362543023424223
 21
785629.0704267563996837
 31
0.0
1001
EICADPM
1071
     4321
1002
{
1011
571114.9933388885110617
1021
0.0
1031
0.0
1021
785663.8366794232279062
1031
0.0
1011
571283.597357953665778
1021
0.0
1031
0.0
1021
785628.1554885299410671
1031
0.0
1041
172.3382216122641921
1002
}
1001
EICADREL
1011
571361.5450116555439308
1021
0.0
1031
0.0
1021
785611.6596474058460444
1031
0.0
  0
LINE
  5
D3
  8
‘§÷∆¡∫AA
 10
571117.7263529022457078
 20
785660.1663024147273973
 30
0.0
 11
571146.7534671413013712
 21
785654.0233764629811049
 31
0.0
1001
EICADPM
1071
     4321
1002
{
1011
571114.9933388885110617
1021
0.0
1031
0.0
1021
785663.8366794232279062
1031
0.0
1011
571283.597357953665778
1021
0.0
1031
0.0
1021
785628.1554885299410671
1031
0.0
1041
172.3382216122641921
1002
}
1001
EICADREL
1011
571361.5450116555439308
1021
0.0
1031
0.0
1021
785611.6596474058460444
1031
0.0
  0
LINE
  5
D4
  8
‘§÷∆¡∫MM
 10
571147.2426332053728402
 20
785653.9198556346818805
 30
0.0
 11
571190.7784128902712837
 21
785644.7065019184956327
 31
0.0
1001
EICADPM
1071
     4321
1002
{
1011
571114.9933388885110617
1021
0.0
1031
0.0
1021
785663.8366794232279062
1031
0.0
1011
571283.597357953665778
1021
0.0
1031
0.0
1021
785628.1554885299410671
1031
0.0
1041
172.3382216122641921
1002
}
1001
EICADREL
1011
571361.5450116555439308
1021
0.0
1031
0.0
1021
785611.6596474058460444
1031
0.0
  0
LINE
  5
D5
  8
‘§÷∆¡∫MM
 10
571191.2675789542263374
 20
785644.6029810903128237
 30
0.0
 11
571234.8033586509991437
 21
785635.3896273715654388
 31
0.0
1001
EICADPM
1071
     4321
1002
{
1011
571114.9933388885110617
1021
0.0
1031
0.0
1021
785663.8366794232279062
1031
0.0
1011
571283.597357953665778
1021
0.0
1031
0.0
1021
785628.1554885299410671
1031
0.0
1041
172.3382216122641921
1002
}
1001
EICADREL
1011
571361.5450116555439308
1021
0.0
1031
0.0
1021
785611.6596474058460444
1031
0.0
  0
LINE
  5
D6
  8
‘§÷∆¡∫DE
 10
571235.2925247149541974
 20
785635.2861065431497991
 30
0.0
 11
571278.999312495929189
 21
785626.036562868161127
 31
0.0
1001
EICADPM
1071
     4321
1002
{
1011
571114.9933388885110617
1021
0.0
1031
0.0
1021
785663.8366794232279062
1031
0.0
1011
571283.597357953665778
1021
0.0
1031
0.0
1021
785628.1554885299410671
1031
0.0
1041
172.3382216122641921
1002
}
1001
EICADREL
1011
571361.5450116555439308
1021
0.0
1031
0.0
1021
785611.6596474058460444
1031
0.0
  0
LINE
  5
D7
  8
‘§÷∆¡∫AA
 10
571569.6961115071317181
 20
785550.4803246464580297
 30
0.0
 11
571612.7219853095011786
 21
785538.4726985892048106
 31
0.0
  0
LINE
  5
D8
  8
‘§÷∆¡∫AA
 10
571568.9031297102337703
 20
785547.6389024903764948
 30
0.0
 11
571611.9290035126032308
 21
785535.6312764330068603
 31
0.0
  0
LINE
  5
D9
  8
‘§÷∆¡∫AA
 10
571568.1101479134522378
 20
785544.7974803340621293
 30
0.0
 11
571611.1360217158216983
 21
785532.7898542768089101
 31
0.0
  0
LINE
  5
DA
  8
‘§÷∆¡∫AA
 10
571567.3171661165542901
 20
785541.956058177864179
 30
0.0
 11
571610.3430399188073352
 21
785529.9484321206109598
 31
0.0
  0
LINE
  5
DB
  8
‘§÷∆¡∫AA
 10
571570.4890933040296659
 20
785553.3217468027723953
 30
0.0
 11
571613.5149671063991264
 21
785541.3141207454027608
 31
0.0
  0
LINE
  5
DC
  8
‘§÷∆¡∫AA
 10
571571.282075101044029
 20
785556.1631689590867609
 30
0.0
 11
571614.3079489032970741
 21
785544.155542901600711
 31
0.0
  0
LINE
  5
DD
  8
‘§÷∆¡∫MM
 10
571569.2145145315444097
 20
785550.614728340995498
 30
0.0
 11
571526.3523837005486712
 21
785562.5766571416752413
 31
0.0
  0
LINE
  5
DE
  8
‘§÷∆¡∫MM
 10
571568.4215327346464619
 20
785547.7733061847975478
 30
0.0
 11
571525.5594019036507234
 21
785559.7352349852444604
 31
0.0
  0
LINE
  5
DF
  8
‘§÷∆¡∫MM
 10
571567.6285509377485141
 20
785544.9318840284831822
 30
0.0
 11
571524.7664201067527756
 21
785556.8938128291629255
 31
0.0
  0
LINE
  5
E0
  8
‘§÷∆¡∫MM
 10
571566.835569140734151
 20
785542.0904618724016473
 30
0.0
 11
571523.9734383097384125
 21
785554.0523906728485599
 31
0.0
  0
LINE
  5
E1
  8
‘§÷∆¡∫MM
 10
571570.0074963283259422
 20
785553.4561504970770329
 30
0.0
 11
571527.1453654975630343
 21
785565.4180792976403609
 31
0.0
  0
LINE
  5
E2
  8
‘§÷∆¡∫MM
 10
571570.8004781253403053
 20
785556.2975726533913985
 30
0.0
 11
571527.9383472944609821
 21
785568.2595014538383111
 31
0.0
  0
LINE
  5
E3
  8
‘§÷∆¡∫MM
 10
571483.0086558959446847
 20
785574.6729896394535899
 30
0.0
 11
571525.8707867258926854
 21
785562.7110608358634636
 31
0.0
  0
LINE
  5
E4
  8
‘§÷∆¡∫MM
 10
571482.2156740988139063
 20
785571.8315674832556397
 30
0.0
 11
571525.0778049287619069
 21
785559.869638679549098
 31
0.0
  0
LINE
  5
E5
  8
‘§÷∆¡∫MM
 10
571481.4226923017995432
 20
785568.9901453272905201
 30
0.0
 11
571524.2848231317475438
 21
785557.0282165233511478
 31
0.0
  0
LINE
  5
E6
  8
‘§÷∆¡∫MM
 10
571480.6297105045523494
 20
785566.1487231707433239
 30
0.0
 11
571523.4918413347331807
 21
785554.1867943671531975
 31
0.0
  0
LINE
  5
E7
  8
‘§÷∆¡∫MM
 10
571483.8016376930754632
 20
785577.5144117956515402
 30
0.0
 11
571526.6637685229070485
 21
785565.5524829917121679
 31
0.0
  0
LINE
  5
E8
  8
‘§÷∆¡∫MM
 10
571484.5946194900898263
 20
785580.3558339519659057
 30
0.0
 11
571527.4567503199214116
 21
785568.3939051480265334
 31
0.0
  0
LINE
  5
E9
  8
‘§÷∆¡∫MM
 10
571482.5270589189603925
 20
785574.8073933343403041
 30
0.0
 11
571439.664928087964654
 21
785586.7693221340887249
 31
0.0
  0
LINE
  5
EA
  8
‘§÷∆¡∫MM
 10
571481.7340771220624447
 20
785571.9659711780259386
 30
0.0
 11
571438.8719462910667062
 21
785583.9278999777743593
 31
0.0
  0
LINE
  5
EB
  8
‘§÷∆¡∫MM
 10
571480.9410953251644969
 20
785569.1245490219444036
 30
0.0
 11
571438.0789644940523431
 21
785581.0864778214599937
 31
0.0
  0
LINE
  5
EC
  8
‘§÷∆¡∫MM
 10
571480.1481135283829644
 20
785566.2831268653972074
 30
0.0
 11
571437.28598269703798
 21
785578.2450556651456282
 31
0.0
  0
LINE
  5
ED
  8
‘§÷∆¡∫MM
 10
571483.3200407156255096
 20
785577.6488154905382544
 30
0.0
 11
571440.4579098847461864
 21
785589.6107442899374291
 31
0.0
  0
LINE
  5
EE
  8
‘§÷∆¡∫MM
 10
571484.1130225127562881
 20
785580.4902376466197893
 30
0.0
 11
571441.2508916816441342
 21
785592.4521664461353794
 31
0.0
  0
LINE
  5
EF
  8
‘§÷∆¡∫AA
 10
571150.6429184220032766
 20
785670.8554520492907614
 30
0.0
 11
571193.7426580577157438
 21
785658.8272115752333775
 31
0.0
  0
LINE
  5
F0
  8
‘§÷∆¡∫MM
 10
571194.2242550331866369
 20
785658.6928078808123246
 30
0.0
 11
571237.0863858641823754
 21
785646.73087907966692
 31
0.0
  0
LINE
  5
F1
  8
‘§÷∆¡∫DE
 10
571237.5679828396532685
 20
785646.5964753854786977
 30
0.0
 11
571280.7836918898392469
 21
785634.5358702612575144
 31
0.0
  0
LINE
  5
F2
  8
‘§÷∆¡∫AA
 10
571151.5500671364134178
 20
785673.8207444696454331
 30
0.0
 11
571194.5759609630331397
 21
785661.8131128244567662
 31
0.0
  0
LINE
  5
F3
  8
‘§÷∆¡∫MM
 10
571195.0575579385040328
 20
785661.678709129919298
 30
0.0
 11
571237.919688769383356
 21
785649.7167803286574781
 31
0.0
  0
LINE
  5
F4
  8
‘§÷∆¡∫DE
 10
571238.4012857448542491
 20
785649.5823766343528405
 30
0.0
 11
571281.4219897682778537
 21
785637.5761933549074456
 31
0.0
  0
LINE
  5
F5
  8
‘§÷∆¡∫AA
 10
571396.1574573101243004
 20
785598.9113518851809204
 30
0.0
 11
571439.1833311126101762
 21
785586.9037258283933625
 31
0.0
  0
LINE
  5
F6
  8
‘§÷∆¡∫AA
 10
571395.364475513342768
 20
785596.0699297288665548
 30
0.0
 11
571438.3903493157122284
 21
785584.0623036723118275
 31
0.0
  0
LINE
  5
F7
  8
‘§÷∆¡∫AA
 10
571394.5714937164448202
 20
785593.2285075726686046
 30
0.0
 11
571437.5973675188142806
 21
785581.2208815157646313
 31
0.0
  0
LINE
  5
F8
  8
‘§÷∆¡∫AA
 10
571393.7785119195468724
 20
785590.3870854164706543
 30
0.0
 11
571436.8043857221491635
 21
785578.3794593594502658
 31
0.0
  0
LINE
  5
F9
  8
‘§÷∆¡∫AA
 10
571396.9504391070222482
 20
785601.7527740416117013
 30
0.0
 11
571439.976312909508124
 21
785589.7451479842420667
 31
0.0
  0
LINE
  5
FA
  8
‘§÷∆¡∫AA
 10
571397.7434209038037807
 20
785604.5941961974604055
 30
0.0
 11
571440.7692947061732411
 21
785592.5865701405564323
 31
0.0
  0
LINE
  5
FB
  8
‘§÷∆¡∫AA
 10
571281.6047055075177923
 20
785637.6677779208403081
 30
0.0
 11
571320.0926782864844427
 21
785627.0566872920608148
 31
0.0
  0
LINE
  5
FC
  8
‘§÷∆¡∫MM
 10
571320.5752074973424897
 20
785626.9236545335734263
 30
0.0
 11
571358.842687732540071
 21
785616.373353449977003
 31
0.0
  0
LINE
  5
FD
  8
‘§÷∆¡∫DE
 10
571359.3249223411548883
 20
785616.240401912946254
 30
0.0
 11
571397.8623786332318559
 21
785605.6156687353504822
 31
0.0
  0
LINE
  5
FE
  8
‘§÷∆¡∫AA
 10
571279.1281818605493754
 20
785625.8716678488999605
 30
0.0
 11
571317.764559956616722
 21
785616.7861178703606129
 31
0.0
  0
LINE
  5
FF
  8
‘§÷∆¡∫MM
 10
571318.2512993592536077
 20
785616.6716585089452565
 30
0.0
 11
571356.7122535237576813
 21
785607.6273604013258591
 31
0.0
  0
LINE
  5
100
  8
‘§÷∆¡∫DE
 10
571357.198992652236484
 20
785607.5129011045210063
 30
0.0
 11
571395.8549817586317658
 21
785598.4227394922636449
 31
0.0
  0
LINE
  5
101
  8
‘§÷∆¡∫DE
 10
571396.3568309772526845
 20
785600.2209718029480428
 30
0.0
 11
571357.7304106611991301
 21
785609.6945118731819093
 31
0.0
  0
LINE
  5
102
  8
‘§÷∆¡∫MM
 10
571357.2448021199088544
 20
785609.8136125287273899
 30
0.0
 11
571318.8322839447064325
 21
785619.2346908261533827
 31
0.0
  0
LINE
  5
103
  8
‘§÷∆¡∫AA
 10
571318.3466007730457932
 20
785619.3538097854470834
 30
0.0
 11
571279.7473127723205835
 21
785628.8206953669432551
 31
0.0
  0
LINE
  5
104
  8
‘§÷∆¡∫AA
 10
571280.3664436840917915
 20
785631.7697228848701343
 30
0.0
 11
571318.9286340828984976
 21
785621.9214685835177079
 31
0.0
  0
LINE
  5
105
  8
‘§÷∆¡∫MM
 10
571319.4132634842535481
 20
785621.7977008840534836
 30
0.0
 11
571357.7773907921509817
 21
785612.000029178452678
 31
0.0
  0
LINE
  5
106
  8
‘§÷∆¡∫DE
 10
571358.2618717254372314
 20
785611.8762993956916034
 30
0.0
 11
571396.8586801958736032
 21
785602.0192041137488559
 31
0.0
  0
LINE
  5
107
  8
‘§÷∆¡∫DE
 10
571397.3605294146109372
 20
785603.817436424549669
 30
0.0
 11
571358.7933756752172485
 21
785614.0582629734417424
 31
0.0
  0
LINE
  5
108
  8
‘§÷∆¡∫MM
 10
571358.3100193820428103
 20
785614.1866097007878125
 30
0.0
 11
571319.9942379960557446
 21
785624.3606887607602403
 31
0.0
  0
LINE
  5
109
  8
‘§÷∆¡∫AA
 10
571319.5106599119026214
 20
785624.4890943808713928
 30
0.0
 11
571280.9855745958629996
 21
785634.7187504026805982
 31
0.0
  0
LINE
  5
10A
  8
‘§÷∆¡∫AA
 10
571278.0134883897844702
 20
785620.5621902282582596
 30
0.0
 11
571316.5655100764706731
 21
785611.496470486628823
 31
0.0
  0
LINE
  5
10B
  8
‘§÷∆¡∫MM
 62
     3
 10
571317.0522494609467685
 20
785611.3820110458182171
 30
0.0
 11
571355.4285945729352534
 21
785602.3576026159571484
 31
0.0
  0
LINE
  5
10C
  8
‘§÷∆¡∫DE
 10
571355.9153336824383587
 20
785602.2431432397570461
 30
0.0
 11
571394.3958179977489635
 21
785593.1942459043348208
 31
0.0
  0
LINE
  5
10D
  8
‘§÷∆¡∫AA
 10
571277.3969160231063142
 20
785617.6253495028940961
 30
0.0
 11
571315.9022782907122746
 21
785608.5706019800854847
 31
0.0
  0
LINE
  5
10E
  8
‘§÷∆¡∫MM
 62
     3
 10
571316.3890176750719547
 20
785608.4561425393912941
 30
0.0
 11
571354.7185637307120487
 21
785599.4427391649223864
 31
0.0
  0
LINE
  5
10F
  8
‘§÷∆¡∫DE
 10
571355.2053028400987387
 20
785599.3282797888386995
 30
0.0
 11
571393.5887110760668293
 21
785590.3022104267729446
 31
0.0
  0
LINE
  5
110
  8
‘§÷∆¡∫AA
 10
571278.6300607563462108
 20
785623.4990309535060078
 30
0.0
 11
571317.2287418624619022
 21
785614.422338993055746
 31
0.0
  0
LINE
  5
111
  8
‘§÷∆¡∫MM
 62
     3
 10
571317.715481247054413
 20
785614.3078795522451401
 30
0.0
 11
571356.1386254151584581
 21
785605.272466067224741
 31
0.0
  0
LINE
  5
112
  8
‘§÷∆¡∫DE
 10
571356.6253645246615633
 20
785605.1580066912574694
 30
0.0
 11
571395.2029249194310978
 21
785596.0862813820131123
 31
0.0
  0
LINE
  5
113
  8
‘§÷∆¡∫DE
 10
571277.8465637010522187
 20
785620.5785937567707151
 30
0.0
 11
571234.0165295352926478
 21
785628.7578680112492293
 31
0.0
  0
LINE
  5
114
  8
‘§÷∆¡∫MM
 62
     3
 10
571233.5250097878742963
 20
785628.8495922111906111
 30
0.0
 11
571189.8498971470398828
 21
785636.9999560242285952
 31
0.0
  0
LINE
  5
115
  8
‘§÷∆¡∫AA
 10
571189.3583542600972578
 20
785637.0916845422470942
 30
0.0
 11
571145.4441556977108121
 21
785645.2866650060750544
 31
0.0
  0
LINE
  5
116
  8
‘§÷∆¡∫DE
 10
571277.2366348893847317
 20
785617.6406248386483639
 30
0.0
 11
571233.4530131599167362
 21
785625.8112379082012922
 31
0.0
  0
LINE
  5
117
  8
‘§÷∆¡∫MM
 62
     3
 10
571232.9614934124983847
 20
785625.9029621080262586
 30
0.0
 11
571189.3310619406402111
 21
785634.0449878132203594
 31
0.0
  0
LINE
  5
118
  8
‘§÷∆¡∫AA
 10
571188.8395190539304167
 20
785634.1367163313552737
 30
0.0
 11
571144.9254895843332633
 21
785642.3316652402281761
 31
0.0
  0
LINE
  5
119
  8
‘§÷∆¡∫DE
 10
571278.4697345361346379
 20
785623.5140915351221338
 30
0.0
 11
571234.5800459105521441
 21
785631.7044981145299971
 31
0.0
  0
LINE
  5
11A
  8
‘§÷∆¡∫MM
 62
     3
 10
571234.0885261632502079
 20
785631.7962223145877942
 30
0.0
 11
571190.3687323529738933
 21
785639.9549242353532463
 31
0.0
  0
LINE
  5
11B
  8
‘§÷∆¡∫AA
 10
571189.8771894662640989
 20
785640.0466527531389147
 30
0.0
 11
571145.9628218112047762
 21
785648.2416647719219327
 31
0.0
  0
LINE
  5
11C
  8
‘§÷∆¡∫SS
 10
571105.5379982078447938
 20
785653.5550781898200512
 30
0.0
 11
571145.0936007954878733
 21
785644.2149505515117198
 31
0.0
  0
LINE
  5
11E
  8
‘§÷∆¡∫SS
 10
571105.055385276558809
 20
785650.6883370868163183
 30
0.0
 11
571144.8106184741482139
 21
785642.6027135621989146
 31
0.0
  0
LINE
  5
11F
  8
‘§÷∆¡∫SS
 10
571104.5727723459713161
 20
785647.8215959835797548
 30
0.0
 11
571144.5276361528085545
 21
785640.9904765730025247
 31
0.0
  0
LINE
  5
120
  8
‘§÷∆¡∫SS
 10
571106.6184512706240639
 20
785656.2215706758433953
 30
0.0
 11
571145.3765831167111173
 21
785645.8271875407081097
 31
0.0
  0
LINE
  5
121
  8
‘§÷∆¡∫SS
 10
571107.9599287193268538
 20
785658.8006321422290057
 30
0.0
 11
571145.6595654380507767
 21
785647.4394245299044997
 31
0.0
  0
LINE
  5
122
  8
‘§÷∆¡∫SS
 10
571145.9425477593904361
 20
785649.0516615193337202
 30
0.0
 11
571109.3014061682624742
 21
785661.3796936087310314
 31
0.0
  0
LINE
  5
123
  8
‘§÷∆¡∫SS
 10
570941.0395575508009642
 20
785572.2396117624593899
 30
0.0
 11
570920.3058198465732858
 21
785546.772508509340696
 31
0.0
  0
LINE
  5
124
  8
‘§÷∆¡∫SS
 10
570938.6355325771728531
 20
785574.1968199594411999
 30
0.0
 11
570917.9017948729451746
 21
785548.7297167062060907
 31
0.0
  0
LINE
  5
125
  8
‘§÷∆¡∫SS
 10
570915.4201592785539106
 20
785550.7499838335206732
 30
0.0
 11
570936.1539376822765917
 21
785576.2171398093923926
 31
0.0
  0
LINE
  5
126
  8
‘§÷∆¡∫SS
 10
570913.0161342021310702
 20
785552.7071919040754437
 30
0.0
 11
570933.7499126058537513
 21
785578.1743478799471632
 31
0.0
  0
LINE
  5
127
  8
‘§÷∆¡∫SS
 10
571096.3228159660939127
 20
785782.9268198772333562
 30
0.0
 11
571121.4311270164325833
 21
785814.0078808811958879
 31
0.0
  0
LINE
  5
128
  8
‘§÷∆¡∫SS
 10
571123.8352213749894872
 20
785812.0507535528158769
 30
0.0
 11
571098.7476759657729417
 21
785780.9954851102083921
 31
0.0
  0
ENDSEC
  0
EOF
