  0
SECTION
  2
HEADER
  9
$ACADVER
  1
AC1027
  9
$ACADMAINTVER
 70
105
  9
$DWGCODEPAGE
  3
ANSI_1252
  9
$LASTSAVEDBY
  1
ezdxf
  9
$REQUIREDVERSIONS
160
0
  9
$INSBASE
 10
0.0
 20
0.0
 30
0.0
  9
$EXTMIN
 10
1e+20
 20
1e+20
 30
1e+20
  9
$EXTMAX
 10
-1e+20
 20
-1e+20
 30
-1e+20
  9
$LIMMIN
 10
0.0
 20
0.0
  9
$LIMMAX
 10
420.0
 20
297.0
  9
$ORTHOMODE
 70
0
  9
$REGENMODE
 70
1
  9
$FILLMODE
 70
1
  9
$QTEXTMODE
 70
0
  9
$MIRRTEXT
 70
1
  9
$LTSCALE
 40
1.0
  9
$ATTMODE
 70
1
  9
$TEXTSIZE
 40
2.5
  9
$TRACEWID
 40
1.0
  9
$TEXTSTYLE
  7
Standard
  9
$CLAYER
  8
0
  9
$CELTYPE
  6
ByLayer
  9
$CECOLOR
 62
256
  9
$CELTSCALE
 40
1.0
  9
$DISPSILH
 70
0
  9
$DIMSCALE
 40
1.0
  9
$DIMASZ
 40
2.5
  9
$DIMEXO
 40
0.625
  9
$DIMDLI
 40
3.75
  9
$DIMRND
 40
0.0
  9
$DIMDLE
 40
0.0
  9
$DIMEXE
 40
1.25
  9
$DIMTP
 40
0.0
  9
$DIMTM
 40
0.0
  9
$DIMTXT
 40
2.5
  9
$DIMCEN
 40
2.5
  9
$DIMTSZ
 40
0.0
  9
$DIMTOL
 70
0
  9
$DIMLIM
 70
0
  9
$DIMTIH
 70
0
  9
$DIMTOH
 70
0
  9
$DIMSE1
 70
0
  9
$DIMSE2
 70
0
  9
$DIMTAD
 70
1
  9
$DIMZIN
 70
8
  9
$DIMBLK
  1

  9
$DIMASO
 70
1
  9
$DIMSHO
 70
1
  9
$DIMPOST
  1

  9
$DIMAPOST
  1

  9
$DIMALT
 70
0
  9
$DIMALTD
 70
3
  9
$DIMALTF
 40
0.03937007874
  9
$DIMLFAC
 40
1.0
  9
$DIMTOFL
 70
1
  9
$DIMTVP
 40
0.0
  9
$DIMTIX
 70
0
  9
$DIMSOXD
 70
0
  9
$DIMSAH
 70
0
  9
$DIMBLK1
  1

  9
$DIMBLK2
  1

  9
$DIMSTYLE
  2
ISO-25
  9
$DIMCLRD
 70
0
  9
$DIMCLRE
 70
0
  9
$DIMCLRT
 70
0
  9
$DIMTFAC
 40
1.0
  9
$DIMGAP
 40
0.625
  9
$DIMJUST
 70
0
  9
$DIMSD1
 70
0
  9
$DIMSD2
 70
0
  9
$DIMTOLJ
 70
0
  9
$DIMTZIN
 70
8
  9
$DIMALTZ
 70
0
  9
$DIMALTTZ
 70
0
  9
$DIMUPT
 70
0
  9
$DIMDEC
 70
2
  9
$DIMTDEC
 70
2
  9
$DIMALTU
 70
2
  9
$DIMALTTD
 70
3
  9
$DIMTXSTY
  7
Standard
  9
$DIMAUNIT
 70
0
  9
$DIMADEC
 70
0
  9
$DIMALTRND
 40
0.0
  9
$DIMAZIN
 70
0
  9
$DIMDSEP
 70
44
  9
$DIMATFIT
 70
3
  9
$DIMFRAC
 70
0
  9
$DIMLDRBLK
  1

  9
$DIMLUNIT
 70
2
  9
$DIMLWD
 70
-2
  9
$DIMLWE
 70
-2
  9
$DIMTMOVE
 70
0
  9
$DIMFXL
 40
1.0
  9
$DIMFXLON
 70
0
  9
$DIMJOGANG
 40
0.785398163397
  9
$DIMTFILL
 70
0
  9
$DIMTFILLCLR
 70
0
  9
$DIMARCSYM
 70
0
  9
$DIMLTYPE
  6

  9
$DIMLTEX1
  6

  9
$DIMLTEX2
  6

  9
$DIMTXTDIRECTION
 70
0
  9
$LUNITS
 70
2
  9
$LUPREC
 70
4
  9
$SKETCHINC
 40
1.0
  9
$FILLETRAD
 40
10.0
  9
$AUNITS
 70
0
  9
$AUPREC
 70
2
  9
$MENU
  1
.
  9
$ELEVATION
 40
0.0
  9
$PELEVATION
 40
0.0
  9
$THICKNESS
 40
0.0
  9
$LIMCHECK
 70
0
  9
$CHAMFERA
 40
0.0
  9
$CHAMFERB
 40
0.0
  9
$CHAMFERC
 40
0.0
  9
$CHAMFERD
 40
0.0
  9
$SKPOLY
 70
0
  9
$TDCREATE
 40
2460531.447372685
  9
$TDUCREATE
 40
2458532.153996898
  9
$TDUPDATE
 40
2460531.447372685
  9
$TDUUPDATE
 40
2458532.1544311
  9
$TDINDWG
 40
0.0
  9
$TDUSRTIMER
 40
0.0
  9
$USRTIMER
 70
1
  9
$ANGBASE
 50
0.0
  9
$ANGDIR
 70
0
  9
$PDMODE
 70
0
  9
$PDSIZE
 40
0.0
  9
$PLINEWID
 40
0.0
  9
$SPLFRAME
 70
0
  9
$SPLINETYPE
 70
6
  9
$SPLINESEGS
 70
8
  9
$HANDSEED
  5
1CA
  9
$SURFTAB1
 70
6
  9
$SURFTAB2
 70
6
  9
$SURFTYPE
 70
6
  9
$SURFU
 70
6
  9
$SURFV
 70
6
  9
$UCSBASE
  2

  9
$UCSNAME
  2

  9
$UCSORG
 10
0.0
 20
0.0
 30
0.0
  9
$UCSXDIR
 10
1.0
 20
0.0
 30
0.0
  9
$UCSYDIR
 10
0.0
 20
1.0
 30
0.0
  9
$UCSORTHOREF
  2

  9
$UCSORTHOVIEW
 70
0
  9
$UCSORGTOP
 10
0.0
 20
0.0
 30
0.0
  9
$UCSORGBOTTOM
 10
0.0
 20
0.0
 30
0.0
  9
$UCSORGLEFT
 10
0.0
 20
0.0
 30
0.0
  9
$UCSORGRIGHT
 10
0.0
 20
0.0
 30
0.0
  9
$UCSORGFRONT
 10
0.0
 20
0.0
 30
0.0
  9
$UCSORGBACK
 10
0.0
 20
0.0
 30
0.0
  9
$PUCSBASE
  2

  9
$PUCSNAME
  2

  9
$PUCSORG
 10
0.0
 20
0.0
 30
0.0
  9
$PUCSXDIR
 10
1.0
 20
0.0
 30
0.0
  9
$PUCSYDIR
 10
0.0
 20
1.0
 30
0.0
  9
$PUCSORTHOREF
  2

  9
$PUCSORTHOVIEW
 70
0
  9
$PUCSORGTOP
 10
0.0
 20
0.0
 30
0.0
  9
$PUCSORGBOTTOM
 10
0.0
 20
0.0
 30
0.0
  9
$PUCSORGLEFT
 10
0.0
 20
0.0
 30
0.0
  9
$PUCSORGRIGHT
 10
0.0
 20
0.0
 30
0.0
  9
$PUCSORGFRONT
 10
0.0
 20
0.0
 30
0.0
  9
$PUCSORGBACK
 10
0.0
 20
0.0
 30
0.0
  9
$USERI1
 70
0
  9
$USERI2
 70
0
  9
$USERI3
 70
0
  9
$USERI4
 70
0
  9
$USERI5
 70
0
  9
$USERR1
 40
0.0
  9
$USERR2
 40
0.0
  9
$USERR3
 40
0.0
  9
$USERR4
 40
0.0
  9
$USERR5
 40
0.0
  9
$WORLDVIEW
 70
1
  9
$SHADEDGE
 70
3
  9
$SHADEDIF
 70
70
  9
$TILEMODE
 70
1
  9
$MAXACTVP
 70
64
  9
$PINSBASE
 10
0.0
 20
0.0
 30
0.0
  9
$PLIMCHECK
 70
0
  9
$PEXTMIN
 10
1e+20
 20
1e+20
 30
1e+20
  9
$PEXTMAX
 10
-1e+20
 20
-1e+20
 30
-1e+20
  9
$PLIMMIN
 10
0.0
 20
0.0
  9
$PLIMMAX
 10
420.0
 20
297.0
  9
$UNITMODE
 70
0
  9
$VISRETAIN
 70
1
  9
$PLINEGEN
 70
0
  9
$PSLTSCALE
 70
1
  9
$TREEDEPTH
 70
3020
  9
$CMLSTYLE
  2
Standard
  9
$CMLJUST
 70
0
  9
$CMLSCALE
 40
20.0
  9
$PROXYGRAPHICS
 70
1
  9
$MEASUREMENT
 70
1
  9
$CELWEIGHT
370
-1
  9
$ENDCAPS
280
0
  9
$JOINSTYLE
280
0
  9
$LWDISPLAY
290
0
  9
$INSUNITS
 70
6
  9
$HYPERLINKBASE
  1

  9
$STYLESHEET
  1

  9
$XEDIT
290
1
  9
$CEPSNTYPE
380
0
  9
$PSTYLEMODE
290
1
  9
$FINGERPRINTGUID
  2
{5B9AC814-9B25-46F0-9286-A29B3CAC3A86}
  9
$VERSIONGUID
  2
{85B6A75C-B3F2-43D6-9ABB-250B37B942E1}
  9
$EXTNAMES
290
1
  9
$PSVPSCALE
 40
0.0
  9
$OLESTARTUP
290
0
  9
$SORTENTS
280
127
  9
$INDEXCTL
280
0
  9
$HIDETEXT
280
1
  9
$XCLIPFRAME
280
0
  9
$HALOGAP
280
0
  9
$OBSCOLOR
 70
257
  9
$OBSLTYPE
280
0
  9
$INTERSECTIONDISPLAY
280
0
  9
$INTERSECTIONCOLOR
 70
257
  9
$DIMASSOC
280
2
  9
$PROJECTNAME
  1

  9
$CAMERADISPLAY
290
0
  9
$LENSLENGTH
 40
50.0
  9
$CAMERAHEIGHT
 40
0.0
  9
$STEPSPERSEC
 40
24.0
  9
$STEPSIZE
 40
100.0
  9
$3DDWFPREC
 40
2.0
  9
$PSOLWIDTH
 40
0.005
  9
$PSOLHEIGHT
 40
0.08
  9
$LOFTANG1
 40
1.570796326795
  9
$LOFTANG2
 40
1.570796326795
  9
$LOFTMAG1
 40
0.0
  9
$LOFTMAG2
 40
0.0
  9
$LOFTPARAM
 70
7
  9
$LOFTNORMALS
280
1
  9
$LATITUDE
 40
37.795
  9
$LONGITUDE
 40
-122.394
  9
$NORTHDIRECTION
 40
0.0
  9
$TIMEZONE
 70
-8000
  9
$LIGHTGLYPHDISPLAY
280
1
  9
$TILEMODELIGHTSYNCH
280
1
  9
$CMATERIAL
347
20
  9
$SOLIDHIST
280
0
  9
$SHOWHIST
280
1
  9
$DWFFRAME
280
2
  9
$DGNFRAME
280
2
  9
$REALWORLDSCALE
290
1
  9
$INTERFERECOLOR
 62
256
  9
$CSHADOW
280
0
  9
$SHADOWPLANELOCATION
 40
0.0
  0
ENDSEC
  0
SECTION
  2
CLASSES
  0
CLASS
  1
ACDBDICTIONARYWDFLT
  2
AcDbDictionaryWithDefault
  3
ObjectDBX Classes
 90
0
 91
0
280
0
281
0
  0
CLASS
  1
SUN
  2
AcDbSun
  3
SCENEOE
 90
1153
 91
0
280
0
281
0
  0
CLASS
  1
VISUALSTYLE
  2
AcDbVisualStyle
  3
ObjectDBX Classes
 90
4095
 91
0
280
0
281
0
  0
CLASS
  1
MATERIAL
  2
AcDbMaterial
  3
ObjectDBX Classes
 90
1153
 91
0
280
0
281
0
  0
CLASS
  1
SCALE
  2
AcDbScale
  3
ObjectDBX Classes
 90
1153
 91
0
280
0
281
0
  0
CLASS
  1
TABLESTYLE
  2
AcDbTableStyle
  3
ObjectDBX Classes
 90
4095
 91
0
280
0
281
0
  0
CLASS
  1
MLEADERSTYLE
  2
AcDbMLeaderStyle
  3
ACDB_MLEADERSTYLE_CLASS
 90
4095
 91
0
280
0
281
0
  0
CLASS
  1
DICTIONARYVAR
  2
AcDbDictionaryVar
  3
ObjectDBX Classes
 90
0
 91
0
280
0
281
0
  0
CLASS
  1
CELLSTYLEMAP
  2
AcDbCellStyleMap
  3
ObjectDBX Classes
 90
1152
 91
0
280
0
281
0
  0
CLASS
  1
MENTALRAYRENDERSETTINGS
  2
AcDbMentalRayRenderSettings
  3
SCENEOE
 90
1024
 91
0
280
0
281
0
  0
CLASS
  1
ACDBDETAILVIEWSTYLE
  2
AcDbDetailViewStyle
  3
ObjectDBX Classes
 90
1025
 91
0
280
0
281
0
  0
CLASS
  1
ACDBSECTIONVIEWSTYLE
  2
AcDbSectionViewStyle
  3
ObjectDBX Classes
 90
1025
 91
0
280
0
281
0
  0
CLASS
  1
RASTERVARIABLES
  2
AcDbRasterVariables
  3
ISM
 90
0
 91
0
280
0
281
0
  0
CLASS
  1
ACDBPLACEHOLDER
  2
AcDbPlaceHolder
  3
ObjectDBX Classes
 90
0
 91
0
280
0
281
0
  0
CLASS
  1
LAYOUT
  2
AcDbLayout
  3
ObjectDBX Classes
 90
0
 91
0
280
0
281
0
  0
ENDSEC
  0
SECTION
  2
TABLES
  0
TABLE
  2
VPORT
  5
8
330
0
100
AcDbSymbolTable
 70
1
  0
VPORT
  5
23
330
8
100
AcDbSymbolTableRecord
100
AcDbViewportTableRecord
  2
*Active
 70
0
 10
0.0
 20
0.0
 11
1.0
 21
1.0
 12
0.0
 22
0.0
 13
0.0
 23
0.0
 14
0.5
 24
0.5
 15
0.5
 25
0.5
 16
0.0
 26
0.0
 36
1.0
 17
0.0
 27
0.0
 37
0.0
 40
1000.0
 41
1.34
 42
50.0
 43
0.0
 44
0.0
 50
0.0
 51
0.0
 71
0
 72
1000
 73
1
 74
3
 75
0
 76
0
 77
0
 78
0
281
0
 65
0
146
0.0
  0
ENDTAB
  0
TABLE
  2
LTYPE
  5
2
330
0
100
AcDbSymbolTable
 70
3
  0
LTYPE
  5
24
330
2
100
AcDbSymbolTableRecord
100
AcDbLinetypeTableRecord
  2
ByBlock
 70
0
  3

 72
65
 73
0
 40
0.0
  0
LTYPE
  5
25
330
2
100
AcDbSymbolTableRecord
100
AcDbLinetypeTableRecord
  2
ByLayer
 70
0
  3

 72
65
 73
0
 40
0.0
  0
LTYPE
  5
26
330
2
100
AcDbSymbolTableRecord
100
AcDbLinetypeTableRecord
  2
Continuous
 70
0
  3

 72
65
 73
0
 40
0.0
  0
ENDTAB
  0
TABLE
  2
LAYER
  5
1
330
0
100
AcDbSymbolTable
 70
12
  0
LAYER
  5
27
330
1
100
AcDbSymbolTableRecord
100
AcDbLayerTableRecord
  2
0
 70
0
 62
7
  6
Continuous
370
-3
390
13
347
21
  0
LAYER
  5
28
330
1
100
AcDbSymbolTableRecord
100
AcDbLayerTableRecord
  2
Defpoints
 70
0
 62
7
  6
Continuous
290
0
370
-3
390
13
347
21
  0
LAYER
  5
2F
330
1
100
AcDbSymbolTableRecord
100
AcDbLayerTableRecord
  2
B11
 70
0
 62
1
  6
Continuous
370
-3
390
13
347
21
  0
LAYER
  5
42
330
1
100
AcDbSymbolTableRecord
100
AcDbLayerTableRecord
  2
B13
 70
0
 62
2
  6
Continuous
370
-3
390
13
347
21
  0
LAYER
  5
6D
330
1
100
AcDbSymbolTableRecord
100
AcDbLayerTableRecord
  2
B14
 70
0
 62
3
  6
Continuous
370
-3
390
13
347
21
  0
LAYER
  5
A6
330
1
100
AcDbSymbolTableRecord
100
AcDbLayerTableRecord
  2
B21
 70
0
 62
4
  6
Continuous
370
-3
390
13
347
21
  0
LAYER
  5
B9
330
1
100
AcDbSymbolTableRecord
100
AcDbLayerTableRecord
  2
B23
 70
0
 62
5
  6
Continuous
370
-3
390
13
347
21
  0
LAYER
  5
F0
330
1
100
AcDbSymbolTableRecord
100
AcDbLayerTableRecord
  2
B31
 70
0
 62
6
  6
Continuous
370
-3
390
13
347
21
  0
LAYER
  5
103
330
1
100
AcDbSymbolTableRecord
100
AcDbLayerTableRecord
  2
B42
 70
0
 62
7
  6
Continuous
370
-3
390
13
347
21
  0
LAYER
  5
12E
330
1
100
AcDbSymbolTableRecord
100
AcDbLayerTableRecord
  2
B51
 70
0
 62
8
  6
Continuous
370
-3
390
13
347
21
  0
LAYER
  5
167
330
1
100
AcDbSymbolTableRecord
100
AcDbLayerTableRecord
  2
B52
 70
0
 62
9
  6
Continuous
370
-3
390
13
347
21
  0
LAYER
  5
1AE
330
1
100
AcDbSymbolTableRecord
100
AcDbLayerTableRecord
  2
B53
 70
0
 62
10
  6
Continuous
370
-3
390
13
347
21
  0
ENDTAB
  0
TABLE
  2
STYLE
  5
5
330
0
100
AcDbSymbolTable
 70
1
  0
STYLE
  5
29
330
5
100
AcDbSymbolTableRecord
100
AcDbTextStyleTableRecord
  2
Standard
 70
0
 40
0.0
 41
1.0
 50
0.0
 71
0
 42
2.5
  3
txt
  4

  0
ENDTAB
  0
TABLE
  2
VIEW
  5
7
330
0
100
AcDbSymbolTable
 70
0
  0
ENDTAB
  0
TABLE
  2
UCS
  5
6
330
0
100
AcDbSymbolTable
 70
0
  0
ENDTAB
  0
TABLE
  2
APPID
  5
3
330
0
100
AcDbSymbolTable
 70
3
  0
APPID
  5
2A
330
3
100
AcDbSymbolTableRecord
100
AcDbRegAppTableRecord
  2
ACAD
 70
0
  0
APPID
  5
1C7
330
3
100
AcDbSymbolTableRecord
100
AcDbRegAppTableRecord
  2
HATCHBACKGROUNDCOLOR
 70
0
  0
APPID
  5
1C8
330
3
100
AcDbSymbolTableRecord
100
AcDbRegAppTableRecord
  2
EZDXF
 70
0
  0
ENDTAB
  0
TABLE
  2
DIMSTYLE
  5
4
330
0
100
AcDbSymbolTable
 70
1
100
AcDbDimStyleTable
  0
DIMSTYLE
105
2B
330
4
100
AcDbSymbolTableRecord
100
AcDbDimStyleTableRecord
  2
Standard
 70
0
 40
1.0
 41
2.5
 42
0.625
 43
3.75
 44
1.25
 45
0.0
 46
0.0
 47
0.0
 48
0.0
 49
2.5
140
2.5
141
2.5
142
0.0
143
0.03937007874
144
1.0
145
0.0
146
1.0
147
0.625
148
0.0
 69
0
 70
0
 71
0
 72
0
 73
0
 74
0
 75
0
 76
0
 77
1
 78
8
 79
3
170
0
171
3
172
1
173
0
174
0
175
0
176
0
177
0
178
0
179
2
271
2
272
2
273
2
274
3
275
0
276
0
277
2
278
44
279
0
280
0
281
0
282
0
283
0
284
8
285
0
286
0
288
0
289
3
290
0
371
-2
372
-2
  0
ENDTAB
  0
TABLE
  2
BLOCK_RECORD
  5
9
330
0
100
AcDbSymbolTable
 70
2
  0
BLOCK_RECORD
  5
17
330
9
100
AcDbSymbolTableRecord
100
AcDbBlockTableRecord
  2
*Model_Space
340
1A
 70
0
280
1
281
0
  0
BLOCK_RECORD
  5
1B
330
9
100
AcDbSymbolTableRecord
100
AcDbBlockTableRecord
  2
*Paper_Space
340
1E
 70
0
280
1
281
0
  0
ENDTAB
  0
ENDSEC
  0
SECTION
  2
BLOCKS
  0
BLOCK
  5
18
330
17
100
AcDbEntity
  8
0
100
AcDbBlockBegin
  2
*Model_Space
 70
0
 10
0.0
 20
0.0
 30
0.0
  3
*Model_Space
  1

  0
ENDBLK
  5
19
330
17
100
AcDbEntity
  8
0
100
AcDbBlockEnd
  0
BLOCK
  5
1C
330
1B
100
AcDbEntity
  8
0
100
AcDbBlockBegin
  2
*Paper_Space
 70
0
 10
0.0
 20
0.0
 30
0.0
  3
*Paper_Space
  1

  0
ENDBLK
  5
1D
330
1B
100
AcDbEntity
  8
0
100
AcDbBlockEnd
  0
ENDSEC
  0
SECTION
  2
ENTITIES
  0
LINE
  5
30
330
17
100
AcDbEntity
  8
B11
100
AcDbLine
 10
570916.9891524089
 20
785549.5885853379
 30
12.139811879986823
 11
570937.6093474717
 21
785574.9162249679
 31
13.000395749645605
  0
TEXT
  5
31
330
17
100
AcDbEntity
  8
B11
100
AcDbText
 10
570927.3028285056
 20
785562.2568006793
 30
12.139811879986823
 40
0.5
  1
B11-101
 72
1
 11
570927.3028285056
 21
785562.2568006793
 31
12.139811879986823
100
AcDbText
 73
2
  0
TEXT
  5
32
330
17
100
AcDbEntity
  8
0
100
AcDbText
 10
570917.3048311503
 20
785549.9763313014
 30
12.152986732700299
 40
0.5
  1
9.208
 11
570917.3048311503
 21
785549.9763313014
 31
12.152986732700299
100
AcDbText
 73
1
  0
CIRCLE
  5
33
330
17
100
AcDbEntity
  8
B11
100
AcDbCircle
 10
570917.3048311503
 20
785549.9763313014
 30
12.152986732700299
 40
0.25
  0
TEXT
  5
34
330
17
100
AcDbEntity
  8
0
100
AcDbText
 10
570937.2936687303
 20
785574.5284790044
 30
12.98722089693213
 40
0.5
  1
10.042
 72
2
 11
570937.2936687303
 21
785574.5284790044
 31
12.98722089693213
100
AcDbText
 73
2
  0
CIRCLE
  5
35
330
17
100
AcDbEntity
  8
B11
100
AcDbCircle
 10
570937.2936687303
 20
785574.5284790044
 30
12.98722089693213
 40
0.25
  0
LINE
  5
36
330
17
100
AcDbEntity
  8
B11
100
AcDbLine
 10
570918.7146667471
 20
785548.1838770504
 30
12.095314468110182
 11
570939.3348031875
 21
785573.5114412166
 31
12.955895392456316
  0
TEXT
  5
37
330
17
100
AcDbEntity
  8
B11
100
AcDbText
 10
570929.0283135189
 20
785560.8520546424
 30
12.095314468110182
 40
0.5
  1
B11-102
 72
1
 11
570929.0283135189
 21
785560.8520546424
 31
12.095314468110182
100
AcDbText
 73
2
  0
TEXT
  5
38
330
17
100
AcDbEntity
  8
0
100
AcDbText
 10
570919.0303455145
 20
785548.5716229927
 30
12.108489314270741
 40
0.5
  1
9.163
 11
570919.0303455145
 21
785548.5716229927
 31
12.108489314270741
100
AcDbText
 73
1
  0
CIRCLE
  5
39
330
17
100
AcDbEntity
  8
B11
100
AcDbCircle
 10
570919.0303455145
 20
785548.5716229927
 30
12.108489314270741
 40
0.25
  0
TEXT
  5
3A
330
17
100
AcDbEntity
  8
0
100
AcDbText
 10
570939.0191244201
 20
785573.1236952742
 30
12.942720546295757
 40
0.5
  1
9.998
 72
2
 11
570939.0191244201
 21
785573.1236952742
 31
12.942720546295757
100
AcDbText
 73
2
  0
CIRCLE
  5
3B
330
17
100
AcDbEntity
  8
B11
100
AcDbCircle
 10
570939.0191244201
 20
785573.1236952742
 30
12.942720546295757
 40
0.25
  0
LINE
  5
3C
330
17
100
AcDbEntity
  8
B11
100
AcDbLine
 10
570920.4401880231
 20
785546.7791631153
 30
12.050817294882787
 11
570941.0602624537
 21
785572.1066545746
 31
12.911395113699731
  0
TEXT
  5
3D
330
17
100
AcDbEntity
  8
B11
100
AcDbText
 10
570930.7538037744
 20
785559.4473043353
 30
12.050817294882787
 40
0.5
  1
B11-103
 72
1
 11
570930.7538037744
 21
785559.4473043353
 31
12.050817294882787
100
AcDbText
 73
2
  0
TEXT
  5
3E
330
17
100
AcDbEntity
  8
0
100
AcDbText
 10
570920.7558667646
 20
785547.1669090788
 30
12.063992132037807
 40
0.5
  1
9.119
 11
570920.7558667646
 21
785547.1669090788
 31
12.063992132037807
100
AcDbText
 73
1
  0
CIRCLE
  5
3F
330
17
100
AcDbEntity
  8
B11
100
AcDbCircle
 10
570920.7558667646
 20
785547.1669090788
 30
12.063992132037807
 40
0.25
  0
TEXT
  5
40
330
17
100
AcDbEntity
  8
0
100
AcDbText
 10
570940.7445837123
 20
785571.7189086111
 30
12.898220276544711
 40
0.5
  1
9.953
 72
2
 11
570940.7445837123
 21
785571.7189086111
 31
12.898220276544711
100
AcDbText
 73
2
  0
CIRCLE
  5
41
330
17
100
AcDbEntity
  8
B11
100
AcDbCircle
 10
570940.7445837123
 20
785571.7189086111
 30
12.898220276544711
 40
0.25
  0
LINE
  5
43
330
17
100
AcDbEntity
  8
B13
100
AcDbLine
 10
571107.0489924921
 20
785661.9253172437
 30
13.45475071767034
 11
571145.2154206964
 21
785649.3327158131
 31
14.85002489742402
  0
TEXT
  5
44
330
17
100
AcDbEntity
  8
B13
100
AcDbText
 10
571126.1437032131
 20
785655.6252233429
 30
13.45475071767034
 40
0.5
  1
B13-307
 72
1
 11
571126.1437032131
 21
785655.6252233429
 31
13.45475071767034
100
AcDbText
 73
2
  0
TEXT
  5
45
330
17
100
AcDbEntity
  8
0
100
AcDbText
 10
571107.5238154049
 20
785661.7686545437
 30
13.472109118265951
 40
0.5
  1
10.527
 11
571107.5238154049
 21
785661.7686545437
 31
13.472109118265951
100
AcDbText
 73
1
  0
CIRCLE
  5
46
330
17
100
AcDbEntity
  8
B13
100
AcDbCircle
 10
571107.5238154049
 20
785661.7686545437
 30
13.472109118265951
 40
0.25
  0
TEXT
  5
47
330
17
100
AcDbEntity
  8
0
100
AcDbText
 10
571144.7405977837
 20
785649.4893785131
 30
14.83266649682841
 40
0.5
  1
11.888
 72
2
 11
571144.7405977837
 21
785649.4893785131
 31
14.83266649682841
100
AcDbText
 73
2
  0
CIRCLE
  5
48
330
17
100
AcDbEntity
  8
B13
100
AcDbCircle
 10
571144.7405977837
 20
785649.4893785131
 30
14.83266649682841
 40
0.25
  0
LINE
  5
49
330
17
100
AcDbEntity
  8
B13
100
AcDbLine
 10
571105.6155289096
 20
785659.2577564474
 30
13.584227478844321
 11
571144.9278054287
 21
785647.6940835078
 31
14.840953130078274
  0
TEXT
  5
4A
330
17
100
AcDbEntity
  8
B13
100
AcDbText
 10
571125.2809088608
 20
785653.4732015418
 30
13.584227478844321
 40
0.5
  1
B13-306
 72
1
 11
571125.2809088608
 21
785653.4732015418
 31
13.584227478844321
100
AcDbText
 73
2
  0
TEXT
  5
4B
330
17
100
AcDbEntity
  8
0
100
AcDbText
 10
571106.0952075688
 20
785659.1166593749
 30
13.59956173391125
 40
0.5
  1
10.655
 11
571106.0952075688
 21
785659.1166593749
 31
13.59956173391125
100
AcDbText
 73
1
  0
CIRCLE
  5
4C
330
17
100
AcDbEntity
  8
B13
100
AcDbCircle
 10
571106.0952075688
 20
785659.1166593749
 30
13.59956173391125
 40
0.25
  0
TEXT
  5
4D
330
17
100
AcDbEntity
  8
0
100
AcDbText
 10
571144.4481267695
 20
785647.8351805803
 30
14.825618875011346
 40
0.5
  1
11.881
 72
2
 11
571144.4481267695
 21
785647.8351805803
 31
14.825618875011346
100
AcDbText
 73
2
  0
CIRCLE
  5
4E
330
17
100
AcDbEntity
  8
B13
100
AcDbCircle
 10
571144.4481267695
 20
785647.8351805803
 30
14.825618875011346
 40
0.25
  0
LINE
  5
4F
330
17
100
AcDbEntity
  8
B13
100
AcDbLine
 10
571104.182102616
 20
785656.5902650428
 30
13.713759976325626
 11
571144.6401665376
 21
785646.0553166148
 31
14.831770717254342
  0
TEXT
  5
50
330
17
100
AcDbEntity
  8
B13
100
AcDbText
 10
571124.4183665655
 20
785651.3209076782
 30
13.713759976325626
 40
0.5
  1
B13-305
 72
1
 11
571124.4183665655
 21
785651.3209076782
 31
13.713759976325626
100
AcDbText
 73
2
  0
TEXT
  5
51
330
17
100
AcDbEntity
  8
0
100
AcDbText
 10
571104.6659676664
 20
785656.4642705474
 30
13.727131014659854
 40
0.5
  1
10.782
 11
571104.6659676664
 21
785656.4642705474
 31
13.727131014659854
100
AcDbText
 73
1
  0
CIRCLE
  5
52
330
17
100
AcDbEntity
  8
B13
100
AcDbCircle
 10
571104.6659676664
 20
785656.4642705474
 30
13.727131014659854
 40
0.25
  0
TEXT
  5
53
330
17
100
AcDbEntity
  8
0
100
AcDbText
 10
571144.1563014871
 20
785646.1813111103
 30
14.818399678920114
 40
0.5
  1
11.873
 72
2
 11
571144.1563014871
 21
785646.1813111103
 31
14.818399678920114
100
AcDbText
 73
2
  0
CIRCLE
  5
54
330
17
100
AcDbEntity
  8
B13
100
AcDbCircle
 10
571144.1563014871
 20
785646.1813111103
 30
14.818399678920114
 40
0.25
  0
LINE
  5
55
330
17
100
AcDbEntity
  8
B13
100
AcDbLine
 10
571103.6874196706
 20
785654.3361809023
 30
13.823332473894327
 11
571144.3522768205
 21
785644.4151206869
 31
14.82247131214337
  0
TEXT
  5
56
330
17
100
AcDbEntity
  8
B13
100
AcDbText
 10
571124.0256398728
 20
785649.3742378035
 30
13.823332473894327
 40
0.5
  1
B13-304
 72
1
 11
571124.0256398728
 21
785649.3742378035
 31
13.823332473894327
100
AcDbText
 73
2
  0
TEXT
  5
57
330
17
100
AcDbEntity
  8
0
100
AcDbText
 10
571104.1731721328
 20
785654.2176712169
 30
13.835267451285446
 40
0.5
  1
10.890
 11
571104.1731721328
 21
785654.2176712169
 31
13.835267451285446
100
AcDbText
 73
1
  0
CIRCLE
  5
58
330
17
100
AcDbEntity
  8
B13
100
AcDbCircle
 10
571104.1731721328
 20
785654.2176712169
 30
13.835267451285446
 40
0.25
  0
TEXT
  5
59
330
17
100
AcDbEntity
  8
0
100
AcDbText
 10
571143.8665243583
 20
785644.5336303723
 30
14.810536334752252
 40
0.5
  1
11.866
 72
2
 11
571143.8665243583
 21
785644.5336303723
 31
14.810536334752252
100
AcDbText
 73
2
  0
CIRCLE
  5
5A
330
17
100
AcDbEntity
  8
B13
100
AcDbCircle
 10
571143.8665243583
 20
785644.5336303723
 30
14.810536334752252
 40
0.25
  0
LINE
  5
5B
330
17
100
AcDbEntity
  8
B13
100
AcDbLine
 10
571103.305823135
 20
785652.0545460061
 30
13.66668108065877
 11
571144.0643866311
 21
785642.7749220697
 31
14.779828042181538
  0
TEXT
  5
5C
330
17
100
AcDbEntity
  8
B13
100
AcDbText
 10
571123.6923292794
 20
785647.413089238
 30
13.66668108065877
 40
0.5
  1
B13-106
 72
1
 11
571123.6923292794
 21
785647.413089238
 31
13.66668108065877
100
AcDbText
 73
2
  0
TEXT
  5
5D
330
17
100
AcDbEntity
  8
0
100
AcDbText
 10
571103.7933473565
 20
785651.9435499099
 30
13.679995733074447
 40
0.5
  1
10.735
 11
571103.7933473565
 21
785651.9435499099
 31
13.679995733074447
100
AcDbText
 73
1
  0
CIRCLE
  5
5E
330
17
100
AcDbEntity
  8
B13
100
AcDbCircle
 10
571103.7933473565
 20
785651.9435499099
 30
13.679995733074447
 40
0.25
  0
TEXT
  5
5F
330
17
100
AcDbEntity
  8
0
100
AcDbText
 10
571143.5768624096
 20
785642.885918166
 30
14.766513389765862
 40
0.5
  1
11.822
 72
2
 11
571143.5768624096
 21
785642.885918166
 31
14.766513389765862
100
AcDbText
 73
2
  0
CIRCLE
  5
60
330
17
100
AcDbEntity
  8
B13
100
AcDbCircle
 10
571143.5768624096
 20
785642.885918166
 30
14.766513389765862
 40
0.25
  0
LINE
  5
61
330
17
100
AcDbEntity
  8
B13
100
AcDbLine
 10
571102.9319845401
 20
785649.8192972455
 30
13.612177070821453
 11
571143.7764790897
 21
785641.1346245924
 31
14.74652044403256
  0
TEXT
  5
62
330
17
100
AcDbEntity
  8
B13
100
AcDbText
 10
571123.361765573
 20
785645.475359033
 30
13.612177070821453
 40
0.5
  1
B13-105
 72
1
 11
571123.361765573
 21
785645.475359033
 31
13.612177070821453
100
AcDbText
 73
2
  0
TEXT
  5
63
330
17
100
AcDbEntity
  8
0
100
AcDbText
 10
571103.4210512596
 20
785649.7153080931
 30
13.625759552341414
 40
0.5
  1
10.681
 11
571103.4210512596
 21
785649.7153080931
 31
13.625759552341414
100
AcDbText
 73
1
  0
CIRCLE
  5
64
330
17
100
AcDbEntity
  8
B13
100
AcDbCircle
 10
571103.4210512596
 20
785649.7153080931
 30
13.625759552341414
 40
0.25
  0
TEXT
  5
65
330
17
100
AcDbEntity
  8
0
100
AcDbText
 10
571143.2874123702
 20
785641.2386137447
 30
14.7329379625126
 40
0.5
  1
11.788
 72
2
 11
571143.2874123702
 21
785641.2386137447
 31
14.7329379625126
100
AcDbText
 73
2
  0
CIRCLE
  5
66
330
17
100
AcDbEntity
  8
B13
100
AcDbCircle
 10
571143.2874123702
 20
785641.2386137447
 30
14.7329379625126
 40
0.25
  0
LINE
  5
67
330
17
100
AcDbEntity
  8
B13
100
AcDbLine
 10
571102.5581458075
 20
785647.5840476605
 30
13.557674224627021
 11
571143.4885717445
 21
785639.4943282326
 31
14.713213497953967
  0
TEXT
  5
68
330
17
100
AcDbEntity
  8
B13
100
AcDbText
 10
571123.0312063912
 20
785643.5376368997
 30
13.557674224627021
 40
0.5
  1
B13-104
 72
1
 11
571123.0312063912
 21
785643.5376368997
 31
13.557674224627021
100
AcDbText
 73
2
  0
TEXT
  5
69
330
17
100
AcDbEntity
  8
0
100
AcDbText
 10
571103.0486569742
 20
785647.4871002766
 30
13.571522233883472
 40
0.5
  1
10.627
 11
571103.0486569742
 21
785647.4871002766
 31
13.571522233883472
100
AcDbText
 73
1
  0
CIRCLE
  5
6A
330
17
100
AcDbEntity
  8
B13
100
AcDbCircle
 10
571103.0486569742
 20
785647.4871002766
 30
13.571522233883472
 40
0.25
  0
TEXT
  5
6B
330
17
100
AcDbEntity
  8
0
100
AcDbText
 10
571142.9980605778
 20
785639.5912756164
 30
14.699365488697516
 40
0.5
  1
11.754
 72
2
 11
571142.9980605778
 21
785639.5912756164
 31
14.699365488697516
100
AcDbText
 73
2
  0
CIRCLE
  5
6C
330
17
100
AcDbEntity
  8
B13
100
AcDbCircle
 10
571142.9980605778
 20
785639.5912756164
 30
14.699365488697516
 40
0.25
  0
LINE
  5
6E
330
17
100
AcDbEntity
  8
B14
100
AcDbLine
 10
571145.4678216963
 20
785648.283429019
 30
14.85848026394558
 11
571189.8630638239
 21
785639.9656585169
 31
16.14950158395968
  0
TEXT
  5
6F
330
17
100
AcDbEntity
  8
B14
100
AcDbText
 10
571167.6745083961
 20
785644.1228452553
 30
14.85848026394558
 40
0.5
  1
B14-309
 72
1
 11
571167.6745083961
 21
785644.1228452553
 31
14.85848026394558
100
AcDbText
 73
2
  0
TEXT
  5
70
330
17
100
AcDbEntity
  8
0
100
AcDbText
 10
571145.9592704922
 20
785648.1913525239
 30
14.87277167993637
 40
0.5
  1
11.928
 11
571145.9592704922
 21
785648.1913525239
 31
14.87277167993637
100
AcDbText
 73
1
  0
CIRCLE
  5
71
330
17
100
AcDbEntity
  8
B14
100
AcDbCircle
 10
571145.9592704922
 20
785648.1913525239
 30
14.87277167993637
 40
0.25
  0
LINE
  5
72
330
17
100
AcDbEntity
  8
B14
100
AcDbLine
 10
571145.0065816978
 20
785645.6556034245
 30
14.842335570621879
 11
571189.4351730109
 21
785637.52783345
 31
16.099999739127934
  0
TEXT
  5
73
330
17
100
AcDbEntity
  8
B14
100
AcDbText
 10
571167.2294878081
 20
785641.5901432402
 30
14.842335570621879
 40
0.5
  1
B14-308
 72
1
 11
571167.2294878081
 21
785641.5901432402
 31
14.842335570621879
100
AcDbText
 73
2
  0
TEXT
  5
74
330
17
100
AcDbEntity
  8
0
100
AcDbText
 10
571145.4984192477
 20
785645.5656266246
 30
14.856258282212293
 40
0.5
  1
11.911
 11
571145.4984192477
 21
785645.5656266246
 31
14.856258282212293
100
AcDbText
 73
1
  0
CIRCLE
  5
75
330
17
100
AcDbEntity
  8
B14
100
AcDbCircle
 10
571145.4984192477
 20
785645.5656266246
 30
14.856258282212293
 40
0.25
  0
LINE
  5
76
330
17
100
AcDbEntity
  8
B14
100
AcDbLine
 10
571144.5453416993
 20
785643.0277778301
 30
14.798511742602251
 11
571189.0073165687
 21
785635.090204206
 31
16.05050187062199
  0
TEXT
  5
77
330
17
100
AcDbEntity
  8
B14
100
AcDbText
 10
571166.7848688648
 20
785639.0574664627
 30
14.798511742602251
 40
0.5
  1
B14-108
 72
1
 11
571166.7848688648
 21
785639.0574664627
 31
14.798511742602251
100
AcDbText
 73
2
  0
TEXT
  5
78
330
17
100
AcDbEntity
  8
0
100
AcDbText
 10
571145.0375594421
 20
785642.9399046624
 30
14.8123719401469
 40
0.5
  1
11.867
 11
571145.0375594421
 21
785642.9399046624
 31
14.8123719401469
100
AcDbText
 73
1
  0
CIRCLE
  5
79
330
17
100
AcDbEntity
  8
B14
100
AcDbCircle
 10
571145.0375594421
 20
785642.9399046624
 30
14.8123719401469
 40
0.25
  0
LINE
  5
7A
330
17
100
AcDbEntity
  8
B14
100
AcDbLine
 10
571144.084101716
 20
785640.3999523235
 30
14.74515198138453
 11
571188.5794945615
 21
785632.6527711464
 31
16.001008096463195
  0
TEXT
  5
7B
330
17
100
AcDbEntity
  8
B14
100
AcDbText
 10
571166.3403971952
 20
785636.5248645361
 30
14.74515198138453
 40
0.5
  1
B14-107
 72
1
 11
571166.3403971952
 21
785636.5248645361
 31
14.74515198138453
100
AcDbText
 73
2
  0
TEXT
  5
7C
330
17
100
AcDbEntity
  8
0
100
AcDbText
 10
571144.5766910417
 20
785640.3141866182
 30
14.759055023415018
 40
0.5
  1
11.814
 11
571144.5766910417
 21
785640.3141866182
 31
14.759055023415018
100
AcDbText
 73
1
  0
CIRCLE
  5
7D
330
17
100
AcDbEntity
  8
B14
100
AcDbCircle
 10
571144.5766910417
 20
785640.3141866182
 30
14.759055023415018
 40
0.25
  0
LINE
  5
7E
330
17
100
AcDbEntity
  8
B14
100
AcDbLine
 10
571190.3545448841
 20
785639.8735759767
 30
16.163386802725817
 11
571234.0670126806
 21
785631.6837281956
 31
17.404891721244685
  0
TEXT
  5
7F
330
17
100
AcDbEntity
  8
B14
100
AcDbText
 10
571212.2192933682
 20
785635.7770568167
 30
16.163386802725817
 40
0.5
  1
B14-504
 72
1
 11
571212.2192933682
 21
785635.7770568167
 31
16.163386802725817
100
AcDbText
 73
2
  0
TEXT
  5
80
330
17
100
AcDbEntity
  8
0
100
AcDbText
 10
571190.1088204861
 20
785639.9196142243
 30
16.156407831643673
 40
0.5
  1
13.211
 72
1
 11
571190.1088204861
 21
785639.9196142243
 31
16.156407831643673
100
AcDbText
 73
1
  0
CIRCLE
  5
81
330
17
100
AcDbEntity
  8
B14
100
AcDbCircle
 10
571190.1088204861
 20
785639.9196142243
 30
16.156407831643673
 40
0.25
  0
LINE
  5
82
330
17
100
AcDbEntity
  8
B14
100
AcDbLine
 10
571189.9270232659
 20
785637.4378543256
 30
16.113927669310385
 11
571233.6381748336
 21
785629.4413328344
 31
17.35922442391213
  0
TEXT
  5
83
330
17
100
AcDbEntity
  8
B14
100
AcDbText
 10
571211.7911795297
 20
785633.4380238664
 30
16.113927669310385
 40
0.5
  1
B14-503
 72
1
 11
571211.7911795297
 21
785633.4380238664
 31
16.113927669310385
100
AcDbText
 73
2
  0
TEXT
  5
84
330
17
100
AcDbEntity
  8
0
100
AcDbText
 10
571189.6811044909
 20
785637.4828427256
 30
16.106921634434844
 40
0.5
  1
13.162
 72
1
 11
571189.6811044909
 21
785637.4828427256
 31
16.106921634434844
100
AcDbText
 73
1
  0
CIRCLE
  5
85
330
17
100
AcDbEntity
  8
B14
100
AcDbCircle
 10
571189.6811044909
 20
785637.4828427256
 30
16.106921634434844
 40
0.25
  0
LINE
  5
86
330
17
100
AcDbEntity
  8
B14
100
AcDbLine
 10
571189.4995363991
 20
785635.0023306656
 30
16.06447286311374
 11
571233.209355752
 21
785627.1990355978
 31
17.31355950073798
  0
TEXT
  5
87
330
17
100
AcDbEntity
  8
B14
100
AcDbText
 10
571211.363092464
 20
785631.0991395353
 30
16.06447286311374
 40
0.5
  1
B14-502
 72
1
 11
571211.363092464
 21
785631.0991395353
 31
16.06447286311374
100
AcDbText
 73
2
  0
TEXT
  5
88
330
17
100
AcDbEntity
  8
0
100
AcDbText
 10
571189.2534275277
 20
785635.0462672494
 30
16.057439859837462
 40
0.5
  1
13.112
 72
1
 11
571189.2534275277
 21
785635.0462672494
 31
16.057439859837462
100
AcDbText
 73
1
  0
CIRCLE
  5
89
330
17
100
AcDbEntity
  8
B14
100
AcDbCircle
 10
571189.2534275277
 20
785635.0462672494
 30
16.057439859837462
 40
0.25
  0
LINE
  5
8A
330
17
100
AcDbEntity
  8
B14
100
AcDbLine
 10
571189.0720843481
 20
785632.5670053608
 30
16.01502177780354
 11
571232.7805554743
 21
785624.9568366866
 31
17.267896593547466
  0
TEXT
  5
8B
330
17
100
AcDbEntity
  8
B14
100
AcDbText
 10
571210.9350322183
 20
785628.7604041066
 30
16.01502177780354
 40
0.5
  1
B14-501
 72
1
 11
571210.9350322183
 21
785628.7604041066
 31
16.01502177780354
100
AcDbText
 73
2
  0
TEXT
  5
8C
330
17
100
AcDbEntity
  8
0
100
AcDbText
 10
571188.8257896852
 20
785632.6098882136
 30
16.007961901940092
 40
0.5
  1
13.063
 72
1
 11
571188.8257896852
 21
785632.6098882136
 31
16.007961901940092
100
AcDbText
 73
1
  0
CIRCLE
  5
8D
330
17
100
AcDbEntity
  8
B14
100
AcDbCircle
 10
571188.8257896852
 20
785632.6098882136
 30
16.007961901940092
 40
0.25
  0
LINE
  5
8E
330
17
100
AcDbEntity
  8
B14
100
AcDbLine
 10
571234.5584649311
 20
785631.591651053
 30
17.418939507904508
 11
571278.2624771938
 21
785623.4033874779
 31
18.675984556459305
  0
TEXT
  5
8F
330
17
100
AcDbEntity
  8
B14
100
AcDbText
 10
571256.4192017848
 20
785627.4958835014
 30
17.418939507904508
 40
0.5
  1
B14-508
 72
1
 11
571256.4192017848
 21
785627.4958835014
 31
17.418939507904508
100
AcDbText
 73
2
  0
TEXT
  5
90
330
17
100
AcDbEntity
  8
0
100
AcDbText
 10
571234.3127405331
 20
785631.6376893007
 30
17.411871812702476
 40
0.5
  1
14.467
 72
1
 11
571234.3127405331
 21
785631.6376893007
 31
17.411871812702476
100
AcDbText
 73
1
  0
CIRCLE
  5
91
330
17
100
AcDbEntity
  8
B14
100
AcDbCircle
 10
571234.3127405331
 20
785631.6376893007
 30
17.411871812702476
 40
0.25
  0
TEXT
  5
92
330
17
100
AcDbEntity
  8
0
100
AcDbText
 10
571277.771028398
 20
785623.495463973
 30
18.66184916605524
 40
0.5
  1
15.717
 72
2
 11
571277.771028398
 21
785623.495463973
 31
18.66184916605524
100
AcDbText
 73
1
  0
CIRCLE
  5
93
330
17
100
AcDbEntity
  8
B14
100
AcDbCircle
 10
571277.771028398
 20
785623.495463973
 30
18.66184916605524
 40
0.25
  0
LINE
  5
94
330
17
100
AcDbEntity
  8
B14
100
AcDbLine
 10
571234.1300282022
 20
785629.3513531405
 30
17.373327644487134
 11
571277.832578053
 21
785621.3564052478
 31
18.634143331707385
  0
TEXT
  5
95
330
17
100
AcDbEntity
  8
B14
100
AcDbText
 10
571255.990100488
 20
785625.3522698043
 30
17.373327644487134
 40
0.5
  1
B14-507
 72
1
 11
571255.990100488
 21
785625.3522698043
 31
17.373327644487134
100
AcDbText
 73
2
  0
TEXT
  5
96
330
17
100
AcDbEntity
  8
0
100
AcDbText
 10
571233.8841094272
 20
785629.3963415405
 30
17.366232904013412
 40
0.5
  1
14.421
 72
1
 11
571233.8841094272
 21
785629.3963415405
 31
17.366232904013412
100
AcDbText
 73
1
  0
CIRCLE
  5
97
330
17
100
AcDbEntity
  8
B14
100
AcDbCircle
 10
571233.8841094272
 20
785629.3963415405
 30
17.366232904013412
 40
0.25
  0
TEXT
  5
98
330
17
100
AcDbEntity
  8
0
100
AcDbText
 10
571277.3407405032
 20
785621.4463820477
 30
18.61995385075994
 40
0.5
  1
15.675
 72
2
 11
571277.3407405032
 21
785621.4463820477
 31
18.61995385075994
100
AcDbText
 73
1
  0
CIRCLE
  5
99
330
17
100
AcDbEntity
  8
B14
100
AcDbCircle
 10
571277.3407405032
 20
785621.4463820477
 30
18.61995385075994
 40
0.25
  0
LINE
  5
9A
330
17
100
AcDbEntity
  8
B14
100
AcDbLine
 10
571233.7016107043
 20
785627.1111557873
 30
17.327718580830567
 11
571277.402678912
 21
785619.3094230177
 31
18.59230173904104
  0
TEXT
  5
9B
330
17
100
AcDbEntity
  8
B14
100
AcDbText
 10
571255.5610087967
 20
785623.208706959
 30
17.327718580830567
 40
0.5
  1
B14-506
 72
1
 11
571255.5610087967
 21
785623.208706959
 31
17.327718580830567
100
AcDbText
 73
2
  0
TEXT
  5
9C
330
17
100
AcDbEntity
  8
0
100
AcDbText
 10
571233.4555018329
 20
785627.155092371
 30
17.32059689830264
 40
0.5
  1
14.376
 72
1
 11
571233.4555018329
 21
785627.155092371
 31
17.32059689830264
100
AcDbText
 73
1
  0
CIRCLE
  5
9D
330
17
100
AcDbEntity
  8
B14
100
AcDbCircle
 10
571233.4555018329
 20
785627.155092371
 30
17.32059689830264
 40
0.25
  0
TEXT
  5
9E
330
17
100
AcDbEntity
  8
0
100
AcDbText
 10
571276.9104611692
 20
785619.3972961854
 30
18.57805837398519
 40
0.5
  1
15.633
 72
2
 11
571276.9104611692
 21
785619.3972961854
 31
18.57805837398519
100
AcDbText
 73
1
  0
CIRCLE
  5
9F
330
17
100
AcDbEntity
  8
B14
100
AcDbCircle
 10
571276.9104611692
 20
785619.3972961854
 30
18.57805837398519
 40
0.25
  0
LINE
  5
A0
330
17
100
AcDbEntity
  8
B14
100
AcDbLine
 10
571233.2732124766
 20
785624.8710591978
 30
17.28211106268599
 11
571276.9727797712
 21
785617.2624407875
 31
18.550459605903317
  0
TEXT
  5
A1
330
17
100
AcDbEntity
  8
B14
100
AcDbText
 10
571255.1319267383
 20
785621.0651950657
 30
17.28211106268599
 40
0.5
  1
B14-505
 72
1
 11
571255.1319267383
 21
785621.0651950657
 31
17.28211106268599
100
AcDbText
 73
2
  0
TEXT
  5
A2
330
17
100
AcDbEntity
  8
0
100
AcDbText
 10
571233.0269178138
 20
785624.9139420505
 30
17.27496253705602
 40
0.5
  1
14.330
 72
1
 11
571233.0269178138
 21
785624.9139420505
 31
17.27496253705602
100
AcDbText
 73
1
  0
CIRCLE
  5
A3
330
17
100
AcDbEntity
  8
B14
100
AcDbCircle
 10
571233.0269178138
 20
785624.9139420505
 30
17.27496253705602
 40
0.25
  0
TEXT
  5
A4
330
17
100
AcDbEntity
  8
0
100
AcDbText
 10
571276.4801904456
 20
785617.3482064928
 30
18.536162554643376
 40
0.5
  1
15.591
 72
2
 11
571276.4801904456
 21
785617.3482064928
 31
18.536162554643376
100
AcDbText
 73
1
  0
CIRCLE
  5
A5
330
17
100
AcDbEntity
  8
B14
100
AcDbCircle
 10
571276.4801904456
 20
785617.3482064928
 30
18.536162554643376
 40
0.25
  0
LINE
  5
A7
330
17
100
AcDbEntity
  8
B21
100
AcDbLine
 10
570911.2115759318
 20
785554.2920000695
 30
12.385518091362957
 11
570931.8319729525
 21
785579.6198877605
 31
14.345142539786707
  0
TEXT
  5
A8
330
17
100
AcDbEntity
  8
B21
100
AcDbText
 10
570921.5403161191
 20
785566.9787185255
 30
12.385518091362957
 40
0.5
  1
B21-201
 72
1
 11
570921.5403161191
 21
785566.9787185255
 31
12.385518091362957
100
AcDbText
 73
2
  0
TEXT
  5
A9
330
17
100
AcDbEntity
  8
0
100
AcDbText
 10
570911.5272546732
 20
785554.679746033
 30
12.415518085009333
 40
0.5
  1
9.471
 11
570911.5272546732
 21
785554.679746033
 31
12.415518085009333
100
AcDbText
 73
1
  0
CIRCLE
  5
AA
330
17
100
AcDbEntity
  8
B21
100
AcDbCircle
 10
570911.5272546732
 20
785554.679746033
 30
12.415518085009333
 40
0.25
  0
TEXT
  5
AB
330
17
100
AcDbEntity
  8
0
100
AcDbText
 10
570931.516294211
 20
785579.232141797
 30
14.315142546140331
 40
0.5
  1
11.370
 72
2
 11
570931.516294211
 21
785579.232141797
 31
14.315142546140331
100
AcDbText
 73
2
  0
CIRCLE
  5
AC
330
17
100
AcDbEntity
  8
B21
100
AcDbCircle
 10
570931.516294211
 20
785579.232141797
 30
14.315142546140331
 40
0.25
  0
LINE
  5
AD
330
17
100
AcDbEntity
  8
B21
100
AcDbLine
 10
570912.9370902665
 20
785552.8872917853
 30
12.430022719982937
 11
570933.5574304532
 21
785578.215102556
 31
14.389641996974959
  0
TEXT
  5
AE
330
17
100
AcDbEntity
  8
B21
100
AcDbText
 10
570923.2658019963
 20
785565.5739717251
 30
12.430022719982937
 40
0.5
  1
B21-202
 72
1
 11
570923.2658019963
 21
785565.5739717251
 31
12.430022719982937
100
AcDbText
 73
2
  0
TEXT
  5
AF
330
17
100
AcDbEntity
  8
0
100
AcDbText
 10
570913.2527690612
 20
785553.2750377054
 30
12.46002272221132
 40
0.5
  1
9.515
 11
570913.2527690612
 21
785553.2750377054
 31
12.46002272221132
100
AcDbText
 73
1
  0
CIRCLE
  5
B0
330
17
100
AcDbEntity
  8
B21
100
AcDbCircle
 10
570913.2527690612
 20
785553.2750377054
 30
12.46002272221132
 40
0.25
  0
TEXT
  5
B1
330
17
100
AcDbEntity
  8
0
100
AcDbText
 10
570933.2417516585
 20
785577.827356636
 30
14.359641994746575
 40
0.5
  1
11.415
 72
2
 11
570933.2417516585
 21
785577.827356636
 31
14.359641994746575
100
AcDbText
 73
2
  0
CIRCLE
  5
B2
330
17
100
AcDbEntity
  8
B21
100
AcDbCircle
 10
570933.2417516585
 20
785577.827356636
 30
14.359641994746575
 40
0.25
  0
LINE
  5
B3
330
17
100
AcDbEntity
  8
B21
100
AcDbLine
 10
570914.662604601
 20
785551.482583501
 30
12.47452743931713
 11
570935.2828879536
 21
785576.8103173516
 31
14.434140220451278
  0
TEXT
  5
B4
330
17
100
AcDbEntity
  8
B21
100
AcDbText
 10
570924.9912878482
 20
785564.1692248938
 30
12.47452743931713
 40
0.5
  1
B21-203
 72
1
 11
570924.9912878482
 21
785564.1692248938
 31
12.47452743931713
100
AcDbText
 73
2
  0
TEXT
  5
B5
330
17
100
AcDbEntity
  8
0
100
AcDbText
 10
570914.9782834491
 20
785551.8703293777
 30
12.504527429851796
 40
0.5
  1
9.560
 11
570914.9782834491
 21
785551.8703293777
 31
12.504527429851796
100
AcDbText
 73
1
  0
CIRCLE
  5
B6
330
17
100
AcDbEntity
  8
B21
100
AcDbCircle
 10
570914.9782834491
 20
785551.8703293777
 30
12.504527429851796
 40
0.25
  0
TEXT
  5
B7
330
17
100
AcDbEntity
  8
0
100
AcDbText
 10
570934.9672091055
 20
785576.4225714749
 30
14.404140229916612
 40
0.5
  1
11.459
 72
2
 11
570934.9672091055
 21
785576.4225714749
 31
14.404140229916612
100
AcDbText
 73
2
  0
CIRCLE
  5
B8
330
17
100
AcDbEntity
  8
B21
100
AcDbCircle
 10
570934.9672091055
 20
785576.4225714749
 30
14.404140229916612
 40
0.25
  0
LINE
  5
BA
330
17
100
AcDbEntity
  8
B23
100
AcDbLine
 10
571117.9717795667
 20
785664.56070625
 30
22.790803698083074
 11
571146.9675869191
 21
785658.4244044329
 31
22.356348812454236
  0
TEXT
  5
BB
330
17
100
AcDbEntity
  8
B23
100
AcDbText
 10
571132.4712407981
 20
785661.4922257203
 30
22.790803698083074
 40
0.5
  1
B23-206
 72
1
 11
571132.4712407981
 21
785661.4922257203
 31
22.790803698083074
100
AcDbText
 73
2
  0
TEXT
  5
BC
330
17
100
AcDbEntity
  8
0
100
AcDbText
 10
571118.4609456264
 20
785664.4571854015
 30
22.783474342431084
 40
0.5
  1
19.838
 11
571118.4609456264
 21
785664.4571854015
 31
22.783474342431084
100
AcDbText
 73
1
  0
CIRCLE
  5
BD
330
17
100
AcDbEntity
  8
B23
100
AcDbCircle
 10
571118.4609456264
 20
785664.4571854015
 30
22.783474342431084
 40
0.25
  0
LINE
  5
BE
330
17
100
AcDbEntity
  8
B23
100
AcDbLine
 10
571117.5111155282
 20
785662.3839164942
 30
22.835303764767
 11
571146.5069229787
 21
785656.2476151414
 31
22.40084878620961
  0
TEXT
  5
BF
330
17
100
AcDbEntity
  8
B23
100
AcDbText
 10
571132.0105768094
 20
785659.3154361966
 30
22.835303764767
 40
0.5
  1
B23-205
 72
1
 11
571132.0105768094
 21
785659.3154361966
 31
22.835303764767
100
AcDbText
 73
2
  0
TEXT
  5
C0
330
17
100
AcDbEntity
  8
0
100
AcDbText
 10
571118.0002815895
 20
785662.2803956536
 30
22.827974407547252
 40
0.5
  1
19.883
 11
571118.0002815895
 21
785662.2803956536
 31
22.827974407547252
100
AcDbText
 73
1
  0
CIRCLE
  5
C1
330
17
100
AcDbEntity
  8
B23
100
AcDbCircle
 10
571118.0002815895
 20
785662.2803956536
 30
22.827974407547252
 40
0.25
  0
LINE
  5
C2
330
17
100
AcDbEntity
  8
B23
100
AcDbLine
 10
571117.0504514894
 20
785660.2071267386
 30
22.879803297192606
 11
571146.0462590383
 21
785654.0708258499
 31
22.4453488768347
  0
TEXT
  5
C3
330
17
100
AcDbEntity
  8
B23
100
AcDbText
 10
571131.5499128158
 20
785657.1386466739
 30
22.879803297192606
 40
0.5
  1
B23-204
 72
1
 11
571131.5499128158
 21
785657.1386466739
 31
22.879803297192606
100
AcDbText
 73
2
  0
TEXT
  5
C4
330
17
100
AcDbEntity
  8
0
100
AcDbText
 10
571117.5396175524
 20
785660.1036059058
 30
22.872473949389853
 40
0.5
  1
19.927
 11
571117.5396175524
 21
785660.1036059058
 31
22.872473949389853
100
AcDbText
 73
1
  0
CIRCLE
  5
C5
330
17
100
AcDbEntity
  8
B23
100
AcDbCircle
 10
571117.5396175524
 20
785660.1036059058
 30
22.872473949389853
 40
0.25
  0
LINE
  5
C6
330
17
100
AcDbEntity
  8
B23
100
AcDbLine
 10
571147.4567529787
 20
785658.3208835843
 30
22.349019497962328
 11
571190.9925322883
 21
785649.107528066
 31
21.696706818103944
  0
TEXT
  5
C7
330
17
100
AcDbEntity
  8
B23
100
AcDbText
 10
571169.2269812264
 20
785653.7137109153
 30
22.349019497962328
 40
0.5
  1
B23-209
 72
1
 11
571169.2269812264
 21
785653.7137109153
 31
22.349019497962328
100
AcDbText
 73
2
  0
TEXT
  5
C8
330
17
100
AcDbEntity
  8
0
100
AcDbText
 10
571147.2121699488
 20
785658.3726440086
 30
22.35268417593906
 40
0.5
  1
19.408
 72
1
 11
571147.2121699488
 21
785658.3726440086
 31
22.35268417593906
100
AcDbText
 73
1
  0
CIRCLE
  5
C9
330
17
100
AcDbEntity
  8
B23
100
AcDbCircle
 10
571147.2121699488
 20
785658.3726440086
 30
22.35268417593906
 40
0.25
  0
LINE
  5
CA
330
17
100
AcDbEntity
  8
B23
100
AcDbLine
 10
571146.9960890401
 20
785656.1440943007
 30
22.393519471541342
 11
571190.5318684971
 21
785646.9307394793
 31
21.741206777477977
  0
TEXT
  5
CB
330
17
100
AcDbEntity
  8
B23
100
AcDbText
 10
571168.7663173616
 20
785651.5369219801
 30
22.393519471541342
 40
0.5
  1
B23-208
 72
1
 11
571168.7663173616
 21
785651.5369219801
 31
22.393519471541342
100
AcDbText
 73
2
  0
TEXT
  5
CC
330
17
100
AcDbEntity
  8
0
100
AcDbText
 10
571146.7515060094
 20
785656.195854721
 30
22.397184149597877
 40
0.5
  1
19.452
 72
1
 11
571146.7515060094
 21
785656.195854721
 31
22.397184149597877
100
AcDbText
 73
1
  0
CIRCLE
  5
CD
330
17
100
AcDbEntity
  8
B23
100
AcDbCircle
 10
571146.7515060094
 20
785656.195854721
 30
22.397184149597877
 40
0.25
  0
LINE
  5
CE
330
17
100
AcDbEntity
  8
B23
100
AcDbLine
 10
571146.5354251013
 20
785653.967305017
 30
22.43801946187771
 11
571190.071204706
 21
785644.7539508924
 31
21.785706753570132
  0
TEXT
  5
CF
330
17
100
AcDbEntity
  8
B23
100
AcDbText
 10
571168.3056534968
 20
785649.3601330449
 30
22.43801946187771
 40
0.5
  1
B23-207
 72
1
 11
571168.3056534968
 21
785649.3601330449
 31
22.43801946187771
100
AcDbText
 73
2
  0
TEXT
  5
D0
330
17
100
AcDbEntity
  8
0
100
AcDbText
 10
571146.2908420698
 20
785654.0190654335
 30
22.441684140014253
 40
0.5
  1
19.497
 72
1
 11
571146.2908420698
 21
785654.0190654335
 31
22.441684140014253
100
AcDbText
 73
1
  0
CIRCLE
  5
D1
330
17
100
AcDbEntity
  8
B23
100
AcDbCircle
 10
571146.2908420698
 20
785654.0190654335
 30
22.441684140014253
 40
0.25
  0
LINE
  5
D2
330
17
100
AcDbEntity
  8
B23
100
AcDbLine
 10
571191.4816983481
 20
785649.0040072174
 30
21.689377403478304
 11
571235.5940534775
 21
785639.668632567
 31
21.028425674936788
  0
TEXT
  5
D3
330
17
100
AcDbEntity
  8
B23
100
AcDbText
 10
571213.5402454773
 20
785644.3358184278
 30
21.689377403478304
 40
0.5
  1
B23-212
 72
1
 11
571213.5402454773
 21
785644.3358184278
 31
21.689377403478304
100
AcDbText
 73
2
  0
TEXT
  5
D4
330
17
100
AcDbEntity
  8
0
100
AcDbText
 10
571191.2371153182
 20
785649.0557676416
 30
21.693042081454877
 40
0.5
  1
18.748
 72
1
 11
571191.2371153182
 21
785649.0557676416
 31
21.693042081454877
100
AcDbText
 73
1
  0
CIRCLE
  5
D5
330
17
100
AcDbEntity
  8
B23
100
AcDbCircle
 10
571191.2371153182
 20
785649.0557676416
 30
21.693042081454877
 40
0.25
  0
LINE
  5
D6
330
17
100
AcDbEntity
  8
B23
100
AcDbLine
 10
571191.0210345585
 20
785646.8272186386
 30
21.73387744600949
 11
571235.1760364837
 21
785637.4828195042
 31
21.072286554998108
  0
TEXT
  5
D7
330
17
100
AcDbEntity
  8
B23
100
AcDbText
 10
571213.1009073778
 20
785642.1545171221
 30
21.73387744600949
 40
0.5
  1
B23-211
 72
1
 11
571213.1009073778
 21
785642.1545171221
 31
21.73387744600949
100
AcDbText
 73
2
  0
TEXT
  5
D8
330
17
100
AcDbEntity
  8
0
100
AcDbText
 10
571190.7764515278
 20
785646.8789790589
 30
21.737542124938805
 40
0.5
  1
18.793
 72
1
 11
571190.7764515278
 21
785646.8789790589
 31
21.737542124938805
100
AcDbText
 73
1
  0
CIRCLE
  5
D9
330
17
100
AcDbEntity
  8
B23
100
AcDbCircle
 10
571190.7764515278
 20
785646.8789790589
 30
21.737542124938805
 40
0.25
  0
LINE
  5
DA
330
17
100
AcDbEntity
  8
B23
100
AcDbLine
 10
571190.560370769
 20
785644.6504300596
 30
21.77837742193997
 11
571234.75801949
 21
785635.2970064424
 31
21.11614744332934
  0
TEXT
  5
DB
330
17
100
AcDbEntity
  8
B23
100
AcDbText
 10
571212.6615692776
 20
785639.9732158168
 30
21.77837742193997
 40
0.5
  1
B23-210
 72
1
 11
571212.6615692776
 21
785639.9732158168
 31
21.77837742193997
100
AcDbText
 73
2
  0
TEXT
  5
DC
330
17
100
AcDbEntity
  8
0
100
AcDbText
 10
571190.3157877375
 20
785644.7021904761
 30
21.78204210140588
 40
0.5
  1
18.837
 72
1
 11
571190.3157877375
 21
785644.7021904761
 31
21.78204210140588
100
AcDbText
 73
1
  0
CIRCLE
  5
DD
330
17
100
AcDbEntity
  8
B23
100
AcDbCircle
 10
571190.3157877375
 20
785644.7021904761
 30
21.78204210140588
 40
0.25
  0
LINE
  5
DE
330
17
100
AcDbEntity
  8
B23
100
AcDbLine
 10
571236.0833134229
 20
785639.5650918497
 30
21.021095157936244
 11
571279.717373918
 21
785630.3309373581
 31
20.41623869027537
  0
TEXT
  5
DF
330
17
100
AcDbEntity
  8
B23
100
AcDbText
 10
571257.9023498588
 20
785634.9475900398
 30
21.021095157936244
 40
0.5
  1
B23-215
 72
1
 11
571257.9023498588
 21
785634.9475900398
 31
21.021095157936244
100
AcDbText
 73
2
  0
TEXT
  5
E0
330
17
100
AcDbEntity
  8
0
100
AcDbText
 10
571235.838730393
 20
785639.6168522739
 30
21.02448557417973
 40
0.5
  1
18.079
 72
1
 11
571235.838730393
 21
785639.6168522739
 31
21.02448557417973
100
AcDbText
 73
1
  0
CIRCLE
  5
E1
330
17
100
AcDbEntity
  8
B23
100
AcDbCircle
 10
571235.838730393
 20
785639.6168522739
 30
21.02448557417973
 40
0.25
  0
TEXT
  5
E2
330
17
100
AcDbEntity
  8
0
100
AcDbText
 10
571279.2282078584
 20
785630.4344582066
 30
20.423019522762345
 40
0.5
  1
17.478
 72
2
 11
571279.2282078584
 21
785630.4344582066
 31
20.423019522762345
100
AcDbText
 73
1
  0
CIRCLE
  5
E3
330
17
100
AcDbEntity
  8
B23
100
AcDbCircle
 10
571279.2282078584
 20
785630.4344582066
 30
20.423019522762345
 40
0.25
  0
LINE
  5
E4
330
17
100
AcDbEntity
  8
B23
100
AcDbLine
 10
571235.6652964306
 20
785637.3792787947
 30
21.064955975293188
 11
571279.2600645805
 21
785628.1534403617
 31
20.460709323633967
  0
TEXT
  5
E5
330
17
100
AcDbEntity
  8
B23
100
AcDbText
 10
571257.4646844552
 20
785632.765935488
 30
21.064955975293188
 40
0.5
  1
B23-214
 72
1
 11
571257.4646844552
 21
785632.765935488
 31
21.064955975293188
100
AcDbText
 73
2
  0
TEXT
  5
E6
330
17
100
AcDbEntity
  8
0
100
AcDbText
 10
571235.4207133999
 20
785637.4310392151
 30
21.068346026063026
 40
0.5
  1
18.123
 72
1
 11
571235.4207133999
 21
785637.4310392151
 31
21.068346026063026
100
AcDbText
 73
1
  0
CIRCLE
  5
E7
330
17
100
AcDbEntity
  8
B23
100
AcDbCircle
 10
571235.4207133999
 20
785637.4310392151
 30
21.068346026063026
 40
0.25
  0
TEXT
  5
E8
330
17
100
AcDbEntity
  8
0
100
AcDbText
 10
571278.7708985192
 20
785628.2569612024
 30
20.467489425173646
 40
0.5
  1
17.522
 72
2
 11
571278.7708985192
 21
785628.2569612024
 31
20.467489425173646
100
AcDbText
 73
1
  0
CIRCLE
  5
E9
330
17
100
AcDbEntity
  8
B23
100
AcDbCircle
 10
571278.7708985192
 20
785628.2569612024
 30
20.467489425173646
 40
0.25
  0
LINE
  5
EA
330
17
100
AcDbEntity
  8
B23
100
AcDbLine
 10
571235.2472794385
 20
785635.193465741
 30
21.108816926077875
 11
571278.8027552428
 21
785625.9759433653
 31
20.505180039335038
  0
TEXT
  5
EB
330
17
100
AcDbEntity
  8
B23
100
AcDbText
 10
571257.0270190521
 20
785630.5842809366
 30
21.108816926077875
 40
0.5
  1
B23-213
 72
1
 11
571257.0270190521
 21
785630.5842809366
 31
21.108816926077875
100
AcDbText
 73
2
  0
TEXT
  5
EC
330
17
100
AcDbEntity
  8
0
100
AcDbText
 10
571235.002696407
 20
785635.2452261575
 30
21.112206611001533
 40
0.5
  1
18.167
 72
1
 11
571235.002696407
 21
785635.2452261575
 31
21.112206611001533
100
AcDbText
 73
1
  0
CIRCLE
  5
ED
330
17
100
AcDbEntity
  8
B23
100
AcDbCircle
 10
571235.002696407
 20
785635.2452261575
 30
21.112206611001533
 40
0.25
  0
TEXT
  5
EE
330
17
100
AcDbEntity
  8
0
100
AcDbText
 10
571278.3135891798
 20
785626.0794641981
 30
20.511959409182353
 40
0.5
  1
17.567
 72
2
 11
571278.3135891798
 21
785626.0794641981
 31
20.511959409182353
100
AcDbText
 73
1
  0
CIRCLE
  5
EF
330
17
100
AcDbEntity
  8
B23
100
AcDbCircle
 10
571278.3135891798
 20
785626.0794641981
 30
20.511959409182353
 40
0.25
  0
LINE
  5
F1
330
17
100
AcDbEntity
  8
B31
100
AcDbLine
 10
571098.2673739222
 20
785782.144550913
 30
11.697120901010166
 11
571122.0173829835
 21
785811.4813961776
 31
10.284926227695538
  0
TEXT
  5
F2
330
17
100
AcDbEntity
  8
B31
100
AcDbText
 10
571110.1506867785
 20
785796.8232362809
 30
11.697120901010166
 40
0.5
  1
B31-303
 72
1
 11
571110.1506867785
 21
785796.8232362809
 31
11.697120901010166
100
AcDbText
 73
2
  0
TEXT
  5
F3
330
17
100
AcDbEntity
  8
0
100
AcDbText
 10
571098.5819821138
 20
785782.5331659999
 30
11.678414044469507
 40
0.5
  1
8.733
 11
571098.5819821138
 21
785782.5331659999
 31
11.678414044469507
100
AcDbText
 73
1
  0
CIRCLE
  5
F4
330
17
100
AcDbEntity
  8
B31
100
AcDbCircle
 10
571098.5819821138
 20
785782.5331659999
 30
11.678414044469507
 40
0.25
  0
TEXT
  5
F5
330
17
100
AcDbEntity
  8
0
100
AcDbText
 10
571121.7027747919
 20
785811.0927810906
 30
10.303633084236196
 40
0.5
  1
7.359
 72
2
 11
571121.7027747919
 21
785811.0927810906
 31
10.303633084236196
100
AcDbText
 73
2
  0
CIRCLE
  5
F6
330
17
100
AcDbEntity
  8
B31
100
AcDbCircle
 10
571121.7027747919
 20
785811.0927810906
 30
10.303633084236196
 40
0.25
  0
LINE
  5
F7
330
17
100
AcDbEntity
  8
B31
100
AcDbLine
 10
571096.5006336892
 20
785783.5585490043
 30
11.674491618544636
 11
571120.2919976797
 21
785812.8861289246
 31
10.240427056173795
  0
TEXT
  5
F8
330
17
100
AcDbEntity
  8
B31
100
AcDbText
 10
571108.4048896029
 20
785798.2329080213
 30
11.674491618544636
 40
0.5
  1
B31-302
 72
1
 11
571108.4048896029
 21
785798.2329080213
 31
11.674491618544636
100
AcDbText
 73
2
  0
TEXT
  5
F9
330
17
100
AcDbEntity
  8
0
100
AcDbText
 10
571096.8156324772
 20
785783.9468475538
 30
11.655504535702175
 40
0.5
  1
8.711
 11
571096.8156324772
 21
785783.9468475538
 31
11.655504535702175
100
AcDbText
 73
1
  0
CIRCLE
  5
FA
330
17
100
AcDbEntity
  8
B31
100
AcDbCircle
 10
571096.8156324772
 20
785783.9468475538
 30
11.655504535702175
 40
0.25
  0
TEXT
  5
FB
330
17
100
AcDbEntity
  8
0
100
AcDbText
 10
571119.9769988918
 20
785812.497830375
 30
10.259414139016256
 40
0.5
  1
7.314
 72
2
 11
571119.9769988918
 21
785812.497830375
 31
10.259414139016256
100
AcDbText
 73
2
  0
CIRCLE
  5
FC
330
17
100
AcDbEntity
  8
B31
100
AcDbCircle
 10
571119.9769988918
 20
785812.497830375
 30
10.259414139016256
 40
0.25
  0
LINE
  5
FD
330
17
100
AcDbEntity
  8
B31
100
AcDbLine
 10
571094.7305510287
 20
785784.9752221842
 30
11.651823009382776
 11
571118.5666224113
 21
785814.2908535015
 31
10.195928038020844
  0
TEXT
  5
FE
330
17
100
AcDbEntity
  8
B31
100
AcDbText
 10
571106.6574313141
 20
785799.6439156783
 30
11.651823009382776
 40
0.5
  1
B31-301
 72
1
 11
571106.6574313141
 21
785799.6439156783
 31
11.651823009382776
100
AcDbText
 73
2
  0
TEXT
  5
FF
330
17
100
AcDbEntity
  8
0
100
AcDbText
 10
571095.045983796
 20
785785.363168275
 30
11.63255653831315
 40
0.5
  1
8.688
 11
571095.045983796
 21
785785.363168275
 31
11.63255653831315
100
AcDbText
 73
1
  0
CIRCLE
  5
100
330
17
100
AcDbEntity
  8
B31
100
AcDbCircle
 10
571095.045983796
 20
785785.363168275
 30
11.63255653831315
 40
0.25
  0
TEXT
  5
101
330
17
100
AcDbEntity
  8
0
100
AcDbText
 10
571118.251189644
 20
785813.9029074108
 30
10.21519450909047
 40
0.5
  1
7.270
 72
2
 11
571118.251189644
 21
785813.9029074108
 31
10.21519450909047
100
AcDbText
 73
2
  0
CIRCLE
  5
102
330
17
100
AcDbEntity
  8
B31
100
AcDbCircle
 10
571118.251189644
 20
785813.9029074108
 30
10.21519450909047
 40
0.25
  0
LINE
  5
104
330
17
100
AcDbEntity
  8
B42
100
AcDbLine
 10
571151.9707987356
 20
785675.3038656214
 30
19.606568631997636
 11
571194.7178084458
 21
785663.2750944454
 31
20.580713843947184
  0
TEXT
  5
105
330
17
100
AcDbEntity
  8
B42
100
AcDbText
 10
571173.3494456183
 20
785669.2880330954
 30
19.606568631997636
 40
0.5
  1
B42-403
 72
1
 11
571173.3494456183
 21
785669.2880330954
 31
19.606568631997636
100
AcDbText
 73
2
  0
TEXT
  5
106
330
17
100
AcDbEntity
  8
0
100
AcDbText
 10
571152.4521060812
 20
785675.1684284069
 30
19.617536960527705
 40
0.5
  1
16.673
 11
571152.4521060812
 21
785675.1684284069
 31
19.617536960527705
100
AcDbText
 73
1
  0
CIRCLE
  5
107
330
17
100
AcDbEntity
  8
B42
100
AcDbCircle
 10
571152.4521060812
 20
785675.1684284069
 30
19.617536960527705
 40
0.25
  0
LINE
  5
108
330
17
100
AcDbEntity
  8
B42
100
AcDbLine
 10
571151.2975390058
 20
785673.0742181146
 30
19.670817796652354
 11
571194.1015098272
 21
785661.0666688198
 31
20.62657028976054
  0
TEXT
  5
109
330
17
100
AcDbEntity
  8
B42
100
AcDbText
 10
571172.7044697828
 20
785667.0690561723
 30
19.670817796652354
 40
0.5
  1
B42-402
 72
1
 11
571172.7044697828
 21
785667.0690561723
 31
19.670817796652354
100
AcDbText
 73
2
  0
TEXT
  5
10A
330
17
100
AcDbEntity
  8
0
100
AcDbText
 10
571151.7789554365
 20
785672.9391691597
 30
19.68156714875863
 40
0.5
  1
16.737
 11
571151.7789554365
 21
785672.9391691597
 31
19.68156714875863
100
AcDbText
 73
1
  0
CIRCLE
  5
10B
330
17
100
AcDbEntity
  8
B42
100
AcDbCircle
 10
571151.7789554365
 20
785672.9391691597
 30
19.68156714875863
 40
0.25
  0
LINE
  5
10C
330
17
100
AcDbEntity
  8
B42
100
AcDbLine
 10
571150.6242792428
 20
785670.8445704983
 30
19.73507463596042
 11
571193.4852047655
 21
785658.8582201055
 31
20.672427571931493
  0
TEXT
  5
10D
330
17
100
AcDbEntity
  8
B42
100
AcDbText
 10
571172.0594946349
 20
785664.8500661963
 30
19.73507463596042
 40
0.5
  1
B42-401
 72
1
 11
571172.0594946349
 21
785664.8500661963
 31
19.73507463596042
100
AcDbText
 73
2
  0
TEXT
  5
10E
330
17
100
AcDbEntity
  8
0
100
AcDbText
 10
571151.1058041336
 20
785670.7099087758
 30
19.74560541112758
 40
0.5
  1
16.801
 11
571151.1058041336
 21
785670.7099087758
 31
19.74560541112758
100
AcDbText
 73
1
  0
CIRCLE
  5
10F
330
17
100
AcDbEntity
  8
B42
100
AcDbCircle
 10
571151.1058041336
 20
785670.7099087758
 30
19.74560541112758
 40
0.25
  0
LINE
  5
110
330
17
100
AcDbEntity
  8
B42
100
AcDbLine
 10
571195.199116912
 20
785663.1396569156
 30
20.587351591977566
 11
571238.0355704123
 21
785651.0857167538
 31
20.802971440465363
  0
TEXT
  5
111
330
17
100
AcDbEntity
  8
B42
100
AcDbText
 10
571216.617595086
 20
785657.1126160854
 30
20.587351591977566
 40
0.5
  1
B42-406
 72
1
 11
571216.617595086
 21
785657.1126160854
 31
20.587351591977566
100
AcDbText
 73
2
  0
TEXT
  5
112
330
17
100
AcDbEntity
  8
0
100
AcDbText
 10
571194.9584632391
 20
785663.2073755228
 30
20.58614024733473
 40
0.5
  1
17.641
 72
1
 11
571194.9584632391
 21
785663.2073755228
 31
20.58614024733473
100
AcDbText
 73
1
  0
CIRCLE
  5
113
330
17
100
AcDbEntity
  8
B42
100
AcDbCircle
 10
571194.9584632391
 20
785663.2073755228
 30
20.58614024733473
 40
0.25
  0
LINE
  5
114
330
17
100
AcDbEntity
  8
B42
100
AcDbLine
 10
571194.5829266974
 20
785660.9316197418
 30
20.63319996783683
 11
571237.4290281575
 21
785648.9122517837
 31
20.84810156305714
  0
TEXT
  5
115
330
17
100
AcDbEntity
  8
B42
100
AcDbText
 10
571216.006227236
 20
785654.9218656854
 30
20.63319996783683
 40
0.5
  1
B42-405
 72
1
 11
571216.006227236
 21
785654.9218656854
 31
20.63319996783683
100
AcDbText
 73
2
  0
TEXT
  5
116
330
17
100
AcDbEntity
  8
0
100
AcDbText
 10
571194.342218482
 20
785660.9991442193
 30
20.63199265660656
 40
0.5
  1
17.687
 72
1
 11
571194.342218482
 21
785660.9991442193
 31
20.63199265660656
100
AcDbText
 73
1
  0
CIRCLE
  5
117
330
17
100
AcDbEntity
  8
B42
100
AcDbCircle
 10
571194.342218482
 20
785660.9991442193
 30
20.63199265660656
 40
0.25
  0
LINE
  5
118
330
17
100
AcDbEntity
  8
B42
100
AcDbLine
 10
571193.9667297283
 20
785658.7235583629
 30
20.679049186097455
 11
571236.822451422
 21
785646.7386632565
 31
20.893234303427963
  0
TEXT
  5
119
330
17
100
AcDbEntity
  8
B42
100
AcDbText
 10
571215.3948387768
 20
785652.7310413984
 30
20.679049186097455
 40
0.5
  1
B42-404
 72
1
 11
571215.3948387768
 21
785652.7310413984
 31
20.679049186097455
100
AcDbText
 73
2
  0
TEXT
  5
11A
330
17
100
AcDbEntity
  8
0
100
AcDbText
 10
571193.7259672829
 20
785658.7908892243
 30
20.677845899101484
 40
0.5
  1
17.733
 72
1
 11
571193.7259672829
 21
785658.7908892243
 31
20.677845899101484
100
AcDbText
 73
1
  0
CIRCLE
  5
11B
330
17
100
AcDbEntity
  8
B42
100
AcDbCircle
 10
571193.7259672829
 20
785658.7908892243
 30
20.677845899101484
 40
0.25
  0
LINE
  5
11C
330
17
100
AcDbEntity
  8
B42
100
AcDbLine
 10
571238.5168788786
 20
785650.9502792238
 30
20.801179085084286
 11
571281.5071553002
 21
785638.8530541462
 31
20.353800972859055
  0
TEXT
  5
11D
330
17
100
AcDbEntity
  8
B42
100
AcDbText
 10
571260.0130955725
 20
785644.9013632059
 30
20.801179085084286
 40
0.5
  1
B42-409
 72
1
 11
571260.0130955725
 21
785644.9013632059
 31
20.801179085084286
100
AcDbText
 73
2
  0
TEXT
  5
11E
330
17
100
AcDbEntity
  8
0
100
AcDbText
 10
571238.2762252057
 20
785651.0179978311
 30
20.80368344641424
 40
0.5
  1
17.859
 72
1
 11
571238.2762252057
 21
785651.0179978311
 31
20.80368344641424
100
AcDbText
 73
1
  0
CIRCLE
  5
11F
330
17
100
AcDbEntity
  8
B42
100
AcDbCircle
 10
571238.2762252057
 20
785651.0179978311
 30
20.80368344641424
 40
0.25
  0
TEXT
  5
120
330
17
100
AcDbEntity
  8
0
100
AcDbText
 10
571281.0258479547
 20
785638.9884913607
 30
20.358809695518964
 40
0.5
  1
17.414
 72
2
 11
571281.0258479547
 21
785638.9884913607
 31
20.358809695518964
100
AcDbText
 73
1
  0
CIRCLE
  5
121
330
17
100
AcDbEntity
  8
B42
100
AcDbCircle
 10
571281.0258479547
 20
785638.9884913607
 30
20.358809695518964
 40
0.25
  0
LINE
  5
122
330
17
100
AcDbEntity
  8
B42
100
AcDbLine
 10
571237.9104450278
 20
785648.7772027055
 30
20.84630115687259
 11
571281.0498459628
 21
785636.6755571496
 31
20.396943517077375
  0
TEXT
  5
123
330
17
100
AcDbEntity
  8
B42
100
AcDbText
 10
571259.4812302737
 20
785642.726075621
 30
20.84630115687259
 40
0.5
  1
B42-408
 72
1
 11
571259.4812302737
 21
785642.726075621
 31
20.84630115687259
100
AcDbText
 73
2
  0
TEXT
  5
124
330
17
100
AcDbEntity
  8
0
100
AcDbText
 10
571237.6697368124
 20
785648.8447271829
 30
20.848808472069244
 40
0.5
  1
17.904
 72
1
 11
571237.6697368124
 21
785648.8447271829
 31
20.848808472069244
100
AcDbText
 73
1
  0
CIRCLE
  5
125
330
17
100
AcDbEntity
  8
B42
100
AcDbCircle
 10
571237.6697368124
 20
785648.8447271829
 30
20.848808472069244
 40
0.25
  0
TEXT
  5
126
330
17
100
AcDbEntity
  8
0
100
AcDbText
 10
571280.568429532
 20
785636.8106061044
 30
20.401958147470683
 40
0.5
  1
17.457
 72
2
 11
571280.568429532
 21
785636.8106061044
 31
20.401958147470683
100
AcDbText
 73
1
  0
CIRCLE
  5
127
330
17
100
AcDbEntity
  8
B42
100
AcDbCircle
 10
571280.568429532
 20
785636.8106061044
 30
20.401958147470683
 40
0.25
  0
LINE
  5
128
330
17
100
AcDbEntity
  8
B42
100
AcDbLine
 10
571237.3039763848
 20
785646.6040015137
 30
20.89142583115079
 11
571280.5925366251
 21
785634.4980601533
 31
20.44009398400817
  0
TEXT
  5
129
330
17
100
AcDbEntity
  8
B42
100
AcDbText
 10
571258.9493475567
 20
785640.5507257135
 30
20.89142583115079
 40
0.5
  1
B42-407
 72
1
 11
571258.9493475567
 21
785640.5507257135
 31
20.89142583115079
100
AcDbText
 73
2
  0
TEXT
  5
12A
330
17
100
AcDbEntity
  8
0
100
AcDbText
 10
571237.0632139394
 20
785646.671332375
 30
20.89393604998464
 40
0.5
  1
17.949
 72
1
 11
571237.0632139394
 21
785646.671332375
 31
20.89393604998464
100
AcDbText
 73
1
  0
CIRCLE
  5
12B
330
17
100
AcDbEntity
  8
B42
100
AcDbCircle
 10
571237.0632139394
 20
785646.671332375
 30
20.89393604998464
 40
0.25
  0
TEXT
  5
12C
330
17
100
AcDbEntity
  8
0
100
AcDbText
 10
571280.1110117343
 20
785634.6327218759
 30
20.445114421675864
 40
0.5
  1
17.500
 72
2
 11
571280.1110117343
 21
785634.6327218759
 31
20.445114421675864
100
AcDbText
 73
1
  0
CIRCLE
  5
12D
330
17
100
AcDbEntity
  8
B42
100
AcDbCircle
 10
571280.1110117343
 20
785634.6327218759
 30
20.445114421675864
 40
0.25
  0
LINE
  5
12F
330
17
100
AcDbEntity
  8
B51
100
AcDbLine
 10
571278.771363142
 20
785623.2964524735
 30
18.690550640347016
 11
571317.1921781531
 21
785614.261533016
 31
19.791049410052096
  0
TEXT
  5
130
330
17
100
AcDbEntity
  8
B51
100
AcDbText
 10
571297.9892367293
 20
785618.7772370442
 30
18.690550640347016
 40
0.5
  1
B51-512
 72
1
 11
571297.9892367293
 21
785618.7772370442
 31
18.690550640347016
100
AcDbText
 73
2
  0
TEXT
  5
131
330
17
100
AcDbEntity
  8
0
100
AcDbText
 10
571279.258086613
 20
785623.1819960946
 30
18.70449200470886
 40
0.5
  1
15.759
 11
571279.258086613
 21
785623.1819960946
 31
18.70449200470886
100
AcDbText
 73
1
  0
CIRCLE
  5
132
330
17
100
AcDbEntity
  8
B51
100
AcDbCircle
 10
571279.258086613
 20
785623.1819960946
 30
18.70449200470886
 40
0.25
  0
LINE
  5
133
330
17
100
AcDbEntity
  8
B51
100
AcDbLine
 10
571278.3414698074
 20
785621.2494978908
 30
18.64872162317743
 11
571316.7297924513
 21
785612.2222404571
 31
19.749221835849408
  0
TEXT
  5
134
330
17
100
AcDbEntity
  8
B51
100
AcDbText
 10
571297.5431035495
 20
785616.7341119869
 30
18.64872162317743
 40
0.5
  1
B51-511
 72
1
 11
571297.5431035495
 21
785616.7341119869
 31
18.64872162317743
100
AcDbText
 73
2
  0
TEXT
  5
135
330
17
100
AcDbEntity
  8
0
100
AcDbText
 10
571278.8281933385
 20
785621.1350417669
 30
18.662674807702373
 40
0.5
  1
15.718
 11
571278.8281933385
 21
785621.1350417669
 31
18.662674807702373
100
AcDbText
 73
1
  0
CIRCLE
  5
136
330
17
100
AcDbEntity
  8
B51
100
AcDbCircle
 10
571278.8281933385
 20
785621.1350417669
 30
18.662674807702373
 40
0.25
  0
LINE
  5
137
330
17
100
AcDbEntity
  8
B51
100
AcDbLine
 10
571277.9115764729
 20
785619.202543308
 30
18.60689244987837
 11
571316.2674067498
 21
785610.1829478986
 31
19.707394221363675
  0
TEXT
  5
138
330
17
100
AcDbEntity
  8
B51
100
AcDbText
 10
571297.0969703821
 20
785614.6909869271
 30
18.60689244987837
 40
0.5
  1
B51-510
 72
1
 11
571297.0969703821
 21
785614.6909869271
 31
18.60689244987837
100
AcDbText
 73
2
  0
TEXT
  5
139
330
17
100
AcDbEntity
  8
0
100
AcDbText
 10
571278.398300064
 20
785619.0880874395
 30
18.620857476065733
 40
0.5
  1
15.676
 11
571278.398300064
 21
785619.0880874395
 31
18.620857476065733
100
AcDbText
 73
1
  0
CIRCLE
  5
13A
330
17
100
AcDbEntity
  8
B51
100
AcDbCircle
 10
571278.398300064
 20
785619.0880874395
 30
18.620857476065733
 40
0.25
  0
LINE
  5
13B
330
17
100
AcDbEntity
  8
B51
100
AcDbLine
 10
571277.4816831386
 20
785617.1555887252
 30
18.565064213910752
 11
571315.8050210483
 21
785608.1436553394
 31
19.66556586851933
  0
TEXT
  5
13C
330
17
100
AcDbEntity
  8
B51
100
AcDbText
 10
571296.6508372029
 20
785612.6478618697
 30
18.565064213910752
 40
0.5
  1
B51-509
 72
1
 11
571296.6508372029
 21
785612.6478618697
 31
18.565064213910752
100
AcDbText
 73
2
  0
TEXT
  5
13D
330
17
100
AcDbEntity
  8
0
100
AcDbText
 10
571277.9684067899
 20
785617.0411331125
 30
18.579041080561318
 40
0.5
  1
15.634
 11
571277.9684067899
 21
785617.0411331125
 31
18.579041080561318
100
AcDbText
 73
1
  0
CIRCLE
  5
13E
330
17
100
AcDbEntity
  8
B51
100
AcDbCircle
 10
571277.9684067899
 20
785617.0411331125
 30
18.579041080561318
 40
0.25
  0
LINE
  5
13F
330
17
100
AcDbEntity
  8
B51
100
AcDbLine
 10
571317.6789171698
 20
785614.1470729816
 30
19.805417835841155
 11
571356.0995574881
 21
785605.1121946042
 31
20.985417064639996
  0
TEXT
  5
140
330
17
100
AcDbEntity
  8
B51
100
AcDbText
 10
571336.8978208685
 20
785609.6276153144
 30
19.805417835841155
 40
0.5
  1
B51-516
 72
1
 11
571336.8978208685
 21
785609.6276153144
 31
19.805417835841155
100
AcDbText
 73
2
  0
TEXT
  5
141
330
17
100
AcDbEntity
  8
0
100
AcDbText
 10
571317.4355554342
 20
785614.204301171
 30
19.797943554884405
 40
0.5
  1
16.853
 72
1
 11
571317.4355554342
 21
785614.204301171
 31
19.797943554884405
100
AcDbText
 73
1
  0
CIRCLE
  5
142
330
17
100
AcDbEntity
  8
B51
100
AcDbCircle
 10
571317.4355554342
 20
785614.204301171
 30
19.797943554884405
 40
0.25
  0
LINE
  5
143
330
17
100
AcDbEntity
  8
B51
100
AcDbLine
 10
571317.2165315261
 20
785612.107780678
 30
19.76360209546617
 11
571355.6046454868
 21
785603.0805723178
 31
20.94359033778219
  0
TEXT
  5
144
330
17
100
AcDbEntity
  8
B51
100
AcDbText
 10
571336.4191791578
 20
785607.5921563518
 30
19.76360209546617
 40
0.5
  1
B51-515
 72
1
 11
571336.4191791578
 21
785607.5921563518
 31
19.76360209546617
100
AcDbText
 73
2
  0
TEXT
  5
145
330
17
100
AcDbEntity
  8
0
100
AcDbText
 10
571316.9731697605
 20
785612.1650087399
 30
19.756121550257475
 40
0.5
  1
16.811
 72
1
 11
571316.9731697605
 21
785612.1650087399
 31
19.756121550257475
100
AcDbText
 73
1
  0
CIRCLE
  5
146
330
17
100
AcDbEntity
  8
B51
100
AcDbCircle
 10
571316.9731697605
 20
785612.1650087399
 30
19.756121550257475
 40
0.25
  0
LINE
  5
147
330
17
100
AcDbEntity
  8
B51
100
AcDbLine
 10
571316.7541458824
 20
785610.0684883753
 30
19.721786270274343
 11
571355.1097334852
 21
785601.0489500319
 31
20.901763725095382
  0
TEXT
  5
148
330
17
100
AcDbEntity
  8
B51
100
AcDbText
 10
571335.9405374619
 20
785605.5566973863
 30
19.721786270274343
 40
0.5
  1
B51-514
 72
1
 11
571335.9405374619
 21
785605.5566973863
 31
19.721786270274343
100
AcDbText
 73
2
  0
TEXT
  5
149
330
17
100
AcDbEntity
  8
0
100
AcDbText
 10
571316.5107840869
 20
785610.1257163095
 30
19.7142994489251
 40
0.5
  1
16.769
 72
1
 11
571316.5107840869
 21
785610.1257163095
 31
19.7142994489251
100
AcDbText
 73
1
  0
CIRCLE
  5
14A
330
17
100
AcDbEntity
  8
B51
100
AcDbCircle
 10
571316.5107840869
 20
785610.1257163095
 30
19.7142994489251
 40
0.25
  0
LINE
  5
14B
330
17
100
AcDbEntity
  8
B51
100
AcDbLine
 10
571316.291760239
 20
785608.0291960724
 30
19.67997111019559
 11
571354.6148214838
 21
785599.0173277456
 31
20.859937744466517
  0
TEXT
  5
14C
330
17
100
AcDbEntity
  8
B51
100
AcDbText
 10
571335.4618957778
 20
785603.5212384178
 30
19.67997111019559
 40
0.5
  1
B51-513
 72
1
 11
571335.4618957778
 21
785603.5212384178
 31
19.67997111019559
100
AcDbText
 73
2
  0
TEXT
  5
14D
330
17
100
AcDbEntity
  8
0
100
AcDbText
 10
571316.0483984135
 20
785608.0864238788
 30
19.672478002260547
 40
0.5
  1
16.727
 72
1
 11
571316.0483984135
 21
785608.0864238788
 31
19.672478002260547
100
AcDbText
 73
1
  0
CIRCLE
  5
14E
330
17
100
AcDbEntity
  8
B51
100
AcDbCircle
 10
571316.0483984135
 20
785608.0864238788
 30
19.672478002260547
 40
0.25
  0
LINE
  5
14F
330
17
100
AcDbEntity
  8
B51
100
AcDbLine
 10
571356.5862964944
 20
785604.9977345723
 30
21.000945877806647
 11
571395.007027934
 21
785595.962834767
 31
22.27224399098704
  0
TEXT
  5
150
330
17
100
AcDbEntity
  8
B51
100
AcDbText
 10
571375.8066250082
 20
785600.47794185
 30
21.000945877806647
 40
0.5
  1
B51-520
 72
1
 11
571375.8066250082
 21
785600.47794185
 31
21.000945877806647
100
AcDbText
 73
2
  0
TEXT
  5
151
330
17
100
AcDbEntity
  8
0
100
AcDbText
 10
571356.3429347588
 20
785605.0549627617
 30
20.99289331598281
 40
0.5
  1
18.048
 72
1
 11
571356.3429347588
 21
785605.0549627617
 31
20.99289331598281
100
AcDbText
 73
1
  0
CIRCLE
  5
152
330
17
100
AcDbEntity
  8
B51
100
AcDbCircle
 10
571356.3429347588
 20
785605.0549627617
 30
20.99289331598281
 40
0.25
  0
TEXT
  5
153
330
17
100
AcDbEntity
  8
0
100
AcDbText
 10
571394.5203044629
 20
785596.0772911458
 30
22.256138867339363
 40
0.5
  1
19.311
 72
2
 11
571394.5203044629
 21
785596.0772911458
 31
22.256138867339363
100
AcDbText
 73
1
  0
CIRCLE
  5
154
330
17
100
AcDbEntity
  8
B51
100
AcDbCircle
 10
571394.5203044629
 20
785596.0772911458
 30
22.256138867339363
 40
0.25
  0
LINE
  5
155
330
17
100
AcDbEntity
  8
B51
100
AcDbLine
 10
571356.0913845547
 20
785602.9661125403
 30
20.95913228977227
 11
571394.4794961248
 21
785593.9389047425
 31
22.230404625314442
  0
TEXT
  5
156
330
17
100
AcDbEntity
  8
B51
100
AcDbText
 10
571375.2954111934
 20
785598.4501639319
 30
20.95913228977227
 40
0.5
  1
B51-519
 72
1
 11
571375.2954111934
 21
785598.4501639319
 31
20.95913228977227
100
AcDbText
 73
2
  0
TEXT
  5
157
330
17
100
AcDbEntity
  8
0
100
AcDbText
 10
571355.8480227892
 20
785603.0233406023
 30
20.951073047798666
 40
0.5
  1
18.006
 72
1
 11
571355.8480227892
 21
785603.0233406023
 31
20.951073047798666
100
AcDbText
 73
1
  0
CIRCLE
  5
158
330
17
100
AcDbEntity
  8
B51
100
AcDbCircle
 10
571355.8480227892
 20
785603.0233406023
 30
20.951073047798666
 40
0.25
  0
TEXT
  5
159
330
17
100
AcDbEntity
  8
0
100
AcDbText
 10
571393.9927725937
 20
785594.0533608664
 30
22.21428614136723
 40
0.5
  1
19.269
 72
2
 11
571393.9927725937
 21
785594.0533608664
 31
22.21428614136723
100
AcDbText
 73
1
  0
CIRCLE
  5
15A
330
17
100
AcDbEntity
  8
B51
100
AcDbCircle
 10
571393.9927725937
 20
785594.0533608664
 30
22.21428614136723
 40
0.25
  0
LINE
  5
15B
330
17
100
AcDbEntity
  8
B51
100
AcDbLine
 10
571355.5964726154
 20
785600.9344905091
 30
20.917318377152153
 11
571393.9519643155
 21
785591.9149747179
 31
22.18856526534126
  0
TEXT
  5
15C
330
17
100
AcDbEntity
  8
B51
100
AcDbText
 10
571374.7841973975
 20
785596.4223860098
 30
20.917318377152153
 40
0.5
  1
B51-518
 72
1
 11
571374.7841973975
 21
785596.4223860098
 31
20.917318377152153
100
AcDbText
 73
2
  0
TEXT
  5
15D
330
17
100
AcDbEntity
  8
0
100
AcDbText
 10
571355.3531108198
 20
785600.9917184433
 30
20.909252441569052
 40
0.5
  1
17.964
 72
1
 11
571355.3531108198
 21
785600.9917184433
 31
20.909252441569052
100
AcDbText
 73
1
  0
CIRCLE
  5
15E
330
17
100
AcDbEntity
  8
B51
100
AcDbCircle
 10
571355.3531108198
 20
785600.9917184433
 30
20.909252441569052
 40
0.25
  0
TEXT
  5
15F
330
17
100
AcDbEntity
  8
0
100
AcDbText
 10
571393.4652407244
 20
785592.0294305864
 30
22.17243339417506
 40
0.5
  1
19.227
 72
2
 11
571393.4652407244
 21
785592.0294305864
 31
22.17243339417506
100
AcDbText
 73
1
  0
CIRCLE
  5
160
330
17
100
AcDbEntity
  8
B51
100
AcDbCircle
 10
571393.4652407244
 20
785592.0294305864
 30
22.17243339417506
 40
0.25
  0
LINE
  5
161
330
17
100
AcDbEntity
  8
B51
100
AcDbLine
 10
571355.1015606762
 20
785598.9028684783
 30
20.87550492506603
 11
571393.4244325063
 21
785589.8910446936
 31
22.146727040175918
  0
TEXT
  5
162
330
17
100
AcDbEntity
  8
B51
100
AcDbText
 10
571374.2729836262
 20
785594.3946080825
 30
20.87550492506603
 40
0.5
  1
B51-517
 72
1
 11
571374.2729836262
 21
785594.3946080825
 31
20.87550492506603
100
AcDbText
 73
2
  0
TEXT
  5
163
330
17
100
AcDbEntity
  8
0
100
AcDbText
 10
571354.8581988506
 20
785598.9600962847
 30
20.86743228019491
 40
0.5
  1
17.922
 72
1
 11
571354.8581988506
 21
785598.9600962847
 31
20.86743228019491
100
AcDbText
 73
1
  0
CIRCLE
  5
164
330
17
100
AcDbEntity
  8
B51
100
AcDbCircle
 10
571354.8581988506
 20
785598.9600962847
 30
20.86743228019491
 40
0.25
  0
TEXT
  5
165
330
17
100
AcDbEntity
  8
0
100
AcDbText
 10
571392.937708855
 20
785590.0055003064
 30
22.130581750433684
 40
0.5
  1
19.186
 72
2
 11
571392.937708855
 21
785590.0055003064
 31
22.130581750433684
100
AcDbText
 73
1
  0
CIRCLE
  5
166
330
17
100
AcDbEntity
  8
B51
100
AcDbCircle
 10
571392.937708855
 20
785590.0055003064
 30
22.130581750433684
 40
0.25
  0
LINE
  5
168
330
17
100
AcDbEntity
  8
B52
100
AcDbLine
 10
571282.0090808993
 20
785638.712977156
 30
20.34929452437196
 11
571320.1986917149
 21
785627.521373692
 31
20.321986613779895
  0
TEXT
  5
169
330
17
100
AcDbEntity
  8
B52
100
AcDbText
 10
571301.1038908027
 20
785633.1171741065
 30
20.34929452437196
 40
0.5
  1
B52-412
 72
1
 11
571301.1038908027
 21
785633.1171741065
 31
20.34929452437196
100
AcDbText
 73
2
  0
TEXT
  5
16A
330
17
100
AcDbEntity
  8
0
100
AcDbText
 10
571282.4889016248
 20
785638.5723639583
 30
20.34895142316739
 40
0.5
  1
17.404
 11
571282.4889016248
 21
785638.5723639583
 31
20.34895142316739
100
AcDbText
 73
1
  0
CIRCLE
  5
16B
330
17
100
AcDbEntity
  8
B52
100
AcDbCircle
 10
571282.4889016248
 20
785638.5723639583
 30
20.34895142316739
 40
0.25
  0
LINE
  5
16C
330
17
100
AcDbEntity
  8
B52
100
AcDbLine
 10
571281.3372519666
 20
785635.5140363902
 30
20.412720002129426
 11
571319.5951752947
 21
785624.8596422833
 31
20.377403534553057
  0
TEXT
  5
16D
330
17
100
AcDbEntity
  8
B52
100
AcDbText
 10
571300.4662211944
 20
785630.1868372303
 30
20.412720002129426
 40
0.5
  1
B52-411
 72
1
 11
571300.4662211944
 21
785630.1868372303
 31
20.412720002129426
100
AcDbText
 73
2
  0
TEXT
  5
16E
330
17
100
AcDbEntity
  8
0
100
AcDbText
 10
571281.8189225277
 20
785635.3798966476
 30
20.412275364750432
 40
0.5
  1
17.467
 11
571281.8189225277
 21
785635.3798966476
 31
20.412275364750432
100
AcDbText
 73
1
  0
CIRCLE
  5
16F
330
17
100
AcDbEntity
  8
B52
100
AcDbCircle
 10
571281.8189225277
 20
785635.3798966476
 30
20.412275364750432
 40
0.25
  0
LINE
  5
170
330
17
100
AcDbEntity
  8
B52
100
AcDbLine
 10
571280.665423034
 20
785632.3150956242
 30
20.476162692371812
 11
571318.991554306
 21
785622.1974496896
 31
20.432836864349188
  0
TEXT
  5
171
330
17
100
AcDbEntity
  8
B52
100
AcDbText
 10
571299.8285001167
 20
785627.256269635
 30
20.476162692371812
 40
0.5
  1
B52-410
 72
1
 11
571299.8285001167
 21
785627.256269635
 31
20.476162692371812
100
AcDbText
 73
2
  0
TEXT
  5
172
330
17
100
AcDbEntity
  8
0
100
AcDbText
 10
571281.1488613678
 20
785632.1874736146
 30
20.475616188839677
 40
0.5
  1
17.531
 11
571281.1488613678
 21
785632.1874736146
 31
20.475616188839677
100
AcDbText
 73
1
  0
CIRCLE
  5
173
330
17
100
AcDbEntity
  8
B52
100
AcDbCircle
 10
571281.1488613678
 20
785632.1874736146
 30
20.475616188839677
 40
0.25
  0
LINE
  5
174
330
17
100
AcDbEntity
  8
B52
100
AcDbLine
 10
571279.9935941013
 20
785629.1161548584
 30
20.434458723309074
 11
571318.3878284745
 21
785619.5347946993
 31
20.426791044428295
  0
TEXT
  5
175
330
17
100
AcDbEntity
  8
B52
100
AcDbText
 10
571299.1907116483
 20
785624.3254746889
 30
20.434458723309074
 40
0.5
  1
B52-217
 72
1
 11
571299.1907116483
 21
785624.3254746889
 31
20.434458723309074
100
AcDbText
 73
2
  0
TEXT
  5
176
330
17
100
AcDbEntity
  8
0
100
AcDbText
 10
571280.4787164393
 20
785628.9950915811
 30
20.434361839952317
 40
0.5
  1
17.489
 11
571280.4787164393
 21
785628.9950915811
 31
20.434361839952317
100
AcDbText
 73
1
  0
CIRCLE
  5
177
330
17
100
AcDbEntity
  8
B52
100
AcDbCircle
 10
571280.4787164393
 20
785628.9950915811
 30
20.434361839952317
 40
0.25
  0
LINE
  5
178
330
17
100
AcDbEntity
  8
B52
100
AcDbLine
 10
571279.3217651689
 20
785625.9172140926
 30
20.499791135652757
 11
571317.7839975242
 21
785616.8716760963
 31
20.481403351996647
  0
TEXT
  5
179
330
17
100
AcDbEntity
  8
B52
100
AcDbText
 10
571298.5528834291
 20
785621.3944446046
 30
20.499791135652757
 40
0.5
  1
B52-216
 72
1
 11
571298.5528834291
 21
785621.3944446046
 31
20.499791135652757
100
AcDbText
 73
2
  0
TEXT
  5
17A
330
17
100
AcDbEntity
  8
0
100
AcDbText
 10
571279.8084861614
 20
785625.8027471737
 30
20.499558447122688
 40
0.5
  1
17.555
 11
571279.8084861614
 21
785625.8027471737
 31
20.499558447122688
100
AcDbText
 73
1
  0
CIRCLE
  5
17B
330
17
100
AcDbEntity
  8
B52
100
AcDbCircle
 10
571279.8084861614
 20
785625.8027471737
 30
20.499558447122688
 40
0.25
  0
LINE
  5
17C
330
17
100
AcDbEntity
  8
B52
100
AcDbLine
 10
571320.6794392266
 20
785627.3804888964
 30
20.325499696542437
 11
571358.8026291507
 21
785616.2083503146
 31
20.90940220766413
  0
TEXT
  5
17D
330
17
100
AcDbEntity
  8
B52
100
AcDbText
 10
571339.7430930448
 20
785621.7938162503
 30
20.325499696542437
 40
0.5
  1
B52-415
 72
1
 11
571339.7430930448
 21
785621.7938162503
 31
20.325499696542437
100
AcDbText
 73
2
  0
TEXT
  5
17E
330
17
100
AcDbEntity
  8
0
100
AcDbText
 10
571320.4395288639
 20
785627.4507954952
 30
20.321825180754516
 40
0.5
  1
17.377
 72
1
 11
571320.4395288639
 21
785627.4507954952
 31
20.321825180754516
100
AcDbText
 73
1
  0
CIRCLE
  5
17F
330
17
100
AcDbEntity
  8
B52
100
AcDbCircle
 10
571320.4395288639
 20
785627.4507954952
 30
20.321825180754516
 40
0.25
  0
LINE
  5
180
330
17
100
AcDbEntity
  8
B52
100
AcDbLine
 10
571320.077416157
 20
785624.7253437183
 30
20.3808050686628
 11
571358.2853410152
 21
785614.0848736133
 31
20.954689161973935
  0
TEXT
  5
181
330
17
100
AcDbEntity
  8
B52
100
AcDbText
 10
571339.1833783209
 20
785619.4045517625
 30
20.3808050686628
 40
0.5
  1
B52-414
 72
1
 11
571339.1833783209
 21
785619.4045517625
 31
20.3808050686628
100
AcDbText
 73
2
  0
TEXT
  5
182
330
17
100
AcDbEntity
  8
0
100
AcDbText
 10
571319.8365808765
 20
785624.7924135897
 30
20.37718771605505
 40
0.5
  1
17.432
 72
1
 11
571319.8365808765
 21
785624.7924135897
 31
20.37718771605505
100
AcDbText
 73
1
  0
CIRCLE
  5
183
330
17
100
AcDbEntity
  8
B52
100
AcDbCircle
 10
571319.8365808765
 20
785624.7924135897
 30
20.37718771605505
 40
0.25
  0
LINE
  5
184
330
17
100
AcDbEntity
  8
B52
100
AcDbLine
 10
571319.4752911323
 20
785622.0697488815
 30
20.43612664476581
 11
571357.7679419153
 21
785611.9609414005
 31
20.999987887337216
  0
TEXT
  5
185
330
17
100
AcDbEntity
  8
B52
100
AcDbText
 10
571338.6235569147
 20
785617.0148329007
 30
20.43612664476581
 40
0.5
  1
B52-413
 72
1
 11
571338.6235569147
 21
785617.0148329007
 31
20.43612664476581
100
AcDbText
 73
2
  0
TEXT
  5
186
330
17
100
AcDbEntity
  8
0
100
AcDbText
 10
571319.2335719654
 20
785622.1335598864
 30
20.4325673176616
 40
0.5
  1
17.488
 72
1
 11
571319.2335719654
 21
785622.1335598864
 31
20.4325673176616
100
AcDbText
 73
1
  0
CIRCLE
  5
187
330
17
100
AcDbEntity
  8
B52
100
AcDbCircle
 10
571319.2335719654
 20
785622.1335598864
 30
20.4325673176616
 40
0.25
  0
LINE
  5
188
330
17
100
AcDbEntity
  8
B52
100
AcDbLine
 10
571318.8730638853
 20
785619.4137032045
 30
20.430443709744846
 11
571357.250431487
 21
785609.8365521828
 31
21.016070060897224
  0
TEXT
  5
189
330
17
100
AcDbEntity
  8
B52
100
AcDbText
 10
571338.0638507128
 20
785614.624602879
 30
20.430443709744846
 40
0.5
  1
B52-219
 72
1
 11
571338.0638507128
 21
785614.624602879
 31
20.430443709744846
100
AcDbText
 73
2
  0
TEXT
  5
18A
330
17
100
AcDbEntity
  8
0
100
AcDbText
 10
571318.6305027162
 20
785619.4742348432
 30
20.426742303910384
 40
0.5
  1
17.482
 72
1
 11
571318.6305027162
 21
785619.4742348432
 31
20.426742303910384
100
AcDbText
 73
1
  0
CIRCLE
  5
18B
330
17
100
AcDbEntity
  8
B52
100
AcDbCircle
 10
571318.6305027162
 20
785619.4742348432
 30
20.426742303910384
 40
0.25
  0
LINE
  5
18C
330
17
100
AcDbEntity
  8
B52
100
AcDbLine
 10
571318.2707341465
 20
785616.7572055017
 30
20.484924005954632
 11
571356.7328093651
 21
785607.7117044609
 31
21.0598053642098
  0
TEXT
  5
18D
330
17
100
AcDbEntity
  8
B52
100
AcDbText
 10
571337.503807208
 20
785612.2339762842
 30
20.484924005954632
 40
0.5
  1
B52-218
 72
1
 11
571337.503807208
 21
785612.2339762842
 31
20.484924005954632
100
AcDbText
 73
2
  0
TEXT
  5
18E
330
17
100
AcDbEntity
  8
0
100
AcDbText
 10
571318.0273736502
 20
785616.8144389611
 30
20.481286567989628
 40
0.5
  1
17.536
 72
1
 11
571318.0273736502
 21
785616.8144389611
 31
20.481286567989628
100
AcDbText
 73
1
  0
CIRCLE
  5
18F
330
17
100
AcDbEntity
  8
B52
100
AcDbCircle
 10
571318.0273736502
 20
785616.8144389611
 30
20.481286567989628
 40
0.25
  0
LINE
  5
190
330
17
100
AcDbEntity
  8
B52
100
AcDbLine
 10
571359.2829606673
 20
785616.0675874281
 30
20.920605961385693
 11
571397.3403178357
 21
785604.9147413734
 31
22.105305200113445
  0
TEXT
  5
191
330
17
100
AcDbEntity
  8
B52
100
AcDbText
 10
571378.3201279037
 20
785610.4886767706
 30
20.920605961385693
 40
0.5
  1
B52-418
 72
1
 11
571378.3201279037
 21
785610.4886767706
 31
20.920605961385693
100
AcDbText
 73
2
  0
TEXT
  5
192
330
17
100
AcDbEntity
  8
0
100
AcDbText
 10
571359.0430503045
 20
785616.1378940269
 30
20.91313771752232
 40
0.5
  1
17.968
 72
1
 11
571359.0430503045
 21
785616.1378940269
 31
20.91313771752232
100
AcDbText
 73
1
  0
CIRCLE
  5
193
330
17
100
AcDbEntity
  8
B52
100
AcDbCircle
 10
571359.0430503045
 20
785616.1378940269
 30
20.91313771752232
 40
0.25
  0
TEXT
  5
194
330
17
100
AcDbEntity
  8
0
100
AcDbText
 10
571396.8604971102
 20
785605.0553545711
 30
22.090368712386702
 40
0.5
  1
19.145
 72
2
 11
571396.8604971102
 21
785605.0553545711
 31
22.090368712386702
100
AcDbText
 73
1
  0
CIRCLE
  5
195
330
17
100
AcDbEntity
  8
B52
100
AcDbCircle
 10
571396.8604971102
 20
785605.0553545711
 30
22.090368712386702
 40
0.25
  0
LINE
  5
196
330
17
100
AcDbEntity
  8
B52
100
AcDbLine
 10
571358.7672685267
 20
785613.9506623131
 30
20.96576705407991
 11
571396.9256898258
 21
785603.3239783833
 31
22.13916771289594
  0
TEXT
  5
197
330
17
100
AcDbEntity
  8
B52
100
AcDbText
 10
571377.8548488247
 20
785608.6349894969
 30
20.96576705407991
 40
0.5
  1
B52-417
 72
1
 11
571377.8548488247
 21
785608.6349894969
 31
20.96576705407991
100
AcDbText
 73
2
  0
TEXT
  5
198
330
17
100
AcDbEntity
  8
0
100
AcDbText
 10
571358.5264332462
 20
785614.0177321845
 30
20.958361184883632
 40
0.5
  1
18.013
 72
1
 11
571358.5264332462
 21
785614.0177321845
 31
20.958361184883632
100
AcDbText
 73
1
  0
CIRCLE
  5
199
330
17
100
AcDbEntity
  8
B52
100
AcDbCircle
 10
571358.5264332462
 20
785614.0177321845
 30
20.958361184883632
 40
0.25
  0
TEXT
  5
19A
330
17
100
AcDbEntity
  8
0
100
AcDbText
 10
571396.4440192647
 20
785603.4581181259
 30
22.12435597450338
 40
0.5
  1
19.179
 72
2
 11
571396.4440192647
 21
785603.4581181259
 31
22.12435597450338
100
AcDbText
 73
1
  0
CIRCLE
  5
19B
330
17
100
AcDbEntity
  8
B52
100
AcDbCircle
 10
571396.4440192647
 20
785603.4581181259
 30
22.12435597450338
 40
0.25
  0
LINE
  5
19C
330
17
100
AcDbEntity
  8
B52
100
AcDbLine
 10
571358.2514689051
 20
785611.8332959866
 30
21.010939424293465
 11
571396.511061816
 21
785601.7332153931
 31
22.173030023461457
  0
TEXT
  5
19D
330
17
100
AcDbEntity
  8
B52
100
AcDbText
 10
571377.389512972
 20
785606.7810784179
 30
21.010939424293465
 40
0.5
  1
B52-416
 72
1
 11
571377.389512972
 21
785606.7810784179
 31
21.010939424293465
100
AcDbText
 73
2
  0
TEXT
  5
19E
330
17
100
AcDbEntity
  8
0
100
AcDbText
 10
571358.0097497382
 20
785611.8971069915
 30
21.003597485967227
 40
0.5
  1
18.059
 72
1
 11
571358.0097497382
 21
785611.8971069915
 31
21.003597485967227
100
AcDbText
 73
1
  0
CIRCLE
  5
19F
330
17
100
AcDbEntity
  8
B52
100
AcDbCircle
 10
571358.0097497382
 20
785611.8971069915
 30
21.003597485967227
 40
0.25
  0
TEXT
  5
1A0
330
17
100
AcDbEntity
  8
0
100
AcDbText
 10
571396.0276234822
 20
785601.8608374028
 30
22.158346146808977
 40
0.5
  1
19.213
 72
2
 11
571396.0276234822
 21
785601.8608374028
 31
22.158346146808977
100
AcDbText
 73
1
  0
CIRCLE
  5
1A1
330
17
100
AcDbEntity
  8
B52
100
AcDbCircle
 10
571396.0276234822
 20
785601.8608374028
 30
22.158346146808977
 40
0.25
  0
LINE
  5
1A2
330
17
100
AcDbEntity
  8
B52
100
AcDbLine
 10
571357.7355614502
 20
785609.7154870025
 30
21.02722501851763
 11
571396.0964338062
 21
785600.1424524032
 31
22.198423108529934
  0
TEXT
  5
1A3
330
17
100
AcDbEntity
  8
B52
100
AcDbText
 10
571376.9244111832
 20
785604.9268700829
 30
21.02722501851763
 40
0.5
  1
B52-221
 72
1
 11
571376.9244111832
 21
785604.9268700829
 31
21.02722501851763
100
AcDbText
 73
2
  0
TEXT
  5
1A4
330
17
100
AcDbEntity
  8
0
100
AcDbText
 10
571357.4930002812
 20
785609.7760186412
 30
21.01981936894724
 40
0.5
  1
18.075
 72
1
 11
571357.4930002812
 21
785609.7760186412
 31
21.01981936894724
100
AcDbText
 73
1
  0
CIRCLE
  5
1A5
330
17
100
AcDbEntity
  8
B52
100
AcDbCircle
 10
571357.4930002812
 20
785609.7760186412
 30
21.01981936894724
 40
0.25
  0
TEXT
  5
1A6
330
17
100
AcDbEntity
  8
0
100
AcDbText
 10
571395.6113114682
 20
785600.2635156804
 30
22.18361180938915
 40
0.5
  1
19.239
 72
2
 11
571395.6113114682
 21
785600.2635156804
 31
22.18361180938915
100
AcDbText
 73
1
  0
CIRCLE
  5
1A7
330
17
100
AcDbEntity
  8
B52
100
AcDbCircle
 10
571395.6113114682
 20
785600.2635156804
 30
22.18361180938915
 40
0.25
  0
LINE
  5
1A8
330
17
100
AcDbEntity
  8
B52
100
AcDbLine
 10
571357.2195458083
 20
785607.5972339081
 30
21.07083423003662
 11
571395.6818057965
 21
785598.5516894131
 31
22.231294933687984
  0
TEXT
  5
1A9
330
17
100
AcDbEntity
  8
B52
100
AcDbText
 10
571376.4589684384
 20
785603.0725114006
 30
21.07083423003662
 40
0.5
  1
B52-220
 72
1
 11
571376.4589684384
 21
785603.0725114006
 31
21.07083423003662
100
AcDbText
 73
2
  0
TEXT
  5
1AA
330
17
100
AcDbEntity
  8
0
100
AcDbText
 10
571356.976185312
 20
785607.6544673676
 30
21.063491700170403
 40
0.5
  1
18.118
 72
1
 11
571356.976185312
 21
785607.6544673676
 31
21.063491700170403
100
AcDbText
 73
1
  0
CIRCLE
  5
1AB
330
17
100
AcDbEntity
  8
B52
100
AcDbCircle
 10
571356.976185312
 20
785607.6544673676
 30
21.063491700170403
 40
0.25
  0
TEXT
  5
1AC
330
17
100
AcDbEntity
  8
0
100
AcDbText
 10
571395.195084804
 20
785598.666156332
 30
22.21660987395555
 40
0.5
  1
19.272
 72
2
 11
571395.195084804
 21
785598.666156332
 31
22.21660987395555
100
AcDbText
 73
1
  0
CIRCLE
  5
1AD
330
17
100
AcDbEntity
  8
B52
100
AcDbCircle
 10
571395.195084804
 20
785598.666156332
 30
22.21660987395555
 40
0.25
  0
LINE
  5
1AF
330
17
100
AcDbEntity
  8
B53
100
AcDbLine
 10
571397.7907026733
 20
785604.5810008392
 30
22.160502208284452
 11
571440.7692947062
 21
785592.5865701406
 31
23.680463969328763
  0
TEXT
  5
1B0
330
17
100
AcDbEntity
  8
B53
100
AcDbText
 10
571419.2924626115
 20
785598.5803070687
 30
22.160502208284452
 40
0.5
  1
B53-526
 72
1
 11
571419.2924626115
 21
785598.5803070687
 31
22.160502208284452
100
AcDbText
 73
2
  0
TEXT
  5
1B1
330
17
100
AcDbEntity
  8
0
100
AcDbText
 10
571398.2722996488
 20
785604.4465971448
 30
22.177534152621515
 40
0.5
  1
19.233
 11
571398.2722996488
 21
785604.4465971448
 31
22.177534152621515
100
AcDbText
 73
1
  0
CIRCLE
  5
1B2
330
17
100
AcDbEntity
  8
B53
100
AcDbCircle
 10
571398.2722996488
 20
785604.4465971448
 30
22.177534152621515
 40
0.25
  0
LINE
  5
1B3
330
17
100
AcDbEntity
  8
B53
100
AcDbLine
 10
571397.046542442
 20
785601.7259536006
 30
22.21951942128775
 11
571439.9763129095
 21
785589.7451479842
 31
23.73946396932949
  0
TEXT
  5
1B4
330
17
100
AcDbEntity
  8
B53
100
AcDbText
 10
571418.5239054812
 20
785595.7320684965
 30
22.21951942128775
 40
0.5
  1
B53-525
 72
1
 11
571418.5239054812
 21
785595.7320684965
 31
22.21951942128775
100
AcDbText
 73
2
  0
TEXT
  5
1B5
330
17
100
AcDbEntity
  8
0
100
AcDbText
 10
571397.5281394176
 20
785601.5915499062
 30
22.23657054197827
 40
0.5
  1
19.292
 11
571397.5281394176
 21
785601.5915499062
 31
22.23657054197827
100
AcDbText
 73
1
  0
CIRCLE
  5
1B6
330
17
100
AcDbEntity
  8
B53
100
AcDbCircle
 10
571397.5281394176
 20
785601.5915499062
 30
22.23657054197827
 40
0.25
  0
LINE
  5
1B7
330
17
100
AcDbEntity
  8
B53
100
AcDbLine
 10
571396.3023822103
 20
785598.8709063609
 30
22.278536819784478
 11
571439.1833311126
 21
785586.9037258284
 31
23.79846396932221
  0
TEXT
  5
1B8
330
17
100
AcDbEntity
  8
B53
100
AcDbText
 10
571417.7553483793
 20
785592.8838299161
 30
22.278536819784478
 40
0.5
  1
B53-524
 72
1
 11
571417.7553483793
 21
785592.8838299161
 31
22.278536819784478
100
AcDbText
 73
2
  0
TEXT
  5
1B9
330
17
100
AcDbEntity
  8
0
100
AcDbText
 10
571396.7839791859
 20
785598.7365026665
 30
22.29560715841111
 40
0.5
  1
19.351
 11
571396.7839791859
 21
785598.7365026665
 31
22.29560715841111
100
AcDbText
 73
1
  0
CIRCLE
  5
1BA
330
17
100
AcDbEntity
  8
B53
100
AcDbCircle
 10
571396.7839791859
 20
785598.7365026665
 30
22.29560715841111
 40
0.25
  0
LINE
  5
1BB
330
17
100
AcDbEntity
  8
B53
100
AcDbLine
 10
571395.558221979
 20
785596.0158591219
 30
22.29315305528198
 11
571438.3903493157
 21
785584.0623036723
 31
23.798463814216994
  0
TEXT
  5
1BC
330
17
100
AcDbEntity
  8
B53
100
AcDbText
 10
571416.9865522933
 20
785590.0356580315
 30
22.29315305528198
 40
0.5
  1
B53-523
 72
1
 11
571416.9865522933
 21
785590.0356580315
 31
22.29315305528198
100
AcDbText
 73
2
  0
TEXT
  5
1BD
330
17
100
AcDbEntity
  8
0
100
AcDbText
 10
571396.0398189545
 20
785595.8814554275
 30
22.310078507132292
 40
0.5
  1
19.365
 11
571396.0398189545
 21
785595.8814554275
 31
22.310078507132292
100
AcDbText
 73
1
  0
CIRCLE
  5
1BE
330
17
100
AcDbEntity
  8
B53
100
AcDbCircle
 10
571396.0398189545
 20
785595.8814554275
 30
22.310078507132292
 40
0.25
  0
LINE
  5
1BF
330
17
100
AcDbEntity
  8
B53
100
AcDbLine
 10
571394.8140617477
 20
785593.1608118829
 30
22.234153096581306
 11
571437.5973675188
 21
785581.2208815158
 31
23.73946381421055
  0
TEXT
  5
1C0
330
17
100
AcDbEntity
  8
B53
100
AcDbText
 10
571416.2179952684
 20
785587.1874194297
 30
22.234153096581306
 40
0.5
  1
B53-522
 72
1
 11
571416.2179952684
 21
785587.1874194297
 31
22.234153096581306
100
AcDbText
 73
2
  0
TEXT
  5
1C1
330
17
100
AcDbEntity
  8
0
100
AcDbText
 10
571395.2956587233
 20
785593.0264081885
 30
22.251097862207146
 40
0.5
  1
19.306
 11
571395.2956587233
 21
785593.0264081885
 31
22.251097862207146
100
AcDbText
 73
1
  0
CIRCLE
  5
1C2
330
17
100
AcDbEntity
  8
B53
100
AcDbCircle
 10
571395.2956587233
 20
785593.0264081885
 30
22.251097862207146
 40
0.25
  0
LINE
  5
1C3
330
17
100
AcDbEntity
  8
B53
100
AcDbLine
 10
571394.0699015161
 20
785590.3057646436
 30
22.175153363527237
 11
571436.8043857221
 21
785578.3794593595
 31
23.680463814209766
  0
TEXT
  5
1C4
330
17
100
AcDbEntity
  8
B53
100
AcDbText
 10
571415.4494382717
 20
785584.3391808198
 30
22.175153363527237
 40
0.5
  1
B53-521
 72
1
 11
571415.4494382717
 21
785584.3391808198
 31
22.175153363527237
100
AcDbText
 73
2
  0
TEXT
  5
1C5
330
17
100
AcDbEntity
  8
0
100
AcDbText
 10
571394.5514984917
 20
785590.1713609492
 30
22.192117484515183
 40
0.5
  1
19.247
 11
571394.5514984917
 21
785590.1713609492
 31
22.192117484515183
100
AcDbText
 73
1
  0
CIRCLE
  5
1C6
330
17
100
AcDbEntity
  8
B53
100
AcDbCircle
 10
571394.5514984917
 20
785590.1713609492
 30
22.192117484515183
 40
0.25
  0
ENDSEC
  0
SECTION
  2
OBJECTS
  0
DICTIONARY
  5
A
330
0
100
AcDbDictionary
280
0
281
1
  3
ACAD_COLOR
350
B
  3
ACAD_GROUP
350
C
  3
ACAD_LAYOUT
350
D
  3
ACAD_MATERIAL
350
E
  3
ACAD_MLEADERSTYLE
350
F
  3
ACAD_MLINESTYLE
350
10
  3
ACAD_PLOTSETTINGS
350
11
  3
ACAD_PLOTSTYLENAME
350
12
  3
ACAD_SCALELIST
350
14
  3
ACAD_TABLESTYLE
350
15
  3
ACAD_VISUALSTYLE
350
16
  3
EZDXF_META
350
2D
  0
DICTIONARY
  5
B
330
A
100
AcDbDictionary
280
0
281
1
  0
DICTIONARY
  5
C
330
A
100
AcDbDictionary
280
0
281
1
  0
DICTIONARY
  5
D
330
A
100
AcDbDictionary
280
0
281
1
  3
Model
350
1A
  3
Layout1
350
1E
  0
DICTIONARY
  5
E
330
A
100
AcDbDictionary
280
0
281
1
  3
ByBlock
350
1F
  3
ByLayer
350
20
  3
Global
350
21
  0
DICTIONARY
  5
F
330
A
100
AcDbDictionary
280
0
281
1
  3
Standard
350
2C
  0
DICTIONARY
  5
10
330
A
100
AcDbDictionary
280
0
281
1
  3
Standard
350
22
  0
DICTIONARY
  5
11
330
A
100
AcDbDictionary
280
0
281
1
  0
ACDBDICTIONARYWDFLT
  5
12
330
A
100
AcDbDictionary
280
0
281
1
  3
Normal
350
13
100
AcDbDictionaryWithDefault
340
13
  0
ACDBPLACEHOLDER
  5
13
330
12
  0
DICTIONARY
  5
14
330
A
100
AcDbDictionary
280
0
281
1
  0
DICTIONARY
  5
15
330
A
100
AcDbDictionary
280
0
281
1
  0
DICTIONARY
  5
16
330
A
100
AcDbDictionary
280
0
281
1
  0
LAYOUT
  5
1A
330
D
100
AcDbPlotSettings
  1

  2
Adobe PDF
  4
A3
  6

 40
7.5
 41
20.0
 42
7.5
 43
20.0
 44
420.0
 45
297.0
 46
0.0
 47
0.0
 48
0.0
 49
0.0
140
0.0
141
0.0
142
1.0
143
1.0
 70
1024
 72
1
 73
0
 74
5
  7

 75
16
 76
0
 77
2
 78
300
147
1.0
148
0.0
149
0.0
100
AcDbLayout
  1
Model
 70
1
 71
0
 10
0.0
 20
0.0
 11
420.0
 21
297.0
 12
0.0
 22
0.0
 32
0.0
 14
1e+20
 24
1e+20
 34
1e+20
 15
-1e+20
 25
-1e+20
 35
-1e+20
146
0.0
 13
0.0
 23
0.0
 33
0.0
 16
1.0
 26
0.0
 36
0.0
 17
0.0
 27
1.0
 37
0.0
 76
1
330
17
  0
LAYOUT
  5
1E
330
D
100
AcDbPlotSettings
  1

  2
Adobe PDF
  4
A3
  6

 40
7.5
 41
20.0
 42
7.5
 43
20.0
 44
420.0
 45
297.0
 46
0.0
 47
0.0
 48
0.0
 49
0.0
140
0.0
141
0.0
142
1.0
143
1.0
 70
0
 72
1
 73
0
 74
5
  7

 75
16
 76
0
 77
2
 78
300
147
1.0
148
0.0
149
0.0
100
AcDbLayout
  1
Layout1
 70
1
 71
1
 10
0.0
 20
0.0
 11
420.0
 21
297.0
 12
0.0
 22
0.0
 32
0.0
 14
1e+20
 24
1e+20
 34
1e+20
 15
-1e+20
 25
-1e+20
 35
-1e+20
146
0.0
 13
0.0
 23
0.0
 33
0.0
 16
1.0
 26
0.0
 36
0.0
 17
0.0
 27
1.0
 37
0.0
 76
1
330
1B
  0
MATERIAL
  5
1F
102
{ACAD_REACTORS
330
E
102
}
330
E
100
AcDbMaterial
  1
ByBlock
  2

 70
0
 40
1.0
 71
1
 41
1.0
 91
-1023410177
 42
1.0
 72
1
  3

 73
1
 74
1
 75
1
 44
0.5
 73
0
 45
1.0
 46
1.0
 77
1
  4

 78
1
 79
1
170
1
 48
1.0
171
1
  6

172
1
173
1
174
1
140
1.0
141
1.0
175
1
  7

176
1
177
1
178
1
143
1.0
179
1
  8

270
1
271
1
272
1
145
1.0
146
1.0
273
1
  9

274
1
275
1
276
1
 42
1.0
 72
1
  3

 73
1
 74
1
 75
1
 94
63
  0
MATERIAL
  5
20
102
{ACAD_REACTORS
330
E
102
}
330
E
100
AcDbMaterial
  1
ByLayer
  2

 70
0
 40
1.0
 71
1
 41
1.0
 91
-1023410177
 42
1.0
 72
1
  3

 73
1
 74
1
 75
1
 44
0.5
 73
0
 45
1.0
 46
1.0
 77
1
  4

 78
1
 79
1
170
1
 48
1.0
171
1
  6

172
1
173
1
174
1
140
1.0
141
1.0
175
1
  7

176
1
177
1
178
1
143
1.0
179
1
  8

270
1
271
1
272
1
145
1.0
146
1.0
273
1
  9

274
1
275
1
276
1
 42
1.0
 72
1
  3

 73
1
 74
1
 75
1
 94
63
  0
MATERIAL
  5
21
102
{ACAD_REACTORS
330
E
102
}
330
E
100
AcDbMaterial
  1
Global
  2

 70
0
 40
1.0
 71
1
 41
1.0
 91
-1023410177
 42
1.0
 72
1
  3

 73
1
 74
1
 75
1
 44
0.5
 73
0
 45
1.0
 46
1.0
 77
1
  4

 78
1
 79
1
170
1
 48
1.0
171
1
  6

172
1
173
1
174
1
140
1.0
141
1.0
175
1
  7

176
1
177
1
178
1
143
1.0
179
1
  8

270
1
271
1
272
1
145
1.0
146
1.0
273
1
  9

274
1
275
1
276
1
 42
1.0
 72
1
  3

 73
1
 74
1
 75
1
 94
63
  0
MLINESTYLE
  5
22
102
{ACAD_REACTORS
330
10
102
}
330
10
100
AcDbMlineStyle
  2
Standard
 70
0
  3

 62
256
 51
90.0
 52
90.0
 71
2
 49
0.5
 62
256
  6
BYLAYER
 49
-0.5
 62
256
  6
BYLAYER
  0
MLEADERSTYLE
  5
2C
102
{ACAD_REACTORS
330
F
102
}
330
F
100
AcDbMLeaderStyle
179
2
170
2
171
1
172
0
 90
2
 40
0.0
 41
0.0
173
1
 91
-1056964608
 92
-2
290
1
 42
2.0
291
1
 43
8.0
  3
Standard
 44
4.0
300

342
29
174
1
175
1
176
0
178
1
 93
-1056964608
 45
4.0
292
0
297
0
 46
4.0
 94
-1056964608
 47
1.0
 49
1.0
140
1.0
294
1
141
0.0
177
0
142
1.0
295
0
296
0
143
3.75
271
0
272
9
273
9
  0
DICTIONARY
  5
2D
330
A
100
AcDbDictionary
281
1
  3
CREATED_BY_EZDXF
350
2E
  3
WRITTEN_BY_EZDXF
350
1C9
  0
DICTIONARYVAR
  5
2E
330
2D
100
DictionaryVariables
280
0
  1
1.1.4 @ 2024-08-08T02:44:13.771007+00:00
  0
DICTIONARYVAR
  5
1C9
330
2D
100
DictionaryVariables
280
0
  1
1.1.4 @ 2024-08-08T02:44:13.780008+00:00
  0
ENDSEC
  0
EOF
