  0
SECTION
  2
HEADER
  9
$ACADVER
  1
AC1027
  9
$ACADMAINTVER
 70
105
  9
$DWGCODEPAGE
  3
ANSI_1252
  9
$LASTSAVEDBY
  1
ezdxf
  9
$REQUIREDVERSIONS
160
0
  9
$INSBASE
 10
0.0
 20
0.0
 30
0.0
  9
$EXTMIN
 10
1e+20
 20
1e+20
 30
1e+20
  9
$EXTMAX
 10
-1e+20
 20
-1e+20
 30
-1e+20
  9
$LIMMIN
 10
0.0
 20
0.0
  9
$LIMMAX
 10
420.0
 20
297.0
  9
$ORTHOMODE
 70
0
  9
$REGENMODE
 70
1
  9
$FILLMODE
 70
1
  9
$QTEXTMODE
 70
0
  9
$MIRRTEXT
 70
1
  9
$LTSCALE
 40
1.0
  9
$ATTMODE
 70
1
  9
$TEXTSIZE
 40
2.5
  9
$TRACEWID
 40
1.0
  9
$TEXTSTYLE
  7
Standard
  9
$CLAYER
  8
0
  9
$CELTYPE
  6
ByLayer
  9
$CECOLOR
 62
256
  9
$CELTSCALE
 40
1.0
  9
$DISPSILH
 70
0
  9
$DIMSCALE
 40
1.0
  9
$DIMASZ
 40
2.5
  9
$DIMEXO
 40
0.625
  9
$DIMDLI
 40
3.75
  9
$DIMRND
 40
0.0
  9
$DIMDLE
 40
0.0
  9
$DIMEXE
 40
1.25
  9
$DIMTP
 40
0.0
  9
$DIMTM
 40
0.0
  9
$DIMTXT
 40
2.5
  9
$DIMCEN
 40
2.5
  9
$DIMTSZ
 40
0.0
  9
$DIMTOL
 70
0
  9
$DIMLIM
 70
0
  9
$DIMTIH
 70
0
  9
$DIMTOH
 70
0
  9
$DIMSE1
 70
0
  9
$DIMSE2
 70
0
  9
$DIMTAD
 70
1
  9
$DIMZIN
 70
8
  9
$DIMBLK
  1

  9
$DIMASO
 70
1
  9
$DIMSHO
 70
1
  9
$DIMPOST
  1

  9
$DIMAPOST
  1

  9
$DIMALT
 70
0
  9
$DIMALTD
 70
3
  9
$DIMALTF
 40
0.03937007874
  9
$DIMLFAC
 40
1.0
  9
$DIMTOFL
 70
1
  9
$DIMTVP
 40
0.0
  9
$DIMTIX
 70
0
  9
$DIMSOXD
 70
0
  9
$DIMSAH
 70
0
  9
$DIMBLK1
  1

  9
$DIMBLK2
  1

  9
$DIMSTYLE
  2
ISO-25
  9
$DIMCLRD
 70
0
  9
$DIMCLRE
 70
0
  9
$DIMCLRT
 70
0
  9
$DIMTFAC
 40
1.0
  9
$DIMGAP
 40
0.625
  9
$DIMJUST
 70
0
  9
$DIMSD1
 70
0
  9
$DIMSD2
 70
0
  9
$DIMTOLJ
 70
0
  9
$DIMTZIN
 70
8
  9
$DIMALTZ
 70
0
  9
$DIMALTTZ
 70
0
  9
$DIMUPT
 70
0
  9
$DIMDEC
 70
2
  9
$DIMTDEC
 70
2
  9
$DIMALTU
 70
2
  9
$DIMALTTD
 70
3
  9
$DIMTXSTY
  7
Standard
  9
$DIMAUNIT
 70
0
  9
$DIMADEC
 70
0
  9
$DIMALTRND
 40
0.0
  9
$DIMAZIN
 70
0
  9
$DIMDSEP
 70
44
  9
$DIMATFIT
 70
3
  9
$DIMFRAC
 70
0
  9
$DIMLDRBLK
  1

  9
$DIMLUNIT
 70
2
  9
$DIMLWD
 70
-2
  9
$DIMLWE
 70
-2
  9
$DIMTMOVE
 70
0
  9
$DIMFXL
 40
1.0
  9
$DIMFXLON
 70
0
  9
$DIMJOGANG
 40
0.785398163397
  9
$DIMTFILL
 70
0
  9
$DIMTFILLCLR
 70
0
  9
$DIMARCSYM
 70
0
  9
$DIMLTYPE
  6

  9
$DIMLTEX1
  6

  9
$DIMLTEX2
  6

  9
$DIMTXTDIRECTION
 70
0
  9
$LUNITS
 70
2
  9
$LUPREC
 70
4
  9
$SKETCHINC
 40
1.0
  9
$FILLETRAD
 40
10.0
  9
$AUNITS
 70
0
  9
$AUPREC
 70
2
  9
$MENU
  1
.
  9
$ELEVATION
 40
0.0
  9
$PELEVATION
 40
0.0
  9
$THICKNESS
 40
0.0
  9
$LIMCHECK
 70
0
  9
$CHAMFERA
 40
0.0
  9
$CHAMFERB
 40
0.0
  9
$CHAMFERC
 40
0.0
  9
$CHAMFERD
 40
0.0
  9
$SKPOLY
 70
0
  9
$TDCREATE
 40
2460526.496354167
  9
$TDUCREATE
 40
2458532.153996898
  9
$TDUPDATE
 40
2460526.496354167
  9
$TDUUPDATE
 40
2458532.1544311
  9
$TDINDWG
 40
0.0
  9
$TDUSRTIMER
 40
0.0
  9
$USRTIMER
 70
1
  9
$ANGBASE
 50
0.0
  9
$ANGDIR
 70
0
  9
$PDMODE
 70
0
  9
$PDSIZE
 40
0.0
  9
$PLINEWID
 40
0.0
  9
$SPLFRAME
 70
0
  9
$SPLINETYPE
 70
6
  9
$SPLINESEGS
 70
8
  9
$HANDSEED
  5
1CA
  9
$SURFTAB1
 70
6
  9
$SURFTAB2
 70
6
  9
$SURFTYPE
 70
6
  9
$SURFU
 70
6
  9
$SURFV
 70
6
  9
$UCSBASE
  2

  9
$UCSNAME
  2

  9
$UCSORG
 10
0.0
 20
0.0
 30
0.0
  9
$UCSXDIR
 10
1.0
 20
0.0
 30
0.0
  9
$UCSYDIR
 10
0.0
 20
1.0
 30
0.0
  9
$UCSORTHOREF
  2

  9
$UCSORTHOVIEW
 70
0
  9
$UCSORGTOP
 10
0.0
 20
0.0
 30
0.0
  9
$UCSORGBOTTOM
 10
0.0
 20
0.0
 30
0.0
  9
$UCSORGLEFT
 10
0.0
 20
0.0
 30
0.0
  9
$UCSORGRIGHT
 10
0.0
 20
0.0
 30
0.0
  9
$UCSORGFRONT
 10
0.0
 20
0.0
 30
0.0
  9
$UCSORGBACK
 10
0.0
 20
0.0
 30
0.0
  9
$PUCSBASE
  2

  9
$PUCSNAME
  2

  9
$PUCSORG
 10
0.0
 20
0.0
 30
0.0
  9
$PUCSXDIR
 10
1.0
 20
0.0
 30
0.0
  9
$PUCSYDIR
 10
0.0
 20
1.0
 30
0.0
  9
$PUCSORTHOREF
  2

  9
$PUCSORTHOVIEW
 70
0
  9
$PUCSORGTOP
 10
0.0
 20
0.0
 30
0.0
  9
$PUCSORGBOTTOM
 10
0.0
 20
0.0
 30
0.0
  9
$PUCSORGLEFT
 10
0.0
 20
0.0
 30
0.0
  9
$PUCSORGRIGHT
 10
0.0
 20
0.0
 30
0.0
  9
$PUCSORGFRONT
 10
0.0
 20
0.0
 30
0.0
  9
$PUCSORGBACK
 10
0.0
 20
0.0
 30
0.0
  9
$USERI1
 70
0
  9
$USERI2
 70
0
  9
$USERI3
 70
0
  9
$USERI4
 70
0
  9
$USERI5
 70
0
  9
$USERR1
 40
0.0
  9
$USERR2
 40
0.0
  9
$USERR3
 40
0.0
  9
$USERR4
 40
0.0
  9
$USERR5
 40
0.0
  9
$WORLDVIEW
 70
1
  9
$SHADEDGE
 70
3
  9
$SHADEDIF
 70
70
  9
$TILEMODE
 70
1
  9
$MAXACTVP
 70
64
  9
$PINSBASE
 10
0.0
 20
0.0
 30
0.0
  9
$PLIMCHECK
 70
0
  9
$PEXTMIN
 10
1e+20
 20
1e+20
 30
1e+20
  9
$PEXTMAX
 10
-1e+20
 20
-1e+20
 30
-1e+20
  9
$PLIMMIN
 10
0.0
 20
0.0
  9
$PLIMMAX
 10
420.0
 20
297.0
  9
$UNITMODE
 70
0
  9
$VISRETAIN
 70
1
  9
$PLINEGEN
 70
0
  9
$PSLTSCALE
 70
1
  9
$TREEDEPTH
 70
3020
  9
$CMLSTYLE
  2
Standard
  9
$CMLJUST
 70
0
  9
$CMLSCALE
 40
20.0
  9
$PROXYGRAPHICS
 70
1
  9
$MEASUREMENT
 70
1
  9
$CELWEIGHT
370
-1
  9
$ENDCAPS
280
0
  9
$JOINSTYLE
280
0
  9
$LWDISPLAY
290
0
  9
$INSUNITS
 70
6
  9
$HYPERLINKBASE
  1

  9
$STYLESHEET
  1

  9
$XEDIT
290
1
  9
$CEPSNTYPE
380
0
  9
$PSTYLEMODE
290
1
  9
$FINGERPRINTGUID
  2
{70B75E6B-FAB0-4BEA-B065-467DE61B39A3}
  9
$VERSIONGUID
  2
{77F247E2-41A2-4650-A4C1-7C33C7B31FB3}
  9
$EXTNAMES
290
1
  9
$PSVPSCALE
 40
0.0
  9
$OLESTARTUP
290
0
  9
$SORTENTS
280
127
  9
$INDEXCTL
280
0
  9
$HIDETEXT
280
1
  9
$XCLIPFRAME
280
0
  9
$HALOGAP
280
0
  9
$OBSCOLOR
 70
257
  9
$OBSLTYPE
280
0
  9
$INTERSECTIONDISPLAY
280
0
  9
$INTERSECTIONCOLOR
 70
257
  9
$DIMASSOC
280
2
  9
$PROJECTNAME
  1

  9
$CAMERADISPLAY
290
0
  9
$LENSLENGTH
 40
50.0
  9
$CAMERAHEIGHT
 40
0.0
  9
$STEPSPERSEC
 40
24.0
  9
$STEPSIZE
 40
100.0
  9
$3DDWFPREC
 40
2.0
  9
$PSOLWIDTH
 40
0.005
  9
$PSOLHEIGHT
 40
0.08
  9
$LOFTANG1
 40
1.570796326795
  9
$LOFTANG2
 40
1.570796326795
  9
$LOFTMAG1
 40
0.0
  9
$LOFTMAG2
 40
0.0
  9
$LOFTPARAM
 70
7
  9
$LOFTNORMALS
280
1
  9
$LATITUDE
 40
37.795
  9
$LONGITUDE
 40
-122.394
  9
$NORTHDIRECTION
 40
0.0
  9
$TIMEZONE
 70
-8000
  9
$LIGHTGLYPHDISPLAY
280
1
  9
$TILEMODELIGHTSYNCH
280
1
  9
$CMATERIAL
347
20
  9
$SOLIDHIST
280
0
  9
$SHOWHIST
280
1
  9
$DWFFRAME
280
2
  9
$DGNFRAME
280
2
  9
$REALWORLDSCALE
290
1
  9
$INTERFERECOLOR
 62
256
  9
$CSHADOW
280
0
  9
$SHADOWPLANELOCATION
 40
0.0
  0
ENDSEC
  0
SECTION
  2
CLASSES
  0
CLASS
  1
ACDBDICTIONARYWDFLT
  2
AcDbDictionaryWithDefault
  3
ObjectDBX Classes
 90
0
 91
0
280
0
281
0
  0
CLASS
  1
SUN
  2
AcDbSun
  3
SCENEOE
 90
1153
 91
0
280
0
281
0
  0
CLASS
  1
VISUALSTYLE
  2
AcDbVisualStyle
  3
ObjectDBX Classes
 90
4095
 91
0
280
0
281
0
  0
CLASS
  1
MATERIAL
  2
AcDbMaterial
  3
ObjectDBX Classes
 90
1153
 91
0
280
0
281
0
  0
CLASS
  1
SCALE
  2
AcDbScale
  3
ObjectDBX Classes
 90
1153
 91
0
280
0
281
0
  0
CLASS
  1
TABLESTYLE
  2
AcDbTableStyle
  3
ObjectDBX Classes
 90
4095
 91
0
280
0
281
0
  0
CLASS
  1
MLEADERSTYLE
  2
AcDbMLeaderStyle
  3
ACDB_MLEADERSTYLE_CLASS
 90
4095
 91
0
280
0
281
0
  0
CLASS
  1
DICTIONARYVAR
  2
AcDbDictionaryVar
  3
ObjectDBX Classes
 90
0
 91
0
280
0
281
0
  0
CLASS
  1
CELLSTYLEMAP
  2
AcDbCellStyleMap
  3
ObjectDBX Classes
 90
1152
 91
0
280
0
281
0
  0
CLASS
  1
MENTALRAYRENDERSETTINGS
  2
AcDbMentalRayRenderSettings
  3
SCENEOE
 90
1024
 91
0
280
0
281
0
  0
CLASS
  1
ACDBDETAILVIEWSTYLE
  2
AcDbDetailViewStyle
  3
ObjectDBX Classes
 90
1025
 91
0
280
0
281
0
  0
CLASS
  1
ACDBSECTIONVIEWSTYLE
  2
AcDbSectionViewStyle
  3
ObjectDBX Classes
 90
1025
 91
0
280
0
281
0
  0
CLASS
  1
RASTERVARIABLES
  2
AcDbRasterVariables
  3
ISM
 90
0
 91
0
280
0
281
0
  0
CLASS
  1
LAYOUT
  2
AcDbLayout
  3
ObjectDBX Classes
 90
0
 91
0
280
0
281
0
  0
CLASS
  1
ACDBPLACEHOLDER
  2
AcDbPlaceHolder
  3
ObjectDBX Classes
 90
0
 91
0
280
0
281
0
  0
ENDSEC
  0
SECTION
  2
TABLES
  0
TABLE
  2
VPORT
  5
8
330
0
100
AcDbSymbolTable
 70
1
  0
VPORT
  5
23
330
8
100
AcDbSymbolTableRecord
100
AcDbViewportTableRecord
  2
*Active
 70
0
 10
0.0
 20
0.0
 11
1.0
 21
1.0
 12
0.0
 22
0.0
 13
0.0
 23
0.0
 14
0.5
 24
0.5
 15
0.5
 25
0.5
 16
0.0
 26
0.0
 36
1.0
 17
0.0
 27
0.0
 37
0.0
 40
1000.0
 41
1.34
 42
50.0
 43
0.0
 44
0.0
 50
0.0
 51
0.0
 71
0
 72
1000
 73
1
 74
3
 75
0
 76
0
 77
0
 78
0
281
0
 65
0
146
0.0
  0
ENDTAB
  0
TABLE
  2
LTYPE
  5
2
330
0
100
AcDbSymbolTable
 70
3
  0
LTYPE
  5
24
330
2
100
AcDbSymbolTableRecord
100
AcDbLinetypeTableRecord
  2
ByBlock
 70
0
  3

 72
65
 73
0
 40
0.0
  0
LTYPE
  5
25
330
2
100
AcDbSymbolTableRecord
100
AcDbLinetypeTableRecord
  2
ByLayer
 70
0
  3

 72
65
 73
0
 40
0.0
  0
LTYPE
  5
26
330
2
100
AcDbSymbolTableRecord
100
AcDbLinetypeTableRecord
  2
Continuous
 70
0
  3

 72
65
 73
0
 40
0.0
  0
ENDTAB
  0
TABLE
  2
LAYER
  5
1
330
0
100
AcDbSymbolTable
 70
12
  0
LAYER
  5
27
330
1
100
AcDbSymbolTableRecord
100
AcDbLayerTableRecord
  2
0
 70
0
 62
7
  6
Continuous
370
-3
390
13
347
21
  0
LAYER
  5
28
330
1
100
AcDbSymbolTableRecord
100
AcDbLayerTableRecord
  2
Defpoints
 70
0
 62
7
  6
Continuous
290
0
370
-3
390
13
347
21
  0
LAYER
  5
2F
330
1
100
AcDbSymbolTableRecord
100
AcDbLayerTableRecord
  2
B11
 70
0
 62
1
  6
Continuous
370
-3
390
13
347
21
  0
LAYER
  5
42
330
1
100
AcDbSymbolTableRecord
100
AcDbLayerTableRecord
  2
B13
 70
0
 62
2
  6
Continuous
370
-3
390
13
347
21
  0
LAYER
  5
6D
330
1
100
AcDbSymbolTableRecord
100
AcDbLayerTableRecord
  2
B14
 70
0
 62
3
  6
Continuous
370
-3
390
13
347
21
  0
LAYER
  5
A6
330
1
100
AcDbSymbolTableRecord
100
AcDbLayerTableRecord
  2
B21
 70
0
 62
4
  6
Continuous
370
-3
390
13
347
21
  0
LAYER
  5
B9
330
1
100
AcDbSymbolTableRecord
100
AcDbLayerTableRecord
  2
B23
 70
0
 62
5
  6
Continuous
370
-3
390
13
347
21
  0
LAYER
  5
F0
330
1
100
AcDbSymbolTableRecord
100
AcDbLayerTableRecord
  2
B31
 70
0
 62
6
  6
Continuous
370
-3
390
13
347
21
  0
LAYER
  5
103
330
1
100
AcDbSymbolTableRecord
100
AcDbLayerTableRecord
  2
B42
 70
0
 62
7
  6
Continuous
370
-3
390
13
347
21
  0
LAYER
  5
12E
330
1
100
AcDbSymbolTableRecord
100
AcDbLayerTableRecord
  2
B51
 70
0
 62
8
  6
Continuous
370
-3
390
13
347
21
  0
LAYER
  5
167
330
1
100
AcDbSymbolTableRecord
100
AcDbLayerTableRecord
  2
B52
 70
0
 62
9
  6
Continuous
370
-3
390
13
347
21
  0
LAYER
  5
1AE
330
1
100
AcDbSymbolTableRecord
100
AcDbLayerTableRecord
  2
B53
 70
0
 62
10
  6
Continuous
370
-3
390
13
347
21
  0
ENDTAB
  0
TABLE
  2
STYLE
  5
5
330
0
100
AcDbSymbolTable
 70
1
  0
STYLE
  5
29
330
5
100
AcDbSymbolTableRecord
100
AcDbTextStyleTableRecord
  2
Standard
 70
0
 40
0.0
 41
1.0
 50
0.0
 71
0
 42
2.5
  3
txt
  4

  0
ENDTAB
  0
TABLE
  2
VIEW
  5
7
330
0
100
AcDbSymbolTable
 70
0
  0
ENDTAB
  0
TABLE
  2
UCS
  5
6
330
0
100
AcDbSymbolTable
 70
0
  0
ENDTAB
  0
TABLE
  2
APPID
  5
3
330
0
100
AcDbSymbolTable
 70
3
  0
APPID
  5
2A
330
3
100
AcDbSymbolTableRecord
100
AcDbRegAppTableRecord
  2
ACAD
 70
0
  0
APPID
  5
1C7
330
3
100
AcDbSymbolTableRecord
100
AcDbRegAppTableRecord
  2
HATCHBACKGROUNDCOLOR
 70
0
  0
APPID
  5
1C8
330
3
100
AcDbSymbolTableRecord
100
AcDbRegAppTableRecord
  2
EZDXF
 70
0
  0
ENDTAB
  0
TABLE
  2
DIMSTYLE
  5
4
330
0
100
AcDbSymbolTable
 70
1
100
AcDbDimStyleTable
  0
DIMSTYLE
105
2B
330
4
100
AcDbSymbolTableRecord
100
AcDbDimStyleTableRecord
  2
Standard
 70
0
 40
1.0
 41
2.5
 42
0.625
 43
3.75
 44
1.25
 45
0.0
 46
0.0
 47
0.0
 48
0.0
 49
2.5
140
2.5
141
2.5
142
0.0
143
0.03937007874
144
1.0
145
0.0
146
1.0
147
0.625
148
0.0
 69
0
 70
0
 71
0
 72
0
 73
0
 74
0
 75
0
 76
0
 77
1
 78
8
 79
3
170
0
171
3
172
1
173
0
174
0
175
0
176
0
177
0
178
0
179
2
271
2
272
2
273
2
274
3
275
0
276
0
277
2
278
44
279
0
280
0
281
0
282
0
283
0
284
8
285
0
286
0
288
0
289
3
290
0
371
-2
372
-2
  0
ENDTAB
  0
TABLE
  2
BLOCK_RECORD
  5
9
330
0
100
AcDbSymbolTable
 70
2
  0
BLOCK_RECORD
  5
17
330
9
100
AcDbSymbolTableRecord
100
AcDbBlockTableRecord
  2
*Model_Space
340
1A
 70
0
280
1
281
0
  0
BLOCK_RECORD
  5
1B
330
9
100
AcDbSymbolTableRecord
100
AcDbBlockTableRecord
  2
*Paper_Space
340
1E
 70
0
280
1
281
0
  0
ENDTAB
  0
ENDSEC
  0
SECTION
  2
BLOCKS
  0
BLOCK
  5
18
330
17
100
AcDbEntity
  8
0
100
AcDbBlockBegin
  2
*Model_Space
 70
0
 10
0.0
 20
0.0
 30
0.0
  3
*Model_Space
  1

  0
ENDBLK
  5
19
330
17
100
AcDbEntity
  8
0
100
AcDbBlockEnd
  0
BLOCK
  5
1C
330
1B
100
AcDbEntity
  8
0
100
AcDbBlockBegin
  2
*Paper_Space
 70
0
 10
0.0
 20
0.0
 30
0.0
  3
*Paper_Space
  1

  0
ENDBLK
  5
1D
330
1B
100
AcDbEntity
  8
0
100
AcDbBlockEnd
  0
ENDSEC
  0
SECTION
  2
ENTITIES
  0
LINE
  5
30
330
17
100
AcDbEntity
  8
B11
100
AcDbLine
 10
570917.0459745823
 20
785549.6583796116
 30
12.143235450845994
 11
570937.5525166992
 21
785574.8464201322
 31
12.99907639112235
  0
TEXT
  5
31
330
17
100
AcDbEntity
  8
B11
100
AcDbText
 10
570927.2992456408
 20
785562.2523998718
 30
12.571155920984172
 40
0.5
  1
B11-101
 72
1
 11
570927.2992456408
 21
785562.2523998718
 31
12.571155920984172
100
AcDbText
 73
2
  0
TEXT
  5
32
330
17
100
AcDbEntity
  8
0
100
AcDbText
 10
570917.3615437917
 20
785550.0459910376
 30
12.156405738033264
 40
0.5
  1
9.211
 11
570917.3615437917
 21
785550.0459910376
 31
12.156405738033264
100
AcDbText
 73
1
  0
CIRCLE
  5
33
330
17
100
AcDbEntity
  8
B11
100
AcDbCircle
 10
570917.3615437917
 20
785550.0459910376
 30
12.156405738033264
 40
0.25
  0
TEXT
  5
34
330
17
100
AcDbEntity
  8
0
100
AcDbText
 10
570937.2369474898
 20
785574.4588087061
 30
12.98590610393508
 40
0.5
  1
10.041
 72
2
 11
570937.2369474898
 21
785574.4588087061
 31
12.98590610393508
100
AcDbText
 73
2
  0
CIRCLE
  5
35
330
17
100
AcDbEntity
  8
B11
100
AcDbCircle
 10
570937.2369474898
 20
785574.4588087061
 30
12.98590610393508
 40
0.25
  0
LINE
  5
36
330
17
100
AcDbEntity
  8
B11
100
AcDbLine
 10
570918.7714889253
 20
785548.2536713203
 30
12.098738541073557
 11
570939.2779596552
 21
785573.441620718
 31
12.954575861866246
  0
TEXT
  5
37
330
17
100
AcDbEntity
  8
B11
100
AcDbText
 10
570929.0247242902
 20
785560.8476460191
 30
12.526657201469902
 40
0.5
  1
B11-102
 72
1
 11
570929.0247242902
 21
785560.8476460191
 31
12.526657201469902
100
AcDbText
 73
2
  0
TEXT
  5
38
330
17
100
AcDbEntity
  8
0
100
AcDbText
 10
570919.0870581608
 20
785548.6412827254
 30
12.111908819497208
 40
0.5
  1
9.167
 11
570919.0870581608
 21
785548.6412827254
 31
12.111908819497208
100
AcDbText
 73
1
  0
CIRCLE
  5
39
330
17
100
AcDbEntity
  8
B11
100
AcDbCircle
 10
570919.0870581608
 20
785548.6412827254
 30
12.111908819497208
 40
0.25
  0
TEXT
  5
3A
330
17
100
AcDbEntity
  8
0
100
AcDbText
 10
570938.9623904197
 20
785573.0540093129
 30
12.941405583442595
 40
0.5
  1
9.996
 72
2
 11
570938.9623904197
 21
785573.0540093129
 31
12.941405583442595
100
AcDbText
 73
2
  0
CIRCLE
  5
3B
330
17
100
AcDbEntity
  8
B11
100
AcDbCircle
 10
570938.9623904197
 20
785573.0540093129
 30
12.941405583442595
 40
0.25
  0
LINE
  5
3C
330
17
100
AcDbEntity
  8
B11
100
AcDbLine
 10
570920.4970101968
 20
785546.8489573889
 30
12.054241239007606
 11
570941.003406171
 21
785572.0368184051
 31
12.910075262398871
  0
TEXT
  5
3D
330
17
100
AcDbEntity
  8
B11
100
AcDbText
 10
570930.7502081839
 20
785559.442887897
 30
12.48215825070324
 40
0.5
  1
B11-103
 72
1
 11
570930.7502081839
 21
785559.442887897
 31
12.48215825070324
100
AcDbText
 73
2
  0
TEXT
  5
3E
330
17
100
AcDbEntity
  8
0
100
AcDbText
 10
570920.8125794064
 20
785547.2365688152
 30
12.067411513620927
 40
0.5
  1
9.122
 11
570920.8125794064
 21
785547.2365688152
 31
12.067411513620927
100
AcDbText
 73
1
  0
CIRCLE
  5
3F
330
17
100
AcDbEntity
  8
B11
100
AcDbCircle
 10
570920.8125794064
 20
785547.2365688152
 30
12.067411513620927
 40
0.25
  0
TEXT
  5
40
330
17
100
AcDbEntity
  8
0
100
AcDbText
 10
570940.6878369614
 20
785571.6492069789
 30
12.89690498778555
 40
0.5
  1
9.952
 72
2
 11
570940.6878369614
 21
785571.6492069789
 31
12.89690498778555
100
AcDbText
 73
2
  0
CIRCLE
  5
41
330
17
100
AcDbEntity
  8
B11
100
AcDbCircle
 10
570940.6878369614
 20
785571.6492069789
 30
12.89690498778555
 40
0.25
  0
LINE
  5
43
330
17
100
AcDbEntity
  8
B13
100
AcDbLine
 10
571107.1357770821
 20
785661.8966836042
 30
13.457280069217441
 11
571145.1290468925
 21
785649.3612139185
 31
14.847084702958597
  0
TEXT
  5
44
330
17
100
AcDbEntity
  8
B13
100
AcDbText
 10
571126.1324119873
 20
785655.6289487614
 30
14.152182386088018
 40
0.5
  1
B13-307
 72
1
 11
571126.1324119873
 21
785655.6289487614
 31
14.152182386088018
100
AcDbText
 73
2
  0
TEXT
  5
45
330
17
100
AcDbEntity
  8
0
100
AcDbText
 10
571107.6103137574
 20
785661.7401153452
 30
13.474638755994976
 40
0.5
  1
10.530
 11
571107.6103137574
 21
785661.7401153452
 31
13.474638755994976
100
AcDbText
 73
1
  0
CIRCLE
  5
46
330
17
100
AcDbEntity
  8
B13
100
AcDbCircle
 10
571107.6103137574
 20
785661.7401153452
 30
13.474638755994976
 40
0.25
  0
TEXT
  5
47
330
17
100
AcDbEntity
  8
0
100
AcDbText
 10
571144.6545102171
 20
785649.5177821775
 30
14.829726016181063
 40
0.5
  1
11.885
 72
2
 11
571144.6545102171
 21
785649.5177821775
 31
14.829726016181063
100
AcDbText
 73
2
  0
CIRCLE
  5
48
330
17
100
AcDbEntity
  8
B13
100
AcDbCircle
 10
571144.6545102171
 20
785649.5177821775
 30
14.829726016181063
 40
0.25
  0
LINE
  5
49
330
17
100
AcDbEntity
  8
B13
100
AcDbLine
 10
571105.7037547647
 20
785659.2318048868
 30
13.58618434055031
 11
571144.8409156695
 21
785647.7196420572
 31
14.838187485928014
  0
TEXT
  5
4A
330
17
100
AcDbEntity
  8
B13
100
AcDbText
 10
571125.2723352171
 20
785653.475723472
 30
14.212185913239162
 40
0.5
  1
B13-306
 72
1
 11
571125.2723352171
 21
785653.475723472
 31
14.212185913239162
100
AcDbText
 73
2
  0
TEXT
  5
4B
330
17
100
AcDbEntity
  8
0
100
AcDbText
 10
571106.1832076849
 20
785659.0907742153
 30
13.60152210522776
 40
0.5
  1
10.657
 11
571106.1832076849
 21
785659.0907742153
 31
13.60152210522776
100
AcDbText
 73
1
  0
CIRCLE
  5
4C
330
17
100
AcDbEntity
  8
B13
100
AcDbCircle
 10
571106.1832076849
 20
785659.0907742153
 30
13.60152210522776
 40
0.25
  0
TEXT
  5
4D
330
17
100
AcDbEntity
  8
0
100
AcDbText
 10
571144.3614627493
 20
785647.8606727287
 30
14.822849721250565
 40
0.5
  1
11.878
 72
2
 11
571144.3614627493
 21
785647.8606727287
 31
14.822849721250565
100
AcDbText
 73
2
  0
CIRCLE
  5
4E
330
17
100
AcDbEntity
  8
B13
100
AcDbCircle
 10
571144.3614627493
 20
785647.8606727287
 30
14.822849721250565
 40
0.25
  0
LINE
  5
4F
330
17
100
AcDbEntity
  8
B13
100
AcDbLine
 10
571104.271732447
 20
785656.5669261691
 30
13.715179024061428
 11
571144.552784446
 21
785646.0780701959
 31
14.829178113587746
  0
TEXT
  5
50
330
17
100
AcDbEntity
  8
B13
100
AcDbText
 10
571124.4122584464
 20
785651.3224981825
 30
14.272178568824586
 40
0.5
  1
B13-305
 72
1
 11
571124.4122584464
 21
785651.3224981825
 31
14.272178568824586
100
AcDbText
 73
2
  0
TEXT
  5
51
330
17
100
AcDbEntity
  8
0
100
AcDbText
 10
571104.7554243016
 20
785656.4409767723
 30
13.72855584166938
 40
0.5
  1
10.784
 11
571104.7554243016
 21
785656.4409767723
 31
13.72855584166938
100
AcDbText
 73
1
  0
CIRCLE
  5
52
330
17
100
AcDbEntity
  8
B13
100
AcDbCircle
 10
571104.7554243016
 20
785656.4409767723
 30
13.72855584166938
 40
0.25
  0
TEXT
  5
53
330
17
100
AcDbEntity
  8
0
100
AcDbText
 10
571144.0690925914
 20
785646.2040195926
 30
14.815801295979794
 40
0.5
  1
11.871
 72
2
 11
571144.0690925914
 21
785646.2040195926
 31
14.815801295979794
100
AcDbText
 73
2
  0
CIRCLE
  5
54
330
17
100
AcDbEntity
  8
B13
100
AcDbCircle
 10
571144.0690925914
 20
785646.2040195926
 30
14.815801295979794
 40
0.25
  0
LINE
  5
55
330
17
100
AcDbEntity
  8
B13
100
AcDbLine
 10
571103.8327292437
 20
785654.3007295292
 30
13.825138261534256
 11
571144.2646532229
 21
785644.4364983345
 31
14.820057734153405
  0
TEXT
  5
56
330
17
100
AcDbEntity
  8
B13
100
AcDbText
 10
571124.0486912333
 20
785649.3686139318
 30
14.32259799784383
 40
0.5
  1
B13-304
 72
1
 11
571124.0486912333
 21
785649.3686139318
 31
14.32259799784383
100
AcDbText
 73
2
  0
TEXT
  5
57
330
17
100
AcDbEntity
  8
0
100
AcDbText
 10
571104.3183429613
 20
785654.1822536936
 30
13.837087891832192
 40
0.5
  1
10.892
 11
571104.3183429613
 21
785654.1822536936
 31
13.837087891832192
100
AcDbText
 73
1
  0
CIRCLE
  5
58
330
17
100
AcDbEntity
  8
B13
100
AcDbCircle
 10
571104.3183429613
 20
785654.1822536936
 30
13.837087891832192
 40
0.25
  0
TEXT
  5
59
330
17
100
AcDbEntity
  8
0
100
AcDbText
 10
571143.7790395053
 20
785644.5549741702
 30
14.808108103855469
 40
0.5
  1
11.863
 72
2
 11
571143.7790395053
 21
785644.5549741702
 31
14.808108103855469
100
AcDbText
 73
2
  0
CIRCLE
  5
5A
330
17
100
AcDbEntity
  8
B13
100
AcDbCircle
 10
571143.7790395053
 20
785644.5549741702
 30
14.808108103855469
 40
0.25
  0
LINE
  5
5B
330
17
100
AcDbEntity
  8
B13
100
AcDbLine
 10
571103.3937260403
 20
785652.0345328888
 30
13.668960680081918
 11
571143.9765219997
 21
785642.794926473
 31
14.777398146688375
  0
TEXT
  5
5C
330
17
100
AcDbEntity
  8
B13
100
AcDbText
 10
571123.68512402
 20
785647.4147296809
 30
14.223179413385147
 40
0.5
  1
B13-106
 72
1
 11
571123.68512402
 21
785647.4147296809
 31
14.223179413385147
100
AcDbText
 73
2
  0
TEXT
  5
5D
330
17
100
AcDbEntity
  8
0
100
AcDbText
 10
571103.8810774689
 20
785651.9235761329
 30
13.682271704373829
 40
0.5
  1
10.737
 11
571103.8810774689
 21
785651.9235761329
 31
13.682271704373829
100
AcDbText
 73
1
  0
CIRCLE
  5
5E
330
17
100
AcDbEntity
  8
B13
100
AcDbCircle
 10
571103.8810774689
 20
785651.9235761329
 30
13.682271704373829
 40
0.25
  0
TEXT
  5
5F
330
17
100
AcDbEntity
  8
0
100
AcDbText
 10
571143.4891705711
 20
785642.905883229
 30
14.764087122396464
 40
0.5
  1
11.819
 72
2
 11
571143.4891705711
 21
785642.905883229
 31
14.764087122396464
100
AcDbText
 73
2
  0
CIRCLE
  5
60
330
17
100
AcDbEntity
  8
B13
100
AcDbCircle
 10
571143.4891705711
 20
785642.905883229
 30
14.764087122396464
 40
0.25
  0
LINE
  5
61
330
17
100
AcDbEntity
  8
B13
100
AcDbLine
 10
571103.0201010376
 20
785649.8005612334
 30
13.614571191856042
 11
571143.6883907764
 21
785641.1533546118
 31
14.744065056981752
  0
TEXT
  5
62
330
17
100
AcDbEntity
  8
B13
100
AcDbText
 10
571123.3542459069
 20
785645.4769579226
 30
14.179318124418897
 40
0.5
  1
B13-105
 72
1
 11
571123.3542459069
 21
785645.4769579226
 31
14.179318124418897
100
AcDbText
 73
2
  0
TEXT
  5
63
330
17
100
AcDbEntity
  8
0
100
AcDbText
 10
571103.5089873931
 20
785649.6966104315
 30
13.628149194345662
 40
0.5
  1
10.683
 11
571103.5089873931
 21
785649.6966104315
 31
13.628149194345662
100
AcDbText
 73
1
  0
CIRCLE
  5
64
330
17
100
AcDbEntity
  8
B13
100
AcDbCircle
 10
571103.5089873931
 20
785649.6966104315
 30
13.628149194345662
 40
0.25
  0
TEXT
  5
65
330
17
100
AcDbEntity
  8
0
100
AcDbText
 10
571143.1995044209
 20
785641.2573054137
 30
14.730487054492132
 40
0.5
  1
11.785
 72
2
 11
571143.1995044209
 21
785641.2573054137
 31
14.730487054492132
100
AcDbText
 73
2
  0
CIRCLE
  5
66
330
17
100
AcDbEntity
  8
B13
100
AcDbCircle
 10
571143.1995044209
 20
785641.2573054137
 30
14.730487054492132
 40
0.25
  0
LINE
  5
67
330
17
100
AcDbEntity
  8
B13
100
AcDbLine
 10
571102.6464760347
 20
785647.5665895779
 30
13.56018307255329
 11
571143.4002595532
 21
785639.5117827505
 31
14.710731723648875
  0
TEXT
  5
68
330
17
100
AcDbEntity
  8
B13
100
AcDbText
 10
571123.023367794
 20
785643.5391861643
 30
14.135457398101082
 40
0.5
  1
B13-104
 72
1
 11
571123.023367794
 21
785643.5391861643
 31
14.135457398101082
100
AcDbText
 73
2
  0
TEXT
  5
69
330
17
100
AcDbEntity
  8
0
100
AcDbText
 10
571103.1367991827
 20
785647.4696793552
 30
13.574025729306824
 40
0.5
  1
10.629
 11
571103.1367991827
 21
785647.4696793552
 31
13.574025729306824
100
AcDbText
 73
1
  0
CIRCLE
  5
6A
330
17
100
AcDbEntity
  8
B13
100
AcDbCircle
 10
571103.1367991827
 20
785647.4696793552
 30
13.574025729306824
 40
0.25
  0
TEXT
  5
6B
330
17
100
AcDbEntity
  8
0
100
AcDbText
 10
571142.9099364051
 20
785639.6086929733
 30
14.696889066895341
 40
0.5
  1
11.752
 72
2
 11
571142.9099364051
 21
785639.6086929733
 31
14.696889066895341
100
AcDbText
 73
2
  0
CIRCLE
  5
6C
330
17
100
AcDbEntity
  8
B13
100
AcDbCircle
 10
571142.9099364051
 20
785639.6086929733
 30
14.696889066895341
 40
0.25
  0
LINE
  5
6E
330
17
100
AcDbEntity
  8
B14
100
AcDbLine
 10
571145.4678216963
 20
785648.283429019
 30
14.85848026394558
 11
571189.8630638239
 21
785639.9656585169
 31
16.14950158395968
  0
TEXT
  5
6F
330
17
100
AcDbEntity
  8
B14
100
AcDbText
 10
571167.6654427601
 20
785644.1245437679
 30
15.50399092395263
 40
0.5
  1
B14-309
 72
1
 11
571167.6654427601
 21
785644.1245437679
 31
15.50399092395263
100
AcDbText
 73
2
  0
TEXT
  5
70
330
17
100
AcDbEntity
  8
0
100
AcDbText
 10
571145.9590698637
 20
785648.1913901131
 30
14.872765845622752
 40
0.5
  1
11.928
 11
571145.9590698637
 21
785648.1913901131
 31
14.872765845622752
100
AcDbText
 73
1
  0
CIRCLE
  5
71
330
17
100
AcDbEntity
  8
B14
100
AcDbCircle
 10
571145.9590698637
 20
785648.1913901131
 30
14.872765845622752
 40
0.25
  0
LINE
  5
72
330
17
100
AcDbEntity
  8
B14
100
AcDbLine
 10
571145.0065816978
 20
785645.6556034245
 30
14.842335570621879
 11
571189.4351730109
 21
785637.5278334501
 31
16.09999973913023
  0
TEXT
  5
73
330
17
100
AcDbEntity
  8
B14
100
AcDbText
 10
571167.2208773544
 20
785641.5917184374
 30
15.471167654876055
 40
0.5
  1
B14-308
 72
1
 11
571167.2208773544
 21
785641.5917184374
 31
15.471167654876055
100
AcDbText
 73
2
  0
TEXT
  5
74
330
17
100
AcDbEntity
  8
0
100
AcDbText
 10
571145.498228681
 20
785645.5656614869
 30
14.856252887739466
 40
0.5
  1
11.911
 11
571145.498228681
 21
785645.5656614869
 31
14.856252887739466
100
AcDbText
 73
1
  0
CIRCLE
  5
75
330
17
100
AcDbEntity
  8
B14
100
AcDbCircle
 10
571145.498228681
 20
785645.5656614869
 30
14.856252887739466
 40
0.25
  0
LINE
  5
76
330
17
100
AcDbEntity
  8
B14
100
AcDbLine
 10
571144.5453416993
 20
785643.0277778301
 30
14.798511742602251
 11
571189.0073165687
 21
785635.090204206
 31
16.05050187062199
  0
TEXT
  5
77
330
17
100
AcDbEntity
  8
B14
100
AcDbText
 10
571166.776329134
 20
785639.058991018
 30
15.42450680661212
 40
0.5
  1
B14-108
 72
1
 11
571166.776329134
 21
785639.058991018
 31
15.42450680661212
100
AcDbText
 73
2
  0
TEXT
  5
78
330
17
100
AcDbEntity
  8
0
100
AcDbText
 10
571145.037370436
 20
785642.9399384048
 30
14.812366617985342
 40
0.5
  1
11.867
 11
571145.037370436
 21
785642.9399384048
 31
14.812366617985342
100
AcDbText
 73
1
  0
CIRCLE
  5
79
330
17
100
AcDbEntity
  8
B14
100
AcDbCircle
 10
571145.037370436
 20
785642.9399384048
 30
14.812366617985342
 40
0.25
  0
LINE
  5
7A
330
17
100
AcDbEntity
  8
B14
100
AcDbLine
 10
571144.084101716
 20
785640.3999523235
 30
14.74515198138453
 11
571188.5794945615
 21
785632.6527711464
 31
16.001008096463195
  0
TEXT
  5
7B
330
17
100
AcDbEntity
  8
B14
100
AcDbText
 10
571166.3317981388
 20
785636.526361735
 30
15.373080038923863
 40
0.5
  1
B14-107
 72
1
 11
571166.3317981388
 21
785636.526361735
 31
15.373080038923863
100
AcDbText
 73
2
  0
TEXT
  5
7C
330
17
100
AcDbEntity
  8
0
100
AcDbText
 10
571144.5765007224
 20
785640.314219755
 30
14.759049651764473
 40
0.5
  1
11.814
 11
571144.5765007224
 21
785640.314219755
 31
14.759049651764473
100
AcDbText
 73
1
  0
CIRCLE
  5
7D
330
17
100
AcDbEntity
  8
B14
100
AcDbCircle
 10
571144.5765007224
 20
785640.314219755
 30
14.759049651764473
 40
0.25
  0
LINE
  5
7E
330
17
100
AcDbEntity
  8
B14
100
AcDbLine
 10
571190.3545448841
 20
785639.8735759767
 30
16.163386802725817
 11
571234.0670126806
 21
785631.6837281956
 31
17.404891721244685
  0
TEXT
  5
7F
330
17
100
AcDbEntity
  8
B14
100
AcDbText
 10
571212.2107787824
 20
785635.7786520862
 30
16.784139261985253
 40
0.5
  1
B14-504
 72
1
 11
571212.2107787824
 21
785635.7786520862
 31
16.784139261985253
100
AcDbText
 73
2
  0
TEXT
  5
80
330
17
100
AcDbEntity
  8
0
100
AcDbText
 10
571190.1089161763
 20
785639.919596296
 30
16.15641054939953
 40
0.5
  1
13.211
 72
1
 11
571190.1089161763
 21
785639.919596296
 31
16.15641054939953
100
AcDbText
 73
1
  0
CIRCLE
  5
81
330
17
100
AcDbEntity
  8
B14
100
AcDbCircle
 10
571190.1089161763
 20
785639.919596296
 30
16.15641054939953
 40
0.25
  0
LINE
  5
82
330
17
100
AcDbEntity
  8
B14
100
AcDbLine
 10
571189.927023266
 20
785637.4378543256
 30
16.113927669310787
 11
571233.6381748336
 21
785629.4413328345
 31
17.35922442391442
  0
TEXT
  5
83
330
17
100
AcDbEntity
  8
B14
100
AcDbText
 10
571211.7825990499
 20
785633.4395935801
 30
16.736576046612605
 40
0.5
  1
B14-503
 72
1
 11
571211.7825990499
 21
785633.4395935801
 31
16.736576046612605
100
AcDbText
 73
2
  0
TEXT
  5
84
330
17
100
AcDbEntity
  8
0
100
AcDbText
 10
571189.6812010006
 20
785637.4828250702
 30
16.10692438391897
 40
0.5
  1
13.162
 72
1
 11
571189.6812010006
 21
785637.4828250702
 31
16.10692438391897
100
AcDbText
 73
1
  0
CIRCLE
  5
85
330
17
100
AcDbEntity
  8
B14
100
AcDbCircle
 10
571189.6812010006
 20
785637.4828250702
 30
16.10692438391897
 40
0.25
  0
LINE
  5
86
330
17
100
AcDbEntity
  8
B14
100
AcDbLine
 10
571189.4995363993
 20
785635.0023306656
 30
16.064472863114144
 11
571233.209355752
 21
785627.1990355978
 31
17.31355950073798
  0
TEXT
  5
87
330
17
100
AcDbEntity
  8
B14
100
AcDbText
 10
571211.3544460756
 20
785631.1006831317
 30
16.689016181926064
 40
0.5
  1
B14-502
 72
1
 11
571211.3544460756
 21
785631.1006831317
 31
16.689016181926064
100
AcDbText
 73
2
  0
TEXT
  5
88
330
17
100
AcDbEntity
  8
0
100
AcDbText
 10
571189.2535248566
 20
785635.0462498738
 30
16.0574426411822
 40
0.5
  1
13.112
 72
1
 11
571189.2535248566
 21
785635.0462498738
 31
16.0574426411822
100
AcDbText
 73
1
  0
CIRCLE
  5
89
330
17
100
AcDbEntity
  8
B14
100
AcDbCircle
 10
571189.2535248566
 20
785635.0462498738
 30
16.0574426411822
 40
0.25
  0
LINE
  5
8A
330
17
100
AcDbEntity
  8
B14
100
AcDbLine
 10
571189.0720843482
 20
785632.567005361
 30
16.015021777806236
 11
571232.7805554743
 21
785624.9568366866
 31
17.267896593547466
  0
TEXT
  5
8B
330
17
100
AcDbEntity
  8
B14
100
AcDbText
 10
571210.9263199113
 20
785628.7619210237
 30
16.64145918567685
 40
0.5
  1
B14-501
 72
1
 11
571210.9263199113
 21
785628.7619210237
 31
16.64145918567685
100
AcDbText
 73
2
  0
TEXT
  5
8C
330
17
100
AcDbEntity
  8
0
100
AcDbText
 10
571188.8258878329
 20
785632.609871125
 30
16.00796471527827
 40
0.5
  1
13.063
 72
1
 11
571188.8258878329
 21
785632.609871125
 31
16.00796471527827
100
AcDbText
 73
1
  0
CIRCLE
  5
8D
330
17
100
AcDbEntity
  8
B14
100
AcDbCircle
 10
571188.8258878329
 20
785632.609871125
 30
16.00796471527827
 40
0.25
  0
LINE
  5
8E
330
17
100
AcDbEntity
  8
B14
100
AcDbLine
 10
571234.5584649311
 20
785631.591651053
 30
17.418939507904508
 11
571278.2624771938
 21
785623.403387478
 31
18.675984556461582
  0
TEXT
  5
8F
330
17
100
AcDbEntity
  8
B14
100
AcDbText
 10
571256.4104710624
 20
785627.4975192655
 30
18.047462032183045
 40
0.5
  1
B14-508
 72
1
 11
571256.4104710624
 21
785627.4975192655
 31
18.047462032183045
100
AcDbText
 73
2
  0
TEXT
  5
90
330
17
100
AcDbEntity
  8
0
100
AcDbText
 10
571234.3128386703
 20
785631.637670914
 30
17.411874635392497
 40
0.5
  1
14.467
 72
1
 11
571234.3128386703
 21
785631.637670914
 31
17.411874635392497
100
AcDbText
 73
1
  0
CIRCLE
  5
91
330
17
100
AcDbEntity
  8
B14
100
AcDbCircle
 10
571234.3128386703
 20
785631.637670914
 30
17.411874635392497
 40
0.25
  0
TEXT
  5
92
330
17
100
AcDbEntity
  8
0
100
AcDbText
 10
571277.7712246723
 20
785623.4954271998
 30
18.66185481143756
 40
0.5
  1
15.717
 72
2
 11
571277.7712246723
 21
785623.4954271998
 31
18.66185481143756
100
AcDbText
 73
1
  0
CIRCLE
  5
93
330
17
100
AcDbEntity
  8
B14
100
AcDbCircle
 10
571277.7712246723
 20
785623.4954271998
 30
18.66185481143756
 40
0.25
  0
LINE
  5
94
330
17
100
AcDbEntity
  8
B14
100
AcDbLine
 10
571234.1300282022
 20
785629.3513531405
 30
17.373327644487134
 11
571277.832578053
 21
785621.3564052478
 31
18.634143331707385
  0
TEXT
  5
95
330
17
100
AcDbEntity
  8
B14
100
AcDbText
 10
571255.9813031276
 20
785625.3538791942
 30
18.00373548809726
 40
0.5
  1
B14-507
 72
1
 11
571255.9813031276
 21
785625.3538791942
 31
18.00373548809726
100
AcDbText
 73
2
  0
TEXT
  5
96
330
17
100
AcDbEntity
  8
0
100
AcDbText
 10
571233.8842083947
 20
785629.3963234354
 30
17.36623575921844
 40
0.5
  1
14.421
 72
1
 11
571233.8842083947
 21
785629.3963234354
 31
17.36623575921844
100
AcDbText
 73
1
  0
CIRCLE
  5
97
330
17
100
AcDbEntity
  8
B14
100
AcDbCircle
 10
571233.8842083947
 20
785629.3963234354
 30
17.36623575921844
 40
0.25
  0
TEXT
  5
98
330
17
100
AcDbEntity
  8
0
100
AcDbText
 10
571277.3409384381
 20
785621.4463458374
 30
18.619959561170003
 40
0.5
  1
15.675
 72
2
 11
571277.3409384381
 21
785621.4463458374
 31
18.619959561170003
100
AcDbText
 73
1
  0
CIRCLE
  5
99
330
17
100
AcDbEntity
  8
B14
100
AcDbCircle
 10
571277.3409384381
 20
785621.4463458374
 30
18.619959561170003
 40
0.25
  0
LINE
  5
9A
330
17
100
AcDbEntity
  8
B14
100
AcDbLine
 10
571233.7016107043
 20
785627.1111557873
 30
17.327718580830567
 11
571277.402678912
 21
785619.3094230177
 31
18.59230173904104
  0
TEXT
  5
9B
330
17
100
AcDbEntity
  8
B14
100
AcDbText
 10
571255.5521448081
 20
785623.2102894024
 30
17.960010159935806
 40
0.5
  1
B14-506
 72
1
 11
571255.5521448081
 21
785623.2102894024
 31
17.960010159935806
100
AcDbText
 73
2
  0
TEXT
  5
9C
330
17
100
AcDbEntity
  8
0
100
AcDbText
 10
571233.45560163
 20
785627.1550745548
 30
17.320599786145742
 40
0.5
  1
14.376
 72
1
 11
571233.45560163
 21
785627.1550745548
 31
17.320599786145742
100
AcDbText
 73
1
  0
CIRCLE
  5
9D
330
17
100
AcDbEntity
  8
B14
100
AcDbCircle
 10
571233.45560163
 20
785627.1550745548
 30
17.320599786145742
 40
0.25
  0
TEXT
  5
9E
330
17
100
AcDbEntity
  8
0
100
AcDbText
 10
571276.9106607635
 20
785619.3972605527
 30
18.578064149671388
 40
0.5
  1
15.633
 72
2
 11
571276.9106607635
 21
785619.3972605527
 31
18.578064149671388
100
AcDbText
 73
1
  0
CIRCLE
  5
9F
330
17
100
AcDbEntity
  8
B14
100
AcDbCircle
 10
571276.9106607635
 20
785619.3972605527
 30
18.578064149671388
 40
0.25
  0
LINE
  5
A0
330
17
100
AcDbEntity
  8
B14
100
AcDbLine
 10
571233.2732124766
 20
785624.8710591978
 30
17.28211106268599
 11
571276.9727797712
 21
785617.2624407875
 31
18.550459605903317
  0
TEXT
  5
A1
330
17
100
AcDbEntity
  8
B14
100
AcDbText
 10
571255.122996124
 20
785621.0667499927
 30
17.916285334294653
 40
0.5
  1
B14-505
 72
1
 11
571255.122996124
 21
785621.0667499927
 31
17.916285334294653
100
AcDbText
 73
2
  0
TEXT
  5
A2
330
17
100
AcDbEntity
  8
0
100
AcDbText
 10
571233.0270184402
 20
785624.9139245303
 30
17.274965457663583
 40
0.5
  1
14.330
 72
1
 11
571233.0270184402
 21
785624.9139245303
 31
17.274965457663583
100
AcDbText
 73
1
  0
CIRCLE
  5
A3
330
17
100
AcDbEntity
  8
B14
100
AcDbCircle
 10
571233.0270184402
 20
785624.9139245303
 30
17.274965457663583
 40
0.25
  0
TEXT
  5
A4
330
17
100
AcDbEntity
  8
0
100
AcDbText
 10
571276.4803916982
 20
785617.3481714523
 30
18.536168395858507
 40
0.5
  1
15.591
 72
2
 11
571276.4803916982
 21
785617.3481714523
 31
18.536168395858507
100
AcDbText
 73
1
  0
CIRCLE
  5
A5
330
17
100
AcDbEntity
  8
B14
100
AcDbCircle
 10
571276.4803916982
 20
785617.3481714523
 30
18.536168395858507
 40
0.25
  0
LINE
  5
A7
330
17
100
AcDbEntity
  8
B21
100
AcDbLine
 10
570911.2683981054
 20
785554.3617943431
 30
12.390918102157544
 11
570931.7751848878
 21
785579.5501353829
 31
14.339746703145218
  0
TEXT
  5
A8
330
17
100
AcDbEntity
  8
B21
100
AcDbText
 10
570921.5217914965
 20
785566.9559648631
 30
13.365332402651381
 40
0.5
  1
B21-201
 72
1
 11
570921.5217914965
 21
785566.9559648631
 31
13.365332402651381
100
AcDbText
 73
2
  0
TEXT
  5
A9
330
17
100
AcDbEntity
  8
0
100
AcDbText
 10
570911.5835101544
 20
785554.7488442423
 30
12.420864255116896
 40
0.5
  1
9.476
 11
570911.5835101544
 21
785554.7488442423
 31
12.420864255116896
100
AcDbText
 73
1
  0
CIRCLE
  5
AA
330
17
100
AcDbEntity
  8
B21
100
AcDbCircle
 10
570911.5835101544
 20
785554.7488442423
 30
12.420864255116896
 40
0.25
  0
TEXT
  5
AB
330
17
100
AcDbEntity
  8
0
100
AcDbText
 10
570931.4600728388
 20
785579.1630854837
 30
14.309800550185866
 40
0.5
  1
11.365
 72
2
 11
570931.4600728388
 21
785579.1630854837
 31
14.309800550185866
100
AcDbText
 73
2
  0
CIRCLE
  5
AC
330
17
100
AcDbEntity
  8
B21
100
AcDbCircle
 10
570931.4600728388
 20
785579.1630854837
 30
14.309800550185866
 40
0.25
  0
LINE
  5
AD
330
17
100
AcDbEntity
  8
B21
100
AcDbLine
 10
570912.9939124496
 20
785552.9570860508
 30
12.43542272902307
 11
570933.5006296235
 21
785578.1453345191
 31
14.384243900612612
  0
TEXT
  5
AE
330
17
100
AcDbEntity
  8
B21
100
AcDbText
 10
570923.2472710365
 20
785565.5512102849
 30
13.409833314817842
 40
0.5
  1
B21-202
 72
1
 11
570923.2472710365
 21
785565.5512102849
 31
13.409833314817842
100
AcDbText
 73
2
  0
TEXT
  5
AF
330
17
100
AcDbEntity
  8
0
100
AcDbText
 10
570913.3090245521
 20
785553.344135907
 30
12.46536887455312
 40
0.5
  1
9.520
 11
570913.3090245521
 21
785553.344135907
 31
12.46536887455312
100
AcDbText
 73
1
  0
CIRCLE
  5
B0
330
17
100
AcDbEntity
  8
B21
100
AcDbCircle
 10
570913.3090245521
 20
785553.344135907
 30
12.46536887455312
 40
0.25
  0
TEXT
  5
B1
330
17
100
AcDbEntity
  8
0
100
AcDbText
 10
570933.185517521
 20
785577.7582846629
 30
14.354297755082563
 40
0.5
  1
11.409
 72
2
 11
570933.185517521
 21
785577.7582846629
 31
14.354297755082563
100
AcDbText
 73
2
  0
CIRCLE
  5
B2
330
17
100
AcDbEntity
  8
B21
100
AcDbCircle
 10
570933.185517521
 20
785577.7582846629
 30
14.354297755082563
 40
0.25
  0
LINE
  5
B3
330
17
100
AcDbEntity
  8
B21
100
AcDbLine
 10
570914.7194267939
 20
785551.552377759
 30
12.479927219173662
 11
570935.2260743595
 21
785576.7405336556
 31
14.428741234223347
  0
TEXT
  5
B4
330
17
100
AcDbEntity
  8
B21
100
AcDbText
 10
570924.9727505767
 20
785564.1464557073
 30
13.454334226698505
 40
0.5
  1
B21-203
 72
1
 11
570924.9727505767
 21
785564.1464557073
 31
13.454334226698505
100
AcDbText
 73
2
  0
TEXT
  5
B5
330
17
100
AcDbEntity
  8
0
100
AcDbText
 10
570915.0345389497
 20
785551.9394275721
 30
12.509873361452247
 40
0.5
  1
9.565
 11
570915.0345389497
 21
785551.9394275721
 31
12.509873361452247
100
AcDbText
 73
1
  0
CIRCLE
  5
B6
330
17
100
AcDbEntity
  8
B21
100
AcDbCircle
 10
570915.0345389497
 20
785551.9394275721
 30
12.509873361452247
 40
0.25
  0
TEXT
  5
B7
330
17
100
AcDbEntity
  8
0
100
AcDbText
 10
570934.9109622036
 20
785576.3534838426
 30
14.398795091944763
 40
0.5
  1
11.454
 72
2
 11
570934.9109622036
 21
785576.3534838426
 31
14.398795091944763
100
AcDbText
 73
2
  0
CIRCLE
  5
B8
330
17
100
AcDbEntity
  8
B21
100
AcDbCircle
 10
570934.9109622036
 20
785576.3534838426
 30
14.398795091944763
 40
0.25
  0
LINE
  5
BA
330
17
100
AcDbEntity
  8
B23
100
AcDbLine
 10
571117.922862961
 20
785664.5710583347
 30
22.79153672967015
 11
571146.9675869191
 21
785658.4244044332
 31
22.356348812447404
  0
TEXT
  5
BB
330
17
100
AcDbEntity
  8
B23
100
AcDbText
 10
571132.44522494
 20
785661.497731384
 30
22.57394277105878
 40
0.5
  1
B23-206
 72
1
 11
571132.44522494
 21
785661.497731384
 31
22.57394277105878
100
AcDbText
 73
2
  0
TEXT
  5
BC
330
17
100
AcDbEntity
  8
0
100
AcDbText
 10
571118.4119764736
 20
785664.4675486066
 30
22.784208159732394
 40
0.5
  1
19.839
 11
571118.4119764736
 21
785664.4675486066
 31
22.784208159732394
100
AcDbText
 73
1
  0
CIRCLE
  5
BD
330
17
100
AcDbEntity
  8
B23
100
AcDbCircle
 10
571118.4119764736
 20
785664.4675486066
 30
22.784208159732394
 40
0.25
  0
LINE
  5
BE
330
17
100
AcDbEntity
  8
B23
100
AcDbLine
 10
571117.4621989222
 20
785662.3942685782
 30
22.836036696200793
 11
571146.5069229787
 21
785656.2476151414
 31
22.40084878620961
  0
TEXT
  5
BF
330
17
100
AcDbEntity
  8
B23
100
AcDbText
 10
571131.9845609504
 20
785659.3209418599
 30
22.6184427412052
 40
0.5
  1
B23-205
 72
1
 11
571131.9845609504
 21
785659.3209418599
 31
22.6184427412052
100
AcDbText
 73
2
  0
TEXT
  5
C0
330
17
100
AcDbEntity
  8
0
100
AcDbText
 10
571117.9513124365
 20
785662.2907588579
 30
22.828708126384797
 40
0.5
  1
19.884
 11
571117.9513124365
 21
785662.2907588579
 31
22.828708126384797
100
AcDbText
 73
1
  0
CIRCLE
  5
C1
330
17
100
AcDbEntity
  8
B23
100
AcDbCircle
 10
571117.9513124365
 20
785662.2907588579
 30
22.828708126384797
 40
0.25
  0
LINE
  5
C2
330
17
100
AcDbEntity
  8
B23
100
AcDbLine
 10
571117.0015348834
 20
785660.2174788216
 30
22.880536596043783
 11
571146.0462590383
 21
785654.0708258499
 31
22.4453488768347
  0
TEXT
  5
C3
330
17
100
AcDbEntity
  8
B23
100
AcDbText
 10
571131.5238969608
 20
785657.1441523358
 30
22.66294273643924
 40
0.5
  1
B23-204
 72
1
 11
571131.5238969608
 21
785657.1441523358
 31
22.66294273643924
100
AcDbText
 73
2
  0
TEXT
  5
C4
330
17
100
AcDbEntity
  8
0
100
AcDbText
 10
571117.4906483993
 20
785660.1139691091
 30
22.873208029439862
 40
0.5
  1
19.928
 11
571117.4906483993
 21
785660.1139691091
 31
22.873208029439862
100
AcDbText
 73
1
  0
CIRCLE
  5
C5
330
17
100
AcDbEntity
  8
B23
100
AcDbCircle
 10
571117.4906483993
 20
785660.1139691091
 30
22.873208029439862
 40
0.25
  0
LINE
  5
C6
330
17
100
AcDbEntity
  8
B23
100
AcDbLine
 10
571147.4567529786
 20
785658.3208835843
 30
22.34901949796281
 11
571190.9925322883
 21
785649.107528066
 31
21.696706818103944
  0
TEXT
  5
C7
330
17
100
AcDbEntity
  8
B23
100
AcDbText
 10
571169.2246426335
 20
785653.7142058252
 30
22.022863158033378
 40
0.5
  1
B23-209
 72
1
 11
571169.2246426335
 21
785653.7142058252
 31
22.022863158033378
100
AcDbText
 73
2
  0
TEXT
  5
C8
330
17
100
AcDbEntity
  8
0
100
AcDbText
 10
571147.2121962223
 20
785658.3726384484
 30
22.352683782273946
 40
0.5
  1
19.408
 72
1
 11
571147.2121962223
 21
785658.3726384484
 31
22.352683782273946
100
AcDbText
 73
1
  0
CIRCLE
  5
C9
330
17
100
AcDbEntity
  8
B23
100
AcDbCircle
 10
571147.2121962223
 20
785658.3726384484
 30
22.352683782273946
 40
0.25
  0
LINE
  5
CA
330
17
100
AcDbEntity
  8
B23
100
AcDbLine
 10
571146.9960890401
 20
785656.1440943005
 30
22.393519471545897
 11
571190.5318684971
 21
785646.9307394793
 31
21.741206777477977
  0
TEXT
  5
CB
330
17
100
AcDbEntity
  8
B23
100
AcDbText
 10
571168.7639787686
 20
785651.5374168898
 30
22.067363124511935
 40
0.5
  1
B23-208
 72
1
 11
571168.7639787686
 21
785651.5374168898
 31
22.067363124511935
100
AcDbText
 73
2
  0
TEXT
  5
CC
330
17
100
AcDbEntity
  8
0
100
AcDbText
 10
571146.7515322829
 20
785656.1958491607
 30
22.397183755936844
 40
0.5
  1
19.452
 72
1
 11
571146.7515322829
 21
785656.1958491607
 31
22.397183755936844
100
AcDbText
 73
1
  0
CIRCLE
  5
CD
330
17
100
AcDbEntity
  8
B23
100
AcDbCircle
 10
571146.7515322829
 20
785656.1958491607
 30
22.397183755936844
 40
0.25
  0
LINE
  5
CE
330
17
100
AcDbEntity
  8
B23
100
AcDbLine
 10
571146.5354251013
 20
785653.967305017
 30
22.43801946187771
 11
571190.071204706
 21
785644.7539508924
 31
21.785706753570132
  0
TEXT
  5
CF
330
17
100
AcDbEntity
  8
B23
100
AcDbText
 10
571168.3033149036
 20
785649.3606279547
 30
22.11186310772392
 40
0.5
  1
B23-207
 72
1
 11
571168.3033149036
 21
785649.3606279547
 31
22.11186310772392
100
AcDbText
 73
2
  0
TEXT
  5
D0
330
17
100
AcDbEntity
  8
0
100
AcDbText
 10
571146.2908683433
 20
785654.0190598733
 30
22.44168374634861
 40
0.5
  1
19.497
 72
1
 11
571146.2908683433
 21
785654.0190598733
 31
22.44168374634861
100
AcDbText
 73
1
  0
CIRCLE
  5
D1
330
17
100
AcDbEntity
  8
B23
100
AcDbCircle
 10
571146.2908683433
 20
785654.0190598733
 30
22.44168374634861
 40
0.25
  0
LINE
  5
D2
330
17
100
AcDbEntity
  8
B23
100
AcDbLine
 10
571191.4816983481
 20
785649.0040072174
 30
21.689377403478304
 11
571235.5940534775
 21
785639.668632567
 31
21.028425674936788
  0
TEXT
  5
D3
330
17
100
AcDbEntity
  8
B23
100
AcDbText
 10
571213.5378759129
 20
785644.3363198922
 30
21.358901539207544
 40
0.5
  1
B23-212
 72
1
 11
571213.5378759129
 21
785644.3363198922
 31
21.358901539207544
100
AcDbText
 73
2
  0
TEXT
  5
D4
330
17
100
AcDbEntity
  8
0
100
AcDbText
 10
571191.2371415917
 20
785649.0557620814
 30
21.693041687789282
 40
0.5
  1
18.748
 72
1
 11
571191.2371415917
 21
785649.0557620814
 31
21.693041687789282
100
AcDbText
 73
1
  0
CIRCLE
  5
D5
330
17
100
AcDbEntity
  8
B23
100
AcDbCircle
 10
571191.2371415917
 20
785649.0557620814
 30
21.693041687789282
 40
0.25
  0
LINE
  5
D6
330
17
100
AcDbEntity
  8
B23
100
AcDbLine
 10
571191.0210345585
 20
785646.8272186386
 30
21.73387744600949
 11
571235.1760364837
 21
785637.4828195042
 31
21.072286554998108
  0
TEXT
  5
D7
330
17
100
AcDbEntity
  8
B23
100
AcDbText
 10
571213.0985355212
 20
785642.1550190714
 30
21.4030820005038
 40
0.5
  1
B23-211
 72
1
 11
571213.0985355212
 21
785642.1550190714
 31
21.4030820005038
100
AcDbText
 73
2
  0
TEXT
  5
D8
330
17
100
AcDbEntity
  8
0
100
AcDbText
 10
571190.7764778014
 20
785646.8789734988
 30
21.737541731272906
 40
0.5
  1
18.793
 72
1
 11
571190.7764778014
 21
785646.8789734988
 31
21.737541731272906
100
AcDbText
 73
1
  0
CIRCLE
  5
D9
330
17
100
AcDbEntity
  8
B23
100
AcDbCircle
 10
571190.7764778014
 20
785646.8789734988
 30
21.737541731272906
 40
0.25
  0
LINE
  5
DA
330
17
100
AcDbEntity
  8
B23
100
AcDbLine
 10
571190.560370769
 20
785644.6504300595
 30
21.77837742194225
 11
571234.75801949
 21
785635.2970064424
 31
21.11614744332934
  0
TEXT
  5
DB
330
17
100
AcDbEntity
  8
B23
100
AcDbText
 10
571212.6591951295
 20
785639.973718251
 30
21.447262432635796
 40
0.5
  1
B23-210
 72
1
 11
571212.6591951295
 21
785639.973718251
 31
21.447262432635796
100
AcDbText
 73
2
  0
TEXT
  5
DC
330
17
100
AcDbEntity
  8
0
100
AcDbText
 10
571190.315814011
 20
785644.7021849158
 30
21.7820417077421
 40
0.5
  1
18.837
 72
1
 11
571190.315814011
 21
785644.7021849158
 31
21.7820417077421
100
AcDbText
 73
1
  0
CIRCLE
  5
DD
330
17
100
AcDbEntity
  8
B23
100
AcDbCircle
 10
571190.315814011
 20
785644.7021849158
 30
21.7820417077421
 40
0.25
  0
LINE
  5
DE
330
17
100
AcDbEntity
  8
B23
100
AcDbLine
 10
571236.0833134229
 20
785639.5650918497
 30
21.021095157936244
 11
571279.7173739182
 21
785630.3309373581
 31
20.416238690274888
  0
TEXT
  5
DF
330
17
100
AcDbEntity
  8
B23
100
AcDbText
 10
571257.9003436705
 20
785634.9480146039
 30
20.718666924105566
 40
0.5
  1
B23-215
 72
1
 11
571257.9003436705
 21
785634.9480146039
 31
20.718666924105566
100
AcDbText
 73
2
  0
TEXT
  5
E0
330
17
100
AcDbEntity
  8
0
100
AcDbText
 10
571235.8387528816
 20
785639.6168475148
 30
21.024485262442155
 40
0.5
  1
18.079
 72
1
 11
571235.8387528816
 21
785639.6168475148
 31
21.024485262442155
100
AcDbText
 73
1
  0
CIRCLE
  5
E1
330
17
100
AcDbEntity
  8
B23
100
AcDbCircle
 10
571235.8387528816
 20
785639.6168475148
 30
21.024485262442155
 40
0.25
  0
TEXT
  5
E2
330
17
100
AcDbEntity
  8
0
100
AcDbText
 10
571279.2282528357
 20
785630.4344486882
 30
20.42301889928671
 40
0.5
  1
17.478
 72
2
 11
571279.2282528357
 21
785630.4344486882
 31
20.42301889928671
100
AcDbText
 73
1
  0
CIRCLE
  5
E3
330
17
100
AcDbEntity
  8
B23
100
AcDbCircle
 10
571279.2282528357
 20
785630.4344486882
 30
20.42301889928671
 40
0.25
  0
LINE
  5
E4
330
17
100
AcDbEntity
  8
B23
100
AcDbLine
 10
571235.6652964306
 20
785637.3792787947
 30
21.064955975293188
 11
571279.2600645805
 21
785628.1534403618
 31
20.460709323631686
  0
TEXT
  5
E5
330
17
100
AcDbEntity
  8
B23
100
AcDbText
 10
571257.4626805056
 20
785632.7663595784
 30
20.76283264946244
 40
0.5
  1
B23-214
 72
1
 11
571257.4626805056
 21
785632.7663595784
 31
20.76283264946244
100
AcDbText
 73
2
  0
TEXT
  5
E6
330
17
100
AcDbEntity
  8
0
100
AcDbText
 10
571235.4207358836
 20
785637.4310344569
 30
21.068345714426265
 40
0.5
  1
18.123
 72
1
 11
571235.4207358836
 21
785637.4310344569
 31
21.068345714426265
100
AcDbText
 73
1
  0
CIRCLE
  5
E7
330
17
100
AcDbEntity
  8
B23
100
AcDbCircle
 10
571235.4207358836
 20
785637.4310344569
 30
21.068345714426265
 40
0.25
  0
TEXT
  5
E8
330
17
100
AcDbEntity
  8
0
100
AcDbText
 10
571278.7709434867
 20
785628.2569516862
 30
20.467488801897836
 40
0.5
  1
17.522
 72
2
 11
571278.7709434867
 21
785628.2569516862
 31
20.467488801897836
100
AcDbText
 73
1
  0
CIRCLE
  5
E9
330
17
100
AcDbEntity
  8
B23
100
AcDbCircle
 10
571278.7709434867
 20
785628.2569516862
 30
20.467488801897836
 40
0.25
  0
LINE
  5
EA
330
17
100
AcDbEntity
  8
B23
100
AcDbLine
 10
571235.2472794385
 20
785635.193465741
 30
21.108816926077875
 11
571278.8027552428
 21
785625.9759433653
 31
20.505180039335038
  0
TEXT
  5
EB
330
17
100
AcDbEntity
  8
B23
100
AcDbText
 10
571257.0250173407
 20
785630.5847045531
 30
20.806998482706458
 40
0.5
  1
B23-213
 72
1
 11
571257.0250173407
 21
785630.5847045531
 31
20.806998482706458
100
AcDbText
 73
2
  0
TEXT
  5
EC
330
17
100
AcDbEntity
  8
0
100
AcDbText
 10
571235.002718886
 20
785635.2452214003
 30
21.112206299465626
 40
0.5
  1
18.167
 72
1
 11
571235.002718886
 21
785635.2452214003
 31
21.112206299465626
100
AcDbText
 73
1
  0
CIRCLE
  5
ED
330
17
100
AcDbEntity
  8
B23
100
AcDbCircle
 10
571235.002718886
 20
785635.2452214003
 30
21.112206299465626
 40
0.25
  0
TEXT
  5
EE
330
17
100
AcDbEntity
  8
0
100
AcDbText
 10
571278.3136341376
 20
785626.0794546838
 30
20.511958786110544
 40
0.5
  1
17.567
 72
2
 11
571278.3136341376
 21
785626.0794546838
 31
20.511958786110544
100
AcDbText
 73
1
  0
CIRCLE
  5
EF
330
17
100
AcDbEntity
  8
B23
100
AcDbCircle
 10
571278.3136341376
 20
785626.0794546838
 30
20.511958786110544
 40
0.25
  0
LINE
  5
F1
330
17
100
AcDbEntity
  8
B31
100
AcDbLine
 10
571098.324004283
 20
785782.2145027231
 30
11.694938393472873
 11
571121.9607532921
 21
785811.4114451938
 31
10.289294417049637
  0
TEXT
  5
F2
330
17
100
AcDbEntity
  8
B31
100
AcDbText
 10
571110.1423787875
 20
785796.8129739584
 30
10.992116405261255
 40
0.5
  1
B31-303
 72
1
 11
571110.1423787875
 21
785796.8129739584
 31
10.992116405261255
100
AcDbText
 73
2
  0
TEXT
  5
F3
330
17
100
AcDbEntity
  8
0
100
AcDbText
 10
571098.6383924559
 20
785782.6028460353
 30
11.676242174234527
 40
0.5
  1
8.731
 11
571098.6383924559
 21
785782.6028460353
 31
11.676242174234527
100
AcDbText
 73
1
  0
CIRCLE
  5
F4
330
17
100
AcDbEntity
  8
B31
100
AcDbCircle
 10
571098.6383924559
 20
785782.6028460353
 30
11.676242174234527
 40
0.25
  0
TEXT
  5
F5
330
17
100
AcDbEntity
  8
0
100
AcDbText
 10
571121.6463651191
 20
785811.0231018816
 30
10.307990636287983
 40
0.5
  1
7.363
 72
2
 11
571121.6463651191
 21
785811.0231018816
 31
10.307990636287983
100
AcDbText
 73
2
  0
CIRCLE
  5
F6
330
17
100
AcDbEntity
  8
B31
100
AcDbCircle
 10
571121.6463651191
 20
785811.0231018816
 30
10.307990636287983
 40
0.25
  0
LINE
  5
F7
330
17
100
AcDbEntity
  8
B31
100
AcDbLine
 10
571096.5573347063
 20
785783.6284442656
 30
11.672080516323586
 11
571120.2352978098
 21
785812.8162350769
 31
10.24479333981475
  0
TEXT
  5
F8
330
17
100
AcDbEntity
  8
B31
100
AcDbText
 10
571108.396316258
 20
785798.2223396712
 30
10.958436928069169
 40
0.5
  1
B31-302
 72
1
 11
571108.396316258
 21
785798.2223396712
 31
10.958436928069169
100
AcDbText
 73
2
  0
TEXT
  5
F9
330
17
100
AcDbEntity
  8
0
100
AcDbText
 10
571096.8721066011
 20
785784.0164631243
 30
11.653106338218274
 40
0.5
  1
8.708
 11
571096.8721066011
 21
785784.0164631243
 31
11.653106338218274
100
AcDbText
 73
1
  0
CIRCLE
  5
FA
330
17
100
AcDbEntity
  8
B31
100
AcDbCircle
 10
571096.8721066011
 20
785784.0164631243
 30
11.653106338218274
 40
0.25
  0
TEXT
  5
FB
330
17
100
AcDbEntity
  8
0
100
AcDbText
 10
571119.920525915
 20
785812.4282162181
 30
10.263767517920062
 40
0.5
  1
7.319
 72
2
 11
571119.920525915
 21
785812.4282162181
 31
10.263767517920062
100
AcDbText
 73
2
  0
CIRCLE
  5
FC
330
17
100
AcDbEntity
  8
B31
100
AcDbCircle
 10
571119.920525915
 20
785812.4282162181
 30
10.263767517920062
 40
0.25
  0
LINE
  5
FD
330
17
100
AcDbEntity
  8
B31
100
AcDbLine
 10
571094.7873306179
 20
785785.0450545604
 30
11.649185537686906
 11
571118.509844501
 21
785814.2210231903
 31
10.200292176086267
  0
TEXT
  5
FE
330
17
100
AcDbEntity
  8
B31
100
AcDbText
 10
571106.6485875595
 20
785799.6330388753
 30
10.924738856886586
 40
0.5
  1
B31-301
 72
1
 11
571106.6485875595
 21
785799.6330388753
 31
10.924738856886586
100
AcDbText
 73
2
  0
TEXT
  5
FF
330
17
100
AcDbEntity
  8
0
100
AcDbText
 10
571095.1025294914
 20
785785.4327129887
 30
11.629934224030395
 40
0.5
  1
8.685
 11
571095.1025294914
 21
785785.4327129887
 31
11.629934224030395
100
AcDbText
 73
1
  0
CIRCLE
  5
100
330
17
100
AcDbEntity
  8
B31
100
AcDbCircle
 10
571095.1025294914
 20
785785.4327129887
 30
11.629934224030395
 40
0.25
  0
TEXT
  5
101
330
17
100
AcDbEntity
  8
0
100
AcDbText
 10
571118.1946456275
 20
785813.833364762
 30
10.219543489742778
 40
0.5
  1
7.275
 72
2
 11
571118.1946456275
 21
785813.833364762
 31
10.219543489742778
100
AcDbText
 73
2
  0
CIRCLE
  5
102
330
17
100
AcDbEntity
  8
B31
100
AcDbCircle
 10
571118.1946456275
 20
785813.833364762
 30
10.219543489742778
 40
0.25
  0
LINE
  5
104
330
17
100
AcDbEntity
  8
B42
100
AcDbLine
 10
571151.9226593571
 20
785675.3174117752
 30
19.605037817739266
 11
571194.7178084458
 21
785663.2750944454
 31
20.580713843947184
  0
TEXT
  5
105
330
17
100
AcDbEntity
  8
B42
100
AcDbText
 10
571173.3202339015
 20
785669.2962531103
 30
20.092875830843226
 40
0.5
  1
B42-403
 72
1
 11
571173.3202339015
 21
785669.2962531103
 31
20.092875830843226
100
AcDbText
 73
2
  0
TEXT
  5
106
330
17
100
AcDbEntity
  8
0
100
AcDbText
 10
571152.4038508348
 20
785675.1820071653
 30
19.616008383302876
 40
0.5
  1
16.671
 11
571152.4038508348
 21
785675.1820071653
 31
19.616008383302876
100
AcDbText
 73
1
  0
CIRCLE
  5
107
330
17
100
AcDbEntity
  8
B42
100
AcDbCircle
 10
571152.4038508348
 20
785675.1820071653
 30
19.616008383302876
 40
0.25
  0
LINE
  5
108
330
17
100
AcDbEntity
  8
B42
100
AcDbLine
 10
571151.249387965
 20
785673.0877256463
 30
19.669373552621547
 11
571194.1015098272
 21
785661.0666688196
 31
20.626570289762785
  0
TEXT
  5
109
330
17
100
AcDbEntity
  8
B42
100
AcDbText
 10
571172.6754488961
 20
785667.077197233
 30
20.147971921192166
 40
0.5
  1
B42-402
 72
1
 11
571172.6754488961
 21
785667.077197233
 31
20.147971921192166
100
AcDbText
 73
2
  0
TEXT
  5
10A
330
17
100
AcDbEntity
  8
0
100
AcDbText
 10
571151.7306930945
 20
785672.9527079142
 30
19.680124565162984
 40
0.5
  1
16.735
 11
571151.7306930945
 21
785672.9527079142
 31
19.680124565162984
100
AcDbText
 73
1
  0
CIRCLE
  5
10B
330
17
100
AcDbEntity
  8
B42
100
AcDbCircle
 10
571151.7306930945
 20
785672.9527079142
 30
19.680124565162984
 40
0.25
  0
LINE
  5
10C
330
17
100
AcDbEntity
  8
B42
100
AcDbLine
 10
571150.576116573
 20
785670.8580395175
 30
19.733715768441133
 11
571193.4852047655
 21
785658.8582201055
 31
20.672427571931493
  0
TEXT
  5
10D
330
17
100
AcDbEntity
  8
B42
100
AcDbText
 10
571172.0306606692
 20
785664.8581298115
 30
20.20307167018631
 40
0.5
  1
B42-401
 72
1
 11
571172.0306606692
 21
785664.8581298115
 31
20.20307167018631
100
AcDbText
 73
2
  0
TEXT
  5
10E
330
17
100
AcDbEntity
  8
0
100
AcDbText
 10
571151.0575346302
 20
785670.7234076717
 30
19.744247635506895
 40
0.5
  1
16.799
 11
571151.0575346302
 21
785670.7234076717
 31
19.744247635506895
100
AcDbText
 73
1
  0
CIRCLE
  5
10F
330
17
100
AcDbEntity
  8
B42
100
AcDbCircle
 10
571151.0575346302
 20
785670.7234076717
 30
19.744247635506895
 40
0.25
  0
LINE
  5
110
330
17
100
AcDbEntity
  8
B42
100
AcDbLine
 10
571195.1991169121
 20
785663.1396569158
 30
20.587351591972453
 11
571238.0355704123
 21
785651.0857167538
 31
20.802971440465363
  0
TEXT
  5
111
330
17
100
AcDbEntity
  8
B42
100
AcDbText
 10
571216.6173436622
 20
785657.1126868348
 30
20.69516151621891
 40
0.5
  1
B42-406
 72
1
 11
571216.6173436622
 21
785657.1126868348
 31
20.69516151621891
100
AcDbText
 73
2
  0
TEXT
  5
112
330
17
100
AcDbEntity
  8
0
100
AcDbText
 10
571194.9584660642
 20
785663.2073747282
 30
20.586140261549126
 40
0.5
  1
17.641
 72
1
 11
571194.9584660642
 21
785663.2073747282
 31
20.586140261549126
100
AcDbText
 73
1
  0
CIRCLE
  5
113
330
17
100
AcDbEntity
  8
B42
100
AcDbCircle
 10
571194.9584660642
 20
785663.2073747282
 30
20.586140261549126
 40
0.25
  0
LINE
  5
114
330
17
100
AcDbEntity
  8
B42
100
AcDbLine
 10
571194.5829266974
 20
785660.931619742
 30
20.63319996783459
 11
571237.4290281575
 21
785648.9122517839
 31
20.848101563052655
  0
TEXT
  5
115
330
17
100
AcDbEntity
  8
B42
100
AcDbText
 10
571216.0059774275
 20
785654.921935763
 30
20.740650765443622
 40
0.5
  1
B42-405
 72
1
 11
571216.0059774275
 21
785654.921935763
 31
20.740650765443622
100
AcDbText
 73
2
  0
TEXT
  5
116
330
17
100
AcDbEntity
  8
0
100
AcDbText
 10
571194.3422212888
 20
785660.999143432
 30
20.6319926706823
 40
0.5
  1
17.687
 72
1
 11
571194.3422212888
 21
785660.999143432
 31
20.6319926706823
100
AcDbText
 73
1
  0
CIRCLE
  5
117
330
17
100
AcDbEntity
  8
B42
100
AcDbCircle
 10
571194.3422212888
 20
785660.999143432
 30
20.6319926706823
 40
0.25
  0
LINE
  5
118
330
17
100
AcDbEntity
  8
B42
100
AcDbLine
 10
571193.9667297283
 20
785658.7235583629
 30
20.679049186097455
 11
571236.822451422
 21
785646.7386632565
 31
20.893234303427963
  0
TEXT
  5
119
330
17
100
AcDbEntity
  8
B42
100
AcDbText
 10
571215.3945905751
 20
785652.7311108097
 30
20.78614174476271
 40
0.5
  1
B42-404
 72
1
 11
571215.3945905751
 21
785652.7311108097
 31
20.78614174476271
100
AcDbText
 73
2
  0
TEXT
  5
11A
330
17
100
AcDbEntity
  8
0
100
AcDbText
 10
571193.7259700716
 20
785658.7908884443
 30
20.677845913039153
 40
0.5
  1
17.733
 72
1
 11
571193.7259700716
 21
785658.7908884443
 31
20.677845913039153
100
AcDbText
 73
1
  0
CIRCLE
  5
11B
330
17
100
AcDbEntity
  8
B42
100
AcDbCircle
 10
571193.7259700716
 20
785658.7908884443
 30
20.677845913039153
 40
0.25
  0
LINE
  5
11C
330
17
100
AcDbEntity
  8
B42
100
AcDbLine
 10
571238.5168788786
 20
785650.9502792238
 30
20.801179085084286
 11
571281.5071553002
 21
785638.8530541463
 31
20.353800972856813
  0
TEXT
  5
11D
330
17
100
AcDbEntity
  8
B42
100
AcDbText
 10
571260.0120170894
 20
785644.901666685
 30
20.57749002897055
 40
0.5
  1
B42-409
 72
1
 11
571260.0120170894
 21
785644.901666685
 31
20.57749002897055
100
AcDbText
 73
2
  0
TEXT
  5
11E
330
17
100
AcDbEntity
  8
0
100
AcDbText
 10
571238.2762372795
 20
785651.0179944336
 30
20.803683320768368
 40
0.5
  1
17.859
 72
1
 11
571238.2762372795
 21
785651.0179944336
 31
20.803683320768368
100
AcDbText
 73
1
  0
CIRCLE
  5
11F
330
17
100
AcDbEntity
  8
B42
100
AcDbCircle
 10
571238.2762372795
 20
785651.0179944336
 30
20.803683320768368
 40
0.25
  0
TEXT
  5
120
330
17
100
AcDbEntity
  8
0
100
AcDbText
 10
571281.0258721022
 20
785638.9884845659
 30
20.35880944422498
 40
0.5
  1
17.414
 72
2
 11
571281.0258721022
 21
785638.9884845659
 31
20.35880944422498
100
AcDbText
 73
1
  0
CIRCLE
  5
121
330
17
100
AcDbEntity
  8
B42
100
AcDbCircle
 10
571281.0258721022
 20
785638.9884845659
 30
20.35880944422498
 40
0.25
  0
LINE
  5
122
330
17
100
AcDbEntity
  8
B42
100
AcDbLine
 10
571237.9104450278
 20
785648.7772027056
 30
20.84630115687035
 11
571281.0498459628
 21
785636.6755571496
 31
20.396943517077375
  0
TEXT
  5
123
330
17
100
AcDbEntity
  8
B42
100
AcDbText
 10
571259.4801454953
 20
785642.7263799276
 30
20.621622336973864
 40
0.5
  1
B42-408
 72
1
 11
571259.4801454953
 21
785642.7263799276
 31
20.621622336973864
100
AcDbText
 73
2
  0
TEXT
  5
124
330
17
100
AcDbEntity
  8
0
100
AcDbText
 10
571237.6697489175
 20
785648.8447237873
 30
20.848808345976007
 40
0.5
  1
17.904
 72
1
 11
571237.6697489175
 21
785648.8447237873
 31
20.848808345976007
100
AcDbText
 73
1
  0
CIRCLE
  5
125
330
17
100
AcDbEntity
  8
B42
100
AcDbCircle
 10
571237.6697489175
 20
785648.8447237873
 30
20.848808345976007
 40
0.25
  0
TEXT
  5
126
330
17
100
AcDbEntity
  8
0
100
AcDbText
 10
571280.5684537421
 20
785636.8105993129
 30
20.401957895288692
 40
0.5
  1
17.457
 72
2
 11
571280.5684537421
 21
785636.8105993129
 31
20.401957895288692
100
AcDbText
 73
1
  0
CIRCLE
  5
127
330
17
100
AcDbEntity
  8
B42
100
AcDbCircle
 10
571280.5684537421
 20
785636.8105993129
 30
20.401957895288692
 40
0.25
  0
LINE
  5
128
330
17
100
AcDbEntity
  8
B42
100
AcDbLine
 10
571237.3039763848
 20
785646.6040015138
 30
20.89142583114855
 11
571280.5925366251
 21
785634.4980601534
 31
20.440093984005927
  0
TEXT
  5
129
330
17
100
AcDbEntity
  8
B42
100
AcDbText
 10
571258.948256505
 20
785640.5510308336
 30
20.66575990757724
 40
0.5
  1
B42-407
 72
1
 11
571258.948256505
 21
785640.5510308336
 31
20.66575990757724
100
AcDbText
 73
2
  0
TEXT
  5
12A
330
17
100
AcDbEntity
  8
0
100
AcDbText
 10
571237.0632260753
 20
785646.6713289813
 30
20.893935923452865
 40
0.5
  1
17.949
 72
1
 11
571237.0632260753
 21
785646.6713289813
 31
20.893935923452865
100
AcDbText
 73
1
  0
CIRCLE
  5
12B
330
17
100
AcDbEntity
  8
B42
100
AcDbCircle
 10
571237.0632260753
 20
785646.6713289813
 30
20.893935923452865
 40
0.25
  0
TEXT
  5
12C
330
17
100
AcDbEntity
  8
0
100
AcDbText
 10
571280.1110360059
 20
785634.6327150883
 30
20.44511416861456
 40
0.5
  1
17.500
 72
2
 11
571280.1110360059
 21
785634.6327150883
 31
20.44511416861456
100
AcDbText
 73
1
  0
CIRCLE
  5
12D
330
17
100
AcDbEntity
  8
B42
100
AcDbCircle
 10
571280.1110360059
 20
785634.6327150883
 30
20.44511416861456
 40
0.25
  0
LINE
  5
12F
330
17
100
AcDbEntity
  8
B51
100
AcDbLine
 10
571278.7713631421
 20
785623.2964524735
 30
18.690550640347496
 11
571317.1921781531
 21
785614.261533016
 31
19.791049410052096
  0
TEXT
  5
130
330
17
100
AcDbEntity
  8
B51
100
AcDbText
 10
571297.9817706476
 20
785618.7789927447
 30
19.240800025199796
 40
0.5
  1
B51-512
 72
1
 11
571297.9817706476
 21
785618.7789927447
 31
19.240800025199796
100
AcDbText
 73
2
  0
TEXT
  5
131
330
17
100
AcDbEntity
  8
0
100
AcDbText
 10
571279.2578975226
 20
785623.1820405605
 30
18.70448658853437
 40
0.5
  1
15.759
 11
571279.2578975226
 21
785623.1820405605
 31
18.70448658853437
100
AcDbText
 73
1
  0
CIRCLE
  5
132
330
17
100
AcDbEntity
  8
B51
100
AcDbCircle
 10
571279.2578975226
 20
785623.1820405605
 30
18.70448658853437
 40
0.25
  0
LINE
  5
133
330
17
100
AcDbEntity
  8
B51
100
AcDbLine
 10
571278.3414698074
 20
785621.2494978908
 30
18.64872162317743
 11
571316.7297924513
 21
785612.2222404571
 31
19.749221835849408
  0
TEXT
  5
134
330
17
100
AcDbEntity
  8
B51
100
AcDbText
 10
571297.5356311293
 20
785616.7358691739
 30
19.198971729513417
 40
0.5
  1
B51-511
 72
1
 11
571297.5356311293
 21
785616.7358691739
 31
19.198971729513417
100
AcDbText
 73
2
  0
TEXT
  5
135
330
17
100
AcDbEntity
  8
0
100
AcDbText
 10
571278.8280039274
 20
785621.1350863081
 30
18.662669377744766
 40
0.5
  1
15.718
 11
571278.8280039274
 21
785621.1350863081
 31
18.662669377744766
100
AcDbText
 73
1
  0
CIRCLE
  5
136
330
17
100
AcDbEntity
  8
B51
100
AcDbCircle
 10
571278.8280039274
 20
785621.1350863081
 30
18.662669377744766
 40
0.25
  0
LINE
  5
137
330
17
100
AcDbEntity
  8
B51
100
AcDbLine
 10
571277.9115764729
 20
785619.202543308
 30
18.60689244987837
 11
571316.2674067498
 21
785610.1829478986
 31
19.707394221363675
  0
TEXT
  5
138
330
17
100
AcDbEntity
  8
B51
100
AcDbText
 10
571297.0894916113
 20
785614.6927456034
 30
19.157143335621022
 40
0.5
  1
B51-510
 72
1
 11
571297.0894916113
 21
785614.6927456034
 31
19.157143335621022
100
AcDbText
 73
2
  0
TEXT
  5
139
330
17
100
AcDbEntity
  8
0
100
AcDbText
 10
571278.3981103315
 20
785619.0881320562
 30
18.620852032277043
 40
0.5
  1
15.676
 11
571278.3981103315
 21
785619.0881320562
 31
18.620852032277043
100
AcDbText
 73
1
  0
CIRCLE
  5
13A
330
17
100
AcDbEntity
  8
B51
100
AcDbCircle
 10
571278.3981103315
 20
785619.0881320562
 30
18.620852032277043
 40
0.25
  0
LINE
  5
13B
330
17
100
AcDbEntity
  8
B51
100
AcDbLine
 10
571277.4816831386
 20
785617.1555887252
 30
18.565064213910752
 11
571315.8050210483
 21
785608.1436553394
 31
19.66556586851933
  0
TEXT
  5
13C
330
17
100
AcDbEntity
  8
B51
100
AcDbText
 10
571296.6433520935
 20
785612.6496220323
 30
19.11531504121504
 40
0.5
  1
B51-509
 72
1
 11
571296.6433520935
 21
785612.6496220323
 31
19.11531504121504
100
AcDbText
 73
2
  0
TEXT
  5
13D
330
17
100
AcDbEntity
  8
0
100
AcDbText
 10
571277.9682167356
 20
785617.0411778047
 30
18.5790356229195
 40
0.5
  1
15.634
 11
571277.9682167356
 21
785617.0411778047
 31
18.5790356229195
100
AcDbText
 73
1
  0
CIRCLE
  5
13E
330
17
100
AcDbEntity
  8
B51
100
AcDbCircle
 10
571277.9682167356
 20
785617.0411778047
 30
18.5790356229195
 40
0.25
  0
LINE
  5
13F
330
17
100
AcDbEntity
  8
B51
100
AcDbLine
 10
571317.6789171698
 20
785614.1470729816
 30
19.805417835841155
 11
571356.0995574881
 21
785605.1121946042
 31
20.985417064639996
  0
TEXT
  5
140
330
17
100
AcDbEntity
  8
B51
100
AcDbText
 10
571336.8892373289
 20
785609.6296337929
 30
20.395417450240576
 40
0.5
  1
B51-516
 72
1
 11
571336.8892373289
 21
785609.6296337929
 31
20.395417450240576
100
AcDbText
 73
2
  0
TEXT
  5
141
330
17
100
AcDbEntity
  8
0
100
AcDbText
 10
571317.4356641243
 20
785614.2042756118
 30
19.797946893044962
 40
0.5
  1
16.853
 72
1
 11
571317.4356641243
 21
785614.2042756118
 31
19.797946893044962
100
AcDbText
 73
1
  0
CIRCLE
  5
142
330
17
100
AcDbEntity
  8
B51
100
AcDbCircle
 10
571317.4356641243
 20
785614.2042756118
 30
19.797946893044962
 40
0.25
  0
LINE
  5
143
330
17
100
AcDbEntity
  8
B51
100
AcDbLine
 10
571317.2165315261
 20
785612.107780678
 30
19.76360209546617
 11
571355.6046454868
 21
785603.0805723178
 31
20.94359033778219
  0
TEXT
  5
144
330
17
100
AcDbEntity
  8
B51
100
AcDbText
 10
571336.4105885064
 20
785607.5941764979
 30
20.35359621662418
 40
0.5
  1
B51-515
 72
1
 11
571336.4105885064
 21
785607.5941764979
 31
20.35359621662418
100
AcDbText
 73
2
  0
TEXT
  5
145
330
17
100
AcDbEntity
  8
0
100
AcDbText
 10
571316.9732786329
 20
785612.164983138
 30
19.75612489681452
 40
0.5
  1
16.811
 72
1
 11
571316.9732786329
 21
785612.164983138
 31
19.75612489681452
100
AcDbText
 73
1
  0
CIRCLE
  5
146
330
17
100
AcDbEntity
  8
B51
100
AcDbCircle
 10
571316.9732786329
 20
785612.164983138
 30
19.75612489681452
 40
0.25
  0
LINE
  5
147
330
17
100
AcDbEntity
  8
B51
100
AcDbLine
 10
571316.7541458824
 20
785610.0684883753
 30
19.721786270274343
 11
571355.1097334853
 21
785601.0489500319
 31
20.901763725095933
  0
TEXT
  5
148
330
17
100
AcDbEntity
  8
B51
100
AcDbText
 10
571335.9319396839
 20
785605.5587192036
 30
20.311774997685138
 40
0.5
  1
B51-514
 72
1
 11
571335.9319396839
 21
785605.5587192036
 31
20.311774997685138
100
AcDbText
 73
2
  0
TEXT
  5
149
330
17
100
AcDbEntity
  8
0
100
AcDbText
 10
571316.5108931419
 20
785610.1256906646
 30
19.714302803908687
 40
0.5
  1
16.769
 72
1
 11
571316.5108931419
 21
785610.1256906646
 31
19.714302803908687
100
AcDbText
 73
1
  0
CIRCLE
  5
14A
330
17
100
AcDbEntity
  8
B51
100
AcDbCircle
 10
571316.5108931419
 20
785610.1256906646
 30
19.714302803908687
 40
0.25
  0
LINE
  5
14B
330
17
100
AcDbEntity
  8
B51
100
AcDbLine
 10
571316.291760239
 20
785608.0291960724
 30
19.67997111019559
 11
571354.6148214838
 21
785599.0173277458
 31
20.85993774447104
  0
TEXT
  5
14C
330
17
100
AcDbEntity
  8
B51
100
AcDbText
 10
571335.4532908614
 20
785603.5232619091
 30
20.269954427333317
 40
0.5
  1
B51-513
 72
1
 11
571335.4532908614
 21
785603.5232619091
 31
20.269954427333317
100
AcDbText
 73
2
  0
TEXT
  5
14D
330
17
100
AcDbEntity
  8
0
100
AcDbText
 10
571316.0485076514
 20
785608.0863981908
 30
19.672481365698786
 40
0.5
  1
16.727
 72
1
 11
571316.0485076514
 21
785608.0863981908
 31
19.672481365698786
100
AcDbText
 73
1
  0
CIRCLE
  5
14E
330
17
100
AcDbEntity
  8
B51
100
AcDbCircle
 10
571316.0485076514
 20
785608.0863981908
 30
19.672481365698786
 40
0.25
  0
LINE
  5
14F
330
17
100
AcDbEntity
  8
B51
100
AcDbLine
 10
571356.5862964944
 20
785604.9977345723
 30
21.000945877806647
 11
571395.007027934
 21
785595.962834767
 31
22.27224399098704
  0
TEXT
  5
150
330
17
100
AcDbEntity
  8
B51
100
AcDbText
 10
571375.7966622142
 20
785600.4802846697
 30
21.636594934396843
 40
0.5
  1
B51-520
 72
1
 11
571375.7966622142
 21
785600.4802846697
 31
21.636594934396843
100
AcDbText
 73
2
  0
TEXT
  5
151
330
17
100
AcDbEntity
  8
0
100
AcDbText
 10
571356.3430609045
 20
785605.0549330977
 30
20.992897490001752
 40
0.5
  1
18.048
 72
1
 11
571356.3430609045
 21
785605.0549330977
 31
20.992897490001752
100
AcDbText
 73
1
  0
CIRCLE
  5
152
330
17
100
AcDbEntity
  8
B51
100
AcDbCircle
 10
571356.3430609045
 20
785605.0549330977
 30
20.992897490001752
 40
0.25
  0
TEXT
  5
153
330
17
100
AcDbEntity
  8
0
100
AcDbText
 10
571394.5205567543
 20
785596.0772318178
 30
22.256147215377247
 40
0.5
  1
19.311
 72
2
 11
571394.5205567543
 21
785596.0772318178
 31
22.256147215377247
100
AcDbText
 73
1
  0
CIRCLE
  5
154
330
17
100
AcDbEntity
  8
B51
100
AcDbCircle
 10
571394.5205567543
 20
785596.0772318178
 30
22.256147215377247
 40
0.25
  0
LINE
  5
155
330
17
100
AcDbEntity
  8
B51
100
AcDbLine
 10
571356.0913845546
 20
785602.9661125403
 30
20.95913228977172
 11
571394.4794961248
 21
785593.9389047425
 31
22.230404625314442
  0
TEXT
  5
156
330
17
100
AcDbEntity
  8
B51
100
AcDbText
 10
571375.2854403397
 20
785598.4525086414
 30
21.594768457543083
 40
0.5
  1
B51-519
 72
1
 11
571375.2854403397
 21
785598.4525086414
 31
21.594768457543083
100
AcDbText
 73
2
  0
TEXT
  5
157
330
17
100
AcDbEntity
  8
0
100
AcDbText
 10
571355.8481491441
 20
785603.0233108891
 30
20.951077232208196
 40
0.5
  1
18.006
 72
1
 11
571355.8481491441
 21
785603.0233108891
 31
20.951077232208196
100
AcDbText
 73
1
  0
CIRCLE
  5
158
330
17
100
AcDbEntity
  8
B51
100
AcDbCircle
 10
571355.8481491441
 20
785603.0233108891
 30
20.951077232208196
 40
0.25
  0
TEXT
  5
159
330
17
100
AcDbEntity
  8
0
100
AcDbText
 10
571393.9930253037
 20
785594.0533014401
 30
22.214294510187397
 40
0.5
  1
19.269
 72
2
 11
571393.9930253037
 21
785594.0533014401
 31
22.214294510187397
100
AcDbText
 73
1
  0
CIRCLE
  5
15A
330
17
100
AcDbEntity
  8
B51
100
AcDbCircle
 10
571393.9930253037
 20
785594.0533014401
 30
22.214294510187397
 40
0.25
  0
LINE
  5
15B
330
17
100
AcDbEntity
  8
B51
100
AcDbLine
 10
571355.5964726154
 20
785600.9344905091
 30
20.917318377152153
 11
571393.9519643155
 21
785591.914974718
 31
22.188565265343513
  0
TEXT
  5
15C
330
17
100
AcDbEntity
  8
B51
100
AcDbText
 10
571374.7742184654
 20
785596.4247326136
 30
21.552941821247835
 40
0.5
  1
B51-518
 72
1
 11
571374.7742184654
 21
785596.4247326136
 31
21.552941821247835
100
AcDbText
 73
2
  0
TEXT
  5
15D
330
17
100
AcDbEntity
  8
0
100
AcDbText
 10
571355.3532373846
 20
785600.991688681
 30
20.909256636408426
 40
0.5
  1
17.964
 72
1
 11
571355.3532373846
 21
785600.991688681
 31
20.909256636408426
100
AcDbText
 73
1
  0
CIRCLE
  5
15E
330
17
100
AcDbEntity
  8
B51
100
AcDbCircle
 10
571355.3532373846
 20
785600.991688681
 30
20.909256636408426
 40
0.25
  0
TEXT
  5
15F
330
17
100
AcDbEntity
  8
0
100
AcDbText
 10
571393.465493854
 20
785592.0293710617
 30
22.172441783856055
 40
0.5
  1
19.227
 72
2
 11
571393.465493854
 21
785592.0293710617
 31
22.172441783856055
100
AcDbText
 73
1
  0
CIRCLE
  5
160
330
17
100
AcDbEntity
  8
B51
100
AcDbCircle
 10
571393.465493854
 20
785592.0293710617
 30
22.172441783856055
 40
0.25
  0
LINE
  5
161
330
17
100
AcDbEntity
  8
B51
100
AcDbLine
 10
571355.1015606761
 20
785598.9028684783
 30
20.875504925065478
 11
571393.4244325063
 21
785589.8910446938
 31
22.14672704017817
  0
TEXT
  5
162
330
17
100
AcDbEntity
  8
B51
100
AcDbText
 10
571374.2629965912
 20
785594.396956586
 30
21.511115982621824
 40
0.5
  1
B51-517
 72
1
 11
571374.2629965912
 21
785594.396956586
 31
21.511115982621824
100
AcDbText
 73
2
  0
TEXT
  5
163
330
17
100
AcDbEntity
  8
0
100
AcDbText
 10
571354.8583256258
 20
785598.9600664728
 30
20.86743648550487
 40
0.5
  1
17.922
 72
1
 11
571354.8583256258
 21
785598.9600664728
 31
20.86743648550487
100
AcDbText
 73
1
  0
CIRCLE
  5
164
330
17
100
AcDbEntity
  8
B51
100
AcDbCircle
 10
571354.8583256258
 20
785598.9600664728
 30
20.86743648550487
 40
0.25
  0
TEXT
  5
165
330
17
100
AcDbEntity
  8
0
100
AcDbText
 10
571392.9379624056
 20
785590.0054406828
 30
22.13059016105696
 40
0.5
  1
19.186
 72
2
 11
571392.9379624056
 21
785590.0054406828
 31
22.13059016105696
100
AcDbText
 73
1
  0
CIRCLE
  5
166
330
17
100
AcDbEntity
  8
B51
100
AcDbCircle
 10
571392.9379624056
 20
785590.0054406828
 30
22.13059016105696
 40
0.25
  0
LINE
  5
168
330
17
100
AcDbEntity
  8
B52
100
AcDbLine
 10
571282.0090808993
 20
785638.712977156
 30
20.34929452437196
 11
571320.1986917149
 21
785627.5213736921
 31
20.321986613777653
  0
TEXT
  5
169
330
17
100
AcDbEntity
  8
B52
100
AcDbText
 10
571301.1038863071
 20
785633.117175424
 30
20.335640569074805
 40
0.5
  1
B52-412
 72
1
 11
571301.1038863071
 21
785633.117175424
 31
20.335640569074805
100
AcDbText
 73
2
  0
TEXT
  5
16A
330
17
100
AcDbEntity
  8
0
100
AcDbText
 10
571282.4889015119
 20
785638.5723639915
 30
20.34895142324814
 40
0.5
  1
17.404
 11
571282.4889015119
 21
785638.5723639915
 31
20.34895142324814
100
AcDbText
 73
1
  0
CIRCLE
  5
16B
330
17
100
AcDbEntity
  8
B52
100
AcDbCircle
 10
571282.4889015119
 20
785638.5723639915
 30
20.34895142324814
 40
0.25
  0
LINE
  5
16C
330
17
100
AcDbEntity
  8
B52
100
AcDbLine
 10
571281.3372519666
 20
785635.5140363901
 30
20.41272000213167
 11
571319.5951752947
 21
785624.8596422833
 31
20.377403534553057
  0
TEXT
  5
16D
330
17
100
AcDbEntity
  8
B52
100
AcDbText
 10
571300.4662136306
 20
785630.1868393368
 30
20.395061768342366
 40
0.5
  1
B52-411
 72
1
 11
571300.4662136306
 21
785630.1868393368
 31
20.395061768342366
100
AcDbText
 73
2
  0
TEXT
  5
16E
330
17
100
AcDbEntity
  8
0
100
AcDbText
 10
571281.8189223373
 20
785635.3798967005
 30
20.41227536492846
 40
0.5
  1
17.467
 11
571281.8189223373
 21
785635.3798967005
 31
20.41227536492846
100
AcDbText
 73
1
  0
CIRCLE
  5
16F
330
17
100
AcDbEntity
  8
B52
100
AcDbCircle
 10
571281.8189223373
 20
785635.3798967005
 30
20.41227536492846
 40
0.25
  0
LINE
  5
170
330
17
100
AcDbEntity
  8
B52
100
AcDbLine
 10
571280.665423034
 20
785632.3150956242
 30
20.476162692371812
 11
571318.991554306
 21
785622.1974496896
 31
20.432836864349188
  0
TEXT
  5
171
330
17
100
AcDbEntity
  8
B52
100
AcDbText
 10
571299.82848867
 20
785627.2562726568
 30
20.4544997783605
 40
0.5
  1
B52-410
 72
1
 11
571299.82848867
 21
785627.2562726568
 31
20.4544997783605
100
AcDbText
 73
2
  0
TEXT
  5
172
330
17
100
AcDbEntity
  8
0
100
AcDbText
 10
571281.1488610791
 20
785632.1874736908
 30
20.47561618916612
 40
0.5
  1
17.531
 11
571281.1488610791
 21
785632.1874736908
 31
20.47561618916612
100
AcDbText
 73
1
  0
CIRCLE
  5
173
330
17
100
AcDbEntity
  8
B52
100
AcDbCircle
 10
571281.1488610791
 20
785632.1874736908
 30
20.47561618916612
 40
0.25
  0
LINE
  5
174
330
17
100
AcDbEntity
  8
B52
100
AcDbLine
 10
571279.9935941013
 20
785629.1161548584
 30
20.434458723309074
 11
571318.3878284745
 21
785619.5347946993
 31
20.426791044428295
  0
TEXT
  5
175
330
17
100
AcDbEntity
  8
B52
100
AcDbText
 10
571299.1907112879
 20
785624.3254747788
 30
20.430624883868685
 40
0.5
  1
B52-217
 72
1
 11
571299.1907112879
 21
785624.3254747788
 31
20.430624883868685
100
AcDbText
 73
2
  0
TEXT
  5
176
330
17
100
AcDbEntity
  8
0
100
AcDbText
 10
571280.4787164303
 20
785628.9950915833
 30
20.434361839954136
 40
0.5
  1
17.489
 11
571280.4787164303
 21
785628.9950915833
 31
20.434361839954136
100
AcDbText
 73
1
  0
CIRCLE
  5
177
330
17
100
AcDbEntity
  8
B52
100
AcDbCircle
 10
571280.4787164303
 20
785628.9950915833
 30
20.434361839954136
 40
0.25
  0
LINE
  5
178
330
17
100
AcDbEntity
  8
B52
100
AcDbLine
 10
571279.3217651689
 20
785625.9172140926
 30
20.499791135652757
 11
571317.7839975242
 21
785616.8716760963
 31
20.481403351996647
  0
TEXT
  5
179
330
17
100
AcDbEntity
  8
B52
100
AcDbText
 10
571298.5528813465
 20
785621.3944450945
 30
20.490597243824702
 40
0.5
  1
B52-216
 72
1
 11
571298.5528813465
 21
785621.3944450945
 31
20.490597243824702
100
AcDbText
 73
2
  0
TEXT
  5
17A
330
17
100
AcDbEntity
  8
0
100
AcDbText
 10
571279.8084861087
 20
785625.802747186
 30
20.499558447147884
 40
0.5
  1
17.555
 11
571279.8084861087
 21
785625.802747186
 31
20.499558447147884
100
AcDbText
 73
1
  0
CIRCLE
  5
17B
330
17
100
AcDbEntity
  8
B52
100
AcDbCircle
 10
571279.8084861087
 20
785625.802747186
 30
20.499558447147884
 40
0.25
  0
LINE
  5
17C
330
17
100
AcDbEntity
  8
B52
100
AcDbLine
 10
571320.6794392266
 20
785627.3804888964
 30
20.325499696542437
 11
571358.8026291507
 21
785616.2083503146
 31
20.90940220766413
  0
TEXT
  5
17D
330
17
100
AcDbEntity
  8
B52
100
AcDbText
 10
571339.7410341887
 20
785621.7944196055
 30
20.617450952103283
 40
0.5
  1
B52-415
 72
1
 11
571339.7410341887
 21
785621.7944196055
 31
20.617450952103283
100
AcDbText
 73
2
  0
TEXT
  5
17E
330
17
100
AcDbEntity
  8
0
100
AcDbText
 10
571320.439554774
 20
785627.4507879022
 30
20.321825577598666
 40
0.5
  1
17.377
 72
1
 11
571320.439554774
 21
785627.4507879022
 31
20.321825577598666
100
AcDbText
 73
1
  0
CIRCLE
  5
17F
330
17
100
AcDbEntity
  8
B52
100
AcDbCircle
 10
571320.439554774
 20
785627.4507879022
 30
20.321825577598666
 40
0.25
  0
LINE
  5
180
330
17
100
AcDbEntity
  8
B52
100
AcDbLine
 10
571320.077416157
 20
785624.7253437183
 30
20.3808050686628
 11
571358.2853410152
 21
785614.0848736133
 31
20.954689161973935
  0
TEXT
  5
181
330
17
100
AcDbEntity
  8
B52
100
AcDbText
 10
571339.1813785861
 20
785619.4051086658
 30
20.667747115318367
 40
0.5
  1
B52-414
 72
1
 11
571339.1813785861
 21
785619.4051086658
 31
20.667747115318367
100
AcDbText
 73
2
  0
TEXT
  5
182
330
17
100
AcDbEntity
  8
0
100
AcDbText
 10
571319.8366060836
 20
785624.7924065697
 30
20.377188094667012
 40
0.5
  1
17.432
 72
1
 11
571319.8366060836
 21
785624.7924065697
 31
20.377188094667012
100
AcDbText
 73
1
  0
CIRCLE
  5
183
330
17
100
AcDbEntity
  8
B52
100
AcDbCircle
 10
571319.8366060836
 20
785624.7924065697
 30
20.377188094667012
 40
0.25
  0
LINE
  5
184
330
17
100
AcDbEntity
  8
B52
100
AcDbLine
 10
571319.4752911323
 20
785622.0697488815
 30
20.43612664476581
 11
571357.7679419153
 21
785611.9609414005
 31
20.999987887337216
  0
TEXT
  5
185
330
17
100
AcDbEntity
  8
B52
100
AcDbText
 10
571338.6216165238
 20
785617.0153451411
 30
20.718057266051513
 40
0.5
  1
B52-413
 72
1
 11
571338.6216165238
 21
785617.0153451411
 31
20.718057266051513
100
AcDbText
 73
2
  0
TEXT
  5
186
330
17
100
AcDbEntity
  8
0
100
AcDbText
 10
571319.2335964601
 20
785622.13355342
 30
20.432567678346263
 40
0.5
  1
17.488
 72
1
 11
571319.2335964601
 21
785622.13355342
 31
20.432567678346263
100
AcDbText
 73
1
  0
CIRCLE
  5
187
330
17
100
AcDbEntity
  8
B52
100
AcDbCircle
 10
571319.2335964601
 20
785622.13355342
 30
20.432567678346263
 40
0.25
  0
LINE
  5
188
330
17
100
AcDbEntity
  8
B52
100
AcDbLine
 10
571318.8730638853
 20
785619.4137032045
 30
20.430443709744846
 11
571357.250431487
 21
785609.8365521828
 31
21.016070060897224
  0
TEXT
  5
189
330
17
100
AcDbEntity
  8
B52
100
AcDbText
 10
571338.0617476861
 20
785614.6251276936
 30
20.723256885321035
 40
0.5
  1
B52-219
 72
1
 11
571338.0617476861
 21
785614.6251276936
 31
20.723256885321035
100
AcDbText
 73
2
  0
TEXT
  5
18A
330
17
100
AcDbEntity
  8
0
100
AcDbText
 10
571318.6305292974
 20
785619.4742282097
 30
20.426742709529776
 40
0.5
  1
17.482
 72
1
 11
571318.6305292974
 21
785619.4742282097
 31
20.426742709529776
100
AcDbText
 73
1
  0
CIRCLE
  5
18B
330
17
100
AcDbEntity
  8
B52
100
AcDbCircle
 10
571318.6305292974
 20
785619.4742282097
 30
20.426742709529776
 40
0.25
  0
LINE
  5
18C
330
17
100
AcDbEntity
  8
B52
100
AcDbLine
 10
571318.2707341465
 20
785616.7572055017
 30
20.484924005954632
 11
571356.7328093651
 21
785607.7117044609
 31
21.0598053642098
  0
TEXT
  5
18D
330
17
100
AcDbEntity
  8
B52
100
AcDbText
 10
571337.5017717559
 20
785612.2344549813
 30
20.772364685082216
 40
0.5
  1
B52-218
 72
1
 11
571337.5017717559
 21
785612.2344549813
 31
20.772364685082216
100
AcDbText
 73
2
  0
TEXT
  5
18E
330
17
100
AcDbEntity
  8
0
100
AcDbText
 10
571318.0273994053
 20
785616.814432904
 30
20.48128695294273
 40
0.5
  1
17.536
 72
1
 11
571318.0273994053
 21
785616.814432904
 31
20.48128695294273
100
AcDbText
 73
1
  0
CIRCLE
  5
18F
330
17
100
AcDbEntity
  8
B52
100
AcDbCircle
 10
571318.0273994053
 20
785616.814432904
 30
20.48128695294273
 40
0.25
  0
LINE
  5
190
330
17
100
AcDbEntity
  8
B52
100
AcDbLine
 10
571359.2829606673
 20
785616.0675874281
 30
20.920605961385693
 11
571397.3403178357
 21
785604.9147413734
 31
22.105305200113445
  0
TEXT
  5
191
330
17
100
AcDbEntity
  8
B52
100
AcDbText
 10
571378.3116392514
 20
785610.4911644008
 30
21.51295558074957
 40
0.5
  1
B52-418
 72
1
 11
571378.3116392514
 21
785610.4911644008
 31
21.51295558074957
100
AcDbText
 73
2
  0
TEXT
  5
192
330
17
100
AcDbEntity
  8
0
100
AcDbText
 10
571359.0431572803
 20
785616.1378626773
 30
20.913141047604157
 40
0.5
  1
17.968
 72
1
 11
571359.0431572803
 21
785616.1378626773
 31
20.913141047604157
100
AcDbText
 73
1
  0
CIRCLE
  5
193
330
17
100
AcDbEntity
  8
B52
100
AcDbCircle
 10
571359.0431572803
 20
785616.1378626773
 30
20.913141047604157
 40
0.25
  0
TEXT
  5
194
330
17
100
AcDbEntity
  8
0
100
AcDbText
 10
571396.8607110617
 20
785605.0552918718
 30
22.090375372550376
 40
0.5
  1
19.145
 72
2
 11
571396.8607110617
 21
785605.0552918718
 31
22.090375372550376
100
AcDbText
 73
1
  0
CIRCLE
  5
195
330
17
100
AcDbEntity
  8
B52
100
AcDbCircle
 10
571396.8607110617
 20
785605.0552918718
 30
22.090375372550376
 40
0.25
  0
LINE
  5
196
330
17
100
AcDbEntity
  8
B52
100
AcDbLine
 10
571358.7672685267
 20
785613.9506623131
 30
20.96576705407991
 11
571396.9256898258
 21
785603.3239783833
 31
22.13916771289594
  0
TEXT
  5
197
330
17
100
AcDbEntity
  8
B52
100
AcDbText
 10
571377.8464791763
 20
785608.6373203483
 30
21.552467383487926
 40
0.5
  1
B52-417
 72
1
 11
571377.8464791763
 21
785608.6373203483
 31
21.552467383487926
100
AcDbText
 73
2
  0
TEXT
  5
198
330
17
100
AcDbEntity
  8
0
100
AcDbText
 10
571358.5265388492
 20
785614.0177027752
 30
20.95836443225814
 40
0.5
  1
18.013
 72
1
 11
571358.5265388492
 21
785614.0177027752
 31
20.95836443225814
100
AcDbText
 73
1
  0
CIRCLE
  5
199
330
17
100
AcDbEntity
  8
B52
100
AcDbCircle
 10
571358.5265388492
 20
785614.0177027752
 30
20.95836443225814
 40
0.25
  0
TEXT
  5
19A
330
17
100
AcDbEntity
  8
0
100
AcDbText
 10
571396.4442304708
 20
785603.4580593074
 30
22.124362469252397
 40
0.5
  1
19.179
 72
2
 11
571396.4442304708
 21
785603.4580593074
 31
22.124362469252397
100
AcDbText
 73
1
  0
CIRCLE
  5
19B
330
17
100
AcDbEntity
  8
B52
100
AcDbCircle
 10
571396.4442304708
 20
785603.4580593074
 30
22.124362469252397
 40
0.25
  0
LINE
  5
19C
330
17
100
AcDbEntity
  8
B52
100
AcDbLine
 10
571358.2514689051
 20
785611.8332959866
 30
21.010939424293465
 11
571396.511061816
 21
785601.7332153931
 31
22.173030023461457
  0
TEXT
  5
19D
330
17
100
AcDbEntity
  8
B52
100
AcDbText
 10
571377.3812653606
 20
785606.7832556899
 30
21.59198472387746
 40
0.5
  1
B52-416
 72
1
 11
571377.3812653606
 21
785606.7832556899
 31
21.59198472387746
100
AcDbText
 73
2
  0
TEXT
  5
19E
330
17
100
AcDbEntity
  8
0
100
AcDbText
 10
571358.009853908
 20
785611.8970794919
 30
21.003600650002898
 40
0.5
  1
18.059
 72
1
 11
571358.009853908
 21
785611.8970794919
 31
21.003600650002898
100
AcDbText
 73
1
  0
CIRCLE
  5
19F
330
17
100
AcDbEntity
  8
B52
100
AcDbCircle
 10
571358.009853908
 20
785611.8970794919
 30
21.003600650002898
 40
0.25
  0
TEXT
  5
1A0
330
17
100
AcDbEntity
  8
0
100
AcDbText
 10
571396.0278318217
 20
785601.8607824036
 30
22.15835247488032
 40
0.5
  1
19.213
 72
2
 11
571396.0278318217
 21
785601.8607824036
 31
22.15835247488032
100
AcDbText
 73
1
  0
CIRCLE
  5
1A1
330
17
100
AcDbEntity
  8
B52
100
AcDbCircle
 10
571396.0278318217
 20
785601.8607824036
 30
22.15835247488032
 40
0.25
  0
LINE
  5
1A2
330
17
100
AcDbEntity
  8
B52
100
AcDbLine
 10
571357.7355614502
 20
785609.7154870025
 30
21.02722501851763
 11
571396.0964338062
 21
785600.1424524032
 31
22.198423108529934
  0
TEXT
  5
1A3
330
17
100
AcDbEntity
  8
B52
100
AcDbText
 10
571376.9159976282
 20
785604.9289697029
 30
21.61282406352378
 40
0.5
  1
B52-221
 72
1
 11
571376.9159976282
 21
785604.9289697029
 31
21.61282406352378
100
AcDbText
 73
2
  0
TEXT
  5
1A4
330
17
100
AcDbEntity
  8
0
100
AcDbText
 10
571357.4931066347
 20
785609.7759921004
 30
21.01982261603297
 40
0.5
  1
18.075
 72
1
 11
571357.4931066347
 21
785609.7759921004
 31
21.01982261603297
100
AcDbText
 73
1
  0
CIRCLE
  5
1A5
330
17
100
AcDbEntity
  8
B52
100
AcDbCircle
 10
571357.4931066347
 20
785609.7759921004
 30
21.01982261603297
 40
0.25
  0
TEXT
  5
1A6
330
17
100
AcDbEntity
  8
0
100
AcDbText
 10
571395.6115241752
 20
785600.263462599
 30
22.183618303560618
 40
0.5
  1
19.239
 72
2
 11
571395.6115241752
 21
785600.263462599
 31
22.183618303560618
100
AcDbText
 73
1
  0
CIRCLE
  5
1A7
330
17
100
AcDbEntity
  8
B52
100
AcDbCircle
 10
571395.6115241752
 20
785600.263462599
 30
22.183618303560618
 40
0.25
  0
LINE
  5
1A8
330
17
100
AcDbEntity
  8
B52
100
AcDbLine
 10
571357.2195458083
 20
785607.5972339081
 30
21.07083423003662
 11
571395.6818057965
 21
785598.5516894131
 31
22.231294933687984
  0
TEXT
  5
1A9
330
17
100
AcDbEntity
  8
B52
100
AcDbText
 10
571376.4506758023
 20
785603.0744616606
 30
21.6510645818623
 40
0.5
  1
B52-220
 72
1
 11
571376.4506758023
 21
785603.0744616606
 31
21.6510645818623
100
AcDbText
 73
2
  0
TEXT
  5
1AA
330
17
100
AcDbEntity
  8
0
100
AcDbText
 10
571356.9762902061
 20
785607.6544426986
 30
21.063494864970586
 40
0.5
  1
18.118
 72
1
 11
571356.9762902061
 21
785607.6544426986
 31
21.063494864970586
100
AcDbText
 73
1
  0
CIRCLE
  5
1AB
330
17
100
AcDbEntity
  8
B52
100
AcDbCircle
 10
571356.9762902061
 20
785607.6544426986
 30
21.063494864970586
 40
0.25
  0
TEXT
  5
1AC
330
17
100
AcDbEntity
  8
0
100
AcDbText
 10
571395.1952945921
 20
785598.6661069941
 30
22.21661620355592
 40
0.5
  1
19.272
 72
2
 11
571395.1952945921
 21
785598.6661069941
 31
22.21661620355592
100
AcDbText
 73
1
  0
CIRCLE
  5
1AD
330
17
100
AcDbEntity
  8
B52
100
AcDbCircle
 10
571395.1952945921
 20
785598.6661069941
 30
22.21661620355592
 40
0.25
  0
LINE
  5
1AF
330
17
100
AcDbEntity
  8
B53
100
AcDbLine
 10
571397.7907026733
 20
785604.5810008392
 30
22.160502208284452
 11
571440.7692947062
 21
785592.5865701406
 31
23.680463969328763
  0
TEXT
  5
1B0
330
17
100
AcDbEntity
  8
B53
100
AcDbText
 10
571419.2799986897
 20
785598.5837854899
 30
22.920483088806606
 40
0.5
  1
B53-526
 72
1
 11
571419.2799986897
 21
785598.5837854899
 31
22.920483088806606
100
AcDbText
 73
2
  0
TEXT
  5
1B1
330
17
100
AcDbEntity
  8
0
100
AcDbText
 10
571398.2720204816
 20
785604.4466750546
 30
22.177524279717062
 40
0.5
  1
19.233
 11
571398.2720204816
 21
785604.4466750546
 31
22.177524279717062
100
AcDbText
 73
1
  0
CIRCLE
  5
1B2
330
17
100
AcDbEntity
  8
B53
100
AcDbCircle
 10
571398.2720204816
 20
785604.4466750546
 30
22.177524279717062
 40
0.25
  0
LINE
  5
1B3
330
17
100
AcDbEntity
  8
B53
100
AcDbLine
 10
571397.046542442
 20
785601.7259536006
 30
22.21951942128775
 11
571439.9763129095
 21
785589.7451479842
 31
23.73946396932949
  0
TEXT
  5
1B4
330
17
100
AcDbEntity
  8
B53
100
AcDbText
 10
571418.5114276758
 20
785595.7355507924
 30
22.979491695308617
 40
0.5
  1
B53-525
 72
1
 11
571418.5114276758
 21
785595.7355507924
 31
22.979491695308617
100
AcDbText
 73
2
  0
TEXT
  5
1B5
330
17
100
AcDbEntity
  8
0
100
AcDbText
 10
571397.527859622
 20
785601.5916279914
 30
22.2365606357078
 40
0.5
  1
19.292
 11
571397.527859622
 21
785601.5916279914
 31
22.2365606357078
100
AcDbText
 73
1
  0
CIRCLE
  5
1B6
330
17
100
AcDbEntity
  8
B53
100
AcDbCircle
 10
571397.527859622
 20
785601.5916279914
 30
22.2365606357078
 40
0.25
  0
LINE
  5
1B7
330
17
100
AcDbEntity
  8
B53
100
AcDbLine
 10
571396.3023822103
 20
785598.8709063609
 30
22.278536819784478
 11
571439.1833311126
 21
785586.9037258284
 31
23.79846396932221
  0
TEXT
  5
1B8
330
17
100
AcDbEntity
  8
B53
100
AcDbText
 10
571417.7428566614
 20
785592.8873160947
 30
23.038500394553342
 40
0.5
  1
B53-524
 72
1
 11
571417.7428566614
 21
785592.8873160947
 31
23.038500394553342
100
AcDbText
 73
2
  0
TEXT
  5
1B9
330
17
100
AcDbEntity
  8
0
100
AcDbText
 10
571396.7836987597
 20
785598.7365809276
 30
22.295597218626998
 40
0.5
  1
19.351
 11
571396.7836987597
 21
785598.7365809276
 31
22.295597218626998
100
AcDbText
 73
1
  0
CIRCLE
  5
1BA
330
17
100
AcDbEntity
  8
B53
100
AcDbCircle
 10
571396.7836987597
 20
785598.7365809276
 30
22.295597218626998
 40
0.25
  0
LINE
  5
1BB
330
17
100
AcDbEntity
  8
B53
100
AcDbLine
 10
571395.558221979
 20
785596.0158591219
 30
22.29315305528198
 11
571438.3903493157
 21
785584.0623036723
 31
23.798463814216994
  0
TEXT
  5
1BC
330
17
100
AcDbEntity
  8
B53
100
AcDbText
 10
571416.9742856473
 20
785590.0390813971
 30
23.04580843474949
 40
0.5
  1
B53-523
 72
1
 11
571416.9742856473
 21
785590.0390813971
 31
23.04580843474949
100
AcDbText
 73
2
  0
TEXT
  5
1BD
330
17
100
AcDbEntity
  8
0
100
AcDbText
 10
571396.0395432644
 20
785595.881532367
 30
22.310068818158786
 40
0.5
  1
19.365
 11
571396.0395432644
 21
785595.881532367
 31
22.310068818158786
100
AcDbText
 73
1
  0
CIRCLE
  5
1BE
330
17
100
AcDbEntity
  8
B53
100
AcDbCircle
 10
571396.0395432644
 20
785595.881532367
 30
22.310068818158786
 40
0.25
  0
LINE
  5
1BF
330
17
100
AcDbEntity
  8
B53
100
AcDbLine
 10
571394.8140617477
 20
785593.1608118829
 30
22.234153096581306
 11
571437.5973675188
 21
785581.2208815158
 31
23.73946381421055
  0
TEXT
  5
1C0
330
17
100
AcDbEntity
  8
B53
100
AcDbText
 10
571416.2057146332
 20
785587.1908466993
 30
22.986808455395927
 40
0.5
  1
B53-522
 72
1
 11
571416.2057146332
 21
785587.1908466993
 31
22.986808455395927
100
AcDbText
 73
2
  0
TEXT
  5
1C1
330
17
100
AcDbEntity
  8
0
100
AcDbText
 10
571395.2953824042
 20
785593.0264853034
 30
22.251088140046328
 40
0.5
  1
19.306
 11
571395.2953824042
 21
785593.0264853034
 31
22.251088140046328
100
AcDbText
 73
1
  0
CIRCLE
  5
1C2
330
17
100
AcDbEntity
  8
B53
100
AcDbCircle
 10
571395.2953824042
 20
785593.0264853034
 30
22.251088140046328
 40
0.25
  0
LINE
  5
1C3
330
17
100
AcDbEntity
  8
B53
100
AcDbLine
 10
571394.0699015161
 20
785590.3057646436
 30
22.175153363527237
 11
571436.8043857221
 21
785578.3794593595
 31
23.680463814209766
  0
TEXT
  5
1C4
330
17
100
AcDbEntity
  8
B53
100
AcDbText
 10
571415.4371436192
 20
785584.3426120016
 30
22.9278085888685
 40
0.5
  1
B53-521
 72
1
 11
571415.4371436192
 21
785584.3426120016
 31
22.9278085888685
100
AcDbText
 73
2
  0
TEXT
  5
1C5
330
17
100
AcDbEntity
  8
0
100
AcDbText
 10
571394.5512215415
 20
785590.1714382402
 30
22.19210772901972
 40
0.5
  1
19.247
 11
571394.5512215415
 21
785590.1714382402
 31
22.19210772901972
100
AcDbText
 73
1
  0
CIRCLE
  5
1C6
330
17
100
AcDbEntity
  8
B53
100
AcDbCircle
 10
571394.5512215415
 20
785590.1714382402
 30
22.19210772901972
 40
0.25
  0
ENDSEC
  0
SECTION
  2
OBJECTS
  0
DICTIONARY
  5
A
330
0
100
AcDbDictionary
280
0
281
1
  3
ACAD_COLOR
350
B
  3
ACAD_GROUP
350
C
  3
ACAD_LAYOUT
350
D
  3
ACAD_MATERIAL
350
E
  3
ACAD_MLEADERSTYLE
350
F
  3
ACAD_MLINESTYLE
350
10
  3
ACAD_PLOTSETTINGS
350
11
  3
ACAD_PLOTSTYLENAME
350
12
  3
ACAD_SCALELIST
350
14
  3
ACAD_TABLESTYLE
350
15
  3
ACAD_VISUALSTYLE
350
16
  3
EZDXF_META
350
2D
  0
DICTIONARY
  5
B
330
A
100
AcDbDictionary
280
0
281
1
  0
DICTIONARY
  5
C
330
A
100
AcDbDictionary
280
0
281
1
  0
DICTIONARY
  5
D
330
A
100
AcDbDictionary
280
0
281
1
  3
Model
350
1A
  3
Layout1
350
1E
  0
DICTIONARY
  5
E
330
A
100
AcDbDictionary
280
0
281
1
  3
ByBlock
350
1F
  3
ByLayer
350
20
  3
Global
350
21
  0
DICTIONARY
  5
F
330
A
100
AcDbDictionary
280
0
281
1
  3
Standard
350
2C
  0
DICTIONARY
  5
10
330
A
100
AcDbDictionary
280
0
281
1
  3
Standard
350
22
  0
DICTIONARY
  5
11
330
A
100
AcDbDictionary
280
0
281
1
  0
ACDBDICTIONARYWDFLT
  5
12
330
A
100
AcDbDictionary
280
0
281
1
  3
Normal
350
13
100
AcDbDictionaryWithDefault
340
13
  0
ACDBPLACEHOLDER
  5
13
330
12
  0
DICTIONARY
  5
14
330
A
100
AcDbDictionary
280
0
281
1
  0
DICTIONARY
  5
15
330
A
100
AcDbDictionary
280
0
281
1
  0
DICTIONARY
  5
16
330
A
100
AcDbDictionary
280
0
281
1
  0
LAYOUT
  5
1A
330
D
100
AcDbPlotSettings
  1

  2
Adobe PDF
  4
A3
  6

 40
7.5
 41
20.0
 42
7.5
 43
20.0
 44
420.0
 45
297.0
 46
0.0
 47
0.0
 48
0.0
 49
0.0
140
0.0
141
0.0
142
1.0
143
1.0
 70
1024
 72
1
 73
0
 74
5
  7

 75
16
 76
0
 77
2
 78
300
147
1.0
148
0.0
149
0.0
100
AcDbLayout
  1
Model
 70
1
 71
0
 10
0.0
 20
0.0
 11
420.0
 21
297.0
 12
0.0
 22
0.0
 32
0.0
 14
1e+20
 24
1e+20
 34
1e+20
 15
-1e+20
 25
-1e+20
 35
-1e+20
146
0.0
 13
0.0
 23
0.0
 33
0.0
 16
1.0
 26
0.0
 36
0.0
 17
0.0
 27
1.0
 37
0.0
 76
1
330
17
  0
LAYOUT
  5
1E
330
D
100
AcDbPlotSettings
  1

  2
Adobe PDF
  4
A3
  6

 40
7.5
 41
20.0
 42
7.5
 43
20.0
 44
420.0
 45
297.0
 46
0.0
 47
0.0
 48
0.0
 49
0.0
140
0.0
141
0.0
142
1.0
143
1.0
 70
0
 72
1
 73
0
 74
5
  7

 75
16
 76
0
 77
2
 78
300
147
1.0
148
0.0
149
0.0
100
AcDbLayout
  1
Layout1
 70
1
 71
1
 10
0.0
 20
0.0
 11
420.0
 21
297.0
 12
0.0
 22
0.0
 32
0.0
 14
1e+20
 24
1e+20
 34
1e+20
 15
-1e+20
 25
-1e+20
 35
-1e+20
146
0.0
 13
0.0
 23
0.0
 33
0.0
 16
1.0
 26
0.0
 36
0.0
 17
0.0
 27
1.0
 37
0.0
 76
1
330
1B
  0
MATERIAL
  5
1F
102
{ACAD_REACTORS
330
E
102
}
330
E
100
AcDbMaterial
  1
ByBlock
  2

 70
0
 40
1.0
 71
1
 41
1.0
 91
-1023410177
 42
1.0
 72
1
  3

 73
1
 74
1
 75
1
 44
0.5
 73
0
 45
1.0
 46
1.0
 77
1
  4

 78
1
 79
1
170
1
 48
1.0
171
1
  6

172
1
173
1
174
1
140
1.0
141
1.0
175
1
  7

176
1
177
1
178
1
143
1.0
179
1
  8

270
1
271
1
272
1
145
1.0
146
1.0
273
1
  9

274
1
275
1
276
1
 42
1.0
 72
1
  3

 73
1
 74
1
 75
1
 94
63
  0
MATERIAL
  5
20
102
{ACAD_REACTORS
330
E
102
}
330
E
100
AcDbMaterial
  1
ByLayer
  2

 70
0
 40
1.0
 71
1
 41
1.0
 91
-1023410177
 42
1.0
 72
1
  3

 73
1
 74
1
 75
1
 44
0.5
 73
0
 45
1.0
 46
1.0
 77
1
  4

 78
1
 79
1
170
1
 48
1.0
171
1
  6

172
1
173
1
174
1
140
1.0
141
1.0
175
1
  7

176
1
177
1
178
1
143
1.0
179
1
  8

270
1
271
1
272
1
145
1.0
146
1.0
273
1
  9

274
1
275
1
276
1
 42
1.0
 72
1
  3

 73
1
 74
1
 75
1
 94
63
  0
MATERIAL
  5
21
102
{ACAD_REACTORS
330
E
102
}
330
E
100
AcDbMaterial
  1
Global
  2

 70
0
 40
1.0
 71
1
 41
1.0
 91
-1023410177
 42
1.0
 72
1
  3

 73
1
 74
1
 75
1
 44
0.5
 73
0
 45
1.0
 46
1.0
 77
1
  4

 78
1
 79
1
170
1
 48
1.0
171
1
  6

172
1
173
1
174
1
140
1.0
141
1.0
175
1
  7

176
1
177
1
178
1
143
1.0
179
1
  8

270
1
271
1
272
1
145
1.0
146
1.0
273
1
  9

274
1
275
1
276
1
 42
1.0
 72
1
  3

 73
1
 74
1
 75
1
 94
63
  0
MLINESTYLE
  5
22
102
{ACAD_REACTORS
330
10
102
}
330
10
100
AcDbMlineStyle
  2
Standard
 70
0
  3

 62
256
 51
90.0
 52
90.0
 71
2
 49
0.5
 62
256
  6
BYLAYER
 49
-0.5
 62
256
  6
BYLAYER
  0
MLEADERSTYLE
  5
2C
102
{ACAD_REACTORS
330
F
102
}
330
F
100
AcDbMLeaderStyle
179
2
170
2
171
1
172
0
 90
2
 40
0.0
 41
0.0
173
1
 91
-1056964608
 92
-2
290
1
 42
2.0
291
1
 43
8.0
  3
Standard
 44
4.0
300

342
29
174
1
175
1
176
0
178
1
 93
-1056964608
 45
4.0
292
0
297
0
 46
4.0
 94
-1056964608
 47
1.0
 49
1.0
140
1.0
294
1
141
0.0
177
0
142
1.0
295
0
296
0
143
3.75
271
0
272
9
273
9
  0
DICTIONARY
  5
2D
330
A
100
AcDbDictionary
281
1
  3
CREATED_BY_EZDXF
350
2E
  3
WRITTEN_BY_EZDXF
350
1C9
  0
DICTIONARYVAR
  5
2E
330
2D
100
DictionaryVariables
280
0
  1
1.1.4 @ 2024-08-03T03:54:45.323331+00:00
  0
DICTIONARYVAR
  5
1C9
330
2D
100
DictionaryVariables
280
0
  1
1.1.4 @ 2024-08-03T03:54:45.331359+00:00
  0
ENDSEC
  0
EOF
