  0
SECTION
  2
HEADER
  9
$ACADVER
  1
AC1027
  9
$ACADMAINTVER
 70
105
  9
$DWGCODEPAGE
  3
ANSI_1252
  9
$LASTSAVEDBY
  1
ezdxf
  9
$REQUIREDVERSIONS
160
0
  9
$INSBASE
 10
0.0
 20
0.0
 30
0.0
  9
$EXTMIN
 10
1e+20
 20
1e+20
 30
1e+20
  9
$EXTMAX
 10
-1e+20
 20
-1e+20
 30
-1e+20
  9
$LIMMIN
 10
0.0
 20
0.0
  9
$LIMMAX
 10
420.0
 20
297.0
  9
$ORTHOMODE
 70
0
  9
$REGENMODE
 70
1
  9
$FILLMODE
 70
1
  9
$QTEXTMODE
 70
0
  9
$MIRRTEXT
 70
1
  9
$LTSCALE
 40
1.0
  9
$ATTMODE
 70
1
  9
$TEXTSIZE
 40
2.5
  9
$TRACEWID
 40
1.0
  9
$TEXTSTYLE
  7
Standard
  9
$CLAYER
  8
0
  9
$CELTYPE
  6
ByLayer
  9
$CECOLOR
 62
256
  9
$CELTSCALE
 40
1.0
  9
$DISPSILH
 70
0
  9
$DIMSCALE
 40
1.0
  9
$DIMASZ
 40
2.5
  9
$DIMEXO
 40
0.625
  9
$DIMDLI
 40
3.75
  9
$DIMRND
 40
0.0
  9
$DIMDLE
 40
0.0
  9
$DIMEXE
 40
1.25
  9
$DIMTP
 40
0.0
  9
$DIMTM
 40
0.0
  9
$DIMTXT
 40
2.5
  9
$DIMCEN
 40
2.5
  9
$DIMTSZ
 40
0.0
  9
$DIMTOL
 70
0
  9
$DIMLIM
 70
0
  9
$DIMTIH
 70
0
  9
$DIMTOH
 70
0
  9
$DIMSE1
 70
0
  9
$DIMSE2
 70
0
  9
$DIMTAD
 70
1
  9
$DIMZIN
 70
8
  9
$DIMBLK
  1

  9
$DIMASO
 70
1
  9
$DIMSHO
 70
1
  9
$DIMPOST
  1

  9
$DIMAPOST
  1

  9
$DIMALT
 70
0
  9
$DIMALTD
 70
3
  9
$DIMALTF
 40
0.03937007874
  9
$DIMLFAC
 40
1.0
  9
$DIMTOFL
 70
1
  9
$DIMTVP
 40
0.0
  9
$DIMTIX
 70
0
  9
$DIMSOXD
 70
0
  9
$DIMSAH
 70
0
  9
$DIMBLK1
  1

  9
$DIMBLK2
  1

  9
$DIMSTYLE
  2
ISO-25
  9
$DIMCLRD
 70
0
  9
$DIMCLRE
 70
0
  9
$DIMCLRT
 70
0
  9
$DIMTFAC
 40
1.0
  9
$DIMGAP
 40
0.625
  9
$DIMJUST
 70
0
  9
$DIMSD1
 70
0
  9
$DIMSD2
 70
0
  9
$DIMTOLJ
 70
0
  9
$DIMTZIN
 70
8
  9
$DIMALTZ
 70
0
  9
$DIMALTTZ
 70
0
  9
$DIMUPT
 70
0
  9
$DIMDEC
 70
2
  9
$DIMTDEC
 70
2
  9
$DIMALTU
 70
2
  9
$DIMALTTD
 70
3
  9
$DIMTXSTY
  7
Standard
  9
$DIMAUNIT
 70
0
  9
$DIMADEC
 70
0
  9
$DIMALTRND
 40
0.0
  9
$DIMAZIN
 70
0
  9
$DIMDSEP
 70
44
  9
$DIMATFIT
 70
3
  9
$DIMFRAC
 70
0
  9
$DIMLDRBLK
  1

  9
$DIMLUNIT
 70
2
  9
$DIMLWD
 70
-2
  9
$DIMLWE
 70
-2
  9
$DIMTMOVE
 70
0
  9
$DIMFXL
 40
1.0
  9
$DIMFXLON
 70
0
  9
$DIMJOGANG
 40
0.785398163397
  9
$DIMTFILL
 70
0
  9
$DIMTFILLCLR
 70
0
  9
$DIMARCSYM
 70
0
  9
$DIMLTYPE
  6

  9
$DIMLTEX1
  6

  9
$DIMLTEX2
  6

  9
$DIMTXTDIRECTION
 70
0
  9
$LUNITS
 70
2
  9
$LUPREC
 70
4
  9
$SKETCHINC
 40
1.0
  9
$FILLETRAD
 40
10.0
  9
$AUNITS
 70
0
  9
$AUPREC
 70
2
  9
$MENU
  1
.
  9
$ELEVATION
 40
0.0
  9
$PELEVATION
 40
0.0
  9
$THICKNESS
 40
0.0
  9
$LIMCHECK
 70
0
  9
$CHAMFERA
 40
0.0
  9
$CHAMFERB
 40
0.0
  9
$CHAMFERC
 40
0.0
  9
$CHAMFERD
 40
0.0
  9
$SKPOLY
 70
0
  9
$TDCREATE
 40
2460515.693553241
  9
$TDUCREATE
 40
2458532.153996898
  9
$TDUPDATE
 40
2460515.693553241
  9
$TDUUPDATE
 40
2458532.1544311
  9
$TDINDWG
 40
0.0
  9
$TDUSRTIMER
 40
0.0
  9
$USRTIMER
 70
1
  9
$ANGBASE
 50
0.0
  9
$ANGDIR
 70
0
  9
$PDMODE
 70
0
  9
$PDSIZE
 40
0.0
  9
$PLINEWID
 40
0.0
  9
$SPLFRAME
 70
0
  9
$SPLINETYPE
 70
6
  9
$SPLINESEGS
 70
8
  9
$HANDSEED
  5
1B1
  9
$SURFTAB1
 70
6
  9
$SURFTAB2
 70
6
  9
$SURFTYPE
 70
6
  9
$SURFU
 70
6
  9
$SURFV
 70
6
  9
$UCSBASE
  2

  9
$UCSNAME
  2

  9
$UCSORG
 10
0.0
 20
0.0
 30
0.0
  9
$UCSXDIR
 10
1.0
 20
0.0
 30
0.0
  9
$UCSYDIR
 10
0.0
 20
1.0
 30
0.0
  9
$UCSORTHOREF
  2

  9
$UCSORTHOVIEW
 70
0
  9
$UCSORGTOP
 10
0.0
 20
0.0
 30
0.0
  9
$UCSORGBOTTOM
 10
0.0
 20
0.0
 30
0.0
  9
$UCSORGLEFT
 10
0.0
 20
0.0
 30
0.0
  9
$UCSORGRIGHT
 10
0.0
 20
0.0
 30
0.0
  9
$UCSORGFRONT
 10
0.0
 20
0.0
 30
0.0
  9
$UCSORGBACK
 10
0.0
 20
0.0
 30
0.0
  9
$PUCSBASE
  2

  9
$PUCSNAME
  2

  9
$PUCSORG
 10
0.0
 20
0.0
 30
0.0
  9
$PUCSXDIR
 10
1.0
 20
0.0
 30
0.0
  9
$PUCSYDIR
 10
0.0
 20
1.0
 30
0.0
  9
$PUCSORTHOREF
  2

  9
$PUCSORTHOVIEW
 70
0
  9
$PUCSORGTOP
 10
0.0
 20
0.0
 30
0.0
  9
$PUCSORGBOTTOM
 10
0.0
 20
0.0
 30
0.0
  9
$PUCSORGLEFT
 10
0.0
 20
0.0
 30
0.0
  9
$PUCSORGRIGHT
 10
0.0
 20
0.0
 30
0.0
  9
$PUCSORGFRONT
 10
0.0
 20
0.0
 30
0.0
  9
$PUCSORGBACK
 10
0.0
 20
0.0
 30
0.0
  9
$USERI1
 70
0
  9
$USERI2
 70
0
  9
$USERI3
 70
0
  9
$USERI4
 70
0
  9
$USERI5
 70
0
  9
$USERR1
 40
0.0
  9
$USERR2
 40
0.0
  9
$USERR3
 40
0.0
  9
$USERR4
 40
0.0
  9
$USERR5
 40
0.0
  9
$WORLDVIEW
 70
1
  9
$SHADEDGE
 70
3
  9
$SHADEDIF
 70
70
  9
$TILEMODE
 70
1
  9
$MAXACTVP
 70
64
  9
$PINSBASE
 10
0.0
 20
0.0
 30
0.0
  9
$PLIMCHECK
 70
0
  9
$PEXTMIN
 10
1e+20
 20
1e+20
 30
1e+20
  9
$PEXTMAX
 10
-1e+20
 20
-1e+20
 30
-1e+20
  9
$PLIMMIN
 10
0.0
 20
0.0
  9
$PLIMMAX
 10
420.0
 20
297.0
  9
$UNITMODE
 70
0
  9
$VISRETAIN
 70
1
  9
$PLINEGEN
 70
0
  9
$PSLTSCALE
 70
1
  9
$TREEDEPTH
 70
3020
  9
$CMLSTYLE
  2
Standard
  9
$CMLJUST
 70
0
  9
$CMLSCALE
 40
20.0
  9
$PROXYGRAPHICS
 70
1
  9
$MEASUREMENT
 70
1
  9
$CELWEIGHT
370
-1
  9
$ENDCAPS
280
0
  9
$JOINSTYLE
280
0
  9
$LWDISPLAY
290
0
  9
$INSUNITS
 70
6
  9
$HYPERLINKBASE
  1

  9
$STYLESHEET
  1

  9
$XEDIT
290
1
  9
$CEPSNTYPE
380
0
  9
$PSTYLEMODE
290
1
  9
$FINGERPRINTGUID
  2
{C3FA910B-5764-4D56-8F62-B941DA591466}
  9
$VERSIONGUID
  2
{921A65FA-4BD7-4D04-890E-18BEEC7028D4}
  9
$EXTNAMES
290
1
  9
$PSVPSCALE
 40
0.0
  9
$OLESTARTUP
290
0
  9
$SORTENTS
280
127
  9
$INDEXCTL
280
0
  9
$HIDETEXT
280
1
  9
$XCLIPFRAME
280
0
  9
$HALOGAP
280
0
  9
$OBSCOLOR
 70
257
  9
$OBSLTYPE
280
0
  9
$INTERSECTIONDISPLAY
280
0
  9
$INTERSECTIONCOLOR
 70
257
  9
$DIMASSOC
280
2
  9
$PROJECTNAME
  1

  9
$CAMERADISPLAY
290
0
  9
$LENSLENGTH
 40
50.0
  9
$CAMERAHEIGHT
 40
0.0
  9
$STEPSPERSEC
 40
24.0
  9
$STEPSIZE
 40
100.0
  9
$3DDWFPREC
 40
2.0
  9
$PSOLWIDTH
 40
0.005
  9
$PSOLHEIGHT
 40
0.08
  9
$LOFTANG1
 40
1.570796326795
  9
$LOFTANG2
 40
1.570796326795
  9
$LOFTMAG1
 40
0.0
  9
$LOFTMAG2
 40
0.0
  9
$LOFTPARAM
 70
7
  9
$LOFTNORMALS
280
1
  9
$LATITUDE
 40
37.795
  9
$LONGITUDE
 40
-122.394
  9
$NORTHDIRECTION
 40
0.0
  9
$TIMEZONE
 70
-8000
  9
$LIGHTGLYPHDISPLAY
280
1
  9
$TILEMODELIGHTSYNCH
280
1
  9
$CMATERIAL
347
20
  9
$SOLIDHIST
280
0
  9
$SHOWHIST
280
1
  9
$DWFFRAME
280
2
  9
$DGNFRAME
280
2
  9
$REALWORLDSCALE
290
1
  9
$INTERFERECOLOR
 62
256
  9
$CSHADOW
280
0
  9
$SHADOWPLANELOCATION
 40
0.0
  0
ENDSEC
  0
SECTION
  2
CLASSES
  0
CLASS
  1
ACDBDICTIONARYWDFLT
  2
AcDbDictionaryWithDefault
  3
ObjectDBX Classes
 90
0
 91
0
280
0
281
0
  0
CLASS
  1
SUN
  2
AcDbSun
  3
SCENEOE
 90
1153
 91
0
280
0
281
0
  0
CLASS
  1
VISUALSTYLE
  2
AcDbVisualStyle
  3
ObjectDBX Classes
 90
4095
 91
0
280
0
281
0
  0
CLASS
  1
MATERIAL
  2
AcDbMaterial
  3
ObjectDBX Classes
 90
1153
 91
0
280
0
281
0
  0
CLASS
  1
SCALE
  2
AcDbScale
  3
ObjectDBX Classes
 90
1153
 91
0
280
0
281
0
  0
CLASS
  1
TABLESTYLE
  2
AcDbTableStyle
  3
ObjectDBX Classes
 90
4095
 91
0
280
0
281
0
  0
CLASS
  1
MLEADERSTYLE
  2
AcDbMLeaderStyle
  3
ACDB_MLEADERSTYLE_CLASS
 90
4095
 91
0
280
0
281
0
  0
CLASS
  1
DICTIONARYVAR
  2
AcDbDictionaryVar
  3
ObjectDBX Classes
 90
0
 91
0
280
0
281
0
  0
CLASS
  1
CELLSTYLEMAP
  2
AcDbCellStyleMap
  3
ObjectDBX Classes
 90
1152
 91
0
280
0
281
0
  0
CLASS
  1
MENTALRAYRENDERSETTINGS
  2
AcDbMentalRayRenderSettings
  3
SCENEOE
 90
1024
 91
0
280
0
281
0
  0
CLASS
  1
ACDBDETAILVIEWSTYLE
  2
AcDbDetailViewStyle
  3
ObjectDBX Classes
 90
1025
 91
0
280
0
281
0
  0
CLASS
  1
ACDBSECTIONVIEWSTYLE
  2
AcDbSectionViewStyle
  3
ObjectDBX Classes
 90
1025
 91
0
280
0
281
0
  0
CLASS
  1
RASTERVARIABLES
  2
AcDbRasterVariables
  3
ISM
 90
0
 91
0
280
0
281
0
  0
CLASS
  1
ACDBPLACEHOLDER
  2
AcDbPlaceHolder
  3
ObjectDBX Classes
 90
0
 91
0
280
0
281
0
  0
CLASS
  1
LAYOUT
  2
AcDbLayout
  3
ObjectDBX Classes
 90
0
 91
0
280
0
281
0
  0
ENDSEC
  0
SECTION
  2
TABLES
  0
TABLE
  2
VPORT
  5
8
330
0
100
AcDbSymbolTable
 70
1
  0
VPORT
  5
23
330
8
100
AcDbSymbolTableRecord
100
AcDbViewportTableRecord
  2
*Active
 70
0
 10
0.0
 20
0.0
 11
1.0
 21
1.0
 12
0.0
 22
0.0
 13
0.0
 23
0.0
 14
0.5
 24
0.5
 15
0.5
 25
0.5
 16
0.0
 26
0.0
 36
1.0
 17
0.0
 27
0.0
 37
0.0
 40
1000.0
 41
1.34
 42
50.0
 43
0.0
 44
0.0
 50
0.0
 51
0.0
 71
0
 72
1000
 73
1
 74
3
 75
0
 76
0
 77
0
 78
0
281
0
 65
0
146
0.0
  0
ENDTAB
  0
TABLE
  2
LTYPE
  5
2
330
0
100
AcDbSymbolTable
 70
3
  0
LTYPE
  5
24
330
2
100
AcDbSymbolTableRecord
100
AcDbLinetypeTableRecord
  2
ByBlock
 70
0
  3

 72
65
 73
0
 40
0.0
  0
LTYPE
  5
25
330
2
100
AcDbSymbolTableRecord
100
AcDbLinetypeTableRecord
  2
ByLayer
 70
0
  3

 72
65
 73
0
 40
0.0
  0
LTYPE
  5
26
330
2
100
AcDbSymbolTableRecord
100
AcDbLinetypeTableRecord
  2
Continuous
 70
0
  3

 72
65
 73
0
 40
0.0
  0
ENDTAB
  0
TABLE
  2
LAYER
  5
1
330
0
100
AcDbSymbolTable
 70
11
  0
LAYER
  5
27
330
1
100
AcDbSymbolTableRecord
100
AcDbLayerTableRecord
  2
0
 70
0
 62
7
  6
Continuous
370
-3
390
13
347
21
  0
LAYER
  5
28
330
1
100
AcDbSymbolTableRecord
100
AcDbLayerTableRecord
  2
Defpoints
 70
0
 62
7
  6
Continuous
290
0
370
-3
390
13
347
21
  0
LAYER
  5
2F
330
1
100
AcDbSymbolTableRecord
100
AcDbLayerTableRecord
  2
B11
 70
0
 62
1
  6
Continuous
370
-3
390
13
347
21
  0
LAYER
  5
42
330
1
100
AcDbSymbolTableRecord
100
AcDbLayerTableRecord
  2
B13
 70
0
 62
2
  6
Continuous
370
-3
390
13
347
21
  0
LAYER
  5
6D
330
1
100
AcDbSymbolTableRecord
100
AcDbLayerTableRecord
  2
B14
 70
0
 62
3
  6
Continuous
370
-3
390
13
347
21
  0
LAYER
  5
A6
330
1
100
AcDbSymbolTableRecord
100
AcDbLayerTableRecord
  2
B21
 70
0
 62
4
  6
Continuous
370
-3
390
13
347
21
  0
LAYER
  5
B9
330
1
100
AcDbSymbolTableRecord
100
AcDbLayerTableRecord
  2
B23
 70
0
 62
5
  6
Continuous
370
-3
390
13
347
21
  0
LAYER
  5
F0
330
1
100
AcDbSymbolTableRecord
100
AcDbLayerTableRecord
  2
B31
 70
0
 62
6
  6
Continuous
370
-3
390
13
347
21
  0
LAYER
  5
103
330
1
100
AcDbSymbolTableRecord
100
AcDbLayerTableRecord
  2
B42
 70
0
 62
7
  6
Continuous
370
-3
390
13
347
21
  0
LAYER
  5
12E
330
1
100
AcDbSymbolTableRecord
100
AcDbLayerTableRecord
  2
B51
 70
0
 62
8
  6
Continuous
370
-3
390
13
347
21
  0
LAYER
  5
167
330
1
100
AcDbSymbolTableRecord
100
AcDbLayerTableRecord
  2
B52
 70
0
 62
9
  6
Continuous
370
-3
390
13
347
21
  0
ENDTAB
  0
TABLE
  2
STYLE
  5
5
330
0
100
AcDbSymbolTable
 70
1
  0
STYLE
  5
29
330
5
100
AcDbSymbolTableRecord
100
AcDbTextStyleTableRecord
  2
Standard
 70
0
 40
0.0
 41
1.0
 50
0.0
 71
0
 42
2.5
  3
txt
  4

  0
ENDTAB
  0
TABLE
  2
VIEW
  5
7
330
0
100
AcDbSymbolTable
 70
0
  0
ENDTAB
  0
TABLE
  2
UCS
  5
6
330
0
100
AcDbSymbolTable
 70
0
  0
ENDTAB
  0
TABLE
  2
APPID
  5
3
330
0
100
AcDbSymbolTable
 70
3
  0
APPID
  5
2A
330
3
100
AcDbSymbolTableRecord
100
AcDbRegAppTableRecord
  2
ACAD
 70
0
  0
APPID
  5
1AE
330
3
100
AcDbSymbolTableRecord
100
AcDbRegAppTableRecord
  2
HATCHBACKGROUNDCOLOR
 70
0
  0
APPID
  5
1AF
330
3
100
AcDbSymbolTableRecord
100
AcDbRegAppTableRecord
  2
EZDXF
 70
0
  0
ENDTAB
  0
TABLE
  2
DIMSTYLE
  5
4
330
0
100
AcDbSymbolTable
 70
1
100
AcDbDimStyleTable
  0
DIMSTYLE
105
2B
330
4
100
AcDbSymbolTableRecord
100
AcDbDimStyleTableRecord
  2
Standard
 70
0
 40
1.0
 41
2.5
 42
0.625
 43
3.75
 44
1.25
 45
0.0
 46
0.0
 47
0.0
 48
0.0
 49
2.5
140
2.5
141
2.5
142
0.0
143
0.03937007874
144
1.0
145
0.0
146
1.0
147
0.625
148
0.0
 69
0
 70
0
 71
0
 72
0
 73
0
 74
0
 75
0
 76
0
 77
1
 78
8
 79
3
170
0
171
3
172
1
173
0
174
0
175
0
176
0
177
0
178
0
179
2
271
2
272
2
273
2
274
3
275
0
276
0
277
2
278
44
279
0
280
0
281
0
282
0
283
0
284
8
285
0
286
0
288
0
289
3
290
0
371
-2
372
-2
  0
ENDTAB
  0
TABLE
  2
BLOCK_RECORD
  5
9
330
0
100
AcDbSymbolTable
 70
2
  0
BLOCK_RECORD
  5
17
330
9
100
AcDbSymbolTableRecord
100
AcDbBlockTableRecord
  2
*Model_Space
340
1A
 70
0
280
1
281
0
  0
BLOCK_RECORD
  5
1B
330
9
100
AcDbSymbolTableRecord
100
AcDbBlockTableRecord
  2
*Paper_Space
340
1E
 70
0
280
1
281
0
  0
ENDTAB
  0
ENDSEC
  0
SECTION
  2
BLOCKS
  0
BLOCK
  5
18
330
17
100
AcDbEntity
  8
0
100
AcDbBlockBegin
  2
*Model_Space
 70
0
 10
0.0
 20
0.0
 30
0.0
  3
*Model_Space
  1

  0
ENDBLK
  5
19
330
17
100
AcDbEntity
  8
0
100
AcDbBlockEnd
  0
BLOCK
  5
1C
330
1B
100
AcDbEntity
  8
0
100
AcDbBlockBegin
  2
*Paper_Space
 70
0
 10
0.0
 20
0.0
 30
0.0
  3
*Paper_Space
  1

  0
ENDBLK
  5
1D
330
1B
100
AcDbEntity
  8
0
100
AcDbBlockEnd
  0
ENDSEC
  0
SECTION
  2
ENTITIES
  0
LINE
  5
30
330
17
100
AcDbEntity
  8
B11
100
AcDbLine
 10
570917.0459745823
 20
785549.6583796116
 30
12.142912038850541
 11
570937.5525166992
 21
785574.8464201322
 31
12.997703224448935
  0
TEXT
  5
31
330
17
100
AcDbEntity
  8
B11
100
AcDbText
 10
570927.2992456408
 20
785562.2523998718
 30
12.570307631649738
 40
0.5
  1
B11-101
 72
1
 11
570927.2992456408
 21
785562.2523998718
 31
12.570307631649738
100
AcDbText
 73
2
  0
TEXT
  5
32
330
17
100
AcDbEntity
  8
0
100
AcDbText
 10
570917.3615440602
 20
785550.0459913673
 30
12.156066182856263
 40
0.5
  1
9.211
 11
570917.3615440602
 21
785550.0459913673
 31
12.156066182856263
100
AcDbText
 73
1
  0
CIRCLE
  5
33
330
17
100
AcDbEntity
  8
B11
100
AcDbCircle
 10
570917.3615440602
 20
785550.0459913673
 30
12.156066182856263
 40
0.25
  0
TEXT
  5
34
330
17
100
AcDbEntity
  8
0
100
AcDbText
 10
570937.2369472213
 20
785574.4588083765
 30
12.984549080443214
 40
0.5
  1
10.040
 72
2
 11
570937.2369472213
 21
785574.4588083765
 31
12.984549080443214
100
AcDbText
 73
2
  0
CIRCLE
  5
35
330
17
100
AcDbEntity
  8
B11
100
AcDbCircle
 10
570937.2369472213
 20
785574.4588083765
 30
12.984549080443214
 40
0.25
  0
LINE
  5
36
330
17
100
AcDbEntity
  8
B11
100
AcDbLine
 10
570918.7714889253
 20
785548.2536713203
 30
12.098415127410702
 11
570939.2779596552
 21
785573.441620718
 31
12.95320269689692
  0
TEXT
  5
37
330
17
100
AcDbEntity
  8
B11
100
AcDbText
 10
570929.0247242902
 20
785560.8476460192
 30
12.52580891215381
 40
0.5
  1
B11-102
 72
1
 11
570929.0247242902
 21
785560.8476460192
 31
12.52580891215381
100
AcDbText
 73
2
  0
TEXT
  5
38
330
17
100
AcDbEntity
  8
0
100
AcDbText
 10
570919.0870584291
 20
785548.6412830551
 30
12.111569262647105
 40
0.5
  1
9.167
 11
570919.0870584291
 21
785548.6412830551
 31
12.111569262647105
100
AcDbText
 73
1
  0
CIRCLE
  5
39
330
17
100
AcDbEntity
  8
B11
100
AcDbCircle
 10
570919.0870584291
 20
785548.6412830551
 30
12.111569262647105
 40
0.25
  0
TEXT
  5
3A
330
17
100
AcDbEntity
  8
0
100
AcDbText
 10
570938.9623901513
 20
785573.0540089832
 30
12.940048561660516
 40
0.5
  1
9.995
 72
2
 11
570938.9623901513
 21
785573.0540089832
 31
12.940048561660516
100
AcDbText
 73
2
  0
CIRCLE
  5
3B
330
17
100
AcDbEntity
  8
B11
100
AcDbCircle
 10
570938.9623901513
 20
785573.0540089832
 30
12.940048561660516
 40
0.25
  0
LINE
  5
3C
330
17
100
AcDbEntity
  8
B11
100
AcDbLine
 10
570920.4970101968
 20
785546.8489573889
 30
12.053917823796038
 11
570941.003406171
 21
785572.0368184051
 31
12.90870209906962
  0
TEXT
  5
3D
330
17
100
AcDbEntity
  8
B11
100
AcDbText
 10
570930.7502081839
 20
785559.442887897
 30
12.48130996143283
 40
0.5
  1
B11-103
 72
1
 11
570930.7502081839
 21
785559.442887897
 31
12.48130996143283
100
AcDbText
 73
2
  0
TEXT
  5
3E
330
17
100
AcDbEntity
  8
0
100
AcDbText
 10
570920.8125796748
 20
785547.2365691449
 30
12.067071955213615
 40
0.5
  1
9.122
 11
570920.8125796748
 21
785547.2365691449
 31
12.067071955213615
100
AcDbText
 73
1
  0
CIRCLE
  5
3F
330
17
100
AcDbEntity
  8
B11
100
AcDbCircle
 10
570920.8125796748
 20
785547.2365691449
 30
12.067071955213615
 40
0.25
  0
TEXT
  5
40
330
17
100
AcDbEntity
  8
0
100
AcDbText
 10
570940.687836693
 20
785571.6492066492
 30
12.895547967652043
 40
0.5
  1
9.951
 72
2
 11
570940.687836693
 21
785571.6492066492
 31
12.895547967652043
100
AcDbText
 73
2
  0
CIRCLE
  5
41
330
17
100
AcDbEntity
  8
B11
100
AcDbCircle
 10
570940.687836693
 20
785571.6492066492
 30
12.895547967652043
 40
0.25
  0
LINE
  5
43
330
17
100
AcDbEntity
  8
B13
100
AcDbLine
 10
571107.1357770821
 20
785661.8966836042
 30
13.447280069217442
 11
571145.1290468925
 21
785649.3612139185
 31
14.837084702958599
  0
TEXT
  5
44
330
17
100
AcDbEntity
  8
B13
100
AcDbText
 10
571126.1324119873
 20
785655.6289487614
 30
14.14218238608802
 40
0.5
  1
B13-307
 72
1
 11
571126.1324119873
 21
785655.6289487614
 31
14.14218238608802
100
AcDbText
 73
2
  0
TEXT
  5
45
330
17
100
AcDbEntity
  8
0
100
AcDbText
 10
571107.6103137574
 20
785661.7401153452
 30
13.464638755994976
 40
0.5
  1
10.520
 11
571107.6103137574
 21
785661.7401153452
 31
13.464638755994976
100
AcDbText
 73
1
  0
CIRCLE
  5
46
330
17
100
AcDbEntity
  8
B13
100
AcDbCircle
 10
571107.6103137574
 20
785661.7401153452
 30
13.464638755994976
 40
0.25
  0
TEXT
  5
47
330
17
100
AcDbEntity
  8
0
100
AcDbText
 10
571144.6545102171
 20
785649.5177821775
 30
14.819726016181065
 40
0.5
  1
11.875
 72
2
 11
571144.6545102171
 21
785649.5177821775
 31
14.819726016181065
100
AcDbText
 73
2
  0
CIRCLE
  5
48
330
17
100
AcDbEntity
  8
B13
100
AcDbCircle
 10
571144.6545102171
 20
785649.5177821775
 30
14.819726016181065
 40
0.25
  0
LINE
  5
49
330
17
100
AcDbEntity
  8
B13
100
AcDbLine
 10
571105.7037547647
 20
785659.2318048868
 30
13.576184340550311
 11
571144.8409156695
 21
785647.7196420572
 31
14.828187485928014
  0
TEXT
  5
4A
330
17
100
AcDbEntity
  8
B13
100
AcDbText
 10
571125.2723352171
 20
785653.475723472
 30
14.202185913239163
 40
0.5
  1
B13-306
 72
1
 11
571125.2723352171
 21
785653.475723472
 31
14.202185913239163
100
AcDbText
 73
2
  0
TEXT
  5
4B
330
17
100
AcDbEntity
  8
0
100
AcDbText
 10
571106.1832076849
 20
785659.0907742153
 30
13.59152210522776
 40
0.5
  1
10.647
 11
571106.1832076849
 21
785659.0907742153
 31
13.59152210522776
100
AcDbText
 73
1
  0
CIRCLE
  5
4C
330
17
100
AcDbEntity
  8
B13
100
AcDbCircle
 10
571106.1832076849
 20
785659.0907742153
 30
13.59152210522776
 40
0.25
  0
TEXT
  5
4D
330
17
100
AcDbEntity
  8
0
100
AcDbText
 10
571144.3614627493
 20
785647.8606727287
 30
14.812849721250565
 40
0.5
  1
11.868
 72
2
 11
571144.3614627493
 21
785647.8606727287
 31
14.812849721250565
100
AcDbText
 73
2
  0
CIRCLE
  5
4E
330
17
100
AcDbEntity
  8
B13
100
AcDbCircle
 10
571144.3614627493
 20
785647.8606727287
 30
14.812849721250565
 40
0.25
  0
LINE
  5
4F
330
17
100
AcDbEntity
  8
B13
100
AcDbLine
 10
571104.271732447
 20
785656.5669261691
 30
13.705179024061428
 11
571144.552784446
 21
785646.0780701959
 31
14.819178113587746
  0
TEXT
  5
50
330
17
100
AcDbEntity
  8
B13
100
AcDbText
 10
571124.4122584464
 20
785651.3224981825
 30
14.262178568824588
 40
0.5
  1
B13-305
 72
1
 11
571124.4122584464
 21
785651.3224981825
 31
14.262178568824588
100
AcDbText
 73
2
  0
TEXT
  5
51
330
17
100
AcDbEntity
  8
0
100
AcDbText
 10
571104.7554243016
 20
785656.4409767723
 30
13.71855584166938
 40
0.5
  1
10.774
 11
571104.7554243016
 21
785656.4409767723
 31
13.71855584166938
100
AcDbText
 73
1
  0
CIRCLE
  5
52
330
17
100
AcDbEntity
  8
B13
100
AcDbCircle
 10
571104.7554243016
 20
785656.4409767723
 30
13.71855584166938
 40
0.25
  0
TEXT
  5
53
330
17
100
AcDbEntity
  8
0
100
AcDbText
 10
571144.0690925914
 20
785646.2040195926
 30
14.805801295979794
 40
0.5
  1
11.861
 72
2
 11
571144.0690925914
 21
785646.2040195926
 31
14.805801295979794
100
AcDbText
 73
2
  0
CIRCLE
  5
54
330
17
100
AcDbEntity
  8
B13
100
AcDbCircle
 10
571144.0690925914
 20
785646.2040195926
 30
14.805801295979794
 40
0.25
  0
LINE
  5
55
330
17
100
AcDbEntity
  8
B13
100
AcDbLine
 10
571103.8327292437
 20
785654.3007295292
 30
13.815138261534255
 11
571144.2646532229
 21
785644.4364983345
 31
14.810057734153405
  0
TEXT
  5
56
330
17
100
AcDbEntity
  8
B13
100
AcDbText
 10
571124.0486912333
 20
785649.3686139318
 30
14.312597997843831
 40
0.5
  1
B13-304
 72
1
 11
571124.0486912333
 21
785649.3686139318
 31
14.312597997843831
100
AcDbText
 73
2
  0
TEXT
  5
57
330
17
100
AcDbEntity
  8
0
100
AcDbText
 10
571104.3183429613
 20
785654.1822536936
 30
13.827087891832191
 40
0.5
  1
10.882
 11
571104.3183429613
 21
785654.1822536936
 31
13.827087891832191
100
AcDbText
 73
1
  0
CIRCLE
  5
58
330
17
100
AcDbEntity
  8
B13
100
AcDbCircle
 10
571104.3183429613
 20
785654.1822536936
 30
13.827087891832191
 40
0.25
  0
TEXT
  5
59
330
17
100
AcDbEntity
  8
0
100
AcDbText
 10
571143.7790395053
 20
785644.5549741702
 30
14.79810810385547
 40
0.5
  1
11.853
 72
2
 11
571143.7790395053
 21
785644.5549741702
 31
14.79810810385547
100
AcDbText
 73
2
  0
CIRCLE
  5
5A
330
17
100
AcDbEntity
  8
B13
100
AcDbCircle
 10
571143.7790395053
 20
785644.5549741702
 30
14.79810810385547
 40
0.25
  0
LINE
  5
5B
330
17
100
AcDbEntity
  8
B13
100
AcDbLine
 10
571103.3937260403
 20
785652.0345328888
 30
13.658960680081918
 11
571143.9765219997
 21
785642.794926473
 31
14.767398146688375
  0
TEXT
  5
5C
330
17
100
AcDbEntity
  8
B13
100
AcDbText
 10
571123.68512402
 20
785647.4147296809
 30
14.213179413385147
 40
0.5
  1
B13-106
 72
1
 11
571123.68512402
 21
785647.4147296809
 31
14.213179413385147
100
AcDbText
 73
2
  0
TEXT
  5
5D
330
17
100
AcDbEntity
  8
0
100
AcDbText
 10
571103.8810774689
 20
785651.9235761329
 30
13.672271704373829
 40
0.5
  1
10.727
 11
571103.8810774689
 21
785651.9235761329
 31
13.672271704373829
100
AcDbText
 73
1
  0
CIRCLE
  5
5E
330
17
100
AcDbEntity
  8
B13
100
AcDbCircle
 10
571103.8810774689
 20
785651.9235761329
 30
13.672271704373829
 40
0.25
  0
TEXT
  5
5F
330
17
100
AcDbEntity
  8
0
100
AcDbText
 10
571143.4891705711
 20
785642.905883229
 30
14.754087122396465
 40
0.5
  1
11.809
 72
2
 11
571143.4891705711
 21
785642.905883229
 31
14.754087122396465
100
AcDbText
 73
2
  0
CIRCLE
  5
60
330
17
100
AcDbEntity
  8
B13
100
AcDbCircle
 10
571143.4891705711
 20
785642.905883229
 30
14.754087122396465
 40
0.25
  0
LINE
  5
61
330
17
100
AcDbEntity
  8
B13
100
AcDbLine
 10
571103.0201010376
 20
785649.8005612334
 30
13.604571191856042
 11
571143.6883907764
 21
785641.1533546118
 31
14.734065056981752
  0
TEXT
  5
62
330
17
100
AcDbEntity
  8
B13
100
AcDbText
 10
571123.3542459069
 20
785645.4769579226
 30
14.169318124418897
 40
0.5
  1
B13-105
 72
1
 11
571123.3542459069
 21
785645.4769579226
 31
14.169318124418897
100
AcDbText
 73
2
  0
TEXT
  5
63
330
17
100
AcDbEntity
  8
0
100
AcDbText
 10
571103.5089873931
 20
785649.6966104315
 30
13.618149194345662
 40
0.5
  1
10.673
 11
571103.5089873931
 21
785649.6966104315
 31
13.618149194345662
100
AcDbText
 73
1
  0
CIRCLE
  5
64
330
17
100
AcDbEntity
  8
B13
100
AcDbCircle
 10
571103.5089873931
 20
785649.6966104315
 30
13.618149194345662
 40
0.25
  0
TEXT
  5
65
330
17
100
AcDbEntity
  8
0
100
AcDbText
 10
571143.1995044209
 20
785641.2573054137
 30
14.720487054492132
 40
0.5
  1
11.775
 72
2
 11
571143.1995044209
 21
785641.2573054137
 31
14.720487054492132
100
AcDbText
 73
2
  0
CIRCLE
  5
66
330
17
100
AcDbEntity
  8
B13
100
AcDbCircle
 10
571143.1995044209
 20
785641.2573054137
 30
14.720487054492132
 40
0.25
  0
LINE
  5
67
330
17
100
AcDbEntity
  8
B13
100
AcDbLine
 10
571102.6464760347
 20
785647.5665895779
 30
13.55018307255329
 11
571143.4002595532
 21
785639.5117827505
 31
14.700731723648875
  0
TEXT
  5
68
330
17
100
AcDbEntity
  8
B13
100
AcDbText
 10
571123.023367794
 20
785643.5391861643
 30
14.125457398101084
 40
0.5
  1
B13-104
 72
1
 11
571123.023367794
 21
785643.5391861643
 31
14.125457398101084
100
AcDbText
 73
2
  0
TEXT
  5
69
330
17
100
AcDbEntity
  8
0
100
AcDbText
 10
571103.1367991827
 20
785647.4696793552
 30
13.564025729306824
 40
0.5
  1
10.619
 11
571103.1367991827
 21
785647.4696793552
 31
13.564025729306824
100
AcDbText
 73
1
  0
CIRCLE
  5
6A
330
17
100
AcDbEntity
  8
B13
100
AcDbCircle
 10
571103.1367991827
 20
785647.4696793552
 30
13.564025729306824
 40
0.25
  0
TEXT
  5
6B
330
17
100
AcDbEntity
  8
0
100
AcDbText
 10
571142.9099364051
 20
785639.6086929733
 30
14.686889066895342
 40
0.5
  1
11.742
 72
2
 11
571142.9099364051
 21
785639.6086929733
 31
14.686889066895342
100
AcDbText
 73
2
  0
CIRCLE
  5
6C
330
17
100
AcDbEntity
  8
B13
100
AcDbCircle
 10
571142.9099364051
 20
785639.6086929733
 30
14.686889066895342
 40
0.25
  0
LINE
  5
6E
330
17
100
AcDbEntity
  8
B14
100
AcDbLine
 10
571145.4678216963
 20
785648.283429019
 30
14.84848026394558
 11
571189.8630638239
 21
785639.9656585169
 31
16.14950158395968
  0
TEXT
  5
6F
330
17
100
AcDbEntity
  8
B14
100
AcDbText
 10
571167.6654427601
 20
785644.1245437679
 30
15.49899092395263
 40
0.5
  1
B14-309
 72
1
 11
571167.6654427601
 21
785644.1245437679
 31
15.49899092395263
100
AcDbText
 73
2
  0
TEXT
  5
70
330
17
100
AcDbEntity
  8
0
100
AcDbText
 10
571145.9590667455
 20
785648.1913906973
 30
14.862876407580515
 40
0.5
  1
11.918
 11
571145.9590667455
 21
785648.1913906973
 31
14.862876407580515
100
AcDbText
 73
1
  0
CIRCLE
  5
71
330
17
100
AcDbEntity
  8
B14
100
AcDbCircle
 10
571145.9590667455
 20
785648.1913906973
 30
14.862876407580515
 40
0.25
  0
LINE
  5
72
330
17
100
AcDbEntity
  8
B14
100
AcDbLine
 10
571145.0065816978
 20
785645.6556034245
 30
14.83233557062188
 11
571189.4351730109
 21
785637.5278334501
 31
16.09999973913023
  0
TEXT
  5
73
330
17
100
AcDbEntity
  8
B14
100
AcDbText
 10
571167.2208773544
 20
785641.5917184374
 30
15.466167654876054
 40
0.5
  1
B14-308
 72
1
 11
571167.2208773544
 21
785641.5917184374
 31
15.466167654876054
100
AcDbText
 73
2
  0
TEXT
  5
74
330
17
100
AcDbEntity
  8
0
100
AcDbText
 10
571145.4982256404
 20
785645.5656620432
 30
14.846363461022435
 40
0.5
  1
11.901
 11
571145.4982256404
 21
785645.5656620432
 31
14.846363461022435
100
AcDbText
 73
1
  0
CIRCLE
  5
75
330
17
100
AcDbEntity
  8
B14
100
AcDbCircle
 10
571145.4982256404
 20
785645.5656620432
 30
14.846363461022435
 40
0.25
  0
LINE
  5
76
330
17
100
AcDbEntity
  8
B14
100
AcDbLine
 10
571144.5453416993
 20
785643.0277778301
 30
14.788511742602251
 11
571189.0073165687
 21
785635.090204206
 31
16.05050187062199
  0
TEXT
  5
77
330
17
100
AcDbEntity
  8
B14
100
AcDbText
 10
571166.776329134
 20
785639.058991018
 30
15.41950680661212
 40
0.5
  1
B14-108
 72
1
 11
571166.776329134
 21
785639.058991018
 31
15.41950680661212
100
AcDbText
 73
2
  0
TEXT
  5
78
330
17
100
AcDbEntity
  8
0
100
AcDbText
 10
571145.0373674064
 20
785642.9399389456
 30
14.802477194811669
 40
0.5
  1
11.857
 11
571145.0373674064
 21
785642.9399389456
 31
14.802477194811669
100
AcDbText
 73
1
  0
CIRCLE
  5
79
330
17
100
AcDbEntity
  8
B14
100
AcDbCircle
 10
571145.0373674064
 20
785642.9399389456
 30
14.802477194811669
 40
0.25
  0
LINE
  5
7A
330
17
100
AcDbEntity
  8
B14
100
AcDbLine
 10
571144.084101716
 20
785640.3999523235
 30
14.735151981384531
 11
571188.5794945615
 21
785632.6527711464
 31
16.001008096463195
  0
TEXT
  5
7B
330
17
100
AcDbEntity
  8
B14
100
AcDbText
 10
571166.3317981388
 20
785636.526361735
 30
15.368080038923864
 40
0.5
  1
B14-107
 72
1
 11
571166.3317981388
 21
785636.526361735
 31
15.368080038923864
100
AcDbText
 73
2
  0
TEXT
  5
7C
330
17
100
AcDbEntity
  8
0
100
AcDbText
 10
571144.5764976812
 20
785640.3142202846
 30
14.749160228164538
 40
0.5
  1
11.804
 11
571144.5764976812
 21
785640.3142202846
 31
14.749160228164538
100
AcDbText
 73
1
  0
CIRCLE
  5
7D
330
17
100
AcDbEntity
  8
B14
100
AcDbCircle
 10
571144.5764976812
 20
785640.3142202846
 30
14.749160228164538
 40
0.25
  0
LINE
  5
7E
330
17
100
AcDbEntity
  8
B14
100
AcDbLine
 10
571190.3545448841
 20
785639.8735759767
 30
16.163386802725817
 11
571234.0670126806
 21
785631.6837281956
 31
17.404891721244685
  0
TEXT
  5
7F
330
17
100
AcDbEntity
  8
B14
100
AcDbText
 10
571212.2107787824
 20
785635.7786520862
 30
16.784139261985253
 40
0.5
  1
B14-504
 72
1
 11
571212.2107787824
 21
785635.7786520862
 31
16.784139261985253
100
AcDbText
 73
2
  0
TEXT
  5
80
330
17
100
AcDbEntity
  8
0
100
AcDbText
 10
571190.1089161763
 20
785639.919596296
 30
16.15641054939953
 40
0.5
  1
13.211
 72
1
 11
571190.1089161763
 21
785639.919596296
 31
16.15641054939953
100
AcDbText
 73
1
  0
CIRCLE
  5
81
330
17
100
AcDbEntity
  8
B14
100
AcDbCircle
 10
571190.1089161763
 20
785639.919596296
 30
16.15641054939953
 40
0.25
  0
LINE
  5
82
330
17
100
AcDbEntity
  8
B14
100
AcDbLine
 10
571189.927023266
 20
785637.4378543256
 30
16.113927669310787
 11
571233.6381748336
 21
785629.4413328345
 31
17.35922442391442
  0
TEXT
  5
83
330
17
100
AcDbEntity
  8
B14
100
AcDbText
 10
571211.7825990499
 20
785633.4395935801
 30
16.736576046612605
 40
0.5
  1
B14-503
 72
1
 11
571211.7825990499
 21
785633.4395935801
 31
16.736576046612605
100
AcDbText
 73
2
  0
TEXT
  5
84
330
17
100
AcDbEntity
  8
0
100
AcDbText
 10
571189.6812010006
 20
785637.4828250702
 30
16.10692438391897
 40
0.5
  1
13.162
 72
1
 11
571189.6812010006
 21
785637.4828250702
 31
16.10692438391897
100
AcDbText
 73
1
  0
CIRCLE
  5
85
330
17
100
AcDbEntity
  8
B14
100
AcDbCircle
 10
571189.6812010006
 20
785637.4828250702
 30
16.10692438391897
 40
0.25
  0
LINE
  5
86
330
17
100
AcDbEntity
  8
B14
100
AcDbLine
 10
571189.4995363993
 20
785635.0023306656
 30
16.064472863114144
 11
571233.209355752
 21
785627.1990355978
 31
17.31355950073798
  0
TEXT
  5
87
330
17
100
AcDbEntity
  8
B14
100
AcDbText
 10
571211.3544460756
 20
785631.1006831317
 30
16.689016181926064
 40
0.5
  1
B14-502
 72
1
 11
571211.3544460756
 21
785631.1006831317
 31
16.689016181926064
100
AcDbText
 73
2
  0
TEXT
  5
88
330
17
100
AcDbEntity
  8
0
100
AcDbText
 10
571189.2535248566
 20
785635.0462498738
 30
16.0574426411822
 40
0.5
  1
13.112
 72
1
 11
571189.2535248566
 21
785635.0462498738
 31
16.0574426411822
100
AcDbText
 73
1
  0
CIRCLE
  5
89
330
17
100
AcDbEntity
  8
B14
100
AcDbCircle
 10
571189.2535248566
 20
785635.0462498738
 30
16.0574426411822
 40
0.25
  0
LINE
  5
8A
330
17
100
AcDbEntity
  8
B14
100
AcDbLine
 10
571189.0720843482
 20
785632.567005361
 30
16.015021777806236
 11
571232.7805554743
 21
785624.9568366866
 31
17.267896593547466
  0
TEXT
  5
8B
330
17
100
AcDbEntity
  8
B14
100
AcDbText
 10
571210.9263199113
 20
785628.7619210237
 30
16.64145918567685
 40
0.5
  1
B14-501
 72
1
 11
571210.9263199113
 21
785628.7619210237
 31
16.64145918567685
100
AcDbText
 73
2
  0
TEXT
  5
8C
330
17
100
AcDbEntity
  8
0
100
AcDbText
 10
571188.8258878329
 20
785632.609871125
 30
16.00796471527827
 40
0.5
  1
13.063
 72
1
 11
571188.8258878329
 21
785632.609871125
 31
16.00796471527827
100
AcDbText
 73
1
  0
CIRCLE
  5
8D
330
17
100
AcDbEntity
  8
B14
100
AcDbCircle
 10
571188.8258878329
 20
785632.609871125
 30
16.00796471527827
 40
0.25
  0
LINE
  5
8E
330
17
100
AcDbEntity
  8
B14
100
AcDbLine
 10
571234.5584649311
 20
785631.591651053
 30
17.418939507904508
 11
571278.2624771938
 21
785623.403387478
 31
18.675984556461582
  0
TEXT
  5
8F
330
17
100
AcDbEntity
  8
B14
100
AcDbText
 10
571256.4104710624
 20
785627.4975192655
 30
18.047462032183045
 40
0.5
  1
B14-508
 72
1
 11
571256.4104710624
 21
785627.4975192655
 31
18.047462032183045
100
AcDbText
 73
2
  0
TEXT
  5
90
330
17
100
AcDbEntity
  8
0
100
AcDbText
 10
571234.3128386703
 20
785631.637670914
 30
17.411874635392497
 40
0.5
  1
14.467
 72
1
 11
571234.3128386703
 21
785631.637670914
 31
17.411874635392497
100
AcDbText
 73
1
  0
CIRCLE
  5
91
330
17
100
AcDbEntity
  8
B14
100
AcDbCircle
 10
571234.3128386703
 20
785631.637670914
 30
17.411874635392497
 40
0.25
  0
TEXT
  5
92
330
17
100
AcDbEntity
  8
0
100
AcDbText
 10
571277.7712246723
 20
785623.4954271998
 30
18.66185481143756
 40
0.5
  1
15.717
 72
2
 11
571277.7712246723
 21
785623.4954271998
 31
18.66185481143756
100
AcDbText
 73
1
  0
CIRCLE
  5
93
330
17
100
AcDbEntity
  8
B14
100
AcDbCircle
 10
571277.7712246723
 20
785623.4954271998
 30
18.66185481143756
 40
0.25
  0
LINE
  5
94
330
17
100
AcDbEntity
  8
B14
100
AcDbLine
 10
571234.1300282022
 20
785629.3513531405
 30
17.373327644487134
 11
571277.832578053
 21
785621.3564052478
 31
18.634143331707385
  0
TEXT
  5
95
330
17
100
AcDbEntity
  8
B14
100
AcDbText
 10
571255.9813031276
 20
785625.3538791942
 30
18.00373548809726
 40
0.5
  1
B14-507
 72
1
 11
571255.9813031276
 21
785625.3538791942
 31
18.00373548809726
100
AcDbText
 73
2
  0
TEXT
  5
96
330
17
100
AcDbEntity
  8
0
100
AcDbText
 10
571233.8842083947
 20
785629.3963234354
 30
17.36623575921844
 40
0.5
  1
14.421
 72
1
 11
571233.8842083947
 21
785629.3963234354
 31
17.36623575921844
100
AcDbText
 73
1
  0
CIRCLE
  5
97
330
17
100
AcDbEntity
  8
B14
100
AcDbCircle
 10
571233.8842083947
 20
785629.3963234354
 30
17.36623575921844
 40
0.25
  0
TEXT
  5
98
330
17
100
AcDbEntity
  8
0
100
AcDbText
 10
571277.3409384381
 20
785621.4463458374
 30
18.619959561170003
 40
0.5
  1
15.675
 72
2
 11
571277.3409384381
 21
785621.4463458374
 31
18.619959561170003
100
AcDbText
 73
1
  0
CIRCLE
  5
99
330
17
100
AcDbEntity
  8
B14
100
AcDbCircle
 10
571277.3409384381
 20
785621.4463458374
 30
18.619959561170003
 40
0.25
  0
LINE
  5
9A
330
17
100
AcDbEntity
  8
B14
100
AcDbLine
 10
571233.7016107043
 20
785627.1111557873
 30
17.327718580830567
 11
571277.402678912
 21
785619.3094230177
 31
18.59230173904104
  0
TEXT
  5
9B
330
17
100
AcDbEntity
  8
B14
100
AcDbText
 10
571255.5521448081
 20
785623.2102894024
 30
17.960010159935806
 40
0.5
  1
B14-506
 72
1
 11
571255.5521448081
 21
785623.2102894024
 31
17.960010159935806
100
AcDbText
 73
2
  0
TEXT
  5
9C
330
17
100
AcDbEntity
  8
0
100
AcDbText
 10
571233.45560163
 20
785627.1550745548
 30
17.320599786145742
 40
0.5
  1
14.376
 72
1
 11
571233.45560163
 21
785627.1550745548
 31
17.320599786145742
100
AcDbText
 73
1
  0
CIRCLE
  5
9D
330
17
100
AcDbEntity
  8
B14
100
AcDbCircle
 10
571233.45560163
 20
785627.1550745548
 30
17.320599786145742
 40
0.25
  0
TEXT
  5
9E
330
17
100
AcDbEntity
  8
0
100
AcDbText
 10
571276.9106607635
 20
785619.3972605527
 30
18.578064149671388
 40
0.5
  1
15.633
 72
2
 11
571276.9106607635
 21
785619.3972605527
 31
18.578064149671388
100
AcDbText
 73
1
  0
CIRCLE
  5
9F
330
17
100
AcDbEntity
  8
B14
100
AcDbCircle
 10
571276.9106607635
 20
785619.3972605527
 30
18.578064149671388
 40
0.25
  0
LINE
  5
A0
330
17
100
AcDbEntity
  8
B14
100
AcDbLine
 10
571233.2732124766
 20
785624.8710591978
 30
17.28211106268599
 11
571276.9727797712
 21
785617.2624407875
 31
18.550459605903317
  0
TEXT
  5
A1
330
17
100
AcDbEntity
  8
B14
100
AcDbText
 10
571255.122996124
 20
785621.0667499927
 30
17.916285334294653
 40
0.5
  1
B14-505
 72
1
 11
571255.122996124
 21
785621.0667499927
 31
17.916285334294653
100
AcDbText
 73
2
  0
TEXT
  5
A2
330
17
100
AcDbEntity
  8
0
100
AcDbText
 10
571233.0270184402
 20
785624.9139245303
 30
17.274965457663583
 40
0.5
  1
14.330
 72
1
 11
571233.0270184402
 21
785624.9139245303
 31
17.274965457663583
100
AcDbText
 73
1
  0
CIRCLE
  5
A3
330
17
100
AcDbEntity
  8
B14
100
AcDbCircle
 10
571233.0270184402
 20
785624.9139245303
 30
17.274965457663583
 40
0.25
  0
TEXT
  5
A4
330
17
100
AcDbEntity
  8
0
100
AcDbText
 10
571276.4803916982
 20
785617.3481714523
 30
18.536168395858507
 40
0.5
  1
15.591
 72
2
 11
571276.4803916982
 21
785617.3481714523
 31
18.536168395858507
100
AcDbText
 73
1
  0
CIRCLE
  5
A5
330
17
100
AcDbEntity
  8
B14
100
AcDbCircle
 10
571276.4803916982
 20
785617.3481714523
 30
18.536168395858507
 40
0.25
  0
LINE
  5
A7
330
17
100
AcDbEntity
  8
B21
100
AcDbLine
 10
570911.2683981054
 20
785554.3617943431
 30
12.39091813316829
 11
570931.7751848878
 21
785579.5501353829
 31
14.339746740843124
  0
TEXT
  5
A8
330
17
100
AcDbEntity
  8
B21
100
AcDbText
 10
570921.5217914965
 20
785566.9559648631
 30
13.365332437005707
 40
0.5
  1
B21-201
 72
1
 11
570921.5217914965
 21
785566.9559648631
 31
13.365332437005707
100
AcDbText
 73
2
  0
TEXT
  5
A9
330
17
100
AcDbEntity
  8
0
100
AcDbText
 10
570911.5835101544
 20
785554.7488442423
 30
12.42086428623003
 40
0.5
  1
9.476
 11
570911.5835101544
 21
785554.7488442423
 31
12.42086428623003
100
AcDbText
 73
1
  0
CIRCLE
  5
AA
330
17
100
AcDbEntity
  8
B21
100
AcDbCircle
 10
570911.5835101544
 20
785554.7488442423
 30
12.42086428623003
 40
0.25
  0
TEXT
  5
AB
330
17
100
AcDbEntity
  8
0
100
AcDbText
 10
570931.4600728388
 20
785579.1630854837
 30
14.309800587781384
 40
0.5
  1
11.365
 72
2
 11
570931.4600728388
 21
785579.1630854837
 31
14.309800587781384
100
AcDbText
 73
2
  0
CIRCLE
  5
AC
330
17
100
AcDbEntity
  8
B21
100
AcDbCircle
 10
570931.4600728388
 20
785579.1630854837
 30
14.309800587781384
 40
0.25
  0
LINE
  5
AD
330
17
100
AcDbEntity
  8
B21
100
AcDbLine
 10
570912.9939124496
 20
785552.9570860508
 30
12.435422760033834
 11
570933.5006296235
 21
785578.1453345191
 31
14.38424393831051
  0
TEXT
  5
AE
330
17
100
AcDbEntity
  8
B21
100
AcDbText
 10
570923.2472710365
 20
785565.5512102849
 30
13.409833349172171
 40
0.5
  1
B21-202
 72
1
 11
570923.2472710365
 21
785565.5512102849
 31
13.409833349172171
100
AcDbText
 73
2
  0
TEXT
  5
AF
330
17
100
AcDbEntity
  8
0
100
AcDbText
 10
570913.3090245521
 20
785553.344135907
 30
12.46536890566627
 40
0.5
  1
9.520
 11
570913.3090245521
 21
785553.344135907
 31
12.46536890566627
100
AcDbText
 73
1
  0
CIRCLE
  5
B0
330
17
100
AcDbEntity
  8
B21
100
AcDbCircle
 10
570913.3090245521
 20
785553.344135907
 30
12.46536890566627
 40
0.25
  0
TEXT
  5
B1
330
17
100
AcDbEntity
  8
0
100
AcDbText
 10
570933.185517521
 20
785577.7582846629
 30
14.354297792678073
 40
0.5
  1
11.409
 72
2
 11
570933.185517521
 21
785577.7582846629
 31
14.354297792678073
100
AcDbText
 73
2
  0
CIRCLE
  5
B2
330
17
100
AcDbEntity
  8
B21
100
AcDbCircle
 10
570933.185517521
 20
785577.7582846629
 30
14.354297792678073
 40
0.25
  0
LINE
  5
B3
330
17
100
AcDbEntity
  8
B21
100
AcDbLine
 10
570914.7194267939
 20
785551.552377759
 30
12.479927250184444
 11
570935.2260743595
 21
785576.7405336556
 31
14.428741271921231
  0
TEXT
  5
B4
330
17
100
AcDbEntity
  8
B21
100
AcDbText
 10
570924.9727505767
 20
785564.1464557073
 30
13.454334261052837
 40
0.5
  1
B21-203
 72
1
 11
570924.9727505767
 21
785564.1464557073
 31
13.454334261052837
100
AcDbText
 73
2
  0
TEXT
  5
B5
330
17
100
AcDbEntity
  8
0
100
AcDbText
 10
570915.0345389497
 20
785551.9394275721
 30
12.509873392565416
 40
0.5
  1
9.565
 11
570915.0345389497
 21
785551.9394275721
 31
12.509873392565416
100
AcDbText
 73
1
  0
CIRCLE
  5
B6
330
17
100
AcDbEntity
  8
B21
100
AcDbCircle
 10
570915.0345389497
 20
785551.9394275721
 30
12.509873392565416
 40
0.25
  0
TEXT
  5
B7
330
17
100
AcDbEntity
  8
0
100
AcDbText
 10
570934.9109622036
 20
785576.3534838426
 30
14.39879512954026
 40
0.5
  1
11.454
 72
2
 11
570934.9109622036
 21
785576.3534838426
 31
14.39879512954026
100
AcDbText
 73
2
  0
CIRCLE
  5
B8
330
17
100
AcDbEntity
  8
B21
100
AcDbCircle
 10
570934.9109622036
 20
785576.3534838426
 30
14.39879512954026
 40
0.25
  0
LINE
  5
BA
330
17
100
AcDbEntity
  8
B23
100
AcDbLine
 10
571117.922862961
 20
785664.5710583347
 30
22.789193069167386
 11
571146.9675869191
 21
785658.4244044332
 31
22.352944858598487
  0
TEXT
  5
BB
330
17
100
AcDbEntity
  8
B23
100
AcDbText
 10
571132.4452249401
 20
785661.4977313839
 30
22.571068963882936
 40
0.5
  1
B23-206
 72
1
 11
571132.4452249401
 21
785661.4977313839
 31
22.571068963882936
100
AcDbText
 73
2
  0
TEXT
  5
BC
330
17
100
AcDbEntity
  8
0
100
AcDbText
 10
571118.4119762173
 20
785664.4675486608
 30
22.78184664772642
 40
0.5
  1
19.837
 11
571118.4119762173
 21
785664.4675486608
 31
22.78184664772642
100
AcDbText
 73
1
  0
CIRCLE
  5
BD
330
17
100
AcDbEntity
  8
B23
100
AcDbCircle
 10
571118.4119762173
 20
785664.4675486608
 30
22.78184664772642
 40
0.25
  0
LINE
  5
BE
330
17
100
AcDbEntity
  8
B23
100
AcDbLine
 10
571117.4621989222
 20
785662.3942685782
 30
22.833693035616477
 11
571146.5069229787
 21
785656.2476151414
 31
22.397444832319906
  0
TEXT
  5
BF
330
17
100
AcDbEntity
  8
B23
100
AcDbText
 10
571131.9845609504
 20
785659.3209418599
 30
22.61556893396819
 40
0.5
  1
B23-205
 72
1
 11
571131.9845609504
 21
785659.3209418599
 31
22.61556893396819
100
AcDbText
 73
2
  0
TEXT
  5
C0
330
17
100
AcDbEntity
  8
0
100
AcDbText
 10
571117.9513121801
 20
785662.2907589121
 30
22.826346614297957
 40
0.5
  1
19.881
 11
571117.9513121801
 21
785662.2907589121
 31
22.826346614297957
100
AcDbText
 73
1
  0
CIRCLE
  5
C1
330
17
100
AcDbEntity
  8
B23
100
AcDbCircle
 10
571117.9513121801
 20
785662.2907589121
 30
22.826346614297957
 40
0.25
  0
LINE
  5
C2
330
17
100
AcDbEntity
  8
B23
100
AcDbLine
 10
571117.0015348834
 20
785660.2174788216
 30
22.878192935215434
 11
571146.0462590383
 21
785654.0708258499
 31
22.44194492318894
  0
TEXT
  5
C3
330
17
100
AcDbEntity
  8
B23
100
AcDbText
 10
571131.5238969608
 20
785657.1441523357
 30
22.66006892920219
 40
0.5
  1
B23-204
 72
1
 11
571131.5238969608
 21
785657.1441523357
 31
22.66006892920219
100
AcDbText
 73
2
  0
TEXT
  5
C4
330
17
100
AcDbEntity
  8
0
100
AcDbText
 10
571117.4906481431
 20
785660.1139691634
 30
22.8708465171172
 40
0.5
  1
19.926
 11
571117.4906481431
 21
785660.1139691634
 31
22.8708465171172
100
AcDbText
 73
1
  0
CIRCLE
  5
C5
330
17
100
AcDbEntity
  8
B23
100
AcDbCircle
 10
571117.4906481431
 20
785660.1139691634
 30
22.8708465171172
 40
0.25
  0
LINE
  5
C6
330
17
100
AcDbEntity
  8
B23
100
AcDbLine
 10
571147.4567529786
 20
785658.3208835843
 30
22.345597686946718
 11
571190.9925322883
 21
785649.107528066
 31
21.6916957102193
  0
TEXT
  5
C7
330
17
100
AcDbEntity
  8
B23
100
AcDbText
 10
571169.2246426335
 20
785653.7142058252
 30
22.01864669858301
 40
0.5
  1
B23-209
 72
1
 11
571169.2246426335
 21
785653.7142058252
 31
22.01864669858301
100
AcDbText
 73
2
  0
TEXT
  5
C8
330
17
100
AcDbEntity
  8
0
100
AcDbText
 10
571147.2121963504
 20
785658.3726384212
 30
22.349270897007855
 40
0.5
  1
19.404
 72
1
 11
571147.2121963504
 21
785658.3726384212
 31
22.349270897007855
100
AcDbText
 73
1
  0
CIRCLE
  5
C9
330
17
100
AcDbEntity
  8
B23
100
AcDbCircle
 10
571147.2121963504
 20
785658.3726384212
 30
22.349270897007855
 40
0.25
  0
LINE
  5
CA
330
17
100
AcDbEntity
  8
B23
100
AcDbLine
 10
571146.9960890401
 20
785656.1440943005
 30
22.39009766048898
 11
571190.5318684971
 21
785646.9307394793
 31
21.736195669552604
  0
TEXT
  5
CB
330
17
100
AcDbEntity
  8
B23
100
AcDbText
 10
571168.7639787686
 20
785651.5374168898
 30
22.063146665020792
 40
0.5
  1
B23-208
 72
1
 11
571168.7639787686
 21
785651.5374168898
 31
22.063146665020792
100
AcDbText
 73
2
  0
TEXT
  5
CC
330
17
100
AcDbEntity
  8
0
100
AcDbText
 10
571146.7515324111
 20
785656.1958491335
 30
22.39377087062993
 40
0.5
  1
19.449
 72
1
 11
571146.7515324111
 21
785656.1958491335
 31
22.39377087062993
100
AcDbText
 73
1
  0
CIRCLE
  5
CD
330
17
100
AcDbEntity
  8
B23
100
AcDbCircle
 10
571146.7515324111
 20
785656.1958491335
 30
22.39377087062993
 40
0.25
  0
LINE
  5
CE
330
17
100
AcDbEntity
  8
B23
100
AcDbLine
 10
571146.5354251013
 20
785653.967305017
 30
22.43459765082079
 11
571190.071204706
 21
785644.7539508924
 31
21.78069564564476
  0
TEXT
  5
CF
330
17
100
AcDbEntity
  8
B23
100
AcDbText
 10
571168.3033149036
 20
785649.3606279547
 30
22.107646648232777
 40
0.5
  1
B23-207
 72
1
 11
571168.3033149036
 21
785649.3606279547
 31
22.107646648232777
100
AcDbText
 73
2
  0
TEXT
  5
D0
330
17
100
AcDbEntity
  8
0
100
AcDbText
 10
571146.2908684715
 20
785654.0190598462
 30
22.438270861041694
 40
0.5
  1
19.493
 72
1
 11
571146.2908684715
 21
785654.0190598462
 31
22.438270861041694
100
AcDbText
 73
1
  0
CIRCLE
  5
D1
330
17
100
AcDbEntity
  8
B23
100
AcDbCircle
 10
571146.2908684715
 20
785654.0190598462
 30
22.438270861041694
 40
0.25
  0
LINE
  5
D2
330
17
100
AcDbEntity
  8
B23
100
AcDbLine
 10
571191.4816983481
 20
785649.0040072174
 30
21.684348438182518
 11
571235.5940534775
 21
785639.668632567
 31
21.021786364564377
  0
TEXT
  5
D3
330
17
100
AcDbEntity
  8
B23
100
AcDbText
 10
571213.5378759129
 20
785644.3363198922
 30
21.353067401373448
 40
0.5
  1
B23-212
 72
1
 11
571213.5378759129
 21
785644.3363198922
 31
21.353067401373448
100
AcDbText
 73
2
  0
TEXT
  5
D4
330
17
100
AcDbEntity
  8
0
100
AcDbText
 10
571191.2371417199
 20
785649.0557620543
 30
21.688021648243502
 40
0.5
  1
18.743
 72
1
 11
571191.2371417199
 21
785649.0557620543
 31
21.688021648243502
100
AcDbText
 73
1
  0
CIRCLE
  5
D5
330
17
100
AcDbEntity
  8
B23
100
AcDbCircle
 10
571191.2371417199
 20
785649.0557620543
 30
21.688021648243502
 40
0.25
  0
LINE
  5
D6
330
17
100
AcDbEntity
  8
B23
100
AcDbLine
 10
571191.0210345585
 20
785646.8272186386
 30
21.72884848087598
 11
571235.1760364837
 21
785637.4828195042
 31
21.065645687565514
  0
TEXT
  5
D7
330
17
100
AcDbEntity
  8
B23
100
AcDbText
 10
571213.0985355212
 20
785642.1550190714
 30
21.397247084220744
 40
0.5
  1
B23-211
 72
1
 11
571213.0985355212
 21
785642.1550190714
 31
21.397247084220744
100
AcDbText
 73
2
  0
TEXT
  5
D8
330
17
100
AcDbEntity
  8
0
100
AcDbText
 10
571190.7764779296
 20
785646.8789734717
 30
21.73252169189152
 40
0.5
  1
18.788
 72
1
 11
571190.7764779296
 21
785646.8789734717
 31
21.73252169189152
100
AcDbText
 73
1
  0
CIRCLE
  5
D9
330
17
100
AcDbEntity
  8
B23
100
AcDbCircle
 10
571190.7764779296
 20
785646.8789734717
 30
21.73252169189152
 40
0.25
  0
LINE
  5
DA
330
17
100
AcDbEntity
  8
B23
100
AcDbLine
 10
571190.560370769
 20
785644.6504300595
 30
21.773348456808737
 11
571234.75801949
 21
785635.2970064424
 31
21.10950501885677
  0
TEXT
  5
DB
330
17
100
AcDbEntity
  8
B23
100
AcDbText
 10
571212.6591951295
 20
785639.973718251
 30
21.441426737832753
 40
0.5
  1
B23-210
 72
1
 11
571212.6591951295
 21
785639.973718251
 31
21.441426737832753
100
AcDbText
 73
2
  0
TEXT
  5
DC
330
17
100
AcDbEntity
  8
0
100
AcDbText
 10
571190.3158141392
 20
785644.7021848887
 30
21.777021668361826
 40
0.5
  1
18.832
 72
1
 11
571190.3158141392
 21
785644.7021848887
 31
21.777021668361826
100
AcDbText
 73
1
  0
CIRCLE
  5
DD
330
17
100
AcDbEntity
  8
B23
100
AcDbCircle
 10
571190.3158141392
 20
785644.7021848887
 30
21.777021668361826
 40
0.25
  0
LINE
  5
DE
330
17
100
AcDbEntity
  8
B23
100
AcDbLine
 10
571236.0833134229
 20
785639.5650918497
 30
21.014437987466867
 11
571279.7173739182
 21
785630.3309373581
 31
20.408023808031935
  0
TEXT
  5
DF
330
17
100
AcDbEntity
  8
B23
100
AcDbText
 10
571257.9003436705
 20
785634.9480146039
 30
20.711230897749402
 40
0.5
  1
B23-215
 72
1
 11
571257.9003436705
 21
785634.9480146039
 31
20.711230897749402
100
AcDbText
 73
2
  0
TEXT
  5
E0
330
17
100
AcDbEntity
  8
0
100
AcDbText
 10
571235.8387529976
 20
785639.6168474902
 30
21.017836821036894
 40
0.5
  1
18.073
 72
1
 11
571235.8387529976
 21
785639.6168474902
 31
21.017836821036894
100
AcDbText
 73
1
  0
CIRCLE
  5
E1
330
17
100
AcDbEntity
  8
B23
100
AcDbCircle
 10
571235.8387529976
 20
785639.6168474902
 30
21.017836821036894
 40
0.25
  0
TEXT
  5
E2
330
17
100
AcDbEntity
  8
0
100
AcDbText
 10
571279.2282530676
 20
785630.4344486392
 30
20.41482147517199
 40
0.5
  1
17.470
 72
2
 11
571279.2282530676
 21
785630.4344486392
 31
20.41482147517199
100
AcDbText
 73
1
  0
CIRCLE
  5
E3
330
17
100
AcDbEntity
  8
B23
100
AcDbCircle
 10
571279.2282530676
 20
785630.4344486392
 30
20.41482147517199
 40
0.25
  0
LINE
  5
E4
330
17
100
AcDbEntity
  8
B23
100
AcDbLine
 10
571235.6652964306
 20
785637.3792787947
 30
21.058297247611247
 11
571279.2600645805
 21
785628.1534403618
 31
20.452494333922925
  0
TEXT
  5
E5
330
17
100
AcDbEntity
  8
B23
100
AcDbText
 10
571257.4626805055
 20
785632.7663595784
 30
20.755395790767086
 40
0.5
  1
B23-214
 72
1
 11
571257.4626805055
 21
785632.7663595784
 31
20.755395790767086
100
AcDbText
 73
2
  0
TEXT
  5
E6
330
17
100
AcDbEntity
  8
0
100
AcDbText
 10
571235.4207359996
 20
785637.4310344324
 30
21.061695715545195
 40
0.5
  1
18.117
 72
1
 11
571235.4207359996
 21
785637.4310344324
 31
21.061695715545195
100
AcDbText
 73
1
  0
CIRCLE
  5
E7
330
17
100
AcDbEntity
  8
B23
100
AcDbCircle
 10
571235.4207359996
 20
785637.4310344324
 30
21.061695715545195
 40
0.25
  0
TEXT
  5
E8
330
17
100
AcDbEntity
  8
0
100
AcDbText
 10
571278.7709437186
 20
785628.2569516371
 30
20.459291269790825
 40
0.5
  1
17.514
 72
2
 11
571278.7709437186
 21
785628.2569516371
 31
20.459291269790825
100
AcDbText
 73
1
  0
CIRCLE
  5
E9
330
17
100
AcDbEntity
  8
B23
100
AcDbCircle
 10
571278.7709437186
 20
785628.2569516371
 30
20.459291269790825
 40
0.25
  0
LINE
  5
EA
330
17
100
AcDbEntity
  8
B23
100
AcDbLine
 10
571235.2472794385
 20
785635.193465741
 30
21.102156641508518
 11
571278.8027552428
 21
785625.9759433653
 31
20.49696494244912
  0
TEXT
  5
EB
330
17
100
AcDbEntity
  8
B23
100
AcDbText
 10
571257.0250173407
 20
785630.5847045531
 30
20.79956079197882
 40
0.5
  1
B23-213
 72
1
 11
571257.0250173407
 21
785630.5847045531
 31
20.79956079197882
100
AcDbText
 73
2
  0
TEXT
  5
EC
330
17
100
AcDbEntity
  8
0
100
AcDbText
 10
571235.0027190018
 20
785635.2452213757
 30
21.10555474343363
 40
0.5
  1
18.161
 72
1
 11
571235.0027190018
 21
785635.2452213757
 31
21.10555474343363
100
AcDbText
 73
1
  0
CIRCLE
  5
ED
330
17
100
AcDbEntity
  8
B23
100
AcDbCircle
 10
571235.0027190018
 20
785635.2452213757
 30
21.10555474343363
 40
0.25
  0
TEXT
  5
EE
330
17
100
AcDbEntity
  8
0
100
AcDbText
 10
571278.3136343695
 20
785626.0794546348
 30
20.503761146299347
 40
0.5
  1
17.559
 72
2
 11
571278.3136343695
 21
785626.0794546348
 31
20.503761146299347
100
AcDbText
 73
1
  0
CIRCLE
  5
EF
330
17
100
AcDbEntity
  8
B23
100
AcDbCircle
 10
571278.3136343695
 20
785626.0794546348
 30
20.503761146299347
 40
0.25
  0
LINE
  5
F1
330
17
100
AcDbEntity
  8
B31
100
AcDbLine
 10
571098.324004283
 20
785782.2145027231
 30
11.693558313458364
 11
571121.9607532921
 21
785811.4114451938
 31
10.289115523016184
  0
TEXT
  5
F2
330
17
100
AcDbEntity
  8
B31
100
AcDbText
 10
571110.1423787875
 20
785796.8129739584
 30
10.991336918237273
 40
0.5
  1
B31-303
 72
1
 11
571110.1423787875
 21
785796.8129739584
 31
10.991336918237273
100
AcDbText
 73
2
  0
TEXT
  5
F3
330
17
100
AcDbEntity
  8
0
100
AcDbText
 10
571098.6383928313
 20
785782.6028464991
 30
11.674878048669981
 40
0.5
  1
8.730
 11
571098.6383928313
 21
785782.6028464991
 31
11.674878048669981
100
AcDbText
 73
1
  0
CIRCLE
  5
F4
330
17
100
AcDbEntity
  8
B31
100
AcDbCircle
 10
571098.6383928313
 20
785782.6028464991
 30
11.674878048669981
 40
0.25
  0
TEXT
  5
F5
330
17
100
AcDbEntity
  8
0
100
AcDbText
 10
571121.6463647437
 20
785811.0231014178
 30
10.307795787804567
 40
0.5
  1
7.363
 72
2
 11
571121.6463647437
 21
785811.0231014178
 31
10.307795787804567
100
AcDbText
 73
2
  0
CIRCLE
  5
F6
330
17
100
AcDbEntity
  8
B31
100
AcDbCircle
 10
571121.6463647437
 20
785811.0231014178
 30
10.307795787804567
 40
0.25
  0
LINE
  5
F7
330
17
100
AcDbEntity
  8
B31
100
AcDbLine
 10
571096.5573347063
 20
785783.6284442656
 30
11.670700383407677
 11
571120.2352978098
 21
785812.8162350769
 31
10.244614446147638
  0
TEXT
  5
F8
330
17
100
AcDbEntity
  8
B31
100
AcDbText
 10
571108.396316258
 20
785798.2223396712
 30
10.957657414777659
 40
0.5
  1
B31-302
 72
1
 11
571108.396316258
 21
785798.2223396712
 31
10.957657414777659
100
AcDbText
 73
2
  0
TEXT
  5
F9
330
17
100
AcDbEntity
  8
0
100
AcDbText
 10
571096.8721069825
 20
785784.0164635944
 30
11.65174215145965
 40
0.5
  1
8.707
 11
571096.8721069825
 21
785784.0164635944
 31
11.65174215145965
100
AcDbText
 73
1
  0
CIRCLE
  5
FA
330
17
100
AcDbEntity
  8
B31
100
AcDbCircle
 10
571096.8721069825
 20
785784.0164635944
 30
11.65174215145965
 40
0.25
  0
TEXT
  5
FB
330
17
100
AcDbEntity
  8
0
100
AcDbText
 10
571119.9205255336
 20
785812.428215748
 30
10.263572678095665
 40
0.5
  1
7.319
 72
2
 11
571119.9205255336
 21
785812.428215748
 31
10.263572678095665
100
AcDbText
 73
2
  0
CIRCLE
  5
FC
330
17
100
AcDbEntity
  8
B31
100
AcDbCircle
 10
571119.9205255336
 20
785812.428215748
 30
10.263572678095665
 40
0.25
  0
LINE
  5
FD
330
17
100
AcDbEntity
  8
B31
100
AcDbLine
 10
571094.7873306179
 20
785785.0450545604
 30
11.64780535165945
 11
571118.509844501
 21
785814.2210231903
 31
10.200113282835265
  0
TEXT
  5
FE
330
17
100
AcDbEntity
  8
B31
100
AcDbText
 10
571106.6485875595
 20
785799.6330388754
 30
10.923959317247357
 40
0.5
  1
B31-301
 72
1
 11
571106.6485875595
 21
785799.6330388754
 31
10.923959317247357
100
AcDbText
 73
2
  0
TEXT
  5
FF
330
17
100
AcDbEntity
  8
0
100
AcDbText
 10
571095.1025298787
 20
785785.432713465
 30
11.628569975837515
 40
0.5
  1
8.684
 11
571095.1025298787
 21
785785.432713465
 31
11.628569975837515
100
AcDbText
 73
1
  0
CIRCLE
  5
100
330
17
100
AcDbEntity
  8
B31
100
AcDbCircle
 10
571095.1025298787
 20
785785.432713465
 30
11.628569975837515
 40
0.25
  0
TEXT
  5
101
330
17
100
AcDbEntity
  8
0
100
AcDbText
 10
571118.1946452402
 20
785813.8333642858
 30
10.2193486586572
 40
0.5
  1
7.274
 72
2
 11
571118.1946452402
 21
785813.8333642858
 31
10.2193486586572
100
AcDbText
 73
2
  0
CIRCLE
  5
102
330
17
100
AcDbEntity
  8
B31
100
AcDbCircle
 10
571118.1946452402
 20
785813.8333642858
 30
10.2193486586572
 40
0.25
  0
LINE
  5
104
330
17
100
AcDbEntity
  8
B42
100
AcDbLine
 10
571151.9226593571
 20
785675.3174117752
 30
19.601816126743007
 11
571194.7178084458
 21
785663.2750944454
 31
20.57578168113196
  0
TEXT
  5
105
330
17
100
AcDbEntity
  8
B42
100
AcDbText
 10
571173.3202339015
 20
785669.2962531103
 30
20.088798903937484
 40
0.5
  1
B42-403
 72
1
 11
571173.3202339015
 21
785669.2962531103
 31
20.088798903937484
100
AcDbText
 73
2
  0
TEXT
  5
106
330
17
100
AcDbEntity
  8
0
100
AcDbText
 10
571152.4038512406
 20
785675.1820070511
 30
19.612767468883252
 40
0.5
  1
16.668
 11
571152.4038512406
 21
785675.1820070511
 31
19.612767468883252
100
AcDbText
 73
1
  0
CIRCLE
  5
107
330
17
100
AcDbEntity
  8
B42
100
AcDbCircle
 10
571152.4038512406
 20
785675.1820070511
 30
19.612767468883252
 40
0.25
  0
LINE
  5
108
330
17
100
AcDbEntity
  8
B42
100
AcDbLine
 10
571151.249387965
 20
785673.0877256463
 30
19.66615193860794
 11
571194.1015098272
 21
785661.0666688196
 31
20.62163812612658
  0
TEXT
  5
109
330
17
100
AcDbEntity
  8
B42
100
AcDbText
 10
571172.6754488961
 20
785667.077197233
 30
20.143895032367258
 40
0.5
  1
B42-402
 72
1
 11
571172.6754488961
 21
785667.077197233
 31
20.143895032367258
100
AcDbText
 73
2
  0
TEXT
  5
10A
330
17
100
AcDbEntity
  8
0
100
AcDbText
 10
571151.7306934918
 20
785672.9527078026
 30
19.676883747510193
 40
0.5
  1
16.732
 11
571151.7306934918
 21
785672.9527078026
 31
19.676883747510193
100
AcDbText
 73
1
  0
CIRCLE
  5
10B
330
17
100
AcDbEntity
  8
B42
100
AcDbCircle
 10
571151.7306934918
 20
785672.9527078026
 30
19.676883747510193
 40
0.25
  0
LINE
  5
10C
330
17
100
AcDbEntity
  8
B42
100
AcDbLine
 10
571150.576116573
 20
785670.8580395175
 30
19.730494230476392
 11
571193.4852047655
 21
785658.8582201055
 31
20.66749540646129
  0
TEXT
  5
10D
330
17
100
AcDbEntity
  8
B42
100
AcDbText
 10
571172.0306606692
 20
785664.8581298115
 30
20.19899481846884
 40
0.5
  1
B42-401
 72
1
 11
571172.0306606692
 21
785664.8581298115
 31
20.19899481846884
100
AcDbText
 73
2
  0
TEXT
  5
10E
330
17
100
AcDbEntity
  8
0
100
AcDbText
 10
571151.0575350191
 20
785670.7234075629
 30
19.74100691366714
 40
0.5
  1
16.796
 11
571151.0575350191
 21
785670.7234075629
 31
19.74100691366714
100
AcDbText
 73
1
  0
CIRCLE
  5
10F
330
17
100
AcDbEntity
  8
B42
100
AcDbCircle
 10
571151.0575350191
 20
785670.7234075629
 30
19.74100691366714
 40
0.25
  0
LINE
  5
110
330
17
100
AcDbEntity
  8
B42
100
AcDbLine
 10
571195.1991169121
 20
785663.1396569158
 30
20.582400522493607
 11
571238.0355704123
 21
785651.0857167538
 31
20.796365901129843
  0
TEXT
  5
111
330
17
100
AcDbEntity
  8
B42
100
AcDbText
 10
571216.6173436622
 20
785657.1126868349
 30
20.689383211811723
 40
0.5
  1
B42-406
 72
1
 11
571216.6173436622
 21
785657.1126868349
 31
20.689383211811723
100
AcDbText
 73
2
  0
TEXT
  5
112
330
17
100
AcDbEntity
  8
0
100
AcDbText
 10
571194.9584660211
 20
785663.2073747403
 30
20.581198486498298
 40
0.5
  1
17.636
 72
1
 11
571194.9584660211
 21
785663.2073747403
 31
20.581198486498298
100
AcDbText
 73
1
  0
CIRCLE
  5
113
330
17
100
AcDbEntity
  8
B42
100
AcDbCircle
 10
571194.9584660211
 20
785663.2073747403
 30
20.581198486498298
 40
0.25
  0
LINE
  5
114
330
17
100
AcDbEntity
  8
B42
100
AcDbLine
 10
571194.5829266974
 20
785660.931619742
 30
20.628248897535066
 11
571237.4290281575
 21
785648.9122517839
 31
20.841496022636772
  0
TEXT
  5
115
330
17
100
AcDbEntity
  8
B42
100
AcDbText
 10
571216.0059774275
 20
785654.921935763
 30
20.734872460085917
 40
0.5
  1
B42-405
 72
1
 11
571216.0059774275
 21
785654.921935763
 31
20.734872460085917
100
AcDbText
 73
2
  0
TEXT
  5
116
330
17
100
AcDbEntity
  8
0
100
AcDbText
 10
571194.3422212459
 20
785660.9991434441
 30
20.62705089482758
 40
0.5
  1
17.682
 72
1
 11
571194.3422212459
 21
785660.9991434441
 31
20.62705089482758
100
AcDbText
 73
1
  0
CIRCLE
  5
117
330
17
100
AcDbEntity
  8
B42
100
AcDbCircle
 10
571194.3422212459
 20
785660.9991434441
 30
20.62705089482758
 40
0.25
  0
LINE
  5
118
330
17
100
AcDbEntity
  8
B42
100
AcDbLine
 10
571193.9667297283
 20
785658.7235583629
 30
20.674098113999502
 11
571236.822451422
 21
785646.7386632565
 31
20.88662876247185
  0
TEXT
  5
119
330
17
100
AcDbEntity
  8
B42
100
AcDbText
 10
571215.3945905751
 20
785652.7311108097
 30
20.780363438235675
 40
0.5
  1
B42-404
 72
1
 11
571215.3945905751
 21
785652.7311108097
 31
20.780363438235675
100
AcDbText
 73
2
  0
TEXT
  5
11A
330
17
100
AcDbEntity
  8
0
100
AcDbText
 10
571193.7259700287
 20
785658.7908884564
 30
20.672904135388183
 40
0.5
  1
17.728
 72
1
 11
571193.7259700287
 21
785658.7908884564
 31
20.672904135388183
100
AcDbText
 73
1
  0
CIRCLE
  5
11B
330
17
100
AcDbEntity
  8
B42
100
AcDbCircle
 10
571193.7259700287
 20
785658.7908884564
 30
20.672904135388183
 40
0.25
  0
LINE
  5
11C
330
17
100
AcDbEntity
  8
B42
100
AcDbLine
 10
571238.5168788786
 20
785650.9502792238
 30
20.794555273292907
 11
571281.5071553002
 21
785638.8530541463
 31
20.34560299051879
  0
TEXT
  5
11D
330
17
100
AcDbEntity
  8
B42
100
AcDbText
 10
571260.0120170894
 20
785644.901666685
 30
20.57007913190585
 40
0.5
  1
B42-409
 72
1
 11
571260.0120170894
 21
785644.901666685
 31
20.57007913190585
100
AcDbText
 73
2
  0
TEXT
  5
11E
330
17
100
AcDbEntity
  8
0
100
AcDbText
 10
571238.2762373647
 20
785651.0179944097
 30
20.79706831963695
 40
0.5
  1
17.852
 72
1
 11
571238.2762373647
 21
785651.0179944097
 31
20.79706831963695
100
AcDbText
 73
1
  0
CIRCLE
  5
11F
330
17
100
AcDbEntity
  8
B42
100
AcDbCircle
 10
571238.2762373647
 20
785651.0179944097
 30
20.79706831963695
 40
0.25
  0
TEXT
  5
120
330
17
100
AcDbEntity
  8
0
100
AcDbText
 10
571281.0258722724
 20
785638.9884845179
 30
20.350629083206872
 40
0.5
  1
17.406
 72
2
 11
571281.0258722724
 21
785638.9884845179
 31
20.350629083206872
100
AcDbText
 73
1
  0
CIRCLE
  5
121
330
17
100
AcDbEntity
  8
B42
100
AcDbCircle
 10
571281.0258722724
 20
785638.9884845179
 30
20.350629083206872
 40
0.25
  0
LINE
  5
122
330
17
100
AcDbEntity
  8
B42
100
AcDbLine
 10
571237.9104450278
 20
785648.7772027056
 30
20.83967734420149
 11
571281.0498459628
 21
785636.6755571496
 31
20.388740979825396
  0
TEXT
  5
123
330
17
100
AcDbEntity
  8
B42
100
AcDbText
 10
571259.4801454953
 20
785642.7263799276
 30
20.614209162013445
 40
0.5
  1
B42-408
 72
1
 11
571259.4801454953
 21
785642.7263799276
 31
20.614209162013445
100
AcDbText
 73
2
  0
TEXT
  5
124
330
17
100
AcDbEntity
  8
0
100
AcDbText
 10
571237.6697490027
 20
785648.8447237634
 30
20.84219334090388
 40
0.5
  1
17.897
 72
1
 11
571237.6697490027
 21
785648.8447237634
 31
20.84219334090388
100
AcDbText
 73
1
  0
CIRCLE
  5
125
330
17
100
AcDbEntity
  8
B42
100
AcDbCircle
 10
571237.6697490027
 20
785648.8447237634
 30
20.84219334090388
 40
0.25
  0
TEXT
  5
126
330
17
100
AcDbEntity
  8
0
100
AcDbText
 10
571280.5684539125
 20
785636.8105992652
 30
20.393772973230178
 40
0.5
  1
17.449
 72
2
 11
571280.5684539125
 21
785636.8105992652
 31
20.393772973230178
100
AcDbText
 73
1
  0
CIRCLE
  5
127
330
17
100
AcDbEntity
  8
B42
100
AcDbCircle
 10
571280.5684539125
 20
785636.8105992652
 30
20.393772973230178
 40
0.25
  0
LINE
  5
128
330
17
100
AcDbEntity
  8
B42
100
AcDbLine
 10
571237.3039763848
 20
785646.6040015138
 30
20.884802017737165
 11
571280.5925366251
 21
785634.4980601534
 31
20.431886897256206
  0
TEXT
  5
129
330
17
100
AcDbEntity
  8
B42
100
AcDbText
 10
571258.948256505
 20
785640.5510308336
 30
20.658344457496685
 40
0.5
  1
B42-407
 72
1
 11
571258.948256505
 21
785640.5510308336
 31
20.658344457496685
100
AcDbText
 73
2
  0
TEXT
  5
12A
330
17
100
AcDbEntity
  8
0
100
AcDbText
 10
571237.0632261605
 20
785646.6713289574
 30
20.887320914559723
 40
0.5
  1
17.942
 72
1
 11
571237.0632261605
 21
785646.6713289574
 31
20.887320914559723
100
AcDbText
 73
1
  0
CIRCLE
  5
12B
330
17
100
AcDbEntity
  8
B42
100
AcDbCircle
 10
571237.0632261605
 20
785646.6713289574
 30
20.887320914559723
 40
0.25
  0
TEXT
  5
12C
330
17
100
AcDbEntity
  8
0
100
AcDbText
 10
571280.1110361766
 20
785634.6327150406
 30
20.436924690901318
 40
0.5
  1
17.492
 72
2
 11
571280.1110361766
 21
785634.6327150406
 31
20.436924690901318
100
AcDbText
 73
1
  0
CIRCLE
  5
12D
330
17
100
AcDbEntity
  8
B42
100
AcDbCircle
 10
571280.1110361766
 20
785634.6327150406
 30
20.436924690901318
 40
0.25
  0
LINE
  5
12F
330
17
100
AcDbEntity
  8
B51
100
AcDbLine
 10
571278.7713631421
 20
785623.2964524735
 30
18.690550640347496
 11
571317.1921781531
 21
785614.261533016
 31
19.791049410052096
  0
TEXT
  5
130
330
17
100
AcDbEntity
  8
B51
100
AcDbText
 10
571297.9817706476
 20
785618.7789927447
 30
19.240800025199796
 40
0.5
  1
B51-512
 72
1
 11
571297.9817706476
 21
785618.7789927447
 31
19.240800025199796
100
AcDbText
 73
2
  0
TEXT
  5
131
330
17
100
AcDbEntity
  8
0
100
AcDbText
 10
571279.2578975226
 20
785623.1820405605
 30
18.70448658853437
 40
0.5
  1
15.759
 11
571279.2578975226
 21
785623.1820405605
 31
18.70448658853437
100
AcDbText
 73
1
  0
CIRCLE
  5
132
330
17
100
AcDbEntity
  8
B51
100
AcDbCircle
 10
571279.2578975226
 20
785623.1820405605
 30
18.70448658853437
 40
0.25
  0
LINE
  5
133
330
17
100
AcDbEntity
  8
B51
100
AcDbLine
 10
571278.3414698074
 20
785621.2494978908
 30
18.64872162317743
 11
571316.7297924513
 21
785612.2222404571
 31
19.749221835849408
  0
TEXT
  5
134
330
17
100
AcDbEntity
  8
B51
100
AcDbText
 10
571297.5356311293
 20
785616.7358691739
 30
19.198971729513417
 40
0.5
  1
B51-511
 72
1
 11
571297.5356311293
 21
785616.7358691739
 31
19.198971729513417
100
AcDbText
 73
2
  0
TEXT
  5
135
330
17
100
AcDbEntity
  8
0
100
AcDbText
 10
571278.8280039274
 20
785621.1350863081
 30
18.662669377744766
 40
0.5
  1
15.718
 11
571278.8280039274
 21
785621.1350863081
 31
18.662669377744766
100
AcDbText
 73
1
  0
CIRCLE
  5
136
330
17
100
AcDbEntity
  8
B51
100
AcDbCircle
 10
571278.8280039274
 20
785621.1350863081
 30
18.662669377744766
 40
0.25
  0
LINE
  5
137
330
17
100
AcDbEntity
  8
B51
100
AcDbLine
 10
571277.9115764729
 20
785619.202543308
 30
18.60689244987837
 11
571316.2674067498
 21
785610.1829478986
 31
19.707394221363675
  0
TEXT
  5
138
330
17
100
AcDbEntity
  8
B51
100
AcDbText
 10
571297.0894916113
 20
785614.6927456034
 30
19.157143335621022
 40
0.5
  1
B51-510
 72
1
 11
571297.0894916113
 21
785614.6927456034
 31
19.157143335621022
100
AcDbText
 73
2
  0
TEXT
  5
139
330
17
100
AcDbEntity
  8
0
100
AcDbText
 10
571278.3981103315
 20
785619.0881320562
 30
18.620852032277043
 40
0.5
  1
15.676
 11
571278.3981103315
 21
785619.0881320562
 31
18.620852032277043
100
AcDbText
 73
1
  0
CIRCLE
  5
13A
330
17
100
AcDbEntity
  8
B51
100
AcDbCircle
 10
571278.3981103315
 20
785619.0881320562
 30
18.620852032277043
 40
0.25
  0
LINE
  5
13B
330
17
100
AcDbEntity
  8
B51
100
AcDbLine
 10
571277.4816831386
 20
785617.1555887252
 30
18.565064213910752
 11
571315.8050210483
 21
785608.1436553394
 31
19.66556586851933
  0
TEXT
  5
13C
330
17
100
AcDbEntity
  8
B51
100
AcDbText
 10
571296.6433520935
 20
785612.6496220323
 30
19.11531504121504
 40
0.5
  1
B51-509
 72
1
 11
571296.6433520935
 21
785612.6496220323
 31
19.11531504121504
100
AcDbText
 73
2
  0
TEXT
  5
13D
330
17
100
AcDbEntity
  8
0
100
AcDbText
 10
571277.9682167356
 20
785617.0411778047
 30
18.5790356229195
 40
0.5
  1
15.634
 11
571277.9682167356
 21
785617.0411778047
 31
18.5790356229195
100
AcDbText
 73
1
  0
CIRCLE
  5
13E
330
17
100
AcDbEntity
  8
B51
100
AcDbCircle
 10
571277.9682167356
 20
785617.0411778047
 30
18.5790356229195
 40
0.25
  0
LINE
  5
13F
330
17
100
AcDbEntity
  8
B51
100
AcDbLine
 10
571317.6789171698
 20
785614.1470729816
 30
19.805417835841155
 11
571356.0995574881
 21
785605.1121946042
 31
20.985417064639996
  0
TEXT
  5
140
330
17
100
AcDbEntity
  8
B51
100
AcDbText
 10
571336.8892373289
 20
785609.6296337929
 30
20.395417450240576
 40
0.5
  1
B51-516
 72
1
 11
571336.8892373289
 21
785609.6296337929
 31
20.395417450240576
100
AcDbText
 73
2
  0
TEXT
  5
141
330
17
100
AcDbEntity
  8
0
100
AcDbText
 10
571317.4356641243
 20
785614.2042756118
 30
19.797946893044962
 40
0.5
  1
16.853
 72
1
 11
571317.4356641243
 21
785614.2042756118
 31
19.797946893044962
100
AcDbText
 73
1
  0
CIRCLE
  5
142
330
17
100
AcDbEntity
  8
B51
100
AcDbCircle
 10
571317.4356641243
 20
785614.2042756118
 30
19.797946893044962
 40
0.25
  0
LINE
  5
143
330
17
100
AcDbEntity
  8
B51
100
AcDbLine
 10
571317.2165315261
 20
785612.107780678
 30
19.76360209546617
 11
571355.6046454868
 21
785603.0805723178
 31
20.94359033778219
  0
TEXT
  5
144
330
17
100
AcDbEntity
  8
B51
100
AcDbText
 10
571336.4105885064
 20
785607.5941764979
 30
20.35359621662418
 40
0.5
  1
B51-515
 72
1
 11
571336.4105885064
 21
785607.5941764979
 31
20.35359621662418
100
AcDbText
 73
2
  0
TEXT
  5
145
330
17
100
AcDbEntity
  8
0
100
AcDbText
 10
571316.9732786329
 20
785612.164983138
 30
19.75612489681452
 40
0.5
  1
16.811
 72
1
 11
571316.9732786329
 21
785612.164983138
 31
19.75612489681452
100
AcDbText
 73
1
  0
CIRCLE
  5
146
330
17
100
AcDbEntity
  8
B51
100
AcDbCircle
 10
571316.9732786329
 20
785612.164983138
 30
19.75612489681452
 40
0.25
  0
LINE
  5
147
330
17
100
AcDbEntity
  8
B51
100
AcDbLine
 10
571316.7541458824
 20
785610.0684883753
 30
19.721786270274343
 11
571355.1097334852
 21
785601.0489500319
 31
20.901763725095382
  0
TEXT
  5
148
330
17
100
AcDbEntity
  8
B51
100
AcDbText
 10
571335.9319396839
 20
785605.5587192036
 30
20.311774997684864
 40
0.5
  1
B51-514
 72
1
 11
571335.9319396839
 21
785605.5587192036
 31
20.311774997684864
100
AcDbText
 73
2
  0
TEXT
  5
149
330
17
100
AcDbEntity
  8
0
100
AcDbText
 10
571316.5108931419
 20
785610.1256906646
 30
19.71430280390867
 40
0.5
  1
16.769
 72
1
 11
571316.5108931419
 21
785610.1256906646
 31
19.71430280390867
100
AcDbText
 73
1
  0
CIRCLE
  5
14A
330
17
100
AcDbEntity
  8
B51
100
AcDbCircle
 10
571316.5108931419
 20
785610.1256906646
 30
19.71430280390867
 40
0.25
  0
LINE
  5
14B
330
17
100
AcDbEntity
  8
B51
100
AcDbLine
 10
571316.291760239
 20
785608.0291960724
 30
19.67997111019559
 11
571354.6148214838
 21
785599.0173277458
 31
20.85993774447104
  0
TEXT
  5
14C
330
17
100
AcDbEntity
  8
B51
100
AcDbText
 10
571335.4532908614
 20
785603.5232619091
 30
20.269954427333317
 40
0.5
  1
B51-513
 72
1
 11
571335.4532908614
 21
785603.5232619091
 31
20.269954427333317
100
AcDbText
 73
2
  0
TEXT
  5
14D
330
17
100
AcDbEntity
  8
0
100
AcDbText
 10
571316.0485076514
 20
785608.0863981908
 30
19.672481365698786
 40
0.5
  1
16.727
 72
1
 11
571316.0485076514
 21
785608.0863981908
 31
19.672481365698786
100
AcDbText
 73
1
  0
CIRCLE
  5
14E
330
17
100
AcDbEntity
  8
B51
100
AcDbCircle
 10
571316.0485076514
 20
785608.0863981908
 30
19.672481365698786
 40
0.25
  0
LINE
  5
14F
330
17
100
AcDbEntity
  8
B51
100
AcDbLine
 10
571356.5862964944
 20
785604.9977345723
 30
21.000945877806647
 11
571395.007027934
 21
785595.962834767
 31
22.27224399098704
  0
TEXT
  5
150
330
17
100
AcDbEntity
  8
B51
100
AcDbText
 10
571375.7966622142
 20
785600.4802846697
 30
21.636594934396843
 40
0.5
  1
B51-520
 72
1
 11
571375.7966622142
 21
785600.4802846697
 31
21.636594934396843
100
AcDbText
 73
2
  0
TEXT
  5
151
330
17
100
AcDbEntity
  8
0
100
AcDbText
 10
571356.3430609045
 20
785605.0549330977
 30
20.992897490001752
 40
0.5
  1
18.048
 72
1
 11
571356.3430609045
 21
785605.0549330977
 31
20.992897490001752
100
AcDbText
 73
1
  0
CIRCLE
  5
152
330
17
100
AcDbEntity
  8
B51
100
AcDbCircle
 10
571356.3430609045
 20
785605.0549330977
 30
20.992897490001752
 40
0.25
  0
TEXT
  5
153
330
17
100
AcDbEntity
  8
0
100
AcDbText
 10
571394.5205567543
 20
785596.0772318178
 30
22.256147215377247
 40
0.5
  1
19.311
 72
2
 11
571394.5205567543
 21
785596.0772318178
 31
22.256147215377247
100
AcDbText
 73
1
  0
CIRCLE
  5
154
330
17
100
AcDbEntity
  8
B51
100
AcDbCircle
 10
571394.5205567543
 20
785596.0772318178
 30
22.256147215377247
 40
0.25
  0
LINE
  5
155
330
17
100
AcDbEntity
  8
B51
100
AcDbLine
 10
571356.0913845547
 20
785602.9661125403
 30
20.95913228977227
 11
571394.4794961248
 21
785593.9389047425
 31
22.230404625314442
  0
TEXT
  5
156
330
17
100
AcDbEntity
  8
B51
100
AcDbText
 10
571375.2854403397
 20
785598.4525086414
 30
21.594768457543356
 40
0.5
  1
B51-519
 72
1
 11
571375.2854403397
 21
785598.4525086414
 31
21.594768457543356
100
AcDbText
 73
2
  0
TEXT
  5
157
330
17
100
AcDbEntity
  8
0
100
AcDbText
 10
571355.8481491442
 20
785603.0233108891
 30
20.95107723220873
 40
0.5
  1
18.006
 72
1
 11
571355.8481491442
 21
785603.0233108891
 31
20.95107723220873
100
AcDbText
 73
1
  0
CIRCLE
  5
158
330
17
100
AcDbEntity
  8
B51
100
AcDbCircle
 10
571355.8481491442
 20
785603.0233108891
 30
20.95107723220873
 40
0.25
  0
TEXT
  5
159
330
17
100
AcDbEntity
  8
0
100
AcDbText
 10
571393.9930253037
 20
785594.0533014401
 30
22.214294510187358
 40
0.5
  1
19.269
 72
2
 11
571393.9930253037
 21
785594.0533014401
 31
22.214294510187358
100
AcDbText
 73
1
  0
CIRCLE
  5
15A
330
17
100
AcDbEntity
  8
B51
100
AcDbCircle
 10
571393.9930253037
 20
785594.0533014401
 30
22.214294510187358
 40
0.25
  0
LINE
  5
15B
330
17
100
AcDbEntity
  8
B51
100
AcDbLine
 10
571355.5964726154
 20
785600.9344905091
 30
20.917318377152153
 11
571393.9519643155
 21
785591.9149747179
 31
22.18856526534126
  0
TEXT
  5
15C
330
17
100
AcDbEntity
  8
B51
100
AcDbText
 10
571374.7742184654
 20
785596.4247326135
 30
21.552941821246705
 40
0.5
  1
B51-518
 72
1
 11
571374.7742184654
 21
785596.4247326135
 31
21.552941821246705
100
AcDbText
 73
2
  0
TEXT
  5
15D
330
17
100
AcDbEntity
  8
0
100
AcDbText
 10
571355.3532373846
 20
785600.991688681
 30
20.909256636408443
 40
0.5
  1
17.964
 72
1
 11
571355.3532373846
 21
785600.991688681
 31
20.909256636408443
100
AcDbText
 73
1
  0
CIRCLE
  5
15E
330
17
100
AcDbEntity
  8
B51
100
AcDbCircle
 10
571355.3532373846
 20
785600.991688681
 30
20.909256636408443
 40
0.25
  0
TEXT
  5
15F
330
17
100
AcDbEntity
  8
0
100
AcDbText
 10
571393.465493854
 20
785592.0293710616
 30
22.17244178385384
 40
0.5
  1
19.227
 72
2
 11
571393.465493854
 21
785592.0293710616
 31
22.17244178385384
100
AcDbText
 73
1
  0
CIRCLE
  5
160
330
17
100
AcDbEntity
  8
B51
100
AcDbCircle
 10
571393.465493854
 20
785592.0293710616
 30
22.17244178385384
 40
0.25
  0
LINE
  5
161
330
17
100
AcDbEntity
  8
B51
100
AcDbLine
 10
571355.1015606761
 20
785598.9028684783
 30
20.875504925065478
 11
571393.4244325063
 21
785589.8910446938
 31
22.14672704017817
  0
TEXT
  5
162
330
17
100
AcDbEntity
  8
B51
100
AcDbText
 10
571374.2629965912
 20
785594.396956586
 30
21.511115982621824
 40
0.5
  1
B51-517
 72
1
 11
571374.2629965912
 21
785594.396956586
 31
21.511115982621824
100
AcDbText
 73
2
  0
TEXT
  5
163
330
17
100
AcDbEntity
  8
0
100
AcDbText
 10
571354.8583256258
 20
785598.9600664728
 30
20.86743648550487
 40
0.5
  1
17.922
 72
1
 11
571354.8583256258
 21
785598.9600664728
 31
20.86743648550487
100
AcDbText
 73
1
  0
CIRCLE
  5
164
330
17
100
AcDbEntity
  8
B51
100
AcDbCircle
 10
571354.8583256258
 20
785598.9600664728
 30
20.86743648550487
 40
0.25
  0
TEXT
  5
165
330
17
100
AcDbEntity
  8
0
100
AcDbText
 10
571392.9379624056
 20
785590.0054406828
 30
22.13059016105696
 40
0.5
  1
19.186
 72
2
 11
571392.9379624056
 21
785590.0054406828
 31
22.13059016105696
100
AcDbText
 73
1
  0
CIRCLE
  5
166
330
17
100
AcDbEntity
  8
B51
100
AcDbCircle
 10
571392.9379624056
 20
785590.0054406828
 30
22.13059016105696
 40
0.25
  0
LINE
  5
168
330
17
100
AcDbEntity
  8
B52
100
AcDbLine
 10
571282.0090808993
 20
785638.712977156
 30
20.341080182424673
 11
571320.1986917149
 21
785627.5213736921
 31
20.3127433791012
  0
TEXT
  5
169
330
17
100
AcDbEntity
  8
B52
100
AcDbText
 10
571301.1038863071
 20
785633.117175424
 30
20.326911780762934
 40
0.5
  1
B52-412
 72
1
 11
571301.1038863071
 21
785633.117175424
 31
20.326911780762934
100
AcDbText
 73
2
  0
TEXT
  5
16A
330
17
100
AcDbEntity
  8
0
100
AcDbText
 10
571282.4889015032
 20
785638.5723639941
 30
20.340724154128168
 40
0.5
  1
17.396
 11
571282.4889015032
 21
785638.5723639941
 31
20.340724154128168
100
AcDbText
 73
1
  0
CIRCLE
  5
16B
330
17
100
AcDbEntity
  8
B52
100
AcDbCircle
 10
571282.4889015032
 20
785638.5723639941
 30
20.340724154128168
 40
0.25
  0
LINE
  5
16C
330
17
100
AcDbEntity
  8
B52
100
AcDbLine
 10
571281.3372519666
 20
785635.5140363901
 30
20.404499001134717
 11
571319.5951752947
 21
785624.8596422833
 31
20.36815756602754
  0
TEXT
  5
16D
330
17
100
AcDbEntity
  8
B52
100
AcDbText
 10
571300.4662136306
 20
785630.1868393368
 30
20.38632828358113
 40
0.5
  1
B52-411
 72
1
 11
571300.4662136306
 21
785630.1868393368
 31
20.38632828358113
100
AcDbText
 73
2
  0
TEXT
  5
16E
330
17
100
AcDbEntity
  8
0
100
AcDbText
 10
571281.8189223261
 20
785635.3798967036
 30
20.404041459517494
 40
0.5
  1
17.459
 11
571281.8189223261
 21
785635.3798967036
 31
20.404041459517494
100
AcDbText
 73
1
  0
CIRCLE
  5
16F
330
17
100
AcDbEntity
  8
B52
100
AcDbCircle
 10
571281.8189223261
 20
785635.3798967036
 30
20.404041459517494
 40
0.25
  0
LINE
  5
170
330
17
100
AcDbEntity
  8
B52
100
AcDbLine
 10
571280.665423034
 20
785632.3150956242
 30
20.467935044420102
 11
571318.991554306
 21
785622.1974496896
 31
20.423588166680318
  0
TEXT
  5
171
330
17
100
AcDbEntity
  8
B52
100
AcDbText
 10
571299.82848867
 20
785627.2562726568
 30
20.44576160555021
 40
0.5
  1
B52-410
 72
1
 11
571299.82848867
 21
785627.2562726568
 31
20.44576160555021
100
AcDbText
 73
2
  0
TEXT
  5
172
330
17
100
AcDbEntity
  8
0
100
AcDbText
 10
571281.1488610653
 20
785632.1874736944
 30
20.467375661916343
 40
0.5
  1
17.522
 11
571281.1488610653
 21
785632.1874736944
 31
20.467375661916343
100
AcDbText
 73
1
  0
CIRCLE
  5
173
330
17
100
AcDbEntity
  8
B52
100
AcDbCircle
 10
571281.1488610653
 20
785632.1874736944
 30
20.467375661916343
 40
0.25
  0
LINE
  5
174
330
17
100
AcDbEntity
  8
B52
100
AcDbLine
 10
571279.9935941013
 20
785629.1161548584
 30
20.426227538305284
 11
571318.3878284745
 21
785619.5347946993
 31
20.41754152315128
  0
TEXT
  5
175
330
17
100
AcDbEntity
  8
B52
100
AcDbText
 10
571299.1907112879
 20
785624.3254747789
 30
20.42188453072828
 40
0.5
  1
B52-217
 72
1
 11
571299.1907112879
 21
785624.3254747789
 31
20.42188453072828
100
AcDbText
 73
2
  0
TEXT
  5
176
330
17
100
AcDbEntity
  8
0
100
AcDbText
 10
571280.4787164277
 20
785628.995091584
 30
20.42611778797565
 40
0.5
  1
17.481
 11
571280.4787164277
 21
785628.995091584
 31
20.42611778797565
100
AcDbText
 73
1
  0
CIRCLE
  5
177
330
17
100
AcDbEntity
  8
B52
100
AcDbCircle
 10
571280.4787164277
 20
785628.995091584
 30
20.42611778797565
 40
0.25
  0
LINE
  5
178
330
17
100
AcDbEntity
  8
B52
100
AcDbLine
 10
571279.3217651689
 20
785625.9172140926
 30
20.49155979352583
 11
571317.7839975242
 21
785616.8716760963
 31
20.472153836779402
  0
TEXT
  5
179
330
17
100
AcDbEntity
  8
B52
100
AcDbText
 10
571298.5528813465
 20
785621.3944450945
 30
20.481856815152618
 40
0.5
  1
B52-216
 72
1
 11
571298.5528813465
 21
785621.3944450945
 31
20.481856815152618
100
AcDbText
 73
2
  0
TEXT
  5
17A
330
17
100
AcDbEntity
  8
0
100
AcDbText
 10
571279.8084861026
 20
785625.8027471876
 30
20.49131422053619
 40
0.5
  1
17.546
 11
571279.8084861026
 21
785625.8027471876
 31
20.49131422053619
100
AcDbText
 73
1
  0
CIRCLE
  5
17B
330
17
100
AcDbEntity
  8
B52
100
AcDbCircle
 10
571279.8084861026
 20
785625.8027471876
 30
20.49131422053619
 40
0.25
  0
LINE
  5
17C
330
17
100
AcDbEntity
  8
B52
100
AcDbLine
 10
571320.6794392266
 20
785627.3804888964
 30
20.31624628208933
 11
571358.8026291507
 21
785616.2083503146
 31
20.899561028307474
  0
TEXT
  5
17D
330
17
100
AcDbEntity
  8
B52
100
AcDbText
 10
571339.7410341887
 20
785621.7944196055
 30
20.607903655198403
 40
0.5
  1
B52-415
 72
1
 11
571339.7410341887
 21
785621.7944196055
 31
20.607903655198403
100
AcDbText
 73
2
  0
TEXT
  5
17E
330
17
100
AcDbEntity
  8
0
100
AcDbText
 10
571320.4395547218
 20
785627.4507879175
 30
20.312575860770423
 40
0.5
  1
17.368
 72
1
 11
571320.4395547218
 21
785627.4507879175
 31
20.312575860770423
100
AcDbText
 73
1
  0
CIRCLE
  5
17F
330
17
100
AcDbEntity
  8
B52
100
AcDbCircle
 10
571320.4395547218
 20
785627.4507879175
 30
20.312575860770423
 40
0.25
  0
LINE
  5
180
330
17
100
AcDbEntity
  8
B52
100
AcDbLine
 10
571320.077416157
 20
785624.7253437183
 30
20.371548945664955
 11
571358.2853410152
 21
785614.0848736133
 31
20.94484730565078
  0
TEXT
  5
181
330
17
100
AcDbEntity
  8
B52
100
AcDbText
 10
571339.1813785861
 20
785619.4051086658
 30
20.65819812565787
 40
0.5
  1
B52-414
 72
1
 11
571339.1813785861
 21
785619.4051086658
 31
20.65819812565787
100
AcDbText
 73
2
  0
TEXT
  5
182
330
17
100
AcDbEntity
  8
0
100
AcDbText
 10
571319.8366060322
 20
785624.792406584
 30
20.36793566255283
 40
0.5
  1
17.423
 72
1
 11
571319.8366060322
 21
785624.792406584
 31
20.36793566255283
100
AcDbText
 73
1
  0
CIRCLE
  5
183
330
17
100
AcDbEntity
  8
B52
100
AcDbCircle
 10
571319.8366060322
 20
785624.792406584
 30
20.36793566255283
 40
0.25
  0
LINE
  5
184
330
17
100
AcDbEntity
  8
B52
100
AcDbLine
 10
571319.4752911323
 20
785622.0697488815
 30
20.426867817721607
 11
571357.7679419153
 21
785611.9609414005
 31
20.990145355330622
  0
TEXT
  5
185
330
17
100
AcDbEntity
  8
B52
100
AcDbText
 10
571338.6216165238
 20
785617.0153451411
 30
20.708506586526113
 40
0.5
  1
B52-413
 72
1
 11
571338.6216165238
 21
785617.0153451411
 31
20.708506586526113
100
AcDbText
 73
2
  0
TEXT
  5
186
330
17
100
AcDbEntity
  8
0
100
AcDbText
 10
571319.2335964093
 20
785622.1335534333
 30
20.42331253477213
 40
0.5
  1
17.478
 72
1
 11
571319.2335964093
 21
785622.1335534333
 31
20.42331253477213
100
AcDbText
 73
1
  0
CIRCLE
  5
187
330
17
100
AcDbEntity
  8
B52
100
AcDbCircle
 10
571319.2335964093
 20
785622.1335534333
 30
20.42331253477213
 40
0.25
  0
LINE
  5
188
330
17
100
AcDbEntity
  8
B52
100
AcDbLine
 10
571318.8730638853
 20
785619.4137032045
 30
20.421184065662803
 11
571357.250431487
 21
785609.8365521828
 31
21.006227399770342
  0
TEXT
  5
189
330
17
100
AcDbEntity
  8
B52
100
AcDbText
 10
571338.0617476861
 20
785614.6251276936
 30
20.713705732716573
 40
0.5
  1
B52-219
 72
1
 11
571338.0617476861
 21
785614.6251276936
 31
20.713705732716573
100
AcDbText
 73
2
  0
TEXT
  5
18A
330
17
100
AcDbEntity
  8
0
100
AcDbText
 10
571318.6305292444
 20
785619.474228223
 30
20.41748674915155
 40
0.5
  1
17.472
 72
1
 11
571318.6305292444
 21
785619.474228223
 31
20.41748674915155
100
AcDbText
 73
1
  0
CIRCLE
  5
18B
330
17
100
AcDbEntity
  8
B52
100
AcDbCircle
 10
571318.6305292444
 20
785619.474228223
 30
20.41748674915155
 40
0.25
  0
LINE
  5
18C
330
17
100
AcDbEntity
  8
B52
100
AcDbLine
 10
571318.2707341465
 20
785616.7572055017
 30
20.475664356817664
 11
571356.7328093651
 21
785607.7117044609
 31
21.049962704947237
  0
TEXT
  5
18D
330
17
100
AcDbEntity
  8
B52
100
AcDbText
 10
571337.5017717557
 20
785612.2344549813
 30
20.76281353088245
 40
0.5
  1
B52-218
 72
1
 11
571337.5017717557
 21
785612.2344549813
 31
20.76281353088245
100
AcDbText
 73
2
  0
TEXT
  5
18E
330
17
100
AcDbEntity
  8
0
100
AcDbText
 10
571318.0273993531
 20
785616.8144329163
 30
20.472030991506873
 40
0.5
  1
17.527
 72
1
 11
571318.0273993531
 21
785616.8144329163
 31
20.472030991506873
100
AcDbText
 73
1
  0
CIRCLE
  5
18F
330
17
100
AcDbEntity
  8
B52
100
AcDbCircle
 10
571318.0273993531
 20
785616.8144329163
 30
20.472030991506873
 40
0.25
  0
LINE
  5
190
330
17
100
AcDbEntity
  8
B52
100
AcDbLine
 10
571359.2829606673
 20
785616.0675874281
 30
20.910760141774723
 11
571397.3403178357
 21
785604.9147413734
 31
22.095305241775353
  0
TEXT
  5
191
330
17
100
AcDbEntity
  8
B52
100
AcDbText
 10
571378.3116392514
 20
785610.4911644007
 30
21.50303269177504
 40
0.5
  1
B52-418
 72
1
 11
571378.3116392514
 21
785610.4911644007
 31
21.50303269177504
100
AcDbText
 73
2
  0
TEXT
  5
192
330
17
100
AcDbEntity
  8
0
100
AcDbText
 10
571359.0431572525
 20
785616.1378626855
 30
20.903296198371635
 40
0.5
  1
17.958
 72
1
 11
571359.0431572525
 21
785616.1378626855
 31
20.903296198371635
100
AcDbText
 73
1
  0
CIRCLE
  5
193
330
17
100
AcDbEntity
  8
B52
100
AcDbCircle
 10
571359.0431572525
 20
785616.1378626855
 30
20.903296198371635
 40
0.25
  0
TEXT
  5
194
330
17
100
AcDbEntity
  8
0
100
AcDbText
 10
571396.8607110061
 20
785605.0552918881
 30
22.080377354969176
 40
0.5
  1
19.135
 72
2
 11
571396.8607110061
 21
785605.0552918881
 31
22.080377354969176
100
AcDbText
 73
1
  0
CIRCLE
  5
195
330
17
100
AcDbEntity
  8
B52
100
AcDbCircle
 10
571396.8607110061
 20
785605.0552918881
 30
22.080377354969176
 40
0.25
  0
LINE
  5
196
330
17
100
AcDbEntity
  8
B52
100
AcDbLine
 10
571358.7672685267
 20
785613.9506623131
 30
20.95592056952193
 11
571396.9256898258
 21
785603.3239783833
 31
22.129167754530727
  0
TEXT
  5
197
330
17
100
AcDbEntity
  8
B52
100
AcDbText
 10
571377.8464791763
 20
785608.6373203483
 30
21.542544162026328
 40
0.5
  1
B52-417
 72
1
 11
571377.8464791763
 21
785608.6373203483
 31
21.542544162026328
100
AcDbText
 73
2
  0
TEXT
  5
198
330
17
100
AcDbEntity
  8
0
100
AcDbText
 10
571358.5265388216
 20
785614.0177027829
 30
20.94851891507019
 40
0.5
  1
18.004
 72
1
 11
571358.5265388216
 21
785614.0177027829
 31
20.94851891507019
100
AcDbText
 73
1
  0
CIRCLE
  5
199
330
17
100
AcDbEntity
  8
B52
100
AcDbCircle
 10
571358.5265388216
 20
785614.0177027829
 30
20.94851891507019
 40
0.25
  0
TEXT
  5
19A
330
17
100
AcDbEntity
  8
0
100
AcDbText
 10
571396.4442304155
 20
785603.4580593228
 30
22.114364445627245
 40
0.5
  1
19.169
 72
2
 11
571396.4442304155
 21
785603.4580593228
 31
22.114364445627245
100
AcDbText
 73
1
  0
CIRCLE
  5
19B
330
17
100
AcDbEntity
  8
B52
100
AcDbCircle
 10
571396.4442304155
 20
785603.4580593228
 30
22.114364445627245
 40
0.25
  0
LINE
  5
19C
330
17
100
AcDbEntity
  8
B52
100
AcDbLine
 10
571358.2514689051
 20
785611.8332959866
 30
21.00109227614338
 11
571396.511061816
 21
785601.7332153931
 31
22.163030065069126
  0
TEXT
  5
19D
330
17
100
AcDbEntity
  8
B52
100
AcDbText
 10
571377.3812653606
 20
785606.7832556899
 30
21.582061170606252
 40
0.5
  1
B52-416
 72
1
 11
571377.3812653606
 21
785606.7832556899
 31
21.582061170606252
100
AcDbText
 73
2
  0
TEXT
  5
19E
330
17
100
AcDbEntity
  8
0
100
AcDbText
 10
571358.0098538806
 20
785611.8970794991
 30
20.993754466040713
 40
0.5
  1
18.049
 72
1
 11
571358.0098538806
 21
785611.8970794991
 31
20.993754466040713
100
AcDbText
 73
1
  0
CIRCLE
  5
19F
330
17
100
AcDbEntity
  8
B52
100
AcDbCircle
 10
571358.0098538806
 20
785611.8970794991
 30
20.993754466040713
 40
0.25
  0
TEXT
  5
1A0
330
17
100
AcDbEntity
  8
0
100
AcDbText
 10
571396.027831767
 20
785601.860782418
 30
22.1483544448638
 40
0.5
  1
19.203
 72
2
 11
571396.027831767
 21
785601.860782418
 31
22.1483544448638
100
AcDbText
 73
1
  0
CIRCLE
  5
1A1
330
17
100
AcDbEntity
  8
B52
100
AcDbCircle
 10
571396.027831767
 20
785601.860782418
 30
22.1483544448638
 40
0.25
  0
LINE
  5
1A2
330
17
100
AcDbEntity
  8
B52
100
AcDbLine
 10
571357.7355614502
 20
785609.7154870025
 30
21.017377740018752
 11
571396.0964338062
 21
785600.1424524032
 31
22.188423108529932
  0
TEXT
  5
1A3
330
17
100
AcDbEntity
  8
B52
100
AcDbText
 10
571376.9159976282
 20
785604.9289697029
 30
21.602900424274342
 40
0.5
  1
B52-221
 72
1
 11
571376.9159976282
 21
785604.9289697029
 31
21.602900424274342
100
AcDbText
 73
2
  0
TEXT
  5
1A4
330
17
100
AcDbEntity
  8
0
100
AcDbText
 10
571357.493106607
 20
785609.7759921073
 30
21.00997630194402
 40
0.5
  1
18.065
 72
1
 11
571357.493106607
 21
785609.7759921073
 31
21.00997630194402
100
AcDbText
 73
1
  0
CIRCLE
  5
1A5
330
17
100
AcDbEntity
  8
B52
100
AcDbCircle
 10
571357.493106607
 20
785609.7759921073
 30
21.00997630194402
 40
0.25
  0
TEXT
  5
1A6
330
17
100
AcDbEntity
  8
0
100
AcDbText
 10
571395.6115241197
 20
785600.2634626129
 30
22.173620232380472
 40
0.5
  1
19.229
 72
2
 11
571395.6115241197
 21
785600.2634626129
 31
22.173620232380472
100
AcDbText
 73
1
  0
CIRCLE
  5
1A7
330
17
100
AcDbEntity
  8
B52
100
AcDbCircle
 10
571395.6115241197
 20
785600.2634626129
 30
22.173620232380472
 40
0.25
  0
LINE
  5
1A8
330
17
100
AcDbEntity
  8
B52
100
AcDbLine
 10
571357.2195458083
 20
785607.5972339081
 30
21.06098694938791
 11
571395.6818057965
 21
785598.5516894131
 31
22.221294933687982
  0
TEXT
  5
1A9
330
17
100
AcDbEntity
  8
B52
100
AcDbText
 10
571376.4506758023
 20
785603.0744616606
 30
21.641140941537948
 40
0.5
  1
B52-220
 72
1
 11
571376.4506758023
 21
785603.0744616606
 31
21.641140941537948
100
AcDbText
 73
2
  0
TEXT
  5
1AA
330
17
100
AcDbEntity
  8
0
100
AcDbText
 10
571356.9762901785
 20
785607.6544427051
 30
21.053648549367253
 40
0.5
  1
18.109
 72
1
 11
571356.9762901785
 21
785607.6544427051
 31
21.053648549367253
100
AcDbText
 73
1
  0
CIRCLE
  5
1AB
330
17
100
AcDbEntity
  8
B52
100
AcDbCircle
 10
571356.9762901785
 20
785607.6544427051
 30
21.053648549367253
 40
0.25
  0
TEXT
  5
1AC
330
17
100
AcDbEntity
  8
0
100
AcDbText
 10
571395.1952945369
 20
785598.6661070071
 30
22.206618133646664
 40
0.5
  1
19.262
 72
2
 11
571395.1952945369
 21
785598.6661070071
 31
22.206618133646664
100
AcDbText
 73
1
  0
CIRCLE
  5
1AD
330
17
100
AcDbEntity
  8
B52
100
AcDbCircle
 10
571395.1952945369
 20
785598.6661070071
 30
22.206618133646664
 40
0.25
  0
ENDSEC
  0
SECTION
  2
OBJECTS
  0
DICTIONARY
  5
A
330
0
100
AcDbDictionary
280
0
281
1
  3
ACAD_COLOR
350
B
  3
ACAD_GROUP
350
C
  3
ACAD_LAYOUT
350
D
  3
ACAD_MATERIAL
350
E
  3
ACAD_MLEADERSTYLE
350
F
  3
ACAD_MLINESTYLE
350
10
  3
ACAD_PLOTSETTINGS
350
11
  3
ACAD_PLOTSTYLENAME
350
12
  3
ACAD_SCALELIST
350
14
  3
ACAD_TABLESTYLE
350
15
  3
ACAD_VISUALSTYLE
350
16
  3
EZDXF_META
350
2D
  0
DICTIONARY
  5
B
330
A
100
AcDbDictionary
280
0
281
1
  0
DICTIONARY
  5
C
330
A
100
AcDbDictionary
280
0
281
1
  0
DICTIONARY
  5
D
330
A
100
AcDbDictionary
280
0
281
1
  3
Model
350
1A
  3
Layout1
350
1E
  0
DICTIONARY
  5
E
330
A
100
AcDbDictionary
280
0
281
1
  3
ByBlock
350
1F
  3
ByLayer
350
20
  3
Global
350
21
  0
DICTIONARY
  5
F
330
A
100
AcDbDictionary
280
0
281
1
  3
Standard
350
2C
  0
DICTIONARY
  5
10
330
A
100
AcDbDictionary
280
0
281
1
  3
Standard
350
22
  0
DICTIONARY
  5
11
330
A
100
AcDbDictionary
280
0
281
1
  0
ACDBDICTIONARYWDFLT
  5
12
330
A
100
AcDbDictionary
280
0
281
1
  3
Normal
350
13
100
AcDbDictionaryWithDefault
340
13
  0
ACDBPLACEHOLDER
  5
13
330
12
  0
DICTIONARY
  5
14
330
A
100
AcDbDictionary
280
0
281
1
  0
DICTIONARY
  5
15
330
A
100
AcDbDictionary
280
0
281
1
  0
DICTIONARY
  5
16
330
A
100
AcDbDictionary
280
0
281
1
  0
LAYOUT
  5
1A
330
D
100
AcDbPlotSettings
  1

  2
Adobe PDF
  4
A3
  6

 40
7.5
 41
20.0
 42
7.5
 43
20.0
 44
420.0
 45
297.0
 46
0.0
 47
0.0
 48
0.0
 49
0.0
140
0.0
141
0.0
142
1.0
143
1.0
 70
1024
 72
1
 73
0
 74
5
  7

 75
16
 76
0
 77
2
 78
300
147
1.0
148
0.0
149
0.0
100
AcDbLayout
  1
Model
 70
1
 71
0
 10
0.0
 20
0.0
 11
420.0
 21
297.0
 12
0.0
 22
0.0
 32
0.0
 14
1e+20
 24
1e+20
 34
1e+20
 15
-1e+20
 25
-1e+20
 35
-1e+20
146
0.0
 13
0.0
 23
0.0
 33
0.0
 16
1.0
 26
0.0
 36
0.0
 17
0.0
 27
1.0
 37
0.0
 76
1
330
17
  0
LAYOUT
  5
1E
330
D
100
AcDbPlotSettings
  1

  2
Adobe PDF
  4
A3
  6

 40
7.5
 41
20.0
 42
7.5
 43
20.0
 44
420.0
 45
297.0
 46
0.0
 47
0.0
 48
0.0
 49
0.0
140
0.0
141
0.0
142
1.0
143
1.0
 70
0
 72
1
 73
0
 74
5
  7

 75
16
 76
0
 77
2
 78
300
147
1.0
148
0.0
149
0.0
100
AcDbLayout
  1
Layout1
 70
1
 71
1
 10
0.0
 20
0.0
 11
420.0
 21
297.0
 12
0.0
 22
0.0
 32
0.0
 14
1e+20
 24
1e+20
 34
1e+20
 15
-1e+20
 25
-1e+20
 35
-1e+20
146
0.0
 13
0.0
 23
0.0
 33
0.0
 16
1.0
 26
0.0
 36
0.0
 17
0.0
 27
1.0
 37
0.0
 76
1
330
1B
  0
MATERIAL
  5
1F
102
{ACAD_REACTORS
330
E
102
}
330
E
100
AcDbMaterial
  1
ByBlock
  2

 70
0
 40
1.0
 71
1
 41
1.0
 91
-1023410177
 42
1.0
 72
1
  3

 73
1
 74
1
 75
1
 44
0.5
 73
0
 45
1.0
 46
1.0
 77
1
  4

 78
1
 79
1
170
1
 48
1.0
171
1
  6

172
1
173
1
174
1
140
1.0
141
1.0
175
1
  7

176
1
177
1
178
1
143
1.0
179
1
  8

270
1
271
1
272
1
145
1.0
146
1.0
273
1
  9

274
1
275
1
276
1
 42
1.0
 72
1
  3

 73
1
 74
1
 75
1
 94
63
  0
MATERIAL
  5
20
102
{ACAD_REACTORS
330
E
102
}
330
E
100
AcDbMaterial
  1
ByLayer
  2

 70
0
 40
1.0
 71
1
 41
1.0
 91
-1023410177
 42
1.0
 72
1
  3

 73
1
 74
1
 75
1
 44
0.5
 73
0
 45
1.0
 46
1.0
 77
1
  4

 78
1
 79
1
170
1
 48
1.0
171
1
  6

172
1
173
1
174
1
140
1.0
141
1.0
175
1
  7

176
1
177
1
178
1
143
1.0
179
1
  8

270
1
271
1
272
1
145
1.0
146
1.0
273
1
  9

274
1
275
1
276
1
 42
1.0
 72
1
  3

 73
1
 74
1
 75
1
 94
63
  0
MATERIAL
  5
21
102
{ACAD_REACTORS
330
E
102
}
330
E
100
AcDbMaterial
  1
Global
  2

 70
0
 40
1.0
 71
1
 41
1.0
 91
-1023410177
 42
1.0
 72
1
  3

 73
1
 74
1
 75
1
 44
0.5
 73
0
 45
1.0
 46
1.0
 77
1
  4

 78
1
 79
1
170
1
 48
1.0
171
1
  6

172
1
173
1
174
1
140
1.0
141
1.0
175
1
  7

176
1
177
1
178
1
143
1.0
179
1
  8

270
1
271
1
272
1
145
1.0
146
1.0
273
1
  9

274
1
275
1
276
1
 42
1.0
 72
1
  3

 73
1
 74
1
 75
1
 94
63
  0
MLINESTYLE
  5
22
102
{ACAD_REACTORS
330
10
102
}
330
10
100
AcDbMlineStyle
  2
Standard
 70
0
  3

 62
256
 51
90.0
 52
90.0
 71
2
 49
0.5
 62
256
  6
BYLAYER
 49
-0.5
 62
256
  6
BYLAYER
  0
MLEADERSTYLE
  5
2C
102
{ACAD_REACTORS
330
F
102
}
330
F
100
AcDbMLeaderStyle
179
2
170
2
171
1
172
0
 90
2
 40
0.0
 41
0.0
173
1
 91
-1056964608
 92
-2
290
1
 42
2.0
291
1
 43
8.0
  3
Standard
 44
4.0
300

342
29
174
1
175
1
176
0
178
1
 93
-1056964608
 45
4.0
292
0
297
0
 46
4.0
 94
-1056964608
 47
1.0
 49
1.0
140
1.0
294
1
141
0.0
177
0
142
1.0
295
0
296
0
143
3.75
271
0
272
9
273
9
  0
DICTIONARY
  5
2D
330
A
100
AcDbDictionary
281
1
  3
CREATED_BY_EZDXF
350
2E
  3
WRITTEN_BY_EZDXF
350
1B0
  0
DICTIONARYVAR
  5
2E
330
2D
100
DictionaryVariables
280
0
  1
1.1.4 @ 2024-07-23T08:38:43.870551+00:00
  0
DICTIONARYVAR
  5
1B0
330
2D
100
DictionaryVariables
280
0
  1
1.1.4 @ 2024-07-23T08:38:43.878568+00:00
  0
ENDSEC
  0
EOF
